<svg width="49" height="48" viewBox="0 0 49 48" fill="none" xmlns="http://www.w3.org/2000/svg">
<rect x="1.5" y="1" width="46" height="46" rx="23" fill="#F4EBFF"/>
<rect x="1.5" y="1" width="46" height="46" rx="23" stroke="#E9D7FE" stroke-width="2"/>
<path d="M33.3382 16.6099C32.8274 16.0989 32.221 15.6935 31.5535 15.417C30.8861 15.1404 30.1707 14.998 29.4482 14.998C28.7257 14.998 28.0103 15.1404 27.3428 15.417C26.6754 15.6935 26.0689 16.0989 25.5582 16.6099L24.4982 17.6699L23.4382 16.6099C22.4065 15.5782 21.0072 14.9986 19.5482 14.9986C18.0891 14.9986 16.6899 15.5782 15.6582 16.6099C14.6265 17.6416 14.0469 19.0408 14.0469 20.4999C14.0469 21.9589 14.6265 23.3582 15.6582 24.3899L16.7182 25.4499L24.4982 33.2299L32.2782 25.4499L33.3382 24.3899C33.8492 23.8791 34.2545 23.2727 34.5311 22.6052C34.8076 21.9378 34.95 21.2224 34.95 20.4999C34.95 19.7774 34.8076 19.062 34.5311 18.3945C34.2545 17.7271 33.8492 17.1206 33.3382 16.6099V16.6099Z" stroke="#7F56D9" stroke-width="2" stroke-linecap="round"/>
</svg>
