<svg width="49" height="48" viewBox="0 0 49 48" fill="none" xmlns="http://www.w3.org/2000/svg">
<rect x="1.5" y="1" width="46" height="46" rx="23" fill="#F4EBFF"/>
<rect x="1.5" y="1" width="46" height="46" rx="23" stroke="#E9D7FE" stroke-width="2"/>
<path d="M15.5 30V24C15.5 21.6131 16.4482 19.3239 18.136 17.636C19.8239 15.9482 22.1131 15 24.5 15C26.8869 15 29.1761 15.9482 30.864 17.636C32.5518 19.3239 33.5 21.6131 33.5 24V30M33.5 31C33.5 31.5304 33.2893 32.0391 32.9142 32.4142C32.5391 32.7893 32.0304 33 31.5 33H30.5C29.9696 33 29.4609 32.7893 29.0858 32.4142C28.7107 32.0391 28.5 31.5304 28.5 31V28C28.5 27.4696 28.7107 26.9609 29.0858 26.5858C29.4609 26.2107 29.9696 26 30.5 26H33.5V31ZM15.5 31C15.5 31.5304 15.7107 32.0391 16.0858 32.4142C16.4609 32.7893 16.9696 33 17.5 33H18.5C19.0304 33 19.5391 32.7893 19.9142 32.4142C20.2893 32.0391 20.5 31.5304 20.5 31V28C20.5 27.4696 20.2893 26.9609 19.9142 26.5858C19.5391 26.2107 19.0304 26 18.5 26H15.5V31Z" stroke="#7F56D9" stroke-width="2" stroke-linecap="round"/>
</svg>
