<svg width="49" height="48" viewBox="0 0 49 48" fill="none" xmlns="http://www.w3.org/2000/svg">
<rect x="1.5" y="1" width="46" height="46" rx="23" fill="#F4EBFF"/>
<rect x="1.5" y="1" width="46" height="46" rx="23" stroke="#E9D7FE" stroke-width="2"/>
<path d="M24.5 13V35M29.5 17H22C21.0717 17 20.1815 17.3687 19.5251 18.0251C18.8687 18.6815 18.5 19.5717 18.5 20.5C18.5 21.4283 18.8687 22.3185 19.5251 22.9749C20.1815 23.6313 21.0717 24 22 24H27C27.9283 24 28.8185 24.3687 29.4749 25.0251C30.1313 25.6815 30.5 26.5717 30.5 27.5C30.5 28.4283 30.1313 29.3185 29.4749 29.9749C28.8185 30.6313 27.9283 31 27 31H18.5" stroke="#7F56D9" stroke-width="2" stroke-linecap="round"/>
</svg>
