<svg width="1046" height="345" viewBox="0 0 1046 345" fill="none" xmlns="http://www.w3.org/2000/svg">
<path d="M169.778 338.643C259.916 338.643 332.875 264.263 332.741 172.506C332.62 80.7488 259.438 6.36938 169.307 6.36938C79.1753 6.36938 6.21648 80.7488 6.34392 172.5C6.47136 264.257 79.6468 338.636 169.784 338.636L169.778 338.643Z" fill="#E53110"/>
<path fill-rule="evenodd" clip-rule="evenodd" d="M205.109 57.2431C192.489 55.689 179.684 56.9032 167.578 60.8017L173.224 79.649C189.763 74.1993 207.742 75.1961 223.581 82.4409C239.024 89.7875 251.18 102.645 257.671 118.5L275.729 109.836C269.433 95.6718 259.609 83.3689 247.202 74.1098C234.874 64.9142 220.362 59.1007 205.109 57.2431ZM253.663 120.48L237.134 128.403C233.999 122.231 229.629 116.774 224.295 112.373C218.465 107.504 211.632 103.991 204.287 102.087C196.961 100.191 189.305 99.9572 181.877 101.403L179.863 101.85L174.555 84.0956C189.843 80.1911 206.003 81.6637 220.338 88.2676C234.754 94.9261 246.499 106.279 253.663 120.48Z" fill="url(#paint0_linear_981_12019)"/>
<path fill-rule="evenodd" clip-rule="evenodd" d="M159.332 180.043C158.06 177.645 156.67 175.312 155.165 173.054C148.022 162.365 142.739 155.101 135.112 148.782C125.056 140.474 113.912 133.587 101.991 128.312C90.0879 122.997 75.9932 118.825 66.5117 114.896C80.8167 128.868 97.7534 146.009 111.651 164.831C124.216 181.889 134.29 200.289 137.584 218.785C138.451 223.673 139.305 229.314 140.101 235.09C136.852 245.738 132.236 255.918 126.37 265.373L112.129 286.942C123.679 280.812 134.442 273.294 144.179 264.555V264.344C156.846 252.14 167.596 238.082 176.065 222.651C177.925 218.907 179.633 215.105 181.188 211.234C183.259 206.091 185.049 200.832 186.54 195.491C190.038 183.985 192.466 172.172 193.779 160.199C194.097 156.494 194.187 152.775 194.034 149.063C192.354 150.353 190.762 151.754 189.267 153.254C188.33 154.182 187.313 155.024 186.228 155.772C183.998 157.247 181.29 157.791 178.671 157.286C175.625 157.145 172.516 157.848 165.258 168.537C163.718 170.746 162.371 173.085 161.231 175.526C160.571 177.02 159.938 178.526 159.332 180.043Z" fill="white"/>
<path d="M427.538 165.696C427.453 169.618 427.883 173.534 428.818 177.343C429.507 180.084 430.857 182.601 432.737 184.684C434.572 186.55 436.879 187.866 439.396 188.505C442.518 189.271 445.71 189.629 448.916 189.571C449.808 189.571 450.955 189.571 452.375 189.412C453.796 189.246 455.326 189.156 456.95 188.945C458.575 188.735 460.27 188.549 461.984 188.268C463.53 188.044 465.06 187.724 466.566 187.31L469.726 202.362C467.783 203.088 465.806 203.717 463.8 204.247C459.367 205.403 454.84 206.16 450.273 206.508C447.979 206.7 445.685 206.809 443.678 206.809C437.058 207.039 430.461 205.915 424.288 203.506C419.636 201.589 415.533 198.516 412.366 194.561C409.429 190.748 407.364 186.333 406.319 181.63C405.18 176.587 404.62 171.429 404.65 166.258C404.65 161.294 405.21 156.343 406.319 151.513C407.389 146.713 409.489 142.204 412.474 138.301C415.735 134.163 419.966 130.899 424.791 128.8C431.203 126.128 438.115 124.879 445.054 125.14C448.831 125.117 452.603 125.406 456.332 126.002C459.741 126.545 463.106 127.325 466.4 128.334V153.634H451.528V142.121C450.52 141.887 449.495 141.731 448.463 141.655H445.373C442.461 141.567 439.569 142.158 436.923 143.38C434.712 144.466 432.82 146.127 431.456 148.203C430 150.518 428.991 153.086 428.481 155.774C427.833 159.041 427.517 162.365 427.538 165.696ZM480.641 192.229H486.478V162.508H479.749V149.5H507.722V192.223H512.871V205.55H480.641V192.229Z" fill="#231F20"/>
<path d="M540.735 192.669L547.604 193.928V204.693C546.63 205.089 545.616 205.396 544.584 205.6C542.368 206.067 540.131 206.426 537.881 206.674C536.982 206.782 536.078 206.84 535.179 206.859C532.73 207.032 530.272 206.684 527.966 205.837C526.187 204.982 524.693 203.628 523.665 201.94L509.328 176.64L522.703 154.304C523.818 152.387 525.392 150.784 527.278 149.647C529.253 148.624 531.452 148.132 533.663 148.228C535.886 148.228 538.098 148.497 540.258 149.02C542.239 149.455 544.164 150.145 545.98 151.065L544.858 162.226L539.162 162.693L529.094 175.662L540.735 192.669ZM614.077 177.419C614.107 181.33 613.48 185.217 612.222 188.919C611.054 192.405 609.13 195.588 606.59 198.24C603.85 200.988 600.568 203.096 596.955 204.438C588.085 207.451 578.471 207.451 569.6 204.438C566.018 203.14 562.767 201.063 560.081 198.355C557.551 195.713 555.655 192.527 554.537 189.04C553.322 185.279 552.72 181.347 552.753 177.394C552.722 173.487 553.348 169.603 554.607 165.906C555.771 162.42 557.695 159.238 560.24 156.591C562.98 153.844 566.268 151.736 569.874 150.394C574.271 148.752 578.929 147.96 583.612 148.062C588.25 147.965 592.863 148.757 597.204 150.394C600.791 151.736 604.06 153.85 606.774 156.591C609.323 159.211 611.241 162.405 612.382 165.906C613.592 169.612 614.198 173.49 614.166 177.394L614.077 177.413V177.419ZM592.469 177.419C592.482 175.593 592.352 173.769 592.081 171.963C591.856 170.354 591.408 168.784 590.749 167.299C590.157 165.996 589.223 164.879 588.047 164.066C586.732 163.225 585.19 162.81 583.631 162.878C582.016 162.803 580.417 163.234 579.056 164.111C577.846 164.961 576.864 166.092 576.189 167.42C575.454 168.884 574.967 170.46 574.749 172.084C574.475 173.856 574.338 175.646 574.341 177.438C574.335 179.387 574.469 181.335 574.749 183.259C574.966 184.881 575.437 186.453 576.151 187.922C576.756 189.219 577.706 190.325 578.891 191.117C580.28 191.935 581.873 192.331 583.479 192.254C585.084 192.337 586.684 191.915 588.047 191.04C589.239 190.254 590.207 189.162 590.844 187.871C591.558 186.408 592.036 184.837 592.24 183.214C592.459 181.288 592.536 179.349 592.469 177.413V177.419ZM620.691 216.34H627.56V162.948H620.691V149.506H647.313V154.17L647.657 154.285C648.931 153.212 650.32 152.292 651.799 151.538C653.271 150.8 654.803 150.191 656.38 149.717C657.814 149.293 659.272 148.952 660.745 148.695C661.91 148.486 663.091 148.375 664.275 148.362C668.2 148.235 672.105 148.967 675.719 150.509C678.631 151.832 681.161 153.895 683.066 156.495C684.945 159.147 686.258 162.169 686.908 165.376C687.679 168.941 688.061 172.595 688.036 176.25C688.079 180.385 687.649 184.511 686.755 188.549C686.025 191.992 684.598 195.25 682.562 198.119C680.555 200.828 677.924 202.981 674.897 204.387C671.256 206.017 667.299 206.814 663.313 206.719C662.484 206.719 661.503 206.719 660.337 206.527C659.171 206.348 657.928 206.252 656.584 206.016C655.207 205.798 653.845 205.495 652.506 205.109C651.17 204.751 649.874 204.259 648.638 203.639V216.34H655.921V229.776H620.672V216.34H620.691ZM657.954 191.647C659.005 191.641 660.044 191.462 661.044 191.136C662.229 190.733 663.261 189.974 664.001 188.964C665.033 187.584 665.772 185.999 666.174 184.306C666.805 181.776 667.091 179.163 667.021 176.55C667.085 174.198 666.823 171.848 666.244 169.567C665.87 168.106 665.181 166.745 664.224 165.58C663.466 164.701 662.452 164.082 661.325 163.811C660.219 163.553 659.089 163.42 657.954 163.415C656.387 163.463 654.84 163.77 653.372 164.322C651.754 164.878 650.212 165.664 648.804 166.654V189.079C650.225 189.954 651.767 190.612 653.372 191.015C654.87 191.436 656.412 191.647 657.954 191.647ZM757.458 177.419C757.488 181.33 756.861 185.217 755.604 188.919C754.438 192.41 752.507 195.595 749.952 198.24C747.219 200.988 743.937 203.096 740.337 204.438C735.94 206.057 731.282 206.845 726.599 206.763C721.964 206.838 717.355 206.05 713.008 204.438C709.443 203.143 706.207 201.075 703.532 198.381C701.002 195.737 699.106 192.549 697.989 189.06C696.775 185.299 696.175 181.366 696.211 177.413C696.187 173.511 696.802 169.633 698.033 165.932C699.205 162.442 701.138 159.257 703.692 156.61C706.42 153.872 709.706 151.758 713.326 150.413C722.152 147.369 731.74 147.369 740.566 150.413C744.161 151.77 747.425 153.883 750.137 156.61C752.679 159.236 754.604 162.424 755.744 165.932C756.955 169.637 757.554 173.509 757.522 177.413H757.458V177.419ZM735.851 177.419C735.897 175.634 735.806 173.849 735.577 172.078C735.349 170.471 734.901 168.904 734.245 167.42C733.656 166.114 732.722 164.994 731.544 164.181C730.229 163.343 728.69 162.929 727.134 162.993C725.516 162.918 723.914 163.351 722.553 164.232C721.301 165.026 720.269 166.122 719.552 167.42C718.822 168.888 718.329 170.462 718.092 172.084C717.83 173.857 717.698 175.646 717.697 177.438C717.697 179.387 717.825 181.335 718.092 183.259C718.322 184.881 718.8 186.453 719.507 187.922C720.112 189.213 721.055 190.318 722.234 191.117C723.617 191.928 725.203 192.324 726.809 192.254C728.421 192.337 730.014 191.915 731.391 191.04C732.582 190.247 733.544 189.155 734.182 187.871C734.896 186.405 735.367 184.832 735.577 183.214C735.812 181.29 735.903 179.351 735.851 177.413V177.419ZM787.763 206.808C783.112 206.846 778.467 206.444 773.892 205.6C770.532 205.053 767.23 204.196 764.028 203.039L767.622 190.069C770.342 190.88 773.108 191.513 775.911 191.947C778.091 192.267 780.295 192.439 782.5 192.459C785.418 192.605 788.337 192.12 791.058 191.04C791.943 190.705 792.702 190.102 793.23 189.315C793.762 188.525 794.044 187.592 794.04 186.638C794.121 185.868 793.965 185.091 793.592 184.413C793.22 183.734 792.649 183.186 791.956 182.843C790.522 182.175 788.956 181.841 787.375 181.866H781.13V171.056H786.368C787.954 171.094 789.522 170.736 790.949 170.034C791.541 169.717 792.029 169.237 792.357 168.65C792.684 168.064 792.837 167.395 792.797 166.724C792.797 163.766 790.624 162.271 786.298 162.271C785.365 162.256 784.432 162.311 783.507 162.437C782.36 162.565 781.232 162.808 780.142 163.185V167.42H766.411V152.055C770.089 150.735 773.873 149.73 777.721 149.052C781.745 148.318 785.827 147.95 789.917 147.954C793.582 147.897 797.24 148.296 800.807 149.142C803.547 149.787 806.146 150.931 808.479 152.522C810.396 153.774 811.964 155.492 813.054 157.53C814.022 159.428 814.519 161.536 814.5 163.677C814.532 165.977 813.895 168.225 812.665 170.155C811.114 172.402 809 174.201 806.535 175.368V175.72C809.148 176.62 811.435 178.32 813.073 180.588C814.71 182.856 815.628 185.578 815.692 188.395C815.705 190.9 815.131 193.373 814.016 195.615C812.788 197.96 811.005 199.967 808.823 201.46C806.189 203.285 803.249 204.618 800.144 205.396C796.097 206.41 791.934 206.889 787.763 206.821V206.808ZM866.323 149.506C872.956 149.506 877.863 150.86 881.042 153.563C882.628 154.954 883.879 156.686 884.702 158.63C885.525 160.573 885.899 162.679 885.796 164.788C885.732 166.845 885.235 168.864 884.33 170.704C883.24 172.946 881.425 174.752 879.182 175.828C880.679 176.327 882.068 177.119 883.26 178.16C884.305 179.08 885.165 180.198 885.796 181.444C886.388 182.645 886.809 183.91 887.083 185.214C887.331 186.415 887.459 187.635 887.465 188.855C887.576 191.202 887.121 193.542 886.138 195.675C885.156 197.808 883.674 199.672 881.82 201.109C877.427 204.214 872.124 205.755 866.756 205.485H826.154V192.114H832.399V162.507H826.263V149.5L866.323 149.506ZM852.592 182.307V192.676H861.997C862.703 192.718 863.411 192.614 864.076 192.369C864.741 192.123 865.347 191.743 865.858 191.251C866.33 190.761 866.698 190.18 866.939 189.543C867.18 188.906 867.289 188.226 867.26 187.545C867.281 186.205 866.827 184.901 865.979 183.865C865.471 183.327 864.851 182.907 864.162 182.638C863.474 182.368 862.734 182.255 861.997 182.307H852.592ZM852.592 162.041V171.356H861.334C862.513 171.374 863.653 170.932 864.513 170.123C864.954 169.674 865.296 169.137 865.517 168.547C865.737 167.957 865.832 167.327 865.794 166.699C865.858 165.494 865.456 164.311 864.673 163.395C864.182 162.935 863.599 162.585 862.963 162.368C862.327 162.151 861.652 162.072 860.983 162.137L852.592 162.041ZM958.022 177.419C958.061 181.329 957.44 185.217 956.187 188.919C955.011 192.407 953.078 195.591 950.528 198.24C947.795 200.988 944.507 203.096 940.894 204.438C932.025 207.45 922.414 207.45 913.546 204.438C909.964 203.136 906.711 201.059 904.02 198.355C901.5 195.704 899.607 192.518 898.482 189.034C897.267 185.273 896.664 181.34 896.698 177.387C896.665 173.483 897.292 169.601 898.552 165.906C899.723 162.419 901.654 159.237 904.204 156.591C906.938 153.844 910.213 151.736 913.82 150.394C918.209 148.756 922.868 147.965 927.551 148.062C932.19 147.969 936.805 148.76 941.149 150.394C944.755 151.762 948.025 153.891 950.739 156.636C953.275 159.268 955.18 162.45 956.327 165.951C957.538 169.657 958.143 173.535 958.111 177.438L958.022 177.413V177.419ZM936.434 177.419C936.434 175.592 936.3 173.765 936.045 171.963C935.815 170.353 935.36 168.783 934.694 167.299C934.102 166.004 933.179 164.888 932.018 164.066C930.698 163.23 929.156 162.816 927.596 162.878C925.978 162.806 924.378 163.237 923.014 164.111C921.81 164.961 920.816 166.092 920.141 167.42C919.4 168.882 918.911 170.459 918.694 172.084C918.425 173.856 918.295 175.646 918.305 177.438C918.293 179.387 918.42 181.335 918.694 183.259C918.917 184.875 919.389 186.453 920.09 187.922C920.695 189.219 921.644 190.325 922.836 191.11C924.225 191.935 925.812 192.324 927.417 192.254C928.985 192.318 930.546 191.89 931.878 191.04C933.069 190.28 934.044 189.219 934.72 187.967C935.416 186.492 935.886 184.919 936.115 183.303C936.357 181.355 936.465 179.387 936.434 177.413V177.419ZM1032 149.506V191.436H1038.86V204.086C1036.59 205.143 1034.2 205.926 1031.75 206.418C1029.41 206.886 1027.04 207.134 1024.65 207.159C1019.43 207.159 1015.83 206.099 1013.85 203.965C1011.7 201.302 1010.65 197.923 1010.89 194.509V182.422H993.864V205.549H972.601V162.507H966.006V149.5H993.864V170.819H1010.89V149.5L1032 149.506Z" fill="#231F20"/>
<defs>
<linearGradient id="paint0_linear_981_12019" x1="221.638" y1="324.235" x2="221.638" y2="273.897" gradientUnits="userSpaceOnUse">
<stop stop-color="#C5C5C6"/>
<stop offset="1" stop-color="white"/>
</linearGradient>
</defs>
</svg>
