<svg width="832" height="183" viewBox="0 0 832 183" fill="none" xmlns="http://www.w3.org/2000/svg">
<path fill-rule="evenodd" clip-rule="evenodd" d="M315.019 120.216V134.346C311.697 139.059 307.752 142.43 303.269 144.351C298.58 146.364 293.353 147.378 287.733 147.378C281.595 147.378 277.267 146.173 274.88 143.773C272.449 141.356 271.269 138.012 271.269 133.533C271.269 128.503 272.584 125.142 275.3 123.244C278.194 121.231 281.923 120.216 286.38 120.216H315.019ZM346.295 145.895C343.478 145.884 341.208 145.491 339.533 144.727C336.864 143.511 335.519 140.166 335.519 134.793V88.8479C335.519 77.626 331.486 69.1921 323.559 63.7694C315.87 58.5049 306.149 55.8264 294.669 55.8264C283.066 55.8264 273.635 58.4559 266.651 63.6165C261.924 67.1082 258.281 71.7723 255.824 77.4841C254.681 80.152 254.73 83.1631 255.964 85.7709C257.177 88.3403 259.424 90.2388 262.124 90.9808C266.791 92.2846 271.598 89.9662 273.473 85.6564C275.112 81.8702 277.068 79.2681 279.283 77.937C282.635 75.8858 287.915 74.8601 295.008 74.8601C301.842 74.8601 306.972 76.3114 310.233 79.1864C313.455 82.0448 315.019 85.8692 315.019 90.839V103.741H281.654C273.463 103.741 266.209 106.485 260.108 111.897C253.927 117.363 250.785 124.968 250.785 134.487C250.785 145.338 254.439 153.352 261.633 158.311C268.607 163.123 276.648 165.561 285.545 165.561C293.607 165.561 301.013 163.636 307.553 159.844C313.774 156.238 318.579 151.83 321.861 146.729H322.604C323.55 155.311 327.299 160.717 333.762 162.817C337.775 164.121 342.011 164.803 346.335 164.879C348.959 164.994 351.195 163.968 352.989 162.163C354.807 160.362 355.809 157.951 355.809 155.365C355.809 150.144 351.534 145.895 346.295 145.895Z" fill="black"/>
<path fill-rule="evenodd" clip-rule="evenodd" d="M463.161 144.82H438.746V67.0479C438.746 61.7999 434.522 57.5337 429.343 57.5337H393.851C388.672 57.5337 384.445 61.7999 384.445 67.0479C384.445 72.2906 388.672 76.5676 393.851 76.5676H418.257V144.82H393.851C388.672 144.82 384.445 149.086 384.445 154.328C384.445 159.571 388.672 163.848 393.851 163.848H463.161C468.339 163.848 472.552 159.571 472.552 154.328C472.552 149.086 468.339 144.82 463.161 144.82Z" fill="black"/>
<path fill-rule="evenodd" clip-rule="evenodd" d="M579.502 144.821H555.096V32.8274C555.096 27.5849 550.874 23.3079 545.702 23.3079H510.192C505.014 23.3079 500.801 27.5849 500.801 32.8274C500.801 38.07 505.014 42.3362 510.192 42.3362H534.607V144.821H510.192C505.014 144.821 500.801 149.087 500.801 154.33C500.801 159.572 505.014 163.849 510.192 163.849H579.502C584.68 163.849 588.913 159.572 588.913 154.33C588.913 149.087 584.68 144.821 579.502 144.821Z" fill="black"/>
<path fill-rule="evenodd" clip-rule="evenodd" d="M637.31 99.4652V97.1793C637.31 89.1653 639.255 83.2353 643.098 79.5747C646.949 75.8705 652.942 73.9994 660.881 73.9994C668.797 73.9994 674.779 75.9415 678.644 79.7983C682.495 83.6501 684.441 90.0165 684.441 98.7069V99.4652H637.31ZM661.043 55.8274C648.043 55.8274 637.329 59.2809 629.22 66.0891C621.002 72.9628 616.82 83.4262 616.82 97.1793V124.718C616.82 138.106 620.791 148.389 628.599 155.268C636.318 162.093 647.239 165.557 661.043 165.557C674.175 165.557 684.107 163.533 690.542 159.551C694.094 157.379 697.196 154.412 699.763 150.757C701.691 148.013 702.173 144.608 701.067 141.412C699.968 138.231 697.407 135.782 694.234 134.849C689.95 133.599 685.341 135.263 683.008 138.891C681.541 141.177 679.764 142.972 677.704 144.232C674.294 146.316 668.634 147.374 660.881 147.374C652.922 147.374 646.923 145.607 643.049 142.11C639.244 138.678 637.31 132.879 637.31 124.893V115.924H703.135C704.13 115.924 704.93 115.111 704.93 114.113V98.3685C704.93 84.0645 700.845 73.2684 692.801 66.2799C684.851 59.3518 674.163 55.8274 661.043 55.8274Z" fill="black"/>
<path fill-rule="evenodd" clip-rule="evenodd" d="M820.136 151.419C819.031 146.362 814.106 143.132 809.207 144.114C808.065 144.349 806.922 144.572 805.769 144.758C802.105 145.363 798.16 145.669 794.064 145.669C788.148 145.669 783.67 144.229 780.759 141.392C777.859 138.577 776.404 134.06 776.404 127.972V76.5656H810.953C816.134 76.5656 820.359 72.2886 820.359 67.0459C820.359 61.8032 816.134 57.5373 810.953 57.5373H776.404V32.8244C776.404 27.5817 772.191 23.3047 767.012 23.3047H765.309C760.13 23.3047 755.906 27.5817 755.906 32.8244V57.5373H736.567C731.389 57.5373 727.176 61.8032 727.176 67.0459C727.176 72.2886 731.389 76.5656 736.567 76.5656H755.906V129.51C755.906 141.534 759.247 150.628 765.81 156.542C772.313 162.412 781.482 165.396 793.042 165.396C798.542 165.396 803.621 165.003 808.136 164.239C809.802 163.955 811.446 163.65 813.041 163.295C815.508 162.766 817.61 161.282 818.983 159.138C820.347 156.989 820.8 154.436 820.25 151.948L820.136 151.419Z" fill="black"/>
<path fill-rule="evenodd" clip-rule="evenodd" d="M428.512 42.5723C435.357 42.5723 440.923 36.926 440.923 29.9976C440.923 23.0694 435.357 17.4395 428.512 17.4395C421.67 17.4395 416.09 23.0694 416.09 29.9976C416.09 36.926 421.67 42.5723 428.512 42.5723Z" fill="black"/>
<path d="M20.7824 161.176C25.7194 164.146 31.1519 165.557 36.5151 165.557C46.9728 165.557 57.171 160.189 62.9229 150.507L91.2623 102.847L119.601 150.507C128.308 165.156 147.176 169.937 161.747 161.176C176.317 152.425 181.069 133.46 172.362 118.814L117.642 26.7824C112.094 17.4536 102.076 11.7417 91.2623 11.7417C80.448 11.7417 70.4304 17.4536 64.8821 26.7824L10.1674 118.814C1.45579 133.46 6.21219 152.425 20.7824 161.176Z" fill="url(#paint0_linear_978_11960)"/>
<path d="M91.2545 102.847L119.594 150.507C128.301 165.156 147.169 169.937 161.739 161.176C176.309 152.425 181.061 133.46 172.354 118.814L117.634 26.7824C112.086 17.4536 102.069 11.7417 91.2545 11.7417C80.4402 11.7417 70.4226 17.4536 64.8743 26.7824C55.1843 43.0752 77.0132 71.5601 91.2545 102.847Z" fill="url(#paint1_linear_978_11960)"/>
<path fill-rule="evenodd" clip-rule="evenodd" d="M136.851 108.592C136.851 83.42 116.447 63.0156 91.2752 63.0156C66.1036 63.0156 45.6992 83.42 45.6992 108.592C45.6992 133.763 66.1036 154.167 91.2752 154.167C116.447 154.167 136.851 133.763 136.851 108.592Z" fill="white"/>
<path fill-rule="evenodd" clip-rule="evenodd" d="M116.906 108.592C116.906 94.4327 105.43 82.9556 91.2716 82.9556C77.1088 82.9556 65.6328 94.4327 65.6328 108.592C65.6328 122.751 77.1088 134.228 91.2716 134.228C105.43 134.228 116.906 122.751 116.906 108.592Z" fill="black"/>
<defs>
<linearGradient id="paint0_linear_978_11960" x1="22.205" y1="161.898" x2="104.823" y2="17.5994" gradientUnits="userSpaceOnUse">
<stop stop-color="#3AC4E8"/>
<stop offset="1" stop-color="#512A84"/>
</linearGradient>
<linearGradient id="paint1_linear_978_11960" x1="112.081" y1="42.8718" x2="178.398" y2="144.537" gradientUnits="userSpaceOnUse">
<stop stop-color="#F86203" stop-opacity="0"/>
<stop offset="0.468934" stop-color="#F53C04"/>
<stop offset="1" stop-color="#FFB902"/>
</linearGradient>
</defs>
</svg>
