<svg width="85" height="85" viewBox="0 0 85 85" fill="none" xmlns="http://www.w3.org/2000/svg">
<path id="image 103 (Traced)" fill-rule="evenodd" clip-rule="evenodd" d="M38.8002 0.263215C29.4954 1.87207 22.7211 4.59152 16.6395 9.15845C12.7386 12.0877 6.9657 19.0148 5.05931 23.0535C4.376 24.5002 3.58573 26.1135 3.30255 26.6383C3.01936 27.1632 2.26346 29.9036 1.62282 32.7283C0.179175 39.0951 0.396967 48.5866 2.1105 53.9839C11.2573 82.79 44.9616 93.4669 68.5387 75.0264C77.5226 68.0003 83.7216 56.1149 84.6006 44.2311C85.2163 35.905 81.5603 24.5162 75.7763 16.7427C68.8147 7.38626 56.7097 0.991797 44.618 0.283146C42.1801 0.140308 39.5622 0.131451 38.8002 0.263215ZM42.8651 17.6517C43.6775 18.563 44.3376 19.497 44.332 19.7279C44.3265 19.9593 42.5808 21.9773 40.4527 24.2134C35.5083 29.4087 35.3415 30.7723 39.1532 34.8432C40.5663 36.3524 42.0061 37.5875 42.3519 37.5875C42.6977 37.5875 45.0896 35.4699 47.6671 32.8816C50.2446 30.2934 52.5201 28.1758 52.724 28.1758C53.5104 28.1758 56.534 31.2329 56.534 32.0279C56.534 32.9846 43.2968 46.4457 42.3558 46.4457C42.0161 46.4457 39.361 43.9981 36.4554 41.0062C31.9167 36.3335 31.1109 35.2219 30.7396 33.1169C30.1732 29.9037 30.3284 27.9665 31.3492 25.5255C32.3112 23.2263 39.1964 16.0922 40.5098 16.0346C40.9925 16.013 42.0527 16.741 42.8651 17.6517ZM46.9893 25.1623C48.9123 26.5077 48.5394 28.4194 45.8056 31.229C43.3323 33.7713 41.9019 34.2408 40.3474 33.0201C38.604 31.6509 38.6738 30.1118 40.588 27.7456C43.3145 24.3756 44.9322 23.7229 46.9893 25.1623ZM24.6685 53.3661C24.6685 53.6706 23.3595 53.995 21.759 54.0869C19.3024 54.2281 18.8496 54.4224 18.8496 55.3326C18.8496 56.2251 19.2392 56.4111 21.1068 56.4111C22.9594 56.4111 23.3302 56.5849 23.175 57.3799C23.0708 57.9131 22.4911 58.3743 21.8871 58.4053C19.1488 58.5459 18.8496 58.6738 18.8496 59.7041C18.8496 60.6143 19.3024 60.8086 21.759 60.9498C26.2657 61.2089 24.9412 62.2242 20.0965 62.2242H15.8016L15.637 58.124C15.5467 55.8685 15.6048 53.6783 15.7672 53.2559C15.9911 52.6729 17.095 52.5279 20.3653 52.6508C22.7566 52.7405 24.6685 53.0583 24.6685 53.3661ZM32.7042 55.8574C33.5171 56.6696 33.8125 57.7027 33.8125 59.7329C33.8125 62.3167 33.72 62.501 32.4271 62.501C31.138 62.501 31.0416 62.3128 31.0416 59.7921C31.0416 57.8328 30.7989 56.9902 30.1649 56.7471C28.5433 56.1254 28.3294 56.4006 28.161 59.3176C28.0152 61.85 27.8329 62.2469 26.7467 62.4014C25.5546 62.5702 25.4998 62.4064 25.4998 58.6644V54.7502H28.5478C30.8571 54.7502 31.8646 55.0187 32.7042 55.8574ZM45.472 57.0306C46.3182 59.5923 47.0697 59.5624 47.9525 56.9315C48.3787 55.6609 48.991 54.9683 49.7918 54.8498C51.2443 54.6361 51.2914 55.2861 50.0656 58.6073C48.7887 62.0648 48.2872 62.583 46.4019 62.3909C44.9943 62.2475 44.6196 61.8334 43.7274 59.4356C42.7337 56.7648 42.598 56.643 40.5098 56.56C37.9068 56.4565 36.86 57.4458 37.3809 59.5181C37.7173 60.8579 37.9284 60.9542 39.9362 60.6851C41.7933 60.4365 42.1253 60.5451 42.1253 61.4026C42.1253 62.0803 41.5655 62.5359 40.4261 62.7862C37.0218 63.533 33.8264 60.8523 34.574 57.8765C35.2185 55.3104 36.3086 54.7651 40.6982 54.81L44.7521 54.8515L45.472 57.0306ZM58.8455 55.6664C60.4438 57.1114 60.2021 60.4902 58.3988 61.907C56.6681 63.2673 55.3835 63.3475 53.2205 62.2303C50.7123 60.9343 50.3211 57.7143 52.4181 55.6194C53.5824 54.4562 57.5393 54.485 58.8455 55.6664ZM63.6314 57.3821C63.7511 59.0286 64.1252 59.9006 64.8866 60.3081C66.1568 60.9869 66.3907 60.5755 66.6284 57.2415C66.7565 55.4489 66.9975 55.027 67.8947 55.027C68.8856 55.027 69.0203 55.45 69.1655 59.017C69.3057 62.459 69.1683 63.1665 68.1652 64.1686C66.6894 65.6429 62.4704 65.5615 62.1839 64.0529C62.0359 63.2711 62.3263 63.1648 63.9102 63.4217C64.9576 63.5917 65.9656 63.4854 66.1507 63.1864C66.3364 62.8864 65.6004 62.4988 64.5092 62.3217C61.6236 61.8538 60.9675 61.071 60.9675 58.0963C60.9675 55.2584 61.2889 54.6256 62.6029 54.8742C63.1825 54.9838 63.5167 55.7976 63.6314 57.3821ZM54.1106 57.2576C53.5603 58.6909 53.6988 59.5895 54.6104 60.5002C55.9964 61.8854 57.1708 60.9896 56.979 58.6937C56.8488 57.1369 56.5479 56.6502 55.6346 56.5201C54.9407 56.421 54.3156 56.7239 54.1106 57.2576Z" fill="#6A50E5"/>
</svg>
