<svg width="767" height="836" viewBox="0 0 767 836" fill="none" xmlns="http://www.w3.org/2000/svg">
<path fill-rule="evenodd" clip-rule="evenodd" d="M44.7354 665.042C77.6191 787.542 243.486 848.322 369.518 833.918C480.121 821.278 510.255 677.719 592.283 602.466C642.767 556.15 723.566 547.091 750.721 484.195C780.906 414.279 764.666 336.155 738.067 264.798C704.599 175.014 670.567 75.4974 583.474 35.5251C486.01 -9.20699 353.988 -19.8987 274.435 52.0083C198.033 121.067 274.957 250.615 238.824 347.05C193.529 467.935 11.2673 540.364 44.7354 665.042Z" fill="#EFF9F9"/>
<path fill-rule="evenodd" clip-rule="evenodd" d="M0.367561 354.179C3.70298 330.74 23.6998 313.656 45.975 310.903C65.9388 308.436 81.8324 324.119 90.5169 343.038C99.1201 361.778 101.182 385.107 86.8385 399.92C72.4963 414.732 50.5684 411.824 32.9405 402.5C14.4099 392.697 -2.74513 376.053 0.367561 354.179Z" fill="#EFF9F9"/>
<path fill-rule="evenodd" clip-rule="evenodd" d="M87.2475 231.159C66.5742 217.704 59.229 191.309 66.4225 169.063C72.8695 149.126 94.6718 141.013 116.36 141.13C137.845 141.245 160.787 149.555 168.472 169.613C176.157 189.669 163.77 209.098 147.212 221.645C129.805 234.834 106.54 243.716 87.2475 231.159Z" fill="#EFF9F9"/>
</svg>
