<svg width="151" height="171" viewBox="0 0 151 171" fill="none" xmlns="http://www.w3.org/2000/svg">
<path d="M150.838 159.142L130.95 170.881L130.728 147.788L150.838 159.142ZM40.0829 132.575L38.6687 133.989L40.0829 132.575ZM3.49975 0.500009C5.47672 0.802606 5.47674 0.80251 5.47675 0.802424C5.47675 0.802406 5.47677 0.802326 5.47677 0.80229C5.47678 0.802216 5.47679 0.802175 5.47679 0.802164C5.4768 0.802146 5.47678 0.802255 5.47674 0.802492C5.47667 0.802967 5.47652 0.803951 5.47629 0.805446C5.47584 0.808436 5.47508 0.813462 5.47403 0.820512C5.47192 0.834613 5.46862 0.856807 5.46421 0.886978C5.4554 0.947318 5.44213 1.03957 5.425 1.1628C5.39074 1.40927 5.34104 1.77966 5.28061 2.26661C5.15975 3.24055 4.996 4.68046 4.82704 6.52749L0.84367 6.16309C1.0168 4.27053 1.18525 2.7878 1.31106 1.774C1.37397 1.26708 1.42623 0.877317 1.46309 0.61211C1.48152 0.479504 1.4961 0.378029 1.50625 0.308607C1.51132 0.273895 1.51528 0.247197 1.51806 0.228627C1.51945 0.219342 1.52054 0.212089 1.52133 0.206881C1.52173 0.204277 1.52205 0.202184 1.52228 0.200607C1.52241 0.199817 1.5225 0.199157 1.52259 0.198623C1.52263 0.198358 1.52266 0.198123 1.52269 0.197921C1.52271 0.197821 1.52273 0.197694 1.52274 0.197642C1.52275 0.197524 1.52277 0.197411 3.49975 0.500009ZM4.13309 18.1823C4.02728 21.6842 3.99635 25.6141 4.10047 29.8778L0.101662 29.9755C-0.00438662 25.6328 0.0270939 21.6298 0.134912 18.0615L4.13309 18.1823ZM4.70603 41.5465C5.00435 45.2838 5.41733 49.1752 5.97376 53.1755L2.0119 53.7266C1.44395 49.6434 1.02279 45.6741 0.718711 41.8648L4.70603 41.5465ZM7.94036 64.6748C8.70385 68.4128 9.6044 72.2031 10.6626 76.0134L6.80854 77.0838C5.72389 73.1785 4.80203 69.2978 4.02128 65.4753L7.94036 64.6748ZM14.1998 87.1105C15.5064 90.7178 16.9713 94.3139 18.6117 97.8716L14.9792 99.5465C13.2889 95.8804 11.7816 92.1796 10.4389 88.4727L14.1998 87.1105ZM23.9502 108.185C25.868 111.499 27.9625 114.752 30.2489 117.923L27.0046 120.263C24.6365 116.979 22.4698 113.612 20.4882 110.188L23.9502 108.185ZM37.5122 126.952C38.7925 128.38 40.1202 129.784 41.4971 131.16L38.6687 133.989C37.2397 132.56 35.862 131.103 34.5339 129.622L37.5122 126.952ZM41.4971 131.16C42.8907 132.554 44.295 133.875 45.7093 135.129L43.0566 138.122C41.5813 136.815 40.1184 135.439 38.6687 133.989L41.4971 131.16ZM54.7991 142.192C58.0743 144.403 61.3949 146.31 64.7522 147.953L62.9944 151.546C59.4737 149.823 55.9921 147.824 52.5605 145.506L54.7991 142.192ZM75.4121 152.291C79.0979 153.511 82.8207 154.475 86.5705 155.234L85.7778 159.154C81.8858 158.367 78.0069 157.363 74.1552 156.088L75.4121 152.291ZM98.031 156.951C101.892 157.348 105.769 157.581 109.651 157.703L109.526 161.701C105.568 161.577 101.595 161.338 97.6224 160.93L98.031 156.951ZM121.351 157.786C125.283 157.736 129.2 157.625 133.102 157.509L133.22 161.508C129.319 161.623 125.371 161.735 121.402 161.785L121.351 157.786Z" fill="#1F93CC"/>
</svg>
