<svg width="173" height="129" viewBox="0 0 173 129" fill="none" xmlns="http://www.w3.org/2000/svg">
<path d="M-0.000787851 116.651L19.5675 128.916L20.4046 105.837L-0.000787851 116.651ZM121.999 101.5L121.115 99.7064L121.999 101.5ZM168.243 1.06978C166.295 1.52399 166.295 1.52384 166.295 1.52369C166.295 1.52366 166.295 1.52352 166.295 1.52345C166.295 1.5233 166.295 1.52319 166.295 1.52311C166.295 1.52295 166.295 1.52291 166.295 1.52301C166.295 1.52321 166.295 1.52392 166.295 1.52516C166.296 1.52762 166.297 1.53215 166.298 1.53873C166.301 1.55189 166.306 1.57325 166.313 1.60267C166.326 1.6615 166.345 1.75254 166.371 1.87465C166.423 2.11888 166.497 2.48732 166.587 2.97084C166.767 3.938 167.008 5.36476 167.247 7.17817L171.212 6.65674C170.964 4.76711 170.712 3.27003 170.52 2.23911C170.424 1.72359 170.343 1.32443 170.285 1.05082C170.257 0.914016 170.234 0.808577 170.217 0.735656C170.209 0.699196 170.203 0.670863 170.198 0.650801C170.196 0.640769 170.194 0.632805 170.193 0.626927C170.192 0.623988 170.192 0.62157 170.191 0.619675C170.191 0.618728 170.191 0.617913 170.191 0.617227C170.191 0.616885 170.191 0.616575 170.19 0.616298C170.19 0.61616 170.19 0.615977 170.19 0.615908C170.19 0.615733 170.19 0.615566 168.243 1.06978ZM168.118 18.8718C168.191 22.4194 168.102 26.367 167.734 30.5794L171.719 30.9272C172.101 26.5557 172.192 22.4635 172.117 18.7894L168.118 18.8718ZM166.049 42.1559C165.288 45.8375 164.279 49.6111 162.963 53.4073L166.743 54.7174C168.12 50.744 169.173 46.8024 169.966 42.9663L166.049 42.1559ZM158.386 64.1181C156.66 67.4655 154.649 70.78 152.308 74.0139L155.548 76.3593C158.012 72.9551 160.128 69.4683 161.941 65.951L158.386 64.1181ZM144.791 82.8888C142.169 85.5488 139.261 88.1154 136.038 90.5558L138.453 93.7447C141.829 91.188 144.882 88.4942 147.64 85.6971L144.791 82.8888ZM126.29 96.9629C124.631 97.9074 122.906 98.8229 121.115 99.7064L122.884 103.294C124.745 102.376 126.54 101.423 128.269 100.439L126.29 96.9629ZM121.115 99.7064C119.211 100.645 117.338 101.541 115.496 102.396L117.18 106.024C119.051 105.156 120.952 104.247 122.884 103.294L121.115 99.7064ZM104.086 107.328C100.036 108.947 96.145 110.355 92.402 111.577L93.6432 115.379C97.4711 114.13 101.443 112.692 105.57 111.043L104.086 107.328ZM80.5002 114.979C76.2627 116.013 72.2272 116.802 68.3704 117.39L68.9731 121.344C72.9467 120.739 77.0975 119.927 81.4483 118.865L80.5002 114.979ZM56.0974 118.666C51.769 118.905 47.6682 118.909 43.7494 118.758L43.5958 122.755C47.6255 122.91 51.852 122.906 56.3181 122.66L56.0974 118.666ZM31.3944 117.805C27.096 117.331 23.0053 116.765 18.9897 116.239L18.4701 120.205C22.4487 120.726 26.6044 121.301 30.9565 121.781L31.3944 117.805Z" fill="#1F93CC"/>
</svg>
