<svg width="145" height="40" viewBox="0 0 145 40" fill="none" xmlns="http://www.w3.org/2000/svg">
<g clip-path="url(#clip0_203_409)">
<path fill-rule="evenodd" clip-rule="evenodd" d="M9 0H64C63.4477 0 63 0.447715 63 1V39C63 39.5523 63.4477 40 64 40H9C9.55228 40 10 39.5523 10 39V1C10 0.447715 9.55228 0 9 0ZM9 0H0V40H9C8.44771 40 8 39.5523 8 39V1C8 0.447715 8.44771 0 9 0ZM106 40H64C64.5523 40 65 39.5523 65 39V1C65 0.447715 64.5523 0 64 0H106C105.448 0 105 0.447715 105 1V39C105 39.5523 105.448 40 106 40ZM106 40H145V0H106C106.552 0 107 0.447715 107 1V39C107 39.5523 106.552 40 106 40ZM71 12C71 11.4477 70.5523 11 70 11C69.4477 11 69 11.4477 69 12V27C69 27.5523 69.4477 28 70 28C70.5523 28 71 27.5523 71 27V12ZM112 11C112.552 11 113 11.4477 113 12V27C113 27.5523 112.552 28 112 28C111.448 28 111 27.5523 111 27V12C111 11.4477 111.448 11 112 11ZM83 12C83 11.4477 82.5523 11 82 11C81.4477 11 81 11.4477 81 12V27C81 27.5523 81.4477 28 82 28C82.5523 28 83 27.5523 83 27V12ZM124 11C124.552 11 125 11.4477 125 12V27C125 27.5523 124.552 28 124 28C123.448 28 123 27.5523 123 27V12C123 11.4477 123.448 11 124 11ZM89 12C89 11.4477 88.5523 11 88 11C87.4477 11 87 11.4477 87 12V27C87 27.5523 87.4477 28 88 28C88.5523 28 89 27.5523 89 27V12ZM130 11C130.552 11 131 11.4477 131 12V27C131 27.5523 130.552 28 130 28C129.448 28 129 27.5523 129 27V12C129 11.4477 129.448 11 130 11ZM101 12C101 11.4477 100.552 11 100 11C99.4477 11 99 11.4477 99 12V27C99 27.5523 99.4477 28 100 28C100.552 28 101 27.5523 101 27V12ZM142 11C142.552 11 143 11.4477 143 12V27C143 27.5523 142.552 28 142 28C141.448 28 141 27.5523 141 27V12C141 11.4477 141.448 11 142 11ZM77 8C77 7.44772 76.5523 7 76 7C75.4477 7 75 7.44772 75 8V31C75 31.5523 75.4477 32 76 32C76.5523 32 77 31.5523 77 31V8ZM118 7C118.552 7 119 7.44772 119 8V31C119 31.5523 118.552 32 118 32C117.448 32 117 31.5523 117 31V8C117 7.44772 117.448 7 118 7ZM95 8C95 7.44772 94.5523 7 94 7C93.4477 7 93 7.44772 93 8V31C93 31.5523 93.4477 32 94 32C94.5523 32 95 31.5523 95 31V8ZM136 7C136.552 7 137 7.44772 137 8V31C137 31.5523 136.552 32 136 32C135.448 32 135 31.5523 135 31V8C135 7.44772 135.448 7 136 7ZM4 12C4 11.4477 3.55228 11 3 11C2.44772 11 2 11.4477 2 12V27C2 27.5523 2.44772 28 3 28C3.55228 28 4 27.5523 4 27V12ZM15 11C15.5523 11 16 11.4477 16 12V27C16 27.5523 15.5523 28 15 28C14.4477 28 14 27.5523 14 27V12C14 11.4477 14.4477 11 15 11ZM28 12C28 11.4477 27.5523 11 27 11C26.4477 11 26 11.4477 26 12V27C26 27.5523 26.4477 28 27 28C27.5523 28 28 27.5523 28 27V12ZM33 11C33.5523 11 34 11.4477 34 12V27C34 27.5523 33.5523 28 33 28C32.4477 28 32 27.5523 32 27V12C32 11.4477 32.4477 11 33 11ZM52 12C52 11.4477 51.5523 11 51 11C50.4477 11 50 11.4477 50 12V27C50 27.5523 50.4477 28 51 28C51.5523 28 52 27.5523 52 27V12ZM58 11C58.5523 11 59 11.4477 59 12V27C59 27.5523 58.5523 28 58 28C57.4477 28 57 27.5523 57 27V12C57 11.4477 57.4477 11 58 11ZM40 8C40 7.44772 39.5523 7 39 7C38.4477 7 38 7.44772 38 8V31C38 31.5523 38.4477 32 39 32C39.5523 32 40 31.5523 40 31V8ZM45 7C45.5523 7 46 7.44772 46 8V31C46 31.5523 45.5523 32 45 32C44.4477 32 44 31.5523 44 31V8C44 7.44772 44.4477 7 45 7ZM22 8C22 7.44772 21.5523 7 21 7C20.4477 7 20 7.44772 20 8V31C20 31.5523 20.4477 32 21 32C21.5523 32 22 31.5523 22 31V8Z" fill="#D9D9D9"/>
</g>
<defs>
<clipPath id="clip0_203_409">
<rect width="145" height="40" fill="white"/>
</clipPath>
</defs>
</svg>
