<svg width="32" height="32" viewBox="0 0 32 32" fill="none" xmlns="http://www.w3.org/2000/svg">
<path fill-rule="evenodd" clip-rule="evenodd" d="M29.3327 16.0026C29.3327 23.3664 23.3631 29.336 15.9993 29.336C8.63555 29.336 2.66602 23.3664 2.66602 16.0026C2.66602 8.63885 8.63555 2.66931 15.9993 2.66931C23.3631 2.66931 29.3327 8.63885 29.3327 16.0026ZM11.7857 12.8473L10.4209 9.34107L10.4253 9.33598H14.8391L11.7857 12.8473ZM9.78812 10.0405L7.33236 12.8646H10.8874L9.78812 10.0405ZM12.9021 12.8646H19.0899L16.0216 9.33598H15.9705L12.9021 12.8646ZM21.5864 9.35837L21.5669 9.33598H17.153L20.218 12.8608L21.5864 9.35837ZM24.6599 12.8646L22.2188 10.0574L21.1221 12.8646H24.6599ZM20.7886 13.7467L17.01 23.4184L24.6819 13.7467H20.7886ZM7.31037 13.7467L14.987 23.4252L11.2196 13.7467H7.31037ZM15.9917 23.6539L19.8721 13.7467H12.1356L15.9917 23.6539Z" fill="#36BFFA" fill-opacity="0.15"/>
<path d="M14.987 23.4252L7.31037 13.7467H11.2196L14.987 23.4252Z" fill="#36BFFA"/>
<path d="M7.33236 12.8646L9.78812 10.0405L10.8874 12.8646H7.33236Z" fill="#36BFFA"/>
<path d="M10.4209 9.34107L11.7857 12.8473L14.8391 9.33598H10.4253L10.4209 9.34107Z" fill="#36BFFA"/>
<path d="M19.8721 13.7467L15.9917 23.6539L12.1356 13.7467H19.8721Z" fill="#36BFFA"/>
<path d="M19.0899 12.8646H12.9021L15.9705 9.33598H16.0216L19.0899 12.8646Z" fill="#36BFFA"/>
<path d="M21.5669 9.33598L21.5864 9.35837L20.218 12.8608L17.153 9.33598H21.5669Z" fill="#36BFFA"/>
<path d="M22.2188 10.0574L24.6599 12.8646H21.1221L22.2188 10.0574Z" fill="#36BFFA"/>
<path d="M17.01 23.4184L20.7886 13.7467H24.6819L17.01 23.4184Z" fill="#36BFFA"/>
</svg>
