<svg width="41" height="28" viewBox="0 0 41 28" fill="none" xmlns="http://www.w3.org/2000/svg">
<g clip-path="url(#clip0_1882_82867)">
<path fill-rule="evenodd" clip-rule="evenodd" d="M21.2875 8.66241L19.3946 15.724L21.9225 14.717L23.1154 10.2643L21.2875 8.66241ZM22.5214 10.5243L21.4705 9.54832C22.4088 10.6731 21.9337 13.8598 20.3076 14.8371L21.5565 14.3312L22.5214 10.5243Z" fill="#16CDA1"/>
<path fill-rule="evenodd" clip-rule="evenodd" d="M34.5929 12.3512L31.621 12.6242L30.4701 16.918L32.7529 19.2169L34.5929 12.3512ZM33.1039 16.512L34.0399 12.7952L32.123 12.9441C33.103 13.6049 33.3193 14.3081 33.1039 16.512Z" fill="#16CDA1"/>
<path fill-rule="evenodd" clip-rule="evenodd" d="M30.0421 17.335L25.8654 18.4589L25.3033 21.6008L32.397 19.7079L30.0421 17.335ZM31.415 19.4899L30.6381 18.6949C30.3949 19.3396 29.689 19.6907 27.7281 20.5369L31.415 19.4899Z" fill="#16CDA1"/>
<path fill-rule="evenodd" clip-rule="evenodd" d="M22.1635 15.2651L19.5426 16.309L24.7184 21.4758L25.2723 18.3809L22.1635 15.2651ZM24.6664 18.5429L22.1665 15.9051C23.5216 17.7576 24.261 19.0808 24.4284 20.5068L24.6664 18.5429Z" fill="#16CDA1"/>
<path fill-rule="evenodd" clip-rule="evenodd" d="M27.9252 9.36638L23.6684 10.5122L22.5254 14.7801L25.6373 17.9009L29.8951 16.755L31.0381 12.4872L27.9252 9.36638ZM30.3831 12.6833L27.7382 10.0213L24.0964 11.0033L23.7804 12.2002C26.8741 9.08038 31.8129 13.2563 27.9882 16.708L29.4182 16.325L30.3831 12.6833Z" fill="#16CDA1"/>
<path fill-rule="evenodd" clip-rule="evenodd" d="M39.0039 13.998C39.0039 20.6244 33.6322 25.9961 27.0059 25.9961C20.3795 25.9961 15.0078 20.6244 15.0078 13.998C15.0078 7.37171 20.3795 2 27.0059 2C33.6322 2 39.0039 7.37171 39.0039 13.998ZM21.7564 8.27843L28.8272 6.39147L28.0022 8.72737L27.9372 8.74433L23.6164 9.90732L21.7564 8.27843ZM28.5042 9.10034L29.3732 6.64247L34.498 11.7593L31.4381 12.0402L28.5042 9.10034ZM19.3946 15.724L21.2875 8.66241L23.1154 10.2643L21.9225 14.717L19.3946 15.724ZM23.6684 10.5122L27.9252 9.36638L31.0381 12.4872L29.8951 16.755L25.6373 17.9009L22.5254 14.7801L23.6684 10.5122ZM31.621 12.6242L34.5929 12.3512L32.7529 19.2169L30.4701 16.918L31.621 12.6242ZM19.5426 16.309L22.1635 15.2651L25.2723 18.3809L24.7184 21.4758L19.5426 16.309ZM25.8654 18.4589L30.0421 17.335L32.397 19.7079L25.3033 21.6008L25.8654 18.4589Z" fill="#16CDA1" fill-opacity="0.15"/>
<path d="M21.4705 9.54832L22.5214 10.5243L21.5565 14.3312L20.3076 14.8371C21.9337 13.8598 22.4088 10.6731 21.4705 9.54832Z" fill="#16CDA1" fill-opacity="0.15"/>
<path d="M27.7382 10.0213L30.3831 12.6833L29.4182 16.325L27.9882 16.708C31.8129 13.2563 26.8741 9.08038 23.7804 12.2002L24.0964 11.0033L27.7382 10.0213Z" fill="#16CDA1" fill-opacity="0.15"/>
<path d="M28.0352 7.02848L27.7602 8.10541C27.7513 7.60892 26.5433 7.56086 24.3184 7.96539L28.0352 7.02848Z" fill="#16CDA1" fill-opacity="0.15"/>
<path d="M29.6692 7.49642L33.621 11.4453L31.7381 11.6873C32.2564 11.0035 30.7052 8.77181 29.6692 7.49642Z" fill="#16CDA1" fill-opacity="0.15"/>
<path d="M34.0399 12.7952L33.1039 16.512C33.3193 14.3081 33.103 13.6049 32.123 12.9441L34.0399 12.7952Z" fill="#16CDA1" fill-opacity="0.15"/>
<path d="M30.6381 18.6949L31.415 19.4899L27.7281 20.5369C29.689 19.6907 30.3949 19.3396 30.6381 18.6949Z" fill="#16CDA1" fill-opacity="0.15"/>
<path d="M22.1665 15.9051L24.6664 18.5429L24.4284 20.5068C24.261 19.0808 23.5216 17.7576 22.1665 15.9051Z" fill="#16CDA1" fill-opacity="0.15"/>
<path fill-rule="evenodd" clip-rule="evenodd" d="M28.8272 6.39147L21.7564 8.27843L23.6164 9.90732L27.9372 8.74433L28.0022 8.72737L28.8272 6.39147ZM27.7602 8.10541L28.0352 7.02848L24.3184 7.96539C26.5433 7.56086 27.7513 7.60892 27.7602 8.10541Z" fill="#16CDA1"/>
<path fill-rule="evenodd" clip-rule="evenodd" d="M29.3732 6.64247L28.5042 9.10034L31.4381 12.0402L34.498 11.7593L29.3732 6.64247ZM33.621 11.4453L29.6692 7.49642C30.7052 8.77181 32.2564 11.0035 31.7381 11.6873L33.621 11.4453Z" fill="#16CDA1"/>
<circle cx="27" cy="14" r="11.5" stroke="white"/>
</g>
<rect x="14.25" y="1.25" width="25.5" height="25.5" rx="12.75" stroke="white" stroke-width="1.5"/>
<g clip-path="url(#clip1_1882_82867)">
<path fill-rule="evenodd" clip-rule="evenodd" d="M24.0039 13.998C24.0039 20.6244 18.6322 25.9961 12.0059 25.9961C5.37952 25.9961 0.0078125 20.6244 0.0078125 13.998C0.0078125 7.37171 5.37952 2 12.0059 2C18.6322 2 24.0039 7.37171 24.0039 13.998ZM8.2142 11.1587L6.98606 8.0036L6.99003 7.99902H10.9618L8.2142 11.1587ZM6.41666 8.63303L4.20684 11.1742H7.40586L6.41666 8.63303ZM9.21879 11.1742H14.7869L12.0259 7.99902H11.9799L9.21879 11.1742ZM17.0334 8.01917L17.0159 7.99902H13.0439L15.802 11.1709L17.0334 8.01917ZM19.7991 11.1742L17.6024 8.64823L16.6156 11.1742H19.7991ZM16.3155 11.968L12.9153 20.6712L19.8189 11.968H16.3155ZM4.18705 11.968L11.0949 20.6773L7.70482 11.968H4.18705ZM11.999 20.883L15.4908 11.968H8.52909L11.999 20.883Z" fill="#E1F6FE"/>
<path d="M6.98606 8.0036L8.2142 11.1587L10.9618 7.99902H6.99003L6.98606 8.0036Z" fill="#36BFFA"/>
<path d="M4.20684 11.1742L6.41666 8.63303L7.40586 11.1742H4.20684Z" fill="#36BFFA"/>
<path d="M14.7869 11.1742H9.21879L11.9799 7.99902H12.0259L14.7869 11.1742Z" fill="#36BFFA"/>
<path d="M17.0159 7.99902L17.0334 8.01917L15.802 11.1709L13.0439 7.99902H17.0159Z" fill="#36BFFA"/>
<path d="M17.6024 8.64823L19.7991 11.1742H16.6156L17.6024 8.64823Z" fill="#36BFFA"/>
<path d="M12.9153 20.6712L16.3155 11.968H19.8189L12.9153 20.6712Z" fill="#36BFFA"/>
<path d="M15.4908 11.968L11.999 20.883L8.52909 11.968H15.4908Z" fill="#36BFFA"/>
<path d="M11.0949 20.6773L4.18705 11.968H7.70482L11.0949 20.6773Z" fill="#36BFFA"/>
<circle cx="12" cy="14" r="11.5" stroke="white"/>
</g>
<defs>
<clipPath id="clip0_1882_82867">
<rect x="15" y="2" width="24" height="24" rx="12" fill="white"/>
</clipPath>
<clipPath id="clip1_1882_82867">
<rect y="2" width="24" height="24" rx="12" fill="white"/>
</clipPath>
</defs>
</svg>
