<svg width="32" height="32" viewBox="0 0 32 32" fill="none" xmlns="http://www.w3.org/2000/svg">
<path d="M17.1467 8.25412L16.8411 9.45091C16.8311 8.89917 15.4887 8.84576 13.0163 9.2953L17.1467 8.25412Z" fill="#12A87A" fill-opacity="0.15"/>
<path d="M23.3541 13.1625L18.9625 8.77414C20.1139 10.1915 21.8377 12.6715 21.2616 13.4314L23.3541 13.1625Z" fill="#12A87A" fill-opacity="0.15"/>
<path d="M11.0193 12.139L9.85134 11.0544C10.8941 12.3043 10.3661 15.8457 8.55902 16.9318L9.94692 16.3695L11.0193 12.139Z" fill="#12A87A" fill-opacity="0.15"/>
<path d="M19.7559 14.5382L16.8166 11.58L12.7695 12.6713L12.4183 14.0015C15.8564 10.5344 21.3448 15.175 17.0944 19.0109L18.6835 18.5853L19.7559 14.5382Z" fill="#12A87A" fill-opacity="0.15"/>
<path d="M22.7795 18.7931L23.8197 14.6626L21.6894 14.8282C22.7785 15.5625 23.0188 16.3439 22.7795 18.7931Z" fill="#12A87A" fill-opacity="0.15"/>
<path d="M13.4029 21.05L10.6248 18.1186C12.1307 20.1773 12.9524 21.6478 13.1384 23.2325L13.4029 21.05Z" fill="#12A87A" fill-opacity="0.15"/>
<path d="M20.9026 22.1024L20.0392 21.219C19.769 21.9353 18.9845 22.3255 16.8054 23.2659L20.9026 22.1024Z" fill="#12A87A" fill-opacity="0.15"/>
<path fill-rule="evenodd" clip-rule="evenodd" d="M16.0028 29.3327C23.3666 29.3327 29.3361 23.3631 29.3361 15.9993C29.3361 8.63555 23.3666 2.66602 16.0028 2.66602C8.63897 2.66602 2.66943 8.63555 2.66943 15.9993C2.66943 23.3631 8.63897 29.3327 16.0028 29.3327ZM10.1691 9.64318L18.0268 7.54622L17.11 10.1421L17.0378 10.1609L12.2361 11.4534L10.1691 9.64318ZM17.6678 10.5566L18.6335 7.82515L24.3287 13.5114L20.9283 13.8236L17.6678 10.5566ZM7.54443 17.9174L8.59622 13.9937L9.64801 10.0699L11.6793 11.85L10.3537 16.7983L7.54443 17.9174ZM12.2939 12.1256L17.0245 10.8522L20.4838 14.3204L19.2136 19.0632L14.4819 20.3366L11.0237 16.8684L12.2939 12.1256ZM21.1316 14.4726L24.4342 14.1692L22.3895 21.799L19.8526 19.2443L21.1316 14.4726ZM7.70893 18.5675L10.6215 17.4074L14.0763 20.87L13.4607 24.3093L10.5848 21.4384L7.70893 18.5675ZM14.7353 20.9567L19.3769 19.7077L21.9939 22.3446L14.1108 24.4482L14.7353 20.9567Z" fill="#12A87A" fill-opacity="0.15"/>
<path fill-rule="evenodd" clip-rule="evenodd" d="M18.0268 7.54622L10.1691 9.64318L12.2361 11.4534L17.0378 10.1609L17.11 10.1421L18.0268 7.54622ZM16.8411 9.45091L17.1467 8.25412L13.0163 9.2953C15.4887 8.84576 16.8311 8.89917 16.8411 9.45091Z" fill="#12A87A"/>
<path fill-rule="evenodd" clip-rule="evenodd" d="M18.6335 7.82515L17.6678 10.5566L20.9283 13.8236L24.3287 13.5114L18.6335 7.82515ZM23.3541 13.1625L18.9625 8.77414C20.1139 10.1915 21.8377 12.6715 21.2616 13.4314L23.3541 13.1625Z" fill="#12A87A"/>
<path fill-rule="evenodd" clip-rule="evenodd" d="M24.4342 14.1692L21.1316 14.4726L19.8526 19.2443L22.3895 21.799L24.4342 14.1692ZM22.7795 18.7931L23.8197 14.6626L21.6894 14.8282C22.7785 15.5625 23.0188 16.3439 22.7795 18.7931Z" fill="#12A87A"/>
<path fill-rule="evenodd" clip-rule="evenodd" d="M17.0245 10.8522L12.2939 12.1256L11.0237 16.8684L14.4819 20.3366L19.2136 19.0632L20.4838 14.3204L17.0245 10.8522ZM19.7559 14.5382L16.8166 11.58L12.7695 12.6713L12.4183 14.0015C15.8564 10.5344 21.3448 15.175 17.0944 19.0109L18.6835 18.5853L19.7559 14.5382Z" fill="#12A87A"/>
<path fill-rule="evenodd" clip-rule="evenodd" d="M9.64801 10.0699L8.59622 13.9937L7.54443 17.9174L10.3537 16.7983L11.6793 11.85L9.64801 10.0699ZM11.0193 12.139L9.85134 11.0544C10.8941 12.3043 10.3661 15.8457 8.55902 16.9318L9.94692 16.3695L11.0193 12.139Z" fill="#12A87A"/>
<path fill-rule="evenodd" clip-rule="evenodd" d="M10.6215 17.4074L7.70893 18.5675L10.5848 21.4384L13.4607 24.3093L14.0763 20.87L10.6215 17.4074ZM13.4029 21.05L10.6248 18.1186C12.1307 20.1773 12.9524 21.6478 13.1384 23.2325L13.4029 21.05Z" fill="#12A87A"/>
<path fill-rule="evenodd" clip-rule="evenodd" d="M19.3769 19.7077L14.7353 20.9567L14.1108 24.4482L21.9939 22.3446L19.3769 19.7077ZM20.9026 22.1024L20.0392 21.219C19.769 21.9353 18.9845 22.3255 16.8054 23.2659L20.9026 22.1024Z" fill="#12A87A"/>
</svg>
