<svg width="20" height="20" viewBox="0 0 20 20" fill="none" xmlns="http://www.w3.org/2000/svg">
<g clip-path="url(#clip0_1953_10914)">
<path d="M8.2487 3.53325C8.82231 3.39898 9.40958 3.33187 9.9987 3.33325C15.832 3.33325 19.1654 9.99992 19.1654 9.99992C18.6595 10.9463 18.0562 11.8372 17.3654 12.6582M11.7654 11.7666C11.5365 12.0122 11.2605 12.2092 10.9538 12.3459C10.6472 12.4825 10.3161 12.556 9.98044 12.5619C9.64476 12.5678 9.31133 12.5061 9.00004 12.3803C8.68874 12.2546 8.40597 12.0674 8.16857 11.83C7.93117 11.5926 7.74402 11.3099 7.61829 10.9986C7.49255 10.6873 7.4308 10.3539 7.43673 10.0182C7.44265 9.6825 7.51612 9.35146 7.65276 9.04479C7.7894 8.73813 7.98641 8.46212 8.23203 8.23325M0.832031 0.833252L19.1654 19.1666M14.9487 14.9499C13.5242 16.0358 11.7896 16.6373 9.9987 16.6666C4.16536 16.6666 0.832031 9.99992 0.832031 9.99992C1.86861 8.06816 3.30631 6.38042 5.0487 5.04992L14.9487 14.9499Z" stroke="#667085" stroke-width="1.66667" stroke-linecap="round"/>
</g>
<defs>
<clipPath id="clip0_1953_10914">
<rect width="20" height="20" fill="white"/>
</clipPath>
</defs>
</svg>
