<svg width="125" height="40" viewBox="0 0 125 40" fill="none" xmlns="http://www.w3.org/2000/svg">
<path fill-rule="evenodd" clip-rule="evenodd" d="M25.5249 23.5907V31.25H14.4912V23.5907C12.2352 25.8776 9.33358 27.9905 5.78501 29.1889L3.11279 21.9752C6.27347 20.5439 12.8017 15.895 13.6292 8.75H26.3869C27.2144 15.895 33.7427 20.5439 36.9034 21.9752L34.2311 29.1889C30.6826 27.9905 27.781 25.8776 25.5249 23.5907ZM15.2093 22.834C17.7122 20.0927 19.311 17.2215 20.0081 15.4485C20.7051 17.2215 22.3039 20.0927 24.8068 22.834H15.2093Z" fill="#16CDA1"/>
<path d="M51.7971 27.2865H49L54.0927 13.1818H57.3277L62.4275 27.2865H59.6304L55.7667 16.0744H55.6537L51.7971 27.2865ZM51.8889 21.7562H59.5173V23.8085H51.8889V21.7562Z" fill="#101828"/>
<path d="M71.1348 22.8375V16.708H73.6917V27.2865H71.2125V25.4063H71.0995C70.8546 25.9986 70.452 26.483 69.8917 26.8595C69.336 27.236 68.6509 27.4242 67.8362 27.4242C67.1252 27.4242 66.4965 27.2704 65.9503 26.9628C65.4088 26.6506 64.985 26.1983 64.6789 25.6061C64.3728 25.0092 64.2198 24.2883 64.2198 23.4435V16.708H66.7767V23.0579C66.7767 23.7282 66.9651 24.2608 67.3418 24.6556C67.7185 25.0505 68.2129 25.2479 68.8251 25.2479C69.2018 25.2479 69.5667 25.1584 69.9199 24.9793C70.2731 24.8003 70.5627 24.534 70.7887 24.1804C71.0194 23.8223 71.1348 23.3747 71.1348 22.8375Z" fill="#101828"/>
<path d="M76.3211 27.2865V16.708H78.8003V18.4711H78.9133C79.1111 17.8604 79.4501 17.3898 79.9305 17.0592C80.4155 16.7241 80.9688 16.5565 81.5903 16.5565C81.7316 16.5565 81.8894 16.5634 82.0636 16.5771C82.2425 16.5863 82.3909 16.6024 82.5086 16.6253V18.9187C82.4003 18.882 82.2284 18.8499 81.993 18.8223C81.7622 18.7902 81.5386 18.7741 81.3219 18.7741C80.8558 18.7741 80.4367 18.8728 80.0647 19.0702C79.6974 19.2631 79.4078 19.5317 79.1959 19.876C78.984 20.2204 78.878 20.6175 78.878 21.0675V27.2865H76.3211Z" fill="#101828"/>
<path d="M87.1351 27.5C86.4476 27.5 85.8284 27.3806 85.2774 27.1419C84.7312 26.8985 84.298 26.5404 83.9778 26.0675C83.6623 25.5946 83.5045 25.0115 83.5045 24.3182C83.5045 23.7213 83.6175 23.2277 83.8436 22.8375C84.0696 22.4472 84.378 22.135 84.7689 21.9008C85.1597 21.6667 85.6 21.4899 86.0897 21.3705C86.5841 21.2466 87.0951 21.157 87.6225 21.1019C88.2582 21.0376 88.7738 20.9803 89.1693 20.9298C89.5649 20.8747 89.8521 20.792 90.0311 20.6818C90.2147 20.567 90.3065 20.3903 90.3065 20.1515V20.1102C90.3065 19.5914 90.1488 19.1896 89.8333 18.905C89.5178 18.6203 89.0634 18.478 88.4701 18.478C87.8438 18.478 87.347 18.6111 86.9797 18.8774C86.6171 19.1437 86.3722 19.4582 86.2451 19.8209L83.8577 19.4904C84.046 18.8476 84.3568 18.3104 84.7901 17.8788C85.2233 17.4426 85.753 17.1166 86.3793 16.9008C87.0056 16.6804 87.6978 16.5702 88.4559 16.5702C88.9786 16.5702 89.499 16.6299 90.0169 16.7493C90.5349 16.8687 91.0082 17.0661 91.4367 17.3416C91.8652 17.6125 92.2089 17.9821 92.4679 18.4504C92.7316 18.9187 92.8635 19.5041 92.8635 20.2066V27.2865H90.4054V25.8333H90.3207C90.1653 26.1272 89.9463 26.4027 89.6638 26.6598C89.3859 26.9123 89.0351 27.1166 88.6113 27.2727C88.1922 27.4242 87.7002 27.5 87.1351 27.5ZM87.799 25.668C88.3123 25.668 88.7573 25.5693 89.134 25.3719C89.5107 25.1699 89.8003 24.9036 90.0028 24.573C90.21 24.2424 90.3136 23.882 90.3136 23.4917V22.2452C90.2336 22.3095 90.097 22.3691 89.9039 22.4242C89.7156 22.4793 89.5037 22.5275 89.2682 22.5689C89.0328 22.6102 88.7997 22.6469 88.569 22.6791C88.3382 22.7112 88.1381 22.7388 87.9686 22.7617C87.5871 22.8122 87.2457 22.8949 86.9444 23.0096C86.643 23.1244 86.4052 23.2851 86.231 23.4917C86.0567 23.6938 85.9696 23.9555 85.9696 24.2769C85.9696 24.736 86.1415 25.0826 86.4853 25.3168C86.829 25.551 87.2669 25.668 87.799 25.668Z" fill="#101828"/>
<path d="M95.5475 27.2865V13.1818H98.1681V25.1446H104.539V27.2865H95.5475Z" fill="#101828"/>
<path d="M106.701 27.2865V16.708H109.258V27.2865H106.701ZM107.986 15.2066C107.581 15.2066 107.233 15.0758 106.941 14.814C106.649 14.5477 106.503 14.2286 106.503 13.8567C106.503 13.4803 106.649 13.1612 106.941 12.8994C107.233 12.6331 107.581 12.5 107.986 12.5C108.396 12.5 108.744 12.6331 109.032 12.8994C109.323 13.1612 109.469 13.4803 109.469 13.8567C109.469 14.2286 109.323 14.5477 109.032 14.814C108.744 15.0758 108.396 15.2066 107.986 15.2066Z" fill="#101828"/>
<path d="M117.382 16.708V18.6364H110.969V16.708H117.382ZM112.572 27.2865V15.7094C112.572 14.9977 112.723 14.4054 113.024 13.9325C113.33 13.4596 113.74 13.1061 114.253 12.8719C114.766 12.6377 115.336 12.5207 115.962 12.5207C116.405 12.5207 116.798 12.5551 117.142 12.624C117.486 12.6928 117.74 12.7548 117.905 12.8099L117.396 14.7383C117.288 14.7062 117.151 14.674 116.987 14.6419C116.822 14.6051 116.638 14.5868 116.436 14.5868C115.96 14.5868 115.623 14.6993 115.426 14.9242C115.233 15.1446 115.136 15.4614 115.136 15.8747V27.2865H112.572Z" fill="#101828"/>
<path d="M124.802 16.708V18.6364H118.565V16.708H124.802ZM120.105 14.1736H122.662V24.1047C122.662 24.4399 122.714 24.697 122.817 24.876C122.926 25.0505 123.067 25.1699 123.241 25.2342C123.415 25.2984 123.609 25.3306 123.82 25.3306C123.981 25.3306 124.126 25.3191 124.258 25.2961C124.395 25.2732 124.499 25.2525 124.569 25.2342L125 27.1832C124.863 27.2291 124.668 27.2796 124.414 27.3347C124.164 27.3898 123.858 27.4219 123.496 27.4311C122.855 27.4495 122.278 27.3554 121.765 27.1488C121.252 26.9376 120.844 26.6116 120.543 26.1708C120.246 25.73 120.1 25.1791 120.105 24.5179V14.1736Z" fill="#101828"/>
</svg>
