<svg width="160" height="40" viewBox="0 0 160 40" fill="none" xmlns="http://www.w3.org/2000/svg">
<path fill-rule="evenodd" clip-rule="evenodd" d="M25.5215 23.5907V31.25H14.4878V23.5907C12.2318 25.8776 9.33016 27.9905 5.78159 29.1889L3.10938 21.9752C6.27006 20.5439 12.7983 15.895 13.6258 8.75H26.3835C27.211 15.895 33.7393 20.5439 36.8999 21.9752L34.2277 29.1889C30.6791 27.9905 27.7775 25.8776 25.5215 23.5907ZM15.2059 22.834C17.7088 20.0927 19.3076 17.2215 20.0047 15.4485C20.7017 17.2215 22.3005 20.0927 24.8034 22.834H15.2059Z" fill="#16CDA1"/>
<path d="M155.981 15.5967C156.146 15.7178 156.282 15.8584 156.392 16.0166C156.567 16.2705 156.674 16.5732 156.708 16.9248H159.639C159.634 16.6104 159.6 16.3096 159.537 16.0225C159.46 15.6689 159.339 15.3369 159.174 15.0264C159.105 14.8975 159.03 14.7725 158.947 14.6514C158.5 13.9971 157.874 13.4854 157.068 13.1182C156.628 12.915 156.146 12.7686 155.622 12.6787C155.195 12.6045 154.74 12.5674 154.258 12.5674C153.203 12.5674 152.262 12.751 151.434 13.1182C150.604 13.4854 149.953 13.9971 149.478 14.6514C149.007 15.3057 148.773 16.0693 148.778 16.9463C148.773 18.0146 149.124 18.8643 149.83 19.4951C150.034 19.6768 150.26 19.8447 150.507 19.999C150.638 20.0811 150.774 20.1592 150.917 20.2334C151.438 20.5029 152.038 20.7197 152.719 20.8857L154.293 21.2822C154.82 21.4092 155.266 21.5498 155.628 21.7061C155.995 21.8604 156.272 22.0498 156.461 22.2705C156.654 22.4912 156.751 22.7646 156.751 23.0889C156.751 23.4385 156.645 23.7451 156.433 24.0146C156.338 24.1338 156.226 24.2432 156.096 24.3408C155.936 24.46 155.749 24.5615 155.536 24.6436C155.155 24.7939 154.705 24.8682 154.188 24.8682C153.959 24.8682 153.74 24.8525 153.532 24.8213C153.383 24.7998 153.238 24.7705 153.1 24.7334C152.985 24.7041 152.875 24.6689 152.768 24.6279C152.609 24.5654 152.463 24.4912 152.329 24.4053C152.112 24.2666 151.927 24.0986 151.772 23.9014C151.527 23.5771 151.389 23.1709 151.355 22.6865H148.396C148.42 23.7275 148.672 24.6006 149.152 25.3076C149.638 26.0088 150.311 26.5381 151.172 26.8955C152.038 27.2529 153.055 27.4326 154.223 27.4326C155.399 27.4326 156.404 27.2549 157.238 26.9033C158.076 26.5439 158.716 26.0439 159.159 25.3994C159.438 24.9932 159.631 24.542 159.737 24.0439C159.802 23.7451 159.835 23.4287 159.837 23.0967C159.834 22.749 159.797 22.4268 159.724 22.126C159.67 21.9033 159.597 21.6924 159.505 21.4932C159.293 21.0264 158.994 20.6221 158.608 20.2783C158.222 19.9346 157.766 19.6455 157.238 19.4111C156.711 19.1748 156.132 18.9873 155.501 18.8447L154.201 18.5342C153.886 18.4639 153.59 18.3799 153.312 18.2803C153.034 18.1768 152.789 18.0576 152.577 17.9209C152.431 17.8232 152.306 17.7119 152.202 17.5908C152.156 17.5361 152.114 17.4795 152.076 17.4189C151.958 17.2256 151.904 16.999 151.913 16.7412L151.916 16.6416C151.919 16.585 151.926 16.5303 151.936 16.4775C151.948 16.4072 151.967 16.3389 151.99 16.2705C152.035 16.1436 152.099 16.0225 152.182 15.9072C152.365 15.6631 152.629 15.4717 152.973 15.335C153.316 15.1943 153.737 15.124 154.236 15.124C154.972 15.124 155.553 15.2822 155.981 15.5967Z" fill="#101828"/>
<path fill-rule="evenodd" clip-rule="evenodd" d="M52.2764 27.2275H49L53.9922 12.7646H57.9326L62.9189 27.2275H59.6416L58.5703 23.9287H53.3496L52.2764 27.2275ZM56.0195 16.0693L57.7959 21.542H54.126L55.9062 16.0693H56.0195Z" fill="#101828"/>
<path d="M73.5928 12.7646H76.6504V22.1572C76.6504 22.5596 76.6133 22.9424 76.54 23.3076C76.4209 23.8975 76.2061 24.4365 75.8945 24.9248C75.3955 25.7158 74.6963 26.333 73.7969 26.7764C72.8975 27.2139 71.8506 27.4326 70.6543 27.4326C70.1201 27.4326 69.6162 27.3896 69.1416 27.3037C68.5498 27.1943 68.0039 27.0186 67.5049 26.7764C66.6064 26.333 65.9072 25.7158 65.4082 24.9248C64.9092 24.1338 64.6592 23.2119 64.6592 22.1572V12.7646H67.7168V21.8955C67.7168 22.4463 67.8369 22.9365 68.0771 23.3643C68.3223 23.7939 68.666 24.1299 69.1084 24.374C69.2979 24.4795 69.5 24.5615 69.7158 24.6221C70.0049 24.7021 70.3174 24.7412 70.6543 24.7412C71.248 24.7412 71.7637 24.6201 72.2012 24.374C72.6436 24.1299 72.9854 23.7939 73.2256 23.3643C73.2627 23.2998 73.2969 23.2334 73.3281 23.165C73.3594 23.0967 73.3887 23.0264 73.415 22.9561L73.4639 22.8057L73.4873 22.7236L73.5146 22.6143L73.543 22.4756L73.5684 22.3018C73.585 22.1709 73.5928 22.0342 73.5928 21.8955V12.7646Z" fill="#101828"/>
<path fill-rule="evenodd" clip-rule="evenodd" d="M79.166 12.7646V27.2275H82.2236V22.1006H84.4551L87.1953 27.2275H90.5703L87.502 21.6084L87.6328 21.5498C88.4189 21.1826 89.0195 20.6553 89.4336 19.9678C89.6094 19.6729 89.748 19.3545 89.8496 19.0127C89.9863 18.5498 90.0547 18.042 90.0547 17.4893C90.0547 16.5342 89.8506 15.7021 89.4404 14.9971C89.1162 14.4268 88.6719 13.9619 88.1084 13.6006C88.0264 13.5479 87.9424 13.4971 87.8564 13.4482L87.668 13.3506C86.8955 12.96 85.9639 12.7646 84.8721 12.7646H79.166ZM82.2236 19.6436H84.2998C84.8838 19.6436 85.3682 19.5635 85.7539 19.4033C86.1406 19.2432 86.4277 19.0029 86.6162 18.6826C86.6494 18.6279 86.6797 18.5693 86.707 18.5088L86.7568 18.3936L86.7979 18.2744L86.8359 18.1357L86.8672 17.9795C86.8809 17.8994 86.8906 17.8154 86.8965 17.7295C86.9023 17.6514 86.9053 17.5713 86.9053 17.4893C86.9053 17.0088 86.8086 16.6045 86.6162 16.2744C86.4277 15.9443 86.1377 15.6963 85.7471 15.5264C85.3613 15.3525 84.874 15.2646 84.2852 15.2646H82.2236V19.6436Z" fill="#101828"/>
<path fill-rule="evenodd" clip-rule="evenodd" d="M94.709 27.2275H91.4316L96.4248 12.7646H100.365L105.351 27.2275H102.074L101.003 23.9287H95.7822L94.709 27.2275ZM98.4512 16.0693L100.229 21.542H96.5576L98.3379 16.0693H98.4512Z" fill="#101828"/>
<path d="M107.091 12.7646V27.2275H116.349V24.7061H110.148V12.7646H107.091Z" fill="#101828"/>
<path d="M121.432 12.7646V27.2275H118.374V12.7646H121.432Z" fill="#101828"/>
<path d="M123.947 12.7646V27.2275H127.005V21.2529H132.888V18.7314H127.005V15.2861H133.523V12.7646H123.947Z" fill="#101828"/>
<path d="M135.029 15.2861V12.7646H146.907V15.2861H142.479V27.2275H139.457V15.2861H135.029Z" fill="#101828"/>
</svg>
