<svg width="21" height="20" viewBox="0 0 21 20" fill="none" xmlns="http://www.w3.org/2000/svg">
<g clip-path="url(#clip0_2099_61228)">
<path d="M10.5 20C16.0228 20 20.5 15.5228 20.5 10C20.5 4.47716 16.0228 0 10.5 0C4.97715 0 0.5 4.47716 0.5 10C0.5 15.5228 4.97715 20 10.5 20Z" fill="#EE8208"/>
<path d="M10.4968 10.1374C11.9675 10.1374 13.1655 8.93938 13.1655 7.46872C13.1655 5.99805 11.9675 4.80005 10.4968 4.80005C9.02618 4.80005 7.82812 5.99805 7.82812 7.46872C7.82812 8.93938 9.02618 10.1374 10.4968 10.1374ZM10.4968 6.3616C11.1082 6.3616 11.604 6.85733 11.604 7.46872C11.604 8.0801 11.1082 8.57588 10.4968 8.57588C9.8854 8.57588 9.38968 8.0801 9.38968 7.46872C9.38968 6.85733 9.8854 6.3616 10.4968 6.3616Z" fill="white"/>
<path d="M11.5792 12.3104C12.1245 12.1865 12.6451 11.9717 13.1325 11.6659C13.4961 11.4346 13.6117 10.9554 13.3804 10.5836C13.1491 10.22 12.6698 10.1044 12.2981 10.3358C11.2075 11.0215 9.79462 11.0215 8.70401 10.3358C8.34045 10.1044 7.85301 10.2118 7.62162 10.5836C7.39028 10.9472 7.49773 11.4346 7.86951 11.6659C8.34873 11.9717 8.87751 12.1865 9.42278 12.3104L7.92734 13.8059C7.62162 14.1115 7.62162 14.6073 7.92734 14.913C8.08434 15.0617 8.28262 15.1443 8.4809 15.1443C8.67923 15.1443 8.88578 15.07 9.03445 14.913L10.5051 13.4423L11.9758 14.913C12.2815 15.2187 12.7772 15.2187 13.083 14.913C13.3886 14.6073 13.3886 14.1115 13.083 13.8059L11.5792 12.3104Z" fill="white"/>
</g>
<defs>
<clipPath id="clip0_2099_61228">
<rect width="20" height="20" fill="white" transform="translate(0.5)"/>
</clipPath>
</defs>
</svg>
