<svg width="25" height="24" viewBox="0 0 25 24" fill="none" xmlns="http://www.w3.org/2000/svg">
<path d="M12.5 12L3.5 7.5M12.5 12V21.5M12.5 12L17.5 9.5M21.5 7.5L17.5 9.5M17.5 9.5V13M17.5 9.5L8 4.5M18.0777 4.43152L16.0777 3.38197C14.3221 2.46066 13.4443 2 12.5 2C11.5557 2 10.6779 2.46066 8.92229 3.38197L6.92229 4.43152C4.77063 5.56066 3.69479 6.12523 3.0974 7.13974C2.5 8.15425 2.5 9.41667 2.5 11.9415V12.0585C2.5 14.5833 2.5 15.8458 3.0974 16.8603C3.69479 17.8748 4.77063 18.4393 6.92229 19.5685L8.92229 20.618C10.6779 21.5393 11.5557 22 12.5 22C13.4443 22 14.3221 21.5393 16.0777 20.618L18.0777 19.5685C20.2294 18.4393 21.3052 17.8748 21.9026 16.8603C22.5 15.8458 22.5 14.5833 22.5 12.0585V11.9415C22.5 9.41667 22.5 8.15425 21.9026 7.13974C21.3052 6.12523 20.2294 5.56066 18.0777 4.43152Z" stroke="#667085" stroke-width="2" stroke-linecap="round"/>
</svg>
