<svg width="52" height="52" viewBox="0 0 52 52" fill="none" xmlns="http://www.w3.org/2000/svg">
<path fill-rule="evenodd" clip-rule="evenodd" d="M25.9987 47.6663C37.9649 47.6663 47.6654 37.9658 47.6654 25.9997C47.6654 14.0335 37.9649 4.33301 25.9987 4.33301C14.0325 4.33301 4.33203 14.0335 4.33203 25.9997C4.33203 37.9658 14.0325 47.6663 25.9987 47.6663ZM17.497 18.6705C17.332 19.0687 17.332 19.5735 17.332 20.583V31.4163C17.332 32.4259 17.332 32.9307 17.497 33.3288C17.7169 33.8597 18.1387 34.2815 18.6696 34.5014C19.0677 34.6663 19.5725 34.6663 20.582 34.6663C21.5916 34.6663 22.0963 34.6663 22.4945 34.5014C23.0254 34.2815 23.4472 33.8597 23.6671 33.3288C23.832 32.9307 23.832 32.4259 23.832 31.4163V20.583C23.832 19.5735 23.832 19.0687 23.6671 18.6705C23.4472 18.1396 23.0254 17.7178 22.4945 17.4979C22.0963 17.333 21.5916 17.333 20.582 17.333C19.5725 17.333 19.0677 17.333 18.6696 17.4979C18.1387 17.7178 17.7169 18.1396 17.497 18.6705ZM28.3303 18.6705C28.1654 19.0687 28.1654 19.5735 28.1654 20.583V31.4163C28.1654 32.4259 28.1654 32.9307 28.3303 33.3288C28.5502 33.8597 28.972 34.2815 29.5029 34.5014C29.9011 34.6663 30.4058 34.6663 31.4154 34.6663C32.4249 34.6663 32.9297 34.6663 33.3278 34.5014C33.8587 34.2815 34.2805 33.8597 34.5004 33.3288C34.6654 32.9307 34.6654 32.4259 34.6654 31.4163V20.583C34.6654 19.5735 34.6654 19.0687 34.5004 18.6705C34.2805 18.1396 33.8587 17.7178 33.3278 17.4979C32.9297 17.333 32.4249 17.333 31.4154 17.333C30.4058 17.333 29.9011 17.333 29.5029 17.4979C28.972 17.7178 28.5502 18.1396 28.3303 18.6705Z" fill="#16CDA1"/>
<path d="M28.1654 20.583C28.1654 19.5735 28.1654 19.0687 28.3303 18.6705C28.5502 18.1396 28.972 17.7178 29.5029 17.4979C29.9011 17.333 30.4058 17.333 31.4154 17.333C32.4249 17.333 32.9297 17.333 33.3278 17.4979C33.8587 17.7178 34.2805 18.1396 34.5004 18.6705C34.6654 19.0687 34.6654 19.5735 34.6654 20.583V31.4163C34.6654 32.4259 34.6654 32.9307 34.5004 33.3288C34.2805 33.8597 33.8587 34.2815 33.3278 34.5014C32.9297 34.6663 32.4249 34.6663 31.4154 34.6663C30.4058 34.6663 29.9011 34.6663 29.5029 34.5014C28.972 34.2815 28.5502 33.8597 28.3303 33.3288C28.1654 32.9307 28.1654 32.4259 28.1654 31.4163V20.583Z" fill="white"/>
<path d="M17.332 20.583C17.332 19.5735 17.332 19.0687 17.497 18.6705C17.7169 18.1396 18.1387 17.7178 18.6696 17.4979C19.0677 17.333 19.5725 17.333 20.582 17.333C21.5916 17.333 22.0963 17.333 22.4945 17.4979C23.0254 17.7178 23.4472 18.1396 23.6671 18.6705C23.832 19.0687 23.832 19.5735 23.832 20.583V31.4163C23.832 32.4259 23.832 32.9307 23.6671 33.3288C23.4472 33.8597 23.0254 34.2815 22.4945 34.5014C22.0963 34.6663 21.5916 34.6663 20.582 34.6663C19.5725 34.6663 19.0677 34.6663 18.6696 34.5014C18.1387 34.2815 17.7169 33.8597 17.497 33.3288C17.332 32.9307 17.332 32.4259 17.332 31.4163V20.583Z" fill="white"/>
</svg>
