<svg width="52" height="52" viewBox="0 0 52 52" fill="none" xmlns="http://www.w3.org/2000/svg">
<path fill-rule="evenodd" clip-rule="evenodd" d="M47.6693 25.9999C47.6693 37.9661 37.9688 47.6666 26.0026 47.6666C14.0364 47.6666 4.33594 37.9661 4.33594 25.9999C4.33594 14.0337 14.0364 4.33325 26.0026 4.33325C37.9688 4.33325 47.6693 14.0337 47.6693 25.9999ZM23.1718 34.3325L33.3989 28.2943C35.0927 27.2943 35.0927 24.7055 33.3989 23.7055L23.1718 17.6673C21.5256 16.6954 19.5026 17.9604 19.5026 19.9618V32.0381C19.5026 34.0394 21.5256 35.3044 23.1718 34.3325Z" fill="#16CDA1"/>
<path d="M33.3989 28.2943L23.1718 34.3325C21.5256 35.3044 19.5026 34.0394 19.5026 32.0381V19.9618C19.5026 17.9604 21.5256 16.6954 23.1718 17.6673L33.3989 23.7055C35.0927 24.7055 35.0927 27.2943 33.3989 28.2943Z" fill="white"/>
</svg>
