<svg width="20" height="20" viewBox="0 0 20 20" fill="none" xmlns="http://www.w3.org/2000/svg">
<g clip-path="url(#clip0_2099_67888)">
<path d="M10 20C15.5228 20 20 15.5228 20 10C20 4.47715 15.5228 0 10 0C4.47715 0 0 4.47715 0 10C0 15.5228 4.47715 20 10 20Z" fill="url(#paint0_linear_2099_67888)"/>
<path d="M6.76953 10.731L7.95595 14.0149C7.95595 14.0149 8.10428 14.3221 8.26311 14.3221C8.42195 14.3221 10.7844 11.8644 10.7844 11.8644L13.4114 6.79028L6.81186 9.88337L6.76953 10.731Z" fill="#C8DAEA"/>
<path d="M8.34209 11.5732L8.11434 13.9937C8.11434 13.9937 8.01901 14.7354 8.76051 13.9937C9.50201 13.2521 10.2118 12.6802 10.2118 12.6802" fill="#A9C6D8"/>
<path d="M6.79067 10.8482L4.35017 10.0531C4.35017 10.0531 4.05851 9.93474 4.15242 9.66641C4.17176 9.61107 4.21075 9.56399 4.32742 9.48307C4.86817 9.10616 14.3363 5.70307 14.3363 5.70307C14.3363 5.70307 14.6036 5.61299 14.7613 5.67291C14.8003 5.68498 14.8354 5.7072 14.863 5.73729C14.8906 5.76738 14.9097 5.80426 14.9183 5.84416C14.9354 5.91463 14.9425 5.98713 14.9395 6.05957C14.9388 6.12224 14.9312 6.18032 14.9254 6.27141C14.8678 7.20182 13.1421 14.1458 13.1421 14.1458C13.1421 14.1458 13.0388 14.5522 12.6689 14.5661C12.578 14.569 12.4874 14.5536 12.4026 14.5208C12.3178 14.488 12.2404 14.4384 12.1752 14.3751C11.4493 13.7507 8.94026 12.0645 8.38584 11.6937C8.37333 11.6851 8.3628 11.674 8.35495 11.6611C8.3471 11.6482 8.34212 11.6337 8.34034 11.6187C8.33259 11.5796 8.37509 11.5312 8.37509 11.5312C8.37509 11.5312 12.7439 7.64782 12.8602 7.24016C12.8692 7.20857 12.8352 7.19299 12.7895 7.20682C12.4993 7.31357 7.46917 10.4902 6.91401 10.8407C6.87404 10.8528 6.8318 10.8554 6.79067 10.8482Z" fill="white"/>
</g>
<defs>
<linearGradient id="paint0_linear_2099_67888" x1="10" y1="20" x2="10" y2="0" gradientUnits="userSpaceOnUse">
<stop stop-color="#1D93D2"/>
<stop offset="1" stop-color="#38B0E3"/>
</linearGradient>
<clipPath id="clip0_2099_67888">
<rect width="20" height="20" fill="white"/>
</clipPath>
</defs>
</svg>
