<svg width="40" height="40" viewBox="0 0 40 40" fill="none" xmlns="http://www.w3.org/2000/svg">
<g id="State=Normal">
<rect width="40" height="40" rx="20" fill="#F9FAFB"/>
<path id="Path-3" fill-rule="evenodd" clip-rule="evenodd" d="M10.2909 19.7753C15.4916 17.5094 18.9596 16.0156 20.6948 15.2939C25.6492 13.2332 26.6787 12.8752 27.3497 12.8634C27.4972 12.8608 27.8272 12.8974 28.041 13.0708C28.2214 13.2173 28.2711 13.4151 28.2949 13.554C28.3186 13.6928 28.3482 14.0091 28.3247 14.2563C28.0562 17.0772 26.8945 23.9229 26.3035 27.0824C26.0534 28.4193 25.561 28.8675 25.0843 28.9114C24.0483 29.0067 23.2616 28.2267 22.2582 27.569C20.688 26.5397 19.801 25.899 18.2769 24.8946C16.5155 23.7339 17.6573 23.096 18.6611 22.0534C18.9238 21.7805 23.4885 17.6286 23.5768 17.252C23.5879 17.2048 23.5981 17.0293 23.4938 16.9365C23.3895 16.8438 23.2355 16.8755 23.1244 16.9007C22.967 16.9365 20.4586 18.5944 15.5994 21.8745C14.8874 22.3634 14.2425 22.6016 13.6647 22.5892C13.0277 22.5754 11.8024 22.229 10.8916 21.9329C9.77431 21.5697 8.88636 21.3777 8.96368 20.761C9.00395 20.4397 9.44635 20.1112 10.2909 19.7753Z" fill="#98A2B3"/>
</g>
</svg>
