<svg width="21" height="20" viewBox="0 0 21 20" fill="none" xmlns="http://www.w3.org/2000/svg">
<g clip-path="url(#clip0_2099_36067)">
<path d="M10.5 20C16.0228 20 20.5 15.5228 20.5 10C20.5 4.47715 16.0228 0 10.5 0C4.97715 0 0.5 4.47715 0.5 10C0.5 15.5228 4.97715 20 10.5 20Z" fill="#4680C2"/>
<path fill-rule="evenodd" clip-rule="evenodd" d="M15.7187 7.66601C15.8023 7.40312 15.7187 7.2119 15.3482 7.2119H14.1173C13.8065 7.2119 13.6632 7.37923 13.5795 7.55845C13.5795 7.55845 12.9461 9.08817 12.0618 10.0801C11.7749 10.3669 11.6435 10.4625 11.4882 10.4625C11.4045 10.4625 11.2969 10.3669 11.2969 10.104V7.65406C11.2969 7.34334 11.2013 7.19995 10.9384 7.19995H9.00243C8.81121 7.19995 8.69171 7.34334 8.69171 7.48678C8.69171 7.78556 9.13388 7.85723 9.18166 8.69378V10.5103C9.18166 10.9047 9.10999 10.9763 8.9546 10.9763C8.53632 10.9763 7.52055 9.43473 6.91105 7.67801C6.79155 7.3314 6.67205 7.19995 6.36132 7.19995H5.11847C4.75995 7.19995 4.7002 7.36728 4.7002 7.54651C4.7002 7.86917 5.11847 9.49445 6.64816 11.6456C7.66393 13.1155 9.10999 13.9043 10.4126 13.9043C11.2013 13.9043 11.2969 13.725 11.2969 13.4262V12.3148C11.2969 11.9563 11.3687 11.8966 11.6196 11.8966C11.7989 11.8966 12.1215 11.9922 12.8505 12.6972C13.687 13.5338 13.8305 13.9162 14.2965 13.9162H15.5274C15.886 13.9162 16.0533 13.737 15.9577 13.3904C15.8501 13.0438 15.4438 12.5419 14.918 11.9443C14.6312 11.6097 14.2009 11.2393 14.0695 11.06C13.8902 10.821 13.938 10.7254 14.0695 10.5103C14.0575 10.5103 15.5633 8.38306 15.7187 7.66601Z" fill="white"/>
</g>
<defs>
<clipPath id="clip0_2099_36067">
<rect width="20" height="20" fill="white" transform="translate(0.5)"/>
</clipPath>
</defs>
</svg>
