<svg width="40" height="40" viewBox="0 0 40 40" fill="none" xmlns="http://www.w3.org/2000/svg">
<g id="State=Normal">
<rect width="40" height="40" rx="20" fill="#F9FAFB"/>
<path id="Vector" d="M30.0612 14.847C29.8197 13.9232 29.1081 13.1956 28.2046 12.9487C26.5669 12.5 20 12.5 20 12.5C20 12.5 13.4331 12.5 11.7954 12.9487C10.8919 13.1956 10.1803 13.9232 9.93882 14.847C9.5 16.5215 9.5 20.0152 9.5 20.0152C9.5 20.0152 9.5 23.5088 9.93882 25.1833C10.1803 26.1071 10.8919 26.8044 11.7954 27.0513C13.4331 27.5 20 27.5 20 27.5C20 27.5 26.5668 27.5 28.2046 27.0513C29.1081 26.8044 29.8197 26.1071 30.0612 25.1833C30.5 23.5088 30.5 20.0152 30.5 20.0152C30.5 20.0152 30.5 16.5215 30.0612 14.847ZM17.8523 23.1871V16.8432L23.3409 20.0152L17.8523 23.1871Z" fill="#98A2B3"/>
</g>
</svg>
