<svg width="851" height="583" viewBox="0 0 851 583" fill="none" xmlns="http://www.w3.org/2000/svg">
<path fill-rule="evenodd" clip-rule="evenodd" d="M175.614 33.9548C82.6227 58.914 36.4841 184.809 47.418 280.469C57.0134 364.419 165.991 387.291 223.117 449.551C258.275 487.869 265.152 549.197 312.897 569.808C365.971 592.719 425.276 580.393 479.444 560.203C547.6 534.801 623.144 508.97 653.488 442.865C687.444 368.889 695.561 268.682 640.975 208.3C588.552 150.31 490.21 208.697 417.006 181.271C325.24 146.891 270.258 8.55207 175.614 33.9548Z" fill="#EFF9F9"/>
<path fill-rule="evenodd" clip-rule="evenodd" d="M411.594 0.279C429.387 2.81063 442.355 17.9885 444.445 34.8957C446.318 50.0485 434.413 62.1119 420.051 68.7037C405.825 75.2336 388.116 76.7985 376.872 65.9117C365.628 55.0257 367.835 38.3821 374.913 25.0024C382.354 10.9374 394.989 -2.08358 411.594 0.279Z" fill="#EFF9F9"/>
<path fill-rule="evenodd" clip-rule="evenodd" d="M504.979 66.2221C515.193 50.5308 535.23 44.9557 552.117 50.4156C567.252 55.309 573.411 71.8573 573.322 88.319C573.234 104.626 566.926 122.039 551.7 127.873C536.475 133.706 521.726 124.304 512.202 111.736C502.19 98.5241 495.447 80.8657 504.979 66.2221Z" fill="#EFF9F9"/>
<path d="M654.063 390.336L651.413 388.93L654.063 390.336ZM610.181 301.768L610.771 298.826L610.181 301.768ZM549.189 489.484L546.828 491.335L549.189 489.484ZM745.414 474.416L743.727 471.935L745.414 474.416ZM846.534 372.686C846.265 371.051 844.721 369.944 843.086 370.214L816.445 374.604C814.811 374.873 813.704 376.417 813.973 378.052C814.243 379.686 815.786 380.793 817.421 380.524L841.102 376.622L845.004 400.302C845.273 401.937 846.817 403.044 848.452 402.774C850.087 402.505 851.194 400.961 850.924 399.327L846.534 372.686ZM451.07 378.219C452.072 379.538 453.954 379.796 455.273 378.794C456.593 377.792 456.85 375.91 455.848 374.59L451.07 378.219ZM468.638 388.078C467.397 386.981 465.501 387.097 464.403 388.338C463.306 389.579 463.422 391.475 464.663 392.573L468.638 388.078ZM476.944 402.319C478.29 403.285 480.164 402.976 481.13 401.629C482.095 400.283 481.786 398.409 480.44 397.443L476.944 402.319ZM496.328 407.608C494.889 406.786 493.057 407.286 492.235 408.725C491.414 410.164 491.914 411.996 493.353 412.818L496.328 407.608ZM507.173 420.024C508.671 420.733 510.46 420.095 511.169 418.598C511.879 417.1 511.241 415.311 509.743 414.602L507.173 420.024ZM527.193 421.872C525.634 421.31 523.915 422.118 523.353 423.677C522.791 425.236 523.599 426.955 525.158 427.516L527.193 421.872ZM540.045 432.197C541.645 432.626 543.29 431.677 543.719 430.076C544.149 428.476 543.199 426.831 541.599 426.402L540.045 432.197ZM560.027 430.202C558.387 429.969 556.868 431.11 556.635 432.75C556.402 434.391 557.543 435.909 559.184 436.142L560.027 430.202ZM574.82 437.473C576.477 437.514 577.853 436.206 577.895 434.549C577.937 432.893 576.629 431.516 574.972 431.474L574.82 437.473ZM593.582 430.356C591.944 430.608 590.821 432.139 591.072 433.777C591.324 435.414 592.855 436.538 594.493 436.287L593.582 430.356ZM609.899 432.574C611.469 432.044 612.313 430.343 611.784 428.773C611.255 427.203 609.553 426.359 607.983 426.888L609.899 432.574ZM624.585 418.942C623.192 419.838 622.79 421.695 623.687 423.088C624.583 424.481 626.44 424.883 627.833 423.987L624.585 418.942ZM640.28 414.043C641.464 412.884 641.484 410.984 640.324 409.801C639.165 408.617 637.266 408.597 636.082 409.756L640.28 414.043ZM647.656 395.388C646.766 396.786 647.176 398.64 648.574 399.531C649.971 400.421 651.826 400.01 652.716 398.613L647.656 395.388ZM660.5 383.61C661.117 382.072 660.369 380.325 658.831 379.709C657.293 379.093 655.547 379.84 654.931 381.378L660.5 383.61ZM659.415 361.368C659.346 363.023 660.631 364.422 662.286 364.492C663.942 364.561 665.34 363.276 665.41 361.621L659.415 361.368ZM663.263 343.564C662.801 341.973 661.137 341.057 659.546 341.519C657.954 341.981 657.039 343.646 657.501 345.237L663.263 343.564ZM648.046 327.274C649.085 328.565 650.974 328.768 652.264 327.729C653.555 326.69 653.759 324.802 652.72 323.511L648.046 327.274ZM639.538 311.163C638.189 310.203 636.316 310.518 635.355 311.868C634.394 313.218 634.709 315.091 636.059 316.051L639.538 311.163ZM617.613 306.813C619.189 307.326 620.882 306.465 621.395 304.89C621.908 303.314 621.047 301.621 619.472 301.108L617.613 306.813ZM602.851 297.765C601.198 297.656 599.77 298.908 599.66 300.561C599.551 302.214 600.803 303.643 602.456 303.752L602.851 297.765ZM584.841 305.841C586.421 305.34 587.295 303.654 586.794 302.074C586.293 300.495 584.606 299.621 583.027 300.122L584.841 305.841ZM568.672 307.087C567.295 308.007 566.924 309.87 567.844 311.248C568.764 312.626 570.627 312.997 572.005 312.076L568.672 307.087ZM558.569 324.185C559.647 322.927 559.501 321.033 558.243 319.955C556.985 318.877 555.091 319.023 554.013 320.281L558.569 324.185ZM544.874 332.967C544.013 334.383 544.462 336.228 545.877 337.09C547.293 337.951 549.138 337.502 550 336.086L544.874 332.967ZM541.71 352.613C542.34 351.08 541.608 349.327 540.075 348.698C538.543 348.068 536.79 348.8 536.16 350.332L541.71 352.613ZM531.042 364.932C530.574 366.521 531.482 368.19 533.071 368.658C534.661 369.127 536.329 368.218 536.797 366.629L531.042 364.932ZM532.58 384.759C532.864 383.127 531.771 381.574 530.138 381.289C528.506 381.005 526.952 382.098 526.668 383.731L532.58 384.759ZM524.686 399.031C524.544 400.682 525.767 402.135 527.418 402.277C529.069 402.418 530.522 401.195 530.664 399.544L524.686 399.031ZM530.078 418.165C530.039 416.508 528.665 415.197 527.008 415.236C525.352 415.276 524.041 416.65 524.08 418.307L530.078 418.165ZM525.157 433.714C525.351 435.359 526.842 436.536 528.488 436.342C530.133 436.148 531.31 434.657 531.116 433.012L525.157 433.714ZM534.473 451.267C534.063 449.661 532.429 448.693 530.823 449.103C529.218 449.513 528.249 451.147 528.66 452.753L534.473 451.267ZM533.427 467.545C534.037 469.086 535.78 469.84 537.32 469.23C538.861 468.621 539.616 466.878 539.006 465.337L533.427 467.545ZM547.318 481.68C546.421 480.287 544.564 479.885 543.171 480.783C541.779 481.68 541.377 483.537 542.275 484.93L547.318 481.68ZM552.203 497.747C553.31 498.979 555.207 499.081 556.439 497.974C557.672 496.867 557.774 494.97 556.667 493.737L552.203 497.747ZM571.217 507.088C569.885 506.102 568.007 506.382 567.021 507.713C566.035 509.045 566.315 510.924 567.646 511.91L571.217 507.088ZM582.095 520.631C583.59 521.344 585.381 520.711 586.094 519.216C586.808 517.721 586.175 515.93 584.68 515.216L582.095 520.631ZM603.267 521.373C601.642 521.051 600.063 522.106 599.74 523.732C599.418 525.357 600.474 526.936 602.099 527.258L603.267 521.373ZM618.832 529C620.489 529.026 621.853 527.704 621.879 526.048C621.905 524.391 620.584 523.027 618.927 523L618.832 529ZM638.683 521.432C637.049 521.705 635.946 523.252 636.219 524.886C636.492 526.52 638.039 527.623 639.673 527.35L638.683 521.432ZM655.896 523.663C657.49 523.21 658.415 521.551 657.962 519.957C657.509 518.363 655.85 517.439 654.256 517.891L655.896 523.663ZM673.225 511.345C671.688 511.963 670.942 513.71 671.561 515.248C672.179 516.785 673.926 517.53 675.463 516.912L673.225 511.345ZM690.556 510.249C692.05 509.534 692.682 507.742 691.966 506.248C691.25 504.753 689.459 504.122 687.965 504.838L690.556 510.249ZM705.896 495.522C704.449 496.329 703.93 498.157 704.737 499.604C705.544 501.051 707.371 501.569 708.818 500.762L705.896 495.522ZM723.001 492.477C724.416 491.614 724.864 489.768 724.002 488.354C723.14 486.939 721.294 486.491 719.879 487.353L723.001 492.477ZM736.986 476.46C735.604 477.375 735.226 479.236 736.141 480.618C737.056 481.999 738.917 482.378 740.298 481.463L736.986 476.46ZM753.636 472.348C754.985 471.387 755.3 469.514 754.339 468.164C753.377 466.815 751.504 466.5 750.155 467.462L753.636 472.348ZM765.726 455.683C764.434 456.721 764.229 458.609 765.267 459.901C766.305 461.192 768.193 461.398 769.484 460.36L765.726 455.683ZM781.643 450.09C782.882 448.99 782.995 447.094 781.895 445.855C780.795 444.616 778.899 444.504 777.66 445.604L781.643 450.09ZM791.842 432.196C790.674 433.371 790.68 435.271 791.855 436.439C793.03 437.606 794.93 437.6 796.098 436.425L791.842 432.196ZM807.03 424.873C808.14 423.643 808.043 421.746 806.812 420.636C805.582 419.526 803.685 419.624 802.575 420.854L807.03 424.873ZM815.261 405.986C814.219 407.274 814.418 409.163 815.705 410.206C816.993 411.248 818.882 411.049 819.925 409.762L815.261 405.986ZM829.692 397.26C830.691 395.939 830.431 394.057 829.109 393.058C827.788 392.058 825.906 392.319 824.907 393.64L829.692 397.26ZM836.541 377.822C835.573 379.166 835.877 381.041 837.221 382.009C838.565 382.978 840.44 382.674 841.409 381.33L836.541 377.822ZM446.627 371.538C447.879 373.747 449.369 375.98 451.07 378.219L455.848 374.59C454.286 372.533 452.949 370.524 451.847 368.58L446.627 371.538ZM464.663 392.573C468.398 395.876 472.514 399.143 476.944 402.319L480.44 397.443C476.162 394.376 472.207 391.235 468.638 388.078L464.663 392.573ZM493.353 412.818C497.787 415.35 502.408 417.765 507.173 420.024L509.743 414.602C505.116 412.408 500.63 410.064 496.328 407.608L493.353 412.818ZM525.158 427.516C530.044 429.278 535.02 430.85 540.045 432.197L541.599 426.402C536.744 425.1 531.929 423.579 527.193 421.872L525.158 427.516ZM559.184 436.142C564.405 436.884 569.632 437.341 574.82 437.473L574.972 431.474C570.033 431.349 565.038 430.914 560.027 430.202L559.184 436.142ZM594.493 436.287C599.745 435.48 604.898 434.259 609.899 432.574L607.983 426.888C603.333 428.455 598.518 429.598 593.582 430.356L594.493 436.287ZM627.833 423.987C632.212 421.167 636.377 417.865 640.28 414.043L636.082 409.756C632.471 413.292 628.625 416.341 624.585 418.942L627.833 423.987ZM652.716 398.613C654.109 396.426 655.443 394.137 656.713 391.743L651.413 388.93C650.215 391.188 648.962 393.339 647.656 395.388L652.716 398.613ZM656.713 391.743C658.164 389.009 659.424 386.296 660.5 383.61L654.931 381.378C653.937 383.859 652.768 386.377 651.413 388.93L656.713 391.743ZM665.41 361.621C665.678 355.283 664.909 349.236 663.263 343.564L657.501 345.237C658.966 350.285 659.656 355.682 659.415 361.368L665.41 361.621ZM652.72 323.511C648.955 318.835 644.498 314.693 639.538 311.163L636.059 316.051C640.597 319.282 644.646 323.051 648.046 327.274L652.72 323.511ZM619.472 301.108C616.632 300.183 613.725 299.42 610.771 298.826L609.59 304.709C612.315 305.256 614.995 305.96 617.613 306.813L619.472 301.108ZM610.771 298.826C608.087 298.287 605.446 297.936 602.851 297.765L602.456 303.752C604.78 303.905 607.158 304.22 609.59 304.709L610.771 298.826ZM583.027 300.122C577.937 301.737 573.147 304.098 568.672 307.087L572.005 312.076C576.046 309.377 580.33 307.272 584.841 305.841L583.027 300.122ZM554.013 320.281C550.703 324.143 547.655 328.398 544.874 332.967L550 336.086C552.629 331.766 555.49 327.778 558.569 324.185L554.013 320.281ZM536.16 350.332C534.231 355.026 532.523 359.91 531.042 364.932L536.797 366.629C538.223 361.794 539.864 357.106 541.71 352.613L536.16 350.332ZM526.668 383.731C525.791 388.774 525.128 393.889 524.686 399.031L530.664 399.544C531.091 394.574 531.732 389.631 532.58 384.759L526.668 383.731ZM524.08 418.307C524.203 423.484 524.559 428.635 525.157 433.714L531.116 433.012C530.54 428.126 530.197 423.162 530.078 418.165L524.08 418.307ZM528.66 452.753C529.961 457.845 531.547 462.794 533.427 467.545L539.006 465.337C537.225 460.838 535.716 456.131 534.473 451.267L528.66 452.753ZM542.275 484.93C543.702 487.145 545.219 489.283 546.828 491.335L551.55 487.633C550.06 485.733 548.65 483.746 547.318 481.68L542.275 484.93ZM546.828 491.335C548.589 493.582 550.381 495.719 552.203 497.747L556.667 493.737C554.937 491.812 553.231 489.779 551.55 487.633L546.828 491.335ZM567.646 511.91C572.325 515.374 577.147 518.268 582.095 520.631L584.68 515.216C580.086 513.023 575.593 510.329 571.217 507.088L567.646 511.91ZM602.099 527.258C607.589 528.348 613.175 528.91 618.832 529L618.927 523C613.605 522.916 608.38 522.388 603.267 521.373L602.099 527.258ZM639.673 527.35C645.044 526.452 650.457 525.208 655.896 523.663L654.256 517.891C649.008 519.382 643.813 520.575 638.683 521.432L639.673 527.35ZM675.463 516.912C680.486 514.892 685.521 512.66 690.556 510.249L687.965 504.838C683.034 507.199 678.117 509.378 673.225 511.345L675.463 516.912ZM708.818 500.762C713.558 498.119 718.289 495.348 723.001 492.477L719.879 487.353C715.226 490.189 710.562 492.92 705.896 495.522L708.818 500.762ZM740.298 481.463C742.573 479.956 744.841 478.433 747.101 476.897L743.727 471.935C741.486 473.459 739.239 474.968 736.986 476.46L740.298 481.463ZM747.101 476.897C749.327 475.383 751.505 473.867 753.636 472.348L750.155 467.462C748.059 468.954 745.918 470.446 743.727 471.935L747.101 476.897ZM769.484 460.36C773.738 456.941 777.784 453.517 781.643 450.09L777.66 445.604C773.873 448.966 769.902 452.327 765.726 455.683L769.484 460.36ZM796.098 436.425C799.93 432.569 803.563 428.716 807.03 424.873L802.575 420.854C799.169 424.63 795.602 428.412 791.842 432.196L796.098 436.425ZM819.925 409.762C823.317 405.572 826.558 401.402 829.692 397.26L824.907 393.64C821.806 397.74 818.605 401.857 815.261 405.986L819.925 409.762ZM841.409 381.33C842.956 379.184 844.488 377.047 846.012 374.922L841.136 371.426C839.612 373.551 838.083 375.682 836.541 377.822L841.409 381.33Z" fill="#7AC8C9"/>
<path d="M9.6 130.4H19.584C21.5467 130.4 22.784 130.784 23.296 131.552C23.808 132.235 24.064 133.344 24.064 134.88V159.584C24.064 160.352 24.1493 160.949 24.32 161.376C24.576 161.803 25.1307 162.016 25.984 162.016H39.936C40.3627 162.016 40.6613 161.973 40.832 161.888C41.6 161.461 41.984 160.608 41.984 159.328V134.88C41.984 133.344 42.1547 132.32 42.496 131.808C43.1787 130.869 44.5013 130.4 46.464 130.4H56.448C58.4107 130.4 59.648 130.784 60.16 131.552C60.672 132.235 60.928 133.344 60.928 134.88V215.52C60.928 217.056 60.7573 218.08 60.416 218.592C59.7333 219.531 58.4107 220 56.448 220H46.464C44.5013 220 43.264 219.659 42.752 218.976C42.24 218.208 41.984 217.056 41.984 215.52V181.984C41.984 180.619 41.3013 179.936 39.936 179.936H25.984C24.704 179.936 24.064 180.576 24.064 181.856V215.52C24.064 217.483 23.68 218.72 22.912 219.232C22.2293 219.744 21.12 220 19.584 220H9.6C8.064 220 7.04 219.829 6.528 219.488C5.58933 218.805 5.12 217.483 5.12 215.52V134.88C5.12 133.344 5.29067 132.32 5.632 131.808C6.31467 130.869 7.63733 130.4 9.6 130.4ZM116.56 168.032V215.52C116.56 216.885 116.432 217.824 116.176 218.336C115.579 219.445 114.427 220 112.72 220H101.968C100.347 220 99.536 219.317 99.536 217.952C99.536 217.355 99.1947 217.056 98.512 217.056C97.9147 217.312 97.5307 217.525 97.36 217.696C96.2507 218.72 94.672 219.531 92.624 220.128C90.6613 220.725 88.7413 221.024 86.864 221.024C81.9147 221.024 77.8613 219.232 74.704 215.648C71.2053 211.637 69.456 205.963 69.456 198.624C69.456 189.92 72.272 183.136 77.904 178.272C81.232 175.456 86.8213 172.597 94.672 169.696L97.872 168.544C98.7253 168.203 99.152 167.52 99.152 166.496C99.152 164.704 98.3413 163.467 96.72 162.784C95.184 162.101 93.264 161.76 90.96 161.76C88.5707 161.76 86.736 161.888 85.456 162.144C84.0053 162.571 82.7253 162.912 81.616 163.168C80.592 163.424 79.7813 163.68 79.184 163.936C77.5627 164.533 76.5387 164.832 76.112 164.832C74.4907 164.832 73.68 164.064 73.68 162.528V154.592C73.68 152.971 74.6187 151.605 76.496 150.496C79.6533 148.704 84.9867 147.808 92.496 147.808C102.224 147.808 108.965 150.027 112.72 154.464C115.28 157.536 116.56 162.059 116.56 168.032ZM99.152 200.8V184.416C99.152 183.989 98.9813 183.691 98.64 183.52C98.2987 183.349 97.872 183.435 97.36 183.776L95.184 185.184C92.624 186.805 90.832 188.341 89.808 189.792C88.3573 191.84 87.632 194.443 87.632 197.6C87.632 199.989 88.0587 201.909 88.912 203.36C89.8507 204.811 91.3013 205.536 93.264 205.536C94.9707 205.536 96.3787 205.067 97.488 204.128C98.5973 203.189 99.152 202.08 99.152 200.8ZM143.513 174.944V193.888C143.513 196.875 143.94 199.136 144.793 200.672C146.329 203.403 149.145 204.768 153.241 204.768L159.001 204.128C159.598 204.043 160.366 203.915 161.305 203.744C162.244 203.488 162.969 203.36 163.481 203.36C164.42 203.36 165.017 203.616 165.273 204.128C165.614 204.64 165.785 205.237 165.785 205.92V216.16C165.785 217.696 165.23 218.763 164.121 219.36C162.158 220.469 158.105 221.024 151.961 221.024C140.612 221.024 133.017 217.781 129.177 211.296C127.129 207.797 126.105 202.336 126.105 194.912V172.896C126.105 165.387 127.47 159.755 130.201 156C134.212 150.539 141.465 147.808 151.961 147.808C158.105 147.808 162.158 148.363 164.121 149.472C165.23 150.069 165.785 151.136 165.785 152.672V162.912C165.785 164.619 165.017 165.472 163.481 165.472C162.03 165.472 160.281 165.259 158.233 164.832C156.27 164.32 154.606 164.064 153.241 164.064C149.316 164.064 146.585 165.259 145.049 167.648C144.025 169.269 143.513 171.701 143.513 174.944ZM202.137 165.472V216.416C202.137 217.952 201.796 218.933 201.113 219.36C200.516 219.787 199.662 220 198.553 220H188.313C187.204 220 186.308 219.787 185.625 219.36C185.028 218.933 184.729 217.952 184.729 216.416V165.472C184.729 164.448 184.217 163.936 183.193 163.936H173.721C172.612 163.936 171.716 163.723 171.033 163.296C170.436 162.869 170.137 161.888 170.137 160.352V152.416C170.137 150.88 170.436 149.899 171.033 149.472C171.716 149.045 172.612 148.832 173.721 148.832H213.145C214.254 148.832 215.108 149.045 215.705 149.472C216.388 149.899 216.729 150.88 216.729 152.416V160.352C216.729 161.461 216.516 162.357 216.089 163.04C215.662 163.637 214.681 163.936 213.145 163.936H203.673C202.649 163.936 202.137 164.448 202.137 165.472ZM222.37 234.848V152.416C222.37 150.88 222.669 149.899 223.266 149.472C223.949 149.045 224.845 148.832 225.954 148.832H237.602C239.138 148.832 239.906 149.429 239.906 150.624V151.648C239.906 152.075 240.29 152.373 241.058 152.544C242.338 151.264 243.959 150.155 245.922 149.216C247.97 148.277 250.402 147.808 253.218 147.808C260.386 147.808 265.25 150.795 267.81 156.768C269.261 160.181 269.986 165.173 269.986 171.744V197.6C269.986 204 269.09 208.992 267.298 212.576C264.482 218.208 259.49 221.024 252.322 221.024C249.421 221.024 247.074 220.64 245.282 219.872C243.661 219.019 242.039 218.123 240.418 217.184C239.991 217.525 239.778 217.824 239.778 218.08V234.848C239.778 236.384 239.437 237.365 238.754 237.792C238.157 238.219 237.303 238.432 236.194 238.432H225.954C224.418 238.432 223.437 238.091 223.01 237.408C222.583 236.811 222.37 235.957 222.37 234.848ZM239.778 171.872V196.96C239.778 199.179 240.077 200.928 240.674 202.208C241.698 204.341 243.49 205.408 246.05 205.408C248.61 205.408 250.402 204.341 251.426 202.208C252.023 200.928 252.322 199.179 252.322 196.96V171.872C252.322 169.653 252.023 167.904 251.426 166.624C250.402 164.491 248.61 163.424 246.05 163.424C243.49 163.424 241.698 164.491 240.674 166.624C240.077 167.904 239.778 169.653 239.778 171.872ZM279.477 195.296V173.536C279.477 166.624 280.8 161.12 283.445 157.024C287.37 150.88 294.154 147.808 303.797 147.808C313.354 147.808 320.138 150.88 324.149 157.024C326.794 161.12 328.117 166.624 328.117 173.536V195.296C328.117 202.208 326.794 207.712 324.149 211.808C320.224 217.952 313.44 221.024 303.797 221.024C294.24 221.024 287.456 217.952 283.445 211.808C280.8 207.712 279.477 202.208 279.477 195.296ZM296.885 170.592V198.24C296.885 201.397 297.61 203.659 299.061 205.024C300.256 206.133 301.834 206.688 303.797 206.688C305.674 206.688 307.21 206.133 308.405 205.024C309.941 203.573 310.709 201.312 310.709 198.24V170.592C310.709 167.435 310.026 165.259 308.661 164.064C307.381 162.784 305.76 162.144 303.797 162.144C301.92 162.144 300.384 162.699 299.189 163.808C297.653 165.259 296.885 167.52 296.885 170.592ZM370.9 143.456H352.468C350.164 143.456 348.329 142.773 346.964 141.408C345.684 139.957 345.044 138.123 345.044 135.904V133.472C345.044 132.448 345.513 131.936 346.452 131.936H353.492C354.516 131.936 355.028 132.448 355.028 133.472V134.24C355.028 135.179 355.412 135.819 356.18 136.16C357.033 136.416 357.972 136.544 358.996 136.544H364.372C365.652 136.544 366.633 136.416 367.316 136.16C367.999 135.904 368.34 135.264 368.34 134.24V133.472C368.34 132.448 368.852 131.936 369.876 131.936H376.916C377.855 131.936 378.324 132.448 378.324 133.472V135.904C378.324 138.123 377.641 139.957 376.276 141.408C374.996 142.773 373.204 143.456 370.9 143.456ZM351.572 220H341.204C339.668 220 338.687 219.701 338.26 219.104C337.833 218.421 337.62 217.525 337.62 216.416V152.416C337.62 150.88 337.919 149.899 338.516 149.472C339.199 149.045 340.095 148.832 341.204 148.832H350.804C351.913 148.832 352.767 149.045 353.364 149.472C354.047 149.899 354.388 150.88 354.388 152.416V181.856C354.388 182.539 354.601 182.88 355.028 182.88C355.369 182.88 355.625 182.667 355.796 182.24L367.316 152.416C367.913 150.88 368.553 149.899 369.236 149.472C370.004 149.045 370.943 148.832 372.052 148.832H382.164C383.273 148.832 384.127 149.045 384.724 149.472C385.407 149.899 385.748 150.88 385.748 152.416V216.416C385.748 217.952 385.407 218.933 384.724 219.36C384.127 219.787 383.273 220 382.164 220H372.564C371.455 220 370.559 219.787 369.876 219.36C369.279 218.933 368.98 217.952 368.98 216.416V187.104C368.809 186.507 368.596 186.208 368.34 186.208C367.913 186.208 367.615 186.507 367.444 187.104L355.924 216.8C355.412 218.08 354.772 218.933 354.004 219.36C353.321 219.787 352.511 220 351.572 220ZM423.387 165.472V216.416C423.387 217.952 423.046 218.933 422.363 219.36C421.766 219.787 420.912 220 419.803 220H409.563C408.454 220 407.558 219.787 406.875 219.36C406.278 218.933 405.979 217.952 405.979 216.416V165.472C405.979 164.448 405.467 163.936 404.443 163.936H394.971C393.862 163.936 392.966 163.723 392.283 163.296C391.686 162.869 391.387 161.888 391.387 160.352V152.416C391.387 150.88 391.686 149.899 392.283 149.472C392.966 149.045 393.862 148.832 394.971 148.832H434.395C435.504 148.832 436.358 149.045 436.955 149.472C437.638 149.899 437.979 150.88 437.979 152.416V160.352C437.979 161.461 437.766 162.357 437.339 163.04C436.912 163.637 435.931 163.936 434.395 163.936H424.923C423.899 163.936 423.387 164.448 423.387 165.472ZM488.292 189.152H462.564C461.967 189.152 461.54 189.323 461.284 189.664C461.113 189.92 461.028 190.261 461.028 190.688V195.04C461.028 198.453 462.137 201.099 464.356 202.976C466.575 204.768 469.647 205.664 473.572 205.664C476.303 205.664 478.777 205.493 480.996 205.152C483.215 204.725 485.561 204.085 488.036 203.232C490.169 202.549 491.236 203.232 491.236 205.28V215.52C491.236 216.203 491.065 216.757 490.724 217.184C490.468 217.525 489.828 217.909 488.804 218.336C485.988 219.36 483.129 220.043 480.228 220.384C477.327 220.811 474.724 221.024 472.42 221.024C464.996 221.024 458.98 219.659 454.372 216.928C447.204 212.661 443.62 205.408 443.62 195.168V173.536C443.62 166.709 444.943 161.248 447.588 157.152C451.599 150.923 458.383 147.808 467.94 147.808C473.743 147.808 478.521 149.003 482.276 151.392C488.676 155.488 491.876 162.869 491.876 173.536V185.568C491.876 187.104 491.535 188.085 490.852 188.512C490.255 188.939 489.401 189.152 488.292 189.152ZM462.308 175.072H473.188C473.7 175.072 474.127 174.645 474.468 173.792V170.976C474.468 168.501 474.169 166.624 473.572 165.344C472.463 163.04 470.585 161.888 467.94 161.888C465.721 161.888 464.015 162.656 462.82 164.192C461.625 165.643 461.028 167.904 461.028 170.976V173.792C461.028 174.645 461.455 175.072 462.308 175.072ZM21.888 283.944V302.888C21.888 305.875 22.3147 308.136 23.168 309.672C24.704 312.403 27.52 313.768 31.616 313.768L37.376 313.128C37.9733 313.043 38.7413 312.915 39.68 312.744C40.6187 312.488 41.344 312.36 41.856 312.36C42.7947 312.36 43.392 312.616 43.648 313.128C43.9893 313.64 44.16 314.237 44.16 314.92V325.16C44.16 326.696 43.6053 327.763 42.496 328.36C40.5333 329.469 36.48 330.024 30.336 330.024C18.9867 330.024 11.392 326.781 7.552 320.296C5.504 316.797 4.48 311.336 4.48 303.912V281.896C4.48 274.387 5.84533 268.755 8.576 265C12.5867 259.539 19.84 256.808 30.336 256.808C36.48 256.808 40.5333 257.363 42.496 258.472C43.6053 259.069 44.16 260.136 44.16 261.672V271.912C44.16 273.619 43.392 274.472 41.856 274.472C40.4053 274.472 38.656 274.259 36.608 273.832C34.6453 273.32 32.9813 273.064 31.616 273.064C27.6907 273.064 24.96 274.259 23.424 276.648C22.4 278.269 21.888 280.701 21.888 283.944ZM53.12 325.416V261.416C53.12 259.88 53.4187 258.899 54.016 258.472C54.6987 258.045 55.5947 257.832 56.704 257.832H79.104C85.6747 257.832 90.7947 259.624 94.464 263.208C97.7067 266.451 99.328 270.461 99.328 275.24C99.328 278.824 98.3893 281.939 96.512 284.584C95.4027 286.205 93.8667 287.656 91.904 288.936C91.648 289.107 91.4773 289.277 91.392 289.448C91.3067 289.533 91.392 289.619 91.648 289.704L94.464 291.24C96.768 292.605 98.56 294.44 99.84 296.744C101.461 299.56 102.272 303.101 102.272 307.368C102.272 314.451 100.053 319.827 95.616 323.496C91.1787 327.165 84.864 329 76.672 329H56.064C55.1253 329 54.4 328.701 53.888 328.104C53.376 327.507 53.12 326.611 53.12 325.416ZM70.528 272.808V282.792C70.528 283.645 70.9547 284.072 71.808 284.072H74.752C76.7147 284.072 78.208 283.475 79.232 282.28C80.3413 281 80.896 279.464 80.896 277.672C80.896 275.88 80.256 274.429 78.976 273.32C77.7813 272.125 76.16 271.528 74.112 271.528H71.808C70.9547 271.528 70.528 271.955 70.528 272.808ZM70.528 299.432V313.768C70.528 314.792 70.912 315.304 71.68 315.304H74.624C77.5253 315.304 79.744 314.451 81.28 312.744C82.816 311.037 83.584 308.947 83.584 306.472C83.584 304.168 82.816 302.12 81.28 300.328C79.744 298.536 77.6533 297.64 75.008 297.64H72.064C71.4667 297.64 71.0827 297.853 70.912 298.28C70.7413 298.621 70.6133 299.005 70.528 299.432ZM110.477 304.296V282.536C110.477 275.624 111.8 270.12 114.445 266.024C118.37 259.88 125.154 256.808 134.797 256.808C144.354 256.808 151.138 259.88 155.149 266.024C157.794 270.12 159.117 275.624 159.117 282.536V304.296C159.117 311.208 157.794 316.712 155.149 320.808C151.224 326.952 144.44 330.024 134.797 330.024C125.24 330.024 118.456 326.952 114.445 320.808C111.8 316.712 110.477 311.208 110.477 304.296ZM127.885 279.592V307.24C127.885 310.397 128.61 312.659 130.061 314.024C131.256 315.133 132.834 315.688 134.797 315.688C136.674 315.688 138.21 315.133 139.405 314.024C140.941 312.573 141.709 310.312 141.709 307.24V279.592C141.709 276.435 141.026 274.259 139.661 273.064C138.381 271.784 136.76 271.144 134.797 271.144C132.92 271.144 131.384 271.699 130.189 272.808C128.653 274.259 127.885 276.52 127.885 279.592ZM213.292 298.152H187.564C186.967 298.152 186.54 298.323 186.284 298.664C186.113 298.92 186.028 299.261 186.028 299.688V304.04C186.028 307.453 187.137 310.099 189.356 311.976C191.575 313.768 194.647 314.664 198.572 314.664C201.303 314.664 203.777 314.493 205.996 314.152C208.215 313.725 210.561 313.085 213.036 312.232C215.169 311.549 216.236 312.232 216.236 314.28V324.52C216.236 325.203 216.065 325.757 215.724 326.184C215.468 326.525 214.828 326.909 213.804 327.336C210.988 328.36 208.129 329.043 205.228 329.384C202.327 329.811 199.724 330.024 197.42 330.024C189.996 330.024 183.98 328.659 179.372 325.928C172.204 321.661 168.62 314.408 168.62 304.168V282.536C168.62 275.709 169.943 270.248 172.588 266.152C176.599 259.923 183.383 256.808 192.94 256.808C198.743 256.808 203.521 258.003 207.276 260.392C213.676 264.488 216.876 271.869 216.876 282.536V294.568C216.876 296.104 216.535 297.085 215.852 297.512C215.255 297.939 214.401 298.152 213.292 298.152ZM187.308 284.072H198.188C198.7 284.072 199.127 283.645 199.468 282.792V279.976C199.468 277.501 199.169 275.624 198.572 274.344C197.463 272.04 195.585 270.888 192.94 270.888C190.721 270.888 189.015 271.656 187.82 273.192C186.625 274.643 186.028 276.904 186.028 279.976V282.792C186.028 283.645 186.455 284.072 187.308 284.072ZM281.638 297V325.416C281.638 326.952 281.297 327.933 280.614 328.36C280.017 328.787 279.163 329 278.054 329H268.454C266.918 329 265.937 328.701 265.51 328.104C265.083 327.421 264.87 326.525 264.87 325.416V261.416C264.87 259.88 265.169 258.899 265.766 258.472C266.449 258.045 267.345 257.832 268.454 257.832H278.054C279.163 257.832 279.931 257.96 280.358 258.216C280.87 258.387 281.339 259.069 281.766 260.264L292.262 285.608C292.518 286.461 292.902 286.888 293.414 286.888C293.841 286.888 294.182 286.461 294.438 285.608L305.19 260.008C305.702 258.899 306.129 258.259 306.47 258.088C306.897 257.917 307.665 257.832 308.774 257.832H318.374C319.483 257.832 320.337 258.045 320.934 258.472C321.617 258.899 321.958 259.88 321.958 261.416V325.416C321.958 326.525 321.745 327.421 321.318 328.104C320.891 328.701 319.91 329 318.374 329H308.774C307.665 329 306.769 328.787 306.086 328.36C305.489 327.933 305.19 326.952 305.19 325.416V297.256C305.019 296.659 304.849 296.36 304.678 296.36C304.081 296.872 303.782 297.213 303.782 297.384L298.022 309.928C297.595 310.867 297.211 311.549 296.87 311.976C296.273 312.744 295.505 313.128 294.566 313.128H292.262C291.409 313.128 290.641 312.744 289.958 311.976C289.617 311.549 289.233 310.867 288.806 309.928L282.918 297C282.747 296.488 282.449 296.232 282.022 296.232L281.638 297ZM376.917 298.152H351.189C350.592 298.152 350.165 298.323 349.909 298.664C349.738 298.92 349.653 299.261 349.653 299.688V304.04C349.653 307.453 350.762 310.099 352.981 311.976C355.2 313.768 358.272 314.664 362.197 314.664C364.928 314.664 367.402 314.493 369.621 314.152C371.84 313.725 374.186 313.085 376.661 312.232C378.794 311.549 379.861 312.232 379.861 314.28V324.52C379.861 325.203 379.69 325.757 379.349 326.184C379.093 326.525 378.453 326.909 377.429 327.336C374.613 328.36 371.754 329.043 368.853 329.384C365.952 329.811 363.349 330.024 361.045 330.024C353.621 330.024 347.605 328.659 342.997 325.928C335.829 321.661 332.245 314.408 332.245 304.168V282.536C332.245 275.709 333.568 270.248 336.213 266.152C340.224 259.923 347.008 256.808 356.565 256.808C362.368 256.808 367.146 258.003 370.901 260.392C377.301 264.488 380.501 271.869 380.501 282.536V294.568C380.501 296.104 380.16 297.085 379.477 297.512C378.88 297.939 378.026 298.152 376.917 298.152ZM350.933 284.072H361.813C362.325 284.072 362.752 283.645 363.093 282.792V279.976C363.093 277.501 362.794 275.624 362.197 274.344C361.088 272.04 359.21 270.888 356.565 270.888C354.346 270.888 352.64 271.656 351.445 273.192C350.25 274.643 349.653 276.904 349.653 279.976V282.792C349.653 283.645 350.08 284.072 350.933 284.072ZM390.12 325.416V261.416C390.12 259.88 390.419 258.899 391.016 258.472C391.699 258.045 392.595 257.832 393.704 257.832H403.944C405.053 257.832 405.907 258.045 406.504 258.472C407.187 258.899 407.528 259.88 407.528 261.416V281.896C407.528 282.92 408.04 283.432 409.064 283.432H418.024C419.048 283.432 419.56 282.92 419.56 281.896V261.416C419.56 259.88 419.859 258.899 420.456 258.472C421.139 258.045 422.035 257.832 423.144 257.832H433.384C434.493 257.832 435.347 258.045 435.944 258.472C436.627 258.899 436.968 259.88 436.968 261.416V325.416C436.968 326.525 436.755 327.421 436.328 328.104C435.901 328.701 434.92 329 433.384 329H423.144C422.035 329 421.139 328.787 420.456 328.36C419.859 327.933 419.56 326.952 419.56 325.416V300.072C419.56 299.048 419.048 298.536 418.024 298.536H409.064C408.04 298.536 407.528 299.048 407.528 300.072V325.416C407.528 326.952 407.187 327.933 406.504 328.36C405.907 328.787 405.053 329 403.944 329H393.704C392.168 329 391.187 328.701 390.76 328.104C390.333 327.421 390.12 326.525 390.12 325.416ZM466.189 283.304H471.949C472.973 283.304 473.485 282.792 473.485 281.768V280.744C473.485 272.979 475.533 267.048 479.629 262.952C483.725 258.856 489.4 256.808 496.653 256.808C506.296 256.808 513.08 259.88 517.005 266.024C519.65 270.12 520.973 275.624 520.973 282.536V304.296C520.973 311.123 519.65 316.584 517.005 320.68C512.994 326.909 506.21 330.024 496.653 330.024C487.522 330.024 481.08 326.952 477.325 320.808C474.765 316.627 473.485 311.123 473.485 304.296V300.328C473.485 299.304 472.973 298.792 471.949 298.792H466.189C465.165 298.792 464.653 299.304 464.653 300.328V325.416C464.653 326.952 464.312 327.933 463.629 328.36C463.032 328.787 462.178 329 461.069 329H450.829C449.293 329 448.312 328.701 447.885 328.104C447.458 327.421 447.245 326.525 447.245 325.416V261.416C447.245 259.88 447.544 258.899 448.141 258.472C448.824 258.045 449.72 257.832 450.829 257.832H461.069C462.178 257.832 463.032 258.045 463.629 258.472C464.312 258.899 464.653 259.88 464.653 261.416V281.768C464.653 282.792 465.165 283.304 466.189 283.304ZM489.741 279.592V307.24C489.741 310.397 490.466 312.659 491.917 314.024C493.112 315.133 494.69 315.688 496.653 315.688C498.53 315.688 500.066 315.133 501.261 314.024C502.797 312.573 503.565 310.312 503.565 307.24V279.592C503.565 276.435 502.882 274.259 501.517 273.064C500.237 271.784 498.616 271.144 496.653 271.144C494.776 271.144 493.24 271.699 492.045 272.808C490.509 274.259 489.741 276.52 489.741 279.592Z" fill="#7AC8C9"/>
</svg>
