<svg width="806" height="583" viewBox="0 0 806 583" fill="none" xmlns="http://www.w3.org/2000/svg">
<path fill-rule="evenodd" clip-rule="evenodd" d="M130.614 33.9548C37.6227 58.914 -8.51586 184.809 2.41802 280.469C12.0134 364.419 120.991 387.291 178.117 449.551C213.275 487.869 220.152 549.197 267.897 569.808C320.971 592.719 380.276 580.393 434.444 560.203C502.6 534.801 578.144 508.97 608.488 442.865C642.444 368.889 650.561 268.682 595.975 208.3C543.552 150.31 445.21 208.697 372.006 181.271C280.24 146.891 225.258 8.55207 130.614 33.9548Z" fill="#EFF9F9"/>
<path fill-rule="evenodd" clip-rule="evenodd" d="M366.594 0.279C384.387 2.81063 397.355 17.9885 399.445 34.8957C401.318 50.0485 389.413 62.1119 375.051 68.7037C360.825 75.2336 343.116 76.7985 331.872 65.9117C320.628 55.0257 322.835 38.3821 329.913 25.0024C337.354 10.9374 349.989 -2.08358 366.594 0.279Z" fill="#EFF9F9"/>
<path fill-rule="evenodd" clip-rule="evenodd" d="M459.979 66.2221C470.193 50.5308 490.23 44.9557 507.117 50.4156C522.252 55.309 528.411 71.8573 528.322 88.319C528.234 104.626 521.926 122.039 506.7 127.873C491.475 133.706 476.726 124.304 467.202 111.736C457.19 98.5241 450.447 80.8657 459.979 66.2221Z" fill="#EFF9F9"/>
<path d="M609.063 390.336L606.413 388.93L609.063 390.336ZM565.181 301.768L565.771 298.826L565.181 301.768ZM504.189 489.484L501.828 491.335L504.189 489.484ZM700.414 474.416L698.727 471.935L700.414 474.416ZM801.534 372.686C801.265 371.051 799.721 369.944 798.086 370.214L771.445 374.604C769.811 374.873 768.704 376.417 768.973 378.052C769.243 379.686 770.786 380.793 772.421 380.524L796.102 376.622L800.004 400.302C800.273 401.937 801.817 403.044 803.452 402.774C805.087 402.505 806.194 400.961 805.924 399.327L801.534 372.686ZM406.07 378.219C407.072 379.538 408.954 379.796 410.273 378.794C411.593 377.792 411.85 375.91 410.848 374.59L406.07 378.219ZM423.638 388.078C422.397 386.981 420.501 387.097 419.403 388.338C418.306 389.579 418.422 391.475 419.663 392.573L423.638 388.078ZM431.944 402.319C433.29 403.285 435.164 402.976 436.13 401.629C437.095 400.283 436.786 398.409 435.44 397.443L431.944 402.319ZM451.328 407.608C449.889 406.786 448.057 407.286 447.235 408.725C446.414 410.164 446.914 411.996 448.353 412.818L451.328 407.608ZM462.173 420.024C463.671 420.733 465.46 420.095 466.169 418.598C466.879 417.1 466.241 415.311 464.743 414.602L462.173 420.024ZM482.193 421.872C480.634 421.31 478.915 422.118 478.353 423.677C477.791 425.236 478.599 426.955 480.158 427.516L482.193 421.872ZM495.045 432.197C496.645 432.626 498.29 431.677 498.719 430.076C499.149 428.476 498.199 426.831 496.599 426.402L495.045 432.197ZM515.027 430.202C513.387 429.969 511.868 431.11 511.635 432.75C511.402 434.391 512.543 435.909 514.184 436.142L515.027 430.202ZM529.82 437.473C531.477 437.514 532.853 436.206 532.895 434.549C532.937 432.893 531.629 431.516 529.972 431.474L529.82 437.473ZM548.582 430.356C546.944 430.608 545.821 432.139 546.072 433.777C546.324 435.414 547.855 436.538 549.493 436.287L548.582 430.356ZM564.899 432.574C566.469 432.044 567.313 430.343 566.784 428.773C566.255 427.203 564.553 426.359 562.983 426.888L564.899 432.574ZM579.585 418.942C578.192 419.838 577.79 421.695 578.687 423.088C579.583 424.481 581.44 424.883 582.833 423.987L579.585 418.942ZM595.28 414.043C596.464 412.884 596.484 410.984 595.324 409.801C594.165 408.617 592.266 408.597 591.082 409.756L595.28 414.043ZM602.656 395.388C601.766 396.786 602.176 398.64 603.574 399.531C604.971 400.421 606.826 400.01 607.716 398.613L602.656 395.388ZM615.5 383.61C616.117 382.072 615.369 380.325 613.831 379.709C612.293 379.093 610.547 379.84 609.931 381.378L615.5 383.61ZM614.415 361.368C614.346 363.023 615.631 364.422 617.286 364.492C618.942 364.561 620.34 363.276 620.41 361.621L614.415 361.368ZM618.263 343.564C617.801 341.973 616.137 341.057 614.546 341.519C612.954 341.981 612.039 343.646 612.501 345.237L618.263 343.564ZM603.046 327.274C604.085 328.565 605.974 328.768 607.264 327.729C608.555 326.69 608.759 324.802 607.72 323.511L603.046 327.274ZM594.538 311.163C593.189 310.203 591.316 310.518 590.355 311.868C589.394 313.218 589.709 315.091 591.059 316.051L594.538 311.163ZM572.613 306.813C574.189 307.326 575.882 306.465 576.395 304.89C576.908 303.314 576.047 301.621 574.472 301.108L572.613 306.813ZM557.851 297.765C556.198 297.656 554.77 298.908 554.66 300.561C554.551 302.214 555.803 303.643 557.456 303.752L557.851 297.765ZM539.841 305.841C541.421 305.34 542.295 303.654 541.794 302.074C541.293 300.495 539.606 299.621 538.027 300.122L539.841 305.841ZM523.672 307.087C522.295 308.007 521.924 309.87 522.844 311.248C523.764 312.626 525.627 312.997 527.005 312.076L523.672 307.087ZM513.569 324.185C514.647 322.927 514.501 321.033 513.243 319.955C511.985 318.877 510.091 319.023 509.013 320.281L513.569 324.185ZM499.874 332.967C499.013 334.383 499.462 336.228 500.877 337.09C502.293 337.951 504.138 337.502 505 336.086L499.874 332.967ZM496.71 352.613C497.34 351.08 496.608 349.327 495.075 348.698C493.543 348.068 491.79 348.8 491.16 350.332L496.71 352.613ZM486.042 364.932C485.574 366.521 486.482 368.19 488.071 368.658C489.661 369.127 491.329 368.218 491.797 366.629L486.042 364.932ZM487.58 384.759C487.864 383.127 486.771 381.574 485.138 381.289C483.506 381.005 481.952 382.098 481.668 383.731L487.58 384.759ZM479.686 399.031C479.544 400.682 480.767 402.135 482.418 402.277C484.069 402.418 485.522 401.195 485.664 399.544L479.686 399.031ZM485.078 418.165C485.039 416.508 483.665 415.197 482.008 415.236C480.352 415.276 479.041 416.65 479.08 418.307L485.078 418.165ZM480.157 433.714C480.351 435.359 481.842 436.536 483.488 436.342C485.133 436.148 486.31 434.657 486.116 433.012L480.157 433.714ZM489.473 451.267C489.063 449.661 487.429 448.693 485.823 449.103C484.218 449.513 483.249 451.147 483.66 452.753L489.473 451.267ZM488.427 467.545C489.037 469.086 490.78 469.84 492.32 469.23C493.861 468.621 494.616 466.878 494.006 465.337L488.427 467.545ZM502.318 481.68C501.421 480.287 499.564 479.885 498.171 480.783C496.779 481.68 496.377 483.537 497.275 484.93L502.318 481.68ZM507.203 497.747C508.31 498.979 510.207 499.081 511.439 497.974C512.672 496.867 512.774 494.97 511.667 493.737L507.203 497.747ZM526.217 507.088C524.885 506.102 523.007 506.382 522.021 507.713C521.035 509.045 521.315 510.924 522.646 511.91L526.217 507.088ZM537.095 520.631C538.59 521.344 540.381 520.711 541.094 519.216C541.808 517.721 541.175 515.93 539.68 515.216L537.095 520.631ZM558.267 521.373C556.642 521.051 555.063 522.106 554.74 523.732C554.418 525.357 555.474 526.936 557.099 527.258L558.267 521.373ZM573.832 529C575.489 529.026 576.853 527.704 576.879 526.048C576.905 524.391 575.584 523.027 573.927 523L573.832 529ZM593.683 521.432C592.049 521.705 590.946 523.252 591.219 524.886C591.492 526.52 593.039 527.623 594.673 527.35L593.683 521.432ZM610.896 523.663C612.49 523.21 613.415 521.551 612.962 519.957C612.509 518.363 610.85 517.439 609.256 517.891L610.896 523.663ZM628.225 511.345C626.688 511.963 625.942 513.71 626.561 515.248C627.179 516.785 628.926 517.53 630.463 516.912L628.225 511.345ZM645.556 510.249C647.05 509.534 647.682 507.742 646.966 506.248C646.25 504.753 644.459 504.122 642.965 504.838L645.556 510.249ZM660.896 495.522C659.449 496.329 658.93 498.157 659.737 499.604C660.544 501.051 662.371 501.569 663.818 500.762L660.896 495.522ZM678.001 492.477C679.416 491.614 679.864 489.768 679.002 488.354C678.14 486.939 676.294 486.491 674.879 487.353L678.001 492.477ZM691.986 476.46C690.604 477.375 690.226 479.236 691.141 480.618C692.056 481.999 693.917 482.378 695.298 481.463L691.986 476.46ZM708.636 472.348C709.985 471.387 710.3 469.514 709.339 468.164C708.377 466.815 706.504 466.5 705.155 467.462L708.636 472.348ZM720.726 455.683C719.434 456.721 719.229 458.609 720.267 459.901C721.305 461.192 723.193 461.398 724.484 460.36L720.726 455.683ZM736.643 450.09C737.882 448.99 737.995 447.094 736.895 445.855C735.795 444.616 733.899 444.504 732.66 445.604L736.643 450.09ZM746.842 432.196C745.674 433.371 745.68 435.271 746.855 436.439C748.03 437.606 749.93 437.6 751.098 436.425L746.842 432.196ZM762.03 424.873C763.14 423.643 763.043 421.746 761.812 420.636C760.582 419.526 758.685 419.624 757.575 420.854L762.03 424.873ZM770.261 405.986C769.219 407.274 769.418 409.163 770.705 410.206C771.993 411.248 773.882 411.049 774.925 409.762L770.261 405.986ZM784.692 397.26C785.691 395.939 785.431 394.057 784.109 393.058C782.788 392.058 780.906 392.319 779.907 393.64L784.692 397.26ZM791.541 377.822C790.573 379.166 790.877 381.041 792.221 382.009C793.565 382.978 795.44 382.674 796.409 381.33L791.541 377.822ZM401.627 371.538C402.879 373.747 404.369 375.98 406.07 378.219L410.848 374.59C409.286 372.533 407.949 370.524 406.847 368.58L401.627 371.538ZM419.663 392.573C423.398 395.876 427.514 399.143 431.944 402.319L435.44 397.443C431.162 394.376 427.207 391.235 423.638 388.078L419.663 392.573ZM448.353 412.818C452.787 415.35 457.408 417.765 462.173 420.024L464.743 414.602C460.116 412.408 455.63 410.064 451.328 407.608L448.353 412.818ZM480.158 427.516C485.044 429.278 490.02 430.85 495.045 432.197L496.599 426.402C491.744 425.1 486.929 423.579 482.193 421.872L480.158 427.516ZM514.184 436.142C519.405 436.884 524.632 437.341 529.82 437.473L529.972 431.474C525.033 431.349 520.038 430.914 515.027 430.202L514.184 436.142ZM549.493 436.287C554.745 435.48 559.898 434.259 564.899 432.574L562.983 426.888C558.333 428.455 553.518 429.598 548.582 430.356L549.493 436.287ZM582.833 423.987C587.212 421.167 591.377 417.865 595.28 414.043L591.082 409.756C587.471 413.292 583.625 416.341 579.585 418.942L582.833 423.987ZM607.716 398.613C609.109 396.426 610.443 394.137 611.713 391.743L606.413 388.93C605.215 391.188 603.962 393.339 602.656 395.388L607.716 398.613ZM611.713 391.743C613.164 389.009 614.424 386.296 615.5 383.61L609.931 381.378C608.937 383.859 607.768 386.377 606.413 388.93L611.713 391.743ZM620.41 361.621C620.678 355.283 619.909 349.236 618.263 343.564L612.501 345.237C613.966 350.285 614.656 355.682 614.415 361.368L620.41 361.621ZM607.72 323.511C603.955 318.835 599.498 314.693 594.538 311.163L591.059 316.051C595.597 319.282 599.646 323.051 603.046 327.274L607.72 323.511ZM574.472 301.108C571.632 300.183 568.725 299.42 565.771 298.826L564.59 304.709C567.315 305.256 569.995 305.96 572.613 306.813L574.472 301.108ZM565.771 298.826C563.087 298.287 560.446 297.936 557.851 297.765L557.456 303.752C559.78 303.905 562.158 304.22 564.59 304.709L565.771 298.826ZM538.027 300.122C532.937 301.737 528.147 304.098 523.672 307.087L527.005 312.076C531.046 309.377 535.33 307.272 539.841 305.841L538.027 300.122ZM509.013 320.281C505.703 324.143 502.655 328.398 499.874 332.967L505 336.086C507.629 331.766 510.49 327.778 513.569 324.185L509.013 320.281ZM491.16 350.332C489.231 355.026 487.523 359.91 486.042 364.932L491.797 366.629C493.223 361.794 494.864 357.106 496.71 352.613L491.16 350.332ZM481.668 383.731C480.791 388.774 480.128 393.889 479.686 399.031L485.664 399.544C486.091 394.574 486.732 389.631 487.58 384.759L481.668 383.731ZM479.08 418.307C479.203 423.484 479.559 428.635 480.157 433.714L486.116 433.012C485.54 428.126 485.197 423.162 485.078 418.165L479.08 418.307ZM483.66 452.753C484.961 457.845 486.547 462.794 488.427 467.545L494.006 465.337C492.225 460.838 490.716 456.131 489.473 451.267L483.66 452.753ZM497.275 484.93C498.702 487.145 500.219 489.283 501.828 491.335L506.55 487.633C505.06 485.733 503.65 483.746 502.318 481.68L497.275 484.93ZM501.828 491.335C503.589 493.582 505.381 495.719 507.203 497.747L511.667 493.737C509.937 491.812 508.231 489.779 506.55 487.633L501.828 491.335ZM522.646 511.91C527.325 515.374 532.147 518.268 537.095 520.631L539.68 515.216C535.086 513.023 530.593 510.329 526.217 507.088L522.646 511.91ZM557.099 527.258C562.589 528.348 568.175 528.91 573.832 529L573.927 523C568.605 522.916 563.38 522.388 558.267 521.373L557.099 527.258ZM594.673 527.35C600.044 526.452 605.457 525.208 610.896 523.663L609.256 517.891C604.008 519.382 598.813 520.575 593.683 521.432L594.673 527.35ZM630.463 516.912C635.486 514.892 640.521 512.66 645.556 510.249L642.965 504.838C638.034 507.199 633.117 509.378 628.225 511.345L630.463 516.912ZM663.818 500.762C668.558 498.119 673.289 495.348 678.001 492.477L674.879 487.353C670.226 490.189 665.562 492.92 660.896 495.522L663.818 500.762ZM695.298 481.463C697.573 479.956 699.841 478.433 702.101 476.897L698.727 471.935C696.486 473.459 694.239 474.968 691.986 476.46L695.298 481.463ZM702.101 476.897C704.327 475.383 706.505 473.867 708.636 472.348L705.155 467.462C703.059 468.954 700.918 470.446 698.727 471.935L702.101 476.897ZM724.484 460.36C728.738 456.941 732.784 453.517 736.643 450.09L732.66 445.604C728.873 448.966 724.902 452.327 720.726 455.683L724.484 460.36ZM751.098 436.425C754.93 432.569 758.563 428.716 762.03 424.873L757.575 420.854C754.169 424.63 750.602 428.412 746.842 432.196L751.098 436.425ZM774.925 409.762C778.317 405.572 781.558 401.402 784.692 397.26L779.907 393.64C776.806 397.74 773.605 401.857 770.261 405.986L774.925 409.762ZM796.409 381.33C797.956 379.184 799.488 377.047 801.012 374.922L796.136 371.426C794.612 373.551 793.083 375.682 791.541 377.822L796.409 381.33Z" fill="#7AC8C9"/>
</svg>
