<svg width="216" height="86" viewBox="0 0 216 86" fill="none" xmlns="http://www.w3.org/2000/svg">
<g clip-path="url(#clip0_472_473)">
<path fill-rule="evenodd" clip-rule="evenodd" d="M216 17.5848C216 21.2014 213.088 24.1211 209.481 24.1211C205.873 24.1211 202.961 21.2014 202.961 17.5848C202.961 13.9683 205.873 11.0486 209.481 11.0486C213.088 11.0818 216 14.0015 216 17.5848Z" fill="#FE2C55"/>
<path fill-rule="evenodd" clip-rule="evenodd" d="M216 38.3549C216 41.9714 213.088 44.8911 209.481 44.8911C205.873 44.8911 202.961 41.9714 202.961 38.3549C202.961 34.7384 205.873 31.8186 209.481 31.8186C213.088 31.8186 216 34.7384 216 38.3549Z" fill="#25F4EE"/>
<path fill-rule="evenodd" clip-rule="evenodd" d="M0 0.132812H1.25755H33.1926L30.148 9.65519H21.5437V42.8342V44.8249H10.7884V44.1614V9.65519H1.25755H0V0.132812Z" fill="black"/>
<path fill-rule="evenodd" clip-rule="evenodd" d="M88.4584 0.132812H89.716H122.412L119.368 9.65519H110.002L110.035 42.8674V44.8913H99.2799C99.2799 44.8913 99.2799 44.5595 99.2799 44.1945V9.62201H89.7491L88.4915 9.65519V0.132812H88.4584Z" fill="black"/>
<path fill-rule="evenodd" clip-rule="evenodd" d="M35.2113 15.3286V14.3333H45.8673V15.3286V42.0377L45.8342 44.8248H35.2775V43.2985L35.2113 15.3286Z" fill="black"/>
<path fill-rule="evenodd" clip-rule="evenodd" d="M50.9637 2.09028V0H53.0817H59.7334H61.4874V1.82485L61.5204 20.8364L72.1434 10.4514H84.8181L71.5146 23.4244L86.4397 44.8248H74.7247L64.7636 29.9938L61.6197 33.0463V44.858L51.0299 44.8248V43.8958L50.9637 2.09028Z" fill="black"/>
<path fill-rule="evenodd" clip-rule="evenodd" d="M160.172 2.09028V0H162.29H168.941H170.695V1.82485V20.8364L181.351 10.4514H194.026L180.689 23.4244L195.615 44.8248H183.933L173.971 29.9938L170.795 33.0463V44.858L160.238 44.8248V43.8958L160.172 2.09028Z" fill="black"/>
<path fill-rule="evenodd" clip-rule="evenodd" d="M145.908 28.9653C145.677 29.7284 145.412 30.4251 145.015 31.0887C144.618 31.7523 144.188 32.3495 143.658 32.8804C143.129 33.4112 142.533 33.8757 141.871 34.2407C141.209 34.6389 140.514 34.9043 139.753 35.1365C139.091 35.3024 138.429 35.402 137.734 35.4352C137.767 35.4352 137.801 35.4352 137.834 35.4352C137.767 35.4352 137.668 35.4352 137.602 35.4352C137.569 35.4352 137.503 35.4352 137.47 35.4352C137.436 35.4352 137.403 35.4352 137.37 35.4352C136.874 35.4352 136.411 35.402 135.914 35.3024C135.616 35.2693 135.285 35.2029 134.988 35.1034C134.226 34.9043 133.531 34.6057 132.87 34.2075C132.208 33.8426 131.612 33.3781 131.083 32.8472C130.553 32.3163 130.09 31.7191 129.726 31.0555C129.329 30.3919 129.064 29.6952 128.832 28.9321C128.601 28.169 128.501 27.3727 128.501 26.5432C128.501 25.7137 128.601 24.9174 128.832 24.1543C129.031 23.3912 129.329 22.6944 129.726 22.0308C130.123 21.3673 130.553 20.8032 131.083 20.2392C131.612 19.7083 132.208 19.2438 132.87 18.8788C133.531 18.5139 134.226 18.2152 134.988 18.0162C135.285 17.9166 135.616 17.8835 135.947 17.8171C136.411 17.7507 136.874 17.7176 137.37 17.7176C137.403 17.7176 137.436 17.7176 137.503 17.7176C137.536 17.7176 137.569 17.7176 137.602 17.7176C137.701 17.7176 137.767 17.7176 137.867 17.7176H137.767C138.826 17.7507 139.852 17.983 140.812 18.3811C141.904 18.8457 142.831 19.4429 143.625 20.2392C144.419 21.0355 145.048 21.9645 145.511 23.0262C145.975 24.0879 146.206 25.2492 146.206 26.51C146.239 27.4058 146.14 28.2021 145.908 28.9653ZM154.149 19.4097C153.222 17.1867 151.898 15.2623 150.277 13.6034C148.655 11.9444 146.736 10.6836 144.518 9.7546C144.32 9.65506 144.121 9.58871 143.923 9.52235C143.857 9.48917 143.757 9.45599 143.691 9.42281C143.559 9.38963 143.426 9.32327 143.294 9.2901C143.195 9.25692 143.095 9.22374 142.996 9.19056C142.897 9.15738 142.798 9.1242 142.698 9.09102C142.599 9.05784 142.467 9.02466 142.367 8.99148C142.334 8.99148 142.268 8.95831 142.235 8.95831C141.706 8.82559 141.209 8.72605 140.68 8.62652C140.647 8.62652 140.647 8.62652 140.613 8.62652C140.415 8.59334 140.249 8.56016 140.051 8.52698C139.654 8.46062 139.257 8.42744 138.826 8.39426C138.529 8.36108 138.198 8.36108 137.9 8.36108C137.734 8.36108 137.602 8.36108 137.436 8.36108C137.304 8.36108 137.139 8.36108 137.006 8.36108C136.675 8.36108 136.344 8.39426 136.013 8.39426C135.285 8.42744 134.59 8.56016 133.929 8.65969C133.829 8.69287 133.697 8.69287 133.598 8.72605C133.498 8.75923 133.399 8.75923 133.3 8.79241C133.068 8.85877 132.837 8.89195 132.572 8.95831C131.016 9.38963 129.56 9.98686 128.203 10.75C126.847 11.5463 125.622 12.4753 124.53 13.5702C123.438 14.6651 122.478 15.8927 121.717 17.2199C120.923 18.5802 120.327 20.0069 119.897 21.5995C119.467 23.1589 119.235 24.8179 119.235 26.51C119.235 28.2021 119.467 29.8279 119.897 31.4205C120.327 32.9799 120.923 34.4398 121.717 35.8001C122.511 37.1605 123.438 38.3881 124.563 39.483C125.655 40.5779 126.88 41.5401 128.237 42.3032C129.593 43.0663 131.049 43.6967 132.605 44.1281C132.87 44.1944 133.101 44.2608 133.366 44.3271C133.465 44.3603 133.531 44.3603 133.631 44.3935C133.796 44.4267 133.962 44.4599 134.127 44.493C134.226 44.5262 134.326 44.5262 134.425 44.5594C134.59 44.5926 134.756 44.5926 134.954 44.6257C135.054 44.6257 135.12 44.6589 135.219 44.6589C135.517 44.6921 135.782 44.7253 136.08 44.7253C136.444 44.7585 136.808 44.7585 137.139 44.7585C137.238 44.7585 137.37 44.7585 137.47 44.7585C137.569 44.7585 137.701 44.7585 137.801 44.7585C138.165 44.7585 138.529 44.7253 138.86 44.7253C139.19 44.6921 139.521 44.6589 139.852 44.6257C140.084 44.5926 140.283 44.5594 140.481 44.5262C140.58 44.493 140.713 44.493 140.812 44.4598C140.977 44.4267 141.11 44.3935 141.275 44.3603C141.375 44.3271 141.474 44.3271 141.573 44.294C141.805 44.2276 142.07 44.1944 142.301 44.1281C143.824 43.6967 145.28 43.0995 146.636 42.3032C147.993 41.5069 149.218 40.5779 150.31 39.483C151.402 38.3881 152.362 37.1605 153.123 35.8001C153.917 34.4398 154.513 32.9799 154.943 31.4205C155.373 29.8611 155.605 28.2353 155.605 26.51C155.605 23.9552 155.141 21.5331 154.182 19.3433L154.149 19.4097Z" fill="black"/>
<path fill-rule="evenodd" clip-rule="evenodd" d="M45.9004 5.50781C45.9004 8.46074 43.5177 10.8828 40.5393 10.8828C37.5609 10.8828 35.1782 8.49392 35.1782 5.50781C35.1782 2.5217 37.5609 0.132812 40.5393 0.132812C43.5177 0.132812 45.9004 2.5217 45.9004 5.50781Z" fill="black"/>
<path fill-rule="evenodd" clip-rule="evenodd" d="M16.2157 63.5378V70.0077H25.0516V74.7523H16.2157V85.5686H10.7884V58.76H27.3351V63.5378H16.2157Z" fill="black"/>
<path fill-rule="evenodd" clip-rule="evenodd" d="M41.7307 76.4777C41.7307 73.6243 39.6789 71.7331 37.1638 71.7331C34.6487 71.7331 32.5969 73.6575 32.5969 76.4777C32.5969 79.2648 34.6487 81.1891 37.1638 81.1891C39.6789 81.1891 41.7307 79.2648 41.7307 76.4777ZM27.4013 76.4777C27.4013 70.7046 31.9681 66.9885 37.1307 66.9885C42.2932 66.9885 46.8932 70.7378 46.8932 76.4777C46.8932 82.1845 42.3263 85.9337 37.1307 85.9337C32.0012 85.9337 27.4013 82.1845 27.4013 76.4777Z" fill="black"/>
<path fill-rule="evenodd" clip-rule="evenodd" d="M63.1751 67.5526L62.0169 72.4299C60.9248 71.8327 60.0313 71.7663 59.4025 71.7663C56.7881 71.7663 55.0011 74.1884 55.0011 79.3643V85.602H49.9047V67.453H54.968V71.3018C55.9939 68.2493 58.0457 66.9885 60.296 66.9885C61.2557 66.9885 62.3478 67.1544 63.1751 67.5526Z" fill="black"/>
<path fill-rule="evenodd" clip-rule="evenodd" d="M85.8771 77.3403C85.8771 75.6813 84.7519 73.9228 82.2038 73.9228H76.8757V80.7577H82.1045C84.6527 80.7909 85.8771 79.1319 85.8771 77.3403ZM76.8757 63.5378V69.4105H81.7736C83.4944 69.4105 84.5203 68.2824 84.5203 66.4575C84.5203 64.8318 83.6599 63.5378 81.7736 63.5378H76.8757ZM91.3375 77.9043C91.3375 81.5872 88.8224 85.5686 82.8987 85.5686H71.4815V58.76H82.0714C86.8368 58.76 89.9145 61.6466 89.9145 65.6944C89.9145 67.6852 89.1203 70.3727 86.2412 71.2685C89.6498 71.8325 91.3375 74.885 91.3375 77.9043Z" fill="black"/>
<path fill-rule="evenodd" clip-rule="evenodd" d="M111.922 67.4197V85.5686H106.825V82.6157C106.031 84.9714 103.185 85.9999 101.398 85.9999C96.6655 85.9999 94.1835 82.8479 94.2166 77.4066V67.4529H99.313V76.8757C99.313 79.7291 101.034 80.9899 102.755 80.9899C104.575 80.9899 106.825 80.0277 106.825 76.743V67.4529H111.922V67.4197Z" fill="black"/>
<path fill-rule="evenodd" clip-rule="evenodd" d="M114.966 79.7292H119.732C119.732 80.791 120.625 81.9191 122.412 81.9191C123.901 81.9191 125.027 81.2887 125.027 80.2601C125.027 79.4638 124.398 79.0988 123.041 78.7339L120.625 78.1366C115.959 76.909 115.33 74.2879 115.33 72.3635C115.33 69.5765 118.242 66.9553 122.445 66.9553C125.755 66.9553 129.626 68.5811 129.593 72.8612H124.762C124.762 71.6667 123.769 71.0032 122.545 71.0032C121.386 71.0032 120.46 71.6004 120.46 72.5294C120.46 73.3921 121.254 73.8234 122.247 74.0888L125.225 74.8851C129.56 76.0464 130.123 78.767 130.123 80.2601C130.123 84.0757 126.251 85.9337 122.511 85.9337C118.706 85.9337 114.999 83.7439 114.966 79.7292Z" fill="black"/>
<path fill-rule="evenodd" clip-rule="evenodd" d="M133.167 85.5687H138.264V67.4197H133.167V85.5687ZM132.473 61.1489C132.473 59.4236 133.962 58.0964 135.716 58.0964C137.503 58.0964 138.926 59.4236 138.926 61.1489C138.926 62.8742 137.503 64.2346 135.716 64.2346C133.929 64.2014 132.473 62.841 132.473 61.1489Z" fill="black"/>
<path fill-rule="evenodd" clip-rule="evenodd" d="M160.105 75.615V85.5687H155.009V76.1459C155.009 73.2593 153.288 71.9654 151.567 71.9654C149.747 71.9654 147.497 72.9275 147.497 76.2454V85.5356H142.4V67.3867H147.497V70.4391C148.291 67.9839 151.137 66.9553 152.924 66.9553C157.656 66.9885 160.138 70.1737 160.105 75.615Z" fill="black"/>
<path fill-rule="evenodd" clip-rule="evenodd" d="M176.851 74.8188C176.685 72.6621 174.898 71.4013 172.615 71.4013C170.563 71.4013 168.743 72.3635 168.18 74.8188H176.851ZM181.881 78.1367H168.213C168.743 80.227 170.464 81.4214 172.913 81.4214C174.733 81.4214 176.553 80.6915 177.645 79.3975L180.623 82.3836C178.902 84.6729 175.725 85.9337 172.548 85.9337C166.989 85.9337 162.918 82.1182 162.918 76.5109C162.918 70.6382 167.353 66.9885 172.548 66.9885C177.711 66.9885 181.947 70.6382 181.947 76.2123C181.947 76.71 181.914 77.3404 181.881 78.1367Z" fill="black"/>
<path fill-rule="evenodd" clip-rule="evenodd" d="M183.767 79.7292H188.533C188.533 80.791 189.426 81.9191 191.213 81.9191C192.702 81.9191 193.827 81.2887 193.827 80.2601C193.827 79.4638 193.199 79.0988 191.842 78.7339L189.426 78.1366C184.76 76.909 184.131 74.2879 184.131 72.3635C184.131 69.5765 187.043 66.9553 191.246 66.9553C194.556 66.9553 198.427 68.5811 198.394 72.8612H193.53C193.53 71.6667 192.504 71.0032 191.312 71.0032C190.154 71.0032 189.228 71.6004 189.228 72.5294C189.228 73.3921 190.022 73.8234 191.015 74.0888L193.993 74.8851C198.328 76.0464 198.891 78.767 198.891 80.2601C198.891 84.0757 195.019 85.9337 191.279 85.9337C187.507 85.9337 183.8 83.7439 183.767 79.7292Z" fill="black"/>
<path fill-rule="evenodd" clip-rule="evenodd" d="M200.843 79.7292H205.609C205.609 80.791 206.502 81.9191 208.289 81.9191C209.778 81.9191 210.904 81.2887 210.904 80.2601C210.904 79.4638 210.275 79.0988 208.918 78.7339L206.502 78.1366C201.836 76.909 201.207 74.2879 201.207 72.3635C201.207 69.5765 204.12 66.9553 208.322 66.9553C211.632 66.9553 215.504 68.5811 215.471 72.8612H210.606C210.606 71.6667 209.58 71.0032 208.389 71.0032C207.23 71.0032 206.304 71.6004 206.304 72.5294C206.304 73.3921 207.098 73.8234 208.091 74.0888L211.069 74.8851C215.404 76.0464 215.967 78.767 215.967 80.2601C215.967 84.0757 212.095 85.9337 208.355 85.9337C204.583 85.9337 200.876 83.7439 200.843 79.7292Z" fill="black"/>
</g>
<defs>
<clipPath id="clip0_472_473">
<rect width="216" height="86" fill="white"/>
</clipPath>
</defs>
</svg>
