<svg width="191" height="84" viewBox="0 0 191 84" fill="none" xmlns="http://www.w3.org/2000/svg">
<g clip-path="url(#clip0_472_453)">
<path d="M44.8884 59.1767V72.9181H40.3995V39.2295H52.0705C54.9883 39.2295 57.4571 40.116 59.7015 42.1108C61.7215 44.1055 62.8437 46.3218 62.8437 49.2031C62.8437 52.0844 61.7215 54.5224 59.7015 56.2955C57.6816 58.2902 55.2127 59.1767 52.0705 59.1767H44.8884ZM44.8884 43.2189V54.9656H52.295C54.0905 54.9656 55.4371 54.3007 56.5594 53.1926C57.6816 52.0844 58.3549 50.7546 58.3549 48.9815C58.3549 47.43 57.6816 46.1002 56.5594 44.992C55.4371 43.8838 53.866 43.2189 52.295 43.2189H44.8884Z" fill="#777677"/>
<path d="M74.5147 48.9814C77.6569 48.9814 80.3502 49.868 82.1457 51.6411C83.9412 53.4142 85.0635 55.6305 85.0635 58.7334V72.9181H80.7991V69.8152H80.5746C78.7791 72.4748 76.3102 73.8047 73.3925 73.8047C70.9236 73.8047 68.6792 73.1398 66.8837 71.5883C65.0881 70.0368 64.1904 68.2638 64.1904 66.0474C64.1904 63.6094 65.0881 61.8363 66.8837 60.2849C68.6792 58.9551 71.1481 58.0685 74.2902 58.0685C76.9835 58.0685 79.0035 58.5118 80.7991 59.3983V58.5118C80.7991 56.9603 80.1257 55.6305 79.0035 54.744C77.8813 53.6358 76.3102 53.1925 74.7391 53.1925C72.2703 53.1925 70.2503 54.3007 68.9036 56.2954L65.0881 53.6358C67.3326 50.5329 70.4747 48.9814 74.5147 48.9814ZM68.9036 65.8258C68.9036 66.934 69.3525 67.8205 70.2503 68.707C71.1481 69.3719 72.2703 69.8152 73.6169 69.8152C75.4125 69.8152 77.208 69.1503 78.5546 67.8205C79.9013 66.4907 80.7991 64.9392 80.7991 63.1661C79.4524 62.058 77.4324 61.6147 75.188 61.6147C73.3925 61.6147 71.8214 62.058 70.6992 62.9445C69.577 63.3878 68.9036 64.496 68.9036 65.8258Z" fill="#777677"/>
<path d="M90.0012 49.8679H94.2656V53.6357H94.49C95.8366 50.7545 98.53 49.203 102.57 49.203H103.468V53.6357L101.448 53.4141C99.4277 53.4141 97.6322 54.079 96.51 55.1872C95.1633 56.517 94.49 58.0685 94.49 59.8416V72.4748H90.0012V49.8679ZM117.383 73.1397C115.588 73.1397 113.792 72.4748 112.67 71.3666C111.323 70.2584 110.874 68.4853 110.65 66.4906V53.6357H106.61V49.6463H110.65V42.554H115.139V49.6463H120.75V53.6357H115.139V65.1608C115.139 66.7123 115.363 67.8204 116.036 68.2637C116.71 68.707 117.383 69.1503 118.056 69.1503C118.505 69.1503 118.73 69.1503 119.179 68.9286C119.403 68.9286 119.852 68.707 120.076 68.707L121.423 72.4748C120.301 72.9181 118.954 73.1397 117.383 73.1397Z" fill="#777677"/>
<path d="M125.239 49.868H129.503V52.9709H129.727C130.401 51.8627 131.523 50.9762 132.87 50.0896C134.216 49.4247 135.787 48.9814 137.134 48.9814C140.052 48.9814 142.296 49.868 143.643 51.4194C145.214 52.9709 145.887 55.4089 145.887 58.2901V72.6965H141.398V58.5118C141.398 54.744 139.378 52.9709 135.563 52.9709C133.767 52.9709 132.421 53.6358 131.074 54.9656C129.952 56.2954 129.279 58.0685 129.279 60.0632V72.9181H124.79V49.868H125.239Z" fill="#777677"/>
<path d="M161.598 73.583C158.231 73.583 155.314 72.4748 153.069 70.0368C150.825 67.8205 149.703 64.7175 149.703 61.1714C149.703 57.6252 150.825 54.7439 152.845 52.3059C155.089 49.8679 157.783 48.7598 161.149 48.7598C164.516 48.7598 167.434 49.8679 169.454 52.0843C171.474 54.3007 172.596 57.4036 172.596 61.393V61.8363H154.192C154.192 64.0526 155.089 65.8257 156.436 67.3772C158.007 68.707 159.578 69.3719 161.598 69.3719C164.291 69.3719 166.536 68.0421 168.107 65.1608L171.922 66.9339C170.8 68.9286 169.454 70.4801 167.658 71.5883C166.087 73.1397 163.843 73.583 161.598 73.583ZM154.416 58.5117H167.882C167.658 56.9603 166.985 55.6305 165.863 54.5223C164.74 53.4141 163.169 52.9708 161.149 52.9708C159.578 52.9708 158.007 53.4141 156.885 54.5223C155.763 55.4088 154.865 56.7387 154.416 58.5117Z" fill="#777677"/>
<path d="M180.9 72.9182H176.411V49.868H180.676V53.6358H180.9C181.349 52.306 182.247 51.4195 183.593 50.5329C184.94 49.6464 186.287 49.2031 187.633 49.2031C188.98 49.2031 189.878 49.4248 190.776 49.868L189.429 54.0791C188.98 53.8575 188.082 53.8575 186.96 53.8575C185.389 53.8575 183.818 54.5224 182.696 55.8522C181.573 57.182 180.9 58.7335 180.9 60.5066V72.9182Z" fill="#777677"/>
<path d="M50.4994 19.504V22.3852H57.6816C57.4571 24.1583 56.5594 25.7098 55.4371 26.818C54.0905 27.9261 52.5194 28.3694 50.7239 28.3694C48.4794 28.3694 46.6839 27.7045 45.1128 26.1531C43.5417 24.6016 42.8684 22.8285 42.8684 20.6122C42.8684 18.3958 43.5417 16.6227 45.1128 15.0713C46.6839 13.5198 48.4794 12.8549 50.7239 12.8549C52.7438 12.8549 54.5394 13.5198 56.1105 14.8496L58.1304 12.8549C56.1105 10.8602 53.6416 9.97363 50.7239 9.97363C48.7039 9.97363 46.9084 10.4169 45.1128 11.5251C43.3173 12.4116 41.9706 13.7414 41.0729 15.5145C40.1751 17.066 39.5018 18.8391 39.5018 20.8338C39.5018 22.8285 39.9507 24.6016 41.0729 26.1531C41.9706 27.7045 43.3173 29.0343 45.1128 30.1425C46.9084 31.029 48.7039 31.6939 50.7239 31.6939C53.6416 31.6939 56.1105 30.8074 58.1304 29.0343C59.7015 26.5963 60.5993 24.38 60.5993 21.2771C60.5993 20.6122 60.5993 19.9472 60.5993 19.504H50.4994Z" fill="#487CBF"/>
<path d="M68.6792 17.2876C66.6592 17.2876 65.0881 17.9525 63.7415 19.2823C62.3948 20.6121 61.7215 22.1636 61.7215 24.1583C61.7215 26.153 62.3948 27.7045 63.7415 29.0343C65.0881 30.3641 66.6592 31.029 68.6792 31.029C70.6992 31.029 72.2703 30.3641 73.6169 29.0343C74.9636 27.7045 75.6369 26.153 75.6369 24.1583C75.6369 22.1636 74.9636 20.6121 73.6169 19.2823C72.4947 17.9525 70.6992 17.2876 68.6792 17.2876ZM71.5969 27.2612C70.9236 28.1478 69.8014 28.3694 68.9036 28.3694C67.7814 28.3694 66.8837 27.9261 65.9859 27.2612C65.3126 26.3747 64.8637 25.4881 64.8637 24.3799C64.8637 23.0501 65.3126 22.1636 65.9859 21.4987C66.6592 20.6121 67.7814 20.3905 68.9036 20.3905C70.0258 20.3905 70.9236 20.8338 71.8214 21.4987C72.4947 22.1636 72.9436 23.2718 72.9436 24.3799C72.7191 25.4881 72.2703 26.3747 71.5969 27.2612Z" fill="#EF372C"/>
<path d="M111.099 10.417H107.957V30.8075H111.099V10.417Z" fill="#00AC4E"/>
<path d="M84.1657 17.2876C82.1457 17.2876 80.5746 17.9525 79.228 19.2823C77.8813 20.6121 77.208 22.1636 77.208 24.1583C77.208 26.153 77.8813 27.7045 79.228 29.0343C80.5746 30.3641 82.1457 31.029 84.1657 31.029C86.1857 31.029 87.7568 30.3641 89.1034 29.0343C90.4501 27.7045 91.1234 26.153 91.1234 24.1583C91.1234 22.1636 90.4501 20.6121 89.1034 19.2823C87.7568 17.9525 86.1857 17.2876 84.1657 17.2876ZM86.859 27.2612C86.1857 28.1478 85.0635 28.3694 84.1657 28.3694C83.0435 28.3694 82.1457 27.9261 81.248 27.2612C80.5746 26.3747 80.1258 25.4881 80.1258 24.3799C80.1258 23.0501 80.5746 22.1636 81.248 21.4987C81.9213 20.6121 83.0435 20.3905 84.1657 20.3905C85.2879 20.3905 86.1857 20.8338 87.0834 21.4987C87.7568 22.1636 88.2057 23.2718 88.2057 24.3799C87.9812 25.4881 87.7568 26.3747 86.859 27.2612Z" fill="#FDB614"/>
<path d="M119.627 28.3694C118.056 28.3694 116.934 27.7045 116.261 26.3747L125.687 22.6069L125.463 21.7204C125.239 21.0555 124.79 20.3905 124.565 19.9473C124.116 19.504 123.667 18.8391 123.219 18.6175C122.321 18.1742 121.872 17.9525 121.199 17.7309C120.525 17.5093 119.852 17.5093 119.179 17.5093C117.383 17.5093 115.812 18.1742 114.465 19.504C113.119 20.8338 112.67 22.3853 112.67 24.38C112.67 26.3747 113.343 27.9262 114.69 29.256C116.036 30.5858 117.608 31.2507 119.627 31.2507C122.096 31.2507 124.116 30.1425 125.463 28.1478L122.994 26.5963C122.096 27.9262 120.974 28.3694 119.627 28.3694ZM116.71 21.2771C117.383 20.3905 118.281 19.9473 119.403 19.9473C120.076 19.9473 120.525 20.1689 120.974 20.3905C121.423 20.6122 121.872 21.0555 121.872 21.4987L115.588 24.1584C115.588 22.8285 116.036 21.942 116.71 21.2771Z" fill="#EF372C"/>
<path d="M103.019 18.839C102.121 17.7309 100.774 17.2876 99.2033 17.2876C97.4078 17.2876 95.8367 17.9525 94.49 19.2823C93.1434 20.6121 92.47 22.3852 92.47 24.1583C92.47 26.153 93.1434 27.7045 94.49 29.0343C95.8367 30.3641 97.4078 31.029 99.2033 31.029C100.774 31.029 102.121 30.5857 102.794 29.4776V30.1425C102.794 33.0237 101.448 34.5752 98.9788 34.5752C98.0811 34.5752 97.4078 34.3536 96.9589 33.9103C96.2855 33.467 95.8367 32.8021 95.6122 32.1372L92.9189 33.2454C93.1434 33.9103 93.5922 34.3536 94.0411 35.0185C94.49 35.4617 94.9389 35.905 95.3878 36.3483C95.8367 36.7916 96.51 37.0132 97.1833 37.2348C97.8566 37.4565 98.53 37.4565 99.2033 37.4565C101.223 37.4565 103.019 36.7916 104.141 35.6834C105.263 34.3536 105.937 32.5805 105.937 30.3641V17.7309H103.019V18.839ZM102.121 27.2612C101.448 28.1478 100.55 28.3694 99.4277 28.3694C98.3055 28.3694 97.4077 27.9261 96.7344 27.2612C96.0611 26.3747 95.6122 25.4881 95.6122 24.3799C95.6122 23.2718 96.0611 22.1636 96.7344 21.4987C97.4077 20.6121 98.53 20.1689 99.4277 20.1689C100.55 20.1689 101.448 20.6121 102.121 21.277C102.794 22.1636 103.243 23.0501 103.243 24.3799C103.243 25.4881 102.794 26.3747 102.121 27.2612Z" fill="#487CBF"/>
<path d="M22.4442 0H0V84H22.4442V0Z" fill="#487CBF"/>
</g>
<defs>
<clipPath id="clip0_472_453">
<rect width="191" height="84" fill="white"/>
</clipPath>
</defs>
</svg>
