<svg width="299" height="55" viewBox="0 0 299 55" fill="none" xmlns="http://www.w3.org/2000/svg">
<g clip-path="url(#clip0_388_1073)">
<path d="M4.05676 15.3043C6.01489 14.3127 8.21778 13.569 10.4207 12.8253C10.9102 11.09 11.3997 9.60254 11.8893 7.86723C13.3579 4.64451 15.316 1.66969 18.9875 0.678078C19.7218 0.430176 20.4561 0.430176 21.1904 0.430176C24.6171 1.17388 27.3095 3.1571 29.2677 6.37982C31.2258 6.37982 33.1839 6.87562 34.4078 8.61094C35.6316 10.3462 37.5897 9.85045 39.7926 10.0983C41.7507 22.9892 43.7089 35.6322 45.4222 48.771C44.1984 50.5063 42.2403 50.0105 40.5269 50.7542C38.8136 51.498 37.1002 51.7459 35.3868 52.2417C31.4706 53.2333 30.981 52.7375 24.1276 51.498C20.2113 51.0022 16.5398 50.0105 12.8683 49.5147C8.70732 48.771 4.30153 48.0273 0.140503 47.2836C1.36433 36.3759 2.58816 25.9641 4.05676 15.3043ZM7.97302 40.5903C9.44162 42.8214 11.155 43.3172 13.1131 43.5651C16.7846 44.5567 20.2113 43.0693 22.1695 39.8466C23.8828 37.1196 23.3933 32.6574 20.7009 30.1784C19.7218 29.1868 18.0084 28.4431 17.0294 27.2036C16.2951 26.4599 15.5608 25.4683 15.5608 24.7246C15.5608 23.485 16.7846 22.9892 17.7637 22.7413C18.498 22.4934 19.477 22.7413 20.4561 22.7413C21.1904 22.7413 21.6799 22.9892 22.659 22.9892C23.1485 21.006 23.6381 19.0228 24.3724 17.2875C20.2113 15.3043 16.5398 16.5438 13.3579 18.7749C8.95208 21.7497 7.97302 30.4263 13.6026 32.9053C14.0922 33.1532 14.5817 33.649 15.0712 34.3927C16.0503 35.1364 16.2951 36.128 15.8055 37.3675C13.3579 39.3508 11.3997 37.6155 9.19685 36.6238C8.95208 37.8634 8.46255 39.1029 7.97302 40.5903ZM16.5398 11.09C17.5189 7.86723 18.9875 4.64451 21.6799 2.16549C18.7427 1.17388 16.7846 2.66129 15.316 4.39661C14.3369 6.37982 13.3579 8.36303 12.3788 10.3462C12.134 10.8421 12.134 11.5858 12.134 12.5774C13.8474 11.8337 15.0712 11.5858 16.5398 11.09ZM18.0084 10.3462C20.2113 9.60254 22.1695 9.85045 23.6381 8.36303C23.3933 6.87562 24.3724 5.14031 22.4142 3.9008C19.9666 5.14031 18.9875 7.12353 18.0084 10.3462ZM24.6171 3.9008C24.8619 5.38821 25.1066 6.62772 25.3514 8.11513C26.3305 7.86723 27.0648 7.86723 27.5543 7.61933C27.0648 4.64451 27.0648 4.64451 24.6171 3.9008Z" fill="black"/>
<path d="M37.5897 51.4978L34.6525 9.85034H39.7926L44.9327 49.5146L37.5897 51.4978Z" fill="black"/>
<path d="M121.789 43.8131C121.3 46.0442 120.81 48.2753 120.321 50.2585C119.586 53.2333 119.342 53.4812 116.404 53.4812C115.425 53.4812 114.446 53.7291 113.222 52.2417C114.936 42.0777 116.894 31.6659 118.852 21.0061C120.81 21.0061 122.524 21.0061 124.482 21.0061C124.726 21.5019 124.971 21.9977 125.216 22.4935C126.685 21.7498 128.153 21.0061 129.622 20.5103C132.314 19.7666 135.251 20.7582 136.475 23.4851C137.21 24.7246 137.944 26.212 137.944 27.6994C137.944 31.9138 137.21 36.1281 134.272 39.5987C131.09 43.5652 127.174 45.3005 121.789 43.8131ZM124.971 39.5987C128.153 38.6071 129.377 36.376 130.111 33.897C130.601 31.9138 131.58 29.6827 130.356 27.6994C129.622 26.212 128.153 25.4683 126.929 26.7078C125.95 27.6994 124.971 28.9389 124.237 30.1785C123.258 32.4096 122.524 34.8886 122.524 37.3676C122.524 37.8634 122.279 38.1113 122.279 38.6071C123.503 38.855 124.237 39.1029 124.971 39.5987Z" fill="black"/>
<path d="M76.5075 10.8421C78.7104 10.5942 80.6685 10.3463 82.6267 11.09C81.8924 15.3044 81.1581 19.0229 80.4238 23.2372C82.1371 22.2456 83.361 21.0061 85.3191 20.7582C89.4801 20.0145 92.1725 22.2456 92.1725 26.2121C92.1725 27.6995 91.9278 29.4348 91.683 30.9222C90.9487 34.8886 90.2144 38.6071 89.4801 42.3257C89.2353 42.8215 88.9906 43.0694 88.9906 43.8131C87.0324 43.8131 85.0743 43.8131 82.6267 43.8131C83.1162 41.582 83.361 39.3508 83.6057 37.1197C84.0953 34.3928 84.34 31.418 84.5848 28.6911C84.8296 27.6995 84.5848 26.7079 83.6057 26.46C82.6267 25.9641 81.8924 26.7079 81.1581 27.2037C79.6895 28.6911 78.9552 30.1785 78.4656 32.1617C77.7313 36.1281 76.997 39.8467 76.2627 44.061C74.0598 44.061 71.8569 44.061 69.6541 44.061C71.6122 33.6491 73.5703 23.4851 75.5284 13.0733C75.7732 12.0816 76.2627 11.8337 76.5075 10.8421Z" fill="black"/>
<path d="M164.134 54.2248C163.399 52.4895 162.91 51.0021 162.176 49.0189C162.91 48.5231 163.889 48.0273 164.379 47.5315C165.847 46.5399 167.071 45.5483 168.295 44.3087C169.029 43.565 169.274 42.0776 169.029 41.086C168.295 35.8801 167.316 30.922 166.337 25.964C166.092 24.4766 165.847 22.9892 165.602 21.5018C167.805 20.7581 170.008 21.006 172.211 21.006C172.701 25.4682 173.19 29.9304 173.924 35.1364C175.883 29.9304 177.596 25.7161 179.309 21.006C181.512 21.006 183.715 21.006 185.918 21.006C186.163 21.9976 186.163 22.4934 185.918 22.7413C182.736 29.4346 179.554 36.3759 176.127 43.0692C174.659 45.7962 172.945 47.7794 170.987 50.2584C169.274 52.2416 167.071 53.4811 164.134 54.2248Z" fill="black"/>
<path d="M93.6412 34.6407C93.8859 28.939 95.8441 24.2289 101.474 21.7498C103.432 20.7582 105.635 20.2624 108.082 20.7582C112.488 21.7498 115.67 25.2205 115.425 29.6827C115.181 33.1533 114.446 36.8718 111.999 39.8467C109.796 42.5736 106.614 44.061 103.187 44.5568C98.5365 45.0526 93.3964 41.0862 93.8859 36.376C93.8859 35.8802 93.6412 35.1365 93.6412 34.6407ZM101.474 38.8551C103.677 39.8467 104.9 38.6072 106.124 37.1197C108.082 34.1449 108.082 30.9222 107.838 27.6995C107.838 27.2037 107.103 26.46 106.614 26.2121C104.9 25.4684 103.432 26.2121 102.453 27.9474C101.718 29.4348 100.984 30.6743 100.739 32.1617C100.495 34.1449 100.005 36.6239 101.474 38.8551Z" fill="black"/>
<path d="M167.316 11.09C167.071 12.8253 166.581 14.3127 166.337 15.5522C164.868 16.7917 162.91 15.5522 161.931 17.2875C161.197 18.2791 160.462 19.2707 160.707 20.7581C161.931 21.006 162.91 21.006 164.134 21.006C164.868 22.7414 163.889 23.9809 163.644 25.4683C162.176 25.7162 160.952 25.7162 159.483 25.7162C158.504 31.4179 157.28 37.1197 156.057 43.3172C154.098 44.0609 152.14 43.5651 149.693 43.5651C149.203 40.5903 150.672 37.8634 150.916 34.8885C151.161 32.1616 151.895 29.4347 152.385 26.4599C151.651 25.9641 150.916 25.7162 150.182 25.4683C149.937 21.5018 149.937 21.5018 153.364 20.7581C154.343 17.5354 155.077 13.8169 158.749 11.8337C161.197 10.5942 162.42 10.3463 167.316 11.09Z" fill="black"/>
<path d="M54.2338 38.607C56.9262 38.607 59.3739 40.8381 61.5768 38.8549C62.0663 37.1196 61.8215 35.8801 59.8634 34.8885C58.8843 34.3927 57.9053 33.4011 56.9262 32.6574C55.2129 30.9221 54.7233 29.1868 55.4576 26.9556C56.4367 23.7329 58.6396 22.2455 61.8215 21.5018C64.514 20.7581 66.9616 21.2539 69.4093 21.7497C70.3884 23.485 69.1645 24.7245 68.9198 26.2119C66.7169 27.4514 64.2692 24.4766 62.3111 27.2035C62.3111 27.6994 62.3111 28.691 62.3111 29.1868C63.7797 30.1784 65.2483 31.17 66.7169 32.4095C70.1436 35.6322 69.4093 40.5902 65.2483 43.0693C61.332 45.0525 57.171 45.0525 52.7652 42.8214C53.01 42.0777 53.2547 41.334 53.4995 40.5902C53.7443 39.8465 53.989 39.1028 54.2338 38.607Z" fill="black"/>
<path d="M226.06 43.8129C225.57 46.5398 225.325 48.523 225.081 51.0021C224.836 51.9937 224.346 52.9853 223.367 53.2332C222.388 52.7374 222.388 51.7458 222.633 51.0021C224.346 41.8297 226.06 32.4094 228.018 23.2371C228.263 22.4934 228.507 21.9975 229.486 21.2538C229.731 22.2455 229.976 23.2371 230.221 23.9808C231.689 23.2371 233.158 21.9975 234.871 21.2538C239.522 19.5185 242.949 22.2455 242.949 27.2035C243.193 32.1615 241.969 36.3759 238.787 40.0944C235.85 43.3171 232.424 45.3003 228.018 43.8129C227.528 43.8129 226.794 43.8129 226.06 43.8129ZM226.794 41.086C230.71 43.3171 234.382 42.5734 236.829 39.1028C238.053 37.3675 239.277 35.1363 239.767 33.1531C240.501 30.922 241.235 28.6909 240.011 26.2119C238.787 23.2371 236.095 21.9975 233.647 23.9808C230.955 25.964 229.242 28.443 228.507 31.6657C227.773 34.6405 227.283 37.8633 226.794 41.086Z" fill="black"/>
<path d="M144.308 43.8131C142.105 43.8131 140.147 43.8131 138.433 43.8131C137.454 41.582 138.678 39.3509 138.923 37.1198C139.657 32.1617 140.636 27.4516 141.615 22.4936C141.615 22.2457 142.105 21.9978 142.105 21.7499C145.287 21.0061 146.511 21.0061 148.714 21.9978C147.245 29.1869 145.776 36.3761 144.308 43.8131Z" fill="black"/>
<path d="M257.634 42.3256C255.432 44.5567 252.494 45.0525 249.557 44.0609C246.62 43.0693 245.151 40.5903 244.907 37.6155C244.417 31.6658 246.865 26.4599 251.515 22.4935C253.473 20.7581 255.921 20.7581 258.369 21.5019C261.795 22.4935 262.285 26.9557 260.327 29.4347C258.614 31.6658 256.166 32.4095 253.473 32.9053C252.494 33.1532 251.76 32.9053 250.781 33.1532C249.802 33.4011 248.823 33.649 247.599 33.8969C247.599 35.3844 247.354 36.6239 247.599 37.8634C247.844 41.334 250.781 43.3172 253.963 42.5735C256.166 41.5819 256.166 41.5819 257.634 42.3256ZM248.089 31.17C251.026 31.6658 253.473 30.9221 255.921 29.9305C258.124 28.9389 258.858 27.2036 258.369 24.9725C258.124 24.4767 257.634 23.4851 257.39 23.4851C255.921 22.9893 254.208 22.7414 252.984 23.9809C250.536 25.7162 248.823 27.6994 248.089 31.17Z" fill="black"/>
<path d="M193.016 33.1531C193.016 34.8885 193.016 36.128 193.016 37.3675C193.261 40.5902 196.198 43.0692 199.625 42.0776C200.359 41.8297 201.338 41.3339 202.317 41.3339C202.807 41.086 203.296 41.5818 203.786 41.8297C199.135 46.5398 192.527 44.3087 191.058 40.0944C189.589 36.6238 190.324 33.1531 191.548 29.6825C192.282 26.9556 193.995 24.9724 195.953 22.9892C197.667 21.2539 199.38 20.7581 201.828 20.7581C206.723 20.7581 207.702 25.7161 205.989 28.6909C204.275 31.4178 201.583 32.4094 198.401 32.6573C196.688 32.9052 195.219 32.9052 193.016 33.1531ZM193.506 31.4178C194.974 31.4178 195.709 31.6657 196.688 31.4178C198.891 30.922 201.093 30.922 203.052 29.4346C205.254 27.6993 205.01 24.9724 202.562 23.485C202.073 23.2371 201.828 22.9892 201.093 22.9892C197.177 23.7329 194.974 26.7077 193.506 31.4178Z" fill="black"/>
<path d="M204.765 43.8131C207.457 40.3424 209.905 37.3676 212.353 34.3928C213.821 32.9054 213.577 31.6659 212.842 30.1785C211.618 27.4516 210.639 24.7246 209.66 22.2456C210.395 21.254 211.129 21.254 211.618 21.9977C212.108 22.7414 212.353 23.733 212.842 24.4767C213.577 26.212 214.556 28.1953 215.535 30.4264C216.514 29.1869 217.248 28.1953 217.982 27.2036C219.206 25.4683 220.43 23.9809 221.899 22.4935C222.388 21.9977 223.367 21.7498 224.591 21.0061C224.346 24.2288 221.899 25.2204 220.92 27.4515C219.941 29.4348 217.982 30.9222 216.759 32.9054C218.227 36.6239 219.696 40.3424 221.164 44.3089C220.43 44.3089 219.696 44.5568 218.961 44.5568C217.738 41.582 216.514 38.855 215.045 35.3844C212.598 38.6071 210.395 41.3341 207.947 44.5568C206.723 43.8131 205.989 43.8131 204.765 43.8131Z" fill="black"/>
<path d="M299 22.9892C297.531 22.9892 296.307 22.9892 295.084 22.9892C291.902 22.9892 289.943 25.964 291.657 28.691C292.146 29.6826 293.37 30.4263 294.105 31.4179C296.063 33.1532 297.531 34.8885 297.286 37.8633C296.797 43.0693 292.146 44.8046 288.72 44.0609C287.741 43.813 286.027 43.813 285.782 42.0777C286.272 41.8298 287.006 41.5819 287.496 41.8298C288.23 42.0777 288.964 42.3256 289.699 42.3256C291.412 42.5735 293.615 41.334 294.349 40.0944C295.084 38.607 294.594 35.3843 293.615 34.3927C292.881 33.649 291.902 33.1532 291.167 32.6574C287.985 29.9305 287.741 26.7077 290.188 23.485C291.167 22.2455 292.391 21.5018 294.105 21.5018C295.818 21.006 297.531 20.7581 299 22.9892Z" fill="black"/>
<path d="M282.356 21.0061C283.824 21.254 285.293 21.254 286.762 21.254C287.006 21.7498 287.006 22.2456 287.251 22.9893C285.293 22.9893 283.824 22.9893 281.866 22.9893C280.887 29.4348 278.929 35.1365 278.929 41.8299C280.398 42.3257 281.132 42.5736 282.356 42.8215C281.866 44.5568 280.887 44.5568 279.663 44.5568C277.95 44.3089 276.726 43.3173 276.726 42.0778C276.481 40.3425 276.481 38.3593 276.971 36.6239C277.705 32.1617 278.684 27.9474 279.419 23.4851C278.44 23.2372 277.461 23.2372 276.481 22.9893C276.971 21.0061 278.44 21.254 279.908 21.0061C280.887 19.7666 279.419 16.5439 283.09 17.0397C282.601 18.5271 282.601 19.7666 282.356 21.0061Z" fill="black"/>
<path d="M267.18 21.2539C267.425 22.4934 267.67 23.2371 267.915 24.4766C269.628 22.4934 271.341 20.5102 274.523 21.7497C274.034 22.4934 273.544 23.2371 273.055 23.485C269.138 23.9808 268.159 27.2036 266.691 30.1784C265.956 31.9137 265.712 33.8969 265.222 35.6322C264.733 38.3591 264.243 41.0861 263.754 44.0609C262.775 44.0609 262.04 44.0609 261.061 44.0609C261.551 41.0861 262.285 38.607 262.775 35.8801C263.509 31.9137 263.998 28.1952 264.488 24.4766C265.467 22.7413 265.712 21.9976 267.18 21.2539Z" fill="black"/>
<path d="M149.693 14.8084C149.693 17.0395 148.469 18.279 146.266 18.5269C144.553 18.5269 142.839 17.0395 142.839 15.5521C142.594 13.5689 144.797 11.5857 147 11.5857C148.958 11.5857 149.693 12.3294 149.693 14.8084Z" fill="black"/>
</g>
<defs>
<clipPath id="clip0_388_1073">
<rect width="298.859" height="53.7947" fill="white" transform="translate(0.140503 0.430176)"/>
</clipPath>
</defs>
</svg>
