<svg width="1920" height="71" viewBox="0 0 1920 71" fill="none" xmlns="http://www.w3.org/2000/svg">
<rect x="-42" width="1991" height="71" rx="35.5" fill="#C4FF02"/>
<path d="M129.394 55.63C140.393 55.63 149.311 46.7585 149.311 35.815C149.311 24.8715 140.393 16 129.394 16C118.394 16 109.476 24.8715 109.476 35.815C109.476 46.7585 118.394 55.63 129.394 55.63Z" fill="#F8F7FF"/>
<path fill-rule="evenodd" clip-rule="evenodd" d="M131.488 24.1121L143.347 42.1625C144.559 43.8513 143.103 45.8244 141.438 45.8244H117.627C116.812 45.8244 116.012 45.3921 115.586 44.6186C115.155 43.8337 115.226 42.9113 115.681 42.2182C115.681 42.2178 115.681 42.2174 115.682 42.217L127.577 24.1121C128.075 23.3385 128.885 23.0474 129.532 23.0474C130.18 23.0474 130.99 23.3385 131.488 24.1121ZM131.441 26.6583L131.463 26.6238C131.456 26.6354 131.448 26.6469 131.441 26.6583ZM127.602 26.6238L127.624 26.6583C127.617 26.6469 127.609 26.6354 127.602 26.6238ZM129.532 29.5626L137.177 41.1973H121.888L129.532 29.5626ZM139.538 44.7919C139.52 44.7653 139.503 44.7386 139.486 44.7117L139.538 44.7919Z" fill="#131313"/>
<path d="M46.4165 36.873L45.7765 40.8478H60.2449V45.9268H39L40.7369 34.5894L39 23.252H60.0926V28.3309H45.7765L46.4165 32.3075H59.2096V36.873H46.4165Z" fill="#131313"/>
<path d="M84.9742 27.6864L71.3984 40.9797H85.065V45.9269H63.0029V41.375L76.5788 28.0816H63.0937V23.1499H84.9725V27.6864H84.9742Z" fill="#131313"/>
<path d="M113.255 36.3742C113.031 38.3535 112.342 40.0939 111.187 41.5954C110.031 43.0969 108.505 44.2622 106.607 45.0915C104.709 45.9207 102.566 46.3354 100.171 46.3354C97.5433 46.3354 95.2269 45.8439 93.2183 44.8594C91.2096 43.8749 89.6557 42.4911 88.5548 40.7081C87.4538 38.9251 86.9034 36.869 86.9034 34.5383C86.9034 32.2075 87.4538 30.1515 88.5548 28.3685C89.6557 26.5854 91.2096 25.2016 93.2183 24.2171C95.2269 23.2326 97.545 22.7412 100.171 22.7412C102.564 22.7412 104.709 23.1558 106.607 23.9851C108.503 24.8143 110.031 25.9797 111.187 27.4812C112.342 28.9827 113.033 30.7231 113.255 32.7023H106.911C106.607 31.2759 105.872 30.1617 104.704 29.3581C103.538 28.5544 102.022 28.1535 100.155 28.1535C98.7451 28.1535 97.5262 28.4128 96.4971 28.9298C95.468 29.4468 94.6765 30.1856 94.1243 31.1445C93.5721 32.1034 93.2952 33.2364 93.2952 34.5417C93.2952 35.847 93.5721 36.9799 94.1243 37.9389C94.6765 38.8978 95.468 39.6366 96.4971 40.1536C97.5262 40.6706 98.7468 40.9299 100.155 40.9299C102.043 40.9299 103.566 40.5409 104.727 39.7628C105.887 38.9848 106.616 37.857 106.91 36.3793H113.254L113.255 36.3742Z" fill="#131313"/>
<path d="M289.704 55.63C300.704 55.63 309.621 46.7585 309.621 35.815C309.621 24.8715 300.704 16 289.704 16C278.704 16 269.787 24.8715 269.787 35.815C269.787 46.7585 278.704 55.63 289.704 55.63Z" fill="#F8F7FF"/>
<path fill-rule="evenodd" clip-rule="evenodd" d="M291.799 24.1121L303.658 42.1625C304.87 43.8513 303.414 45.8244 301.749 45.8244H277.937C277.123 45.8244 276.323 45.3921 275.897 44.6186C275.465 43.8337 275.536 42.9113 275.992 42.2182C275.992 42.2178 275.992 42.2174 275.993 42.217L287.888 24.1121C288.385 23.3385 289.196 23.0474 289.843 23.0474C290.491 23.0474 291.301 23.3385 291.799 24.1121ZM291.751 26.6583L291.774 26.6238C291.767 26.6354 291.759 26.6469 291.751 26.6583ZM287.912 26.6238L287.935 26.6583C287.928 26.6469 287.92 26.6354 287.912 26.6238ZM289.843 29.5626L297.487 41.1973H282.199L289.843 29.5626ZM299.849 44.7919C299.831 44.7653 299.813 44.7386 299.797 44.7117L299.849 44.7919Z" fill="#131313"/>
<path d="M206.727 36.873L206.087 40.8478H220.556V45.9268H199.311L201.048 34.5894L199.311 23.252H220.404V28.3309H206.087L206.727 32.3075H219.521V36.873H206.727Z" fill="#131313"/>
<path d="M245.285 27.6864L231.709 40.9797H245.376V45.9269H223.314V41.375L236.89 28.0816H223.405V23.1499H245.283V27.6864H245.285Z" fill="#131313"/>
<path d="M273.566 36.3742C273.342 38.3535 272.653 40.0939 271.498 41.5954C270.342 43.0969 268.815 44.2622 266.918 45.0915C265.02 45.9207 262.877 46.3354 260.482 46.3354C257.854 46.3354 255.538 45.8439 253.529 44.8594C251.521 43.8749 249.967 42.4911 248.866 40.7081C247.765 38.9251 247.214 36.869 247.214 34.5383C247.214 32.2075 247.765 30.1515 248.866 28.3685C249.967 26.5854 251.521 25.2016 253.529 24.2171C255.538 23.2326 257.856 22.7412 260.482 22.7412C262.875 22.7412 265.02 23.1558 266.918 23.9851C268.814 24.8143 270.342 25.9797 271.498 27.4812C272.653 28.9827 273.344 30.7231 273.566 32.7023H267.222C266.918 31.2759 266.183 30.1617 265.015 29.3581C263.849 28.5544 262.333 28.1535 260.466 28.1535C259.056 28.1535 257.837 28.4128 256.808 28.9298C255.779 29.4468 254.987 30.1856 254.435 31.1445C253.883 32.1034 253.606 33.2364 253.606 34.5417C253.606 35.847 253.883 36.9799 254.435 37.9389C254.987 38.8978 255.779 39.6366 256.808 40.1536C257.837 40.6706 259.058 40.9299 260.466 40.9299C262.354 40.9299 263.877 40.5409 265.038 39.7628C266.198 38.9848 266.926 37.857 267.221 36.3793H273.564L273.566 36.3742Z" fill="#131313"/>
<path d="M450.015 55.63C461.015 55.63 469.932 46.7585 469.932 35.815C469.932 24.8715 461.015 16 450.015 16C439.015 16 430.098 24.8715 430.098 35.815C430.098 46.7585 439.015 55.63 450.015 55.63Z" fill="#F8F7FF"/>
<path fill-rule="evenodd" clip-rule="evenodd" d="M452.109 24.1121L463.969 42.1625C465.181 43.8513 463.724 45.8244 462.06 45.8244H438.248C437.433 45.8244 436.633 45.3921 436.208 44.6186C435.776 43.8337 435.847 42.9113 436.302 42.2182C436.302 42.2178 436.303 42.2174 436.303 42.217L448.198 24.1121C448.696 23.3385 449.506 23.0474 450.154 23.0474C450.801 23.0474 451.612 23.3385 452.109 24.1121ZM452.062 26.6583L452.085 26.6238C452.077 26.6354 452.07 26.6469 452.062 26.6583ZM448.223 26.6238L448.246 26.6583C448.238 26.6469 448.23 26.6354 448.223 26.6238ZM450.154 29.5626L457.798 41.1973H442.51L450.154 29.5626ZM460.16 44.7919C460.141 44.7653 460.124 44.7386 460.107 44.7117L460.16 44.7919Z" fill="#131313"/>
<path d="M367.038 36.873L366.398 40.8478H380.866V45.9268H359.621L361.358 34.5894L359.621 23.252H380.714V28.3309H366.398L367.038 32.3075H379.831V36.873H367.038Z" fill="#131313"/>
<path d="M405.596 27.6864L392.02 40.9797H405.686V45.9269H383.624V41.375L397.2 28.0816H383.715V23.1499H405.594V27.6864H405.596Z" fill="#131313"/>
<path d="M433.877 36.3742C433.653 38.3535 432.964 40.0939 431.808 41.5954C430.653 43.0969 429.126 44.2622 427.228 45.0915C425.331 45.9207 423.187 46.3354 420.792 46.3354C418.165 46.3354 415.848 45.8439 413.84 44.8594C411.831 43.8749 410.277 42.4911 409.176 40.7081C408.075 38.9251 407.525 36.869 407.525 34.5383C407.525 32.2075 408.075 30.1515 409.176 28.3685C410.277 26.5854 411.831 25.2016 413.84 24.2171C415.848 23.2326 418.166 22.7412 420.792 22.7412C423.185 22.7412 425.331 23.1558 427.228 23.9851C429.124 24.8143 430.653 25.9797 431.808 27.4812C432.964 28.9827 433.654 30.7231 433.877 32.7023H427.533C427.228 31.2759 426.493 30.1617 425.326 29.3581C424.16 28.5544 422.644 28.1535 420.777 28.1535C419.366 28.1535 418.148 28.4128 417.118 28.9298C416.089 29.4468 415.298 30.1856 414.746 31.1445C414.193 32.1034 413.917 33.2364 413.917 34.5417C413.917 35.847 414.193 36.9799 414.746 37.9389C415.298 38.8978 416.089 39.6366 417.118 40.1536C418.148 40.6706 419.368 40.9299 420.777 40.9299C422.664 40.9299 424.187 40.5409 425.348 39.7628C426.509 38.9848 427.237 37.857 427.531 36.3793H433.875L433.877 36.3742Z" fill="#131313"/>
<path d="M610.325 55.63C621.325 55.63 630.242 46.7585 630.242 35.815C630.242 24.8715 621.325 16 610.325 16C599.325 16 590.408 24.8715 590.408 35.815C590.408 46.7585 599.325 55.63 610.325 55.63Z" fill="#F8F7FF"/>
<path fill-rule="evenodd" clip-rule="evenodd" d="M612.42 24.1121L624.279 42.1625C625.491 43.8513 624.035 45.8244 622.37 45.8244H598.558C597.744 45.8244 596.944 45.3921 596.518 44.6186C596.086 43.8337 596.157 42.9113 596.613 42.2182C596.613 42.2178 596.613 42.2174 596.614 42.217L608.509 24.1121C609.006 23.3385 609.817 23.0474 610.464 23.0474C611.112 23.0474 611.922 23.3385 612.42 24.1121ZM612.372 26.6583L612.395 26.6238C612.388 26.6354 612.38 26.6469 612.372 26.6583ZM608.533 26.6238L608.556 26.6583C608.549 26.6469 608.541 26.6354 608.533 26.6238ZM610.464 29.5626L618.108 41.1973H602.82L610.464 29.5626ZM620.47 44.7919C620.452 44.7653 620.434 44.7386 620.418 44.7117L620.47 44.7919Z" fill="#131313"/>
<path d="M527.348 36.873L526.708 40.8478H541.177V45.9268H519.932L521.669 34.5894L519.932 23.252H541.025V28.3309H526.708L527.348 32.3075H540.142V36.873H527.348Z" fill="#131313"/>
<path d="M565.906 27.6864L552.33 40.9797H565.997V45.9269H543.935V41.375L557.511 28.0816H544.026V23.1499H565.904V27.6864H565.906Z" fill="#131313"/>
<path d="M594.187 36.3742C593.963 38.3535 593.274 40.0939 592.119 41.5954C590.963 43.0969 589.436 44.2622 587.539 45.0915C585.641 45.9207 583.498 46.3354 581.103 46.3354C578.475 46.3354 576.159 45.8439 574.15 44.8594C572.142 43.8749 570.588 42.4911 569.487 40.7081C568.386 38.9251 567.835 36.869 567.835 34.5383C567.835 32.2075 568.386 30.1515 569.487 28.3685C570.588 26.5854 572.142 25.2016 574.15 24.2171C576.159 23.2326 578.477 22.7412 581.103 22.7412C583.496 22.7412 585.641 23.1558 587.539 23.9851C589.435 24.8143 590.963 25.9797 592.119 27.4812C593.274 28.9827 593.965 30.7231 594.187 32.7023H587.843C587.539 31.2759 586.804 30.1617 585.636 29.3581C584.47 28.5544 582.954 28.1535 581.087 28.1535C579.677 28.1535 578.458 28.4128 577.429 28.9298C576.4 29.4468 575.608 30.1856 575.056 31.1445C574.504 32.1034 574.227 33.2364 574.227 34.5417C574.227 35.847 574.504 36.9799 575.056 37.9389C575.608 38.8978 576.4 39.6366 577.429 40.1536C578.458 40.6706 579.679 40.9299 581.087 40.9299C582.975 40.9299 584.498 40.5409 585.659 39.7628C586.819 38.9848 587.548 37.857 587.842 36.3793H594.185L594.187 36.3742Z" fill="#131313"/>
<path d="M770.393 55.63C781.393 55.63 790.311 46.7585 790.311 35.815C790.311 24.8715 781.393 16 770.393 16C759.393 16 750.476 24.8715 750.476 35.815C750.476 46.7585 759.393 55.63 770.393 55.63Z" fill="#F8F7FF"/>
<path fill-rule="evenodd" clip-rule="evenodd" d="M772.488 24.1121L784.347 42.1625C785.559 43.8513 784.103 45.8244 782.438 45.8244H758.627C757.812 45.8244 757.012 45.3921 756.586 44.6186C756.155 43.8337 756.226 42.9113 756.681 42.2182C756.681 42.2178 756.681 42.2174 756.682 42.217L768.577 24.1121C769.075 23.3385 769.885 23.0474 770.532 23.0474C771.18 23.0474 771.99 23.3385 772.488 24.1121ZM772.441 26.6583L772.463 26.6238C772.456 26.6354 772.448 26.6469 772.441 26.6583ZM768.602 26.6238L768.624 26.6583C768.617 26.6469 768.609 26.6354 768.602 26.6238ZM770.532 29.5626L778.177 41.1973H762.888L770.532 29.5626ZM780.538 44.7919C780.52 44.7653 780.503 44.7386 780.486 44.7117L780.538 44.7919Z" fill="#131313"/>
<path d="M687.416 36.873L686.776 40.8478H701.245V45.9268H680L681.737 34.5894L680 23.252H701.093V28.3309H686.776L687.416 32.3075H700.21V36.873H687.416Z" fill="#131313"/>
<path d="M725.974 27.6864L712.398 40.9797H726.065V45.9269H704.003V41.375L717.579 28.0816H704.094V23.1499H725.973V27.6864H725.974Z" fill="#131313"/>
<path d="M754.255 36.3742C754.031 38.3535 753.342 40.0939 752.187 41.5954C751.031 43.0969 749.505 44.2622 747.607 45.0915C745.71 45.9207 743.566 46.3354 741.171 46.3354C738.543 46.3354 736.227 45.8439 734.218 44.8594C732.21 43.8749 730.656 42.4911 729.555 40.7081C728.454 38.9251 727.903 36.869 727.903 34.5383C727.903 32.2075 728.454 30.1515 729.555 28.3685C730.656 26.5854 732.21 25.2016 734.218 24.2171C736.227 23.2326 738.545 22.7412 741.171 22.7412C743.564 22.7412 745.71 23.1558 747.607 23.9851C749.503 24.8143 751.031 25.9797 752.187 27.4812C753.342 28.9827 754.033 30.7231 754.255 32.7023H747.911C747.607 31.2759 746.872 30.1617 745.704 29.3581C744.539 28.5544 743.022 28.1535 741.155 28.1535C739.745 28.1535 738.526 28.4128 737.497 28.9298C736.468 29.4468 735.676 30.1856 735.124 31.1445C734.572 32.1034 734.295 33.2364 734.295 34.5417C734.295 35.847 734.572 36.9799 735.124 37.9389C735.676 38.8978 736.468 39.6366 737.497 40.1536C738.526 40.6706 739.747 40.9299 741.155 40.9299C743.043 40.9299 744.566 40.5409 745.727 39.7628C746.887 38.9848 747.616 37.857 747.91 36.3793H754.254L754.255 36.3742Z" fill="#131313"/>
<path d="M930.462 55.63C941.461 55.63 950.379 46.7585 950.379 35.815C950.379 24.8715 941.461 16 930.462 16C919.462 16 910.544 24.8715 910.544 35.815C910.544 46.7585 919.462 55.63 930.462 55.63Z" fill="#F8F7FF"/>
<path fill-rule="evenodd" clip-rule="evenodd" d="M932.556 24.1121L944.415 42.1625C945.627 43.8513 944.171 45.8244 942.506 45.8244H918.695C917.88 45.8244 917.08 45.3921 916.654 44.6186C916.223 43.8337 916.294 42.9113 916.749 42.2182C916.749 42.2178 916.75 42.2174 916.75 42.217L928.645 24.1121C929.143 23.3385 929.953 23.0474 930.601 23.0474C931.248 23.0474 932.058 23.3385 932.556 24.1121ZM932.509 26.6583L932.531 26.6238C932.524 26.6354 932.516 26.6469 932.509 26.6583ZM928.67 26.6238L928.692 26.6583C928.685 26.6469 928.677 26.6354 928.67 26.6238ZM930.601 29.5626L938.245 41.1973H922.956L930.601 29.5626ZM940.606 44.7919C940.588 44.7653 940.571 44.7386 940.554 44.7117L940.606 44.7919Z" fill="#131313"/>
<path d="M847.485 36.873L846.845 40.8478H861.313V45.9268H840.068L841.805 34.5894L840.068 23.252H861.161V28.3309H846.845L847.485 32.3075H860.278V36.873H847.485Z" fill="#131313"/>
<path d="M886.042 27.6864L872.467 40.9797H886.133V45.9269H864.071V41.375L877.647 28.0816H864.162V23.1499H886.041V27.6864H886.042Z" fill="#131313"/>
<path d="M914.323 36.3742C914.099 38.3535 913.411 40.0939 912.255 41.5954C911.099 43.0969 909.573 44.2622 907.675 45.0915C905.778 45.9207 903.634 46.3354 901.239 46.3354C898.611 46.3354 896.295 45.8439 894.286 44.8594C892.278 43.8749 890.724 42.4911 889.623 40.7081C888.522 38.9251 887.972 36.869 887.972 34.5383C887.972 32.2075 888.522 30.1515 889.623 28.3685C890.724 26.5854 892.278 25.2016 894.286 24.2171C896.295 23.2326 898.613 22.7412 901.239 22.7412C903.632 22.7412 905.778 23.1558 907.675 23.9851C909.571 24.8143 911.099 25.9797 912.255 27.4812C913.411 28.9827 914.101 30.7231 914.323 32.7023H907.979C907.675 31.2759 906.94 30.1617 905.773 29.3581C904.607 28.5544 903.09 28.1535 901.224 28.1535C899.813 28.1535 898.594 28.4128 897.565 28.9298C896.536 29.4468 895.745 30.1856 895.192 31.1445C894.64 32.1034 894.363 33.2364 894.363 34.5417C894.363 35.847 894.64 36.9799 895.192 37.9389C895.745 38.8978 896.536 39.6366 897.565 40.1536C898.594 40.6706 899.815 40.9299 901.224 40.9299C903.111 40.9299 904.634 40.5409 905.795 39.7628C906.955 38.9848 907.684 37.857 907.978 36.3793H914.322L914.323 36.3742Z" fill="#131313"/>
<path d="M1090.53 55.63C1101.53 55.63 1110.45 46.7585 1110.45 35.815C1110.45 24.8715 1101.53 16 1090.53 16C1079.53 16 1070.61 24.8715 1070.61 35.815C1070.61 46.7585 1079.53 55.63 1090.53 55.63Z" fill="#F8F7FF"/>
<path fill-rule="evenodd" clip-rule="evenodd" d="M1092.62 24.1121L1104.48 42.1625C1105.7 43.8513 1104.24 45.8244 1102.57 45.8244H1078.76C1077.95 45.8244 1077.15 45.3921 1076.72 44.6186C1076.29 43.8337 1076.36 42.9113 1076.82 42.2182C1076.82 42.2178 1076.82 42.2174 1076.82 42.217L1088.71 24.1121C1089.21 23.3385 1090.02 23.0474 1090.67 23.0474C1091.32 23.0474 1092.13 23.3385 1092.62 24.1121ZM1092.58 26.6583L1092.6 26.6238C1092.59 26.6354 1092.58 26.6469 1092.58 26.6583ZM1088.74 26.6238L1088.76 26.6583C1088.75 26.6469 1088.75 26.6354 1088.74 26.6238ZM1090.67 29.5626L1098.31 41.1973H1083.02L1090.67 29.5626ZM1100.67 44.7919C1100.66 44.7653 1100.64 44.7386 1100.62 44.7117L1100.67 44.7919Z" fill="#131313"/>
<path d="M1007.55 36.873L1006.91 40.8478H1021.38V45.9268H1000.14L1001.87 34.5894L1000.14 23.252H1021.23V28.3309H1006.91L1007.55 32.3075H1020.35V36.873H1007.55Z" fill="#131313"/>
<path d="M1046.11 27.6864L1032.53 40.9797H1046.2V45.9269H1024.14V41.375L1037.72 28.0816H1024.23V23.1499H1046.11V27.6864H1046.11Z" fill="#131313"/>
<path d="M1074.39 36.3742C1074.17 38.3535 1073.48 40.0939 1072.32 41.5954C1071.17 43.0969 1069.64 44.2622 1067.74 45.0915C1065.85 45.9207 1063.7 46.3354 1061.31 46.3354C1058.68 46.3354 1056.36 45.8439 1054.35 44.8594C1052.35 43.8749 1050.79 42.4911 1049.69 40.7081C1048.59 38.9251 1048.04 36.869 1048.04 34.5383C1048.04 32.2075 1048.59 30.1515 1049.69 28.3685C1050.79 26.5854 1052.35 25.2016 1054.35 24.2171C1056.36 23.2326 1058.68 22.7412 1061.31 22.7412C1063.7 22.7412 1065.85 23.1558 1067.74 23.9851C1069.64 24.8143 1071.17 25.9797 1072.32 27.4812C1073.48 28.9827 1074.17 30.7231 1074.39 32.7023H1068.05C1067.74 31.2759 1067.01 30.1617 1065.84 29.3581C1064.67 28.5544 1063.16 28.1535 1061.29 28.1535C1059.88 28.1535 1058.66 28.4128 1057.63 28.9298C1056.6 29.4468 1055.81 30.1856 1055.26 31.1445C1054.71 32.1034 1054.43 33.2364 1054.43 34.5417C1054.43 35.847 1054.71 36.9799 1055.26 37.9389C1055.81 38.8978 1056.6 39.6366 1057.63 40.1536C1058.66 40.6706 1059.88 40.9299 1061.29 40.9299C1063.18 40.9299 1064.7 40.5409 1065.86 39.7628C1067.02 38.9848 1067.75 37.857 1068.05 36.3793H1074.39L1074.39 36.3742Z" fill="#131313"/>
<path d="M1250.6 55.63C1261.6 55.63 1270.51 46.7585 1270.51 35.815C1270.51 24.8715 1261.6 16 1250.6 16C1239.6 16 1230.68 24.8715 1230.68 35.815C1230.68 46.7585 1239.6 55.63 1250.6 55.63Z" fill="#F8F7FF"/>
<path fill-rule="evenodd" clip-rule="evenodd" d="M1252.69 24.1121L1264.55 42.1625C1265.76 43.8513 1264.31 45.8244 1262.64 45.8244H1238.83C1238.02 45.8244 1237.22 45.3921 1236.79 44.6186C1236.36 43.8337 1236.43 42.9113 1236.89 42.2182C1236.89 42.2178 1236.89 42.2174 1236.89 42.217L1248.78 24.1121C1249.28 23.3385 1250.09 23.0474 1250.74 23.0474C1251.38 23.0474 1252.19 23.3385 1252.69 24.1121ZM1252.64 26.6583L1252.67 26.6238C1252.66 26.6354 1252.65 26.6469 1252.64 26.6583ZM1248.81 26.6238L1248.83 26.6583C1248.82 26.6469 1248.81 26.6354 1248.81 26.6238ZM1250.74 29.5626L1258.38 41.1973H1243.09L1250.74 29.5626ZM1260.74 44.7919C1260.72 44.7653 1260.71 44.7386 1260.69 44.7117L1260.74 44.7919Z" fill="#131313"/>
<path d="M1167.62 36.873L1166.98 40.8478H1181.45V45.9268H1160.2L1161.94 34.5894L1160.2 23.252H1181.3V28.3309H1166.98L1167.62 32.3075H1180.41V36.873H1167.62Z" fill="#131313"/>
<path d="M1206.18 27.6864L1192.6 40.9797H1206.27V45.9269H1184.21V41.375L1197.78 28.0816H1184.3V23.1499H1206.18V27.6864H1206.18Z" fill="#131313"/>
<path d="M1234.46 36.3742C1234.24 38.3535 1233.55 40.0939 1232.39 41.5954C1231.24 43.0969 1229.71 44.2622 1227.81 45.0915C1225.91 45.9207 1223.77 46.3354 1221.38 46.3354C1218.75 46.3354 1216.43 45.8439 1214.42 44.8594C1212.41 43.8749 1210.86 42.4911 1209.76 40.7081C1208.66 38.9251 1208.11 36.869 1208.11 34.5383C1208.11 32.2075 1208.66 30.1515 1209.76 28.3685C1210.86 26.5854 1212.41 25.2016 1214.42 24.2171C1216.43 23.2326 1218.75 22.7412 1221.38 22.7412C1223.77 22.7412 1225.91 23.1558 1227.81 23.9851C1229.71 24.8143 1231.24 25.9797 1232.39 27.4812C1233.55 28.9827 1234.24 30.7231 1234.46 32.7023H1228.12C1227.81 31.2759 1227.08 30.1617 1225.91 29.3581C1224.74 28.5544 1223.23 28.1535 1221.36 28.1535C1219.95 28.1535 1218.73 28.4128 1217.7 28.9298C1216.67 29.4468 1215.88 30.1856 1215.33 31.1445C1214.78 32.1034 1214.5 33.2364 1214.5 34.5417C1214.5 35.847 1214.78 36.9799 1215.33 37.9389C1215.88 38.8978 1216.67 39.6366 1217.7 40.1536C1218.73 40.6706 1219.95 40.9299 1221.36 40.9299C1223.25 40.9299 1224.77 40.5409 1225.93 39.7628C1227.09 38.9848 1227.82 37.857 1228.11 36.3793H1234.46L1234.46 36.3742Z" fill="#131313"/>
<path d="M1410.67 55.63C1421.67 55.63 1430.58 46.7585 1430.58 35.815C1430.58 24.8715 1421.67 16 1410.67 16C1399.67 16 1390.75 24.8715 1390.75 35.815C1390.75 46.7585 1399.67 55.63 1410.67 55.63Z" fill="#F8F7FF"/>
<path fill-rule="evenodd" clip-rule="evenodd" d="M1412.76 24.1121L1424.62 42.1625C1425.83 43.8513 1424.38 45.8244 1422.71 45.8244H1398.9C1398.08 45.8244 1397.28 45.3921 1396.86 44.6186C1396.43 43.8337 1396.5 42.9113 1396.95 42.2182C1396.95 42.2178 1396.95 42.2174 1396.95 42.217L1408.85 24.1121C1409.35 23.3385 1410.16 23.0474 1410.8 23.0474C1411.45 23.0474 1412.26 23.3385 1412.76 24.1121ZM1412.71 26.6583L1412.74 26.6238C1412.73 26.6354 1412.72 26.6469 1412.71 26.6583ZM1408.87 26.6238L1408.9 26.6583C1408.89 26.6469 1408.88 26.6354 1408.87 26.6238ZM1410.8 29.5626L1418.45 41.1973H1403.16L1410.8 29.5626ZM1420.81 44.7919C1420.79 44.7653 1420.77 44.7386 1420.76 44.7117L1420.81 44.7919Z" fill="#131313"/>
<path d="M1327.69 36.873L1327.05 40.8478H1341.52V45.9268H1320.27L1322.01 34.5894L1320.27 23.252H1341.37V28.3309H1327.05L1327.69 32.3075H1340.48V36.873H1327.69Z" fill="#131313"/>
<path d="M1366.25 27.6864L1352.67 40.9797H1366.34V45.9269H1344.28V41.375L1357.85 28.0816H1344.37V23.1499H1366.24V27.6864H1366.25Z" fill="#131313"/>
<path d="M1394.53 36.3742C1394.3 38.3535 1393.61 40.0939 1392.46 41.5954C1391.3 43.0969 1389.78 44.2622 1387.88 45.0915C1385.98 45.9207 1383.84 46.3354 1381.44 46.3354C1378.82 46.3354 1376.5 45.8439 1374.49 44.8594C1372.48 43.8749 1370.93 42.4911 1369.83 40.7081C1368.73 38.9251 1368.18 36.869 1368.18 34.5383C1368.18 32.2075 1368.73 30.1515 1369.83 28.3685C1370.93 26.5854 1372.48 25.2016 1374.49 24.2171C1376.5 23.2326 1378.82 22.7412 1381.44 22.7412C1383.84 22.7412 1385.98 23.1558 1387.88 23.9851C1389.78 24.8143 1391.3 25.9797 1392.46 27.4812C1393.61 28.9827 1394.31 30.7231 1394.53 32.7023H1388.18C1387.88 31.2759 1387.14 30.1617 1385.98 29.3581C1384.81 28.5544 1383.29 28.1535 1381.43 28.1535C1380.02 28.1535 1378.8 28.4128 1377.77 28.9298C1376.74 29.4468 1375.95 30.1856 1375.4 31.1445C1374.84 32.1034 1374.57 33.2364 1374.57 34.5417C1374.57 35.847 1374.84 36.9799 1375.4 37.9389C1375.95 38.8978 1376.74 39.6366 1377.77 40.1536C1378.8 40.6706 1380.02 40.9299 1381.43 40.9299C1383.32 40.9299 1384.84 40.5409 1386 39.7628C1387.16 38.9848 1387.89 37.857 1388.18 36.3793H1394.53L1394.53 36.3742Z" fill="#131313"/>
<path d="M1570.73 55.63C1581.73 55.63 1590.65 46.7585 1590.65 35.815C1590.65 24.8715 1581.73 16 1570.73 16C1559.73 16 1550.82 24.8715 1550.82 35.815C1550.82 46.7585 1559.73 55.63 1570.73 55.63Z" fill="#F8F7FF"/>
<path fill-rule="evenodd" clip-rule="evenodd" d="M1572.83 24.1121L1584.69 42.1625C1585.9 43.8513 1584.44 45.8244 1582.78 45.8244H1558.97C1558.15 45.8244 1557.35 45.3921 1556.93 44.6186C1556.5 43.8337 1556.57 42.9113 1557.02 42.2182C1557.02 42.2178 1557.02 42.2174 1557.02 42.217L1568.92 24.1121C1569.42 23.3385 1570.23 23.0474 1570.87 23.0474C1571.52 23.0474 1572.33 23.3385 1572.83 24.1121ZM1572.78 26.6583L1572.8 26.6238C1572.8 26.6354 1572.79 26.6469 1572.78 26.6583ZM1568.94 26.6238L1568.96 26.6583C1568.96 26.6469 1568.95 26.6354 1568.94 26.6238ZM1570.87 29.5626L1578.52 41.1973H1563.23L1570.87 29.5626ZM1580.88 44.7919C1580.86 44.7653 1580.84 44.7386 1580.83 44.7117L1580.88 44.7919Z" fill="#131313"/>
<path d="M1487.76 36.873L1487.12 40.8478H1501.59V45.9268H1480.34L1482.08 34.5894L1480.34 23.252H1501.43V28.3309H1487.12L1487.76 32.3075H1500.55V36.873H1487.76Z" fill="#131313"/>
<path d="M1526.31 27.6864L1512.74 40.9797H1526.41V45.9269H1504.34V41.375L1517.92 28.0816H1504.43V23.1499H1526.31V27.6864H1526.31Z" fill="#131313"/>
<path d="M1554.6 36.3742C1554.37 38.3535 1553.68 40.0939 1552.53 41.5954C1551.37 43.0969 1549.85 44.2622 1547.95 45.0915C1546.05 45.9207 1543.91 46.3354 1541.51 46.3354C1538.88 46.3354 1536.57 45.8439 1534.56 44.8594C1532.55 43.8749 1531 42.4911 1529.9 40.7081C1528.79 38.9251 1528.24 36.869 1528.24 34.5383C1528.24 32.2075 1528.79 30.1515 1529.9 28.3685C1531 26.5854 1532.55 25.2016 1534.56 24.2171C1536.57 23.2326 1538.89 22.7412 1541.51 22.7412C1543.9 22.7412 1546.05 23.1558 1547.95 23.9851C1549.84 24.8143 1551.37 25.9797 1552.53 27.4812C1553.68 28.9827 1554.37 30.7231 1554.6 32.7023H1548.25C1547.95 31.2759 1547.21 30.1617 1546.04 29.3581C1544.88 28.5544 1543.36 28.1535 1541.5 28.1535C1540.09 28.1535 1538.87 28.4128 1537.84 28.9298C1536.81 29.4468 1536.02 30.1856 1535.46 31.1445C1534.91 32.1034 1534.64 33.2364 1534.64 34.5417C1534.64 35.847 1534.91 36.9799 1535.46 37.9389C1536.02 38.8978 1536.81 39.6366 1537.84 40.1536C1538.87 40.6706 1540.09 40.9299 1541.5 40.9299C1543.38 40.9299 1544.91 40.5409 1546.07 39.7628C1547.23 38.9848 1547.96 37.857 1548.25 36.3793H1554.59L1554.6 36.3742Z" fill="#131313"/>
<path d="M1730.8 55.63C1741.8 55.63 1750.72 46.7585 1750.72 35.815C1750.72 24.8715 1741.8 16 1730.8 16C1719.8 16 1710.88 24.8715 1710.88 35.815C1710.88 46.7585 1719.8 55.63 1730.8 55.63Z" fill="#F8F7FF"/>
<path fill-rule="evenodd" clip-rule="evenodd" d="M1732.9 24.1121L1744.76 42.1625C1745.97 43.8513 1744.51 45.8244 1742.85 45.8244H1719.04C1718.22 45.8244 1717.42 45.3921 1716.99 44.6186C1716.56 43.8337 1716.63 42.9113 1717.09 42.2182C1717.09 42.2178 1717.09 42.2174 1717.09 42.217L1728.99 24.1121C1729.48 23.3385 1730.29 23.0474 1730.94 23.0474C1731.59 23.0474 1732.4 23.3385 1732.9 24.1121ZM1732.85 26.6583L1732.87 26.6238C1732.86 26.6354 1732.86 26.6469 1732.85 26.6583ZM1729.01 26.6238L1729.03 26.6583C1729.03 26.6469 1729.02 26.6354 1729.01 26.6238ZM1730.94 29.5626L1738.59 41.1973H1723.3L1730.94 29.5626ZM1740.95 44.7919C1740.93 44.7653 1740.91 44.7386 1740.89 44.7117L1740.95 44.7919Z" fill="#131313"/>
<path d="M1647.83 36.873L1647.19 40.8478H1661.65V45.9268H1640.41L1642.15 34.5894L1640.41 23.252H1661.5V28.3309H1647.19L1647.83 32.3075H1660.62V36.873H1647.83Z" fill="#131313"/>
<path d="M1686.38 27.6864L1672.81 40.9797H1686.47V45.9269H1664.41V41.375L1677.99 28.0816H1664.5V23.1499H1686.38V27.6864H1686.38Z" fill="#131313"/>
<path d="M1714.66 36.3742C1714.44 38.3535 1713.75 40.0939 1712.6 41.5954C1711.44 43.0969 1709.91 44.2622 1708.02 45.0915C1706.12 45.9207 1703.97 46.3354 1701.58 46.3354C1698.95 46.3354 1696.64 45.8439 1694.63 44.8594C1692.62 43.8749 1691.06 42.4911 1689.96 40.7081C1688.86 38.9251 1688.31 36.869 1688.31 34.5383C1688.31 32.2075 1688.86 30.1515 1689.96 28.3685C1691.06 26.5854 1692.62 25.2016 1694.63 24.2171C1696.64 23.2326 1698.95 22.7412 1701.58 22.7412C1703.97 22.7412 1706.12 23.1558 1708.02 23.9851C1709.91 24.8143 1711.44 25.9797 1712.6 27.4812C1713.75 28.9827 1714.44 30.7231 1714.66 32.7023H1708.32C1708.02 31.2759 1707.28 30.1617 1706.11 29.3581C1704.95 28.5544 1703.43 28.1535 1701.56 28.1535C1700.15 28.1535 1698.93 28.4128 1697.91 28.9298C1696.88 29.4468 1696.09 30.1856 1695.53 31.1445C1694.98 32.1034 1694.7 33.2364 1694.7 34.5417C1694.7 35.847 1694.98 36.9799 1695.53 37.9389C1696.09 38.8978 1696.88 39.6366 1697.91 40.1536C1698.93 40.6706 1700.16 40.9299 1701.56 40.9299C1703.45 40.9299 1704.97 40.5409 1706.14 39.7628C1707.3 38.9848 1708.02 37.857 1708.32 36.3793H1714.66L1714.66 36.3742Z" fill="#131313"/>
<path d="M1890.87 55.63C1901.87 55.63 1910.79 46.7585 1910.79 35.815C1910.79 24.8715 1901.87 16 1890.87 16C1879.87 16 1870.95 24.8715 1870.95 35.815C1870.95 46.7585 1879.87 55.63 1890.87 55.63Z" fill="#F8F7FF"/>
<path fill-rule="evenodd" clip-rule="evenodd" d="M1892.96 24.1121L1904.82 42.1625C1906.04 43.8513 1904.58 45.8244 1902.92 45.8244H1879.1C1878.29 45.8244 1877.49 45.3921 1877.06 44.6186C1876.63 43.8337 1876.7 42.9113 1877.16 42.2182C1877.16 42.2178 1877.16 42.2174 1877.16 42.217L1889.05 24.1121C1889.55 23.3385 1890.36 23.0474 1891.01 23.0474C1891.66 23.0474 1892.47 23.3385 1892.96 24.1121ZM1892.92 26.6583L1892.94 26.6238C1892.93 26.6354 1892.93 26.6469 1892.92 26.6583ZM1889.08 26.6238L1889.1 26.6583C1889.09 26.6469 1889.09 26.6354 1889.08 26.6238ZM1891.01 29.5626L1898.65 41.1973H1883.37L1891.01 29.5626ZM1901.02 44.7919C1901 44.7653 1900.98 44.7386 1900.96 44.7117L1901.02 44.7919Z" fill="#131313"/>
<path d="M1807.89 36.873L1807.25 40.8478H1821.72V45.9268H1800.48L1802.21 34.5894L1800.48 23.252H1821.57V28.3309H1807.25L1807.89 32.3075H1820.69V36.873H1807.89Z" fill="#131313"/>
<path d="M1846.45 27.6864L1832.88 40.9797H1846.54V45.9269H1824.48V41.375L1838.06 28.0816H1824.57V23.1499H1846.45V27.6864H1846.45Z" fill="#131313"/>
<path d="M1874.73 36.3742C1874.51 38.3535 1873.82 40.0939 1872.66 41.5954C1871.51 43.0969 1869.98 44.2622 1868.08 45.0915C1866.19 45.9207 1864.04 46.3354 1861.65 46.3354C1859.02 46.3354 1856.7 45.8439 1854.7 44.8594C1852.69 43.8749 1851.13 42.4911 1850.03 40.7081C1848.93 38.9251 1848.38 36.869 1848.38 34.5383C1848.38 32.2075 1848.93 30.1515 1850.03 28.3685C1851.13 26.5854 1852.69 25.2016 1854.7 24.2171C1856.7 23.2326 1859.02 22.7412 1861.65 22.7412C1864.04 22.7412 1866.19 23.1558 1868.08 23.9851C1869.98 24.8143 1871.51 25.9797 1872.66 27.4812C1873.82 28.9827 1874.51 30.7231 1874.73 32.7023H1868.39C1868.08 31.2759 1867.35 30.1617 1866.18 29.3581C1865.02 28.5544 1863.5 28.1535 1861.63 28.1535C1860.22 28.1535 1859 28.4128 1857.97 28.9298C1856.94 29.4468 1856.15 30.1856 1855.6 31.1445C1855.05 32.1034 1854.77 33.2364 1854.77 34.5417C1854.77 35.847 1855.05 36.9799 1855.6 37.9389C1856.15 38.8978 1856.94 39.6366 1857.97 40.1536C1859 40.6706 1860.22 40.9299 1861.63 40.9299C1863.52 40.9299 1865.04 40.5409 1866.2 39.7628C1867.36 38.9848 1868.09 37.857 1868.39 36.3793H1874.73L1874.73 36.3742Z" fill="#131313"/>
</svg>
