<svg width="54" height="53" viewBox="0 0 54 53" fill="none" xmlns="http://www.w3.org/2000/svg">
<path fill-rule="evenodd" clip-rule="evenodd" d="M23.6014 0.400544C17.8126 1.67014 13.6414 3.56512 9.95636 6.59901C7.59268 8.54499 4.16734 13.05 3.08529 15.6357C2.69742 16.5619 2.24717 17.5955 2.08433 17.9326C1.92149 18.2696 1.52437 20.009 1.2019 21.798C0.475245 25.8303 0.877896 31.7753 2.10357 35.1113C8.64607 52.9159 30.0775 58.6652 44.3431 46.4423C49.7788 41.7851 53.3324 34.1594 53.5503 26.6838C53.7029 21.4462 51.0914 14.4081 47.2469 9.69629C42.6198 4.02513 34.8508 0.355254 27.2496 0.249936C25.7171 0.228725 24.0755 0.296567 23.6014 0.400544ZM26.6375 11.1889C27.1725 11.7375 27.6125 12.3046 27.6155 12.4495C27.6185 12.5948 26.5806 13.909 25.309 15.3706C22.3546 18.7666 22.2882 19.6263 24.7922 22.0718C25.7205 22.9784 26.6579 23.7125 26.8747 23.7028C27.0915 23.6931 28.5318 22.2983 30.0753 20.6033C31.6188 18.9082 32.9861 17.5167 33.114 17.511C33.607 17.4889 35.5885 19.3209 35.6108 19.8194C35.6376 20.4192 27.7155 29.2302 27.1255 29.2566C26.9125 29.2661 25.1792 27.806 23.2735 26.0116C20.2968 23.2091 19.7604 22.5347 19.4686 21.2254C19.0234 19.2265 19.0664 18.0076 19.638 16.4485C20.1767 14.98 24.2936 10.314 25.1155 10.241C25.4175 10.214 26.1026 10.6407 26.6375 11.1889ZM29.4339 15.7824C30.6774 16.5719 30.4971 17.781 28.8618 19.6193C27.3824 21.2826 26.4987 21.6171 25.4899 20.8952C24.3584 20.0857 24.359 19.1187 25.4928 17.5815C27.1078 15.3921 28.1038 14.9375 29.4339 15.7824ZM16.2298 34.0915C16.2383 34.2824 15.4267 34.5225 14.4258 34.625C12.8895 34.7824 12.611 34.9169 12.6366 35.4876C12.6616 36.0472 12.9111 36.1529 14.082 36.1005C15.2436 36.0486 15.4809 36.1472 15.4059 36.65C15.3555 36.9872 15.005 37.2926 14.6272 37.329C12.9143 37.4939 12.7302 37.5825 12.7591 38.2285C12.7846 38.7991 13.074 38.9083 14.6182 38.9279C17.4511 38.964 16.6491 39.6378 13.6116 39.7736L10.9187 39.894L10.7006 37.3278C10.5807 35.9162 10.5558 34.5414 10.6457 34.272C10.7698 33.9002 11.4579 33.7783 13.5117 33.7637C15.0135 33.7528 16.2212 33.8985 16.2298 34.0915ZM21.3379 35.4282C21.8704 35.9147 22.0846 36.5541 22.1415 37.827C22.2139 39.447 22.161 39.5652 21.3504 39.6015C20.5422 39.6376 20.4765 39.5223 20.4058 37.9418C20.3509 36.7134 20.1751 36.1919 19.7707 36.0573C18.7366 35.7129 18.6102 35.8914 18.5864 37.7251C18.566 39.3169 18.4628 39.5709 17.7861 39.6982C17.0434 39.8375 17.0045 39.7363 16.8995 37.3901L16.7898 34.936L18.7009 34.8505C20.1487 34.7858 20.788 34.9259 21.3379 35.4282ZM29.376 35.8058C29.9784 37.3882 30.4487 37.3484 30.9285 35.6742C31.1601 34.8656 31.5246 34.4142 32.0234 34.3174C32.9281 34.1427 32.9758 34.5489 32.3004 36.6657C31.5967 38.8692 31.2968 39.2082 30.1093 39.1406C29.2228 39.0901 28.9763 38.841 28.3496 37.3626C27.6517 35.716 27.5632 35.6434 26.2516 35.6499C24.6167 35.658 23.9881 36.3076 24.3728 37.5923C24.6212 38.4229 24.7563 38.4774 26.0077 38.2524C27.165 38.0445 27.3762 38.1032 27.4003 38.6409C27.4192 39.0658 27.0811 39.3671 26.3737 39.556C24.2602 40.1197 22.1815 38.5285 22.5668 36.6418C22.899 35.0148 23.5672 34.6423 26.3207 34.5474L28.8636 34.4598L29.376 35.8058ZM37.7228 34.5756C38.7654 35.4368 38.7086 37.562 37.6177 38.5009C36.5707 39.4023 35.7675 39.4886 34.38 38.8488C32.7711 38.1065 32.4355 36.0986 33.6916 34.7263C34.389 33.9644 36.8707 33.8715 37.7228 34.5756ZM40.7716 35.5172C40.8928 36.5461 41.1518 37.0824 41.6406 37.3165C42.4561 37.7065 42.5912 37.442 42.6467 35.345C42.6768 34.2174 42.8161 33.9461 43.3786 33.921C43.9999 33.8932 44.0962 34.1546 44.2872 36.3871C44.4716 38.5412 44.4053 38.9886 43.8045 39.6451C42.9205 40.6108 40.273 40.6781 40.051 39.7402C39.9363 39.2542 40.1154 39.1794 41.1157 39.2961C41.7772 39.3733 42.4062 39.2784 42.5139 39.0857C42.6219 38.8924 42.1496 38.67 41.4605 38.5896C39.6381 38.3771 39.2048 37.9047 39.1214 36.0396C39.0418 34.2603 39.2256 33.8545 40.0564 33.9735C40.4229 34.026 40.6553 34.5269 40.7716 35.5172ZM34.7987 35.706C34.4938 36.6201 34.6059 37.1796 35.203 37.725C36.1108 38.5547 36.822 37.9601 36.6374 36.526C36.5121 35.5535 36.3098 35.2569 35.7335 35.2009C35.2957 35.1582 34.9123 35.3656 34.7987 35.706Z" fill="#6A50E5"/>
</svg>
