<svg width="14" height="16" viewBox="0 0 14 16" fill="none" xmlns="http://www.w3.org/2000/svg">
<path d="M2.59993 1.40039H11.3999C12.1333 1.40039 12.7333 2.00039 12.7333 2.73372V4.20039C12.7333 4.73372 12.3999 5.40039 12.0666 5.73372L9.19993 8.26706C8.79993 8.60039 8.53327 9.26706 8.53327 9.80039V12.6671C8.53327 13.0671 8.2666 13.6004 7.93327 13.8004L6.99994 14.4004C6.13327 14.9337 4.93327 14.3337 4.93327 13.2671V9.73372C4.93327 9.26706 4.6666 8.66706 4.39994 8.33372L1.8666 5.66706C1.53327 5.33372 1.2666 4.73372 1.2666 4.33372V2.80039C1.2666 2.00039 1.8666 1.40039 2.59993 1.40039Z" stroke="#000706" stroke-width="1.5" stroke-miterlimit="10" stroke-linecap="round" stroke-linejoin="round"/>
</svg>
