<svg width="20" height="20" viewBox="0 0 20 20" fill="none" xmlns="http://www.w3.org/2000/svg">
<g clip-path="url(#clip0_405_26650)">
<path d="M9.99996 1.66602C5.40478 1.66602 1.66663 5.40417 1.66663 9.99935C1.66663 14.5945 5.40478 18.3327 9.99996 18.3327C14.5951 18.3327 18.3333 14.5945 18.3333 9.99935C18.3333 5.40417 14.5951 1.66602 9.99996 1.66602Z" fill="#FFE175"/>
<path d="M14.2235 8.23249L9.7096 12.7463C9.57419 12.8817 9.39642 12.9499 9.21865 12.9499C9.04089 12.9499 8.86312 12.8817 8.7277 12.7463L6.4708 10.4894C6.19919 10.2179 6.19919 9.77897 6.4708 9.50749C6.74229 9.23587 7.18109 9.23587 7.4527 9.50749L9.21865 11.2734L13.2416 7.25059C13.5131 6.97897 13.9519 6.97897 14.2235 7.25059C14.495 7.52207 14.495 7.96087 14.2235 8.23249Z" fill="#000706"/>
</g>
<defs>
<clipPath id="clip0_405_26650">
<rect width="16.6667" height="16.6667" fill="white" transform="translate(1.66663 1.66602)"/>
</clipPath>
</defs>
</svg>
