<svg width="20" height="20" viewBox="0 0 20 20" fill="none" xmlns="http://www.w3.org/2000/svg">
<path d="M8.9584 2.04258C9.5334 1.55091 10.4751 1.55091 11.0584 2.04258L12.3751 3.176C12.6251 3.39267 13.0917 3.56764 13.4251 3.56764H14.8417C15.7251 3.56764 16.4501 4.29259 16.4501 5.17592V6.59265C16.4501 6.91765 16.6251 7.39265 16.8417 7.64265L17.9751 8.95928C18.4667 9.53428 18.4667 10.476 17.9751 11.0593L16.8417 12.3759C16.6251 12.6259 16.4501 13.0926 16.4501 13.4259V14.8427C16.4501 15.726 15.7251 16.4509 14.8417 16.4509H13.4251C13.1001 16.4509 12.6251 16.6259 12.3751 16.8426L11.0584 17.9759C10.4834 18.4676 9.54173 18.4676 8.9584 17.9759L7.64174 16.8426C7.39174 16.6259 6.92507 16.4509 6.59173 16.4509H5.15006C4.26672 16.4509 3.54173 15.726 3.54173 14.8427V13.4176C3.54173 13.0926 3.36674 12.6259 3.1584 12.3759L2.0334 11.051C1.55007 10.476 1.55007 9.54263 2.0334 8.96763L3.1584 7.64265C3.36674 7.39265 3.54173 6.92599 3.54173 6.60099V5.17592C3.54173 4.29259 4.26672 3.56764 5.15006 3.56764H6.59173C6.91673 3.56764 7.39174 3.39267 7.64174 3.176L8.9584 2.04258Z" stroke="#ED9148" stroke-width="1.5" stroke-linecap="round" stroke-linejoin="round"/>
<path d="M8.24166 12.3497L9.44998 13.283C9.60831 13.4413 9.95832 13.5163 10.1917 13.5163H11.6666C12.1333 13.5163 12.6416 13.1664 12.7583 12.6997L13.6916 9.84966C13.8833 9.30799 13.5333 8.83302 12.95 8.83302H11.3917C11.1583 8.83302 10.9667 8.64141 11 8.36641L11.1916 7.11641C11.2666 6.76641 11.0333 6.37471 10.6833 6.25805C10.375 6.14138 9.98332 6.29968 9.82499 6.53301L8.22498 8.90799" stroke="#ED9148" stroke-width="1.5" stroke-miterlimit="10"/>
<path d="M6.25 12.3493V8.53269C6.25 7.98269 6.48334 7.79102 7.03334 7.79102H7.425C7.96667 7.79102 8.20834 7.98269 8.20834 8.53269V12.3493C8.20834 12.891 7.975 13.091 7.425 13.091H7.03334C6.48334 13.091 6.25 12.8993 6.25 12.3493Z" stroke="#ED9148" stroke-width="1.5" stroke-linecap="round" stroke-linejoin="round"/>
</svg>
