<svg width="20" height="21" viewBox="0 0 20 21" fill="none" xmlns="http://www.w3.org/2000/svg">
<path d="M18.3334 10.4993C18.3334 11.2105 17.4597 11.7966 17.2847 12.4521C17.1042 13.1299 17.5611 14.0743 17.2181 14.6674C16.8695 15.2702 15.8209 15.3424 15.332 15.8313C14.8431 16.3202 14.7709 17.3688 14.1681 17.7174C13.575 18.0605 12.6306 17.6035 11.9528 17.7841C11.2972 17.9591 10.7111 18.8327 10 18.8327C9.28891 18.8327 8.7028 17.9591 8.04724 17.7841C7.36946 17.6035 6.42502 18.0605 5.83197 17.7174C5.22919 17.3688 5.15697 16.3202 4.66808 15.8313C4.17919 15.3424 3.13058 15.2702 2.78196 14.6674C2.43891 14.0743 2.89585 13.1299 2.7153 12.4521C2.5403 11.7966 1.66669 11.2105 1.66669 10.4993C1.66669 9.78824 2.5403 9.20213 2.7153 8.54657C2.89585 7.86879 2.43891 6.92435 2.78196 6.33129C3.13058 5.72852 4.17919 5.65629 4.66808 5.1674C5.15697 4.67852 5.22919 3.6299 5.83197 3.28129C6.42502 2.93824 7.36946 3.39518 8.04724 3.21463C8.7028 3.03963 9.28891 2.16602 10 2.16602C10.7111 2.16602 11.2972 3.03963 11.9528 3.21463C12.6306 3.39518 13.575 2.93824 14.1681 3.28129C14.7709 3.6299 14.8431 4.67852 15.332 5.1674C15.8209 5.65629 16.8695 5.72852 17.2181 6.33129C17.5611 6.92435 17.1042 7.86879 17.2847 8.54657C17.4597 9.20213 18.3334 9.78824 18.3334 10.4993Z" fill="#279955"/>
<path d="M12.4083 8.01574L9.23608 11.188L7.59163 9.5449C7.42013 9.3735 7.18758 9.27721 6.94511 9.27721C6.70263 9.27721 6.47008 9.3735 6.29858 9.5449C6.12717 9.71641 6.03088 9.94896 6.03088 10.1914C6.03088 10.4339 6.12717 10.6665 6.29858 10.838L8.60552 13.1449C8.77245 13.3116 8.99875 13.4053 9.23469 13.4053C9.47063 13.4053 9.69693 13.3116 9.86386 13.1449L13.7 9.30879C13.8714 9.13729 13.9677 8.90474 13.9677 8.66227C13.9677 8.41979 13.8714 8.18724 13.7 8.01574C13.6152 7.93087 13.5145 7.86355 13.4037 7.81762C13.2929 7.77169 13.1741 7.74805 13.0541 7.74805C12.9342 7.74805 12.8154 7.77169 12.7046 7.81762C12.5938 7.86355 12.4931 7.93087 12.4083 8.01574Z" fill="#FFFCEE"/>
</svg>
