<svg width="54" height="54" viewBox="0 0 54 54" fill="none" xmlns="http://www.w3.org/2000/svg">
<path d="M6.75 27C6.75 28.242 7.758 29.25 9 29.25L38.4082 29.25L29.7158 37.9424C28.8361 38.8221 28.8361 40.2465 29.7158 41.124L29.9092 41.3174C30.7889 42.1971 32.2133 42.1971 33.0908 41.3174L45.8174 28.5908C46.6971 27.711 46.6971 26.2867 45.8174 25.4092L33.0908 12.6826C32.2111 11.8028 30.7867 11.8028 29.9092 12.6826L29.7158 12.876C28.8361 13.7557 28.8361 15.1801 29.7158 16.0576L38.4082 24.75L9 24.75C7.758 24.75 6.75 25.758 6.75 27Z" fill="white"/>
</svg>
