<svg width="46" height="36" viewBox="0 0 46 36" fill="none" xmlns="http://www.w3.org/2000/svg">
<path fill-rule="evenodd" clip-rule="evenodd" d="M26.0984 34.3295L45.265 5.80342C47.2657 3.08845 44.8247 3.8147e-06 42.2179 3.8147e-06L3.72995 3.8147e-06C2.44126 3.8147e-06 1.15787 0.668262 0.468593 1.89357C-0.233848 3.1423 -0.117021 4.6128 0.621799 5.71245L19.8496 34.3296C20.6533 35.5513 21.9514 36 22.974 36C23.9965 36 25.2947 35.5513 26.0984 34.3295ZM26.021 30.2794L26.0583 30.335C26.046 30.3163 26.0336 30.2978 26.021 30.2794ZM19.8897 30.3348L19.9268 30.2796C19.9143 30.2978 19.9019 30.3162 19.8897 30.3348ZM22.974 25.7444L35.3577 7.31336L10.5902 7.31336L22.974 25.7444ZM39.1838 1.61897C39.1541 1.66123 39.1255 1.70374 39.0981 1.74645L39.1838 1.61897Z" fill="#C4FF02"/>
</svg>
