<svg width="36" height="46" viewBox="0 0 36 46" fill="none" xmlns="http://www.w3.org/2000/svg">
<path fill-rule="evenodd" clip-rule="evenodd" d="M34.3295 19.9016L5.80342 0.735029C3.08844 -1.26569 1.85535e-06 1.17527 1.96929e-06 3.78206L3.65166e-06 42.2701C3.70799e-06 43.5587 0.668262 44.8421 1.89357 45.5314C3.1423 46.2338 4.6128 46.117 5.71245 45.3782L34.3296 26.1504C35.5513 25.3467 36 24.0486 36 23.026C36 22.0035 35.5513 20.7053 34.3295 19.9016ZM30.2794 19.979L30.335 19.9417C30.3163 19.954 30.2978 19.9664 30.2794 19.979ZM30.3348 26.1103L30.2796 26.0732C30.2978 26.0857 30.3162 26.0981 30.3348 26.1103ZM25.7444 23.026L7.31336 10.6423L7.31336 35.4098L25.7444 23.026ZM1.61897 6.81623C1.66123 6.84591 1.70374 6.87446 1.74645 6.90189L1.61897 6.81623Z" fill="#C4FF02"/>
</svg>
