<svg width="46" height="36" viewBox="0 0 46 36" fill="none" xmlns="http://www.w3.org/2000/svg">
<path fill-rule="evenodd" clip-rule="evenodd" d="M19.9016 1.67048L0.735025 30.1966C-1.2657 32.9115 1.17527 36 3.78205 36L42.27 36C43.5587 36 44.8421 35.3317 45.5314 34.1064C46.2338 32.8577 46.117 31.3872 45.3782 30.2875L26.1504 1.67035C25.3467 0.44869 24.0486 -1.91906e-06 23.026 -2.00845e-06C22.0035 -2.09784e-06 20.7053 0.448721 19.9016 1.67048ZM19.979 5.72057L19.9417 5.66504C19.954 5.68373 19.9664 5.70224 19.979 5.72057ZM26.1103 5.66519L26.0732 5.72044C26.0857 5.7022 26.0981 5.68379 26.1103 5.66519ZM23.026 10.2556L10.6423 28.6866L35.4098 28.6866L23.026 10.2556ZM6.81623 34.381C6.84591 34.3388 6.87445 34.2963 6.90188 34.2535L6.81623 34.381Z" fill="#C4FF02"/>
</svg>
