<svg width="20" height="20" viewBox="0 0 20 20" fill="none" xmlns="http://www.w3.org/2000/svg">
<g id="Icons / Payment / Qiwi">
<path id="Vector" d="M10.0006 1.92383H9.99977C5.53901 1.92383 1.92285 5.53999 1.92285 10.0008C1.92285 14.4615 5.53901 18.0777 9.99977 18.0777H10.0006C14.4614 18.0777 18.0775 14.4615 18.0775 10.0008C18.0775 5.53999 14.4614 1.92383 10.0006 1.92383Z" fill="#FD8C00"/>
<path id="Vector_2" d="M13.643 12.1023C13.8286 12.1737 13.9 12.4517 13.9142 12.573C13.9428 12.7943 13.8787 12.8799 13.8073 12.8799C13.7359 12.8799 13.6359 12.7943 13.529 12.6231C13.4219 12.4517 13.3791 12.2593 13.4364 12.1593C13.4718 12.095 13.5501 12.0666 13.643 12.1023ZM12.5587 12.9085C12.6729 12.9085 12.8013 12.9584 12.9155 13.0582C13.1366 13.2437 13.2009 13.4577 13.0867 13.6147C13.0224 13.6932 12.9155 13.743 12.7942 13.743C12.6729 13.743 12.5445 13.7002 12.459 13.6218C12.2592 13.4506 12.2022 13.165 12.3304 13.0083C12.3805 12.944 12.459 12.9085 12.5587 12.9085ZM10.062 14.97C7.35093 14.97 5.15381 12.7728 5.15381 10.062C5.15381 7.35131 7.35116 5.1543 10.0618 5.1543C12.7727 5.1543 14.97 7.35154 14.97 10.062C14.97 10.9822 14.7133 11.8456 14.2783 12.5804C14.2639 12.6016 14.2282 12.5945 14.221 12.5659C14.0499 11.3604 13.315 10.6969 12.245 10.4973C12.1521 10.4829 12.1379 10.4259 12.2592 10.4117C12.5874 10.3831 13.051 10.3902 13.2935 10.433C13.3077 10.3117 13.315 10.1834 13.315 10.055C13.315 8.26435 11.8596 6.809 10.0689 6.809C8.27843 6.809 6.82301 8.26435 6.82301 10.055C6.82301 11.8456 8.27843 13.3009 10.0691 13.3009H10.2188C10.168 13.0113 10.1464 12.7173 10.1545 12.4234C10.1618 12.2236 10.2046 12.195 10.2902 12.352C10.7397 13.1295 11.3818 13.8286 12.6372 14.1069C13.6645 14.3353 14.6918 14.5991 15.7975 16.0044C15.8974 16.1257 15.7477 16.254 15.6335 16.1542C14.5064 15.1554 13.4791 14.8272 12.5445 14.8272C11.4957 14.8346 10.7827 14.97 10.062 14.97Z" fill="white"/>
</g>
</svg>
