<svg width="52" height="52" viewBox="0 0 52 52" fill="none" xmlns="http://www.w3.org/2000/svg">
<g clip-path="url(#clip0_1953_34735)">
<path d="M3.99609 15.066C3.99609 13.5113 5.22809 12.25 6.74609 12.25H45.2461C46.7641 12.25 47.9961 13.5113 47.9961 15.066V37.594C47.9961 39.1487 46.7641 40.41 45.2461 40.41H6.74609C5.22809 40.41 3.99609 39.1487 3.99609 37.594V15.066Z" fill="#219F38"/>
<path d="M25.9058 27.545V30.1007H24.441V21.8965H27.1726C29.7613 21.8965 30.8613 22.8223 30.8613 24.674C30.8613 26.5862 29.5725 27.545 27.1708 27.545H25.9058ZM25.9058 23.2458V26.1975H27.2826C28.6411 26.1975 29.3451 25.752 29.3451 24.6392C29.3451 23.6308 28.7328 23.244 27.3065 23.244H25.9058V23.2458ZM31.6368 24.652C32.0218 24.3642 32.7258 24.124 33.7341 24.124C35.4446 24.124 36.2898 24.7106 36.2898 26.236V30.1043H35.001V29.0483C34.7186 29.7266 34.0055 30.196 33.0668 30.196C31.8825 30.196 31.1803 29.5286 31.1803 28.381C31.1803 27.0426 32.152 26.6686 33.593 26.6686H34.9185V26.412C34.9185 25.5797 34.5206 25.3212 33.7341 25.3212C32.6561 25.3212 32.0346 25.7428 31.6386 26.3643L31.6368 24.652ZM34.9166 28.0345V27.5596H33.7561C32.9495 27.5596 32.5608 27.7136 32.5608 28.238C32.5608 28.6835 32.889 28.9658 33.4995 28.9658C34.4235 28.9658 34.858 28.4378 34.9166 28.0345ZM36.9663 24.2413H38.4953L40.1013 28.26L41.414 24.2413H42.866L40.523 30.7221C40.006 32.1283 39.4798 32.4455 38.708 32.4455C38.3431 32.4455 37.9416 32.3391 37.7693 32.1888V30.9092C37.9581 31.0925 38.2093 31.1988 38.4733 31.2025C38.895 31.2025 39.2103 30.922 39.434 30.1336L36.9663 24.2413ZM13.0156 24.6557V26.456L15.4008 27.952L21.1116 23.75C20.9103 23.3067 20.6581 22.8883 20.36 22.5033L15.4008 26.1517L13.0156 24.6557Z" fill="white"/>
<path d="M20.2203 26.1975V26.3259C20.2224 27.4045 19.8632 28.4529 19.2 29.3035C18.5368 30.1542 17.6078 30.7583 16.5612 31.0193C15.5145 31.2803 14.4107 31.1832 13.4257 30.7436C12.4407 30.3039 11.6313 29.547 11.1267 28.5937C10.6221 27.6403 10.4514 26.5454 10.6417 25.4837C10.8321 24.4219 11.3726 23.4545 12.1769 22.7359C12.9813 22.0172 14.0032 21.5886 15.0796 21.5186C16.156 21.4485 17.2249 21.741 18.1156 22.3494L19.3403 21.451C18.1966 20.5266 16.7643 20.0336 15.2939 20.0583C13.8236 20.0829 12.4086 20.6235 11.2965 21.5857C10.1844 22.5479 9.44587 23.8704 9.21006 25.3219C8.97424 26.7735 9.25614 28.2617 10.0065 29.5265C10.7568 30.7913 11.9278 31.752 13.3148 32.2409C14.7017 32.7297 16.2164 32.7154 17.5939 32.2006C18.9714 31.6858 20.1242 30.7032 20.8506 29.4245C21.577 28.1459 21.8309 26.6526 21.5678 25.2057L20.2184 26.1957L20.2203 26.1975Z" fill="white"/>
</g>
<defs>
<clipPath id="clip0_1953_34735">
<rect width="44" height="44" fill="white" transform="translate(3.99609 4)"/>
</clipPath>
</defs>
</svg>
