<svg width="52" height="52" viewBox="0 0 52 52" fill="none" xmlns="http://www.w3.org/2000/svg">
<path d="M47 26C47 14.402 37.598 5 26 5C14.402 5 5 14.402 5 26C5 37.598 14.402 47 26 47C37.598 47 47 37.598 47 26Z" fill="white"/>
<mask id="mask0_1953_50785" style="mask-type:luminance" maskUnits="userSpaceOnUse" x="17" y="15" width="18" height="22">
<path d="M34.9062 15.3259H17.4062V36.9623H34.9062V15.3259Z" fill="white"/>
</mask>
<g mask="url(#mask0_1953_50785)">
<path d="M17.4062 20.0356L20.0012 24.719V27.5757L17.4092 32.2499L17.4062 20.0356Z" fill="#5B57A2"/>
<path d="M27.3711 23.0146L29.8028 21.5098L34.7792 21.5051L27.3711 26.0873V23.0146Z" fill="#D90751"/>
<path d="M27.3568 20.0079L27.3706 26.2085L24.7695 24.5948V15.3259L27.3568 20.0079Z" fill="#FAB718"/>
<path d="M34.7786 21.5051L29.802 21.5098L27.3568 20.0079L24.7695 15.3259L34.7786 21.5051Z" fill="#ED6F26"/>
<path d="M27.3706 32.2757V29.2673L24.7695 27.6843L24.7709 36.9623L27.3706 32.2757Z" fill="#63B22F"/>
<path d="M29.7956 30.7847L20.001 24.719L17.4062 20.0356L34.7676 30.7786L29.7956 30.7847Z" fill="#1487C9"/>
<path d="M24.7695 36.9624L27.3688 32.2758L29.7943 30.7847L34.7663 30.7786L24.7695 36.9624Z" fill="#017F36"/>
<path d="M17.4102 32.2497L24.791 27.6844L22.3096 26.1472L20.0021 27.5755L17.4102 32.2497Z" fill="#984995"/>
</g>
</svg>
