<svg width="18" height="18" viewBox="0 0 18 18" fill="none" xmlns="http://www.w3.org/2000/svg">
<g id="icon (TINKOFF)">
<circle id="Ellipse 2" cx="9.00008" cy="8.9991" r="8.30769" fill="#FFDD2D"/>
<g id="1" clip-path="url(#clip0_1761_137492)">
<path id="Vector" d="M14.5613 8.71147L14.7051 8.25384L14.2292 8.26867C14.189 8.26867 13.8968 8.26042 13.6133 8.05612C13.6344 8.05818 13.6555 8.06107 13.6771 8.06107C13.9689 8.06107 14.2512 7.88641 14.3644 7.63682L14.5691 7.18578C14.3125 7.18906 14.0779 7.15693 14.0779 7.15693C14.0759 7.15654 13.891 7.13304 13.6771 6.91597C13.5237 6.76029 13.3339 6.67791 13.1283 6.67791C13.0384 6.67791 12.958 6.69396 12.8887 6.71579C12.8995 6.67913 12.9099 6.64207 12.9157 6.60377C12.9812 6.18157 12.7076 5.85946 12.7076 5.85986L12.3499 5.41954L12.1281 5.93689C12.1273 5.93854 12.0713 6.05963 11.971 6.11895C11.9407 5.96696 11.8665 5.79601 11.7078 5.6325C11.4085 5.32439 11.0442 5.27867 10.8535 5.27867C10.7652 5.27867 10.7022 5.28814 10.6869 5.29061L10.255 5.37505C10.2798 5.27907 10.3329 5.11226 10.4299 4.96192L10.6682 4.59286L10.0684 4.66082L9.87733 4.25756L9.50759 4.44703L9.16563 4.11133L8.8245 4.44703L8.4535 4.25756L8.26283 4.66082L7.66346 4.59286L7.90221 4.96192C7.99921 5.11226 8.05226 5.27867 8.07672 5.37465L7.66472 5.29392L7.65061 5.29144C7.62988 5.28814 7.5673 5.27867 7.47859 5.27867C7.28794 5.27867 6.92358 5.32479 6.62511 5.6325C6.46594 5.79561 6.39176 5.96696 6.36109 6.11895C6.26161 6.06046 6.20605 5.94102 6.20605 5.94102L5.98389 5.42077L5.62035 5.86397C5.57601 5.92124 5.35675 6.22399 5.41642 6.60458C5.42265 6.64248 5.43261 6.67956 5.44338 6.71622C5.37457 6.69439 5.29415 6.6783 5.2042 6.6783C4.99862 6.6783 4.80876 6.76069 4.65499 6.91638C4.44191 7.13265 4.25788 7.15693 4.25955 7.15693C4.25955 7.15693 4.06513 7.19155 3.7642 7.18619L3.96773 7.63722C4.08089 7.88724 4.36359 8.06148 4.65499 8.06148C4.67694 8.06148 4.69808 8.05861 4.71964 8.05653C4.43694 8.26085 4.14473 8.2691 4.1095 8.26948L3.62451 8.25384L3.77125 8.71107C3.84503 8.94666 4.09166 9.33716 4.5642 9.37917C4.5128 9.59336 4.39882 9.83309 4.14846 9.93646L3.78743 10.0843L3.98431 10.425C4.09539 10.6087 4.35614 10.8237 4.72752 10.8237C4.80792 10.8233 4.88543 10.8155 4.96007 10.7998C4.97913 10.8838 5.00316 10.9679 5.03134 11.0511C5.14202 11.3781 5.04668 11.6063 5.04546 11.6088L4.8672 11.9799L5.26513 12.0841C5.2701 12.0858 5.39031 12.1183 5.54076 12.1183C5.60917 12.1183 5.67425 12.1113 5.73561 12.0969C5.78202 12.0862 5.82637 12.0718 5.86906 12.0545C5.92046 12.1463 5.98306 12.2299 6.05603 12.3049C6.31093 12.5648 6.67197 12.6966 7.12958 12.6966H7.13123L7.45788 12.6925L6.78306 12.9709L7.29539 13.2168C7.48148 13.3071 7.70244 13.4137 7.92708 13.4953L7.86326 13.6691L8.03984 13.7491C8.05558 13.756 8.39506 13.9072 8.95962 13.9393C8.95962 13.9393 9.09598 13.9455 9.17103 13.9455C9.24605 13.9455 9.38076 13.9389 9.38076 13.9389C9.94158 13.906 10.2786 13.7564 10.2943 13.7491L10.4713 13.6687L10.4067 13.4945C10.638 13.4105 10.8668 13.2997 11.045 13.2131L11.5478 12.9705L10.875 12.6917L11.2029 12.6958C11.661 12.6958 12.0224 12.564 12.2769 12.3037C12.3495 12.2291 12.412 12.1455 12.4639 12.0536C12.5066 12.071 12.5513 12.0854 12.5977 12.0961C12.6587 12.1105 12.7237 12.1175 12.7921 12.1175C12.9401 12.1175 13.0616 12.0849 13.0649 12.0841L13.4645 11.9791L13.2904 11.615C13.2862 11.6055 13.1909 11.3777 13.3016 11.0503C13.3298 10.9666 13.3534 10.8826 13.3725 10.799C13.4475 10.8146 13.5258 10.8229 13.6066 10.8229C14.0796 10.8229 14.3063 10.4921 14.3503 10.4204L14.5451 10.0835L14.1841 9.93606C13.9333 9.83267 13.8197 9.59253 13.7687 9.37874C14.2346 9.33921 14.485 8.94872 14.5613 8.71147ZM8.10824 5.5324L8.10325 5.53364L8.10739 5.52829L8.10824 5.5324Z" fill="white"/>
<path id="Vector_2" d="M9.16627 5.51367C8.78407 5.51407 8.49764 5.63847 8.43506 5.7847L9.16627 6.07138L9.89746 5.7847C9.83528 5.63847 9.54886 5.51407 9.16627 5.51367Z" fill="white"/>
<path id="Vector_3" d="M9.17364 13.1019H9.17282H9.16659H9.15956H9.15914C8.92743 13.1036 8.60866 13.0562 8.45487 13.0117L8.27002 13.5089C8.39188 13.5521 8.80473 13.6345 9.16659 13.6345C9.52761 13.6345 9.94089 13.5517 10.0623 13.5089L9.8779 13.0117C9.72368 13.0566 9.40534 13.1036 9.17364 13.1019Z" fill="white"/>
<path id="Vector_4" d="M10.5726 12.6074C10.435 12.6849 10.1279 12.801 9.94922 12.855L10.0993 13.2656C10.3758 13.1907 10.6037 13.103 10.7923 13.009L10.481 12.906L10.5726 12.6074Z" fill="white"/>
<path id="Vector_5" d="M7.7602 12.6074L7.85223 12.906L7.54053 13.009C7.7287 13.103 7.95792 13.1907 8.23315 13.2656L8.38321 12.855C8.20539 12.801 7.89782 12.6845 7.7602 12.6074Z" fill="white"/>
<path id="Vector_6" d="M9.16606 5.0376C9.45413 5.0376 9.73683 5.10598 9.95404 5.22627C9.97394 5.15994 10.0017 5.07962 10.0395 4.99561L9.95736 5.00548L9.87114 5.01454L9.83466 4.93669L9.72484 4.70603L9.52462 4.80984L9.44668 4.84938L9.38451 4.78841L9.16689 4.57422L8.9497 4.78841L8.88751 4.84938L8.80958 4.80984L8.60815 4.70603L8.49955 4.93669L8.46224 5.01454L8.37601 5.00548L8.29395 4.99561C8.33168 5.08004 8.35903 5.15994 8.37933 5.22627C8.59695 5.10598 8.87881 5.0376 9.16606 5.0376Z" fill="white"/>
<path id="Vector_7" d="M13.5646 7.70413C13.6018 7.71689 13.64 7.72266 13.6777 7.72266C13.8406 7.72266 13.9981 7.61802 14.0524 7.49816C14.0524 7.49816 13.7536 7.48003 13.4323 7.15587C13.3299 7.05083 13.2218 7.01953 13.1289 7.01953C12.9847 7.01953 12.8765 7.09531 12.8765 7.09531C13.2644 7.30046 13.3436 7.62998 13.5646 7.70413Z" fill="white"/>
<path id="Vector_8" d="M4.65457 7.72266C4.69229 7.72266 4.73043 7.71689 4.7669 7.70413C4.98867 7.62998 5.06826 7.30046 5.45622 7.09531C5.45622 7.09531 5.34762 7.01953 5.20419 7.01953C5.11094 7.01953 5.00275 7.05083 4.89997 7.15587C4.57912 7.48003 4.28027 7.49816 4.28027 7.49816C4.33373 7.61802 4.49166 7.72266 4.65457 7.72266Z" fill="white"/>
<path id="Vector_9" d="M13.6697 9.04207C13.6764 9.04246 13.6822 9.04246 13.6892 9.04246C14.0958 9.04246 14.2339 8.60957 14.2339 8.60957H14.226C14.1514 8.60957 13.5466 8.59226 13.1193 8.05225C12.8378 7.6972 12.6074 7.38497 12.1518 7.26223L12.107 7.25439L12.0971 7.2091C12.0847 7.13988 12.1323 7.07522 12.2405 7.00521C12.8689 6.59619 12.4424 6.07471 12.4424 6.07471C12.4424 6.07471 12.2629 6.49196 11.8612 6.49196C11.8517 6.49196 11.8413 6.49156 11.8314 6.49156C11.7858 6.48909 11.7418 6.48744 11.6975 6.47797L11.6233 6.46355C11.6233 6.46355 11.7377 6.15422 11.4616 5.86999C11.2536 5.6554 11.0003 5.61914 10.854 5.61914C10.7802 5.61914 10.7334 5.62863 10.7334 5.62863C10.8722 5.80904 10.9725 6.10808 10.8121 6.29259C10.6737 6.45119 10.3354 6.45901 10.3354 6.69545C10.3354 6.79554 10.4295 6.91253 10.5987 7.01755C11.1072 7.33595 11.6121 7.75817 11.8219 8.3241C12.0843 9.03012 11.7887 9.49844 11.3667 9.76701C11.3667 9.76701 11.499 9.8881 11.6909 9.90335C11.7298 9.90706 11.768 9.9087 11.8036 9.9087C12.2086 9.9087 12.4179 9.72005 12.4179 9.72005C12.4179 9.72005 12.3835 9.98078 12.1725 10.223C11.9781 10.4466 11.7228 10.578 11.3336 10.5838C11.3336 10.5838 11.3211 10.7634 11.4936 10.9187C11.6038 11.0167 11.8588 11.0489 11.8588 11.0489C11.8588 11.0489 11.3817 11.1448 11.329 11.8451C11.3004 12.2244 11.203 12.3562 11.203 12.3562H11.2117C12.3189 12.3562 12.2902 11.4126 12.2902 11.4126C12.2902 11.4126 12.3673 11.6918 12.6762 11.7647C12.7135 11.7746 12.7532 11.7783 12.7914 11.7783C12.8909 11.7783 12.9771 11.7553 12.9771 11.7553C12.9771 11.7553 12.8154 11.4163 12.9758 10.9422C13.1089 10.5488 13.0873 10.2572 13.0873 10.2572C13.0873 10.2572 13.2366 10.4812 13.6063 10.4833H13.61C13.918 10.4833 14.0523 10.2514 14.0523 10.2514C13.3141 9.94701 13.387 8.96422 13.387 8.96422C13.387 8.96422 13.4828 9.03507 13.6697 9.04207ZM13.4475 10.0685C13.1474 9.92147 12.9576 9.53098 12.9116 9.39012C12.8619 10.1645 12.4813 10.702 12.0366 11.2194C11.8057 11.4875 11.7253 11.7483 11.7253 11.7483C11.7253 11.7483 11.7696 11.4529 11.9694 11.2124C12.3844 10.7169 12.7785 10.1002 12.808 9.38723C12.8283 8.88964 12.6994 8.486 12.4983 8.15359C12.6107 8.49999 12.5949 8.92426 12.2132 9.32009C12.2132 9.32009 12.9729 8.41515 11.9106 7.48754C11.4853 7.13453 11.0202 6.91665 10.7806 6.76216C11.6461 7.04268 12.0685 6.73375 12.0685 6.73375C11.792 6.97183 11.4343 6.96772 11.2125 6.93353C11.2726 6.96279 11.3352 6.99326 11.4028 7.0291C12.1323 7.42287 12.7881 8.07079 12.9 8.96833V8.96133C13.0699 9.84238 13.4475 10.0685 13.4475 10.0685Z" fill="white"/>
<path id="Vector_10" d="M6.47377 11.0489C6.47377 11.0489 6.72867 11.0171 6.83894 10.9187C7.01094 10.7634 6.99895 10.5838 6.99895 10.5838C6.60929 10.5785 6.35439 10.4466 6.15873 10.2234C5.94942 9.9812 5.9146 9.72046 5.9146 9.72046C5.9146 9.72046 6.1239 9.90911 6.52847 9.90911C6.56496 9.90911 6.60267 9.90746 6.64163 9.90376C6.83355 9.88852 6.96618 9.76742 6.96618 9.76742C6.54423 9.49887 6.24827 9.03012 6.51024 8.3241C6.7204 7.75858 7.22485 7.33595 7.73344 7.01755C7.90256 6.91253 7.99665 6.79594 7.99665 6.69545C7.99665 6.45901 7.65884 6.45119 7.5204 6.29259C7.35997 6.10808 7.46069 5.80861 7.59913 5.62863C7.59913 5.62863 7.55313 5.61914 7.47892 5.61914C7.33303 5.61914 7.07976 5.6554 6.87169 5.86999C6.59479 6.15422 6.70961 6.46355 6.70961 6.46355L6.63542 6.47797C6.59107 6.48744 6.54671 6.48909 6.50152 6.49156C6.49118 6.49156 6.48204 6.49196 6.4721 6.49196C6.06961 6.49196 5.89095 6.07513 5.89095 6.07513C5.89095 6.07513 5.46442 6.59658 6.09242 7.0056C6.2006 7.07563 6.24784 7.14031 6.23542 7.20951L6.22546 7.25482L6.17987 7.26264C5.72517 7.38538 5.49429 7.69763 5.21284 8.05268C4.7863 8.59185 4.18237 8.60957 4.10694 8.60957H4.09863C4.09863 8.60957 4.23666 9.04246 4.6433 9.04246C4.64992 9.04246 4.65572 9.04246 4.66277 9.04207C4.84974 9.03545 4.9459 8.96422 4.9459 8.96422C4.9459 8.96422 5.01801 9.9466 4.28061 10.2514C4.28061 10.2514 4.41491 10.4833 4.72289 10.4833H4.72661C5.09676 10.4812 5.24558 10.2572 5.24558 10.2572C5.24558 10.2572 5.22402 10.5488 5.35665 10.9422C5.51708 11.4163 5.35626 11.7553 5.35626 11.7553C5.35626 11.7553 5.44247 11.7783 5.54154 11.7783C5.58007 11.7783 5.61948 11.7746 5.65636 11.7647C5.96474 11.6918 6.04226 11.4126 6.04226 11.4126C6.04226 11.4126 6.01406 12.3562 7.12122 12.3562H7.1291C7.1291 12.3562 7.0321 12.2244 7.00392 11.8451C6.95085 11.1448 6.47377 11.0489 6.47377 11.0489ZM6.29594 11.2194C5.85116 10.702 5.47108 10.1645 5.4209 9.39012C5.37492 9.53056 5.18587 9.92147 4.8858 10.0685C4.8858 10.0685 5.26299 9.84238 5.43251 8.96133V8.96833C5.54486 8.07121 6.20019 7.42287 6.93014 7.0291C6.99687 6.99283 7.06027 6.96236 7.11997 6.93353C6.89821 6.96772 6.5405 6.97183 6.26403 6.73375C6.26403 6.73375 6.68641 7.04268 7.55146 6.76216C7.31189 6.91665 6.84723 7.13453 6.42194 7.48754C5.35916 8.41515 6.11936 9.32009 6.11936 9.32009C5.73718 8.92384 5.72185 8.49999 5.83418 8.15359C5.63273 8.48638 5.50421 8.88964 5.52496 9.38723C5.55396 10.1002 5.94816 10.7169 6.36227 11.2124C6.56245 11.4525 6.60764 11.7483 6.60764 11.7483C6.60764 11.7483 6.52639 11.4875 6.29594 11.2194Z" fill="white"/>
<path id="Vector_11" d="M8.34769 7.59881C8.36592 7.61816 8.38374 7.63917 8.40074 7.66019C8.4049 7.66514 8.40862 7.66966 8.41274 7.67542C8.4285 7.69644 8.44469 7.71868 8.46 7.74134C8.46332 7.74586 8.46664 7.75122 8.47037 7.75657C8.48902 7.78458 8.50644 7.81341 8.52385 7.84306C8.68344 8.11701 8.93918 8.28051 9.16592 8.28094C9.39307 8.28051 9.64799 8.11701 9.8084 7.84306C9.82622 7.8126 9.84404 7.78295 9.86269 7.75533C9.86561 7.75122 9.8685 7.74751 9.87098 7.74338C9.88674 7.71992 9.90332 7.69685 9.92073 7.67461C9.92446 7.66966 9.92778 7.66555 9.93108 7.66143C9.94892 7.6396 9.96714 7.61816 9.9858 7.5984C9.98914 7.5951 9.9916 7.59223 9.99451 7.58975C10.0757 7.50697 10.1728 7.44394 10.2996 7.40893L10.2432 7.37639H10.2399L10.0152 7.24663L9.78437 7.11523L9.16757 7.44887L9.16592 7.44764L9.16468 7.44887L8.54747 7.11523L8.317 7.24622L8.09194 7.37598H8.08945L8.03223 7.4085C8.15948 7.44353 8.25607 7.50572 8.33774 7.58853C8.34146 7.59183 8.34395 7.59553 8.34769 7.59881ZM8.91639 7.57203H9.17753H9.43823V7.74998C9.3769 7.67542 9.25752 7.69068 9.25752 7.69068V7.94729C9.25752 7.94729 9.26208 8.07332 9.30644 8.12813H9.17753H9.04819C9.09336 8.07373 9.09752 7.94729 9.09752 7.94729V7.69068C9.09752 7.69068 8.97857 7.67542 8.91639 7.74998V7.57203Z" fill="white"/>
<path id="Vector_12" d="M9.11268 7.22754V6.18585L8.44531 5.96094L8.62149 6.97054L9.11268 7.22754ZM8.96925 6.44165V6.60886L8.93693 6.59404C8.93526 6.59282 8.888 6.58208 8.80511 6.51702C8.6683 6.41157 8.66584 6.31437 8.66584 6.31437L8.96925 6.44165Z" fill="white"/>
<path id="Vector_13" d="M9.71131 6.97054L9.88667 5.96094L9.21973 6.18585V7.22754L9.71131 6.97054ZM9.36313 6.44165L9.66655 6.31478C9.66655 6.31478 9.66406 6.41198 9.52686 6.51743C9.44437 6.58251 9.39669 6.5932 9.39505 6.59447L9.36271 6.60929V6.44165H9.36313Z" fill="white"/>
<path id="Vector_14" d="M8.16906 9.64278C8.23413 9.66626 8.3129 9.67123 8.35312 9.67123C8.35477 9.66626 8.35685 9.66009 8.35892 9.65268C8.36265 9.64072 8.36595 9.6292 8.36845 9.61602C8.37963 9.55835 8.38379 9.49286 8.3846 9.45084C8.35725 9.43394 8.3187 9.40388 8.29714 9.35898C8.27227 9.30709 8.23704 9.2832 8.18521 9.2832C8.11809 9.2832 8.04596 9.32316 8.01529 9.3421C7.99083 9.48585 8.09736 9.61643 8.16906 9.64278Z" fill="white"/>
<path id="Vector_15" d="M9.64506 9.08984C9.52112 9.2237 9.27864 9.45685 9.26661 9.46879L9.25211 9.48361L8.48569 9.47166C8.48526 9.54707 8.47284 9.61132 8.4608 9.65826C8.45874 9.6661 8.45667 9.67435 8.45459 9.68257L9.36649 9.84529C9.46143 9.77935 9.72257 9.58987 9.8237 9.51575C9.74992 9.40865 9.74289 9.2818 9.75947 9.1924C9.71137 9.16151 9.67449 9.12693 9.64506 9.08984Z" fill="white"/>
<path id="Vector_16" d="M9.74901 8.1731C9.57243 8.34736 9.40289 8.41161 9.25161 8.42643C9.22426 8.4293 9.19648 8.43095 9.1683 8.43095H9.16622H9.16455C9.13636 8.43095 9.10818 8.4293 9.08083 8.42643C9.05429 8.42397 9.02654 8.41983 8.99874 8.41366C8.9888 8.4528 8.97636 8.53477 9.01204 8.6122C9.04395 8.68264 9.10901 8.73493 9.20393 8.76955L9.23584 8.78191L9.23627 8.81609C9.23627 8.82639 9.24373 9.04798 9.48704 9.10936C9.52683 9.06859 9.5629 9.03193 9.58943 9.00147C9.53968 8.88531 9.56579 8.76666 9.63792 8.7086C9.6346 8.72094 9.60312 9.01175 9.83772 9.11966L9.87625 9.13781L9.86466 9.17856C9.86093 9.19094 9.78259 9.47225 10.0665 9.57687L10.1167 9.59582L10.0943 9.64443C10.0893 9.65515 9.97783 9.91052 10.2402 10.0555H10.8093V9.60654C10.607 9.58183 10.5212 9.42034 10.4993 9.30583C10.4052 9.28979 10.3322 9.24942 10.2825 9.1835C10.1631 9.02741 10.2659 8.88447 10.2671 8.87663C10.2667 8.87789 10.2671 9.03028 10.3616 9.1242C10.4085 9.16949 10.464 9.2045 10.5482 9.21234L10.5896 9.21605L10.5934 9.25806C10.5942 9.26712 10.617 9.47309 10.8097 9.50561L10.8093 8.58874C10.8093 8.44661 10.8512 8.30367 10.9013 8.17188H9.74901V8.1731Z" fill="white"/>
<path id="Vector_17" d="M8.21699 8.59348L8.20166 9.17755L8.26839 9.18745L8.4317 8.62726L8.34879 8.45508L8.21699 8.59348Z" fill="white"/>
<path id="Vector_18" d="M10.0179 11.2726C10.0229 11.2726 10.0287 11.2734 10.0341 11.2747C10.1356 11.3035 10.1613 11.6676 10.3396 11.7002C10.357 11.7039 10.3731 11.7047 10.3872 11.7047C10.4386 11.7047 10.4693 11.6829 10.5025 11.6441C10.5025 11.6441 10.4129 11.5041 10.3458 11.4098C10.2566 11.2862 10.1874 11.1367 10.0216 11.1367C10.0179 11.1367 10.0129 11.1367 10.0088 11.1371C9.95406 11.14 9.9205 11.1664 9.9205 11.1664C9.85334 11.1243 9.79073 11.1099 9.73396 11.1099C9.62992 11.1099 9.54909 11.1573 9.50889 11.1573H9.50722L9.13665 11.121C9.07863 11.1157 9.03303 11.0576 9.01645 11.0349C9.0123 11.0288 9.01022 11.025 9.01022 11.025C9.01022 11.0152 9.01022 11.0049 9.00941 10.9958C8.99697 10.6947 8.76237 10.5658 8.67903 10.5637C8.67903 10.5637 8.68899 10.5065 8.6662 10.4847L8.58454 10.5831L8.31634 10.4492L8.50742 10.6712L8.34536 10.852C8.32506 10.8727 8.32754 10.9007 8.33583 10.9122L8.40589 10.9736L8.49457 10.92C8.49915 10.9167 8.50704 10.9159 8.51695 10.9159C8.54141 10.9159 8.57831 10.9221 8.61147 10.9221C8.64753 10.9221 8.67903 10.9142 8.68278 10.8805C8.67158 10.9921 8.56754 11.1861 8.63594 11.3385L8.68651 11.4534L8.35905 11.4065L8.20568 11.6639C8.15844 11.7496 8.15094 11.8423 8.19654 11.8925L8.25376 11.9638C8.25376 11.9638 8.33418 11.8789 8.35241 11.8233L8.3263 11.7949C8.30433 11.771 8.30557 11.7496 8.31885 11.7237L8.41499 11.5651L8.80173 11.6557L8.82203 11.6211C8.84816 11.5778 8.88588 11.5646 8.92734 11.5646C8.94432 11.5646 8.96174 11.5667 8.97996 11.5696C9.05169 11.5836 9.16982 11.6025 9.28795 11.6025C9.4177 11.6025 9.54618 11.5795 9.61458 11.5033C9.75467 11.7096 10.0386 11.7426 10.0162 11.8472L9.94164 12.2006C9.99096 12.1986 10.0386 12.1953 10.0838 12.1891L10.1547 11.8213C10.1626 11.7813 10.17 11.7274 10.17 11.7274C10.1427 11.6998 10.0763 11.6413 10.039 11.5704C9.98888 11.4749 10.0162 11.425 9.96939 11.3006C9.97106 11.3014 9.98515 11.2726 10.0179 11.2726ZM8.57127 10.7561C8.5522 10.7557 8.53852 10.7396 8.53935 10.7207C8.54102 10.7025 8.55636 10.6881 8.57501 10.6898C8.59407 10.6906 8.60774 10.7071 8.60692 10.7252C8.60525 10.7433 8.58951 10.7573 8.57127 10.7561Z" fill="white"/>
<path id="Vector_19" d="M8.04304 11.6071C8.04304 11.6071 8.17113 11.5548 8.18274 11.5173L8.16575 11.4749C8.15372 11.4473 8.15539 11.4173 8.1786 11.4008L8.31704 11.3056L8.54834 11.3497C8.54834 11.3497 8.50647 11.2978 8.51063 11.2282L8.2901 11.1816L8.08201 11.3077C7.9929 11.374 7.98626 11.4823 8.01569 11.5466L8.04304 11.6071Z" fill="white"/>
<path id="Vector_20" d="M9.67822 12.2056C9.71966 12.204 9.76526 12.2031 9.81544 12.2031C9.81544 12.2031 9.93439 11.8576 9.94103 11.8464C9.87429 11.8172 9.73585 11.7443 9.68238 11.7109C9.71763 11.7632 9.8034 11.8234 9.78642 11.8695L9.67822 12.2056Z" fill="white"/>
<path id="Vector_21" d="M10.8103 10.1562H7.52197V11.3854C7.52197 11.8879 7.88798 12.2026 8.42809 12.2026C8.87949 12.2026 8.99844 12.2199 9.16633 12.3855C9.28196 12.271 9.37773 12.2281 9.57419 12.2121L9.57877 12.1931L9.68239 11.8747C9.67658 11.8677 9.50707 11.6762 9.50707 11.6762C9.43991 11.6984 9.38354 11.7021 9.28862 11.7021C9.19119 11.7021 9.08135 11.691 8.9624 11.6688C8.95036 11.6659 8.93918 11.6651 8.92798 11.6651C8.91348 11.6651 8.91222 11.6663 8.90849 11.6733L8.88776 11.7071L8.85005 11.7689L8.77918 11.7528L8.46373 11.6791L8.42064 11.7499L8.42726 11.7573L8.46581 11.7993L8.44882 11.8541C8.42561 11.9258 8.35016 12.0094 8.32737 12.0325L8.24862 12.1165L8.1769 12.0263L8.12301 11.9592C8.06624 11.8961 8.05296 11.7993 8.08489 11.698C8.08403 11.6988 8.08281 11.6993 8.08157 11.6993L7.99245 11.7359L7.95224 11.6494L7.92405 11.588C7.87554 11.4801 7.89338 11.3223 8.02394 11.2272L8.27805 11.0847L8.51971 11.1321C8.52552 11.109 8.53421 11.0266 8.54124 11.0056C8.5367 11.0052 8.53214 11.0039 8.52757 11.0039L8.3883 11.0554L8.254 10.9632C8.254 10.9632 8.20137 10.9129 8.24901 10.8627L8.37918 10.667L8.04966 10.2559L8.55617 10.4627L8.58975 10.4211L8.65815 10.34L8.73566 10.4133C8.75763 10.4343 8.77005 10.4602 8.77627 10.4862C8.91595 10.5401 9.16592 10.6996 9.18787 10.9587L9.10953 10.99V10.992C9.12737 11.013 9.14228 11.0217 9.14686 11.0225L9.50829 11.0579C9.51741 11.0563 9.52902 11.0521 9.54187 11.0484C9.58665 11.0332 9.6542 11.0114 9.73421 11.0114C9.79928 11.0114 9.86229 11.0262 9.92279 11.0542C9.94517 11.046 9.97254 11.0398 10.004 11.0377L10.0215 11.0373C10.215 11.0373 10.3112 11.1811 10.3883 11.2956C10.4012 11.3153 10.414 11.3343 10.4273 11.3528C10.4948 11.4476 10.5831 11.5864 10.5868 11.5922L10.6266 11.6539L10.5777 11.7104C10.54 11.7536 10.4836 11.8043 10.3866 11.8043C10.3667 11.8043 10.3448 11.8022 10.3211 11.7977C10.3004 11.794 10.2818 11.7878 10.2635 11.7804C10.2606 11.7993 10.2569 11.822 10.2532 11.8414L10.1897 12.17C10.569 12.0774 10.8098 11.7927 10.8098 11.3858L10.8103 10.1562Z" fill="#FFDD2D"/>
<path id="Vector_22" d="M7.52234 10.0583H10.0794C9.95175 9.9273 9.95342 9.76131 9.98617 9.65337C9.94886 9.63566 9.91819 9.61425 9.89084 9.59118C9.79093 9.66449 9.48585 9.88526 9.40627 9.94047L9.38928 9.952L8.38576 9.77159H8.36544C8.34141 9.77159 8.30618 9.77078 8.26763 9.76623C8.25685 9.81114 8.21788 9.84203 8.17311 9.84203C8.16815 9.84203 8.16234 9.84162 8.15694 9.84038C8.13084 9.83584 8.10803 9.82266 8.09269 9.80083C8.07695 9.77943 8.07074 9.75389 8.0753 9.72752L8.07903 9.7061C7.97539 9.6336 7.88007 9.47172 7.92235 9.30119L7.92648 9.28306L7.94098 9.27278C7.94306 9.27113 7.96047 9.2596 7.98619 9.24476L7.91322 9.23364C7.88587 9.22871 7.86763 9.20356 7.87178 9.1768C7.87634 9.14962 7.90204 9.13025 7.92898 9.1356L8.10265 9.16281L8.11841 8.55483L8.37704 8.28296L8.53829 8.62032L8.36794 9.20523L8.52131 9.22912C8.54825 9.23323 8.5669 9.25836 8.56275 9.28596C8.55861 9.31027 8.53788 9.32713 8.51343 9.32713C8.51094 9.32713 8.50803 9.32713 8.50557 9.32675L8.38077 9.30657C8.38244 9.31027 8.38493 9.31231 8.38658 9.31644C8.39985 9.34361 8.42928 9.3634 8.44671 9.37163L9.21187 9.38358C9.24421 9.35228 9.32461 9.274 9.4071 9.19122C9.21891 9.12037 9.15053 8.9589 9.1389 8.8518C9.03364 8.80733 8.9611 8.74059 8.92088 8.65368C8.87196 8.54617 8.8894 8.43867 8.90223 8.38635C8.80026 8.34929 8.69292 8.28174 8.58348 8.17383H7.43115C7.48048 8.30563 7.52234 8.44855 7.52234 8.59067V10.0583Z" fill="#FFDD2D"/>
<path id="Vector_23" d="M8.57527 10.6896C8.55661 10.6879 8.54085 10.7024 8.53963 10.7205C8.53837 10.7394 8.55246 10.7555 8.57154 10.7559C8.58977 10.7575 8.60594 10.7435 8.60759 10.725C8.60759 10.7069 8.59433 10.69 8.57527 10.6896Z" fill="black"/>
<path id="Vector_24" d="M10.8056 12.9181L10.6162 12.846L10.6684 12.6516L10.726 12.4395C10.726 12.4395 10.3903 12.6203 9.91731 12.7562C9.78298 12.7945 9.68144 12.8118 9.68144 12.8118V12.956C9.68144 12.956 9.42858 12.9996 9.17284 12.9996H9.16995H9.16622H9.16123H9.15834C8.90258 12.9996 8.64973 12.956 8.64973 12.956V12.8118C8.64973 12.8118 8.54777 12.7945 8.41389 12.7562C7.94093 12.6203 7.60558 12.4395 7.60558 12.4395L7.66238 12.6516L7.71586 12.846L7.526 12.9181L7.31543 12.9964C7.5571 13.1121 7.8916 13.281 8.19793 13.3642L8.12582 13.5603C8.12582 13.5603 8.51419 13.7361 9.16123 13.7378V13.7382H9.16331H9.16622H9.16871H9.17037V13.7378C9.81823 13.7361 10.2062 13.5603 10.2062 13.5603L10.1337 13.3642C10.44 13.281 10.7753 13.1121 11.0157 12.9964L10.8056 12.9181ZM7.54011 13.0095L7.85181 12.9066L7.7598 12.6079C7.897 12.6854 8.20497 12.8015 8.3832 12.8555L8.23273 13.2661C7.95752 13.1908 7.7283 13.103 7.54011 13.0095ZM9.16622 13.6348C8.80436 13.6348 8.39108 13.552 8.26963 13.5092L8.4545 13.012C8.60787 13.0565 8.92704 13.1039 9.15875 13.1022H9.15917H9.16622H9.17243H9.17327C9.40497 13.1039 9.72331 13.0565 9.87751 13.012L10.062 13.5092C9.9405 13.5524 9.52765 13.6348 9.16622 13.6348ZM10.0989 13.2661L9.94881 12.8555C10.1275 12.8015 10.4346 12.6854 10.5722 12.6079L10.4806 12.9066L10.7919 13.0095C10.6033 13.103 10.3753 13.1908 10.0989 13.2661Z" fill="black"/>
<path id="Vector_25" d="M9.16592 5.15766C9.55142 5.15766 9.85982 5.28453 10.0302 5.42005C10.0302 5.42005 10.0807 5.1173 10.2536 4.84997L9.94313 4.88498L9.78064 4.54187L9.46851 4.70169L9.16592 4.4043L8.86415 4.70169L8.55162 4.54187L8.38956 4.88498L8.0791 4.84997C8.25194 5.1173 8.30252 5.42005 8.30252 5.42005C8.4733 5.28453 8.78084 5.15766 9.16592 5.15766ZM8.37547 5.00527L8.46169 5.01433L8.49898 4.93646L8.6076 4.7058L8.80903 4.80919L8.88696 4.84875L8.94916 4.78778L9.16634 4.57359L9.38396 4.78778L9.44613 4.84875L9.52405 4.80919L9.72425 4.7058L9.83412 4.93646L9.87059 5.01433L9.95681 5.00527L10.0389 4.99538C10.0011 5.07981 9.97339 5.15972 9.9535 5.22604C9.73629 5.10576 9.45359 5.03739 9.16551 5.03739C8.87867 5.03739 8.5964 5.10576 8.37838 5.22604C8.35806 5.15972 8.33071 5.07941 8.29299 4.99538L8.37547 5.00527Z" fill="black"/>
<path id="Vector_26" d="M13.689 9.17563C14.1877 9.17563 14.3543 8.67146 14.3614 8.65004L14.4169 8.47252L14.23 8.47828H14.2292C14.1632 8.47828 13.6132 8.46386 13.2231 7.97123L13.1862 7.92551C12.9313 7.6034 12.6897 7.29736 12.2578 7.15772C12.2702 7.1466 12.288 7.13259 12.3125 7.11693C12.5417 6.96701 12.6752 6.78495 12.7087 6.57365C12.7577 6.25564 12.5537 6.00232 12.5446 5.99203L12.4057 5.82151L12.3191 6.02375C12.3133 6.03652 12.1674 6.36029 11.8607 6.36029H11.8379C11.8167 6.35903 11.7968 6.35821 11.7769 6.35658C11.7877 6.21199 11.7612 5.98832 11.5573 5.77867C11.3123 5.52617 11.0114 5.48828 10.8538 5.48828C10.7697 5.48828 10.7137 5.49857 10.7079 5.4994L10.4982 5.54059L10.6275 5.70988C10.7291 5.84046 10.8211 6.08142 10.7121 6.20747C10.6773 6.24741 10.6055 6.27995 10.5367 6.31249C10.3954 6.37715 10.2026 6.46696 10.2026 6.69596C10.2026 6.84425 10.3183 6.99915 10.528 7.13094C11.149 7.51897 11.532 7.92386 11.6974 8.37078C11.9531 9.05824 11.6194 9.45036 11.2953 9.65674L11.1498 9.7498L11.277 9.86596C11.294 9.88081 11.4499 10.0171 11.6799 10.0369C11.7235 10.0398 11.7653 10.0423 11.8043 10.0423C11.9518 10.0423 12.0775 10.0192 12.1794 9.98831C12.1512 10.0373 12.1168 10.0872 12.0733 10.1374C11.888 10.3508 11.66 10.448 11.3322 10.453L11.2103 10.455L11.2008 10.5765C11.1995 10.6008 11.1904 10.8261 11.4051 11.0177C11.4379 11.0473 11.4777 11.0716 11.5191 11.0918C11.3736 11.222 11.2256 11.4485 11.1971 11.8369C11.173 12.1611 11.0951 12.281 11.0942 12.2822L10.9595 12.4865L11.2029 12.4898C11.6049 12.4898 11.9129 12.3794 12.1264 12.1611C12.2524 12.0318 12.3245 11.886 12.3672 11.7566C12.4372 11.8159 12.5276 11.8678 12.6453 11.8954C12.6901 11.9057 12.739 11.9115 12.7916 11.9115C12.9052 11.9115 13.0001 11.8876 13.0109 11.8851L13.1663 11.8439L13.0976 11.6998C13.0926 11.6882 12.9628 11.3991 13.1025 10.9864C13.1626 10.808 13.1933 10.6482 13.2082 10.5238C13.3061 10.5745 13.437 10.6165 13.6065 10.6169C13.9912 10.6169 14.1608 10.3314 14.1686 10.3195L14.2445 10.1885L14.104 10.1308C13.6455 9.94176 13.544 9.43389 13.5237 9.15874C13.5651 9.16656 13.6124 9.17398 13.6658 9.17563H13.689ZM14.0526 10.2524C14.0526 10.2524 13.9183 10.4843 13.6103 10.4843H13.6065C13.2368 10.4822 13.0876 10.2581 13.0876 10.2581C13.0876 10.2581 13.1092 10.5497 12.9757 10.9431C12.8153 11.4172 12.9769 11.7562 12.9769 11.7562C12.9769 11.7562 12.8907 11.7793 12.7912 11.7793C12.7531 11.7793 12.7133 11.7756 12.676 11.7657C12.3672 11.6928 12.2901 11.4135 12.2901 11.4135C12.2901 11.4135 12.3187 12.3572 11.2116 12.3572H11.2029C11.2029 12.3572 11.3002 12.2254 11.3293 11.846C11.3819 11.1458 11.859 11.0498 11.859 11.0498C11.859 11.0498 11.6045 11.0181 11.4942 10.9196C11.3218 10.7643 11.3338 10.5847 11.3338 10.5847C11.7235 10.5794 11.9784 10.4476 12.1728 10.2239C12.3834 9.98172 12.4182 9.72099 12.4182 9.72099C12.4182 9.72099 12.2088 9.90965 11.8039 9.90965C11.7682 9.90965 11.7301 9.908 11.6911 9.90429C11.4996 9.88906 11.367 9.76795 11.367 9.76795C11.7885 9.49938 12.0845 9.03065 11.8221 8.32463C11.612 7.75909 11.1071 7.33648 10.5989 7.01806C10.4298 6.91306 10.3357 6.79648 10.3357 6.69596C10.3357 6.45955 10.6739 6.45213 10.8128 6.29313C10.9728 6.10861 10.8725 5.80914 10.7336 5.62915C10.7336 5.62915 10.7805 5.61967 10.8543 5.61967C11.0006 5.61967 11.2538 5.65632 11.4619 5.87051C11.7384 6.15473 11.6236 6.46407 11.6236 6.46407L11.6978 6.47848C11.7421 6.48795 11.7861 6.4896 11.8317 6.49166C11.8416 6.49166 11.8515 6.49209 11.8615 6.49209C12.2631 6.49209 12.4426 6.07483 12.4426 6.07483C12.4426 6.07483 12.8696 6.5967 12.2412 7.0053C12.133 7.07533 12.0853 7.14001 12.0978 7.20921L12.1077 7.25452L12.1525 7.26234C12.608 7.38507 12.8385 7.69732 13.1199 8.05238C13.5473 8.59239 14.1521 8.60967 14.2267 8.60967H14.2345C14.2345 8.60967 14.0965 9.04258 13.6899 9.04258C13.6832 9.04258 13.6774 9.04258 13.6704 9.04218C13.4834 9.03558 13.3877 8.96432 13.3877 8.96432C13.3877 8.96432 13.3143 9.94752 14.0526 10.2524Z" fill="black"/>
<path id="Vector_27" d="M12.8131 7.21212C12.9992 7.31059 13.1074 7.44239 13.2023 7.55936C13.2956 7.67346 13.3843 7.78343 13.5227 7.82915C13.572 7.84605 13.6243 7.85387 13.6773 7.85387C13.8854 7.85387 14.0943 7.72741 14.1735 7.55235L14.2531 7.37689L14.0603 7.36535C14.0512 7.36494 13.8033 7.3427 13.5273 7.0622C13.4137 6.94728 13.2765 6.88672 13.1285 6.88672C12.9478 6.88672 12.8139 6.97653 12.799 6.98557L12.6216 7.10957L12.8131 7.21212ZM13.1289 7.01935C13.2218 7.01935 13.33 7.05067 13.4324 7.15569C13.7536 7.47988 14.0524 7.49798 14.0524 7.49798C13.9981 7.61744 13.8406 7.72248 13.6777 7.72248C13.64 7.72248 13.6023 7.7167 13.5646 7.70393C13.3436 7.62978 13.2645 7.30026 12.8761 7.09515C12.8761 7.09515 12.9847 7.01935 13.1289 7.01935Z" fill="black"/>
<path id="Vector_28" d="M12.9001 8.96236V8.96894C12.7882 8.07182 12.1325 7.4239 11.4029 7.0297C11.3353 6.99386 11.2732 6.96339 11.2127 6.93415C11.4349 6.96832 11.7926 6.97246 12.0686 6.73438C12.0686 6.73438 11.6462 7.04331 10.7808 6.7628C11.0203 6.91725 11.4858 7.13517 11.9107 7.48815C12.9731 8.41577 12.2129 9.32071 12.2129 9.32071C12.5946 8.92487 12.6104 8.50061 12.498 8.15421C12.6991 8.4866 12.8276 8.89027 12.8077 9.38785C12.7783 10.1009 12.3841 10.7175 11.9691 11.213C11.7698 11.4535 11.725 11.7489 11.725 11.7489C11.725 11.7489 11.8054 11.4881 12.0363 11.22C12.4811 10.7027 12.8611 10.1651 12.9109 9.39073C12.9569 9.5312 13.1463 9.9221 13.4468 10.0692C13.4477 10.0696 13.0701 9.84341 12.9001 8.96236Z" fill="black"/>
<path id="Vector_29" d="M7.23847 12.2822C7.23804 12.281 7.16096 12.1611 7.1361 11.8369C7.10706 11.4485 6.9595 11.222 6.81361 11.0918C6.85588 11.072 6.89484 11.0477 6.92759 11.0177C7.1419 10.8261 7.13278 10.6008 7.13154 10.5765L7.12325 10.455L7.00055 10.453C6.6735 10.4476 6.44511 10.3504 6.25981 10.1374C6.21672 10.0872 6.1819 10.0373 6.15369 9.98831C6.25568 10.0192 6.38045 10.0423 6.52842 10.0423C6.56821 10.0423 6.60925 10.0398 6.65277 10.0369C6.88283 10.0171 7.0387 9.88122 7.05609 9.86596L7.18334 9.7498L7.03786 9.65674C6.71248 9.44995 6.38002 9.05782 6.63536 8.37076C6.80076 7.92386 7.18334 7.51897 7.80509 7.13094C8.01483 6.99914 8.12966 6.84425 8.12966 6.69596C8.12966 6.46696 7.93732 6.37676 7.79599 6.31249C7.72718 6.27995 7.65548 6.24741 7.62063 6.20747C7.51121 6.08182 7.60365 5.84046 7.7048 5.70988L7.83495 5.54059L7.62438 5.4994C7.61817 5.49857 7.56304 5.48828 7.47847 5.48828C7.32097 5.48828 7.02086 5.52617 6.77546 5.77867C6.57113 5.98875 6.54416 6.2124 6.55455 6.35658C6.53463 6.35821 6.51476 6.35902 6.49403 6.36029H6.47164C6.16408 6.36029 6.01859 6.03652 6.01279 6.02375L5.92616 5.82151L5.78603 5.99203C5.77817 6.00232 5.57341 6.25606 5.62314 6.57365C5.65631 6.78495 5.78978 6.96701 6.019 7.11693C6.04387 7.13257 6.06128 7.1466 6.07372 7.15772C5.6422 7.29736 5.40098 7.60381 5.14604 7.92591L5.10916 7.97163C4.71952 8.46427 4.16824 8.47869 4.10233 8.47869L3.91455 8.47293L3.97175 8.65044C3.97838 8.67187 4.1446 9.17603 4.64366 9.17603L4.66771 9.1752C4.72036 9.17357 4.7676 9.16656 4.8099 9.15833C4.78917 9.43305 4.68761 9.94094 4.22874 10.1304L4.08865 10.1881L4.16451 10.3191C4.17196 10.331 4.34192 10.6165 4.7274 10.6165C4.89567 10.616 5.02666 10.574 5.1249 10.5234C5.13982 10.6478 5.17049 10.8076 5.23061 10.9859C5.37029 11.3987 5.24016 11.6878 5.23517 11.6994L5.16638 11.8435L5.32221 11.8847C5.33257 11.8872 5.42833 11.9111 5.54149 11.9111C5.59454 11.9111 5.64346 11.9053 5.68741 11.895C5.80552 11.8674 5.89671 11.8155 5.96595 11.7562C6.00821 11.8855 6.08077 12.0313 6.20636 12.1607C6.42024 12.379 6.72781 12.4894 7.12987 12.4894L7.37361 12.4861L7.23847 12.2822ZM7.12074 12.3576C6.01361 12.3576 6.04181 11.4139 6.04181 11.4139C6.04181 11.4139 5.96469 11.6932 5.65588 11.7661C5.619 11.776 5.57962 11.7797 5.54109 11.7797C5.44159 11.7797 5.35579 11.7566 5.35579 11.7566C5.35579 11.7566 5.51663 11.4176 5.3562 10.9435C5.22356 10.5501 5.24511 10.2585 5.24511 10.2585C5.24511 10.2585 5.09631 10.4826 4.72616 10.4846H4.72243C4.41444 10.4846 4.28013 10.2527 4.28013 10.2527C5.01796 9.94836 4.94542 8.96554 4.94542 8.96554C4.94542 8.96554 4.84969 9.03641 4.66232 9.0434C4.6557 9.04382 4.64947 9.04382 4.64285 9.04382C4.2358 9.04382 4.09818 8.61092 4.09818 8.61092H4.10646C4.18149 8.61092 4.78544 8.59361 5.21279 8.0536C5.49423 7.69854 5.72512 7.38672 6.17984 7.26358L6.22544 7.25576L6.23536 7.21045C6.24782 7.14125 6.20055 7.07657 6.09238 7.00656C5.46397 6.59753 5.89091 6.07606 5.89091 6.07606C5.89091 6.07606 6.06957 6.4929 6.47207 6.4929C6.48199 6.4929 6.49111 6.49249 6.50148 6.49249C6.54667 6.49001 6.59145 6.48838 6.63536 6.47889L6.70956 6.46447C6.70956 6.46447 6.59475 6.15513 6.87165 5.87094C7.07973 5.65632 7.33298 5.62009 7.47888 5.62009C7.55308 5.62009 7.59911 5.62955 7.59911 5.62955C7.46065 5.80997 7.36035 6.10901 7.52034 6.29355C7.65878 6.45213 7.9966 6.45995 7.9966 6.69638C7.9966 6.79648 7.90252 6.91345 7.73339 7.01849C7.22479 7.33691 6.71993 7.75951 6.51017 8.32504C6.24823 9.03106 6.54378 9.49938 6.96616 9.76835C6.96616 9.76835 6.8335 9.88946 6.64159 9.9047C6.60263 9.9084 6.56491 9.91003 6.52842 9.91003C6.12386 9.91003 5.91455 9.72139 5.91455 9.72139C5.91455 9.72139 5.94936 9.98212 6.15868 10.2243C6.35435 10.448 6.60925 10.5798 6.9989 10.5852C6.9989 10.5852 7.01133 10.7647 6.8389 10.92C6.72822 11.0181 6.47372 11.0502 6.47372 11.0502C6.47372 11.0502 6.95123 11.1462 7.00344 11.8464C7.03206 12.2258 7.12863 12.3576 7.12863 12.3576H7.12074Z" fill="black"/>
<path id="Vector_30" d="M4.65499 7.85346C4.70844 7.85346 4.76068 7.84564 4.81002 7.82874C4.94928 7.78302 5.03758 7.67303 5.13085 7.55895C5.22617 7.44198 5.33353 7.31016 5.51965 7.21172L5.71113 7.10955L5.53333 6.98559C5.5184 6.97612 5.38493 6.88672 5.20463 6.88672C5.05623 6.88672 4.91863 6.94688 4.80544 7.0622C4.5294 7.34229 4.28195 7.36496 4.27281 7.36537L4.08008 7.37647L4.15924 7.55235C4.23882 7.72659 4.44731 7.85346 4.65499 7.85346ZM4.90038 7.15529C5.00318 7.05027 5.11136 7.01895 5.20463 7.01895C5.34803 7.01895 5.45666 7.09472 5.45666 7.09472C5.06865 7.30028 4.98907 7.62937 4.76732 7.70354C4.73085 7.71629 4.6927 7.72207 4.65499 7.72207C4.49209 7.72207 4.33457 7.61744 4.28069 7.49757C4.28069 7.49717 4.57913 7.47904 4.90038 7.15529Z" fill="black"/>
<path id="Vector_31" d="M5.52484 9.38785C5.50409 8.89027 5.63261 8.4866 5.83404 8.15421C5.72173 8.50061 5.73706 8.92487 6.11924 9.32071C6.11924 9.32071 5.35903 8.41577 6.42182 7.48815C6.84711 7.13517 7.31218 6.91725 7.55134 6.7628C6.68629 7.04331 6.26391 6.73438 6.26391 6.73438C6.53995 6.97246 6.89768 6.96832 7.11985 6.93372C7.05976 6.96297 6.99675 6.99347 6.93 7.02929C6.19964 7.42349 5.54431 8.07143 5.432 8.96853V8.96152C5.26245 9.84259 4.88525 10.0687 4.88525 10.0687C5.18537 9.92167 5.37437 9.5312 5.42039 9.39032C5.47053 10.1647 5.85063 10.7022 6.2954 11.2196C6.52627 11.4877 6.60752 11.7485 6.60752 11.7485C6.60752 11.7485 6.56233 11.4531 6.36213 11.2126C5.94804 10.7179 5.55384 10.1009 5.52484 9.38785Z" fill="black"/>
<path id="Vector_32" d="M8.91602 7.57227V7.75021C8.9778 7.67564 9.09718 7.69089 9.09718 7.69089V7.9475C9.09718 7.9475 9.09302 8.07354 9.04786 8.12834H9.17715H9.30608C9.26172 8.07395 9.25716 7.9475 9.25716 7.9475V7.69089C9.25716 7.69089 9.37654 7.67564 9.4379 7.75021V7.57227H9.17715H8.91602Z" fill="black"/>
<path id="Vector_33" d="M8.80482 6.51712C8.8873 6.58221 8.93497 6.59292 8.93662 6.59414L8.96896 6.60897V6.44132L8.66553 6.31445C8.66553 6.31488 8.66844 6.41167 8.80482 6.51712Z" fill="black"/>
<path id="Vector_34" d="M9.52701 6.51712C9.66423 6.41167 9.66669 6.31445 9.66669 6.31445L9.36328 6.44132V6.60897L9.39521 6.59414C9.39729 6.59292 9.44454 6.58221 9.52701 6.51712Z" fill="black"/>
<path id="Vector_35" d="M10.0736 5.8343C10.0736 5.58017 9.64292 5.35156 9.16749 5.35156H9.16709H9.16584H9.16458C8.68915 5.35156 8.2585 5.58017 8.2585 5.8343L8.26803 5.89692L8.45785 6.97981L8.2672 7.08978L7.77393 7.37606H7.77558C7.77558 7.37606 7.66451 7.43249 7.61311 7.4675C7.42533 7.59726 7.38553 7.78631 7.49457 7.86459C7.52151 7.71051 7.64418 7.54906 7.87384 7.54906C8.03922 7.54906 8.16523 7.63392 8.2672 7.7612C8.2933 7.79331 8.31817 7.82751 8.34138 7.86459C8.37 7.91112 8.39859 7.95189 8.4272 7.99144H7.15674C7.25001 8.17802 7.3387 8.37574 7.3387 8.59036V11.3847C7.3387 12.061 7.86223 12.384 8.42844 12.384C8.86616 12.384 8.92501 12.3642 9.16666 12.6031C9.40706 12.3638 9.46594 12.384 9.90406 12.384C10.4707 12.384 10.9934 12.061 10.9934 11.3847V8.59036C10.9934 8.37574 11.0821 8.17802 11.1758 7.99144H9.90491C9.9331 7.95232 9.96169 7.91112 9.9903 7.86459C10.0139 7.82751 10.0384 7.79331 10.0641 7.7612C10.1669 7.63349 10.2925 7.54906 10.4579 7.54906C10.6875 7.54906 10.8098 7.7101 10.8371 7.86459C10.9461 7.78631 10.9068 7.59726 10.7177 7.4675C10.6672 7.43249 10.5561 7.37606 10.5561 7.37606H10.5577L10.0645 7.08978L9.87465 6.97981L10.0645 5.89692L10.0736 5.8343ZM8.44543 5.96035L9.11279 6.18525V7.22696L8.6216 6.96953L8.44543 5.96035ZM8.58346 8.17309C8.69288 8.28141 8.80026 8.34857 8.90222 8.38564C8.88895 8.43793 8.87154 8.54587 8.92086 8.65337C8.96108 8.73986 9.03402 8.80659 9.1389 8.85109C9.15051 8.95819 9.21849 9.11923 9.40706 9.1905C9.32459 9.27329 9.24417 9.35112 9.21144 9.38285L8.44667 9.37091C8.42928 9.36224 8.39983 9.34289 8.38657 9.3153C8.3849 9.31159 8.38242 9.30954 8.38118 9.3054L8.50595 9.32558C8.50886 9.32601 8.51133 9.32601 8.51383 9.32601C8.53786 9.32601 8.559 9.30954 8.56315 9.28483C8.56731 9.25722 8.54866 9.23209 8.52171 9.22798L8.36835 9.20409L8.5387 8.61961L8.37745 8.28225L8.1188 8.55409L8.10306 9.16208L7.92937 9.13489C7.90241 9.12953 7.87673 9.14931 7.87219 9.17609C7.86803 9.20285 7.88626 9.22798 7.91363 9.23292L7.98657 9.24404C7.96047 9.25887 7.94346 9.27039 7.94138 9.27204L7.92648 9.28235L7.92232 9.30047C7.88005 9.47099 7.9758 9.63288 8.07901 9.70536L8.07526 9.7268C8.07115 9.75314 8.07693 9.77867 8.09267 9.80012C8.1076 9.82195 8.13082 9.83512 8.15652 9.83964C8.16191 9.84048 8.16772 9.84089 8.17268 9.84089C8.21745 9.84089 8.25642 9.80999 8.2676 9.76511C8.30615 9.76961 8.34139 9.77045 8.36542 9.77045H8.38574L9.38926 9.95045L9.40625 9.93933C9.48626 9.88371 9.79091 9.66294 9.8908 9.59004C9.91817 9.61352 9.94884 9.63492 9.98615 9.65266C9.95381 9.76057 9.95173 9.92656 10.0798 10.0575H7.52232V8.59075C7.52232 8.44864 7.48045 8.30573 7.43113 8.17393H8.58346V8.17309ZM9.82366 9.51505C9.7221 9.5892 9.46097 9.77867 9.36645 9.84459L8.45455 9.6819C8.45663 9.67365 8.45868 9.66583 8.46076 9.65759C8.4728 9.61065 8.48481 9.54637 8.48565 9.47099L9.25205 9.48337L9.26657 9.46852C9.27817 9.45699 9.52106 9.22386 9.645 9.08956C9.67443 9.12623 9.71133 9.16126 9.75943 9.19213C9.74283 9.28113 9.74988 9.40798 9.82366 9.51505ZM8.29703 9.35815C8.3186 9.40303 8.35755 9.43311 8.3845 9.44999C8.38368 9.492 8.37953 9.55749 8.36835 9.61517C8.36584 9.62793 8.36252 9.63989 8.3588 9.65182C8.35672 9.65924 8.35466 9.66543 8.35299 9.67035C8.31279 9.67035 8.23362 9.66543 8.16896 9.64195C8.09725 9.61557 7.9903 9.485 8.01517 9.34124C8.04626 9.3223 8.11797 9.28235 8.18511 9.28235C8.23694 9.28194 8.27217 9.30624 8.29703 9.35815ZM8.20211 9.17731L8.21745 8.59364L8.34927 8.45484L8.43217 8.62702L8.26885 9.18719L8.20211 9.17731ZM9.81537 12.2032C9.76562 12.2032 9.71964 12.204 9.67815 12.2056L9.78676 11.8699C9.80376 11.8234 9.71795 11.7636 9.68274 11.7113C9.73619 11.7447 9.87465 11.8176 9.94139 11.8469C9.93432 11.8576 9.81537 12.2032 9.81537 12.2032ZM10.1561 11.8217L10.0852 12.1891C10.04 12.1953 9.99195 12.1986 9.94263 12.2007L10.0172 11.8473C10.0396 11.7422 9.75568 11.7097 9.61557 11.5033C9.54719 11.5799 9.41828 11.6026 9.28895 11.6026C9.17081 11.6026 9.0527 11.5836 8.98095 11.5696C8.96273 11.5668 8.94532 11.5647 8.92833 11.5647C8.88687 11.5647 8.84915 11.5775 8.82305 11.6211L8.80232 11.6557L8.41559 11.5651L8.31941 11.7233C8.30575 11.7488 8.30491 11.7707 8.32689 11.7945L8.35299 11.8229C8.33517 11.879 8.25477 11.9634 8.25477 11.9634L8.19714 11.8922C8.15155 11.8415 8.159 11.7492 8.20667 11.6636L8.36004 11.4061L8.6875 11.4531L8.63651 11.3377C8.56812 11.1853 8.67217 10.9913 8.68335 10.8797C8.67962 10.9135 8.64854 10.9209 8.61205 10.9209C8.57892 10.9209 8.54202 10.9147 8.51756 10.9147C8.50803 10.9147 8.49972 10.9155 8.49518 10.9188L8.40647 10.9724L8.3364 10.911C8.32813 10.8991 8.32522 10.8715 8.34595 10.8509L8.50803 10.6705L8.31652 10.4484L8.5847 10.5823L8.66636 10.4839C8.68874 10.5057 8.67921 10.563 8.67921 10.563C8.76293 10.565 8.99755 10.6939 9.00999 10.9946C9.01083 11.0037 9.01083 11.014 9.01083 11.0239C9.01083 11.0239 9.01291 11.0276 9.01702 11.0338C9.03362 11.0564 9.07921 11.1145 9.13723 11.1198L9.5078 11.1561H9.50945C9.55008 11.1561 9.63091 11.1087 9.73454 11.1087C9.79091 11.1087 9.85392 11.1231 9.92106 11.1652C9.92106 11.1652 9.95464 11.1388 10.0094 11.1359C10.0135 11.1355 10.0181 11.1355 10.0222 11.1355C10.1884 11.1355 10.2572 11.2846 10.3464 11.4086C10.4135 11.5029 10.503 11.643 10.503 11.643C10.4699 11.6821 10.4392 11.7035 10.3878 11.7035C10.3737 11.7035 10.3575 11.7023 10.3401 11.699C10.1619 11.6664 10.1362 11.3023 10.0346 11.2735C10.0293 11.2718 10.0235 11.2714 10.0185 11.2714C9.98572 11.2714 9.97122 11.3003 9.97122 11.3003C10.0176 11.4243 9.99071 11.4745 10.0404 11.5701C10.0778 11.6409 10.1441 11.6994 10.1714 11.727C10.1714 11.7278 10.164 11.7814 10.1561 11.8217ZM8.16605 11.4741L8.18303 11.5165C8.17185 11.5536 8.04335 11.6063 8.04335 11.6063L8.01559 11.5462C7.98615 11.4819 7.99238 11.3736 8.08192 11.3073L8.28998 11.1812L8.51051 11.2278C8.50636 11.2974 8.54823 11.3493 8.54823 11.3493L8.31693 11.3052L8.17849 11.4003C8.15527 11.4164 8.15362 11.4465 8.16605 11.4741ZM10.1909 12.169L10.2543 11.8403C10.2576 11.8209 10.2618 11.7982 10.2647 11.7793C10.2825 11.7867 10.3016 11.7929 10.3223 11.7966C10.3459 11.8011 10.3679 11.8032 10.3878 11.8032C10.4848 11.8032 10.5412 11.7525 10.5789 11.7093L10.6278 11.6528L10.588 11.5911C10.5843 11.5849 10.4964 11.4465 10.4284 11.3517C10.4152 11.3332 10.4023 11.3147 10.3894 11.2945C10.3124 11.18 10.2158 11.0362 10.0222 11.0362L10.0048 11.0366C9.97289 11.0387 9.94552 11.0449 9.92355 11.0531C9.86262 11.0247 9.80004 11.0103 9.73497 11.0103C9.65496 11.0103 9.58739 11.0321 9.54263 11.0474C9.52978 11.0511 9.51817 11.0552 9.50905 11.0568L9.14719 11.0214C9.14263 11.0206 9.1277 11.0119 9.10988 10.9905V10.9889L9.18822 10.9576C9.16627 10.6985 8.91589 10.5391 8.77619 10.4851C8.77 10.4592 8.75755 10.4332 8.73558 10.4122L8.65765 10.3389L8.58926 10.4204L8.5557 10.462L8.04915 10.2553L8.37869 10.6663L8.24854 10.862C8.20087 10.9122 8.25351 10.9625 8.25351 10.9625L8.3878 11.0543L8.52709 11.0029C8.53206 11.0029 8.53621 11.0041 8.54077 11.0045C8.53414 11.0255 8.52544 11.1079 8.51964 11.131L8.27797 11.0836L8.02386 11.2261C7.8933 11.3213 7.87548 11.479 7.92397 11.5869L7.95216 11.6483L7.99238 11.7348L8.08106 11.6982C8.08233 11.6977 8.08357 11.6973 8.08438 11.6965C8.05247 11.7978 8.06534 11.8942 8.12253 11.9576L8.17641 12.0252L8.24812 12.1154L8.32689 12.0314C8.35008 12.0083 8.42512 11.9247 8.44832 11.853L8.46534 11.7982L8.42677 11.7562L8.42056 11.7488L8.46365 11.678L8.7791 11.7517L8.84997 11.7678L8.8877 11.706L8.90844 11.6722C8.91216 11.6652 8.9134 11.664 8.9279 11.664C8.9391 11.664 8.9503 11.6652 8.96232 11.6677C9.08127 11.6899 9.19112 11.701 9.28854 11.701C9.38303 11.701 9.4394 11.6973 9.50699 11.6751C9.50699 11.6751 9.6765 11.8662 9.68231 11.8736L9.57869 12.1916L9.57411 12.211C9.37766 12.2266 9.2819 12.2695 9.16627 12.3844C8.99837 12.2188 8.87942 12.2015 8.42802 12.2015C7.88791 12.2015 7.52189 11.8868 7.52189 11.3843V10.1556H10.8098L10.8106 11.3843C10.811 11.7921 10.5702 12.0763 10.1909 12.169ZM10.9018 8.17309C10.8516 8.30491 10.8098 8.44783 10.8098 8.58993L10.8102 9.50683C10.6174 9.47469 10.5946 9.26834 10.5938 9.25928L10.5901 9.21726L10.5486 9.21356C10.4649 9.20572 10.4094 9.17032 10.3625 9.12499C10.268 9.03107 10.2676 8.87868 10.268 8.87746C10.2668 8.88526 10.164 9.0282 10.2833 9.18431C10.3335 9.25021 10.406 9.29058 10.5001 9.30666C10.5221 9.42115 10.6079 9.58262 10.8102 9.60733V10.0563H10.2415C9.9791 9.91131 10.0902 9.65594 10.0956 9.64524L10.1179 9.59661L10.0678 9.5777C9.78387 9.47304 9.8618 9.19132 9.86594 9.17939L9.87754 9.13819L9.83901 9.12006C9.60437 9.01215 9.6363 8.72094 9.6392 8.70896C9.56709 8.76706 9.54098 8.88569 9.59071 9.00185C9.56377 9.03233 9.5277 9.06938 9.48834 9.10976C9.24543 9.04838 9.23797 8.82637 9.23797 8.81608L9.23755 8.78189L9.20564 8.76953C9.11072 8.7345 9.04563 8.68221 9.01372 8.61176C8.97765 8.53391 8.9905 8.45235 9.00044 8.41323C9.02822 8.4194 9.056 8.42394 9.08253 8.426C9.10988 8.42887 9.13807 8.43052 9.16627 8.43052H9.16792H9.17C9.19818 8.43052 9.22594 8.42887 9.25331 8.426C9.4046 8.41117 9.57411 8.3465 9.75069 8.17266H10.9018V8.17309ZM10.0156 7.2463L10.2402 7.37606H10.2436L10.2999 7.40861C10.1731 7.44361 10.0761 7.50664 9.99484 7.58942C9.99195 7.59191 9.98904 7.59519 9.98615 7.59808C9.96749 7.61785 9.94884 7.63928 9.93143 7.66109C9.92813 7.66522 9.92479 7.66974 9.92106 7.67428C9.90365 7.69652 9.8875 7.71919 9.87174 7.74307C9.86926 7.74719 9.86634 7.7513 9.86345 7.75501C9.84482 7.7826 9.82698 7.81227 9.80914 7.84274C9.64916 8.11666 9.3938 8.28019 9.16666 8.2806C8.93994 8.28019 8.68461 8.11666 8.5246 7.84274C8.50717 7.81311 8.48978 7.78425 8.47113 7.75623C8.46738 7.75089 8.46408 7.74554 8.46076 7.74102C8.44502 7.71835 8.42928 7.69611 8.41309 7.6751C8.40895 7.66933 8.40523 7.66481 8.40107 7.65986C8.38368 7.63885 8.36584 7.61785 8.348 7.59849C8.34428 7.59561 8.34181 7.59191 8.33809 7.58859C8.25642 7.50581 8.15983 7.44319 8.03258 7.40861L8.08978 7.37606H8.09227L8.31693 7.2463L8.54782 7.11493L9.16458 7.44854L9.16584 7.44732L9.16749 7.44854L9.78427 7.11493L10.0156 7.2463ZM9.71133 6.96991L9.21971 7.22734V6.18525L9.88665 5.96035L9.71133 6.96991ZM9.16627 6.07075L8.43506 5.78365C8.49725 5.63742 8.78407 5.51302 9.16627 5.51262C9.54884 5.51302 9.83567 5.63742 9.89744 5.78365L9.16627 6.07075Z" fill="black"/>
</g>
</g>
<defs>
<clipPath id="clip0_1761_137492">
<rect width="11.7285" height="11.7285" fill="white" transform="translate(3.13574 3.13477)"/>
</clipPath>
</defs>
</svg>
