<svg width="20" height="20" viewBox="0 0 20 20" fill="none" xmlns="http://www.w3.org/2000/svg">
<g id="Icons / Payment / YouMoney">
<path id="Vector" d="M18.0767 10.0008C18.0767 5.53999 14.4605 1.92383 9.99977 1.92383C5.53901 1.92383 1.92285 5.53999 1.92285 10.0008C1.92285 14.4615 5.53901 18.0777 9.99977 18.0777C14.4605 18.0777 18.0767 14.4615 18.0767 10.0008Z" fill="#8B3FFD"/>
<path id="Vector_2" d="M11.2112 6.56641C9.18689 6.56641 7.57666 8.19968 7.57666 10.201C7.57666 12.2254 9.20989 13.8356 11.2112 13.8356C13.2124 13.8356 14.8457 12.2024 14.8457 10.201C14.8687 8.19968 13.2124 6.56641 11.2112 6.56641ZM11.2112 11.5583C10.475 11.5583 9.85397 10.9372 9.85397 10.201C9.85397 9.46491 10.475 8.84379 11.2112 8.84379C11.9472 8.84379 12.5684 9.46491 12.5684 10.201C12.5684 10.9372 11.9703 11.5583 11.2112 11.5583Z" fill="white"/>
<path id="Vector_3" d="M7.57692 7.375V13.0288H6.3278L4.75 7.375H7.57692Z" fill="white"/>
</g>
</svg>
