<svg width="180" height="64" viewBox="0 0 180 64" fill="none" xmlns="http://www.w3.org/2000/svg">
<g clip-path="url(#clip0_261_1204)">
<path d="M147.46 64C165.43 64 179.997 49.6731 179.997 32C179.997 14.3269 165.43 0 147.46 0C129.489 0 114.922 14.3269 114.922 32C114.922 49.6731 129.489 64 147.46 64Z" fill="#86F9D7"/>
<path fill-rule="evenodd" clip-rule="evenodd" d="M150.924 13.0945L170.243 42.2381C172.217 44.9649 169.845 48.1506 167.133 48.1506H128.345C127.017 48.1506 125.714 47.4526 125.021 46.2037C124.318 44.9364 124.433 43.4471 125.175 42.3281L144.553 13.0946C145.364 11.8455 146.684 11.3755 147.739 11.3755C148.794 11.3755 150.113 11.8455 150.924 13.0945ZM150.847 17.2055L150.884 17.15C150.872 17.1687 150.859 17.1872 150.847 17.2055ZM144.594 17.1498L144.631 17.2056C144.618 17.1872 144.606 17.1686 144.594 17.1498ZM147.739 21.8947L160.191 40.6798H135.287L147.739 21.8947ZM164.038 46.4835C164.008 46.4406 163.98 46.3974 163.952 46.354L164.038 46.4835Z" fill="#131313"/>
<path d="M12.0994 33.5993L11.0553 40.027H34.6594V48.2366H0L2.83361 29.9109L0 11.5825H34.4109V19.7921H11.0553L12.0994 26.2198H32.9704V33.5993H12.0994Z" fill="#131313"/>
<path d="M75.0112 18.8649L52.8727 40.2701H75.1591V48.2362H39.182V40.9065L61.3205 19.5013H39.33V11.5601H75.0084V18.8649H75.0112Z" fill="#131313"/>
<path d="M121.226 32.8908C120.86 36.1005 119.735 38.9228 117.848 41.3577C115.96 43.7927 113.467 45.6825 110.368 47.0272C107.27 48.372 103.769 49.0444 99.8576 49.0444C95.5667 49.0444 91.7839 48.2447 88.5036 46.6509C85.2233 45.0572 82.6856 42.8104 80.8877 39.9189C79.0899 37.0274 78.1909 33.6932 78.1909 29.9135C78.1909 26.1339 79.0899 22.7997 80.8877 19.9082C82.6856 17.0167 85.2233 14.7727 88.5036 13.1761C91.7839 11.5796 95.5695 10.7827 99.8576 10.7827C103.766 10.7827 107.27 11.4551 110.368 12.7998C113.465 14.1446 115.96 16.0344 117.848 18.4694C119.735 20.9043 120.863 23.7266 121.226 26.9363H110.865C110.368 24.6231 109.168 22.8163 107.261 21.513C105.357 20.2098 102.881 19.5595 99.8325 19.5595C97.5293 19.5595 95.5388 19.9801 93.8582 20.8185C92.1775 21.6569 90.885 22.855 89.9832 24.41C89.0815 25.9651 88.6292 27.8023 88.6292 29.9191C88.6292 32.0358 89.0815 33.8731 89.9832 35.4281C90.885 36.9831 92.1775 38.1812 93.8582 39.0196C95.5388 39.858 97.5321 40.2786 99.8325 40.2786C102.915 40.2786 105.402 39.6477 107.298 38.386C109.193 37.1243 110.382 35.2953 110.863 32.8991H121.223L121.226 32.8908Z" fill="#131313"/>
<path d="M147.46 64C165.43 64 179.997 49.6731 179.997 32C179.997 14.3269 165.43 0 147.46 0C129.489 0 114.922 14.3269 114.922 32C114.922 49.6731 129.489 64 147.46 64Z" fill="#C4FF02"/>
<path fill-rule="evenodd" clip-rule="evenodd" d="M150.924 13.0945L170.243 42.2381C172.217 44.9649 169.845 48.1506 167.133 48.1506H128.345C127.017 48.1506 125.714 47.4526 125.021 46.2037C124.318 44.9364 124.433 43.4471 125.175 42.3281L144.553 13.0946C145.364 11.8455 146.684 11.3755 147.739 11.3755C148.794 11.3755 150.113 11.8455 150.924 13.0945ZM150.847 17.2055L150.884 17.15C150.872 17.1687 150.859 17.1872 150.847 17.2055ZM144.594 17.1498L144.631 17.2056C144.618 17.1872 144.606 17.1686 144.594 17.1498ZM147.739 21.8947L160.191 40.6798H135.287L147.739 21.8947ZM164.038 46.4835C164.008 46.4406 163.98 46.3974 163.952 46.354L164.038 46.4835Z" fill="#131313"/>
<path d="M12.0994 33.5993L11.0553 40.027H34.6594V48.2366H0L2.83361 29.9109L0 11.5825H34.4109V19.7921H11.0553L12.0994 26.2198H32.9704V33.5993H12.0994Z" fill="#131313"/>
<path d="M75.0112 18.8649L52.8727 40.2701H75.1591V48.2362H39.182V40.9065L61.3205 19.5013H39.33V11.5601H75.0084V18.8649H75.0112Z" fill="#131313"/>
<path d="M121.226 32.8908C120.86 36.1005 119.735 38.9228 117.848 41.3577C115.96 43.7927 113.467 45.6825 110.368 47.0272C107.27 48.372 103.769 49.0444 99.8576 49.0444C95.5667 49.0444 91.7839 48.2447 88.5036 46.6509C85.2233 45.0572 82.6856 42.8104 80.8877 39.9189C79.0899 37.0274 78.1909 33.6932 78.1909 29.9135C78.1909 26.1339 79.0899 22.7997 80.8877 19.9082C82.6856 17.0167 85.2233 14.7727 88.5036 13.1761C91.7839 11.5796 95.5695 10.7827 99.8576 10.7827C103.766 10.7827 107.27 11.4551 110.368 12.7998C113.465 14.1446 115.96 16.0344 117.848 18.4694C119.735 20.9043 120.863 23.7266 121.226 26.9363H110.865C110.368 24.6231 109.168 22.8163 107.261 21.513C105.357 20.2098 102.881 19.5595 99.8325 19.5595C97.5293 19.5595 95.5388 19.9801 93.8582 20.8185C92.1775 21.6569 90.885 22.855 89.9832 24.41C89.0815 25.9651 88.6292 27.8023 88.6292 29.9191C88.6292 32.0358 89.0815 33.8731 89.9832 35.4281C90.885 36.9831 92.1775 38.1812 93.8582 39.0196C95.5388 39.858 97.5321 40.2786 99.8325 40.2786C102.915 40.2786 105.402 39.6477 107.298 38.386C109.193 37.1243 110.382 35.2953 110.863 32.8991H121.223L121.226 32.8908Z" fill="#131313"/>
</g>
<defs>
<clipPath id="clip0_261_1204">
<rect width="180" height="64" fill="white"/>
</clipPath>
</defs>
</svg>
