<svg width="146" height="52" viewBox="0 0 146 52" fill="none" xmlns="http://www.w3.org/2000/svg">
<path d="M119.042 51.6583C133.549 51.6583 145.309 40.0942 145.309 25.8291C145.309 11.5641 133.549 0 119.042 0C104.535 0 92.7749 11.5641 92.7749 25.8291C92.7749 40.0942 104.535 51.6583 119.042 51.6583Z" fill="#C4FF02"/>
<path d="M119.252 12.2054L103.595 35.8213C103.586 35.8347 103.595 35.8503 103.611 35.8503H134.924C134.94 35.8503 134.949 35.8324 134.94 35.8213L119.283 12.2054C119.277 12.1942 119.258 12.1942 119.252 12.2054Z" stroke="#131313" stroke-width="6.03015" stroke-miterlimit="40" stroke-linecap="round"/>
<path d="M9.76766 27.1202L8.92477 32.3084H27.9801V38.9348H0L2.28754 24.1431L0 9.34912H27.7795V15.9756H8.92477L9.76766 21.1637H26.6165V27.1202H9.76766Z" fill="white"/>
<path d="M60.5555 15.2274L42.6834 32.5049H60.6749V38.9349H31.6311V33.0186L49.5032 15.7411H31.7506V9.3313H60.5532V15.2274H60.5555Z" fill="white"/>
<path d="M97.8637 26.5484C97.5685 29.1391 96.6602 31.4172 95.1367 33.3826C93.6132 35.3479 91.6006 36.8734 89.099 37.9588C86.5973 39.0442 83.7711 39.5869 80.6137 39.5869C77.1497 39.5869 74.0959 38.9415 71.4477 37.655C68.7996 36.3686 66.751 34.5551 65.2996 32.2212C63.8482 29.8873 63.1225 27.1961 63.1225 24.1453C63.1225 21.0945 63.8482 18.4032 65.2996 16.0693C66.751 13.7354 68.7996 11.9242 71.4477 10.6355C74.0959 9.34683 77.1519 8.70361 80.6137 8.70361C83.7689 8.70361 86.5973 9.24633 89.099 10.3318C91.5983 11.4172 93.6132 12.9426 95.1367 14.908C96.6602 16.8734 97.5707 19.1514 97.8637 21.7421H89.5001C89.099 19.875 88.1299 18.4166 86.5906 17.3647C85.0535 16.3128 83.0545 15.7879 80.5934 15.7879C78.7341 15.7879 77.1272 16.1274 75.7704 16.8041C74.4137 17.4808 73.3702 18.4479 72.6422 19.7031C71.9143 20.9582 71.5492 22.4412 71.5492 24.1497C71.5492 25.8583 71.9143 27.3412 72.6422 28.5964C73.3702 29.8516 74.4137 30.8186 75.7704 31.4953C77.1272 32.1721 78.7363 32.5115 80.5934 32.5115C83.0815 32.5115 85.0896 32.0023 86.6199 30.9839C88.1501 29.9655 89.1102 28.4892 89.4979 26.5551H97.8615L97.8637 26.5484Z" fill="white"/>
</svg>
