<svg width="43" height="34" viewBox="0 0 43 34" fill="none" xmlns="http://www.w3.org/2000/svg">
<path fill-rule="evenodd" clip-rule="evenodd" d="M24.0493 1.54163L41.711 27.8675C43.5547 30.3731 41.3054 33.2233 38.9032 33.2233H3.43709C2.24958 33.2233 1.06696 32.6066 0.431802 31.4758C-0.215488 30.3234 -0.107833 28.9663 0.572978 27.9515L18.2911 1.54152C19.0317 0.414084 20.2279 0 21.1702 0C22.1124 0 23.3087 0.414113 24.0493 1.54163ZM23.978 5.27934L24.0124 5.22809C24.001 5.24534 23.9896 5.26243 23.978 5.27934ZM18.328 5.22823L18.3623 5.27922C18.3507 5.26239 18.3393 5.2454 18.328 5.22823ZM21.1702 9.46458L32.5816 26.474H9.75869L21.1702 9.46458ZM36.1073 31.7292C36.0799 31.6902 36.0536 31.651 36.0284 31.6116L36.1073 31.7292Z" fill="#131313"/>
</svg>
