<svg width="77" height="77" viewBox="0 0 77 77" fill="none" xmlns="http://www.w3.org/2000/svg">
<path d="M38.4048 23.4258C30.5696 23.4258 24.1953 29.8001 24.1953 37.6353C24.1953 45.4704 30.5696 51.8447 38.4048 51.8447C46.24 51.8447 52.6143 45.4704 52.6143 37.6353C52.6143 29.8001 46.24 23.4258 38.4048 23.4258ZM38.4048 49.5405C31.84 49.5405 26.4996 44.2 26.4996 37.6353C26.4996 31.0705 31.84 25.73 38.4048 25.73C44.9696 25.73 50.31 31.0705 50.31 37.6353C50.31 44.2 44.9696 49.5405 38.4048 49.5405Z" fill="url(#paint0_linear_1239_10921)"/>
<path d="M73.1403 31.8753L63.9479 30.4843C63.4425 28.7807 62.7597 27.1263 61.9117 25.5494L67.4235 18.0737C67.7614 17.6151 67.7138 16.9784 67.3113 16.5752L60.2327 9.4973C59.8295 9.09482 59.1927 9.04643 58.7342 9.38439L51.2823 14.8777C49.6985 14.0174 48.0333 13.3246 46.3159 12.8108L44.9326 3.66757C44.8473 3.1038 44.3634 2.6875 43.7935 2.6875H33.7839C33.214 2.6875 32.7301 3.1038 32.6448 3.66757L31.2615 12.8108C29.5441 13.3246 27.8789 14.0182 26.2951 14.8777L18.8432 9.38439C18.3847 9.04643 17.7479 9.09405 17.3447 9.4973L10.2668 16.5752C9.86435 16.9776 9.81596 17.6151 10.1539 18.0737L15.6657 25.5494C14.8177 27.1263 14.1349 28.7807 13.6295 30.4843L4.4371 31.8753C3.87333 31.9606 3.45703 32.4444 3.45703 33.0144V43.024C3.45703 43.5939 3.87333 44.0778 4.43633 44.163L13.674 45.5609C14.1848 47.2461 14.8661 48.8783 15.7071 50.4313L10.1532 57.9647C9.8152 58.4232 9.86358 59.0599 10.2661 59.4632L17.3439 66.541C17.7464 66.9443 18.3839 66.9919 18.8424 66.654L26.4003 61.0823C27.9457 61.9118 29.5679 62.5831 31.2392 63.0847L32.6441 72.3708C32.7293 72.9345 33.2132 73.3508 33.7831 73.3508H43.7927C44.3627 73.3508 44.8465 72.9345 44.9318 72.3708L46.3366 63.0847C48.008 62.5831 49.6301 61.9118 51.1755 61.0823L58.7334 66.654C59.192 66.9919 59.8287 66.9435 60.2319 66.541L67.3106 59.4632C67.7131 59.0607 67.7614 58.4232 67.4227 57.9647L61.8687 50.4313C62.7105 48.8783 63.3918 47.2461 63.9018 45.5609L73.1395 44.163C73.7025 44.0778 74.1188 43.5939 74.1188 43.024V33.0144C74.1196 32.4452 73.7033 31.9606 73.1403 31.8753ZM71.8154 42.0332L62.8265 43.3934C62.3749 43.4618 62.0062 43.7905 61.8864 44.2306C61.3457 46.2238 60.5438 48.144 59.503 49.939C59.2726 50.3361 59.2995 50.8315 59.5722 51.201L64.9795 58.5354L59.3026 64.2122L51.9459 58.7888C51.5772 58.5177 51.0841 58.4893 50.6886 58.7174C48.8982 59.7458 46.9879 60.537 45.0086 61.0677C44.567 61.1868 44.2367 61.5554 44.1683 62.0086L42.8011 71.0481H34.7732L33.406 62.0086C33.3376 61.5562 33.0074 61.1868 32.5657 61.0677C30.5864 60.537 28.6762 59.7458 26.8858 58.7174C26.4902 58.49 25.9963 58.5185 25.6284 58.7888L18.2718 64.2122L12.5949 58.5354L18.0022 51.201C18.2741 50.8315 18.3017 50.3361 18.0713 49.939C17.0305 48.1448 16.2287 46.2238 15.6879 44.2306C15.5681 43.7898 15.1994 43.4618 14.7478 43.3934L5.75897 42.0332V34.0052L14.7071 32.6518C15.161 32.5835 15.5312 32.2517 15.6488 31.8077C16.181 29.7984 16.9814 27.8567 18.029 26.0364C18.2572 25.64 18.2287 25.1462 17.9576 24.7782L12.5949 17.5038L18.2718 11.8269L25.5247 17.1735C25.8942 17.4454 26.3896 17.473 26.7875 17.2418C28.6116 16.1819 30.5633 15.37 32.5865 14.8285C33.0289 14.7103 33.3591 14.3408 33.4275 13.8876L34.7732 4.99097H42.8011L44.1468 13.8876C44.2152 14.3408 44.5455 14.7103 44.9879 14.8285C47.011 15.37 48.9619 16.1819 50.7869 17.2418C51.184 17.4738 51.6794 17.4454 52.0496 17.1735L59.3026 11.8269L64.9795 17.5038L59.6167 24.7782C59.3456 25.1462 59.3172 25.64 59.5453 26.0364C60.5922 27.8567 61.3933 29.7984 61.9256 31.8077C62.0431 32.2517 62.4133 32.5827 62.8672 32.6518L71.8154 34.0052V42.0332Z" fill="url(#paint1_linear_1239_10921)"/>
<defs>
<linearGradient id="paint0_linear_1239_10921" x1="38.4048" y1="23.4258" x2="38.4048" y2="51.8447" gradientUnits="userSpaceOnUse">
<stop stop-color="#BD83B8"/>
<stop offset="1" stop-color="#4B0082"/>
</linearGradient>
<linearGradient id="paint1_linear_1239_10921" x1="38.7879" y1="2.6875" x2="38.7879" y2="73.3508" gradientUnits="userSpaceOnUse">
<stop stop-color="#BD83B8"/>
<stop offset="1" stop-color="#4B0082"/>
</linearGradient>
</defs>
</svg>
