<svg width="84" height="84" viewBox="0 0 84 84" fill="none" xmlns="http://www.w3.org/2000/svg">
<path d="M68.7767 18.5604C68.7742 18.5179 68.7701 18.4762 68.7642 18.4345C68.7575 18.3937 68.75 18.3536 68.74 18.3145C68.73 18.2753 68.7184 18.2361 68.7042 18.1986C68.69 18.1602 68.675 18.1227 68.6567 18.086C68.6392 18.0502 68.6208 18.016 68.6 17.9826C68.5791 17.9476 68.5566 17.9143 68.5324 17.8817C68.5083 17.8501 68.4832 17.8192 68.4566 17.79C68.4299 17.7609 68.4024 17.7325 68.3732 17.7058C68.3432 17.6783 68.3123 17.6525 68.279 17.6283C68.2473 17.6049 68.2156 17.5824 68.1814 17.5624C68.1464 17.5407 68.1106 17.5216 68.0739 17.5041C68.0372 17.4866 68.0005 17.4707 67.9622 17.4565C67.9238 17.4424 67.8854 17.4307 67.8454 17.4207C67.8046 17.4098 67.7629 17.4015 67.7204 17.3948C67.6987 17.3915 67.6787 17.384 67.657 17.3823C57.7221 16.3885 49.9524 14.3683 41.9267 7.38154C41.4056 6.92798 40.6144 6.98301 40.1625 7.50327C40.1333 7.53662 40.1117 7.57414 40.0867 7.60999C32.016 14.5734 25.276 16.4269 15.7162 17.3815C15.0768 17.4457 14.5898 17.9835 14.5898 18.6263V47.9166C14.5898 48.0275 14.6049 48.1376 14.634 48.2443C19.7057 66.9486 40.16 75.8347 41.028 76.204C41.1847 76.2707 41.3515 76.3041 41.5174 76.3041C41.6816 76.3041 41.8475 76.2716 42.0018 76.2065C42.8805 75.838 63.5691 66.9528 68.6408 48.2451C68.6583 48.1793 68.6717 48.1126 68.6783 48.0442L68.7767 47.0762C68.7809 47.0345 68.7834 46.992 68.7834 46.9495V18.6271C68.7834 18.6029 68.7784 18.5821 68.7767 18.5604ZM66.2004 47.6857C61.8233 63.6094 44.6464 72.227 41.5199 73.6786C38.4208 72.2229 21.4933 63.6244 17.0903 47.7466V19.751C26.1522 18.748 33.1807 16.6711 41.1464 9.9845C49.0403 16.5319 56.9809 18.7172 66.2813 19.7468V46.8845L66.2004 47.6857Z" fill="url(#paint0_linear_1282_10291)"/>
<path d="M53.3598 34.0499H52.1593C51.4989 28.5114 46.7407 24.1992 40.9795 24.1992C35.2184 24.1992 30.4602 28.5114 29.8007 34.0499H28.3483C27.6579 34.0499 27.0977 34.6094 27.0977 35.3006V53.643C27.0977 54.3342 27.6579 54.8936 28.3483 54.8936H53.3607C54.051 54.8936 54.6113 54.3342 54.6113 53.643V35.3006C54.6105 34.6094 54.0502 34.0499 53.3598 34.0499ZM40.9787 26.7005C45.3575 26.7005 48.986 29.8954 49.6305 34.0499H32.3269C32.9722 29.8954 36.5999 26.7005 40.9787 26.7005ZM52.1092 36.5512V52.3924H29.5981V36.5512H52.1092Z" fill="url(#paint1_linear_1282_10291)"/>
<defs>
<linearGradient id="paint0_linear_1282_10291" x1="41.6866" y1="7.07422" x2="41.6866" y2="76.3041" gradientUnits="userSpaceOnUse">
<stop stop-color="#BD83B8"/>
<stop offset="1" stop-color="#4B0082"/>
</linearGradient>
<linearGradient id="paint1_linear_1282_10291" x1="40.8545" y1="24.1992" x2="40.8545" y2="54.8936" gradientUnits="userSpaceOnUse">
<stop stop-color="#BD83B8"/>
<stop offset="1" stop-color="#4B0082"/>
</linearGradient>
</defs>
</svg>
