<svg width="90" height="90" viewBox="0 0 90 90" fill="none" xmlns="http://www.w3.org/2000/svg">
<path d="M40.0986 76.6347C41.0829 76.6347 41.8808 75.8368 41.8808 74.8525C41.8808 73.8682 41.0829 73.0703 40.0986 73.0703C39.1143 73.0703 38.3164 73.8682 38.3164 74.8525C38.3164 75.8368 39.1143 76.6347 40.0986 76.6347Z" fill="url(#paint0_linear_1219_10576)"/>
<path d="M69.9505 21.8319C67.2947 21.8327 64.6847 22.5236 62.3763 23.8368V11.1388C62.3763 10.0753 61.9538 9.05538 61.2018 8.30338C60.4498 7.55138 59.4298 7.12891 58.3664 7.12891H22.7228C21.6593 7.12891 20.6394 7.55138 19.8874 8.30338C19.1354 9.05538 18.7129 10.0753 18.7129 11.1388V78.8616C18.7129 79.9251 19.1354 80.945 19.8874 81.697C20.6394 82.449 21.6593 82.8715 22.7228 82.8715H58.3664C59.4298 82.8715 60.4498 82.449 61.2018 81.697C61.9538 80.945 62.3763 79.9251 62.3763 78.8616V56.1388C65.5931 61.316 68.6139 65.4507 68.8723 65.816C68.9964 65.9855 69.1587 66.1233 69.3461 66.2182C69.5334 66.3132 69.7405 66.3627 69.9505 66.3627C70.1605 66.3627 70.3676 66.3132 70.555 66.2182C70.7423 66.1233 70.9046 65.9855 71.0287 65.816C71.6168 65.0497 85.5446 45.9626 85.5446 37.6309C85.5659 33.4697 83.9364 29.4697 81.0132 26.5081C78.09 23.5465 74.1117 21.8648 69.9505 21.8319ZM22.7228 9.80217H58.3664C58.7209 9.80217 59.0608 9.943 59.3115 10.1937C59.5622 10.4443 59.703 10.7843 59.703 11.1388V16.9309H21.3862V11.1388C21.3862 10.7843 21.527 10.4443 21.7776 10.1937C22.0283 9.943 22.3683 9.80217 22.7228 9.80217ZM58.3664 80.1982H22.7228C22.3683 80.1982 22.0283 80.0574 21.7776 79.8067C21.527 79.5561 21.3862 79.2161 21.3862 78.8616V70.3962H59.703V78.8616C59.703 79.2161 59.5622 79.5561 59.3115 79.8067C59.0608 80.0574 58.7209 80.1982 58.3664 80.1982ZM59.703 67.723H21.3862V19.6042H59.703V25.7527C58.0209 27.2406 56.6743 29.0691 55.7525 31.1169C54.8308 33.1647 54.3549 35.3852 54.3565 37.6309C54.3565 41.124 56.8159 46.5418 59.703 51.6566V67.723ZM69.9505 62.7596C67.8654 59.8101 64.8713 55.3101 62.2961 50.7834C62.2447 50.6409 62.1694 50.5083 62.0733 50.3913C59.2842 45.4457 57.0297 40.5537 57.0297 37.6309C57.0297 34.2041 58.391 30.9176 60.8141 28.4945C63.2372 26.0714 66.5237 24.7101 69.9505 24.7101C73.3773 24.7101 76.6638 26.0714 79.0869 28.4945C81.51 30.9176 82.8713 34.2041 82.8713 37.6309C82.8713 43.316 74.3614 56.522 69.9505 62.7596Z" fill="url(#paint1_linear_1219_10576)"/>
<path d="M69.9507 30.2969C68.6289 30.2969 67.3368 30.6888 66.2378 31.4232C65.1387 32.1575 64.2821 33.2013 63.7763 34.4225C63.2705 35.6437 63.1381 36.9875 63.396 38.2839C63.6539 39.5803 64.2904 40.7711 65.225 41.7058C66.1597 42.6404 67.3505 43.2769 68.6469 43.5348C69.9433 43.7927 71.2871 43.6603 72.5083 43.1545C73.7295 42.6487 74.7732 41.7921 75.5076 40.693C76.242 39.594 76.6339 38.3018 76.6339 36.98C76.6316 35.2083 75.9267 33.5098 74.6739 32.2569C73.421 31.0041 71.7225 30.2992 69.9507 30.2969ZM69.9507 40.9899C69.1577 40.9899 68.3824 40.7548 67.723 40.3142C67.0635 39.8735 66.5496 39.2473 66.2461 38.5146C65.9426 37.7819 65.8632 36.9756 66.0179 36.1978C66.1726 35.4199 66.5545 34.7054 67.1153 34.1446C67.6761 33.5838 68.3906 33.2019 69.1685 33.0472C69.9463 32.8925 70.7526 32.9719 71.4853 33.2754C72.218 33.5789 72.8442 34.0928 73.2849 34.7523C73.7255 35.4117 73.9607 36.187 73.9607 36.98C73.9607 38.0435 73.5382 39.0635 72.7862 39.8155C72.0342 40.5675 71.0142 40.9899 69.9507 40.9899Z" fill="url(#paint2_linear_1219_10576)"/>
<defs>
<linearGradient id="paint0_linear_1219_10576" x1="40.0986" y1="73.0703" x2="40.0986" y2="76.6347" gradientUnits="userSpaceOnUse">
<stop stop-color="#BD83B8"/>
<stop offset="1" stop-color="#4B0082"/>
</linearGradient>
<linearGradient id="paint1_linear_1219_10576" x1="52.1288" y1="7.12891" x2="52.1288" y2="82.8715" gradientUnits="userSpaceOnUse">
<stop stop-color="#BD83B8"/>
<stop offset="1" stop-color="#4B0082"/>
</linearGradient>
<linearGradient id="paint2_linear_1219_10576" x1="69.9507" y1="30.2969" x2="69.9507" y2="43.6632" gradientUnits="userSpaceOnUse">
<stop stop-color="#BD83B8"/>
<stop offset="1" stop-color="#4B0082"/>
</linearGradient>
</defs>
</svg>
