<svg width="77" height="78" viewBox="0 0 77 78" fill="none" xmlns="http://www.w3.org/2000/svg">
<path d="M23.4211 65.8379C23.5958 65.9403 23.7895 66.0063 23.9904 66.0318C24.1914 66.0574 24.3954 66.0419 24.5902 65.9865C24.785 65.931 24.9666 65.8367 25.124 65.7092C25.2813 65.5816 25.4112 65.4236 25.5058 65.2445C25.6005 65.0654 25.6578 64.869 25.6745 64.6671C25.6911 64.4652 25.6667 64.2621 25.6027 64.0699C25.5388 63.8777 25.4365 63.7005 25.3022 63.5489C25.1678 63.3973 25.0042 63.2745 24.8211 63.1879C21.2035 61.0089 18.2135 57.9282 16.1434 54.2472C14.0732 50.5662 12.994 46.411 13.0111 42.1879C13.0111 26.4279 24.3411 10.7779 39.9311 4.28789C36.8011 10.1279 31.6111 21.6979 35.0411 28.9279C36.6711 32.3579 39.9411 34.3979 44.7611 34.9279C46.2493 35.1813 47.7765 35.0767 49.2163 34.6229C50.6561 34.169 51.9672 33.3789 53.0411 32.3179C56.6711 28.6879 57.4611 22.1179 57.5211 17.4779C61.3111 23.4979 67.3211 35.0079 65.7411 46.0079C64.7411 52.8879 60.9411 58.6879 54.3911 63.2379C54.2181 63.3452 54.0688 63.4866 53.9523 63.6535C53.8357 63.8204 53.7544 64.0092 53.7132 64.2086C53.6719 64.4079 53.6717 64.6135 53.7125 64.813C53.7533 65.0124 53.8342 65.2014 53.9504 65.3685C54.0666 65.5357 54.2156 65.6774 54.3883 65.7851C54.561 65.8928 54.7538 65.9643 54.955 65.9951C55.1562 66.0259 55.3616 66.0154 55.5586 65.9643C55.7556 65.9133 55.9402 65.8226 56.1011 65.6979C63.3611 60.6979 67.6011 54.1779 68.7111 46.4279C71.1611 29.3579 57.5011 12.2479 56.9511 11.5279C56.7471 11.273 56.4655 11.0916 56.1491 11.0112C55.8327 10.9309 55.4987 10.9559 55.1978 11.0826C54.8969 11.2093 54.6456 11.4307 54.4819 11.7132C54.3183 11.9957 54.2513 12.3239 54.2911 12.6479C54.7211 16.1779 54.9411 26.2179 50.9011 30.2679C50.1443 31.0011 49.2224 31.5419 48.2131 31.8447C47.2038 32.1475 46.1365 32.2035 45.1011 32.0079C41.3211 31.5579 38.9111 30.1379 37.7411 27.6579C34.5011 20.7879 41.5011 7.00789 44.5011 2.30789C44.6667 2.04872 44.7487 1.7449 44.7359 1.43758C44.7231 1.13026 44.6162 0.834301 44.4295 0.589813C44.2429 0.345324 43.9856 0.164124 43.6925 0.0707642C43.3994 -0.0225955 43.0847 -0.0236006 42.7911 0.0678855C23.8111 5.90789 10.0011 23.6279 10.0011 42.2079C9.95856 46.9796 11.1772 51.6779 13.5338 55.8273C15.8904 59.9768 19.3012 63.4301 23.4211 65.8379Z" fill="url(#paint0_linear_1138_10423)"/>
<path d="M39.152 47.8778C39.3525 47.966 39.57 48.0092 39.789 48.0043C40.0081 47.9995 40.2234 47.9467 40.4199 47.8497C40.6163 47.7527 40.7892 47.6138 40.9262 47.4429C41.0632 47.2719 41.1612 47.073 41.2131 46.8601C41.265 46.6473 41.2697 46.4256 41.2267 46.2108C41.1838 45.9959 41.0943 45.7931 40.9646 45.6165C40.8348 45.4399 40.668 45.2939 40.4758 45.1888C40.2835 45.0836 40.0706 45.0218 39.852 45.0078C24.642 41.2678 26.992 26.3978 27.102 25.7678C27.1581 25.4333 27.0992 25.0897 26.9349 24.793C26.7706 24.4962 26.5107 24.264 26.1974 24.134C25.8841 24.0041 25.536 23.9841 25.21 24.0774C24.8839 24.1707 24.5991 24.3718 24.402 24.6478C24.222 24.8978 20.002 31.0078 20.002 41.8978C20.002 54.5378 30.712 61.4878 31.172 61.7778C31.5072 61.9782 31.9074 62.04 32.2874 61.9499C32.6675 61.8599 32.9975 61.6252 33.2072 61.2957C33.4168 60.9661 33.4897 60.5678 33.4103 60.1854C33.3309 59.803 33.1055 59.4666 32.782 59.2478C32.682 59.1878 23.002 52.9178 23.002 41.9078C22.9854 38.6865 23.4197 35.4788 24.292 32.3778C25.242 38.0078 28.572 45.3078 39.152 47.8778Z" fill="url(#paint1_linear_1138_10423)"/>
<defs>
<linearGradient id="paint0_linear_1138_10423" x1="39.5025" y1="0" x2="39.5025" y2="66.0438" gradientUnits="userSpaceOnUse">
<stop stop-color="#BD83B8"/>
<stop offset="1" stop-color="#4B0082"/>
</linearGradient>
<linearGradient id="paint1_linear_1138_10423" x1="30.6289" y1="24.0195" x2="30.6289" y2="61.9903" gradientUnits="userSpaceOnUse">
<stop stop-color="#BD83B8"/>
<stop offset="1" stop-color="#4B0082"/>
</linearGradient>
</defs>
</svg>
