<svg width="77" height="77" viewBox="0 0 77 77" fill="none" xmlns="http://www.w3.org/2000/svg">
<path d="M68.2197 9H8.34659C7.60238 9 7 9.60238 7 10.3466V35.685C7 36.4292 7.60238 37.0316 8.34659 37.0316H12.9636V68.4224C12.9636 69.1657 13.566 69.769 14.3102 69.769H62.8288C63.5721 69.769 64.1754 69.1657 64.1754 68.4224V37.0316H68.2197C68.963 37.0316 69.5662 36.4292 69.5662 35.685V10.3466C69.5662 9.60238 68.963 9 68.2197 9ZM61.4822 67.0758H15.6568V37.0316H30.121C30.5707 37.0316 30.9918 36.8071 31.2413 36.4319L38.5695 25.4428L45.8977 36.4319C46.1472 36.8062 46.5683 37.0316 47.018 37.0316H61.4813L61.4822 67.0758ZM66.8731 34.3384H47.7389L39.6899 22.2684C39.1898 21.5188 37.9483 21.5197 37.4491 22.2684L29.4001 34.3384H9.69318V11.6932H66.8731V34.3384Z" fill="url(#paint0_linear_1012_6420)"/>
<path d="M44.7796 41.5234H32.3622C31.618 41.5234 31.0156 42.1267 31.0156 42.87V61.5015C31.0156 62.2448 31.618 62.8481 32.3622 62.8481H44.7805C45.5238 62.8481 46.1271 62.2448 46.1271 61.5015V42.87C46.1262 42.1267 45.5229 41.5234 44.7796 41.5234ZM43.433 60.1549H33.7088V44.2166H43.4339L43.433 60.1549Z" fill="url(#paint1_linear_1012_6420)"/>
<defs>
<linearGradient id="paint0_linear_1012_6420" x1="38.2831" y1="9" x2="38.2831" y2="69.769" gradientUnits="userSpaceOnUse">
<stop stop-color="#BD83B8"/>
<stop offset="1" stop-color="#4B0082"/>
</linearGradient>
<linearGradient id="paint1_linear_1012_6420" x1="38.5714" y1="41.5234" x2="38.5714" y2="62.8481" gradientUnits="userSpaceOnUse">
<stop stop-color="#BD83B8"/>
<stop offset="1" stop-color="#4B0082"/>
</linearGradient>
</defs>
</svg>
