<svg width="100" height="100" viewBox="0 0 100 100" fill="none" xmlns="http://www.w3.org/2000/svg">
<path d="M81.23 17H18.77C15.06 17 12.09 19.43 12 22.58V68.32C12 71.45 15 74 18.77 74H48V85H30.5C30.1022 85 29.7206 85.158 29.4393 85.4393C29.158 85.7206 29 86.1022 29 86.5C29 86.8978 29.158 87.2794 29.4393 87.5607C29.7206 87.842 30.1022 88 30.5 88H69.5C69.8978 88 70.2794 87.842 70.5607 87.5607C70.842 87.2794 71 86.8978 71 86.5C71 86.1022 70.842 85.7206 70.5607 85.4393C70.2794 85.158 69.8978 85 69.5 85H51V74H81.23C85 74 88 71.45 88 68.32V22.68C88 19.55 85 17 81.23 17ZM85 68.32C85 69.77 83.27 71 81.23 71H18.77C16.77 71 15 69.77 15 68.32V22.62C15 21.18 16.73 20 18.77 20H81.23C83.23 20 85 21.23 85 22.68V68.32Z" fill="url(#paint0_linear_1293_9829)"/>
<path d="M55.2689 36.6303C54.9169 36.4548 54.51 36.4245 54.1359 36.5461C53.7618 36.6677 53.4505 36.9313 53.2689 37.2803L45.1889 53.0003C45.099 53.1756 45.0444 53.3669 45.0284 53.5633C45.0124 53.7597 45.0352 53.9573 45.0956 54.1449C45.1559 54.3325 45.2526 54.5063 45.3802 54.6565C45.5077 54.8067 45.6636 54.9303 45.8389 55.0203C46.0142 55.1102 46.2056 55.1648 46.4019 55.1808C46.5983 55.1968 46.796 55.174 46.9835 55.1136C47.1711 55.0533 47.345 54.9566 47.4952 54.829C47.6454 54.7015 47.769 54.5456 47.8589 54.3703L55.9189 38.6203C56.0913 38.2693 56.1199 37.8649 55.9985 37.4931C55.8771 37.1214 55.6153 36.8118 55.2689 36.6303Z" fill="url(#paint1_linear_1293_9829)"/>
<path d="M64.8591 36.0784C64.5748 35.8134 64.1987 35.6692 63.8101 35.676C63.4215 35.6829 63.0507 35.8403 62.7759 36.1151C62.5011 36.3899 62.3436 36.7607 62.3368 37.1493C62.3299 37.5379 62.4742 37.914 62.7391 38.1984L70.2191 45.6684L62.7391 53.1384C62.5918 53.2757 62.4736 53.4413 62.3916 53.6253C62.3096 53.8093 62.2655 54.0079 62.262 54.2093C62.2584 54.4107 62.2954 54.6108 62.3709 54.7976C62.4463 54.9843 62.5586 55.154 62.7011 55.2964C62.8435 55.4389 63.0132 55.5512 63.1999 55.6266C63.3867 55.7021 63.5868 55.7391 63.7882 55.7355C63.9896 55.732 64.1882 55.6879 64.3722 55.6059C64.5562 55.5239 64.7218 55.4057 64.8591 55.2584L73.3991 46.7284C73.68 46.4471 73.8378 46.0659 73.8378 45.6684C73.8378 45.2709 73.68 44.8896 73.3991 44.6084L64.8591 36.0784Z" fill="url(#paint2_linear_1293_9829)"/>
<path d="M38.3995 36.0793C38.1182 35.7984 37.737 35.6406 37.3395 35.6406C36.942 35.6406 36.5607 35.7984 36.2795 36.0793L27.7395 44.6193C27.4586 44.9006 27.3008 45.2818 27.3008 45.6793C27.3008 46.0768 27.4586 46.4581 27.7395 46.7393L36.2795 55.2793C36.5638 55.5443 36.9399 55.6885 37.3285 55.6817C37.7171 55.6748 38.0879 55.5174 38.3627 55.2425C38.6375 54.9677 38.795 54.597 38.8018 54.2084C38.8087 53.8197 38.6644 53.4437 38.3995 53.1593L30.9195 45.6893L38.3995 38.1993C38.6804 37.9181 38.8381 37.5368 38.8381 37.1393C38.8381 36.7418 38.6804 36.3606 38.3995 36.0793Z" fill="url(#paint3_linear_1293_9829)"/>
<defs>
<linearGradient id="paint0_linear_1293_9829" x1="50" y1="17" x2="50" y2="88" gradientUnits="userSpaceOnUse">
<stop stop-color="#BD83B8"/>
<stop offset="1" stop-color="#4B0082"/>
</linearGradient>
<linearGradient id="paint1_linear_1293_9829" x1="50.548" y1="36.4727" x2="50.548" y2="55.1858" gradientUnits="userSpaceOnUse">
<stop stop-color="#BD83B8"/>
<stop offset="1" stop-color="#4B0082"/>
</linearGradient>
<linearGradient id="paint2_linear_1293_9829" x1="68.0498" y1="35.6758" x2="68.0498" y2="55.7358" gradientUnits="userSpaceOnUse">
<stop stop-color="#BD83B8"/>
<stop offset="1" stop-color="#4B0082"/>
</linearGradient>
<linearGradient id="paint3_linear_1293_9829" x1="33.0695" y1="35.6406" x2="33.0695" y2="55.6819" gradientUnits="userSpaceOnUse">
<stop stop-color="#BD83B8"/>
<stop offset="1" stop-color="#4B0082"/>
</linearGradient>
</defs>
</svg>
