<svg width="101" height="101" viewBox="0 0 101 101" fill="none" xmlns="http://www.w3.org/2000/svg">
<path d="M84.8098 68.1654C84.9188 67.4444 84.4938 66.7494 83.8008 66.5184L57.3258 57.6784L65.6378 49.3664C65.9188 49.0854 66.0768 48.7034 66.0768 48.3054C66.0768 47.9074 65.9188 47.5264 65.6378 47.2444L49.9728 31.5814L52.9468 28.6064L57.5368 33.1964C57.8298 33.4894 58.2138 33.6354 58.5978 33.6354C58.9818 33.6354 59.3658 33.4894 59.6588 33.1964C60.2448 32.6114 60.2448 31.6614 59.6588 31.0754L54.0098 25.4264L54.0088 25.4244L54.0068 25.4234L48.4658 19.8814C47.8798 19.2954 46.9308 19.2954 46.3448 19.8814C45.7588 20.4664 45.7588 21.4164 46.3448 22.0024L50.8278 26.4854L47.8538 29.4604L31.1408 12.7494L31.1398 12.7484L20.9508 2.56037C20.5478 2.15637 19.9498 2.01837 19.4108 2.19937C18.8708 2.38137 18.4808 2.85337 18.4038 3.41837L15.2878 26.2774C15.2778 26.3484 15.2798 26.4174 15.2808 26.4864L8.55278 33.2144C7.96678 33.7994 7.96678 34.7504 8.55278 35.3354L43.0508 69.8324L43.0538 69.8344C43.1938 69.9744 43.3608 70.0864 43.5468 70.1614L43.5498 70.1624C43.7238 70.2334 43.9138 70.2724 44.1118 70.2724C44.1228 70.2724 44.1328 70.2724 44.1438 70.2724L83.3588 69.4404C84.0868 69.4254 84.6998 68.8874 84.8098 68.1654ZM20.9678 6.81937L27.9578 13.8084L18.7618 23.0044L20.9678 6.81937ZM30.0788 15.9294L62.4558 48.3064L44.1108 66.6504L11.7338 34.2734L30.0788 15.9294ZM47.8108 67.1934L54.9548 60.0494L74.6478 66.6244L47.8108 67.1934Z" fill="url(#paint0_linear_1293_9825)"/>
<path d="M84.6783 73.5454C84.4293 73.0244 83.9033 72.6914 83.3243 72.6914C82.7453 72.6914 82.2203 73.0234 81.9703 73.5454C80.9293 75.7234 75.7383 86.7664 75.7383 90.2884C75.7383 94.4714 79.1413 97.8744 83.3243 97.8744C87.5073 97.8744 90.9093 94.4714 90.9093 90.2884C90.9093 86.7674 85.7193 75.7234 84.6783 73.5454ZM83.3243 94.8744C80.7963 94.8744 78.7383 92.8164 78.7383 90.2884C78.7383 88.4874 81.1783 82.5034 83.3243 77.7554C85.4693 82.5044 87.9093 88.4884 87.9093 90.2884C87.9093 92.8164 85.8533 94.8744 83.3243 94.8744Z" fill="url(#paint1_linear_1293_9825)"/>
<defs>
<linearGradient id="paint0_linear_1293_9825" x1="46.47" y1="2.12109" x2="46.47" y2="70.2724" gradientUnits="userSpaceOnUse">
<stop stop-color="#BD83B8"/>
<stop offset="1" stop-color="#4B0082"/>
</linearGradient>
<linearGradient id="paint1_linear_1293_9825" x1="83.3238" y1="72.6914" x2="83.3238" y2="97.8744" gradientUnits="userSpaceOnUse">
<stop stop-color="#BD83B8"/>
<stop offset="1" stop-color="#4B0082"/>
</linearGradient>
</defs>
</svg>
