<svg width="77" height="74" viewBox="0 0 77 74" fill="none" xmlns="http://www.w3.org/2000/svg">
<path d="M51.5889 14.2109C53.3173 14.2291 54.9721 14.913 56.2089 16.1205C56.8328 16.7194 57.3317 17.4361 57.6767 18.2291C58.0217 19.0222 58.2059 19.8758 58.2186 20.7405C58.2405 21.0666 58.3769 21.3745 58.6037 21.6098C58.8306 21.8451 59.1332 21.9926 59.4583 22.0264C59.6107 22.0274 59.7617 21.9983 59.9027 21.9407C60.0437 21.8831 60.1719 21.7982 60.28 21.6909C60.3881 21.5835 60.4738 21.4558 60.5324 21.3152C60.5909 21.1746 60.621 21.0237 60.621 20.8714C60.5689 19.1796 61.1868 17.5357 62.3404 16.2971C63.4939 15.0584 65.0898 14.3253 66.781 14.2571H66.9889C67.2952 14.2571 67.589 14.1354 67.8056 13.9188C68.0222 13.7022 68.1439 13.4084 68.1439 13.1021C68.1439 12.7958 68.0222 12.502 67.8056 12.2854C67.589 12.0688 67.2952 11.9471 66.9889 11.9471H66.9119C66.0982 11.9458 65.293 11.7809 64.5443 11.4621C63.7955 11.1433 63.1186 10.6772 62.5537 10.0914C61.4492 8.96072 60.7855 7.47222 60.6826 5.89491C60.6826 5.80251 60.6826 5.71011 60.6826 5.61001C60.6811 5.49759 60.6629 5.38601 60.6287 5.27891C60.5837 5.01224 60.4465 4.76984 60.241 4.59395C60.0356 4.41806 59.7749 4.31984 59.5045 4.31641C59.1982 4.31641 58.9044 4.43809 58.6878 4.6547C58.4712 4.8713 58.3495 5.16508 58.3495 5.47141C58.3495 5.61001 58.3495 5.74861 58.3495 5.89491C58.2238 7.5491 57.4688 9.09218 56.2398 10.2066C55.0109 11.3209 53.4015 11.9218 51.7429 11.8855H51.5889C51.4372 11.8875 51.2874 11.9194 51.1481 11.9793C51.0087 12.0392 50.8825 12.126 50.7767 12.2347C50.6709 12.3433 50.5875 12.4718 50.5313 12.6127C50.4752 12.7536 50.4473 12.9042 50.4493 13.0559C50.4532 13.3584 50.574 13.6476 50.7865 13.8629C50.999 14.0783 51.2865 14.203 51.5889 14.2109ZM59.5276 9.86041C59.9051 10.5311 60.3685 11.1498 60.9059 11.7007C61.4338 12.2352 62.0291 12.6986 62.6769 13.079C61.287 13.8974 60.1494 15.0829 59.389 16.5055C58.9726 15.7597 58.4543 15.0755 57.849 14.4727C57.3069 13.9666 56.7043 13.5295 56.0549 13.1714C57.4954 12.4087 58.6971 11.2629 59.5276 9.86041Z" fill="url(#paint0_linear_1289_10215)"/>
<path d="M41.1241 47.8204C38.5374 47.729 36.0359 46.8729 33.9357 45.3602C31.8354 43.8475 30.2308 41.7461 29.3246 39.3217C28.4183 36.8972 28.2512 34.2585 28.8443 31.7391C29.4374 29.2197 30.764 26.9326 32.6566 25.167C34.5492 23.4014 36.9227 22.2365 39.4772 21.8195C42.0316 21.4025 44.6524 21.7522 47.0082 22.8243C49.364 23.8965 51.3491 25.6429 52.7125 27.843C54.076 30.043 54.7566 32.5979 54.6684 35.1847C54.6633 35.3364 54.6881 35.4876 54.7414 35.6297C54.7947 35.7718 54.8756 35.902 54.9793 36.0128C55.083 36.1237 55.2075 36.213 55.3457 36.2757C55.484 36.3384 55.6332 36.3732 55.7849 36.3782C55.9365 36.3854 56.088 36.3623 56.2305 36.3102C56.373 36.2581 56.5037 36.178 56.6148 36.0748C56.726 35.9715 56.8154 35.847 56.8779 35.7087C56.9403 35.5704 56.9745 35.4211 56.9784 35.2694C57.0831 32.2258 56.2831 29.2195 54.6795 26.6306C53.0758 24.0416 50.7406 21.9862 47.969 20.7243C45.1974 19.4623 42.1139 19.0505 39.1083 19.5407C36.1026 20.031 33.3098 21.4014 31.0829 23.4787C28.856 25.556 27.295 28.2469 26.5972 31.2113C25.8994 34.1756 26.0962 37.2803 27.1627 40.1328C28.2291 42.9854 30.1174 45.4577 32.5888 47.2372C35.0601 49.0167 38.0036 50.0235 41.0471 50.1304H41.0856C41.3919 50.1355 41.6877 50.0187 41.9079 49.8057C42.1282 49.5927 42.2547 49.3009 42.2598 48.9946C42.265 48.6883 42.1482 48.3925 41.9352 48.1723C41.7222 47.9521 41.4304 47.8255 41.1241 47.8204Z" fill="url(#paint1_linear_1289_10215)"/>
<path d="M18.4812 20.8688C20.0042 20.8688 21.4929 20.4172 22.7591 19.5711C24.0254 18.725 25.0123 17.5224 25.5951 16.1154C26.1779 14.7084 26.3304 13.1602 26.0333 11.6666C25.7362 10.1729 25.0028 8.8009 23.926 7.72403C22.8491 6.64717 21.4771 5.91381 19.9834 5.61671C18.4898 5.3196 16.9416 5.47209 15.5346 6.05488C14.1276 6.63768 12.925 7.6246 12.0789 8.89086C11.2328 10.1571 10.7813 11.6458 10.7812 13.1688C10.7812 15.2109 11.5925 17.1694 13.0365 18.6135C14.4806 20.0575 16.4391 20.8688 18.4812 20.8688ZM18.4812 7.77875C19.5473 7.77875 20.5894 8.09487 21.4758 8.68713C22.3622 9.27939 23.053 10.1212 23.461 11.1061C23.8689 12.091 23.9757 13.1747 23.7677 14.2203C23.5597 15.2658 23.0464 16.2263 22.2926 16.9801C21.5387 17.7339 20.5783 18.2472 19.5328 18.4552C18.4872 18.6632 17.4035 18.5564 16.4186 18.1485C15.4337 17.7405 14.5919 17.0497 13.9996 16.1633C13.4074 15.2769 13.0912 14.2348 13.0912 13.1688C13.0912 11.7392 13.6591 10.3683 14.6699 9.35745C15.6808 8.34663 17.0517 7.77875 18.4812 7.77875Z" fill="url(#paint2_linear_1289_10215)"/>
<path d="M57.8117 39.3515C54.4421 39.234 51.1639 40.46 48.6982 42.7596C46.2326 45.0592 44.7814 48.2441 44.664 51.6137C44.5465 54.9833 45.7725 58.2615 48.0721 60.7272C50.3717 63.1929 53.5566 64.644 56.9262 64.7615H57.3728C60.7424 64.8197 63.9971 63.5369 66.4209 61.1954C68.8447 58.8539 70.2391 55.6455 70.2973 52.2759C70.3555 48.9063 69.0727 45.6517 66.7312 43.2279C64.3897 40.804 61.1813 39.4097 57.8117 39.3515ZM64.4568 59.6487C63.219 60.8063 61.7169 61.6437 60.0814 62.088C58.4458 62.5322 56.7265 62.5699 55.0731 62.1976C53.4197 61.8253 51.8824 61.0544 50.5951 59.952C49.3078 58.8496 48.3096 57.4492 47.6874 55.8728C47.0652 54.2963 46.8379 52.5917 47.0252 50.9073C47.2126 49.2229 47.809 47.6098 48.7624 46.2086C49.7158 44.8075 50.9974 43.6607 52.4954 42.8681C53.9935 42.0756 55.6626 41.6613 57.3574 41.6615H57.7501C59.8059 41.7319 61.7946 42.4106 63.4644 43.6117C65.1343 44.8129 66.4102 46.4825 67.1308 48.4091C67.8513 50.3358 67.984 52.4329 67.5122 54.435C67.0403 56.4372 65.985 58.2543 64.4799 59.6564L64.4568 59.6487Z" fill="url(#paint3_linear_1289_10215)"/>
<path d="M13.8616 32.4219C11.8818 32.4219 9.94644 33.009 8.30031 34.1089C6.65417 35.2088 5.37117 36.7721 4.61353 38.6012C3.8559 40.4303 3.65767 42.443 4.04391 44.3847C4.43014 46.3265 5.3835 48.1101 6.78343 49.51C8.18335 50.9099 9.96696 51.8633 11.9087 52.2495C13.8505 52.6358 15.8631 52.4375 17.6922 51.6799C19.5213 50.9223 21.0847 49.6393 22.1846 47.9931C23.2845 46.347 23.8716 44.4117 23.8716 42.4319C23.8716 39.7771 22.8169 37.231 20.9397 35.3537C19.0625 33.4765 16.5164 32.4219 13.8616 32.4219ZM13.8616 50.1319C12.3387 50.1319 10.8499 49.6803 9.58368 48.8342C8.31742 47.9881 7.33049 46.7855 6.74769 45.3785C6.1649 43.9715 6.01241 42.4233 6.30952 40.9297C6.60663 39.436 7.33998 38.064 8.41684 36.9872C9.49371 35.9103 10.8657 35.1769 12.3594 34.8798C13.853 34.5827 15.4012 34.7352 16.8082 35.318C18.2152 35.9008 19.4178 36.8877 20.2639 38.154C21.11 39.4202 21.5616 40.909 21.5616 42.4319C21.5616 43.4431 21.3624 44.4443 20.9754 45.3785C20.5885 46.3127 20.0213 47.1616 19.3063 47.8766C18.5913 48.5916 17.7424 49.1588 16.8082 49.5457C15.874 49.9327 14.8727 50.1319 13.8616 50.1319Z" fill="url(#paint4_linear_1289_10215)"/>
<path d="M35.8067 60.4634H35.7451C34.6224 60.4604 33.5462 60.015 32.7498 59.2237C31.9377 58.4224 31.4474 57.3513 31.3715 56.213C31.3715 56.1437 31.3715 56.0744 31.3715 56.0051C31.36 55.6888 31.2343 55.3874 31.0177 55.1567C30.8011 54.9259 30.5083 54.7814 30.1934 54.75C29.8884 54.7541 29.5974 54.8786 29.3839 55.0964C29.1704 55.3143 29.0517 55.6077 29.0538 55.9127C29.0538 56.0205 29.0538 56.1206 29.0538 56.2207C28.9614 58.7925 26.5975 60.4095 24.3876 60.4326H24.2413C24.0896 60.4346 23.9398 60.4665 23.8004 60.5264C23.6611 60.5863 23.5349 60.6731 23.429 60.7818C23.3232 60.8904 23.2398 61.0189 23.1837 61.1598C23.1275 61.3007 23.0996 61.4513 23.1017 61.603C23.1027 61.755 23.1338 61.9052 23.1934 62.0451C23.2529 62.1849 23.3397 62.3115 23.4486 62.4175C23.5575 62.5236 23.6863 62.6069 23.8277 62.6627C23.9691 62.7185 24.1201 62.7457 24.2721 62.7426C24.8765 62.7418 25.475 62.8612 26.0329 63.0938C26.5907 63.3265 27.0967 63.6678 27.5215 64.0978C27.9622 64.5197 28.315 65.0248 28.5595 65.5839C28.804 66.1429 28.9354 66.7448 28.946 67.3549C28.9618 67.6762 29.0939 67.9807 29.3178 68.2117C29.5417 68.4426 29.8419 68.5842 30.1626 68.61C30.4676 68.6059 30.7586 68.4814 30.9721 68.2636C31.1856 68.0457 31.3042 67.7523 31.3022 67.4473C31.2647 66.2515 31.7021 65.0895 32.5187 64.2152C33.3353 63.3409 34.4648 62.8253 35.6604 62.7811H35.8067C36.113 62.7811 36.4068 62.6594 36.6234 62.4428C36.84 62.2262 36.9617 61.9324 36.9617 61.6261C36.9617 61.3198 36.84 61.026 36.6234 60.8094C36.4068 60.5928 36.113 60.4711 35.8067 60.4711V60.4634ZM30.101 63.6127C29.8215 63.1926 29.4989 62.803 29.1385 62.45C28.8379 62.1658 28.5133 61.9081 28.1683 61.68C28.9711 61.1886 29.6653 60.5389 30.2088 59.7704C30.4756 60.1819 30.7853 60.5639 31.1328 60.91C31.4101 61.1924 31.7115 61.45 32.0337 61.68C31.2658 62.1907 30.6086 62.8505 30.101 63.6204V63.6127Z" fill="url(#paint5_linear_1289_10215)"/>
<path d="M42.0043 24.7206C36.853 24.5358 32.5333 28.8401 32.3408 34.2994C32.3346 34.4517 32.3587 34.6038 32.4115 34.7468C32.4644 34.8897 32.5451 35.0209 32.6489 35.1325C32.7526 35.2442 32.8775 35.3342 33.0163 35.3974C33.155 35.4605 33.3049 35.4956 33.4573 35.5006H33.4958C33.7956 35.5007 34.0837 35.3844 34.2992 35.176C34.5147 34.9677 34.6408 34.6837 34.6508 34.3841C34.7971 30.1953 38.0619 26.9382 41.9273 27.0306C42.0789 27.0378 42.2303 27.0147 42.3729 26.9626C42.5154 26.9105 42.6461 26.8305 42.7572 26.7272C42.8684 26.6239 42.9578 26.4995 43.0202 26.3611C43.0827 26.2228 43.1169 26.0735 43.1208 25.9218C43.127 25.7694 43.1029 25.6174 43.0501 25.4744C42.9972 25.3314 42.9165 25.2003 42.8127 25.0886C42.7089 24.977 42.5841 24.8869 42.4453 24.8238C42.3066 24.7606 42.1567 24.7255 42.0043 24.7206Z" fill="url(#paint6_linear_1289_10215)"/>
<path d="M57.0182 43.586C55.0801 43.5778 53.2178 44.3383 51.8394 45.7008C50.461 47.0633 49.679 48.9167 49.6647 50.8548C49.6596 51.0065 49.6844 51.1577 49.7377 51.2998C49.7911 51.4419 49.8719 51.5721 49.9756 51.683C50.0793 51.7938 50.2038 51.8831 50.3421 51.9458C50.4803 52.0085 50.6295 52.0433 50.7812 52.0483H50.8197C51.1195 52.0485 51.4076 51.9321 51.6231 51.7237C51.8386 51.5154 51.9647 51.2314 51.9747 50.9318C51.9746 49.6074 52.4954 48.3361 53.4246 47.3925C54.3539 46.4488 55.617 45.9085 56.9412 45.8883C57.0937 45.8966 57.2462 45.874 57.3897 45.8218C57.5332 45.7697 57.6647 45.689 57.7762 45.5847C57.8877 45.4804 57.9769 45.3546 58.0385 45.2149C58.1002 45.0752 58.1329 44.9245 58.1347 44.7718C58.143 44.4667 58.0303 44.1708 57.8211 43.9486C57.6119 43.7264 57.3232 43.5961 57.0182 43.586Z" fill="url(#paint7_linear_1289_10215)"/>
<path d="M12.7042 36.6562C9.94762 36.6562 7.69922 39.2434 7.69922 42.4312C7.69922 42.7376 7.82091 43.0314 8.03751 43.248C8.25411 43.4646 8.54789 43.5862 8.85422 43.5862C9.16054 43.5862 9.45432 43.4646 9.67093 43.248C9.88753 43.0314 10.0092 42.7376 10.0092 42.4312C10.0092 40.5216 11.2181 38.9662 12.7042 38.9662C13.0105 38.9662 13.3043 38.8446 13.5209 38.628C13.7375 38.4114 13.8592 38.1176 13.8592 37.8112C13.8592 37.5049 13.7375 37.2111 13.5209 36.9945C13.3043 36.7779 13.0105 36.6562 12.7042 36.6562Z" fill="url(#paint8_linear_1289_10215)"/>
<defs>
<linearGradient id="paint0_linear_1289_10215" x1="59.2966" y1="4.31641" x2="59.2966" y2="22.0264" gradientUnits="userSpaceOnUse">
<stop stop-color="#BD83B8"/>
<stop offset="1" stop-color="#4B0082"/>
</linearGradient>
<linearGradient id="paint1_linear_1289_10215" x1="41.5875" y1="19.3398" x2="41.5875" y2="50.1305" gradientUnits="userSpaceOnUse">
<stop stop-color="#BD83B8"/>
<stop offset="1" stop-color="#4B0082"/>
</linearGradient>
<linearGradient id="paint2_linear_1289_10215" x1="18.4813" y1="5.46875" x2="18.4813" y2="20.8688" gradientUnits="userSpaceOnUse">
<stop stop-color="#BD83B8"/>
<stop offset="1" stop-color="#4B0082"/>
</linearGradient>
<linearGradient id="paint3_linear_1289_10215" x1="57.4777" y1="39.3438" x2="57.4777" y2="64.7634" gradientUnits="userSpaceOnUse">
<stop stop-color="#BD83B8"/>
<stop offset="1" stop-color="#4B0082"/>
</linearGradient>
<linearGradient id="paint4_linear_1289_10215" x1="13.8616" y1="32.4219" x2="13.8616" y2="52.4419" gradientUnits="userSpaceOnUse">
<stop stop-color="#BD83B8"/>
<stop offset="1" stop-color="#4B0082"/>
</linearGradient>
<linearGradient id="paint5_linear_1289_10215" x1="30.0316" y1="54.75" x2="30.0316" y2="68.61" gradientUnits="userSpaceOnUse">
<stop stop-color="#BD83B8"/>
<stop offset="1" stop-color="#4B0082"/>
</linearGradient>
<linearGradient id="paint6_linear_1289_10215" x1="37.7308" y1="24.7148" x2="37.7308" y2="35.5006" gradientUnits="userSpaceOnUse">
<stop stop-color="#BD83B8"/>
<stop offset="1" stop-color="#4B0082"/>
</linearGradient>
<linearGradient id="paint7_linear_1289_10215" x1="53.8996" y1="43.5859" x2="53.8996" y2="52.0483" gradientUnits="userSpaceOnUse">
<stop stop-color="#BD83B8"/>
<stop offset="1" stop-color="#4B0082"/>
</linearGradient>
<linearGradient id="paint8_linear_1289_10215" x1="10.7792" y1="36.6562" x2="10.7792" y2="43.5862" gradientUnits="userSpaceOnUse">
<stop stop-color="#BD83B8"/>
<stop offset="1" stop-color="#4B0082"/>
</linearGradient>
</defs>
</svg>
