<svg width="77" height="77" viewBox="0 0 77 77" fill="none" xmlns="http://www.w3.org/2000/svg">
<path d="M30.3181 65.7105C33.3681 67.4185 36.372 68.2763 39.1704 68.2763C41.5129 68.2756 43.7112 67.674 45.6678 66.4663L52.8796 62.0175C53.1397 61.8571 53.3254 61.6008 53.3959 61.3031C53.4665 61.0062 53.4151 60.6931 53.2548 60.433L47.0036 50.3016C46.8433 50.0422 46.5862 49.8566 46.2893 49.786C45.99 49.7161 45.6785 49.7668 45.4192 49.9271L38.1529 54.412C37.0358 55.101 35.6025 55.3213 34.2236 55.0182C32.8448 54.7143 31.6678 53.9148 30.9941 52.8222L21.1183 36.8171C19.6904 34.5029 20.4101 31.4583 22.7227 30.0303L22.7235 30.0295L30.2652 25.3736C30.8061 25.0398 30.9734 24.3308 30.6396 23.7899L24.3877 13.6608C24.0539 13.1198 23.3442 12.9502 22.804 13.2855L15.2685 17.9369C6.86969 23.1208 7.16433 36.7288 15.9866 51.0298C20.031 57.5871 25.1213 62.8009 30.3181 65.7105ZM16.4785 19.8951L23.0342 15.8491L28.0776 24.0193L21.515 28.0706C21.5134 28.0714 21.5119 28.0729 21.5119 28.0729C18.122 30.1684 17.0662 34.6318 19.1602 38.0248L29.036 54.0291C30.0342 55.6489 31.7453 56.8282 33.7295 57.2656C35.6869 57.6945 37.7409 57.3699 39.3622 56.3694L45.6486 52.4892L50.6912 60.6609L44.4585 64.5058C39.907 67.3141 34.8682 65.6184 31.443 63.7009C26.5822 60.9785 21.7881 56.0494 17.9455 49.8205C9.83527 36.6736 9.23218 24.3676 16.4785 19.8951Z" fill="url(#paint0_linear_1237_10911)"/>
<path d="M38.0441 25.7452C41.7685 25.9654 45.0648 27.8791 47.0889 30.9966C49.024 33.9676 49.4898 37.6084 48.3657 40.9861C48.1647 41.5892 48.4908 42.2414 49.0939 42.4409C49.2143 42.4816 49.3363 42.5 49.4576 42.5C49.9402 42.5 50.3891 42.1954 50.5494 41.7127C51.8968 37.666 51.3382 33.3016 49.0187 29.7413C46.6293 26.0598 42.5765 23.7065 38.1799 23.4464C37.5392 23.4195 37.0006 23.893 36.963 24.5275C36.9254 25.1628 37.4096 25.7076 38.0441 25.7452Z" fill="url(#paint1_linear_1237_10911)"/>
<path d="M39.6526 17.2005C45.6835 17.8934 51.0369 21.2027 54.3401 26.2784C57.5404 31.1991 58.4474 37.2577 56.8276 42.9012C56.6519 43.5127 57.0049 44.1496 57.6156 44.3245C57.7223 44.3552 57.8282 44.3698 57.9341 44.3698C58.4336 44.3698 58.8947 44.0406 59.039 43.5365C60.8429 37.2516 59.8331 30.5032 56.269 25.0231C52.5906 19.3704 46.6303 15.6858 39.915 14.9139C39.2958 14.841 38.7134 15.2945 38.6405 15.926C38.5676 16.5575 39.0203 17.1276 39.6526 17.2005Z" fill="url(#paint2_linear_1237_10911)"/>
<path d="M41.2255 9.67666C49.2352 10.79 56.3572 15.3171 60.7661 22.0977C65.0852 28.7325 66.3804 36.9273 64.321 44.5803C64.1552 45.1942 64.5197 45.8257 65.1335 45.9906C65.2333 46.0175 65.3346 46.0305 65.4335 46.0305C65.9407 46.0305 66.4065 45.6929 66.5438 45.1788C68.7736 36.8951 67.3709 28.0243 62.6958 20.8424C57.9233 13.5032 50.2135 8.60244 41.5439 7.39701C40.917 7.31337 40.3324 7.74843 40.2457 8.37839C40.1574 9.00757 40.5963 9.58918 41.2255 9.67666Z" fill="url(#paint3_linear_1237_10911)"/>
<defs>
<linearGradient id="paint0_linear_1237_10911" x1="31.2955" y1="13.1133" x2="31.2955" y2="68.2763" gradientUnits="userSpaceOnUse">
<stop stop-color="#BD83B8"/>
<stop offset="1" stop-color="#4B0082"/>
</linearGradient>
<linearGradient id="paint1_linear_1237_10911" x1="44.1156" y1="23.4453" x2="44.1156" y2="42.5" gradientUnits="userSpaceOnUse">
<stop stop-color="#BD83B8"/>
<stop offset="1" stop-color="#4B0082"/>
</linearGradient>
<linearGradient id="paint2_linear_1237_10911" x1="49.274" y1="14.9062" x2="49.274" y2="44.3698" gradientUnits="userSpaceOnUse">
<stop stop-color="#BD83B8"/>
<stop offset="1" stop-color="#4B0082"/>
</linearGradient>
<linearGradient id="paint3_linear_1237_10911" x1="53.9077" y1="7.38672" x2="53.9077" y2="46.0305" gradientUnits="userSpaceOnUse">
<stop stop-color="#BD83B8"/>
<stop offset="1" stop-color="#4B0082"/>
</linearGradient>
</defs>
</svg>
