<svg width="77" height="77" viewBox="0 0 77 77" fill="none" xmlns="http://www.w3.org/2000/svg">
<path d="M69.3313 40.6731C67.3247 38.6458 64.6052 37.4831 61.7532 37.433V21.9415C61.7541 21.7537 61.7078 21.5688 61.6185 21.4036C61.5293 21.2384 61.4 21.0983 61.2425 20.9961L33.3395 2.38654C33.1515 2.25937 32.9298 2.19141 32.7029 2.19141C32.476 2.19141 32.2543 2.25937 32.0663 2.38654L4.32345 20.8818C4.16583 20.9857 4.03658 21.1272 3.9474 21.2936C3.85822 21.46 3.81191 21.646 3.81266 21.8348V47.8242C3.80945 48.0163 3.85538 48.2062 3.94611 48.3756C4.03684 48.545 4.16935 48.6885 4.33107 48.7924L32.783 67.4172C32.972 67.5415 33.1933 67.6077 33.4195 67.6077C33.6458 67.6077 33.8671 67.5415 34.0561 67.4172L52.3531 54.7008C52.434 54.6403 52.5081 54.5712 52.5742 54.495L60.3047 68.0653C60.4042 68.2379 60.546 68.3823 60.7167 68.485C60.8874 68.5877 61.0815 68.6453 61.2806 68.6523C61.4748 68.6523 61.6657 68.6026 61.8352 68.5079C62.0048 68.4131 62.1471 68.2765 62.2488 68.111L70.9018 54.3501C70.9397 54.2932 70.9705 54.2317 70.9932 54.1671C72.266 52.0578 72.7961 49.5832 72.499 47.1376C72.202 44.6921 71.0948 42.4163 69.3541 40.6731H69.3313ZM33.4233 39.095L20.7984 30.7088L46.0864 13.6392L58.9553 22.2159L33.4233 39.095ZM32.661 4.71179L43.9975 12.2669L18.74 29.3213L7.25097 21.6975L32.661 4.71179ZM6.09979 23.634L32.0206 40.9094V64.1771L6.09979 47.2066V23.634ZM34.3077 64.4516V41.2525L59.4661 24.6174V37.6159C56.9357 38.093 54.6507 39.4373 53.0046 41.4174C51.3584 43.3975 50.4541 45.8896 50.4472 48.4646C50.4094 49.9233 50.7397 51.368 51.4078 52.6653C51.2988 52.6962 51.1957 52.7451 51.1029 52.8101L34.3077 64.4516ZM70.269 48.4874C70.2618 50.1366 69.7916 51.7506 68.912 53.1455C68.8795 53.2017 68.8514 53.2603 68.8281 53.3209L61.3492 65.2673L54.1752 52.6043C54.1058 52.4184 53.9904 52.2532 53.8398 52.124C53.3061 51.6894 52.7343 50.3629 52.7343 48.4874C52.7343 46.1602 53.6588 43.9282 55.3045 42.2826C56.9501 40.637 59.182 39.7125 61.5093 39.7125C62.6615 39.7105 63.8027 39.9362 64.8674 40.3766C65.9321 40.8171 66.8992 41.4636 67.7132 42.279C68.5272 43.0945 69.1721 44.0627 69.6107 45.1282C70.0493 46.1936 70.273 47.3352 70.269 48.4874Z" fill="url(#paint0_linear_1282_10301)"/>
<path d="M61.5091 43.1133C60.2278 43.1133 58.9988 43.6212 58.0913 44.5258C57.1839 45.4304 56.6721 46.6578 56.668 47.9391C56.665 48.5754 56.7879 49.206 57.0295 49.7947C57.2712 50.3833 57.6268 50.9184 58.0761 51.369C58.5253 51.8197 59.0592 52.177 59.6471 52.4205C60.2349 52.664 60.8652 52.7888 61.5015 52.7878C62.7512 52.7382 63.9332 52.2069 64.7998 51.3051C65.6665 50.4034 66.1505 49.2012 66.1505 47.9506C66.1505 46.6999 65.6665 45.4977 64.7998 44.596C63.9332 43.6943 62.7512 43.1629 61.5015 43.1133H61.5091ZM64.0402 47.9544C64.0382 48.6291 63.7693 49.2756 63.2922 49.7527C62.8151 50.2298 62.1686 50.4987 61.4939 50.5007C61.1584 50.4992 60.8266 50.431 60.5177 50.3001C60.2088 50.1693 59.9291 49.9783 59.6947 49.7383C59.4517 49.5046 59.2588 49.2239 59.1277 48.9133C58.9967 48.6027 58.9302 48.2686 58.9323 47.9315C58.9323 47.2562 59.2006 46.6085 59.6781 46.131C60.1556 45.6534 60.8033 45.3852 61.4786 45.3852C61.8159 45.3841 62.1501 45.45 62.4619 45.5788C62.7736 45.7077 63.0567 45.897 63.2949 46.1359C63.5331 46.3747 63.7215 46.6584 63.8495 46.9706C63.9774 47.2827 64.0422 47.6171 64.0402 47.9544Z" fill="url(#paint1_linear_1282_10301)"/>
<defs>
<linearGradient id="paint0_linear_1282_10301" x1="38.196" y1="2.19141" x2="38.196" y2="68.6523" gradientUnits="userSpaceOnUse">
<stop stop-color="#BD83B8"/>
<stop offset="1" stop-color="#4B0082"/>
</linearGradient>
<linearGradient id="paint1_linear_1282_10301" x1="61.4092" y1="43.1133" x2="61.4092" y2="52.7878" gradientUnits="userSpaceOnUse">
<stop stop-color="#BD83B8"/>
<stop offset="1" stop-color="#4B0082"/>
</linearGradient>
</defs>
</svg>
