<svg width="75" height="75" viewBox="0 0 75 75" fill="none" xmlns="http://www.w3.org/2000/svg">
<path d="M66.3665 24.6005L60.1589 5.97773C60.0065 5.5196 59.5782 5.21094 59.0954 5.21094H15.6431C15.1603 5.21094 14.732 5.5196 14.5796 5.97773L8.372 24.6005C8.33388 24.7148 8.31445 24.8344 8.31445 24.9547V68.4071C8.31445 69.0259 8.81593 69.5281 9.4355 69.5281H65.303C65.9218 69.5281 66.4241 69.0259 66.4241 68.4071V24.9547C66.4241 24.8344 66.4046 24.7148 66.3665 24.6005ZM63.8987 24.2859C61.6006 25.9667 59.0312 26.7641 55.8594 26.7641C52.9888 26.7641 50.2183 25.871 47.8021 24.1939V7.45302H58.2875L63.8987 24.2859ZM29.1793 7.45302H45.5592V24.1962C43.1453 25.8718 40.3748 26.7649 37.5034 26.7649C34.5214 26.7649 31.6576 25.8 29.1793 23.9906V7.45302ZM16.451 7.45302H26.9372V23.9906C24.459 25.8 21.5958 26.7649 18.6131 26.7649C15.8023 26.7649 13.1185 25.9517 10.7949 24.4219L16.451 7.45302ZM10.5565 67.2861V26.8971C13.0071 28.2745 15.7529 29.0069 18.6131 29.0069C21.9934 29.0069 25.2415 27.9569 28.0583 25.9607C30.8751 27.9569 34.1231 29.0069 37.5034 29.0069C40.7716 29.0069 43.9277 28.0249 46.681 26.1587C49.4365 28.0249 52.5919 29.0069 55.8586 29.0069C59.0215 29.0069 61.7583 28.27 64.182 26.7895V67.2861H10.5565Z" fill="url(#paint0_linear_1282_10295)"/>
<path d="M48.4343 34.2969H26.3027C25.6831 34.2969 25.1816 34.7984 25.1816 35.4179V55.992C25.1816 56.6109 25.6831 57.1131 26.3027 57.1131H48.4343C49.0531 57.1131 49.5554 56.6109 49.5554 55.992V35.4179C49.5554 34.7984 49.0531 34.2969 48.4343 34.2969ZM27.4237 36.539H36.3614V54.871H27.4237V36.539ZM47.3133 54.871H38.6028V36.539H47.3125L47.3133 54.871Z" fill="url(#paint1_linear_1282_10295)"/>
<defs>
<linearGradient id="paint0_linear_1282_10295" x1="37.3693" y1="5.21094" x2="37.3693" y2="69.5281" gradientUnits="userSpaceOnUse">
<stop stop-color="#BD83B8"/>
<stop offset="1" stop-color="#4B0082"/>
</linearGradient>
<linearGradient id="paint1_linear_1282_10295" x1="37.3685" y1="34.2969" x2="37.3685" y2="57.1131" gradientUnits="userSpaceOnUse">
<stop stop-color="#BD83B8"/>
<stop offset="1" stop-color="#4B0082"/>
</linearGradient>
</defs>
</svg>
