<svg width="87" height="87" viewBox="0 0 87 87" fill="none" xmlns="http://www.w3.org/2000/svg">
<path d="M66.9378 8.8125H19.8459C17.3968 8.8125 15.4043 10.805 15.4043 13.2541V73.5327C15.4043 75.9808 17.3968 77.9734 19.8459 77.9734H66.9387C69.3877 77.9734 71.3802 75.9808 71.3802 73.5327V13.2541C71.3794 10.805 69.3868 8.8125 66.9378 8.8125ZM68.7759 73.5327C68.7759 74.5455 67.9514 75.3699 66.9378 75.3699H19.8459C18.8331 75.3699 18.0078 74.5455 18.0078 73.5327V13.2541C18.0078 12.2404 18.8322 11.416 19.8459 11.416H66.9387C67.9514 11.416 68.7767 12.2404 68.7767 13.2541L68.7759 73.5327Z" fill="url(#paint0_linear_1280_10434)"/>
<path d="M43.7066 66.9375C42.8397 66.9375 42.1367 67.6404 42.1367 68.5074C42.1367 69.3744 42.8397 70.0773 43.7066 70.0773C44.5736 70.0773 45.2765 69.3744 45.2765 68.5074C45.2765 67.6404 44.5736 66.9375 43.7066 66.9375Z" fill="url(#paint1_linear_1280_10434)"/>
<defs>
<linearGradient id="paint0_linear_1280_10434" x1="43.3923" y1="8.8125" x2="43.3923" y2="77.9734" gradientUnits="userSpaceOnUse">
<stop stop-color="#BD83B8"/>
<stop offset="1" stop-color="#4B0082"/>
</linearGradient>
<linearGradient id="paint1_linear_1280_10434" x1="43.7066" y1="66.9375" x2="43.7066" y2="70.0773" gradientUnits="userSpaceOnUse">
<stop stop-color="#BD83B8"/>
<stop offset="1" stop-color="#4B0082"/>
</linearGradient>
</defs>
</svg>
