<svg width="150" height="111" viewBox="0 0 150 111" fill="none" xmlns="http://www.w3.org/2000/svg">
<rect y="0.5" width="150" height="110" rx="5" fill="white"/>
<path d="M71.2241 36.6687C72.5333 34.6406 73.7626 32.5592 75.0229 30.5C76.3454 32.5281 77.5348 34.645 78.8706 36.6643C81.742 35.3507 84.6444 34.0903 87.5512 32.8521C86.8456 34.148 86.0822 35.4172 85.3234 36.682C86.8411 36.0208 88.3367 35.2974 89.8589 34.645C88.1947 37.4764 86.5615 40.3211 84.9062 43.1525C83.9609 44.515 84.4136 46.2413 84.3071 47.7857C78.1339 47.8168 71.9563 47.8168 65.7787 47.7857C65.6811 46.2369 66.116 44.5105 65.1796 43.1481C63.5198 40.3211 61.8955 37.472 60.2313 34.645C61.7491 35.3107 63.2447 36.0208 64.758 36.6909C64.0124 35.4172 63.2491 34.148 62.5435 32.8521C65.4459 34.0947 68.3527 35.3462 71.2241 36.6687ZM67.0391 36.6421C67.6959 37.8581 68.3749 39.0563 69.045 40.2634C69.4578 39.6111 69.8705 38.9543 70.2877 38.3019C69.2048 37.7383 68.1264 37.1791 67.0391 36.6421ZM79.8159 38.2974C80.2197 38.9543 80.6192 39.6155 81.023 40.2723C81.7109 39.0696 82.3943 37.867 83.0467 36.6465C81.9505 37.1613 80.881 37.7294 79.8159 38.2974ZM74.2729 38.3108C73.1634 40.2413 72.0185 42.1496 70.869 44.0579C71.5835 44.0712 72.2936 44.0845 73.0037 44.1022C73.7004 42.975 74.3839 41.8345 75.0451 40.6895C75.7064 41.8345 76.3898 42.9706 77.0821 44.1022C77.7966 44.0845 78.5067 44.0712 79.2212 44.0579C77.8366 41.8256 76.5629 39.5223 75.1738 37.2945C74.659 37.33 74.5614 37.9823 74.2729 38.3108ZM64.9577 38.7013C64.6826 39.3004 65.4414 40.3788 66.1116 39.9972C66.6264 39.3537 65.619 38.3684 64.9577 38.7013ZM83.9654 39.9927C84.6355 40.3877 85.3988 39.3048 85.137 38.7057C84.4757 38.364 83.4683 39.3448 83.9654 39.9927ZM65.7521 44.0801C66.8571 44.0756 67.9578 44.0712 69.0628 44.0623C68.5169 43.1614 67.9844 42.2605 67.4651 41.3463C66.8793 42.2472 66.3113 43.1614 65.7521 44.0801ZM81.0274 44.0579C82.128 44.0667 83.2331 44.0667 84.3337 44.0756C83.7745 43.157 83.2065 42.2428 82.6251 41.3419C82.1014 42.2516 81.5644 43.157 81.0274 44.0579Z" fill="#FCB833"/>
<path d="M69.3428 51.7266C70.3014 52.2236 71.1668 52.876 71.9922 53.5727C74.9967 55.9914 77.9746 58.45 81.0057 60.8421C77.1225 63.9708 73.4346 67.3703 69.3517 70.2372C69.2496 64.0684 69.2718 57.8953 69.3428 51.7266ZM71.9567 56.8302C72.01 59.5462 71.9922 62.2666 71.9834 64.9871C73.6476 63.6468 75.2585 62.24 76.9583 60.9486C75.3517 59.5018 73.6653 58.1527 71.9567 56.8302Z" fill="#0E3B65"/>
<path d="M100.173 57.3681C102.871 55.5574 105.543 53.7157 108.223 51.8828C108.796 52.5973 109.377 53.3074 109.954 54.0219C108.117 55.2334 106.279 56.4406 104.416 57.6077C106.79 59.9021 109.262 62.0945 111.663 64.3667C108.929 66.275 106.177 68.1523 103.457 70.0783C102.92 69.3461 102.383 68.6182 101.85 67.886C103.692 66.599 105.574 65.3697 107.429 64.1004C104.97 61.8948 102.596 59.6048 100.173 57.3681Z" fill="#0E3B65"/>
<path d="M38.3262 69.3817C40.0037 63.5192 41.1886 57.5102 43.0969 51.7188C43.6339 52.4599 44.0422 53.2898 44.2907 54.1685C45.1206 56.9022 46.1369 59.5739 46.8869 62.3298C48.2982 58.8505 49.0571 55.1182 50.6902 51.7321C51.4624 52.9569 51.6799 54.4037 52.0305 55.7795C53.171 60.3372 54.4314 64.8639 55.5453 69.4305C54.5867 69.6169 53.6281 69.8077 52.674 70.0074C51.9195 66.7234 51.1207 63.4526 50.4417 60.1508C49.2612 63.4615 48.5112 66.9408 47.0334 70.1361C46.563 69.5104 46.2035 68.8136 45.9905 68.0636C45.1828 65.4364 44.3351 62.818 43.4786 60.2041C42.7197 63.4793 42.0052 66.7633 41.2197 70.0296C40.2567 69.8077 39.2892 69.5947 38.3262 69.3817Z" fill="#0E3B65"/>
<path d="M60.7056 52.3555C61.6331 52.3555 62.5607 52.3599 63.4882 52.3599C63.4793 58.0981 63.5015 63.8408 63.4793 69.5791C62.5518 69.5924 61.6243 69.6013 60.7012 69.619C60.7145 63.863 60.7012 58.1115 60.7056 52.3555Z" fill="#0E3B65"/>
<path d="M88.6164 56.1835C89.1978 54.6835 89.6727 53.1258 90.5336 51.75C92.9079 57.5149 94.763 63.4928 96.973 69.3242C96.0278 69.5772 95.0781 69.8124 94.1283 70.0564C93.7777 68.9558 93.4405 67.8508 93.1209 66.7413C91.2836 66.7369 89.4463 66.7413 87.6046 66.7369C87.2318 67.8641 86.8413 68.9825 86.4285 70.0964C85.501 69.8212 84.5735 69.5594 83.6504 69.2843C85.3279 64.9262 86.9478 60.546 88.6164 56.1835ZM90.3383 58.2782C89.8413 60.2575 89.1312 62.1703 88.4877 64.1052C89.7392 64.1052 90.9952 64.1052 92.2511 64.1052C91.6298 62.1569 91.0484 60.1954 90.3383 58.2782Z" fill="#0E3B65"/>
<path d="M39.9593 74.4492C41.1842 73.8146 42.7685 74.3117 43.4475 75.5055C42.1383 75.1416 40.4075 74.3294 39.3557 75.6652C37.9977 76.8457 38.7611 79.2156 40.4386 79.615C41.4504 80.0233 42.4046 79.2777 43.341 78.9981C42.6797 80.9153 39.835 80.6579 38.7433 79.2777C37.3587 77.7866 38.0643 75.1238 39.9593 74.4492Z" fill="#0E3B65"/>
<path d="M67.5992 76.1403C67.4971 75.0308 68.6022 74.0545 69.6894 74.3563C69.2013 74.9288 67.9853 75.2483 68.3669 76.2113C68.7752 77.2099 69.9735 78.1862 69.3566 79.3489C69.0459 80.2099 68.0607 80.2853 67.293 80.3697C67.7811 79.8637 68.3359 79.4333 68.8462 78.9495C68.9616 77.8534 67.9409 77.1078 67.5992 76.1403Z" fill="#0E3B65"/>
<path d="M80.4199 73.9141C81.1611 75.8623 80.846 78.068 80.7173 80.0961L80.2779 80.4999C80.2025 78.3076 80.0516 76.0886 80.4199 73.9141Z" fill="#0E3B65"/>
<path d="M94.5234 78.2668C94.6077 76.8289 94.0929 75.2179 94.9849 73.9531C95.1314 76.1233 95.0249 78.2979 95.087 80.4724C94.2305 79.0834 93.3962 77.6854 92.6018 76.2608C92.6417 77.6721 92.6595 79.0834 92.5707 80.4946L92.0426 80.1041C91.7674 78.1381 92.047 76.1321 91.9361 74.1484C92.8237 75.5064 93.6447 76.9043 94.5234 78.2668Z" fill="#0E3B65"/>
<path d="M108.05 74.3134C110.039 73.6876 112.355 75.5693 111.929 77.6773C111.818 80.2469 108.157 81.2854 106.559 79.3682C104.966 77.7528 105.929 74.8814 108.05 74.3134ZM107.647 75.2054C105.885 76.1418 106.182 79.1019 108.121 79.6034C109.768 80.2646 111.681 78.6093 111.259 76.8874C111.081 75.2187 109.013 74.3622 107.647 75.2054Z" fill="#0E3B65"/>
<path d="M55.2843 74.1172C56.0787 76.2341 56.9307 78.3332 57.6763 80.4723C56.0387 79.6069 56.0831 77.2947 55.2931 75.7637C54.4233 77.2681 54.5121 79.5847 52.8789 80.4812C53.5979 78.3288 54.4632 76.2296 55.2843 74.1172Z" fill="#0E3B65"/>
</svg>
