<svg width="35" height="22" viewBox="0 0 35 22" fill="none" xmlns="http://www.w3.org/2000/svg">
<path fill-rule="evenodd" clip-rule="evenodd" d="M7.47897 20.9996H0.88031V20.4704H3.45206L10.8156 6.25873H11.888L18.8542 20.4856H21.3969V20.9996H11.6088V20.4704H14.857L12.9465 16.6051H6.2152L4.3047 20.4704H7.46452L7.47897 20.9996ZM12.6819 16.0468L9.77223 10.0362L6.58278 16.0468H12.6819ZM22.6606 8.28743L24.4537 8.27225C26.056 8.27225 27.0552 7.27312 27.6134 6.18555H30.3034L30.2737 17.3991H33.7864V20.9852L22.6164 20.9707L22.6316 17.3845L26.32 17.3991V11.4472L22.6606 11.4321V8.28743Z" fill="#000706" stroke="#000706" stroke-width="0.48099" stroke-miterlimit="2.613"/>
<path fill-rule="evenodd" clip-rule="evenodd" d="M11.3884 4.93858C13.8137 2.61628 16.9147 0.985589 20.7211 1.00011C24.6299 0.985589 27.9955 2.44008 30.3179 4.90889L29.6414 4.924C27.5989 3.20421 24.292 2.13183 20.7502 2.13183C16.9437 2.13183 14.137 3.33686 11.9909 4.93852L11.3884 4.93858Z" fill="#EFC031" stroke="#EFC031" stroke-width="0.48099" stroke-miterlimit="2.613"/>
</svg>
