<svg width="150" height="111" viewBox="0 0 150 111" fill="none" xmlns="http://www.w3.org/2000/svg">
<rect y="0.5" width="150" height="110" rx="5" fill="white"/>
<path d="M34.6381 48.9567C35.5366 48.5229 36.767 49.0897 37.0587 50.0373C36.6921 49.4821 36.1796 48.8599 35.4334 48.9619C34.722 48.8353 34.0868 49.2252 33.6789 49.7804C33.0321 50.5408 32.3943 51.3141 31.6895 52.0228C32.0458 51.4548 32.5441 50.9939 32.9753 50.4839C33.4878 49.9379 33.8829 49.202 34.6381 48.9567Z" fill="#98A290"/>
<path d="M42.2374 49.4194C43.0146 48.5971 44.5418 48.69 45.1409 49.6763C45.492 50.0972 45.4765 50.6678 45.452 51.1842C45.2609 51.6206 44.973 52.0053 44.649 52.3526C44.0332 53.0123 43.4548 53.7056 42.8377 54.3653C42.4517 54.6299 42.1057 55.0534 41.6009 55.0521C40.9012 55.0611 40.2002 55.0869 39.4992 55.0792C38.7259 55.0572 37.9642 55.287 37.1896 55.1876C37.4142 54.8274 37.737 54.5499 38.0132 54.2323C39.4153 52.6224 40.8379 51.0319 42.2374 49.4194Z" fill="#68D903"/>
<path d="M33.6778 49.7799C34.0857 49.2248 34.7209 48.8349 35.4323 48.9614C36.1785 48.8594 36.691 49.4817 37.0576 50.0368C37.2216 50.3364 37.2048 50.6965 37.2048 51.0283C36.9311 51.8584 36.252 52.4368 35.7008 53.0784C35.3186 53.5225 34.912 53.9473 34.5518 54.4095C33.7591 54.3694 32.9819 54.5992 32.1893 54.5502C31.8613 54.5295 31.536 54.5695 31.2171 54.6457C30.7395 54.7555 30.2489 54.6212 29.7673 54.6883C29.5001 54.7839 29.2626 54.9478 29.0186 55.0885C29.2987 54.6096 29.748 54.261 30.0759 53.8156C30.6297 53.2321 31.1177 52.5904 31.6883 52.0224C32.3932 51.3136 33.031 50.5403 33.6778 49.7799Z" fill="#68D903"/>
<path d="M43.8069 57.0516C44.2033 56.5546 44.7791 56.0769 45.4594 56.1724C46.2857 56.1363 47.0319 56.6927 47.3004 57.4609C47.6064 58.3362 47.0874 59.2812 46.376 59.7808C46.3941 59.6969 46.4302 59.529 46.4483 59.4451C45.1702 59.7679 43.8392 59.6388 42.5405 59.8092C42.25 59.8311 41.873 59.7847 41.793 59.449C42.3868 58.5879 43.1472 57.8624 43.8069 57.0516Z" fill="#68D903"/>
<path d="M35.7005 53.0775C36.2517 52.4358 36.9308 51.8575 37.2045 51.0273C37.2058 52.4139 37.2329 53.803 37.189 55.187C36.2414 56.0997 35.4668 57.1712 34.5541 58.1162C34.2455 58.4609 33.9383 58.8069 33.6452 59.1658C33.3444 59.5221 33.356 60.0205 33.2876 60.4581C33.2347 58.9683 33.3302 57.4746 33.2347 55.9874C33.0965 56.101 32.9558 56.212 32.8125 56.3179C32.8474 56.0932 33.0074 55.8841 33.2579 55.8944C33.7265 55.4335 34.1577 54.9352 34.5515 54.4085C34.9117 53.9463 35.3183 53.5216 35.7005 53.0775Z" fill="#397B00"/>
<path d="M44.6484 52.352C44.9725 52.0047 45.2604 51.62 45.4514 51.1836C45.4695 52.8451 45.445 54.5079 45.4592 56.1707C44.7788 56.0752 44.2031 56.5529 43.8067 57.0499C43.147 57.8607 42.3866 58.5862 41.7927 59.4473C41.6004 58.5384 41.7114 57.6037 41.6559 56.6833C41.6701 56.3205 41.5681 55.8932 41.8366 55.5975C42.1775 55.1922 42.5557 54.8165 42.8372 54.3646C43.4543 53.7049 44.0326 53.0117 44.6484 52.352Z" fill="#397B00"/>
<path d="M64.1493 53.7395C64.8826 52.6899 66.2304 52.3452 67.4465 52.3555C68.478 52.3245 69.6257 52.4639 70.4029 53.2127C71.3699 54.3307 71.255 55.929 71.0213 57.2846C71.02 57.7777 70.9193 58.2593 70.7979 58.7343C70.6017 59.722 70.2028 60.7212 69.423 61.3912C68.4354 62.1762 67.0953 62.2213 65.8908 62.1607C65.084 62.0845 64.1958 61.9063 63.6342 61.2725C63.101 60.6489 62.9035 59.8149 62.9086 59.0106C62.9125 58.4619 62.8738 57.8939 63.0842 57.3749C63.1178 56.1084 63.425 54.7955 64.1493 53.7395ZM65.408 56.0284C65.2866 56.4635 65.2118 56.9089 65.0969 57.3452C65.1137 58.2334 64.8348 59.1875 65.2557 60.0215C65.8082 60.7031 66.8449 60.5559 67.5924 60.3429C68.6445 59.7413 68.6562 58.4038 68.9686 57.3698C69.028 56.4105 69.2216 55.4087 68.8898 54.4779C68.3618 53.8724 67.4659 53.9486 66.7519 54.0738C65.8805 54.2985 65.5797 55.2499 65.408 56.0284Z" fill="black"/>
<path d="M73.3895 52.5605C74.3112 52.4055 75.2795 52.4598 76.2219 52.4481C77.0649 52.4598 77.9351 52.3771 78.7471 52.6586C79.301 52.807 79.7786 53.277 79.8716 53.854C79.98 54.2839 79.909 54.7268 79.8612 55.1605C79.7244 55.9919 79.1848 56.8543 78.2707 56.9331C78.1765 56.9602 77.988 57.0157 77.8938 57.0428L78.0009 57.1964C78.4424 57.2958 78.9343 57.4211 79.2467 57.7722C79.8303 58.5894 79.6276 59.6661 79.372 60.5634C79.1783 61.1985 78.6696 61.7317 78.019 61.8957C76.7177 62.2507 75.3608 62.0545 74.0324 62.0855C73.3675 62.0803 72.7039 62.0287 72.0391 62.0119C72.3115 60.1167 72.6097 58.2254 72.8873 56.3341C72.9776 55.3774 73.1209 54.4272 73.2758 53.4796C73.3172 53.1737 73.3288 52.8638 73.3895 52.5605ZM75.1568 54.009C75.1039 54.8145 74.9477 55.6085 74.8225 56.4051C75.7352 56.3405 76.7525 56.6284 77.5762 56.1159C77.8925 55.6175 77.9557 55.0159 77.9519 54.4389C77.8189 54.1897 77.5904 53.9806 77.2883 54.0038C76.5782 53.9922 75.8656 53.9599 75.1568 54.009ZM74.3009 60.5324C75.0135 60.5208 75.7275 60.5569 76.4388 60.5053C76.777 60.482 77.0636 60.291 77.2947 60.0547C77.5439 59.395 77.8098 58.583 77.3864 57.9388C77.1811 57.8678 76.9771 57.7761 76.7564 57.789C76.0412 57.7813 75.326 57.7903 74.612 57.7851C74.5462 58.7056 74.3409 59.6106 74.3009 60.5324Z" fill="black"/>
<path d="M101.386 52.5213C101.996 52.5149 102.603 52.4245 103.216 52.4516C104.249 52.4736 105.289 52.3845 106.316 52.5368C106.71 52.6905 107.184 52.7305 107.469 53.0829C107.939 53.5554 107.936 54.2719 107.885 54.8903C107.802 55.3835 107.712 55.9115 107.376 56.3027C107.03 56.792 106.416 56.9585 105.855 57.0347C105.796 57.2141 106.092 57.2141 106.188 57.2425C106.713 57.3226 107.207 57.6479 107.45 58.1243C107.545 58.3631 107.561 58.6226 107.633 58.8692C107.585 59.8452 107.469 61.0174 106.598 61.6268C105.868 62.1044 104.959 62.0528 104.128 62.1238C102.763 62.0954 101.396 62.0838 100.03 62.0154C100.307 60.0711 100.631 58.1333 100.897 56.1904C100.978 55.2725 101.141 54.3649 101.259 53.4521C101.33 53.1462 101.347 52.8325 101.386 52.5213ZM103.171 54.0034C103.1 54.5108 103.055 55.0233 102.951 55.5255C102.907 55.8198 102.869 56.1155 102.839 56.4124C103.645 56.3918 104.461 56.4821 105.258 56.3272C105.716 56.0419 105.858 55.5255 105.938 55.0259C105.944 54.8374 105.951 54.6489 105.96 54.4617C105.831 54.2784 105.716 54.0279 105.456 54.0266C104.699 53.966 103.932 53.984 103.171 54.0034ZM102.63 57.7886C102.499 58.7001 102.389 59.6141 102.271 60.5281C102.969 60.5333 103.667 60.5488 104.365 60.5165C104.788 60.4971 105.206 60.2661 105.374 59.8645C105.596 59.2578 105.685 58.5632 105.42 57.9539C105.207 57.8738 104.994 57.7757 104.762 57.7912C104.052 57.7835 103.34 57.7925 102.63 57.7886Z" fill="black"/>
<path d="M52.21 52.5369C52.9484 52.4917 53.6895 52.5356 54.4292 52.5163C54.7016 52.6208 54.9585 52.8184 54.996 53.1282C55.2477 54.9124 55.3704 56.7133 55.6053 58.4988C55.6208 58.7918 55.6143 59.0862 55.6208 59.3792C55.9513 59.4541 55.9397 59.0913 56.0378 58.9028C56.2728 58.2522 56.5064 57.6015 56.7517 56.9547C57.2023 55.6469 57.6774 54.3469 58.1783 53.0572C58.3022 52.6957 58.6921 52.5214 59.0536 52.5227C59.6591 52.5124 60.2645 52.5188 60.8713 52.5188C61.1424 52.5227 61.4716 52.5744 61.6265 52.83C61.7918 53.0998 61.6885 53.4225 61.6833 53.7156C61.5697 54.6993 61.5181 55.6908 61.3632 56.6668C61.2095 58.4497 61.0327 60.2287 60.8881 62.0116C60.2387 62.0142 59.5906 62.0129 58.9413 62.0142C59.0265 60.8432 59.1723 59.6749 59.3195 58.5104C59.5119 57.271 59.5235 56.0123 59.7197 54.7729C59.7326 54.556 59.7378 54.3392 59.7404 54.1236C59.6616 54.1352 59.5054 54.1584 59.4267 54.17C59.3299 54.5044 59.1969 54.8246 59.0833 55.1525C58.705 56.0768 58.3216 56.9999 58.0066 57.9475C57.8646 58.2883 57.7264 58.6317 57.6128 58.9829C57.3624 59.5109 57.3314 60.2003 56.8434 60.5773C56.2237 60.7516 55.5588 60.6328 54.9211 60.6586C54.5131 60.6973 54.18 60.3087 54.1981 59.9176C54.0548 58.269 53.8237 56.6307 53.6469 54.9859C53.5707 54.7084 53.5707 54.4192 53.5642 54.1326C53.448 54.1378 53.3331 54.1416 53.2183 54.1468C53.044 55.3358 52.8103 56.5158 52.5818 57.6958C52.3894 59.1404 52.139 60.5811 51.8743 62.0142C51.2288 62.0116 50.582 62.0154 49.9365 62.0129C50.2283 60.4082 50.5084 58.7944 50.8738 57.2103C50.9951 55.8522 51.3592 54.5276 51.5257 53.176C51.6471 52.8739 51.8511 52.5589 52.21 52.5369Z" fill="black"/>
<path d="M82.1561 52.5182C82.8351 52.5143 83.5129 52.5195 84.192 52.5156C84.161 53.0862 84.0525 53.6491 83.9596 54.212C83.8795 54.8149 83.8189 55.4217 83.7091 56.0181C83.651 56.3228 83.6355 56.6339 83.5542 56.9334C83.3683 57.5183 83.4806 58.147 83.3192 58.7395C83.1901 59.8343 83.061 60.9317 82.8777 62.0187C82.187 62.0032 81.4964 62.0148 80.8057 62.0109C81.2937 58.8519 81.7404 55.6876 82.1561 52.5182Z" fill="black"/>
<path d="M86.0498 53.3535C86.0859 53.0746 86.1221 52.7971 86.1505 52.5169C86.8308 52.5169 87.5112 52.5182 88.1916 52.5156C88.0418 53.6401 87.905 54.7697 87.7074 55.8864C87.5331 57.0483 87.3601 58.2115 87.2349 59.3799C87.1949 59.6562 87.222 59.935 87.2801 60.2061C87.5073 60.2655 87.7345 60.3365 87.9747 60.3288C88.9997 60.3288 90.0261 60.3275 91.0511 60.3288C91.0498 60.8581 91.0511 61.3861 91.0369 61.9154C90.6574 61.9335 90.2765 61.9399 89.8983 61.9645C88.7867 62.0703 87.6622 62.0445 86.5468 62.0071C85.7232 61.8767 85.0622 61.1511 85.097 60.3017C85.1822 59.5722 85.2739 58.839 85.412 58.1173C85.4353 57.8965 85.434 57.6693 85.5205 57.4627C85.6754 57.0987 85.5166 56.6869 85.6638 56.3215C85.7619 55.3287 85.8987 54.3385 86.0498 53.3535Z" fill="black"/>
<path d="M93.145 54.3836C93.2069 53.4631 93.9299 52.7092 94.8194 52.5233C95.7644 52.4845 96.712 52.5168 97.6583 52.5116C98.3451 52.4858 99.0216 52.6382 99.7084 52.6162C99.6929 53.1313 99.5548 53.6296 99.4954 54.1396C98.1437 54.1577 96.7895 54.1021 95.4391 54.1719C95.3332 54.3513 95.1667 54.5114 95.1486 54.7296C95.0698 55.2692 94.9717 55.8063 94.9498 56.3511C96.1788 56.3524 97.4078 56.3485 98.6369 56.3537C98.6562 56.8429 98.4109 57.2935 98.4548 57.7854C97.2155 57.7854 95.9774 57.7996 94.7393 57.7776C94.5831 58.5651 94.4398 59.3823 94.4979 60.1905C94.6748 60.2925 94.8594 60.4022 95.0737 60.3777C96.2588 60.3816 97.444 60.3777 98.6291 60.379C98.5839 60.8941 98.6498 61.4234 98.522 61.9295C96.9831 62.0057 95.4416 62.087 93.9002 62.0121C93.4742 61.883 92.9991 61.75 92.7215 61.3744C92.3949 60.9161 92.258 60.3274 92.3755 59.7748C92.6802 57.9842 92.8829 56.1807 93.145 54.3836Z" fill="black"/>
<path d="M110.251 53.2753C110.677 52.7008 111.431 52.4762 112.12 52.502C113.065 52.5136 114.01 52.4994 114.954 52.5213C115.423 52.582 115.893 52.6169 116.365 52.6143C116.357 53.1294 116.228 53.6303 116.166 54.139C114.905 54.1428 113.642 54.1222 112.382 54.1493C112.043 54.1235 111.844 54.4617 111.813 54.7574C111.751 55.2893 111.626 55.8134 111.621 56.3505C112.848 56.3518 114.077 56.3505 115.307 56.3518C115.33 56.841 115.092 57.2955 115.143 57.7861C113.892 57.7964 112.641 57.7719 111.39 57.799C111.379 57.8997 111.361 57.9991 111.334 58.0959C111.285 58.7052 111.124 59.3056 111.15 59.9188C111.112 60.1215 111.29 60.239 111.405 60.3706C112.704 60.3874 114.003 60.3745 115.301 60.3784C115.26 60.8857 115.251 61.3957 115.252 61.9056C114.891 61.9328 114.531 61.9418 114.17 61.965C112.972 62.0735 111.759 62.0464 110.557 62.005C109.889 61.885 109.243 61.4538 109.088 60.7592C108.947 59.8723 109.188 58.9893 109.301 58.1114C109.501 57.2245 109.497 56.3091 109.682 55.4184C109.781 54.6902 109.78 53.8834 110.251 53.2753Z" fill="black"/>
<path d="M117.087 54.1965C117.176 53.6349 117.211 53.0656 117.337 52.5117C119.892 52.522 122.446 52.5182 125.001 52.513C124.985 53.0785 124.845 53.6297 124.803 54.1939C123.858 54.2068 122.913 54.1978 121.968 54.1978C121.893 54.5463 121.862 54.9014 121.791 55.2499C121.705 55.8554 121.648 56.4673 121.502 57.0612C121.305 58.715 121.133 60.3817 120.846 62.0225C120.158 61.9993 119.471 62.0161 118.785 62.0109C119.185 59.4108 119.575 56.8095 119.922 54.2016C118.977 54.1965 118.032 54.2042 117.087 54.1965Z" fill="black"/>
<path d="M32.1899 54.5517C32.9826 54.6007 33.7598 54.3709 34.5524 54.411C34.1587 54.9377 33.7275 55.436 33.2588 55.8969C33.0084 55.8866 32.8483 56.0957 32.8134 56.3203C32.785 56.3759 32.7282 56.4856 32.6998 56.5411C31.3649 58.0464 30.043 59.5646 28.7145 61.0777C28.2794 61.5863 27.7708 62.175 27.0401 62.1737C25.9389 62.3261 24.8751 61.2752 25.0119 60.174C25.0339 59.2806 25.8459 58.7332 26.3365 58.0787C27.2492 57.1001 28.0742 56.0363 29.0192 55.09C29.2632 54.9493 29.5007 54.7853 29.768 54.6898C30.2495 54.6227 30.7401 54.7569 31.2178 54.6472C31.5366 54.571 31.862 54.531 32.1899 54.5517Z" fill="#50AB01"/>
<path d="M41.6017 55.054C42.1065 55.0553 42.4525 54.6318 42.8385 54.3672C42.557 54.819 42.1788 55.1947 41.838 55.6001C41.5694 55.8957 41.6714 56.3231 41.6572 56.6858C41.7127 57.6063 41.6017 58.541 41.7941 59.4499C41.8741 59.7855 42.2511 59.832 42.5416 59.8101C43.8403 59.6396 45.1713 59.7687 46.4494 59.446C46.4313 59.5299 46.3952 59.6977 46.3771 59.7816C46.3681 59.8217 46.35 59.9017 46.3397 59.9417C45.8117 60.4633 45.3546 61.0507 44.855 61.5994C44.2637 62.2513 43.1974 62.3791 42.4667 61.8873C41.9128 61.5064 41.5526 60.8506 41.5539 60.1741C41.5501 58.7927 41.5656 57.4101 41.5449 56.0274C41.3809 56.0868 41.266 56.2185 41.155 56.3476C39.6859 58.0181 38.2193 59.6939 36.7501 61.367C36.3848 61.855 35.8012 62.21 35.1764 62.179C34.2262 62.2294 33.3496 61.3928 33.2889 60.4607C33.3574 60.0231 33.3457 59.5247 33.6465 59.1684C33.9396 58.8095 34.2469 58.4635 34.5554 58.1188C35.4682 57.1738 36.2428 56.1023 37.1903 55.1896C37.9649 55.289 38.7266 55.0592 39.4999 55.0811C40.201 55.0889 40.902 55.063 41.6017 55.054Z" fill="#50AB01"/>
</svg>
