<svg width="57" height="12" viewBox="0 0 57 12" fill="none" xmlns="http://www.w3.org/2000/svg">
<path d="M2.87688 5.99913L1.60458 7.27034L0.333374 5.99913L1.60458 4.72793L2.87688 5.99913ZM5.96142 2.9124L8.13983 5.09192L9.41104 3.82072L5.96142 0.371094L2.51179 3.82072L3.783 5.09192L5.96142 2.9124ZM10.3194 4.72793L9.04815 5.99913L10.3194 7.27034L11.5895 5.99913L10.3194 4.72793ZM5.96142 9.08587L3.783 6.90745L2.51179 8.17755L5.96142 11.6272L9.41104 8.17755L8.13983 6.90745L5.96142 9.08587ZM5.96142 7.27034L7.23262 5.99913L5.96142 4.72793L4.69021 5.99913L5.96142 7.27034ZM19.3772 7.3924V7.3748C19.3772 6.54566 18.9374 6.13109 18.2215 5.85838C18.6613 5.61096 19.033 5.22278 19.033 4.52669V4.5091C19.033 3.5392 18.2567 2.9124 16.9954 2.9124H14.1319V9.08587H17.0679C18.4612 9.08587 19.3794 8.52175 19.3794 7.3924H19.3772ZM17.6838 4.75322C17.6838 5.21178 17.3044 5.40642 16.7051 5.40642H15.4548V4.10333H16.7952C17.3682 4.10333 17.686 4.33206 17.686 4.73783L17.6838 4.75322ZM18.0279 7.22305C18.0279 7.68161 17.6662 7.89274 17.0657 7.89274H15.4548V6.53687H17.024C17.7211 6.53687 18.0301 6.79309 18.0301 7.20766L18.0279 7.22305ZM22.2308 9.08587V2.9124H20.8684V9.08587H22.2308ZM29.5315 9.08587V2.9124H28.1866V6.71391L25.2945 2.9124H24.042V9.08587H25.3824V5.1612L28.3713 9.08587H29.5315ZM37.0542 9.08587L34.404 2.86841H33.1515L30.5068 9.08587H31.8913L32.4576 7.7014H35.0682L35.6323 9.08587H37.0542ZM34.5855 6.50168H32.9404L33.7607 4.5003L34.5855 6.50168ZM43.5279 9.08587V2.9124H42.183V6.71391L39.2898 2.9124H38.0384V9.08587H39.3778V5.1612L42.3677 9.08587H43.5279ZM50.5382 8.08958L49.675 7.21645C49.19 7.65632 48.7578 7.93893 48.0519 7.93893C46.994 7.93893 46.2616 7.0592 46.2616 5.99913V5.98154C46.2616 4.92367 47.0116 4.05934 48.0519 4.05934C48.6688 4.05934 49.1515 4.32326 49.631 4.75542L50.492 3.75914C49.9191 3.19501 49.223 2.80683 48.0585 2.80683C46.1627 2.80683 44.8398 4.24408 44.8398 5.99584V6.01343C44.8398 7.78608 46.189 9.18814 48.0057 9.18814C49.1944 9.19144 49.8993 8.76807 50.5338 8.08958H50.5382ZM56.3334 9.08587V7.87625H52.9772V6.57755H55.888V5.36793H52.9772V4.12092H56.285V2.9113H51.6279V9.08477L56.3334 9.08587Z" fill="#F0B90B"/>
</svg>
