<svg width="150" height="111" viewBox="0 0 150 111" fill="none" xmlns="http://www.w3.org/2000/svg">
<rect y="0.5" width="150" height="110" rx="5" fill="white"/>
<path d="M102.02 31.8848C102.891 29.9365 105.258 30.2565 106.533 31.5365C107.22 32.5154 107.508 33.7483 108.416 34.5766C108.213 33.753 107.908 32.9624 107.606 32.1671C109.075 31.2589 110.646 30.0071 112.482 30.7365C111.894 31.3718 111.079 31.833 110.651 32.6001C110.877 33.5272 111.404 34.4731 110.797 35.3954C112.623 34.1013 115.329 32.713 117.291 34.5578C116.543 35.259 115.503 35.4613 114.679 36.0308C114.129 37.0802 114.444 38.3696 114.312 39.5132C110.905 39.3203 107.489 39.2638 104.086 39.0238C104.105 37.1696 104.345 35.3154 104.246 33.4566C103.992 33.2213 103.484 32.7554 103.23 32.5201C102.717 33.2213 102.19 35.0048 101.06 34.1342C100.463 33.8566 100.849 33.1224 100.957 32.6801C101.54 32.5718 102.114 32.4165 102.67 32.1954L102.02 31.8848Z" fill="#614242"/>
<path d="M112.745 31.3212C113.592 30.4412 114.976 32.1448 113.87 32.8083C112.877 33.533 111.747 31.9895 112.745 31.3212Z" fill="#614242"/>
<path d="M117.466 35.0997C118.651 34.5491 119.442 36.3468 118.256 36.8786C117.108 37.3304 116.444 35.5844 117.466 35.0997Z" fill="#614242"/>
<path d="M45.7128 75.8285C45.8258 73.6261 47.774 71.7061 49.9953 71.7202C51.5106 71.546 52.7954 72.4872 53.8683 73.4284C53.0118 74.5014 51.8494 74.252 50.7482 73.8049C48.6964 73.0002 46.6446 75.9697 48.2588 77.5697C49.3459 79.151 51.1577 78.125 52.6118 77.885C52.9318 78.0921 53.5718 78.5109 53.8919 78.7227C52.7154 79.791 51.2 80.7369 49.5341 80.4122C47.3411 80.1345 45.5387 78.0545 45.7128 75.8285Z" fill="#614242"/>
<path d="M59.0549 71.7656C59.6149 71.7656 60.1749 71.7703 60.7349 71.7703C62.029 74.6504 63.2997 77.5399 64.5797 80.4294C63.9162 80.3729 63.2385 80.3682 62.5844 80.2223C62.0761 79.8553 61.902 79.1917 61.5632 78.6929C60.4619 78.6552 59.3607 78.6505 58.2595 78.6835C57.836 80.0764 56.5983 80.5659 55.2383 80.4906C56.4618 77.5634 57.7513 74.6598 59.0549 71.7656ZM58.9843 76.8622C59.5866 76.8622 60.189 76.8669 60.7961 76.8716C60.4902 76.1187 60.189 75.3657 59.8878 74.6128C59.5819 75.361 59.2854 76.1093 58.9843 76.8622Z" fill="#614242"/>
<path d="M68.0854 71.8711C69.5113 71.3111 70.8714 72.1582 71.9114 73.0617C70.9373 74.3982 69.2855 73.2311 68.1654 74.1629C69.5019 75.01 71.5255 75.1936 72.1373 76.8689C72.8856 79.1372 70.1043 81.109 68.0666 80.3184C67.0125 80.0454 66.3866 79.0901 65.7324 78.2995C66.6736 77.7348 67.6901 77.8572 68.6172 78.3607C69.3466 78.8313 69.9443 78.0125 70.5467 77.716C69.4455 76.9489 68.1184 76.5912 67.0266 75.8195C65.7371 74.6477 66.3724 72.2429 68.0854 71.8711Z" fill="#614242"/>
<path d="M74.9703 71.7892C75.6292 71.7797 76.288 71.775 76.9516 71.7656C76.9657 74.6363 76.9563 77.5117 76.961 80.3823C76.2927 80.3682 75.6245 80.3588 74.9609 80.3447C74.9939 77.4928 74.9845 74.641 74.9703 71.7892Z" fill="#614242"/>
<path d="M80.373 71.7506C81.3048 71.8918 82.5472 71.4165 83.2202 72.2636C84.4108 73.746 85.3708 75.3931 86.4532 76.9555C86.4579 75.2284 86.4579 73.5013 86.4532 71.7741C87.1026 71.7741 87.7521 71.7741 88.4015 71.7741C88.3968 74.6495 88.3921 77.5249 88.4062 80.4003C87.7568 80.3908 87.1073 80.3861 86.4626 80.3814C85.0743 78.4143 83.719 76.4284 82.3213 74.4707C82.2978 76.4519 82.3072 78.4378 82.3119 80.4238C81.6625 80.4191 81.0178 80.4144 80.373 80.4097C80.373 77.5249 80.373 74.6354 80.373 71.7506Z" fill="#614242"/>
<path d="M94.4259 71.8637C97.5695 70.8001 100.93 74.099 99.8896 77.2568C99.1743 80.3486 94.9341 81.5298 92.6706 79.3368C90.1246 77.2285 91.2023 72.6213 94.4259 71.8637ZM94.8918 73.7272C93.16 74.1178 92.4023 76.5367 93.7529 77.7697C95.0894 79.318 97.9836 78.358 98.1154 76.3108C98.3319 74.6073 96.473 73.2472 94.8918 73.7272Z" fill="#614242"/>
<path d="M41.3274 74.3281C41.8686 75.1093 42.5509 75.7682 43.3133 76.3282C42.5368 76.907 41.8592 77.5988 41.318 78.4082C40.8238 77.5706 40.1462 76.8741 39.332 76.347C40.1273 75.8152 40.8238 75.1517 41.3274 74.3281Z" fill="#614242"/>
<path d="M102.237 76.3318C102.971 75.7671 103.635 75.1224 104.219 74.4023C104.779 75.1365 105.442 75.7812 106.19 76.3224C105.437 76.873 104.793 77.5507 104.261 78.3177C103.659 77.5789 102.981 76.9153 102.237 76.3318Z" fill="#614242"/>
<path d="M81.6967 34.1115C85.1697 33.3821 88.9204 33.575 92.1769 35.0574C97.1512 37.2927 100.869 42.0411 102.031 47.3495C102.695 50.7472 102.587 54.3567 101.382 57.6274C99.6924 62.3287 95.9182 66.2535 91.264 68.0747C86.0921 69.9477 79.9931 69.1524 75.6165 65.7641C68.934 60.9263 66.6233 51.1802 70.1764 43.7823C72.1905 38.9587 76.5954 35.2503 81.6967 34.1115ZM84.5626 43.1611C82.1155 43.6176 80.3743 45.7165 79.4425 47.9048C77.9272 51.4861 79.0284 55.9756 82.0449 58.4321C84.3979 60.3098 88.158 59.8769 90.0216 57.5097C92.944 54.225 93.0664 48.8931 90.2757 45.4906C88.9957 43.7306 86.7227 42.7188 84.5626 43.1611Z" fill="#FF722D"/>
<path d="M31.2336 36.3224C34.9937 36.2942 38.7538 36.1153 42.5139 35.993C44.834 40.6237 47.0176 45.325 49.3141 49.9651C51.6436 45.3297 53.8648 40.6425 56.1519 35.9883C59.9309 36.1153 63.7051 36.2659 67.484 36.3506C67.4181 46.605 67.8322 56.8735 66.9805 67.1091C63.7474 67.3068 60.5191 67.4668 57.2861 67.6174C57.7473 62.5302 57.9026 57.4194 57.9543 52.3181C55.0743 57.5324 52.2271 62.7702 49.3753 68.0032C46.4858 62.7137 43.6434 57.4006 40.6833 52.1534C40.9139 57.2971 41.1821 62.4407 41.4363 67.5797C38.2173 67.4432 35.0078 67.2032 31.7889 67.095C30.8713 56.8641 31.2195 46.5815 31.2336 36.3224Z" fill="#FF722D"/>
<path d="M103.904 68.2149C103.339 59.0805 103.419 49.9179 104.069 40.793C107.48 40.9059 110.897 41 114.309 41.16C113.401 50.0356 113.598 58.9723 113.829 67.8807C110.521 67.9702 107.212 68.1207 103.904 68.2149Z" fill="#FF722D"/>
</svg>
