<svg width="42" height="20" viewBox="0 0 42 20" fill="none" xmlns="http://www.w3.org/2000/svg">
<path d="M1.97724 0.131717C3.29164 -0.43581 4.56428 0.989149 4.43406 2.25687C4.47337 3.39929 3.37763 4.5884 2.18607 4.23462C0.390128 3.74571 0.250089 0.809801 1.97724 0.131717Z" fill="#EF5133"/>
<path d="M0.741455 5.6866C1.87405 5.66449 3.00419 5.67677 4.13679 5.67677C4.13679 10.3644 4.13679 15.0496 4.13679 19.7347C3.00419 19.7249 1.87405 19.7372 0.743911 19.7274C0.758652 15.0471 0.76111 10.3669 0.741455 5.6866Z" fill="#EF5133"/>
<path d="M32.4394 0.104624C33.7465 -0.394112 35.0191 0.984167 34.8815 2.25189C34.9577 3.49996 33.6629 4.73328 32.4149 4.21981C30.7836 3.50733 30.759 0.770423 32.4394 0.104624Z" fill="#4B5A52"/>
<path d="M5.88362 0.453492C7.17836 0.455949 8.60823 0.544395 9.63764 1.42885C10.6818 2.37227 11.0012 3.86111 11.0184 5.21237C11.0135 8.32762 11.0184 11.4429 11.0159 14.5557C10.9692 15.9806 10.753 17.5628 9.68187 18.607C8.63526 19.6413 7.06043 19.7985 5.6625 19.7101C5.68953 18.5087 5.6797 17.3073 5.67233 16.1059C6.47571 16.0838 7.42159 15.7399 7.50758 14.8161C7.71641 12.5263 7.51986 10.2169 7.57637 7.91733C7.51003 6.74297 7.79257 5.45559 7.18082 4.38441C6.90811 3.92253 6.32584 3.95447 5.86396 3.87831C6.41429 2.80713 6.46097 1.52958 5.88362 0.453492Z" fill="#4B5A52"/>
<path d="M21.9414 0.787622C22.8013 0.787622 23.6588 0.787622 24.5186 0.787622C24.4818 2.61796 24.5186 4.44829 24.4965 6.27863C25.6905 4.66941 28.5994 4.88315 29.4053 6.75771C30.2111 8.67158 29.8328 10.7943 29.9212 12.8089C29.8426 14.7817 30.2332 16.9388 29.1964 18.7323C28.1695 20.4005 25.4154 20.2408 24.4965 18.5333C24.5039 18.9337 24.5137 19.3342 24.5211 19.7347C23.6612 19.7371 22.8013 19.7371 21.9414 19.7371C21.9513 13.4206 21.9537 7.10412 21.9414 0.787622ZM25.3638 8.2662C24.612 8.53399 24.5211 9.46022 24.5064 10.1432C24.5064 11.6984 24.4867 13.2536 24.5186 14.8087C24.558 15.4426 24.612 16.2189 25.1992 16.6022C25.7569 16.9191 26.7028 16.7938 26.8477 16.0568C27.1671 14.6761 26.9804 13.2413 27.032 11.836C26.9853 10.7869 27.1745 9.65185 26.6978 8.67649C26.4743 8.17038 25.8306 8.11142 25.3638 8.2662Z" fill="#4B5A52"/>
<path d="M36.3949 15.2682C36.4244 10.8041 36.3556 6.33759 36.4318 1.87354C37.417 1.92022 38.4046 1.91039 39.3923 1.89074C39.4389 3.24199 39.4021 4.59324 39.4168 5.9445C40.2522 5.92239 41.0875 5.92239 41.9253 5.94941C41.9179 6.74297 41.9179 7.53652 41.9228 8.33008C41.085 8.31779 40.2497 8.31779 39.4119 8.32271C39.4144 10.2267 39.4144 12.1308 39.4095 14.0348C39.4168 14.6638 39.434 15.3836 39.9156 15.8578C40.2423 16.2558 40.8295 16.2189 41.2177 16.5064C41.2717 17.6685 41.2152 18.8355 41.2349 20C39.8419 19.8354 38.326 19.5258 37.3457 18.4375C36.5645 17.5849 36.3679 16.386 36.3949 15.2682Z" fill="#4B5A52"/>
<path d="M13.286 6.50711C14.8363 4.33528 18.6911 4.92492 19.7008 7.33998C20.5853 9.30298 20.1848 11.5092 20.2954 13.5901C18.5117 13.6589 16.7256 13.6123 14.9419 13.6147C14.8731 14.396 14.7773 15.2043 15.0304 15.9634C15.2466 16.6047 16.104 16.7594 16.6617 16.5064C17.1433 16.2484 17.1727 15.6367 17.33 15.1723C18.3152 15.1871 19.3003 15.1846 20.2855 15.1797C20.2045 16.246 20.0398 17.3614 19.4011 18.2532C18.4552 19.6536 16.5217 20.0884 14.9567 19.6438C13.9101 19.3489 13.1288 18.4645 12.7529 17.4695C11.9937 15.6047 12.2099 13.5533 12.1755 11.5903C12.1682 9.85331 12.2886 7.99103 13.286 6.50711ZM15.2564 8.73545C14.7085 9.42336 14.9051 10.3717 14.8633 11.1874C15.6642 11.1849 16.4676 11.1849 17.2685 11.2119C17.3373 10.4454 17.3717 9.65185 17.1236 8.91234C16.8877 8.12616 15.7011 8.16547 15.2564 8.73545Z" fill="#4B5A52"/>
<path d="M31.6262 5.75532C32.6188 5.77498 33.6114 5.77252 34.6015 5.76515C34.6408 10.4233 34.6064 15.0839 34.6187 19.742C33.6187 19.7469 32.6163 19.7469 31.6164 19.742C31.6189 15.079 31.5968 10.4184 31.6262 5.75532Z" fill="#4B5A52"/>
</svg>
