<svg width="150" height="111" viewBox="0 0 150 111" fill="none" xmlns="http://www.w3.org/2000/svg">
<rect y="0.5" width="150" height="110" rx="5" fill="white"/>
<path d="M72.074 37.1366C74.4247 35.4575 77.5013 36.0995 80.0002 37.0626C81.9262 37.8428 83.2547 39.7343 83.6102 41.7492C83.8423 43.1764 83.3929 44.5937 83.2448 46.0061C80.741 46.3814 78.1483 46.6333 75.6692 45.932C73.2542 45.4086 71.1801 44.0258 68.9677 42.9937C69.4072 40.8158 70.0146 38.3663 72.074 37.1366Z" fill="#334E66"/>
<path d="M65.1014 44.3455C65.6743 43.7282 66.1681 42.8738 67.1065 42.8047C68.9436 43.9751 70.3362 45.7776 72.361 46.6567C75.2648 47.9703 78.6279 48.6074 81.754 47.7876C82.5886 47.6345 82.796 46.716 83.1911 46.1036C84.1639 46.6468 85.3986 47.0419 85.8331 48.1777C85.6702 48.7111 85.4381 49.2099 85.1368 49.684C84.6331 49.921 84.1244 50.1581 83.6108 50.3754C83.3738 50.4396 82.9046 50.563 82.6725 50.6272C81.3737 50.9482 80.0453 51.1359 78.7119 51.21C77.7341 51.0618 76.7661 50.9235 75.7932 50.7606C72.519 50.2371 69.2201 49.0222 66.8052 46.6715C66.6472 46.474 66.3361 46.074 66.178 45.8764C65.8126 45.3678 65.457 44.8591 65.1014 44.3455Z" fill="#334E66"/>
<path d="M66.8643 42.6328C67.5655 42.7464 68.2865 42.781 68.968 42.9933C71.1805 44.0255 73.2546 45.4082 75.6696 45.9317C78.1487 46.633 80.7414 46.3811 83.2452 46.0058L83.1908 46.1046C82.7958 46.7169 82.5884 47.6355 81.7538 47.7886C78.6277 48.6084 75.2646 47.9713 72.3608 46.6577C70.336 45.7786 68.9434 43.9761 67.1062 42.8057L66.8643 42.6328Z" fill="#405F7F"/>
<path d="M56.3355 61.5138C55.0515 54.6493 58.8788 47.4095 65.1013 44.3477C65.4568 44.8613 65.8124 45.3699 66.1779 45.8786C63.2642 47.5231 60.5974 49.8343 59.2739 52.9801C57.1553 57.5235 57.7627 63.1682 60.7357 67.193C63.3975 70.7635 67.773 73.1143 72.2719 72.9562C78.4253 73.0994 84.2428 68.556 85.8083 62.6398C86.9985 58.4865 86.1095 53.8838 83.6107 50.3775C84.1243 50.1602 84.6329 49.9232 85.1366 49.6861C86.2873 50.5899 86.7614 52.1455 87.3244 53.4641C89.2158 58.7433 88.1096 65.0003 84.4058 69.2326C81.2303 73.0254 76.2276 75.1637 71.299 74.8773C64 74.5662 57.4219 68.7536 56.3355 61.5138Z" fill="#46698C"/>
<path d="M59.2744 52.9765C60.5979 49.8307 63.2646 47.5195 66.1783 45.875C66.3364 46.0725 66.6475 46.4726 66.8055 46.6701C63.877 48.2158 61.2399 50.532 60.0201 53.6827C58.8398 56.4186 58.741 59.52 59.4176 62.3991C60.7263 67.1746 64.8548 70.6365 69.5464 71.881C68.4747 69.1895 67.3093 66.5425 66.2672 63.8461C67.0426 63.9844 67.8179 64.1128 68.5982 64.2362C68.5982 65.3425 68.5587 66.4487 68.4698 67.5549C69.9069 66.8685 71.3736 66.1968 72.9786 66.0437C73.9021 66.6117 74.8404 67.1549 75.7936 67.6784C75.7985 66.5672 75.7886 65.456 75.7985 64.3498C76.5491 64.1869 77.2998 64.0288 78.0554 63.8708C77.0035 66.5573 75.8429 69.1994 74.7861 71.881C79.4727 70.6365 83.5272 67.1598 84.91 62.4337C85.9915 58.3743 85.0482 54.0432 82.6728 50.6258C82.9049 50.5616 83.3741 50.4381 83.6112 50.3739C86.11 53.8803 86.9989 58.4829 85.8088 62.6362C84.2433 68.5525 78.4258 73.0959 72.2724 72.9527C67.7735 73.1107 63.398 70.76 60.7362 67.1894C57.7632 63.1646 57.1558 57.5199 59.2744 52.9765ZM71.8082 67.6142C71.5415 68.4093 71.8082 68.6907 72.6181 68.4488C72.8897 67.6487 72.6181 67.3722 71.8082 67.6142ZM71.8378 69.6834C71.1711 70.1278 71.9119 71.2736 72.5737 70.7698C73.2354 70.3204 72.4996 69.1797 71.8378 69.6834Z" fill="#E6ECF3"/>
<path d="M26.1817 52.7745C28.241 52.7893 30.3053 52.7942 32.3696 52.7745C32.6659 54.2412 32.9276 55.7079 33.2882 57.1598C33.5598 55.7079 33.7919 54.2412 34.0289 52.7843C36.1525 52.7893 38.281 52.7942 40.4045 52.7695C40.3847 56.7993 40.4094 60.8291 40.3897 64.8589C39.0168 64.849 37.6439 64.8441 36.2759 64.8441C36.2759 62.7304 36.3056 60.6168 36.1179 58.513C35.7179 60.6118 35.4512 62.7354 35.1055 64.8441C33.8857 64.849 32.6659 64.849 31.451 64.854C31.1202 62.7008 30.8881 60.5279 30.3992 58.3994C30.1769 60.5427 30.2658 62.7008 30.3053 64.849C28.9275 64.8441 27.5497 64.849 26.1768 64.8638C26.1817 60.8341 26.1768 56.8043 26.1817 52.7745Z" fill="#E6ECF3"/>
<path d="M41.7816 52.7935C44.6015 52.9713 47.6386 52.2453 50.2955 53.4651C52.6857 55.1195 52.2363 58.8283 50.6165 60.8975C51.0116 62.221 51.4017 63.5396 51.8018 64.8582C50.3647 64.8483 48.9325 64.8434 47.5004 64.8335C47.1596 63.589 47.209 62.0679 46.0336 61.258C45.9497 62.4482 45.9398 63.6482 45.9349 64.8434C44.5471 64.8483 43.1594 64.8483 41.7767 64.8483C41.7767 60.8284 41.7668 56.8134 41.7816 52.7935ZM45.9151 55.9344C45.925 56.7591 45.9299 57.5887 45.9398 58.4135C46.4978 58.3246 47.0608 58.2702 47.6041 58.1122C48.3794 57.6332 47.846 56.7048 47.8362 55.9985C47.1942 55.9739 46.5571 55.9541 45.9151 55.9344Z" fill="#E6ECF3"/>
<path d="M93.0576 52.7789C95.7935 52.9518 98.6677 52.3394 101.3 53.2678C103.552 54.1666 103.26 57.2285 101.927 58.8137C102.297 59.0607 102.673 59.3076 103.048 59.5595C103.399 61.2138 103.453 63.4164 101.651 64.2559C98.9295 65.3424 95.9071 64.6658 93.0576 64.8584C93.0626 60.8336 93.0576 56.8087 93.0576 52.7789ZM97.2158 55.0407C97.1911 55.8457 97.1763 56.6556 97.1615 57.4606C97.9467 57.2779 99.611 57.4655 99.2505 56.1815C99.3542 55.0407 97.9368 55.3321 97.2158 55.0407ZM97.1812 60.1866C97.1714 60.962 97.1664 61.7373 97.1664 62.5127C97.8825 62.4139 98.6035 62.3151 99.3245 62.2015C99.2307 61.6287 99.1665 61.0459 99.0035 60.4829C98.406 60.3348 97.7887 60.2755 97.1812 60.1866Z" fill="#E6ECF3"/>
<path d="M104.308 52.7794C107.38 52.7794 110.447 52.7893 113.519 52.7695C113.519 53.935 113.524 55.1005 113.529 56.266C111.682 56.2561 109.835 56.1968 107.998 56.3894C109.03 57.7129 110.906 56.8882 112.324 57.1253C112.324 58.2512 112.324 59.3772 112.324 60.5032C111.02 60.518 109.711 60.5229 108.402 60.5229L108.393 61.4514C110.101 61.4563 111.81 61.4563 113.524 61.4316C113.519 62.5724 113.524 63.7132 113.529 64.8589C110.457 64.849 107.38 64.854 104.308 64.854C104.328 60.8291 104.328 56.8043 104.308 52.7794Z" fill="#E6ECF3"/>
<path d="M114.882 52.7825C117.86 52.7726 120.837 52.7973 123.82 52.7578C123.83 53.9233 123.83 55.0888 123.835 56.2592C123.03 56.2543 122.23 56.2543 121.43 56.2543C121.455 59.1186 121.44 61.9878 121.445 64.8521C120.062 64.8521 118.679 64.8521 117.301 64.8423C117.282 61.973 117.287 59.0988 117.297 56.2296C116.492 56.2444 115.687 56.2592 114.882 56.274C114.877 55.1085 114.877 53.943 114.882 52.7825Z" fill="#E6ECF3"/>
<path d="M60.0188 53.6845C61.2386 50.5338 63.8757 48.2176 66.8042 46.6719C69.2191 49.0226 72.518 50.2375 75.7922 50.7609C75.1009 51.5955 74.3107 52.3808 73.8564 53.3783C73.2588 55.4327 75.0762 57.8081 77.2491 57.6501C78.7504 57.6847 79.7331 56.3562 80.7949 55.5019C80.7406 58.0649 80.7702 60.628 80.8542 63.1861C80.5282 63.275 79.8862 63.4429 79.5652 63.5318C79.0615 63.6454 78.5578 63.759 78.0541 63.8726C77.2985 64.0306 76.5478 64.1886 75.7972 64.3516C75.7972 63.8874 75.8021 62.959 75.8071 62.4947C74.8589 62.9837 73.9206 63.5022 73.0119 64.0553C71.4513 63.8825 69.9945 63.2948 68.6265 62.5589C68.6117 63.117 68.6018 63.675 68.5969 64.238C67.8166 64.1146 67.0413 63.9862 66.2659 63.8479C63.9745 63.4084 61.6978 62.8898 59.4163 62.4009C58.7397 59.5218 58.8385 56.4204 60.0188 53.6845ZM65.2042 55.0426C66.0733 54.687 66.903 54.2129 67.8314 54.0401C68.7994 54.1635 69.6241 54.7364 70.4982 55.1167C69.8117 54.2771 69.071 53.2252 67.8364 53.3042C66.6462 53.2302 65.8807 54.2277 65.2042 55.0426ZM66.7598 60.2329C66.0733 60.3119 65.3869 60.3514 64.6955 60.3613C65.3177 61.0774 65.7079 62.3268 66.8783 62.149C68.8981 62.3318 70.6019 61.0675 72.1723 59.9761C74.202 61.6552 78.0541 63.6059 79.6986 60.4552C78.9776 60.3811 78.2467 60.391 77.5454 60.2033C76.3799 59.4428 75.6342 58.1983 74.4984 57.4032C73.7428 56.9933 72.8637 57.4328 72.0785 57.5118C71.6044 57.3242 71.1303 57.1365 70.6562 56.9488C69.1302 57.7637 68.0833 59.1662 66.7598 60.2329Z" fill="#F2CA91"/>
<path d="M78.7109 51.2077C80.0443 51.1337 81.3728 50.946 82.6716 50.625C85.047 54.0424 85.9903 58.3735 84.9087 62.4329C83.6544 62.6996 82.395 62.9662 81.1357 63.2181C81.037 60.1711 80.9579 57.1092 81.3728 54.0819C80.5184 53.0942 79.6739 52.0868 78.7109 51.2077Z" fill="#F2CA91"/>
<path d="M75.7932 50.7617C76.7661 50.9247 77.734 51.063 78.7118 51.2111C79.6748 52.0902 80.5193 53.0976 81.3737 54.0853C80.9589 57.1126 81.0379 60.1744 81.1366 63.2215C80.6132 63.3203 80.0897 63.424 79.5662 63.5326C79.8872 63.4437 80.5292 63.2758 80.8551 63.1869C80.7712 60.6288 80.7416 58.0657 80.7959 55.5027C79.7341 56.357 78.7514 57.6855 77.2501 57.6509C75.0771 57.8089 73.2598 55.4335 73.8573 53.3791C74.3117 52.3815 75.1018 51.5963 75.7932 50.7617ZM75.9117 52.2531C74.4796 53.063 74.4055 55.1718 75.6846 56.1545C77.1957 57.399 79.8625 56.0805 79.581 54.0952C79.418 52.4062 77.3785 51.2309 75.9117 52.2531Z" fill="#A98E67"/>
<path d="M25.1587 51.6362C32.6355 51.6608 40.1123 51.6065 47.5843 51.651C49.4559 51.7004 51.7671 52.2041 52.5326 54.1548C53.387 56.387 53.3919 59.1229 52.0338 61.1625C52.3993 62.7527 52.8536 64.3231 53.1302 65.933C43.8113 66.1108 34.4874 65.9429 25.1636 66.012C24.9414 61.2267 24.9512 56.4166 25.1587 51.6362ZM26.1809 52.7769C26.176 56.8067 26.1809 60.8365 26.176 64.8663C27.5489 64.8515 28.9267 64.8466 30.3045 64.8515C30.265 62.7033 30.1761 60.5452 30.3984 58.4019C30.8873 60.5303 31.1194 62.7033 31.4503 64.8564C32.6651 64.8515 33.8849 64.8515 35.1047 64.8466C35.4504 62.7378 35.7171 60.6143 36.1171 58.5154C36.3048 60.6192 36.2752 62.7329 36.2752 64.8466C37.6431 64.8466 39.016 64.8515 40.3889 64.8614C40.4087 60.8316 40.384 56.8018 40.4037 52.772C38.2802 52.7967 36.1517 52.7918 34.0281 52.7868C33.7911 54.2437 33.559 55.7104 33.2874 57.1623C32.9269 55.7104 32.6651 54.2437 32.3688 52.7769C30.3045 52.7967 28.2403 52.7918 26.1809 52.7769ZM41.7816 52.7967C41.7667 56.8166 41.7766 60.8316 41.7766 64.8515C43.1594 64.8515 44.5471 64.8515 45.9348 64.8466C45.9397 63.6515 45.9496 62.4514 46.0336 61.2612C47.2089 62.0711 47.1595 63.5922 47.5003 64.8367C48.9325 64.8466 50.3646 64.8515 51.8017 64.8614C51.4017 63.5428 51.0116 62.2242 50.6165 60.9007C52.2363 58.8315 52.6857 55.1227 50.2955 53.4683C47.6386 52.2485 44.6014 52.9745 41.7816 52.7967Z" fill="#233C53"/>
<path d="M97.2155 55.043C97.9365 55.3343 99.3538 55.043 99.2501 56.1838C99.6106 57.4678 97.9463 57.2801 97.1611 57.4628C97.1759 56.6579 97.1908 55.8479 97.2155 55.043Z" fill="#233C53"/>
<path d="M97.1808 60.1875C97.7883 60.2764 98.4056 60.3357 99.0031 60.4838C99.1661 61.0468 99.2303 61.6295 99.3241 62.2024C98.6031 62.316 97.8821 62.4148 97.166 62.5135C97.166 61.7382 97.171 60.9628 97.1808 60.1875Z" fill="#233C53"/>
<path d="M91.9122 51.8644C94.0802 51.4891 96.2926 51.6471 98.4804 51.6422C100.135 51.6372 101.789 51.9977 103.197 52.9015C103.231 52.5904 103.305 51.9632 103.34 51.652C110.501 51.6224 117.666 51.6471 124.827 51.6372C124.911 53.4694 125.232 55.3954 124.699 57.1782C123.988 57.3165 123.262 57.3362 122.546 57.3955C122.506 60.2647 122.674 63.1439 122.417 66.0082C120.521 65.9736 118.624 66.0921 116.738 65.9588C116.605 65.8452 116.348 65.618 116.219 65.5045C116.061 62.7784 116.205 60.0425 116.16 57.3115C115.246 57.3115 114.333 57.3115 113.419 57.3115C113.419 58.2745 113.419 59.2425 113.414 60.2055C113.716 60.2993 114.318 60.4919 114.619 60.5857C114.654 62.3932 114.723 64.2155 114.481 66.0131C110.856 65.9045 107.202 66.1909 103.592 65.8847C103.429 65.6822 103.098 65.2773 102.935 65.0748C99.4878 66.6206 95.6111 65.86 91.9616 65.9539C91.8529 61.2574 91.9369 56.5609 91.9122 51.8644ZM93.0579 52.783C93.0579 56.8127 93.0629 60.8376 93.0579 64.8625C95.9074 64.6699 98.9298 65.3464 101.651 64.26C103.453 63.4204 103.399 61.2179 103.048 59.5635C102.673 59.3116 102.298 59.0647 101.927 58.8178C103.261 57.2325 103.552 54.1707 101.3 53.2719C98.668 52.3434 95.7938 52.9558 93.0579 52.783ZM104.308 52.783C104.328 56.8078 104.328 60.8327 104.308 64.8575C107.379 64.8575 110.456 64.8526 113.528 64.8625C113.523 63.7167 113.518 62.5759 113.523 61.4352C111.809 61.4598 110.101 61.4599 108.392 61.4549L108.402 60.5265C109.71 60.5265 111.019 60.5215 112.323 60.5067C112.323 59.3808 112.323 58.2548 112.323 57.1288C110.906 56.8918 109.029 57.7165 107.997 56.393C109.834 56.2004 111.681 56.2596 113.528 56.2695C113.523 55.104 113.518 53.9386 113.518 52.7731C110.446 52.7928 107.379 52.783 104.308 52.783ZM114.881 52.7879C114.876 53.9484 114.876 55.1139 114.881 56.2794C115.686 56.2646 116.491 56.2498 117.296 56.2349C117.286 59.1042 117.281 61.9784 117.301 64.8476C118.679 64.8575 120.061 64.8575 121.444 64.8575C121.439 61.9932 121.454 59.124 121.429 56.2596C122.229 56.2596 123.03 56.2596 123.834 56.2646C123.83 55.0942 123.83 53.9287 123.82 52.7632C120.837 52.8027 117.859 52.778 114.881 52.7879Z" fill="#1A354E"/>
<path d="M65.2051 55.0433C65.8816 54.2285 66.6471 53.2309 67.8373 53.305C69.0719 53.226 69.8127 54.2779 70.4991 55.1174C69.625 54.7371 68.8003 54.1643 67.8323 54.0408C66.9039 54.2137 66.0742 54.6878 65.2051 55.0433Z" fill="#1A354E"/>
<path d="M77.8529 55.3605C76.3664 55.4889 76.075 53.7555 77.2208 53.0938C77.8825 53.6716 77.8282 54.5654 77.8529 55.3605Z" fill="#1A354E"/>
<path d="M75.9108 52.2563C77.3775 51.234 79.4171 52.4094 79.5801 54.0984C79.8616 56.0836 77.1948 57.4022 75.6836 56.1577C74.4045 55.1749 74.4786 53.0662 75.9108 52.2563ZM77.8516 55.3626C77.8269 54.5675 77.8812 53.6736 77.2195 53.0958C76.0737 53.7576 76.3651 55.491 77.8516 55.3626Z" fill="#F9F9FA"/>
<path d="M45.915 55.9375C46.557 55.9573 47.1941 55.977 47.8361 56.0017C47.846 56.7079 48.3793 57.6363 47.604 58.1154C47.0608 58.2734 46.4978 58.3277 45.9397 58.4166C45.9299 57.5919 45.9249 56.7622 45.915 55.9375Z" fill="#2D4359"/>
<path d="M66.7606 60.2333C68.0841 59.1666 69.131 57.7641 70.657 56.9492C71.1311 57.1369 71.6052 57.3245 72.0793 57.5122C72.8645 57.4332 73.7436 56.9937 74.4992 57.4036C75.635 58.1987 76.3807 59.4431 77.5462 60.2037C78.2475 60.3913 78.9783 60.3815 79.6994 60.4555C78.0549 63.6063 74.2028 61.6556 72.1731 59.9765C70.6027 61.0679 68.8989 62.3322 66.8791 62.1494C65.7087 62.3272 65.3185 61.0778 64.6963 60.3617C65.3877 60.3518 66.0741 60.3123 66.7606 60.2333Z" fill="#C1512B"/>
<path d="M59.416 62.4023C61.6976 62.8913 63.9742 63.4098 66.2657 63.8493C67.3077 66.5457 68.4732 69.1927 69.5448 71.8842C64.8533 70.6397 60.7247 67.1778 59.416 62.4023Z" fill="#4D6E8C"/>
<path d="M68.6258 62.5603C69.9938 63.2961 71.4506 63.8838 73.0112 64.0567C73.9198 63.5035 74.8582 62.985 75.8063 62.4961C75.8014 62.9603 75.7965 63.8887 75.7965 64.353C75.7866 65.4592 75.7965 66.5703 75.7915 67.6815C74.8384 67.158 73.9001 66.6148 72.9766 66.0469C71.3716 66.1999 69.9049 66.8716 68.4678 67.558C68.5567 66.4518 68.5962 65.3456 68.5962 64.2394C68.6011 63.6764 68.611 63.1183 68.6258 62.5603Z" fill="#4D6E8C"/>
<path d="M81.1352 63.2227C82.3945 62.9709 83.6538 62.7042 84.9082 62.4375C83.5254 67.1636 79.4709 70.6403 74.7843 71.8848C75.8411 69.2032 77.0017 66.5611 78.0536 63.8746C78.5573 63.761 79.061 63.6474 79.5647 63.5338C80.0882 63.4252 80.6117 63.3215 81.1352 63.2227Z" fill="#4D6E8C"/>
<path d="M71.8079 67.6159C72.6178 67.3739 72.8894 67.6505 72.6178 68.4505C71.8079 68.6925 71.5412 68.411 71.8079 67.6159Z" fill="#BEC2C8"/>
<path d="M71.8378 69.6845C72.4996 69.1808 73.2354 70.3215 72.5736 70.7709C71.9119 71.2747 71.1711 70.1289 71.8378 69.6845Z" fill="#C1C8CF"/>
</svg>
