<svg width="17" height="20" viewBox="0 0 17 20" fill="none" xmlns="http://www.w3.org/2000/svg">
<path d="M8.09319 19.8836C6.27369 18.8064 4.68708 17.3654 3.44981 15.6477C2.329 14.1048 1.51386 12.3435 1.06262 10.4803L1.01896 10.3202L0.873395 9.60699C0.553162 7.83115 0.553163 6.01164 0.887952 4.23581L0.946175 3.94469L1.2373 3.88646C1.25185 3.88646 3.14414 3.47889 4.81808 2.54731C7.20527 1.20815 8.00586 0.363901 8.02041 0.349345L8.34064 0L8.66088 0.349345C8.66088 0.349345 9.47602 1.20815 11.8486 2.54731C13.5226 3.49345 15.4003 3.88646 15.4294 3.88646L15.7206 3.94469L15.7788 4.23581C16.1136 6.01164 16.1136 7.83115 15.7933 9.60699L15.7497 9.85444L15.6041 10.4658C15.1529 12.329 14.3377 14.0757 13.2024 15.6332C11.9651 17.3508 10.3785 18.7919 8.55898 19.869L8.34064 20L8.09319 19.8836Z" fill="#000706"/>
<path d="M15.3712 4.25036C15.3712 4.25036 13.4061 3.84279 11.6449 2.85298C9.11211 1.42649 8.31153 0.567686 8.31153 0.567686C8.31153 0.567686 7.51095 1.44105 4.9782 2.85298C3.21692 3.84279 1.25185 4.25036 1.25185 4.25036C0.887952 6.15721 0.93162 8.10771 1.33919 10H15.2693C15.6914 8.10771 15.7206 6.15721 15.3712 4.25036Z" fill="#FFB300"/>
<path d="M8.31153 19.6361C11.9797 17.4527 14.396 14.0175 15.2402 10.2038H1.38286C2.22711 14.0175 4.64341 17.4527 8.31153 19.6361Z" fill="#8E001C"/>
<path d="M3.33337 12.6638C3.33337 12.198 3.33337 12.1106 3.33337 12.0087C3.33337 11.9068 3.30425 11.8486 3.20236 11.8341C3.15869 11.8341 3.12958 11.8195 3.08591 11.8195C3.0568 11.8195 3.02769 11.8195 3.02769 11.7904C3.02769 11.7613 3.04225 11.7613 3.10047 11.7613C3.26059 11.7613 3.46437 11.7758 3.52259 11.7758C3.62449 11.7758 3.85738 11.7613 3.95928 11.7613C4.16306 11.7467 4.35229 11.7904 4.52696 11.8923C4.65797 11.9942 4.73075 12.1543 4.73075 12.3144C4.73075 12.5473 4.62885 12.7511 4.32318 13.0131C4.59974 13.3624 4.81808 13.639 4.99275 13.8282C5.08009 13.9301 5.2111 14.0175 5.3421 14.032C5.37121 14.032 5.40032 14.0466 5.42944 14.0466C5.45855 14.0466 5.4731 14.0611 5.4731 14.0757C5.4731 14.0902 5.45855 14.1048 5.41488 14.1048H5.12376C5.00731 14.1194 4.89086 14.0902 4.78897 14.0466C4.65797 13.9738 4.54152 13.8282 4.36684 13.5953C4.2504 13.4207 4.10484 13.2169 4.06117 13.1732C4.04661 13.1587 4.03206 13.1441 4.00294 13.1587H3.72638C3.71182 13.1587 3.69727 13.1587 3.69727 13.1878V13.2314C3.69727 13.5226 3.69727 13.77 3.71182 13.901C3.72638 13.9884 3.74094 14.0611 3.82827 14.0757C3.87194 14.0757 3.93016 14.0902 3.97383 14.0902C4.00294 14.0902 4.00294 14.1048 4.00294 14.1194C4.00294 14.1339 3.98839 14.1485 3.94472 14.1485C3.77005 14.1485 3.53715 14.1339 3.49348 14.1339C3.44981 14.1339 3.24603 14.1485 3.11503 14.1485C3.07136 14.1485 3.0568 14.1339 3.0568 14.1194C3.0568 14.1048 3.07136 14.0902 3.10047 14.0902C3.14414 14.0902 3.17325 14.0902 3.21692 14.0757C3.27514 14.0611 3.2897 13.9884 3.30425 13.901C3.31881 13.77 3.31881 13.5226 3.31881 13.246L3.33337 12.6638ZM3.69727 12.8967C3.69727 12.9258 3.69727 12.9403 3.72638 12.9549C3.79916 12.984 3.8865 12.984 3.95928 12.984C4.03206 12.9985 4.11939 12.9694 4.17762 12.9258C4.30862 12.8093 4.3814 12.6346 4.36684 12.46C4.36684 12.0233 4.07572 11.8923 3.8865 11.8923C3.82827 11.8923 3.77005 11.8923 3.72638 11.9068C3.71182 11.9068 3.69727 11.9214 3.69727 11.9505V12.8967Z" fill="#1D1D1B"/>
<path d="M5.3421 12.9258C5.3421 12.4017 5.69144 11.7031 6.62303 11.7031C7.3945 11.7031 7.87485 12.1543 7.87485 12.8675C7.87485 13.5808 7.37995 14.1339 6.59392 14.1339C5.706 14.1485 5.3421 13.4789 5.3421 12.9258ZM7.45273 12.984C7.45273 12.2853 7.04516 11.8632 6.5357 11.8632C6.17179 11.8632 5.77878 12.067 5.77878 12.8384C5.77878 13.4789 6.14268 14.0029 6.72492 14.0029C6.94326 13.9884 7.43817 13.8865 7.45273 12.984Z" fill="#1D1D1B"/>
<path d="M8.36976 11.7904C8.38431 11.7322 8.39887 11.7031 8.42798 11.7031C8.45709 11.7031 8.47165 11.7176 8.51532 11.8049L9.35957 13.5371L10.2038 11.7904C10.2329 11.7467 10.2475 11.7176 10.2766 11.7176C10.3057 11.7176 10.3203 11.7467 10.3348 11.8195L10.6259 13.7263C10.6551 13.9156 10.6842 14.0175 10.7715 14.032C10.8297 14.0466 10.9025 14.0611 10.9607 14.0611C10.9898 14.0611 11.0044 14.0611 11.0044 14.0757C11.0044 14.0902 10.9607 14.1048 10.9171 14.1048C10.8443 14.1048 10.4076 14.1048 10.2912 14.0903C10.2184 14.0903 10.2038 14.0757 10.2038 14.0611C10.2038 14.0466 10.2184 14.032 10.2329 14.032C10.2475 14.032 10.262 13.9884 10.2475 13.901L10.0583 12.5473H10.0437L9.35957 13.9301C9.28679 14.0757 9.27223 14.1048 9.24312 14.1048C9.21401 14.1048 9.18489 14.0466 9.14123 13.9447C9.06845 13.7991 8.82099 13.3333 8.77733 13.246C8.74821 13.1732 8.55899 12.8093 8.45709 12.5764H8.44254L8.28242 13.7846C8.28242 13.8282 8.26786 13.8865 8.26786 13.9301C8.26786 13.9884 8.31153 14.0175 8.3552 14.032C8.39887 14.0466 8.44254 14.0466 8.48621 14.0466C8.51532 14.0466 8.52987 14.0466 8.52987 14.0611C8.52987 14.0757 8.50076 14.0903 8.45709 14.0903C8.32609 14.0903 8.18053 14.0757 8.13686 14.0757C8.09319 14.0757 7.93308 14.0903 7.83118 14.0903C7.80207 14.0903 7.77296 14.0902 7.77296 14.0611C7.77296 14.032 7.78752 14.0466 7.81663 14.0466C7.84574 14.0466 7.87485 14.0466 7.90396 14.032C7.9913 14.0175 8.02041 13.8865 8.03497 13.7991L8.36976 11.7904Z" fill="#1D1D1B"/>
<path d="M11.7613 13.3042C11.7468 13.3042 11.7468 13.3042 11.7322 13.3333L11.5575 13.7555C11.5284 13.8137 11.5139 13.8865 11.5139 13.9447C11.5139 14.0029 11.543 14.0466 11.6303 14.0466H11.674C11.7176 14.0466 11.7176 14.0466 11.7176 14.0757C11.7176 14.1048 11.7031 14.1048 11.6594 14.1048C11.5575 14.1048 11.4265 14.0903 11.3246 14.0903C11.2955 14.0903 11.1208 14.1048 10.9607 14.1048C10.9171 14.1048 10.9025 14.1048 10.9025 14.0757C10.9025 14.0466 10.9171 14.0466 10.9462 14.0466C10.9753 14.0466 11.0044 14.0466 11.0481 14.0466C11.1936 14.032 11.2519 13.9301 11.3101 13.77L12.0961 11.8486C12.1398 11.7613 12.1543 11.7322 12.1834 11.7322C12.2126 11.7322 12.2271 11.7613 12.2562 11.8341C12.329 12.0087 12.8239 13.246 13.0277 13.7118C13.1441 13.9884 13.2315 14.032 13.3043 14.0466C13.3479 14.0611 13.3916 14.0611 13.4353 14.0611C13.4644 14.0611 13.4789 14.0611 13.4789 14.0903C13.4789 14.1194 13.4498 14.1194 13.3334 14.1194C13.2169 14.1194 12.9986 14.1194 12.7511 14.1194C12.6929 14.1194 12.6638 14.1194 12.6638 14.0903C12.6638 14.0611 12.6783 14.0611 12.7075 14.0611C12.7366 14.0466 12.7511 14.0175 12.7366 13.9884L12.4891 13.3479C12.4891 13.3333 12.4746 13.3188 12.46 13.3333L11.7613 13.3042ZM12.4018 13.1587C12.4163 13.1587 12.4163 13.1441 12.4163 13.1441L12.1398 12.3872C12.1398 12.3726 12.1398 12.3581 12.1252 12.3581C12.1107 12.3581 12.1107 12.3726 12.1107 12.3872L11.8195 13.1441C11.8195 13.1587 11.8195 13.1587 11.8341 13.1587H12.4018Z" fill="#1D1D1B"/>
<path d="M3.4207 12.591C3.4207 12.1252 3.4207 12.0378 3.4207 11.936C3.4207 11.8341 3.39159 11.7758 3.2897 11.7613C3.24603 11.7613 3.21692 11.7467 3.17325 11.7467C3.14414 11.7467 3.11503 11.7467 3.11503 11.7176C3.11503 11.6885 3.14414 11.6885 3.18781 11.6885C3.34792 11.6885 3.55171 11.7031 3.60993 11.7031C3.71182 11.7031 3.94472 11.6885 4.04661 11.6885C4.2504 11.6739 4.43963 11.7176 4.6143 11.8195C4.7453 11.9214 4.81808 12.0815 4.81808 12.2416C4.81808 12.4745 4.71619 12.6783 4.41051 12.9403C4.68708 13.2897 4.90542 13.5662 5.08009 13.7555C5.16743 13.8574 5.29843 13.9447 5.42944 13.9738C5.45855 13.9738 5.48766 13.9884 5.51677 13.9884C5.54588 13.9884 5.56044 14.0029 5.56044 14.0175C5.56044 14.032 5.54588 14.0466 5.50222 14.0466H5.2111C5.09465 14.0611 4.9782 14.032 4.87631 13.9884C4.7453 13.9156 4.62885 13.77 4.45418 13.5371C4.33773 13.3624 4.19217 13.1587 4.1485 13.115C4.13395 13.1004 4.11939 13.0859 4.09028 13.1004H3.81372C3.79916 13.1004 3.7846 13.1004 3.7846 13.1295V13.1732C3.7846 13.4643 3.7846 13.7118 3.79916 13.8428C3.81372 13.9301 3.82827 14.0029 3.91561 14.0175C3.95928 14.0175 4.0175 14.032 4.06117 14.032C4.09028 14.032 4.10484 14.0466 4.10484 14.0611C4.10484 14.0757 4.09028 14.0902 4.04661 14.0902C3.87194 14.0902 3.63904 14.0757 3.59538 14.0757C3.55171 14.0757 3.34792 14.0902 3.21692 14.0902C3.17325 14.0902 3.15869 14.0757 3.15869 14.0611C3.15869 14.0466 3.17325 14.032 3.20236 14.032C3.24603 14.032 3.27514 14.032 3.31881 14.0175C3.37703 14.0029 3.39159 13.9301 3.40615 13.8428C3.4207 13.7118 3.4207 13.4643 3.4207 13.1878V12.591ZM3.7846 12.8239C3.7846 12.853 3.7846 12.8675 3.81372 12.8821C3.8865 12.9112 3.97383 12.9112 4.04661 12.9112C4.11939 12.9258 4.20673 12.8967 4.26495 12.853C4.35229 12.7802 4.45418 12.6492 4.45418 12.3872C4.45418 11.9505 4.16306 11.8195 3.97383 11.8195C3.91561 11.8195 3.85738 11.8195 3.81372 11.8341C3.79916 11.8341 3.7846 11.8486 3.7846 11.8777V12.8239Z" fill="#FFB300"/>
<path d="M5.42944 12.8675C5.42944 12.3435 5.77878 11.6448 6.71037 11.6448C7.48184 11.6448 7.96219 12.0961 7.96219 12.8093C7.96219 13.5226 7.46728 14.0757 6.68126 14.0757C5.77878 14.0757 5.42944 13.4061 5.42944 12.8675ZM7.52551 12.9258C7.52551 12.2271 7.11794 11.8049 6.60848 11.8049C6.24457 11.8049 5.85156 12.0087 5.85156 12.7802C5.85156 13.4207 6.21546 13.9447 6.7977 13.9447C7.0306 13.9156 7.52551 13.8137 7.52551 12.9258Z" fill="#FFB300"/>
<path d="M8.44254 11.7176C8.45709 11.6594 8.47165 11.6303 8.50076 11.6303C8.52987 11.6303 8.54443 11.6448 8.5881 11.7322L9.43235 13.4643L10.2766 11.7176C10.3057 11.6739 10.3203 11.6448 10.3494 11.6448C10.3785 11.6448 10.393 11.6739 10.4076 11.7467L10.6842 13.6536C10.7133 13.8428 10.7424 13.9447 10.8297 13.9738C10.888 13.9884 10.9607 14.0029 11.019 14.0029C11.0481 14.0029 11.0626 14.0029 11.0626 14.0175C11.0626 14.032 11.019 14.0466 10.9753 14.0466C10.9025 14.0466 10.4658 14.0466 10.3494 14.032C10.2766 14.032 10.262 14.0175 10.262 14.0029C10.262 13.9884 10.2766 13.9738 10.2912 13.9738C10.3057 13.9738 10.3203 13.9301 10.3057 13.8428L10.1165 12.4891H10.1019L9.43235 13.8719C9.35957 14.0175 9.34501 14.0466 9.3159 14.0466C9.28679 14.0466 9.25767 13.9884 9.21401 13.8865C9.14123 13.7409 8.89377 13.2751 8.85011 13.1878C8.82099 13.115 8.63177 12.7511 8.52987 12.5182H8.51532L8.3552 13.7263C8.3552 13.77 8.34064 13.8282 8.34064 13.8719C8.34064 13.9301 8.38431 13.9592 8.42798 13.9738C8.47165 13.9884 8.51532 13.9884 8.55898 13.9884C8.5881 13.9884 8.60265 13.9884 8.60265 14.0029C8.60265 14.0175 8.57354 14.032 8.52987 14.032C8.39887 14.032 8.25331 14.0175 8.20964 14.0175C8.15141 14.0175 8.00586 14.032 7.90396 14.032C7.87485 14.032 7.84574 14.032 7.84574 14.0029C7.84574 13.9738 7.86029 13.9884 7.88941 13.9884C7.91852 13.9884 7.94763 13.9884 7.97674 13.9738C8.06408 13.9592 8.09319 13.8282 8.10775 13.7409L8.44254 11.7176Z" fill="#FFB300"/>
<path d="M11.8487 13.246C11.8341 13.246 11.8341 13.246 11.8195 13.2751L11.6449 13.6972C11.6158 13.7555 11.6012 13.8282 11.6012 13.8865C11.6012 13.9447 11.6303 13.9884 11.7176 13.9884H11.7613C11.805 13.9884 11.805 13.9884 11.805 14.0175C11.805 14.032 11.7904 14.0466 11.7468 14.0466C11.6449 14.0466 11.5139 14.032 11.412 14.032C11.3829 14.032 11.2082 14.0466 11.0481 14.0466C11.0044 14.0466 10.9898 14.0466 10.9898 14.0175C10.9898 13.9884 11.0044 13.9884 11.0335 13.9884C11.0626 13.9884 11.0917 13.9884 11.1354 13.9884C11.281 13.9738 11.3392 13.8719 11.3974 13.7118L12.1834 11.7758C12.2271 11.6885 12.2417 11.6594 12.2708 11.6594C12.2999 11.6594 12.3144 11.6885 12.3436 11.7613C12.4163 11.936 12.9112 13.1732 13.115 13.639C13.2315 13.9156 13.3188 13.9592 13.3916 13.9738C13.4353 13.9884 13.4789 13.9884 13.5226 13.9884C13.5517 13.9884 13.5663 13.9884 13.5663 14.0175C13.5663 14.0466 13.5372 14.0466 13.4207 14.0466C13.3043 14.0466 13.0859 14.0466 12.8385 14.0466C12.7802 14.0466 12.7511 14.0466 12.7511 14.0175C12.7511 13.9884 12.7657 13.9884 12.7948 13.9884C12.8239 13.9738 12.8385 13.9447 12.8239 13.9156L12.5765 13.2751C12.5765 13.2606 12.5619 13.246 12.5473 13.2606L11.8487 13.246ZM12.4891 13.0859C12.5037 13.0859 12.5037 13.0713 12.5037 13.0713L12.2271 12.3144C12.2271 12.2999 12.2271 12.2853 12.2126 12.2853C12.198 12.2853 12.198 12.2999 12.198 12.3144L11.9069 13.0713C11.9069 13.0859 11.9069 13.0859 11.9214 13.0859H12.4891Z" fill="#FFB300"/>
<path d="M7.20527 15.9098C7.20527 16.0844 7.35083 16.2445 7.52551 16.2445H7.54006C7.6274 16.2445 7.70018 16.2154 7.7584 16.1718L7.77296 16.1572C7.77296 16.1427 7.77296 16.1427 7.7584 16.1427C7.7584 16.1427 7.74385 16.1572 7.72929 16.1572C7.68562 16.1718 7.65651 16.1863 7.61284 16.1718C7.55462 16.1718 7.3945 16.1135 7.3945 15.8515C7.3945 15.706 7.48184 15.6041 7.59829 15.6041C7.71474 15.6041 7.86029 15.7351 7.86029 16.0408C7.86029 16.361 7.68562 16.6521 7.42361 16.8268C7.40906 16.8268 7.40906 16.8413 7.40906 16.8559C7.40906 16.8705 7.40906 16.8705 7.42361 16.8705C7.43817 16.8705 7.43817 16.8705 7.45273 16.8705C7.65651 16.7686 8.07863 16.4774 8.07863 15.9971C8.07863 15.7351 7.93308 15.5313 7.65651 15.5313C7.43817 15.5167 7.24894 15.6769 7.21983 15.8952C7.20527 15.8806 7.20527 15.8952 7.20527 15.9098Z" fill="#000706"/>
<path d="M6.3028 15.8224C6.3028 15.837 6.3028 15.837 6.31735 15.837C6.33191 15.837 6.33191 15.837 6.34647 15.837C6.40469 15.8079 6.47747 15.7787 6.5357 15.7496C6.56481 15.7496 6.56481 15.7642 6.56481 15.8079V16.3028C6.56481 16.4629 6.56481 16.6084 6.55025 16.6812C6.55025 16.7394 6.53569 16.754 6.47747 16.7686C6.4338 16.7686 6.39014 16.7831 6.34647 16.7831C6.34647 16.7831 6.33191 16.7831 6.33191 16.7977C6.33191 16.8122 6.34647 16.8122 6.36102 16.8122C6.46292 16.8122 6.60848 16.8122 6.65214 16.8122C6.69581 16.8122 6.81226 16.8122 6.92871 16.8122C6.94326 16.8122 6.95782 16.8122 6.95782 16.7977C6.95782 16.7831 6.95782 16.7831 6.94326 16.7831C6.8996 16.7831 6.87048 16.7831 6.82682 16.7686C6.76859 16.754 6.76859 16.7249 6.75404 16.6812C6.75404 16.6084 6.75404 16.4629 6.75404 16.3028V15.9825C6.75404 15.7205 6.76859 15.5604 6.76859 15.5459C6.76859 15.5313 6.76859 15.5167 6.75404 15.5167C6.73948 15.5167 6.72492 15.5313 6.71037 15.5313C6.65214 15.575 6.33191 15.7933 6.31735 15.7933C6.3028 15.8079 6.3028 15.8224 6.3028 15.8224Z" fill="#000706"/>
<path d="M8.20964 16.7977C8.20964 16.8122 8.2242 16.8268 8.23875 16.8268H8.89377C8.99567 16.8268 9.02478 16.8268 9.03934 16.7686C9.05389 16.6958 9.083 16.6084 9.083 16.5357C9.083 16.5211 9.083 16.5066 9.06845 16.5066C9.05389 16.5066 9.05389 16.5066 9.05389 16.5357C9.03933 16.623 8.952 16.6812 8.86466 16.6812C8.80644 16.6958 8.60265 16.6958 8.57354 16.6958H8.45709C8.44254 16.6958 8.44254 16.6958 8.45709 16.6812C8.67543 16.5066 9.03934 16.2154 9.03934 15.8806C9.03934 15.6769 8.92289 15.5167 8.61721 15.5167C8.51532 15.5167 8.41342 15.5313 8.31153 15.575C8.29698 15.5895 8.29698 15.5895 8.29698 15.6041C8.29698 15.6477 8.31153 15.7933 8.31153 15.8079C8.31153 15.8224 8.31153 15.837 8.32609 15.837C8.34065 15.837 8.34064 15.8224 8.34064 15.8079C8.34064 15.7496 8.36976 15.6914 8.41342 15.6477C8.45709 15.6041 8.52987 15.575 8.5881 15.5895C8.67543 15.5895 8.82099 15.6477 8.82099 15.9098C8.82099 16.2737 8.48621 16.5357 8.25331 16.754C8.2242 16.7831 8.20964 16.7977 8.20964 16.7977Z" fill="#000706"/>
<path d="M9.28679 15.8224C9.28679 15.837 9.28679 15.8515 9.30134 15.8515C9.3159 15.8515 9.3159 15.837 9.3159 15.8224C9.3159 15.7787 9.34501 15.7496 9.37412 15.7205C9.41779 15.6914 9.47602 15.6914 9.53424 15.6914H9.97092C9.76714 16.0262 9.60702 16.3755 9.47602 16.754C9.47602 16.7831 9.46146 16.7977 9.46146 16.8268C9.46146 16.8413 9.46146 16.8413 9.49057 16.8413C9.56335 16.8413 9.70891 16.7686 9.70891 16.7394C9.70891 16.7249 9.70891 16.6958 9.70891 16.6812C9.79625 16.3028 9.94181 15.9243 10.131 15.5895C10.131 15.575 10.1456 15.575 10.1456 15.5604C10.1456 15.5459 10.131 15.5459 10.1019 15.5459H9.56335C9.49057 15.5459 9.41779 15.5459 9.33046 15.5313C9.3159 15.5313 9.3159 15.5313 9.3159 15.5604C9.3159 15.575 9.28679 15.7642 9.28679 15.8224Z" fill="#000706"/>
<path d="M7.2635 15.8661C7.2635 16.0408 7.40906 16.1863 7.58373 16.2009C7.59829 16.2009 7.59829 16.2009 7.61284 16.2009C7.70018 16.2009 7.77296 16.1718 7.83118 16.1281L7.84574 16.1135C7.84574 16.099 7.84574 16.099 7.83118 16.099C7.83118 16.099 7.81663 16.1135 7.80207 16.1135C7.7584 16.1281 7.72929 16.1427 7.68562 16.1281C7.6274 16.1281 7.46728 16.0699 7.46728 15.8079C7.46728 15.6623 7.55462 15.5604 7.67107 15.5604C7.78752 15.5604 7.93307 15.6914 7.93307 15.9971C7.93307 16.3173 7.7584 16.6084 7.49639 16.7831C7.48184 16.7831 7.48184 16.7977 7.48184 16.8122C7.48184 16.8268 7.48184 16.8268 7.49639 16.8268C7.51095 16.8268 7.51095 16.8268 7.52551 16.8268C7.72929 16.7249 8.15142 16.4338 8.15142 15.9534C8.15142 15.6914 8.00586 15.4876 7.72929 15.4876C7.51095 15.4731 7.32172 15.6332 7.29261 15.8515C7.2635 15.837 7.2635 15.8515 7.2635 15.8661Z" fill="#BDBBBB"/>
<path d="M6.34647 15.7642C6.34647 15.7788 6.34647 15.7787 6.36102 15.7787C6.37558 15.7787 6.37558 15.7787 6.39013 15.7787C6.44836 15.7496 6.52114 15.7205 6.57936 15.6914C6.60848 15.6914 6.60848 15.706 6.60848 15.7496V16.2445C6.60848 16.4047 6.60848 16.5502 6.59392 16.623C6.59392 16.6812 6.57936 16.6958 6.52114 16.7103C6.47747 16.7103 6.4338 16.7249 6.39013 16.7249C6.39013 16.7249 6.37558 16.7249 6.37558 16.7394C6.37558 16.754 6.39013 16.754 6.40469 16.754C6.50658 16.754 6.65214 16.754 6.69581 16.754C6.73948 16.754 6.85593 16.754 6.97238 16.754C6.98693 16.754 7.00149 16.754 7.00149 16.7394C7.00149 16.7249 7.00149 16.7249 6.98693 16.7249C6.94326 16.7249 6.91415 16.7249 6.87048 16.7103C6.81226 16.6958 6.81226 16.6667 6.7977 16.623C6.7977 16.5502 6.7977 16.4047 6.7977 16.2445V15.9243C6.7977 15.6623 6.81226 15.5022 6.81226 15.4876C6.81226 15.4731 6.81226 15.4585 6.7977 15.4585C6.78315 15.4585 6.76859 15.4731 6.75404 15.4876C6.69581 15.5313 6.37558 15.7496 6.36102 15.7496C6.36102 15.7642 6.34647 15.7642 6.34647 15.7642Z" fill="#BDBBBB"/>
<path d="M8.26786 16.7394C8.26786 16.754 8.28242 16.7686 8.29698 16.7686H8.952C9.05389 16.7686 9.083 16.7686 9.09756 16.7103C9.11211 16.6376 9.14123 16.5502 9.14123 16.4774C9.14123 16.4629 9.14123 16.4483 9.12667 16.4483C9.11211 16.4483 9.11211 16.4483 9.11211 16.4774C9.09756 16.5648 9.01022 16.623 8.92289 16.623C8.86466 16.6376 8.66088 16.6376 8.63176 16.6376H8.51532C8.50076 16.6376 8.50076 16.6376 8.51532 16.623C8.73366 16.4483 9.09756 16.1572 9.09756 15.8224C9.09756 15.6186 8.96655 15.4585 8.67543 15.4585C8.57354 15.4585 8.47165 15.4731 8.36976 15.5167C8.3552 15.5313 8.3552 15.5313 8.3552 15.5459C8.3552 15.5895 8.36976 15.7351 8.36976 15.7496C8.36976 15.7642 8.36976 15.7787 8.38431 15.7787C8.39887 15.7787 8.39887 15.7642 8.39887 15.7496C8.39887 15.6914 8.42798 15.6332 8.47165 15.5895C8.51532 15.5459 8.5881 15.5167 8.64632 15.5313C8.73366 15.5313 8.87922 15.5895 8.87922 15.8515C8.87922 16.2154 8.54443 16.4774 8.31153 16.6958C8.28242 16.7249 8.26786 16.7394 8.26786 16.7394Z" fill="#BDBBBB"/>
<path d="M9.33046 15.7787C9.33046 15.7933 9.33046 15.8079 9.34501 15.8079C9.35957 15.8079 9.35957 15.7933 9.35957 15.7787C9.35957 15.7351 9.38868 15.706 9.41779 15.6769C9.46146 15.6477 9.51968 15.6477 9.57791 15.6477H10.0146C9.8108 15.9825 9.65069 16.3464 9.51968 16.7103C9.51968 16.7394 9.50513 16.754 9.50513 16.7831C9.50513 16.7977 9.50513 16.7977 9.53424 16.7977C9.60702 16.7977 9.75258 16.7249 9.75258 16.6958C9.75258 16.6812 9.75258 16.6521 9.75258 16.6376C9.83992 16.2591 9.98548 15.8806 10.1747 15.5459C10.1747 15.5313 10.1893 15.5313 10.1893 15.5167C10.1893 15.5022 10.1747 15.5022 10.1456 15.5022H9.60702C9.53424 15.5022 9.4469 15.5022 9.37412 15.4876C9.35957 15.4876 9.35957 15.4876 9.35957 15.5167C9.35957 15.5167 9.33046 15.7205 9.33046 15.7787Z" fill="#BDBBBB"/>
<path d="M14.0175 8.82096L13.8865 8.66084C13.6827 8.42795 13.246 7.81659 13.246 7.81659C13.246 5.88064 12.8967 5.51674 12.5473 5.21106C12.2271 4.94905 11.7322 4.80349 11.1936 4.71616C11.0335 4.68705 10.8588 4.68705 10.6987 4.68705C10.524 4.68705 10.3348 4.7016 10.1601 4.7016C10.0146 4.71616 7.48184 4.81805 6.68125 4.67249C6.33191 4.61426 5.83701 4.68705 5.54588 4.71616C5.41488 4.73071 4.68708 4.84716 4.59974 4.71616C4.58519 4.67249 4.58519 4.61427 4.58519 4.5706C4.59974 4.46871 4.64341 4.3377 4.55607 4.23581C4.45418 4.09025 4.32318 3.91558 4.26495 3.91558C4.17762 3.9738 4.09028 4.03202 4.0175 4.1048C3.94472 4.2067 3.91561 4.32314 3.93016 4.43959C3.93016 4.52693 3.93016 4.51237 3.91561 4.51237C3.90105 4.51237 3.43526 4.52693 3.31881 4.52693C3.31881 4.43959 3.2897 4.3377 3.23147 4.26492C3.18781 4.16303 3.15869 4.06114 3.14414 3.94469C3.14414 3.94469 2.96947 4.23581 2.9258 4.30859C2.85302 4.39592 2.79479 4.48326 2.76568 4.58515C2.75112 4.62882 2.75112 4.67249 2.75112 4.71616C2.75112 4.75983 2.75112 4.78894 2.73657 4.83261C2.64923 4.89083 2.59101 4.99272 2.59101 5.09461C2.59101 5.13828 2.59101 5.18195 2.60556 5.22562C2.62012 5.25473 2.62012 5.2984 2.62012 5.32751L2.59101 5.34207C2.51823 5.40029 2.40178 5.45852 2.41634 5.58952C2.41634 5.72052 2.46 5.85153 2.53278 5.95342C2.54734 5.98253 2.5619 6.01164 2.59101 6.04076C2.62012 6.09898 2.63468 6.17176 2.63468 6.22999C2.64923 6.33188 2.5619 6.43377 2.62012 6.49199C2.70746 6.57933 2.91124 6.57933 3.01313 6.57933H3.15869C3.18781 6.57933 3.21692 6.57933 3.24603 6.57933C3.4207 6.60844 3.59537 6.63755 3.77005 6.63755C4.00294 6.65211 4.23584 6.68122 4.45418 6.73945C4.89086 6.87045 5.31299 7.04512 5.706 7.26346L5.77878 7.29258C5.9389 7.37991 5.96801 7.36536 6.04079 7.5837C6.11357 7.80204 5.98256 9.5051 5.95345 9.67977C5.90978 9.95633 5.82245 10.131 5.66233 10.1892C5.50222 10.262 5.37121 10.393 5.29843 10.5677C5.26932 10.6114 5.28387 10.6696 5.24021 10.7278C5.24021 10.7278 5.18198 10.8006 5.19654 10.8151C5.2111 10.8297 5.41488 10.786 5.41488 10.786C5.48766 10.786 5.41488 10.8297 5.4731 10.8297C5.67689 10.8443 5.88067 10.8006 6.05535 10.7132C6.14268 10.7132 6.08446 10.8297 6.17179 10.8151C6.41925 10.7715 6.44836 10.5822 6.47747 10.393C6.53569 10.0873 6.52114 10.0291 6.55025 10C6.57936 9.97089 6.69581 10.0146 6.72492 9.98544C6.73948 9.83988 6.73948 9.67977 6.73948 9.53421C6.76859 9.22853 6.82682 8.92285 6.92871 8.63173V8.61718C6.94326 8.55895 6.97238 8.48617 7.00149 8.39884C7.08883 8.1805 7.17616 7.93304 7.16161 7.7147C7.21983 7.7147 7.27805 7.74381 7.32172 7.80204C7.33628 7.81659 7.33628 7.83115 7.35083 7.86026C7.45273 8.02038 7.49639 8.06405 7.56917 8.06405H7.58373C7.68562 8.03493 7.74385 7.9476 7.80207 7.83115C7.8603 7.7147 7.91852 7.59825 8.02041 7.56914H8.03497C8.16597 7.5837 8.28242 7.65648 8.3552 7.75837C8.52987 8.03493 8.68999 7.84571 8.70455 7.81659C8.7191 7.78748 8.86466 7.55459 8.90833 7.49636C8.952 7.43814 8.98111 7.42358 8.98111 7.42358C9.06845 7.43814 9.4469 7.88937 9.57791 7.86026C9.70891 7.83115 9.85447 7.3508 9.94181 7.3508H9.95637C9.98548 7.39447 10.0291 7.43814 10.0437 7.48181C10.1456 7.62737 10.1601 7.72926 10.2475 7.72926C10.2766 7.72926 10.3203 7.7147 10.3494 7.64192C10.3494 7.62737 10.393 7.55459 10.393 7.54003C10.393 7.54003 10.4658 7.77293 10.6259 7.56914C10.6259 7.56914 10.6259 7.56914 10.6259 7.55459C10.6405 7.49636 10.9462 7.80204 11.0917 7.91849C11.2373 8.03493 11.3246 8.15138 11.3392 8.15138C11.6449 8.42795 12.0379 8.77729 12.1107 9.15575C12.1543 9.38865 12.1398 9.62154 12.0815 9.85444C12.0815 9.88355 12.067 9.91266 12.0524 9.94178C12.0233 9.95633 11.9942 9.95633 11.9651 9.95633H11.9069C11.805 9.95633 11.7322 10.0728 11.674 10.1747C11.6449 10.2183 11.6012 10.262 11.5866 10.2911C11.5721 10.3202 11.6012 10.3785 11.6158 10.393C11.7031 10.4221 11.7904 10.4367 11.8778 10.4512C11.8923 10.4512 11.9069 10.4512 11.9214 10.4512C11.9651 10.4658 12.0233 10.4803 12.067 10.4803C12.2417 10.4803 12.4454 10.4076 12.5037 10.2911C12.6056 10.0873 12.6783 9.88355 12.7366 9.66521L12.7511 9.59243C12.7657 9.54876 12.7802 9.49054 12.8093 9.44687C12.8821 9.25764 13.0131 9.05386 12.9549 8.86463C12.9112 8.76274 12.8385 8.66084 12.7657 8.58806C12.7075 8.51528 12.5037 8.23872 12.4309 8.13683C12.6347 8.32606 13.1733 8.61718 13.3188 8.95197C13.3625 9.06841 13.3188 9.54876 13.3043 9.69432C13.3043 9.75255 13.3043 9.81077 13.2897 9.88355C13.2897 10.0873 13.2315 10.1164 13.0277 10.1456C12.853 10.1601 12.7802 10.4221 12.7366 10.5531V10.5677L12.722 10.6259L12.7948 10.6405L12.8821 10.655C13.0422 10.6987 13.2024 10.7424 13.3625 10.7569C13.508 10.7715 13.639 10.7278 13.7409 10.6259C13.8428 10.524 13.8865 10.3202 13.9156 10.1456C13.9302 10.0728 14.0029 9.83988 14.0321 9.7671C14.1485 9.33042 14.3086 9.12664 14.0175 8.82096ZM2.79479 6.2591C2.73657 6.30277 2.72201 6.18632 2.72201 6.18632C2.70746 6.14265 2.70746 6.09898 2.72201 6.08443C2.76568 6.11354 2.8239 6.11354 2.83846 6.14265C2.85302 6.18632 2.83846 6.22999 2.79479 6.2591Z" fill="#000706"/>
<path d="M6.14268 10.6259L6.11357 10.5968V10.5822L6.12813 10.5677H6.14268L6.15724 10.5968C6.15724 10.5968 6.15724 10.6114 6.14268 10.6259Z" fill="#BDBBBB"/>
<path d="M10.8297 7.68559C10.8152 7.68559 10.8006 7.70015 10.7861 7.70015C10.8006 7.70015 10.8152 7.7147 10.8152 7.7147C10.8152 7.70015 10.8152 7.70015 10.8297 7.68559Z" fill="#BDBBBB"/>
<path d="M10.7278 7.70015C10.7133 7.68559 10.6987 7.68559 10.6842 7.67103H10.6405C10.6405 7.65648 10.6551 7.65648 10.6696 7.65648H10.6842C10.7133 7.65648 10.7278 7.67103 10.7278 7.70015Z" fill="#000706"/>
<path d="M10.5095 7.65648C10.5095 7.64192 10.5241 7.64192 10.5386 7.64192H10.5677H10.5823L10.5677 7.65648H10.5095Z" fill="#000706"/>
<path d="M10.5677 7.64192C10.5532 7.65648 10.5532 7.65648 10.5677 7.64192C10.5386 7.64192 10.5386 7.64192 10.5241 7.65648C10.5241 7.65648 10.5241 7.62737 10.5677 7.64192Z" fill="#000706"/>
<path d="M10.9607 10.4658C10.6987 10.4658 10.6696 10.0437 10.6551 9.97089C10.5968 9.95633 10.524 9.92722 10.4804 9.88355H10.4658C10.4658 9.91266 10.4658 9.94178 10.4658 9.97089C10.4658 10 10.4804 10.1456 10.4804 10.1747C10.4949 10.262 10.4658 10.3493 10.393 10.393C10.3639 10.4076 10.3203 10.4221 10.2912 10.4221C10.262 10.4221 10.2329 10.4221 10.2038 10.4076H10.1747L10.0728 10.393C10.0146 10.393 9.86903 10.4076 9.83992 10.4076H9.82536C9.76714 10.4076 9.70891 10.3785 9.66524 10.3348C9.62158 10.2911 9.62158 10.2183 9.65069 10.1747L9.6798 10.1456C9.69436 10.131 9.72347 10.1164 9.75258 10.1164C9.78169 10.1019 9.83992 10.0728 9.9127 10.0291C9.83992 9.89811 9.5488 9.44687 9.8108 9.31587C9.92725 9.25764 10.0583 9.21397 10.1893 9.18486C10.1893 9.17031 10.1893 9.17031 10.1893 9.15575C10.1893 9.12664 10.1893 9.11208 10.1893 9.08297C10.1601 9.09753 10.1165 9.11208 10.0728 9.11208C10.0583 9.11208 10.0583 9.11208 10.0437 9.11208C9.95636 9.08297 9.88358 9.02475 9.82536 8.95197C9.8108 8.92285 9.73802 8.79185 9.66524 8.66084C9.59246 8.66084 9.51968 8.66084 9.4469 8.64629C9.43235 8.64629 9.40323 8.63173 9.28679 8.52984C9.24312 8.50073 9.22856 8.45706 9.22856 8.41339C9.22856 8.36972 9.25767 8.34061 9.28679 8.32606C9.30134 8.29694 9.34501 8.28239 9.37412 8.26783H9.40324C9.43235 8.26783 9.46146 8.28239 9.47602 8.29694C9.47602 8.28239 9.47602 8.26783 9.49057 8.25327C9.51968 8.20961 9.56335 8.18049 9.60702 8.18049C9.63613 8.18049 9.6798 8.19505 9.70891 8.20961C9.72347 8.20961 9.72347 8.20961 9.72347 8.20961C9.75258 8.22416 9.78169 8.22416 9.8108 8.23872C9.83992 8.25328 9.86903 8.26783 9.92725 8.36972L10.0291 8.45706C10.0583 8.39884 10.0874 8.34061 10.1456 8.29694C10.1747 8.28239 10.2038 8.26783 10.2329 8.25327H10.262C10.2766 8.23872 10.2912 8.22416 10.3057 8.22416V8.20961C10.2912 8.19505 10.2766 8.16594 10.262 8.13683C10.2329 8.09316 10.2184 8.03494 10.2329 7.97671V7.96215C10.2329 7.86026 10.3639 7.77293 10.3639 7.77293C10.3785 7.75837 10.393 7.75837 10.4076 7.74381C10.4367 7.70015 10.4658 7.67103 10.5095 7.64192C10.5386 7.61281 10.5677 7.59825 10.5968 7.5837C10.6259 7.52547 10.6987 7.49636 10.7715 7.49636C10.8006 7.49636 10.888 7.49636 10.9171 7.51092C10.9753 7.52547 11.019 7.55459 11.0481 7.61281C11.1063 7.62737 11.15 7.68559 11.15 7.74381L11.1791 7.78748C11.2082 7.81659 11.2227 7.86026 11.2373 7.88937C11.2664 7.9476 11.2664 8.00582 11.2664 8.06405C11.2664 8.13683 11.2519 8.20961 11.2082 8.26783C11.2082 8.28239 11.2082 8.28239 11.1936 8.29694C11.2664 8.35517 11.3246 8.45706 11.3392 8.55895C11.3537 8.58807 11.3829 8.73363 11.412 8.82096C11.4265 8.9083 11.4265 8.99563 11.3974 9.08297V9.09753L11.3829 9.11208C11.3683 9.12664 11.3246 9.18486 11.3101 9.19942C11.281 9.22853 11.2519 9.25764 11.2082 9.25764C11.2227 9.30131 11.2227 9.34498 11.2373 9.38865C11.2955 9.47598 11.3392 9.57788 11.3537 9.67977C11.3537 9.70888 11.3392 9.73799 11.3392 9.7671C11.3537 9.81077 11.3537 9.83988 11.3537 9.88355C11.3974 9.92722 11.4265 9.98545 11.4556 10.0291V10.0437C11.6158 10.3785 11.2227 10.4076 11.1936 10.4076C11.1208 10.4512 11.0335 10.4658 10.9607 10.4658Z" fill="#000706"/>
<path d="M10.9316 7.62737C10.9025 7.62737 10.8297 7.61281 10.8006 7.61281C10.6842 7.61281 10.7424 7.67103 10.7424 7.67103C10.6987 7.67103 10.6551 7.68559 10.6114 7.7147C10.5677 7.74381 10.5095 7.83115 10.5095 7.83115C10.4949 7.83115 10.4804 7.84571 10.4658 7.86026C10.4222 7.87482 10.393 7.91849 10.393 7.96215C10.3785 7.99127 10.393 8.03493 10.4076 8.06405C10.4367 8.10772 10.4658 8.15138 10.4658 8.15138C10.4658 8.16594 10.4658 8.1805 10.4658 8.19505C10.4513 8.22416 10.4367 8.26783 10.4367 8.26783C10.4076 8.28239 10.393 8.29694 10.3639 8.3115C10.3494 8.32606 10.262 8.34061 10.2475 8.35517C10.1893 8.39884 10.1601 8.45706 10.1456 8.52984C10.1165 8.55895 10.1019 8.57351 10.0874 8.61718L9.88358 8.39884C9.88358 8.39884 9.85447 8.3115 9.82536 8.29694C9.8108 8.29694 9.72347 8.26783 9.70891 8.25328C9.63613 8.22416 9.62158 8.25328 9.63613 8.26783C9.65069 8.28239 9.6798 8.3115 9.70891 8.3115C9.72347 8.3115 9.72347 8.39884 9.53424 8.36972C9.53424 8.36972 9.47602 8.34061 9.4469 8.32606C9.35957 8.29694 9.37412 8.38428 9.38868 8.39884C9.43235 8.4425 9.46146 8.47162 9.50513 8.50073C9.51968 8.50073 9.75258 8.51528 9.75258 8.51528C9.75258 8.51528 9.9127 8.82096 9.94181 8.85007C9.98548 8.89374 10.0291 8.93741 10.0874 8.96652C10.1747 8.96652 10.2475 8.9083 10.2912 8.83552L10.3057 9.22853C10.1601 9.25764 10.0146 9.30131 9.86903 9.35954C9.72347 9.46143 9.97092 9.88355 10.0583 10C10.0874 10.0437 10.0583 10.0437 10.0583 10.0437C10.0583 10.0437 9.79625 10.1892 9.79625 10.2038C9.78169 10.2038 9.76714 10.2038 9.75258 10.2183C9.75258 10.2183 9.73802 10.2329 9.75258 10.2475C9.78169 10.262 9.8108 10.2766 9.83992 10.2911C9.86903 10.2911 10.0583 10.2766 10.1019 10.2766C10.1456 10.2766 10.2038 10.2911 10.2184 10.2911C10.2475 10.2911 10.3057 10.3202 10.3494 10.2911C10.393 10.262 10.393 10.2183 10.3785 10.1747C10.3785 10.131 10.3639 9.95633 10.3639 9.95633C10.3639 9.95633 10.3639 9.75255 10.3494 9.73799C10.393 9.75255 10.4513 9.75255 10.4949 9.75255C10.5241 9.73799 10.5532 9.78166 10.5532 9.78166C10.5532 9.78166 10.6405 9.85444 10.6696 9.83988C10.6987 9.82533 10.7133 9.82533 10.7278 9.7671C10.7424 9.75255 10.7569 9.75255 10.7569 9.79622C10.7569 9.83988 10.7278 10.3348 10.9607 10.3202C11.0481 10.3202 11.1208 10.2911 11.1936 10.2475C11.2082 10.2766 11.2519 10.2911 11.2955 10.2766C11.4411 10.2183 11.3683 10.0873 11.3537 10.0728C11.3392 10.0582 11.281 9.91266 11.2373 9.89811C11.2373 9.83988 11.2373 9.78166 11.2227 9.72344C11.2373 9.69432 11.2519 9.66521 11.2519 9.6361C11.2373 9.54876 11.1936 9.46143 11.1354 9.4032C11.1208 9.30131 11.0917 9.18486 11.0481 9.08297C11.0772 9.09753 11.1208 9.11208 11.1645 9.11208C11.1936 9.11208 11.2082 9.09753 11.2227 9.08297C11.2373 9.06841 11.2955 8.99564 11.2955 8.99564C11.3246 8.93741 11.3246 8.86463 11.3101 8.79185C11.281 8.68996 11.2373 8.52984 11.2373 8.52984C11.2373 8.52984 11.2082 8.36972 11.1354 8.34061C11.1063 8.32606 11.0772 8.3115 11.0481 8.3115C11.0481 8.3115 11.019 8.28239 11.0481 8.26783C11.0626 8.25328 11.0917 8.23872 11.1063 8.22416C11.1208 8.20961 11.1208 8.1805 11.1354 8.16594C11.1354 8.16594 11.1791 8.13683 11.1791 8.00582C11.1936 7.96215 11.1791 7.91849 11.1645 7.87482C11.1645 7.84571 11.15 7.83115 11.1354 7.81659L11.0917 7.75837C11.0917 7.75837 11.0917 7.68559 11.0626 7.68559C11.0481 7.68559 11.0335 7.67103 11.0044 7.67103C11.0044 7.68559 11.0044 7.62737 10.9316 7.62737Z" fill="#BDBBBB"/>
<path d="M10.9753 8.00582C10.9753 7.99127 10.9753 7.99127 10.9753 8.00582C10.9607 8.00582 10.9462 8.00582 10.9316 8.00582C10.9171 8.00582 10.9025 8.00582 10.9025 7.99127C10.9025 8.00582 10.9171 8.02038 10.9316 8.03493C10.9607 8.03493 10.9753 8.02038 10.9753 8.00582Z" fill="#000706"/>
<path d="M9.97092 10.1164C9.88358 10 9.70891 9.95633 9.57791 10.0437L9.56335 10.0291C9.53424 10 9.4469 9.95633 9.40324 9.92722C9.37412 9.88355 9.33046 9.85444 9.28679 9.82533C9.21401 9.78166 9.12667 9.75255 9.03933 9.73799C9.03933 9.65066 9.02478 9.56332 8.99567 9.47598C9.01022 9.38865 9.01022 9.28675 9.01022 9.18486C9.06845 9.19942 9.14123 9.19942 9.19945 9.21397C9.22856 9.21397 9.25768 9.21397 9.28679 9.19942C9.35957 9.18486 9.43235 9.14119 9.49057 9.08297L9.50513 9.06841V9.05386C9.51968 8.96652 9.50513 8.87919 9.46146 8.79185C9.37412 8.6754 9.28679 8.57351 9.1849 8.48617C9.1849 8.4425 9.1849 8.39884 9.1849 8.39884C9.1849 8.35517 9.17034 8.3115 9.14123 8.28239C9.09756 8.23872 9.05389 8.1805 9.01022 8.13683C8.98111 8.12227 8.93744 8.10771 8.90833 8.10771C8.89377 8.10771 8.87922 8.10771 8.87922 8.10771C8.77733 8.12227 8.79188 8.26783 8.79188 8.28239C8.77732 8.28239 8.76277 8.26783 8.74821 8.26783C8.7191 8.23872 8.67543 8.20961 8.61721 8.19505C8.5881 8.16594 8.54443 8.16594 8.51532 8.16594H8.50076C8.44254 8.16594 8.44254 8.1805 8.41342 8.19505C8.36976 8.20961 8.32609 8.23872 8.29698 8.26783C8.26786 8.28239 8.23875 8.3115 8.20964 8.35517C8.16597 8.38428 8.15142 8.42795 8.1223 8.47162L8.10775 8.50073C8.07864 8.55895 8.06408 8.61718 8.07863 8.68996C8.00585 8.70451 7.94763 8.74818 7.90396 8.80641C7.88941 8.85007 7.86029 8.89374 7.84574 8.93741C7.81663 8.93741 7.55462 8.96652 7.56917 9.09753C7.56917 9.14119 7.59829 9.17031 7.6274 9.19942C7.61284 9.24309 7.61284 9.28675 7.6274 9.31587C7.64195 9.34498 7.67107 9.37409 7.70018 9.38865C7.71473 9.41776 7.72929 9.46143 7.74385 9.47598C7.77296 9.50509 7.78751 9.53421 7.81663 9.54876C7.7584 9.56332 7.71473 9.59243 7.65651 9.62154C7.54006 9.67977 7.49639 9.82533 7.55462 9.92722C7.55462 9.92722 7.55462 9.94178 7.56917 9.94178C7.65651 10.0582 7.7584 10.1601 7.86029 10.2475C7.84574 10.262 7.67107 10.5968 7.96219 10.6114C8.03497 10.7278 8.26786 10.5677 8.26786 10.5531C8.28242 10.5531 8.60265 10.5531 8.51532 10.3202C8.52987 10.3202 8.64632 10.2911 8.64632 10.2911C8.68999 10.3202 8.74821 10.3348 8.80644 10.3493C8.82099 10.3493 8.86466 10.3493 8.87922 10.3493C8.92289 10.3493 8.98111 10.3493 9.02478 10.3493H9.05389C9.09756 10.4076 9.14123 10.4658 9.19945 10.5095C9.27223 10.5531 9.46146 10.6259 9.51968 10.655C9.57791 10.7132 9.66524 10.7569 9.73802 10.7715C10 10.7715 9.92725 10.5386 9.92725 10.5095C9.94181 10.4512 9.98548 10.1747 9.9127 10.0728" fill="#000706"/>
<path d="M9.03933 8.83552C8.99567 8.80641 8.93744 8.79185 8.87922 8.79185C8.86466 8.77729 8.83555 8.76274 8.82099 8.76274C8.82099 8.76274 8.87922 8.71907 8.87922 8.6754C8.83555 8.4425 8.76277 8.42795 8.76277 8.42795C8.74821 8.39884 8.70455 8.36972 8.67543 8.36972C8.66088 8.32606 8.57354 8.3115 8.57354 8.3115C8.55898 8.29694 8.52987 8.28239 8.51532 8.28239C8.50076 8.28239 8.47165 8.29694 8.45709 8.3115C8.41342 8.3115 8.38431 8.32606 8.3552 8.36972C8.32609 8.38428 8.29698 8.41339 8.28242 8.4425C8.28242 8.4425 8.25331 8.45706 8.2242 8.52984C8.19508 8.57351 8.18053 8.63173 8.19508 8.6754C8.20964 8.70451 8.2242 8.73362 8.23875 8.76274C8.2242 8.77729 8.19508 8.79185 8.18053 8.79185C8.15142 8.80641 8.06408 8.8064 8.03497 8.87918C8.00586 8.93741 7.97674 9.01019 7.96219 9.08297C7.94763 9.06841 7.93307 9.06841 7.91852 9.06841C7.87485 9.06841 7.81663 9.06841 7.77296 9.08297C7.7584 9.09753 7.71473 9.09753 7.71473 9.11208C7.71473 9.15575 7.80207 9.14119 7.80207 9.14119L7.78751 9.24309C7.78751 9.24309 7.7584 9.2722 7.7584 9.28675C7.7584 9.30131 7.77296 9.30131 7.78751 9.30131C7.80207 9.30131 7.81663 9.2722 7.81663 9.2722C7.81663 9.33042 7.83118 9.38865 7.86029 9.43231C7.88941 9.46143 7.91852 9.49054 7.96219 9.5051C7.97674 9.5051 8.00586 9.5051 8.02041 9.5051C8.06408 9.49054 8.09319 9.46143 8.10775 9.43231C8.10775 9.41776 8.1223 9.35953 8.1223 9.35953L8.15142 9.2722L8.16597 9.28675V9.47598C8.13686 9.53421 8.10775 9.59243 8.09319 9.65066C7.96219 9.65066 7.84574 9.67977 7.74385 9.73799C7.6274 9.82533 7.67107 9.89811 7.68562 9.92722C7.71473 9.97089 8.06408 10.3202 8.07863 10.3202C8.09319 10.3202 8.07864 10.3493 8.06408 10.3493H8.02041C8.02041 10.3493 7.96219 10.3348 7.94763 10.3493C7.91852 10.4076 7.97674 10.393 7.9913 10.4076C8.00586 10.4221 7.94763 10.393 7.93307 10.4221C7.91852 10.4512 7.93308 10.4949 7.96219 10.524C7.97674 10.5386 8.02041 10.5386 8.02041 10.5386C8.03497 10.5386 8.03497 10.5677 8.06408 10.5677C8.1223 10.5968 8.26786 10.4803 8.28242 10.4803C8.34064 10.5095 8.41342 10.4803 8.42798 10.4076C8.42798 10.3785 8.42798 10.3493 8.41342 10.3202C8.39887 10.2911 8.38431 10.262 8.3552 10.2475L8.42798 10.2329C8.42798 10.2329 8.42798 10.2329 8.45709 10.2329C8.50076 10.2475 8.52987 10.2475 8.57354 10.262C8.60265 10.262 8.68999 10.2183 8.70455 10.2329C8.74821 10.2475 8.79188 10.2766 8.83555 10.2766C8.89377 10.2766 8.96655 10.2766 9.02478 10.2766C9.05389 10.2766 9.12667 10.2475 9.12667 10.2475C9.15578 10.3202 9.21401 10.393 9.27223 10.4367C9.35957 10.4803 9.60702 10.5968 9.60702 10.5968C9.60702 10.5968 9.70891 10.6987 9.76714 10.6987C9.8108 10.6987 9.83992 10.6696 9.83992 10.6259C9.83992 10.5822 9.83992 10.5386 9.85447 10.5095C9.86903 10.4512 9.88358 10.3785 9.88358 10.3057C9.88358 10.262 9.89814 10.1164 9.76714 10.0873C9.73802 10.0873 9.69436 10.0728 9.69436 10.0728C9.69436 10.0728 9.6798 10.1164 9.6798 10.1019C9.6798 10.0873 9.65069 10.0728 9.63613 10.0728C9.62158 10.0728 9.60702 10.1019 9.60702 10.1164C9.60702 10.131 9.62158 10.1892 9.62158 10.1892C9.62158 10.1892 9.50513 10.1019 9.47602 10.0728C9.4469 10.0437 9.3159 9.97089 9.3159 9.97089C9.28679 9.94178 9.25767 9.91266 9.22856 9.88355C9.14123 9.82533 9.03933 9.79622 8.92289 9.78166C8.92289 9.66521 8.90833 9.54876 8.87922 9.43231C8.89377 9.31587 8.89377 9.19942 8.89377 9.08297C8.87922 9.05386 8.93744 9.02474 8.952 9.02474C9.05389 9.05386 9.15578 9.05386 9.24312 9.05386C9.24312 9.05386 9.35957 9.02474 9.38868 8.98108C9.40323 8.92285 9.38868 8.85007 9.35957 8.80641C9.27223 8.68996 9.17034 8.58806 9.05389 8.48617C9.05389 8.4425 9.06845 8.34061 9.06845 8.34061C9.06845 8.32606 9.06845 8.3115 9.05389 8.3115C9.03933 8.29694 8.952 8.19505 8.93744 8.19505C8.92289 8.1805 8.89377 8.18049 8.86466 8.18049C8.85011 8.18049 8.85011 8.22416 8.86466 8.22416C8.87922 8.23872 8.90833 8.25327 8.90833 8.25327L8.92289 8.29694L8.90833 8.3115C8.90833 8.32606 8.90833 8.35517 8.90833 8.36972C8.92289 8.36972 8.92289 8.38428 8.93744 8.38428C8.93744 8.38428 8.92289 8.42795 8.89377 8.42795C8.87922 8.39884 8.85011 8.32606 8.82099 8.35517C8.80644 8.36972 8.80644 8.38428 8.80644 8.41339C8.82099 8.45706 8.83555 8.50073 8.86466 8.5444C8.87922 8.55895 8.87922 8.55895 8.89377 8.57351C8.952 8.68996 9.01022 8.76274 9.03933 8.83552Z" fill="#BDBBBB"/>
<path d="M10.4949 7.68559C10.4367 7.68559 10.393 7.64192 10.393 7.59825C10.393 7.5837 10.3494 7.51092 10.3203 7.43814C10.1602 7.04512 10.1747 7.19068 10.1893 7.13246C10.2184 7.01601 10.3639 7.01601 10.4804 7.01601H10.5386C10.5968 7.01601 10.6405 7.03057 10.6842 7.07424C10.7278 7.13246 10.7569 7.19068 10.7569 7.26346C10.7278 7.37991 10.6842 7.48181 10.6259 7.59825C10.5677 7.68559 10.5095 7.68559 10.4949 7.68559Z" fill="#000706"/>
<path d="M3.93016 5.76419C3.84283 5.6623 3.7846 5.50218 3.84283 5.47307C3.90105 5.44396 3.94472 5.48763 3.98839 5.50218C4.0175 5.51674 4.06117 5.51674 4.06117 5.44396C4.06117 5.37118 4.06117 5.34207 4.04661 5.2984C4.03206 5.16739 3.97383 5.03639 3.90105 4.9345C3.79916 4.83261 3.53715 4.71616 3.36248 4.83261C3.30425 4.87627 3.26059 4.91994 3.24603 4.99272C3.23147 5.02183 3.26059 5.05095 3.26059 5.08006C3.20236 5.24017 3.10047 5.38574 2.98402 5.51674C2.98402 5.51674 3.36248 5.56041 3.90105 5.95342C3.94472 5.98253 3.85738 6.18632 3.82827 6.17176C3.79916 6.15721 3.8865 6.01164 3.82827 5.98253C3.63904 5.88064 3.44981 5.80786 3.24603 5.76419C3.20236 5.74964 3.07136 5.83697 3.04225 5.7933C2.98402 5.73508 2.91124 5.69141 2.83846 5.6623C2.83846 5.6623 2.86757 5.67686 2.86757 5.73508C2.88213 5.8952 2.60556 5.73508 2.83846 5.96798C2.91124 6.04076 2.96947 6.08442 3.02769 6.06987C3.10047 6.06987 3.07136 6.08443 3.07136 6.09898L3.11503 6.20087C3.12958 6.21543 3.12958 6.21543 3.12958 6.20087L3.14414 6.09898C3.14414 6.08443 3.17325 6.06987 3.18781 6.06987C3.18781 6.06987 3.55171 6.08442 3.62449 6.08442C3.69727 6.08442 3.69727 6.11354 3.69727 6.11354C3.71182 6.15721 3.71182 6.20087 3.66816 6.22999C3.62449 6.2591 3.50804 6.18632 3.43526 6.2591C3.36248 6.31732 3.26059 6.34643 3.17325 6.36099C3.15869 6.36099 3.12958 6.34643 3.12958 6.33188L3.08591 6.22999C3.08591 6.21543 3.07136 6.21543 3.07136 6.22999L3.0568 6.36099C3.0568 6.37555 3.0568 6.40466 3.04225 6.40466C3.02769 6.40466 3.02769 6.3901 3.01313 6.37555C3.01313 6.36099 2.99858 6.36099 2.98402 6.36099C2.98402 6.36099 2.96947 6.36099 2.96947 6.37555L2.94035 6.40466C2.94035 6.41921 2.9258 6.41921 2.91124 6.41921C2.91124 6.41921 2.91124 6.41921 2.89668 6.40466L2.88213 6.3901C2.88213 6.37555 2.86757 6.37555 2.85302 6.37555C2.85302 6.37555 2.85302 6.37555 2.83846 6.3901L2.8239 6.41921C2.80935 6.43377 2.79479 6.43377 2.79479 6.41921V6.40466C2.79479 6.3901 2.78024 6.3901 2.76568 6.40466C2.75112 6.41921 2.75112 6.41921 2.75112 6.40466L2.72201 6.43377C2.70746 6.44833 2.67834 6.46288 2.67834 6.49199C2.67834 6.52111 2.70746 6.52111 2.8239 6.55022C2.95491 6.57933 3.53715 6.33188 3.72638 6.37555C3.94472 6.41921 4.0175 6.24454 4.03206 6.01164C4.03206 5.99709 4.03206 5.98253 4.03206 5.96798C3.98839 5.90975 3.94472 5.85153 3.90105 5.7933" fill="#BDBBBB"/>
<path d="M13.2024 10.3639C13.1878 10.393 13.115 10.4076 13.0859 10.4221C13.0422 10.4367 12.984 10.4658 12.9986 10.5095C12.9986 10.5677 12.9986 10.6405 12.9986 10.6987C13.0131 10.7132 13.0714 10.7424 13.0859 10.7132C13.1005 10.6841 13.0859 10.5822 13.1005 10.5095C13.1005 10.4949 13.115 10.4512 13.1296 10.4367C13.1587 10.4221 13.2169 10.393 13.2024 10.3639Z" fill="#BDBBBB"/>
<path d="M7.55462 7.52547C7.61284 7.52547 7.70018 7.51092 7.72929 7.52547C7.77296 7.56914 7.78751 7.61281 7.80207 7.67103C7.7584 7.77293 7.70018 7.87482 7.64195 7.96216C7.6274 7.97671 7.61284 8.00582 7.58373 7.97671C7.55462 7.84571 7.52551 7.7147 7.51095 7.56914C7.49639 7.56914 7.49639 7.54003 7.55462 7.52547Z" fill="#BDBBBB"/>
<path d="M13.9593 8.93741C13.8719 8.82096 13.6682 8.61718 13.5954 8.51528C13.4935 8.38428 12.9986 7.80204 12.9986 7.80204C12.9986 7.80204 12.853 6.92868 12.7948 6.72489C12.7511 6.59389 12.6492 5.67686 11.936 5.16739C11.9797 5.10917 12.4454 5.47307 12.6056 5.74964C12.9112 6.2591 13.0422 7.59825 13.0422 7.59825C13.0422 7.59825 13.2315 5.54585 12.1543 5.12373C11.3829 4.80349 10.9898 4.84716 10.9898 4.84716C10.6696 5.05095 10.5823 5.47307 10.7715 5.77875C10.8297 5.8952 11.543 6.97234 11.5866 7.07424C11.9942 7.83115 13.2606 8.70451 13.508 8.95197C13.5226 8.96652 13.7409 9.11208 13.7555 9.2722C13.7555 9.30131 13.4498 9.09753 13.4644 9.14119C13.4935 9.53421 13.4789 9.94178 13.4498 10.3348C13.4498 10.4367 13.4353 10.4367 13.377 10.4658C13.3188 10.4949 13.2606 10.4367 13.2169 10.524C13.1733 10.6114 13.1878 10.7132 13.2897 10.7132C13.3916 10.7132 13.5517 10.7715 13.639 10.393C13.7264 10.0146 13.9447 9.34498 14.0175 9.09753C14.0466 9.0393 14.0029 8.96652 13.9593 8.93741Z" fill="#BDBBBB"/>
<path d="M3.12958 4.30859C3.17325 4.41048 3.18781 4.52693 3.21692 4.62882C3.21692 4.7016 3.18781 4.7016 3.18781 4.7016L2.94035 4.81805C2.96947 4.77438 2.99858 4.73071 3.02769 4.67249C3.07136 4.55604 3.10047 4.43959 3.12958 4.30859Z" fill="#BDBBBB"/>
<path d="M11.9797 10.2183C11.9651 10.2183 11.936 10.2183 11.936 10.2329C11.9214 10.2766 11.9069 10.3348 11.9069 10.393C11.9214 10.4221 11.9651 10.4221 11.9942 10.4076C12.0524 10.393 12.1543 10.3057 12.1252 10.2766C12.067 10.2475 12.0233 10.2329 11.9797 10.2183Z" fill="#BDBBBB"/>
<path d="M11.8778 10.1601C11.8487 10.1601 11.8341 10.1747 11.805 10.1892C11.7759 10.2183 11.7468 10.262 11.7468 10.3202C11.7468 10.3493 11.7904 10.393 11.8195 10.3639C11.8341 10.3348 11.936 10.1601 11.8778 10.1601Z" fill="#BDBBBB"/>
<path d="M2.60556 5.60408C2.54734 5.69141 2.70746 5.77875 2.75112 5.72052C2.76568 5.67686 2.75112 5.61863 2.6929 5.58952C2.67834 5.57496 2.63468 5.58952 2.60556 5.60408Z" fill="#BDBBBB"/>
<path d="M5.51677 10.5095C5.51677 10.5095 5.42944 10.6987 5.41488 10.7132C5.41488 10.7278 5.41488 10.7424 5.42944 10.7424C5.45855 10.7424 5.4731 10.7424 5.50222 10.7278C5.54588 10.655 5.58955 10.5822 5.61867 10.4949C5.58955 10.4803 5.54588 10.4803 5.51677 10.5095Z" fill="#BDBBBB"/>
<path d="M12.8239 9.11208C12.8676 8.93741 12.722 8.92285 12.6638 9.1412C12.6492 9.21398 12.4309 10 12.4018 10.2038C12.4018 10.2183 12.4018 10.2183 12.4163 10.2038C12.4309 10.2911 12.8094 9.19942 12.8239 9.11208Z" fill="#BDBBBB"/>
<path d="M5.82245 4.84716C5.42944 4.91994 5.02187 4.94905 4.62885 4.90539C4.39596 4.87627 4.39596 4.73071 4.42507 4.61426C4.20673 4.81805 4.10484 4.74527 4.09028 4.71616C4.09028 4.68705 4.16306 4.71616 4.22128 4.65793C4.29406 4.55604 4.30862 4.42504 4.26495 4.30859C4.22128 4.2067 4.26495 4.23581 4.26495 4.23581C4.35229 4.25036 4.41051 4.30859 4.43962 4.39592C4.46874 4.25036 4.27951 4.07569 4.22128 4.11936C4.11939 4.17758 4.04661 4.29403 4.04661 4.42504C4.06117 4.61427 4.06117 4.71616 3.98839 4.7016C3.58082 4.68705 3.11503 4.62882 2.85302 4.89083C2.85302 4.89083 3.15869 4.68705 3.40615 4.7016C3.63904 4.73071 4.13395 4.77438 4.16306 5.35662C4.16306 5.44396 4.16306 5.54585 4.16306 5.63319C4.16306 5.72052 4.09028 5.6623 4.09028 5.69141C4.09028 5.85153 4.20673 5.82242 4.19217 5.96798C4.1485 6.53566 3.8865 6.52111 3.8865 6.52111C3.8865 6.52111 4.20673 6.56477 4.36684 6.04076C4.36684 6.34643 4.33773 6.41921 4.20673 6.53566C4.3814 6.53566 4.55607 6.43377 4.64341 6.28821C4.70163 6.43377 4.80353 6.53566 4.93453 6.60844C4.86175 6.46288 4.8472 6.28821 4.89086 6.12809C4.94909 6.49199 5.03642 6.60844 5.2111 6.69578C5.06554 6.56477 4.99276 6.36099 5.03642 6.17176C5.06554 6.41921 5.35666 6.63755 5.35666 6.63755C5.28388 6.50655 5.24021 6.37555 5.24021 6.22999C5.35666 6.49199 5.50222 6.52111 5.50222 6.52111C5.37121 6.37555 5.29843 6.21543 5.26932 6.0262C5.26932 6.0262 5.41488 6.21543 5.53133 6.21543C5.44399 6.09898 5.29843 5.95342 5.26932 5.74964C5.35666 5.86609 5.42944 5.95342 5.53133 5.95342C5.42944 5.82242 5.35666 5.6623 5.3421 5.48763C5.44399 5.61863 5.42944 5.6623 5.61867 5.70597C5.53133 5.60408 5.50222 5.47307 5.53133 5.34207C5.60411 5.4294 5.72056 5.48763 5.85156 5.50218C5.77878 5.41485 5.73511 5.31296 5.73511 5.21106C5.83701 5.26929 5.95345 5.28384 6.0699 5.28384C6.01168 5.22562 5.98257 5.13828 5.99712 5.05095C6.09901 5.0655 6.20091 5.0655 6.3028 5.05095C6.23002 5.00728 6.17179 4.9345 6.18635 4.94905C6.24457 4.96361 6.33191 4.91994 6.44836 4.90539C6.52114 4.89083 6.59392 4.87627 6.6667 4.89083C6.39013 4.78894 6.09901 4.78894 5.82245 4.84716Z" fill="#BDBBBB"/>
<path d="M9.65069 7.20524C9.65069 7.20524 9.41779 7.19068 9.38868 7.26346C9.35957 7.33625 9.50513 7.72926 9.51968 7.78748C9.54879 7.86026 9.63613 7.68559 9.63613 7.68559C9.6798 7.5837 9.72347 7.4818 9.75258 7.37991C9.75258 7.33624 9.75258 7.20524 9.65069 7.20524Z" fill="#BDBBBB"/>
<path d="M8.70455 7.24891C8.70455 7.24891 8.47165 7.23435 8.44254 7.30713C8.45709 7.46725 8.48621 7.62737 8.54443 7.77293C8.57354 7.84571 8.61721 7.74381 8.61721 7.74381C8.64632 7.70015 8.83555 7.45269 8.83555 7.42358C8.83555 7.39447 8.80644 7.24891 8.70455 7.24891Z" fill="#BDBBBB"/>
<path d="M10.4076 4.84716C10.3348 4.84716 9.69436 4.91994 9.27223 4.91994C8.93744 4.91994 8.57354 4.90539 8.38431 4.90539C8.36976 4.90539 8.34065 4.90539 8.32609 4.90539C8.04952 4.89083 7.13249 4.87627 7.13249 4.87627C7.05971 4.86172 6.14268 5.09461 6.01168 6.12809C5.92434 6.754 5.96801 6.95779 6.11357 7.26346C6.20091 7.43814 6.37558 7.77293 6.36102 8.02038C6.36102 8.12227 6.17179 7.56914 6.17179 7.62737C6.17179 8.42795 6.12813 9.24309 6.02623 10.0437C5.95345 10.4076 5.88067 10.2329 5.79334 10.3785C5.77878 10.4076 5.58955 10.7424 5.58955 10.7424C5.58955 10.7424 5.69144 10.7278 5.77878 10.7278C5.86612 10.7278 5.98257 10.4221 6.05535 10.4221C6.0699 10.4221 5.96801 10.655 5.98257 10.655C6.05535 10.6405 6.18635 10.5968 6.18635 10.6696C6.21546 10.6841 6.24457 10.6696 6.25913 10.6405C6.28824 10.6114 6.39013 10.1456 6.44836 9.89811C6.46291 9.85444 6.56481 9.88355 6.59392 9.89811C6.65214 9.78166 6.56481 9.4032 6.72492 8.86463C6.88504 8.32606 7.05971 7.87482 6.98693 7.74381C6.97238 7.72926 6.69581 8.10772 6.69581 8.0786C6.68126 8.03493 7.59829 6.47744 7.42361 5.67686C7.42361 5.64774 7.40906 5.61863 7.40906 5.58952C7.40906 5.56041 7.51095 5.63319 7.64195 5.6623C7.81663 5.72052 7.96219 5.74964 8.02041 5.93887C8.07864 6.33188 8.25331 6.87045 8.63176 6.91412C8.47165 6.76856 8.25331 5.99709 8.28242 5.67686C8.38431 6.20087 8.70455 6.94323 8.96655 6.91412C8.90833 6.82678 8.68999 6.36099 8.68999 6.05531C8.77733 6.28821 9.01022 6.84134 9.17034 6.84134C9.60702 6.8559 9.72347 6.65211 10.0583 6.57933C10.7861 6.41921 10.9753 6.69578 11.0917 6.754C11.0044 6.66667 10.6987 6.12809 10.4949 5.72052C10.3348 5.38574 10.6114 5.0655 11.0772 4.86172C11.1645 4.83261 10.5532 4.84716 10.4076 4.84716Z" fill="#BDBBBB"/>
<path d="M10.5241 7.08879C10.5241 7.08879 10.2912 7.07424 10.262 7.14702C10.2475 7.2198 10.4076 7.51092 10.4658 7.5837C10.5095 7.64192 10.5386 7.54003 10.5386 7.54003C10.5823 7.45269 10.6259 7.3508 10.6551 7.24891C10.6696 7.2198 10.6405 7.08879 10.5241 7.08879Z" fill="#BDBBBB"/>
<path d="M8.19508 6.88501C8.07864 6.84134 7.93307 6.60844 7.90396 6.50655C7.86029 6.40466 7.78751 6.09898 7.83118 5.99709C7.86029 6.14265 7.91852 6.30277 7.97674 6.44833C8.02041 6.59389 8.10775 6.73945 8.19508 6.88501Z" fill="#BDBBBB"/>
<path d="M10.6696 9.95633C10.6259 9.91266 10.5532 9.869 10.4949 9.85444C10.4513 9.85444 10.4367 9.85444 10.4367 9.89811C10.4367 9.94178 10.4367 9.97089 10.4367 10.0146C10.4513 10.0873 10.4513 10.0582 10.5095 10.0582C10.5532 10.0582 10.5968 10.0582 10.6405 10.0582C10.6842 10.0582 10.6842 10.0582 10.6842 10.0146C10.6842 9.98545 10.6987 9.95633 10.6696 9.95633Z" fill="#000706"/>
<path d="M3.34792 5.0655C3.34792 5.0655 3.4207 4.9345 3.50804 4.90539C3.58082 4.89083 3.63904 4.91994 3.74094 4.99272C3.84283 5.0655 3.90105 5.16739 4.00294 5.13828C4.03206 5.12373 3.93016 5.25473 3.82827 5.22562C3.79916 5.21106 3.6536 4.96361 3.50804 4.96361C3.46437 4.99272 3.40615 5.02183 3.34792 5.0655Z" fill="#000706"/>
<path d="M3.62449 4.94905C3.55171 4.91994 3.47893 4.94905 3.43526 4.99272C3.46437 4.90539 3.60993 4.96361 3.66816 4.99272C3.72638 5.03639 3.75549 5.09461 3.7846 5.15284C3.74093 5.10917 3.69727 5.08006 3.63904 5.0655C3.55171 5.05095 3.53715 5.18195 3.53715 5.18195L3.49348 5.24017C3.49348 5.24017 3.49348 5.25473 3.56626 5.25473C3.68271 5.25473 3.79916 5.25473 3.91561 5.22562C3.95928 5.19651 3.75549 4.99272 3.62449 4.94905ZM3.6536 5.22562C3.62449 5.22562 3.60993 5.19651 3.60993 5.1674C3.60993 5.15284 3.62449 5.13828 3.6536 5.12373C3.68271 5.12373 3.69727 5.15284 3.69727 5.18195C3.69727 5.19651 3.66816 5.21106 3.6536 5.22562Z" fill="#000706"/>
<path d="M4.90542 5.69141C4.90542 5.69141 4.94909 5.83697 4.99275 5.86608C5.03642 5.8952 5.15287 5.72052 5.15287 5.72052C5.12376 5.82242 5.06554 5.90975 5.00731 5.98253C4.93453 5.92431 4.91997 5.88064 4.90542 5.69141Z" fill="#000706"/>
<path d="M5.06553 5.85153C5.09465 5.90975 5.12376 5.96798 5.18198 6.01164C5.22565 6.04076 5.32754 5.88064 5.32754 5.88064C5.29843 5.96798 5.24021 6.05531 5.19654 6.14265C5.09465 6.06987 5.05098 5.95342 5.06553 5.85153Z" fill="#000706"/>
<path d="M4.68708 6.08443C4.68708 6.08443 4.77441 6.22999 4.81808 6.2591C4.90542 6.28821 4.90542 6.06987 4.90542 6.06987C4.90542 6.06987 4.93453 6.30277 4.84719 6.3901C4.77441 6.34643 4.73075 6.31732 4.68708 6.08443Z" fill="#000706"/>
<path d="M4.89086 5.99709C4.90542 6.05531 4.93453 6.11354 4.9782 6.15721C5.02187 6.18632 5.1092 5.95342 5.1092 5.95342C5.09465 6.06987 5.06554 6.18632 5.00731 6.30277C4.93453 6.21543 4.89086 6.11354 4.89086 5.99709Z" fill="#000706"/>
<path d="M5.05098 6.09898C5.08009 6.15721 5.12376 6.21543 5.18198 6.24454C5.22565 6.2591 5.26932 6.06987 5.26932 6.06987C5.26932 6.06987 5.28388 6.30277 5.22565 6.36099C5.12376 6.31732 5.06554 6.21543 5.05098 6.09898Z" fill="#000706"/>
<path d="M5.1092 5.54585C5.1092 5.54585 5.18198 5.72052 5.24021 5.74964C5.29843 5.77875 5.37121 5.58952 5.37121 5.58952C5.37121 5.58952 5.32754 5.7933 5.24021 5.86608C5.16743 5.80786 5.15287 5.76419 5.1092 5.54585Z" fill="#000706"/>
<path d="M4.96364 5.38574C4.96364 5.38574 5.00731 5.51674 5.05098 5.54585C5.09465 5.57496 5.16743 5.38574 5.16743 5.38574C5.15287 5.48763 5.1092 5.58952 5.05098 5.69141C5.00731 5.64774 4.99276 5.58952 4.96364 5.38574Z" fill="#000706"/>
<path d="M5.24021 5.34207C5.25476 5.40029 5.28388 5.44396 5.31299 5.48763C5.35666 5.51674 5.41488 5.41485 5.41488 5.41485C5.41488 5.41485 5.38577 5.57496 5.32754 5.58952C5.29843 5.56041 5.26932 5.51674 5.24021 5.34207Z" fill="#000706"/>
<path d="M5.44399 5.21106C5.44399 5.21106 5.4731 5.31296 5.50222 5.34207C5.53133 5.37118 5.58955 5.26929 5.58955 5.26929C5.58955 5.34207 5.54589 5.40029 5.50222 5.44396C5.44399 5.37118 5.42944 5.2984 5.44399 5.21106Z" fill="#000706"/>
<path d="M5.63322 5.05095C5.63322 5.05095 5.66233 5.15284 5.69145 5.18195C5.72056 5.21106 5.77878 5.10917 5.77878 5.10917C5.77878 5.10917 5.76423 5.25473 5.69145 5.26929C5.64778 5.19651 5.63322 5.12373 5.63322 5.05095Z" fill="#000706"/>
<path d="M4.73075 5.82242C4.73075 5.82242 4.80353 5.93886 4.83264 5.95342C4.86175 5.96798 4.93453 5.82242 4.93453 5.82242C4.93453 5.82242 4.90542 5.99709 4.83264 6.04076C4.77441 5.98253 4.7453 5.90975 4.73075 5.82242Z" fill="#000706"/>
<path d="M5.15287 5.22562C5.15287 5.22562 5.18198 5.32751 5.2111 5.35662C5.24021 5.37118 5.29843 5.26929 5.29843 5.26929C5.29843 5.26929 5.28388 5.41485 5.22565 5.45852C5.15287 5.40029 5.12376 5.31296 5.15287 5.22562Z" fill="#000706"/>
<path d="M6.85593 4.97817C6.85593 4.97817 7.2635 4.81805 7.36539 5.48763C7.40906 5.25473 7.35083 4.94905 7.19072 4.86172C7.01604 4.77438 6.85593 4.97817 6.85593 4.97817Z" fill="#000706"/>
<path d="M3.60993 4.67249C4.03206 4.71616 4.36685 5.05095 4.41051 5.48763C4.45418 5.34207 4.29407 4.89083 4.10484 4.77438C4.09028 4.75983 4.00294 4.71616 4.06117 4.58515C3.90105 4.55604 3.75549 4.58515 3.60993 4.67249Z" fill="#000706"/>
<path d="M11.2519 9.91266C11.2519 9.91266 11.2519 10.2329 11.1791 10.3057H11.2227C11.2519 10.262 11.2664 10.2038 11.2664 10.1601C11.281 10.0873 11.281 10.0146 11.281 9.94178L11.2519 9.91266Z" fill="#000706"/>
<path d="M10.8443 7.74381C10.8443 7.75837 10.8443 7.77293 10.8443 7.78748C10.8443 7.78748 10.8297 7.8166 10.8734 7.84571C10.9025 7.86026 10.9171 7.87482 10.9316 7.90393V7.91849C10.9316 7.93304 10.9316 7.9476 10.9316 7.9476C10.9316 7.9476 10.9316 7.96215 10.9171 7.96215C10.9171 7.96215 10.9025 7.97671 10.9171 7.97671C10.9171 7.99127 10.9316 8.00582 10.9462 8.02038C10.9462 8.02038 10.9607 8.03494 10.9462 8.06405V8.0786C10.9316 8.12227 10.9462 8.20961 10.9607 8.19505C10.9753 8.19505 10.9753 8.10771 10.9898 8.10771C11.0044 8.0786 11.0044 8.04949 11.0044 8.02038C11.0044 8.00582 11.0044 8.00582 10.9898 8.00582C10.9753 7.99127 10.9607 7.97671 10.9607 7.97671V7.96215L10.9753 7.9476C10.9753 7.93304 10.9753 7.90393 10.9753 7.88937C10.9607 7.86026 10.9316 7.83115 10.9025 7.81659C10.888 7.81659 10.8734 7.80204 10.8734 7.78748C10.8734 7.77293 10.8734 7.77293 10.8734 7.77293C10.8734 7.75837 10.8734 7.74381 10.8734 7.72926C10.8297 7.67103 10.7715 7.64192 10.7133 7.64192L10.6696 7.68559C10.6842 7.68559 10.7569 7.64192 10.8443 7.74381Z" fill="#000706"/>
<path d="M10.5241 7.86026C10.5532 7.86026 10.5677 7.90393 10.5677 7.90393C10.5677 7.90393 10.5677 7.91849 10.5532 7.90393C10.5386 7.88938 10.524 7.87482 10.5095 7.87482C10.4949 7.87482 10.4804 7.88937 10.4804 7.88937C10.4804 7.88937 10.4949 7.86026 10.5241 7.86026Z" fill="#000706"/>
<path d="M10.7278 7.80204C10.7424 7.80204 10.7569 7.81659 10.7569 7.84571C10.7424 7.81659 10.7278 7.81659 10.7278 7.80204C10.6987 7.81659 10.6987 7.81659 10.6842 7.81659C10.6842 7.80204 10.6842 7.78748 10.7278 7.80204Z" fill="#000706"/>
<path d="M11.1063 9.24309L11.0772 9.14119L11.0626 9.09753L10.8588 8.73362L10.8443 8.71907C10.8297 8.70451 10.8297 8.70451 10.8152 8.68996V8.6754C10.888 8.6754 10.9607 8.66084 11.0335 8.64629C11.0917 8.73362 11.1645 8.80641 11.2519 8.86463C11.1936 8.76274 11.1354 8.6754 11.0626 8.57351C11.0772 8.52984 11.0772 8.50073 11.0772 8.45706C11.0626 8.42795 11.0335 8.39884 10.9898 8.38428C10.9898 8.38428 10.9898 8.36972 10.9753 8.36972C10.9607 8.34061 10.9462 8.32606 10.9462 8.3115L11.0335 8.34061H11.0481L11.0772 8.3115L10.9171 8.25327C10.9025 8.25327 10.888 8.22416 10.888 8.19505C10.888 8.16594 11.0044 8.06405 10.9753 8.06405C10.9316 8.04949 10.8297 8.16594 10.8297 8.19505C10.8297 8.22416 10.8443 8.25327 10.8588 8.28239C10.8443 8.29694 10.8443 8.29694 10.8443 8.3115C10.6405 8.32606 10.5677 8.39884 10.5677 8.42795C10.6405 8.39884 10.7133 8.36972 10.7861 8.35517C10.7424 8.38428 10.8152 8.45706 10.8152 8.45706C10.8006 8.4425 10.7861 8.4425 10.7715 8.45706C10.7278 8.48617 10.7715 8.5444 10.7715 8.55895C10.7569 8.55895 10.7424 8.55895 10.7424 8.57351C10.7278 8.60262 10.7569 8.64629 10.7861 8.6754C10.8152 8.70451 10.7424 8.68996 10.5677 8.55895C10.5677 8.6754 10.7715 8.74818 10.8443 8.76274C10.8297 8.74818 11.0917 9.22853 11.1063 9.24309ZM10.7715 8.60262C10.7861 8.58806 10.8152 8.61718 10.8297 8.61718C10.8443 8.60262 10.7569 8.51528 10.7861 8.50073C10.8152 8.48617 10.8443 8.5444 10.8588 8.52984C10.8734 8.51528 10.8734 8.51528 10.8588 8.50073C10.8443 8.48617 10.8297 8.4425 10.8297 8.4425C10.8297 8.4425 10.7861 8.38428 10.8152 8.36972C10.8443 8.35517 10.8588 8.39884 10.8734 8.41339C10.8734 8.41339 10.9171 8.50073 10.9316 8.48617C10.9462 8.47162 10.9025 8.35517 10.9025 8.35517C10.9025 8.35517 10.8734 8.3115 10.888 8.3115C10.9025 8.29694 10.9171 8.3115 10.9462 8.34061C10.9753 8.39884 11.0044 8.4425 11.0481 8.48617C11.0481 8.47162 11.0481 8.4425 11.0335 8.42795C11.0481 8.4425 11.0772 8.4425 11.0772 8.47161C11.0772 8.50073 11.0772 8.52984 11.0626 8.55895C10.9898 8.61718 10.9025 8.64629 10.8006 8.64629C10.7861 8.64629 10.7424 8.61718 10.7715 8.60262Z" fill="#000706"/>
<path d="M10.2912 9.22853L10.262 9.24309L10.2184 9.2722C10.2184 9.28675 10.393 9.69432 10.5532 9.82533V9.81077C10.4367 9.6361 10.3348 9.44687 10.2912 9.22853Z" fill="#000706"/>
<path d="M10.9171 9.43231C10.8152 9.44687 10.7424 9.78166 10.7424 9.78166C10.7715 9.75255 10.7715 9.81077 10.7715 9.81077C10.7715 9.81077 10.8588 9.53421 10.9171 9.5051C10.9753 9.49054 11.0335 9.47598 11.0917 9.49054C11.0481 9.44687 10.9753 9.43231 10.9171 9.43231Z" fill="#000706"/>
<path d="M10.131 8.9083C10.131 8.8064 10.1165 8.68996 10.1019 8.58806L10.0874 8.60262L10.0583 8.58806C10.0728 8.70451 10.1019 8.8064 10.131 8.9083Z" fill="#000706"/>
<path d="M10.2038 8.66084L10.2329 8.92285L10.2766 8.89374L10.262 8.70451C10.262 8.70451 10.2766 8.71907 10.2912 8.70451C10.3057 8.68996 10.262 8.66084 10.2475 8.61718C10.2475 8.57351 10.2912 8.5444 10.2766 8.52984L10.262 8.5444C10.262 8.51528 10.262 8.47162 10.2766 8.45706C10.2912 8.42795 10.3057 8.39884 10.3203 8.36972C10.262 8.39884 10.2184 8.4425 10.2184 8.50073V8.58806C10.2184 8.60262 10.2038 8.61718 10.2038 8.63173C10.2038 8.63173 10.2038 8.64629 10.2038 8.66084Z" fill="#000706"/>
<path d="M10.1019 9.47598C10.0874 9.54876 10.3639 9.79622 10.3639 9.79622L10.4367 9.7671C10.3203 9.67977 10.2038 9.57788 10.1019 9.47598Z" fill="#000706"/>
<path d="M10.3203 8.32606C10.393 8.34061 10.4513 8.38428 10.5095 8.41339C10.524 8.38428 10.4076 8.3115 10.3494 8.29694C10.3203 8.29694 10.3057 8.29694 10.3057 8.3115C10.3203 8.32606 10.3203 8.32606 10.3203 8.32606Z" fill="#000706"/>
<path d="M7.86029 9.18486C7.88941 9.18486 7.94763 9.12664 7.93307 9.11208C7.91852 9.11208 7.90396 9.14119 7.86029 9.14119C7.84574 9.14119 7.83118 9.14119 7.80207 9.14119C7.80207 9.15575 7.7584 9.15575 7.7584 9.15575V9.18486L7.80207 9.17031C7.81663 9.18486 7.83118 9.19942 7.86029 9.18486Z" fill="#000706"/>
<path d="M8.77732 8.47161C8.80644 8.4425 8.74821 8.39884 8.74821 8.39884C8.74821 8.39884 8.79188 8.45706 8.76277 8.4425C8.73366 8.39884 8.61721 8.35517 8.60265 8.35517C8.60265 8.35517 8.61721 8.32606 8.68999 8.38428C8.68999 8.36972 8.66088 8.34061 8.60265 8.34061C8.60265 8.32606 8.60265 8.32605 8.5881 8.32605C8.5881 8.32605 8.60265 8.34061 8.5881 8.34061C8.57354 8.34061 8.57354 8.32606 8.57354 8.3115C8.57354 8.29694 8.54443 8.3115 8.55898 8.32605C8.57354 8.34061 8.57354 8.32606 8.57354 8.34061C8.55898 8.34061 8.55898 8.34061 8.54443 8.34061C8.52987 8.34061 8.51532 8.34061 8.50076 8.34061L8.51532 8.32605C8.54443 8.3115 8.50076 8.28239 8.4862 8.32605C8.4862 8.32605 8.4862 8.34061 8.47165 8.34061C8.45709 8.34061 8.47165 8.3115 8.47165 8.3115L8.45709 8.32605C8.45709 8.34061 8.38431 8.32606 8.36976 8.36972C8.41342 8.32606 8.44254 8.34061 8.44254 8.35517C8.44254 8.36972 8.38431 8.39884 8.3552 8.41339C8.32609 8.42795 8.31153 8.45706 8.29698 8.45706C8.28242 8.45706 8.28242 8.4425 8.29698 8.41339C8.26786 8.4425 8.26786 8.47162 8.28242 8.48617C8.26786 8.52984 8.26786 8.57351 8.29698 8.60262C8.34064 8.64629 8.38431 8.68996 8.42798 8.71907C8.44254 8.71907 8.31153 8.60262 8.31153 8.55895C8.29698 8.4425 8.44254 8.35517 8.4862 8.34061C8.50076 8.35517 8.51532 8.35517 8.51532 8.35517C8.54443 8.35517 8.55898 8.34061 8.55898 8.34061C8.60265 8.34061 8.77732 8.39884 8.76277 8.5444C8.76277 8.58806 8.73366 8.63173 8.74821 8.64629C8.76277 8.66084 8.76277 8.63173 8.77732 8.58806C8.79188 8.57351 8.79188 8.52984 8.77732 8.47161Z" fill="#000706"/>
<path d="M7.87485 9.75255C8.04952 9.73799 8.36976 10.2766 8.36976 10.2766C8.38431 10.2911 8.39887 10.262 8.39887 10.262C8.39887 10.2475 8.1223 9.66521 7.87485 9.75255Z" fill="#000706"/>
<path d="M8.1223 8.86463C8.07864 8.86463 8.1223 9.35953 8.1223 9.35953L8.16597 9.31587C8.16597 9.28675 8.15142 9.14119 8.15142 9.12664C8.23875 9.12664 8.31153 9.09753 8.36976 9.0393C8.32609 9.05386 8.26786 9.05386 8.2242 9.05386C8.16597 9.0393 8.15142 9.02475 8.15142 9.01019C8.15142 8.98108 8.13686 8.86463 8.1223 8.86463Z" fill="#000706"/>
<path d="M8.09319 9.6361L8.06408 9.66521C8.29698 9.79622 8.44254 10.262 8.45709 10.262L8.52987 10.2911C8.52987 10.2911 8.34064 9.73799 8.09319 9.6361Z" fill="#000706"/>
<path d="M8.66088 10.262C8.67543 10.2766 8.73366 10.2475 8.73366 10.2475C8.73366 10.1019 8.79188 9.94178 8.90833 9.83988C8.90833 9.83988 8.70455 9.88355 8.66088 10.262Z" fill="#000706"/>
<path d="M9.65069 10.2183L9.60702 10.1892C9.62158 10.2329 9.62158 10.2911 9.62158 10.3348V10.4367C9.63613 10.4076 9.65069 10.393 9.66524 10.3785C9.6798 10.3639 9.6798 10.3639 9.66524 10.3202C9.65069 10.3057 9.63613 10.2183 9.65069 10.2183Z" fill="#000706"/>
<path d="M8.92289 8.85007C8.90833 8.89374 8.89377 8.93741 8.89377 8.98108C8.89377 9.02475 8.86466 9.05386 8.82099 9.05386H8.80644C8.76277 9.05386 8.7191 9.0393 8.68999 9.02475C8.7191 9.08297 8.86466 9.11208 8.89377 9.17031C8.89377 9.19942 8.90833 9.21397 8.90833 9.24309H8.93744V9.14119L8.96655 9.12664C8.96655 8.92285 8.93744 8.85007 8.92289 8.85007Z" fill="#000706"/>
<path d="M8.34064 8.76274C8.29698 8.76274 8.25331 8.76274 8.20964 8.77729L8.1223 8.79185L8.15142 8.80641C8.20964 8.79185 8.28242 8.79185 8.34064 8.77729H8.36976C8.42798 8.79185 8.51532 8.82096 8.51532 8.80641C8.47165 8.77729 8.42798 8.76274 8.38431 8.74818L8.34064 8.76274Z" fill="#000706"/>
<path d="M8.90833 8.79185L8.87922 8.77729H8.70455C8.64632 8.79185 8.5881 8.80641 8.54443 8.83552C8.55899 8.85007 8.64632 8.80641 8.70455 8.79185C8.76277 8.79185 8.83555 8.79185 8.89377 8.80641" fill="#000706"/>
<path d="M9.24312 9.08297C9.21401 9.05386 9.02478 8.82096 9.02478 8.82096L9.01022 8.80641H8.98111C9.03933 8.89374 9.09756 8.96652 9.1849 9.0393C9.21401 9.06841 9.24312 9.08297 9.24312 9.08297Z" fill="#000706"/>
<path d="M8.04952 10.3348L8.07863 10.3785C8.09319 10.3493 8.10775 10.3202 8.13686 10.2911C8.18053 10.262 8.2242 10.2475 8.28242 10.2329C8.19508 10.2183 8.09319 10.262 8.04952 10.3348Z" fill="#000706"/>
<path d="M7.9913 9.38865C8.02041 9.38865 8.02041 9.37409 8.02041 9.34498C8.03497 9.33042 8.04952 9.30131 8.04952 9.28676C8.06408 9.34498 8.09319 9.46143 8.06408 9.49054L8.03497 9.51965L8.06408 9.5051C8.09319 9.49054 8.09319 9.46143 8.09319 9.43232C8.09319 9.41776 8.04952 9.22853 8.04952 9.22853V9.21397C8.04952 9.18486 8.03497 9.17031 8.03497 9.15575C8.02041 9.12664 7.9913 9.11208 7.96219 9.11208C7.96219 9.11208 8.04952 9.17031 8.04952 9.22853C8.03497 9.28676 8.02041 9.30131 8.02041 9.30131L8.00586 9.28676V9.33042C8.00586 9.34498 7.9913 9.35954 7.9913 9.35954C7.96219 9.35954 7.93308 9.4032 7.88941 9.4032C7.84574 9.4032 7.83118 9.35953 7.81663 9.34498C7.80207 9.33042 7.83118 9.30131 7.83118 9.30131C7.83118 9.28676 7.83118 9.28676 7.81663 9.28676C7.80207 9.28676 7.78752 9.31587 7.78752 9.31587C7.78752 9.31587 7.77296 9.37409 7.80207 9.38865C7.8603 9.41776 7.83118 9.41776 7.88941 9.44687C7.94763 9.44687 7.94763 9.38865 7.9913 9.38865Z" fill="#000706"/>
</svg>
