<svg width="57" height="16" viewBox="0 0 57 16" fill="none" xmlns="http://www.w3.org/2000/svg">
<path d="M10.7642 0.942349C12.5346 0.619357 14.368 0.59864 16.1383 0.935757C16.2956 0.97154 16.4557 0.997907 16.6157 1.02804C16.7457 1.07701 16.8851 1.0949 17.0225 1.11185C17.0254 1.12503 17.032 1.15046 17.0348 1.16364C17.1789 1.18812 17.321 1.22297 17.4614 1.26628C17.7589 1.37269 18.0565 1.48004 18.355 1.58457L18.3691 1.67497C18.3993 1.66367 18.4605 1.64107 18.4915 1.62882C18.5914 1.72958 18.7138 1.78608 18.8597 1.80021C18.355 1.82092 17.9105 2.09872 17.4105 2.14862V2.22772C17.3286 2.22302 17.1647 2.21454 17.0828 2.20983C15.3031 1.76348 13.3981 1.72111 11.6183 2.19288C11.5731 2.20042 11.4827 2.21737 11.4375 2.2249C11.2793 2.2814 11.1202 2.33507 10.961 2.38687C10.8537 2.417 10.7473 2.44996 10.6456 2.4961L10.5853 2.50269C10.5034 2.53282 10.3405 2.59403 10.2595 2.62417C10.2585 2.64206 10.2557 2.6769 10.2548 2.69385C10.1936 2.69856 10.0721 2.70892 10.0109 2.71362C9.93838 2.83416 9.80184 2.86241 9.67754 2.89819L9.68413 2.99895C9.64175 2.98859 9.55606 2.96599 9.51369 2.95563L9.48732 3.08182C9.44589 3.07522 9.36208 3.06298 9.32064 3.05639L9.32441 3.17881L9.20011 3.14491L9.1954 3.27297C9.16527 3.26544 9.10406 3.25132 9.07299 3.24472C8.77354 3.54323 8.36579 3.72498 8.12849 4.08752C8.10213 4.09034 8.04751 4.09693 8.0202 4.09976C7.99289 4.24289 7.88649 4.3041 7.75371 4.32388C7.67649 3.98111 7.57668 3.64399 7.44955 3.31629C7.35821 3.07993 7.26781 2.84169 7.21696 2.59215L7.14539 2.6091C7.14728 2.55448 7.14916 2.44619 7.15104 2.39157L7.26216 2.40664C7.25274 2.36427 7.23297 2.28046 7.22355 2.23808C7.29888 2.23243 7.45144 2.22207 7.52677 2.21642L7.49475 2.1232C7.60399 2.08459 7.71322 2.04787 7.82339 2.01114L7.8055 1.90662C7.84882 1.92168 7.93545 1.94993 7.97877 1.965L7.99949 1.83411C8.0428 1.8407 8.13132 1.852 8.17464 1.85859L8.1897 1.72676C8.2236 1.73429 8.2914 1.74936 8.3253 1.75689C8.45619 1.68532 8.58709 1.61564 8.71421 1.53654L8.77354 1.57703C8.89219 1.42919 9.10312 1.46309 9.26697 1.41507L8.98353 1.39435C9.22083 1.39341 9.49109 1.18718 9.71049 1.34444C9.6926 1.31337 9.65682 1.24933 9.63893 1.21732C9.76323 1.19001 9.88659 1.15987 10.0099 1.12692C10.1371 1.09584 10.2661 1.06665 10.3932 1.02992C10.5166 1.00073 10.6409 0.973424 10.7642 0.942349Z" fill="#FB0202"/>
<path d="M34.7871 1.24933C35.9058 1.05723 37.0443 0.972481 38.1799 1.01203C38.8777 1.0384 39.5632 1.21449 40.1998 1.49793L40.212 1.56761C40.2422 1.56573 40.3034 1.56196 40.3335 1.56008C40.5736 1.77761 40.8731 1.93392 41.0642 2.20136C41.101 2.23902 41.1735 2.3153 41.2102 2.35297C41.2705 2.44902 41.3307 2.54507 41.3948 2.64112C41.8524 3.39445 41.8967 4.31634 41.7639 5.16667C41.6622 5.78628 41.3562 6.35788 40.9277 6.8127C40.7639 6.95678 40.5962 7.09708 40.423 7.22986C40.2996 7.3099 40.1753 7.38806 40.0519 7.46904C39.9248 7.51895 39.7977 7.57074 39.6715 7.62253C38.8042 7.99073 37.8362 8.05853 36.9068 7.98414C36.9002 9.30718 36.9011 10.6312 36.9058 11.9551C36.1996 11.9768 35.4933 11.9599 34.788 11.9664C34.7965 8.39376 34.7984 4.82202 34.7871 1.24933ZM36.9058 2.83227C36.9049 3.93967 36.8955 5.04802 36.9087 6.15542C37.7194 6.20533 38.6074 6.20156 39.2788 5.6714C39.325 5.60737 39.373 5.54428 39.422 5.48213C39.8448 4.87946 39.8542 3.98958 39.4182 3.39162C39.2967 3.28239 39.1715 3.17975 39.0415 3.08276C38.3748 2.74941 37.6234 2.84075 36.9058 2.83227Z" fill="#000706"/>
<path d="M4.11323 1.06759C4.83266 1.08642 5.55303 1.06759 6.27247 1.08454C6.28283 1.14292 6.30449 1.25969 6.31484 1.31807C6.63878 2.22867 6.96365 3.1402 7.25745 4.06209C7.33373 4.28056 7.41377 4.49808 7.49946 4.71373C7.64259 5.18456 7.81209 5.64692 7.97218 6.1121C8.24809 6.93323 8.51269 7.75813 8.8225 8.56703C8.83286 8.6207 8.85452 8.72805 8.86582 8.78173C9.25755 9.83734 9.60032 10.9108 9.96757 11.9749C9.20859 11.9486 8.44772 11.9853 7.68968 11.9486C7.59551 11.4269 7.36104 10.9466 7.21319 10.44C7.18212 10.3477 7.15293 10.2554 7.12374 10.1622C6.96554 9.71209 6.80263 9.26292 6.67079 8.80339C5.63873 8.77608 4.60383 8.77325 3.57271 8.80339C3.56612 8.86459 3.55482 8.98795 3.54917 9.04916C3.5002 9.16781 3.45406 9.2874 3.40792 9.40699C3.28079 9.86182 3.11694 10.3053 2.97287 10.7545C2.89942 10.9372 2.83444 11.1237 2.78265 11.3148C2.65458 11.521 2.73368 11.9627 2.41352 11.9636C1.72045 11.9617 1.0255 11.9881 0.333374 11.941C0.468974 11.7913 0.501932 11.587 0.567849 11.4024C0.726049 10.9287 0.904966 10.4617 1.04998 9.98424C1.12814 9.80155 1.19594 9.61416 1.24867 9.42206C1.29199 9.30153 1.33531 9.18194 1.38051 9.06234C1.50669 8.63954 1.67242 8.22897 1.79767 7.80522C1.9295 7.42855 2.08017 7.05848 2.19128 6.67428C2.2911 6.39554 2.37491 6.11116 2.48791 5.83713C2.52463 5.71754 2.5623 5.59889 2.60185 5.48118C2.82314 4.78058 3.10282 4.09976 3.30622 3.39445C3.35236 3.27297 3.3985 3.1515 3.44464 3.03002C3.49267 2.83887 3.55953 2.65336 3.63203 2.46973C3.66028 2.37651 3.69042 2.28328 3.72149 2.19006C3.84297 1.84541 3.98893 1.50547 4.05673 1.14481C4.06991 1.16458 4.09628 1.20225 4.10946 1.22108C4.1104 1.18341 4.11228 1.1062 4.11323 1.06759ZM4.94754 4.71843C4.75638 5.21187 4.59724 5.71566 4.42774 6.21663C4.3477 6.47464 4.22528 6.7223 4.19892 6.99444C4.8562 6.94924 5.52196 7.05659 6.17265 6.93135C5.86755 6.46617 5.79504 5.88798 5.56622 5.38325C5.55492 5.32863 5.53043 5.2194 5.51819 5.16478C5.35152 4.81072 5.25641 4.42934 5.14247 4.05738C5.07938 4.27773 5.00875 4.49714 4.94754 4.71843Z" fill="#000706"/>
<path d="M17.4491 2.54036C18.0132 2.39534 18.5622 2.19477 19.129 2.05728C19.1262 2.67784 19.1375 3.2984 19.1093 3.91802C19.7421 3.92084 20.3739 3.92084 21.0058 3.91707C21.0303 4.51597 21.0133 5.11488 21.0143 5.71472C20.3815 5.70907 19.7487 5.71095 19.1159 5.71283C19.1338 6.95207 19.114 8.19224 19.1262 9.43148C19.1159 9.71963 19.2129 10.0002 19.388 10.2272C19.857 10.2592 20.3485 10.2517 20.7723 10.0228C20.7958 10.0577 20.8419 10.1283 20.8655 10.1632C20.8768 10.7272 20.9465 11.2875 20.9399 11.8525C20.0057 12.1604 18.8955 12.3102 18.0207 11.7574C17.8823 11.65 17.7486 11.538 17.6214 11.4184C17.5339 11.2884 17.4435 11.1604 17.3455 11.0389C17.3333 10.9852 17.3079 10.8788 17.2947 10.8261C17.0941 10.4155 17.0696 9.9494 17.0376 9.50116C17.0329 8.23839 17.0291 6.97655 17.0395 5.71378C16.6619 5.71754 16.2852 5.71754 15.9085 5.71566C15.8982 5.11582 15.9151 4.51503 15.9057 3.91425C16.2814 3.91802 16.6581 3.91613 17.0348 3.92272C17.0376 3.49803 17.0291 3.0724 17.0414 2.64771C17.1779 2.61663 17.3145 2.58273 17.4491 2.54036Z" fill="#000706"/>
<path d="M11.8923 4.11388C12.7314 3.67318 13.7389 3.71179 14.6335 3.94815C14.8774 4.04232 15.1204 4.13931 15.3586 4.24854C15.353 4.27867 15.3407 4.338 15.3351 4.36813C15.6477 4.19957 15.5611 4.63933 15.5178 4.79942C15.3548 5.27308 15.2315 5.76274 15.0234 6.21945C14.9584 6.14883 14.8944 6.07914 14.8303 6.00946C14.5789 5.88045 14.3284 5.74768 14.0714 5.62997C13.7182 5.55369 13.3576 5.52356 12.9979 5.55181C12.9112 5.60831 12.8227 5.66293 12.7332 5.7166C12.6965 5.75238 12.6221 5.82489 12.5845 5.86162C12.6071 6.07914 12.447 6.55939 12.8425 6.48406C12.7926 6.48877 12.6928 6.49913 12.6428 6.50383C12.8359 6.60271 13.0242 6.711 13.2144 6.81647C13.4941 6.94077 13.7804 7.05 14.0601 7.17242C14.2361 7.2534 14.4132 7.33533 14.5902 7.41348L14.5921 7.46433C14.9057 7.64043 15.1835 7.87584 15.4066 8.15834C15.4613 8.26946 15.5253 8.37587 15.5931 8.47945C15.8765 9.05764 15.8878 9.7234 15.7277 10.3383C15.6458 10.504 15.5705 10.6717 15.4886 10.8374C15.4104 10.9146 15.3473 11.0031 15.3002 11.102C15.1562 11.2536 15.0017 11.393 14.8379 11.521C14.739 11.5794 14.6429 11.6406 14.5488 11.7056C13.3811 12.3177 11.93 12.2386 10.7444 11.7141C10.7021 11.6887 10.6173 11.6369 10.574 11.6105C10.4676 11.5691 10.3602 11.5295 10.2529 11.4928C10.2294 11.2348 10.3141 10.9899 10.4102 10.7555C10.5128 10.4061 10.6597 10.069 10.7294 9.71021C10.8104 9.73469 10.9714 9.7846 11.0524 9.81003C11.2624 9.94092 11.4808 10.0596 11.7144 10.1453C12.3425 10.3713 13.173 10.5426 13.6994 10.0115C13.8802 9.5878 13.658 9.04539 13.1805 8.96629L13.1824 8.91168C12.7549 8.74218 12.3114 8.60093 11.9131 8.36645C11.8697 8.34385 11.785 8.29771 11.7417 8.27511C11.4573 8.08678 11.1494 7.90315 10.9714 7.60182L10.9337 7.59899C10.9017 7.56133 10.8386 7.48694 10.8066 7.44927C10.8057 7.42949 10.8047 7.39088 10.8038 7.37111C10.299 6.66674 10.4337 5.67611 10.8537 4.96233L10.9243 4.95197L10.8961 4.84744H10.9733C11.0712 4.69018 11.1936 4.54988 11.349 4.44818C11.4629 4.36248 11.5788 4.27867 11.6899 4.18827L11.7577 4.20617C11.7643 4.17792 11.7784 4.12142 11.785 4.09317L11.8923 4.11388Z" fill="#000706"/>
<path d="M24.4984 3.9199C25.0079 3.72592 25.5578 3.77771 26.088 3.83327C26.088 4.57436 26.1416 5.32016 26.0541 6.05748C26.0324 6.01511 25.99 5.92942 25.9693 5.88704C25.4872 5.77028 24.9514 5.75238 24.5107 6.01228C24.279 6.22793 24.0634 6.46899 23.9702 6.7788C23.8751 7.05283 23.8261 7.34286 23.8308 7.63384C23.8233 9.08118 23.828 10.5295 23.828 11.9768C23.1067 11.942 22.3844 11.9985 21.665 11.942C21.7431 11.5474 21.7007 11.1425 21.7215 10.7432C21.7083 8.46721 21.7676 6.19026 21.6329 3.91707C22.2893 3.92272 22.9447 3.91237 23.601 3.92273C23.6048 4.13178 23.6142 4.34083 23.6274 4.54893C23.7074 4.45477 23.8685 4.26643 23.9494 4.17227C23.9786 4.18168 24.038 4.20052 24.0681 4.20993L24.0813 4.09788L24.1566 4.09505C24.2658 4.02725 24.3817 3.97358 24.4984 3.9199Z" fill="#000706"/>
<path d="M29.1192 3.84645C29.9375 3.71932 30.802 3.75228 31.5704 4.08563C31.6721 4.13083 31.7738 4.17698 31.8764 4.22312C32.1523 4.38226 32.4122 4.56777 32.6495 4.78153C33.7899 5.86256 34.0761 7.56698 33.7663 9.05669C33.7249 9.17817 33.6872 9.30247 33.6524 9.42583C33.5808 9.65371 33.4772 9.86935 33.3831 10.0878C33.2465 10.3477 33.0572 10.5737 32.8755 10.8016C32.8124 10.8703 32.7493 10.9381 32.6881 11.0069C32.5459 11.1481 32.3905 11.2743 32.2352 11.4005C31.301 12.022 30.14 12.2668 29.0363 12.0531C28.3847 11.9401 27.7924 11.6274 27.2848 11.2112C27.218 11.1425 27.1521 11.0737 27.0861 11.005C26.9449 10.8289 26.8008 10.6547 26.6567 10.4805C26.4722 10.182 26.313 9.86747 26.1981 9.536C26.1671 9.40605 26.1351 9.27704 26.0974 9.14992C26.0682 9.02562 26.039 8.90132 26.007 8.77796C25.9411 8.00956 25.9495 7.22139 26.1963 6.48312C26.2273 6.39272 26.2575 6.30232 26.2867 6.21192C26.5729 5.52356 27.0259 4.89641 27.6417 4.46701C27.766 4.38697 27.8922 4.30881 28.0146 4.22594C28.1013 4.1911 28.1879 4.15626 28.2755 4.12048C28.5476 4.00465 28.8292 3.9086 29.1192 3.84645ZM29.3857 5.62808C29.1164 5.75521 28.8235 5.8861 28.6738 6.16107L28.5985 6.16389L28.6239 6.27313L28.5523 6.28913C28.4873 6.41814 28.4205 6.54621 28.3508 6.67239C28.0513 7.49447 28.0165 8.42954 28.3574 9.24409C28.4054 9.32789 28.4525 9.4117 28.4986 9.49645C28.7086 9.84581 29.0297 10.1302 29.4168 10.2649C29.8565 10.4419 30.349 10.3374 30.7511 10.1151C31.0082 9.93621 31.2088 9.69515 31.3801 9.43619C31.4677 9.24597 31.544 9.0501 31.6212 8.85518C31.7653 8.23274 31.7493 7.59052 31.6061 6.9709C31.4178 6.39648 31.0581 5.84278 30.4752 5.61396C30.1823 5.54993 29.8829 5.54145 29.5853 5.55369C29.5354 5.57253 29.4356 5.61019 29.3857 5.62808Z" fill="#000706"/>
<path d="M43.4307 4.0329C43.9241 3.88223 44.4345 3.77583 44.9533 3.78148C45.4628 3.78901 46.0014 3.77206 46.4685 4.00842C46.4901 4.00653 46.5325 4.00465 46.5542 4.00371C46.8056 4.13648 47.0542 4.27773 47.2811 4.45194C47.3442 4.51786 47.4073 4.58566 47.4704 4.65346C47.5429 4.73915 47.6154 4.8239 47.6936 4.90583C47.8028 5.08474 47.897 5.27308 47.9864 5.46329C48.1625 5.91435 48.2652 6.39366 48.2689 6.87862C48.2859 8.03028 48.2614 9.18194 48.2831 10.3336C48.3198 10.8741 48.3311 11.4222 48.4723 11.9495C47.7887 11.9712 47.1013 11.989 46.4186 11.9382C46.4204 11.7932 46.4204 11.6491 46.4195 11.5041C46.2877 11.5389 46.1737 11.6105 46.0749 11.7009C45.3903 12.0766 44.5833 12.1981 43.8149 12.0757C43.1039 11.9316 42.4447 11.4853 42.102 10.8374C41.9579 10.5728 41.8703 10.2846 41.8185 9.98895C41.7856 9.41735 41.8091 8.78455 42.1669 8.30807C42.1716 8.27417 42.182 8.20731 42.1877 8.17341C42.3958 7.91634 42.6227 7.67339 42.8798 7.46245C43.0747 7.29484 43.3092 7.18749 43.5427 7.08202C43.6962 7.00763 43.8535 6.94077 44.0192 6.89651C44.1435 6.85319 44.2687 6.81082 44.393 6.76468C44.9835 6.65262 45.5786 6.56693 46.1813 6.57069C46.1417 6.35411 46.0796 6.14223 45.9901 5.94166C45.8215 5.74014 45.5824 5.62903 45.3441 5.5358C44.522 5.48213 43.6378 5.6262 42.9937 6.17519H42.9203C42.9146 6.2138 42.9043 6.29196 42.8986 6.33151C42.6962 6.14223 42.6557 5.85785 42.5643 5.61019C42.4636 5.27025 42.312 4.94632 42.247 4.59696C42.5097 4.45382 42.7668 4.29845 43.0436 4.1798C43.1708 4.12801 43.3007 4.08187 43.4307 4.0329ZM44.5898 8.52465C44.4138 8.63294 44.2424 8.74877 44.0804 8.87684C44.0672 8.91733 44.0418 8.99737 44.0286 9.03786C43.8149 9.40982 43.909 9.89949 44.1746 10.2215C44.5993 10.4485 45.1144 10.3948 45.5287 10.1697C45.6332 10.1104 45.7255 10.036 45.7914 9.93339C45.8168 9.93056 45.8686 9.92397 45.8941 9.9202C46.0136 9.7394 46.1229 9.55107 46.2076 9.35144C46.2039 8.98513 46.2105 8.61882 46.2086 8.25157C45.6605 8.28453 45.1078 8.32973 44.5898 8.52465Z" fill="#000706"/>
<path d="M54.0809 3.92555C54.8314 3.90577 55.5819 3.93214 56.3334 3.91048C56.3032 4.02254 56.2759 4.1346 56.242 4.24477C56.1846 4.3719 56.1337 4.50279 56.0867 4.63462C55.8804 5.16008 55.6883 5.69118 55.4774 6.21474C55.3324 6.6206 55.1798 7.02363 55.0103 7.42008C54.9877 7.53402 54.9444 7.63948 54.8813 7.73648L54.8785 7.80239C54.7551 8.08584 54.6619 8.38152 54.5386 8.66496C54.3502 9.16593 54.1619 9.66784 53.9623 10.1641C53.9058 10.3223 53.8417 10.4786 53.7739 10.6321C53.6572 10.9636 53.5018 11.2781 53.3681 11.602C53.2937 11.7527 53.223 11.9043 53.1562 12.0578C52.9076 12.5522 52.6486 13.0409 52.3228 13.4891C51.9791 13.9609 51.561 14.3762 51.0742 14.701C50.8585 14.8253 50.6429 14.9496 50.4131 15.0457C50.2907 15.0975 50.1683 15.1474 50.0477 15.2011C49.8246 15.2387 49.6023 15.2839 49.3773 15.3084C49.2238 14.7105 49.042 14.1172 48.8499 13.5296C49.1532 13.4232 49.462 13.3309 49.7483 13.1821C49.9395 13.0644 50.1203 12.9326 50.2935 12.7895C50.7286 12.4429 51.0224 11.9589 51.2747 11.4711C51.3585 11.311 51.2361 11.151 51.1872 11.0012C51.1523 10.9118 51.1194 10.8223 51.0883 10.7329C50.9941 10.5144 50.9009 10.2959 50.8171 10.0737C50.6966 9.75541 50.5675 9.4409 50.4385 9.12544C50.3726 8.97289 50.3133 8.81657 50.2606 8.65931C50.2078 8.53878 50.156 8.41824 50.0986 8.29959C50.0459 8.16964 49.996 8.03875 49.9536 7.90598C49.8575 7.68374 49.769 7.45869 49.6814 7.23363C49.543 6.90028 49.4234 6.55939 49.269 6.23263C49.1711 5.93601 49.042 5.65163 48.9319 5.36065C48.865 5.20716 48.8019 5.05178 48.7407 4.89641C48.672 4.74009 48.6089 4.58001 48.5486 4.41992C48.477 4.25513 48.414 4.08657 48.3574 3.91707C49.1202 3.91896 49.883 3.92178 50.6457 3.91048C50.7568 4.17697 50.8604 4.44723 50.9499 4.72314C51.0252 4.90677 51.0892 5.09416 51.1495 5.28343C51.1862 5.37478 51.2239 5.46706 51.2616 5.55934C51.3246 5.7166 51.3802 5.87763 51.4301 6.03959C51.4772 6.15918 51.5233 6.27972 51.5742 6.39837C51.6655 6.65073 51.7559 6.90404 51.852 7.15547C52.0205 7.63289 52.1976 8.10844 52.368 8.58586C52.3981 8.6433 52.4594 8.75724 52.4904 8.81469C52.5121 8.67438 52.5375 8.53407 52.5695 8.3947C52.7598 7.92952 52.885 7.43985 53.0714 6.97278C53.2767 6.34093 53.4867 5.70907 53.7165 5.08474C53.7485 4.96233 53.7815 4.83897 53.8267 4.72032C53.9208 4.45948 54.0122 4.19581 54.0809 3.92555Z" fill="#000706"/>
</svg>
