<svg width="57" height="12" viewBox="0 0 57 12" fill="none" xmlns="http://www.w3.org/2000/svg">
<path d="M12.1838 7.41346C11.4029 10.5456 8.23053 12.4518 5.098 11.6707C1.96674 10.8898 0.060545 7.7173 0.841806 4.58532C1.62234 1.45279 4.7947 -0.45359 7.92632 0.327304C11.0587 1.1082 12.9647 4.28111 12.1838 7.41346Z" fill="#F7931A"/>
<path d="M9.08963 5.16615C9.20601 4.38817 8.61367 3.96996 7.80372 3.69096L8.06646 2.6371L7.42497 2.47723L7.16918 3.50332C7.00054 3.4613 6.82733 3.42165 6.65522 3.38237L6.91284 2.34952L6.27172 2.18965L6.0088 3.24314C5.86921 3.21135 5.73218 3.17993 5.59917 3.14686L5.5999 3.14357L4.71522 2.92267L4.54457 3.60783C4.54457 3.60783 5.02053 3.7169 5.01048 3.72366C5.27029 3.78853 5.31725 3.96045 5.30939 4.09675L5.01011 5.29733C5.02802 5.3019 5.05122 5.30848 5.0768 5.31871C5.05543 5.31341 5.03259 5.30756 5.00902 5.3019L4.58952 6.98373C4.55773 7.06266 4.47716 7.18105 4.29554 7.1361C4.30194 7.14542 3.82927 7.01972 3.82927 7.01972L3.51081 7.75402L4.34561 7.96213C4.50091 8.00104 4.6531 8.04179 4.80292 8.08016L4.53745 9.14608L5.17821 9.30595L5.44112 8.25135C5.61616 8.29886 5.78608 8.34271 5.95234 8.384L5.69034 9.43366L6.33183 9.59353L6.5973 8.52962C7.69118 8.73663 8.51373 8.65313 8.85996 7.66376C9.13896 6.86716 8.84608 6.40765 8.27055 6.10801C8.68968 6.01135 9.0054 5.73565 9.08963 5.16615ZM7.62394 7.22143C7.4257 8.01804 6.08444 7.58739 5.64959 7.47941L6.00185 6.06726C6.4367 6.17579 7.83113 6.39066 7.62394 7.22143ZM7.82236 5.15463C7.64148 5.87925 6.52513 5.5111 6.163 5.42084L6.48238 4.14006C6.84451 4.23031 8.01073 4.39877 7.82236 5.15463Z" fill="white"/>
<path d="M17.7995 3.69059C18.2736 3.69059 18.6833 3.77555 19.0275 3.94237C19.3734 4.11082 19.6588 4.33775 19.8877 4.62314C20.1135 4.90999 20.2816 5.24526 20.3901 5.62949C20.4979 6.01482 20.552 6.42902 20.552 6.87246C20.552 7.55359 20.4272 8.19709 20.1753 8.80368C19.9233 9.41119 19.5815 9.93812 19.1466 10.3876C18.7121 10.8365 18.1991 11.1904 17.6075 11.4519C17.0168 11.7135 16.3746 11.8443 15.685 11.8443C15.5959 11.8443 15.4391 11.8418 15.2177 11.8372C14.9962 11.8326 14.7417 11.8098 14.4567 11.7712C14.1698 11.7312 13.8665 11.672 13.5462 11.5927C13.2261 11.5149 12.9221 11.4058 12.6358 11.2673L15.1959 0.510195L17.4889 0.154828L16.5723 3.97215C16.7685 3.88372 16.9662 3.8152 17.1635 3.76532C17.361 3.71617 17.573 3.69059 17.7995 3.69059ZM15.8761 10.0253C16.2215 10.0253 16.5469 9.94031 16.8525 9.7735C17.1591 9.6065 17.4237 9.38104 17.6453 9.10022C17.8669 8.81812 18.0423 8.50039 18.1702 8.14538C18.2981 7.79038 18.3628 7.42003 18.3628 7.0347C18.3628 6.56131 18.2837 6.19205 18.126 5.92512C17.9683 5.65928 17.6765 5.52553 17.2528 5.52553C17.114 5.52553 16.9351 5.55202 16.7133 5.59935C16.4908 5.64959 16.2916 5.75392 16.1131 5.91086L15.1371 9.96479C15.1959 9.97521 15.248 9.98507 15.2924 9.99439C15.3359 10.0044 15.3839 10.0116 15.4318 10.0165C15.4824 10.0222 15.5403 10.0251 15.6103 10.0251C15.6803 10.0251 15.7678 10.0253 15.8761 10.0253Z" fill="#4D4D4D"/>
<path d="M22.9305 11.6375H20.7404L22.5899 3.85467H24.795L22.9305 11.6375ZM23.9963 2.90641C23.6906 2.90641 23.4134 2.81542 23.1675 2.63308C22.9195 2.45183 22.7968 2.17284 22.7968 1.79683C22.7968 1.59 22.8388 1.39596 22.9221 1.21289C23.0067 1.03018 23.1172 0.87287 23.2557 0.739128C23.394 0.606482 23.5543 0.500511 23.7363 0.420668C23.9193 0.342103 24.1141 0.302821 24.3217 0.302821C24.6271 0.302821 24.9028 0.39381 25.1497 0.576153C25.3956 0.759409 25.5193 1.0384 25.5193 1.41241C25.5193 1.61996 25.4775 1.81473 25.3934 1.99744C25.3099 2.18015 25.1994 2.33746 25.0609 2.4712C24.9237 2.60403 24.762 2.70963 24.5804 2.78875C24.3971 2.86859 24.2031 2.90641 23.9963 2.90641Z" fill="#4D4D4D"/>
<path d="M26.714 1.91595L29.0079 1.56058L28.4447 3.85467H30.9014L30.4577 5.65946H28.0158L27.3654 8.38181C27.3055 8.60873 27.2715 8.82067 27.262 9.01763C27.2512 9.2155 27.2762 9.38542 27.3354 9.52849C27.3943 9.67191 27.5 9.78245 27.6535 9.86065C27.8063 9.94013 28.025 9.98014 28.3118 9.98014C28.5481 9.98014 28.7783 9.95767 29.0008 9.91308C29.2221 9.86924 29.4463 9.80821 29.6732 9.72837L29.8365 11.4159C29.5405 11.5244 29.2201 11.6178 28.8747 11.6963C28.5289 11.776 28.1194 11.8143 27.6462 11.8143C26.9658 11.8143 26.4383 11.7133 26.0625 11.5121C25.6872 11.3095 25.4219 11.0327 25.2632 10.6823C25.1066 10.3331 25.0366 9.93062 25.0561 9.47714C25.0764 9.02256 25.1449 8.54478 25.2632 8.04161L26.714 1.91595Z" fill="#4D4D4D"/>
<path d="M30.8047 8.53053C30.8047 7.86018 30.9132 7.22801 31.1301 6.63621C31.3466 6.04387 31.6585 5.5259 32.0632 5.08137C32.4664 4.63903 32.9577 4.2886 33.536 4.03134C34.1115 3.77555 34.7559 3.64656 35.4661 3.64656C35.9107 3.64656 36.3077 3.68858 36.657 3.77281C37.0078 3.85777 37.3252 3.96758 37.6122 4.10534L36.8569 5.8228C36.6596 5.74277 36.4548 5.67225 36.243 5.6083C36.0311 5.54307 35.7723 5.51165 35.4663 5.51165C34.7353 5.51165 34.1574 5.7636 33.7273 6.26587C33.2988 6.7685 33.0831 7.44506 33.0831 8.29374C33.0831 8.79674 33.1916 9.20345 33.4094 9.5146C33.6261 9.82575 34.0264 9.9805 34.6076 9.9805C34.8944 9.9805 35.1712 9.95054 35.4363 9.89207C35.7035 9.83288 35.9393 9.75833 36.1471 9.67027L36.3106 11.4308C36.0336 11.5383 35.7281 11.6353 35.393 11.7203C35.0572 11.8023 34.6575 11.8449 34.1939 11.8449C33.582 11.8449 33.0641 11.7553 32.6404 11.579C32.2165 11.4 31.8662 11.1623 31.5903 10.8612C31.313 10.5593 31.1138 10.2069 30.9907 9.80236C30.8675 9.39821 30.8047 8.9736 30.8047 8.53053Z" fill="#4D4D4D"/>
<path d="M40.5335 11.8445C40.0108 11.8445 39.5568 11.7648 39.1716 11.6072C38.7876 11.4495 38.4695 11.2282 38.2179 10.9414C37.9659 10.656 37.7774 10.3178 37.6482 9.92807C37.519 9.53853 37.4569 9.10716 37.4569 8.63449C37.4569 8.0416 37.5521 7.4489 37.7445 6.85784C37.936 6.2655 38.2201 5.73327 38.5961 5.26024C38.9692 4.78648 39.4294 4.39914 39.9714 4.09712C40.5127 3.79711 41.1354 3.6462 41.8348 3.6462C42.348 3.6462 42.7997 3.72604 43.1901 3.88372C43.5787 4.04103 43.8988 4.26412 44.1519 4.54951C44.4022 4.83636 44.5924 5.17309 44.7203 5.56335C44.8491 5.95216 44.9127 6.38463 44.9127 6.85766C44.9127 7.44872 44.8188 8.04142 44.6324 8.63431C44.4459 9.22427 44.1691 9.75778 43.8037 10.2319C43.439 10.7049 42.9829 11.0921 42.4352 11.3928C41.8881 11.6936 41.2538 11.8445 40.5335 11.8445ZM41.6282 5.51146C41.3035 5.51146 41.0164 5.60574 40.7707 5.79192C40.524 5.98029 40.3169 6.21708 40.1499 6.50266C39.981 6.78951 39.8559 7.1023 39.7713 7.44232C39.6874 7.78307 39.6463 8.10519 39.6463 8.41122C39.6463 8.90508 39.726 9.28969 39.8826 9.56649C40.0413 9.84183 40.3265 9.98032 40.7411 9.98032C41.0669 9.98032 41.3524 9.88678 41.5996 9.69859C41.8448 9.51167 42.0522 9.2747 42.2205 8.98858C42.3882 8.70319 42.5145 8.38948 42.5991 8.04891C42.6818 7.70926 42.724 7.38532 42.724 7.07983C42.724 6.58725 42.6447 6.20174 42.4867 5.9253C42.3288 5.64996 42.0424 5.51146 41.6282 5.51146Z" fill="#4D4D4D"/>
<path d="M47.3 11.6375H45.108L46.9576 3.85467H49.1638L47.3 11.6375ZM48.3641 2.90641C48.0586 2.90641 47.7816 2.81542 47.536 2.63308C47.2894 2.45183 47.1655 2.17284 47.1655 1.79683C47.1655 1.59 47.2081 1.39596 47.2916 1.21289C47.3751 1.03018 47.4863 0.87287 47.6248 0.739128C47.7624 0.606482 47.9241 0.500511 48.1057 0.420668C48.2877 0.342103 48.4825 0.302821 48.6893 0.302821C48.9955 0.302821 49.2721 0.39381 49.5184 0.576153C49.7649 0.759409 49.8893 1.0384 49.8893 1.41241C49.8893 1.61996 49.8451 1.81473 49.7623 1.99744C49.6796 2.18015 49.5683 2.33746 49.4304 2.4712C49.2915 2.60403 49.1318 2.70963 48.9498 2.78875C48.7664 2.86859 48.572 2.90641 48.3641 2.90641Z" fill="#4D4D4D"/>
<path d="M50.7413 4.2093C50.9075 4.1607 51.0932 4.10224 51.2951 4.03865C51.4977 3.97507 51.7241 3.91587 51.9769 3.86252C52.2271 3.80753 52.5093 3.76295 52.8198 3.72842C53.1302 3.69315 53.4839 3.67598 53.8769 3.67598C55.032 3.67598 55.8283 4.01234 56.2678 4.68306C56.7071 5.35379 56.7831 6.27171 56.4981 7.4352L55.4906 11.6375H53.286L54.2624 7.52363C54.322 7.26674 54.3688 7.01844 54.4033 6.7758C54.4382 6.53536 54.4362 6.32342 54.3954 6.13998C54.3565 5.95873 54.2648 5.81037 54.1225 5.69545C53.978 5.58235 53.7596 5.52553 53.4635 5.52553C53.1779 5.52553 52.8874 5.55623 52.5908 5.61542L51.1553 11.6373H48.9498L50.7413 4.2093Z" fill="#4D4D4D"/>
</svg>
