<svg width="57" height="16" viewBox="0 0 57 16" fill="none" xmlns="http://www.w3.org/2000/svg">
<path d="M26.3269 8.82284V11.0178C26.3256 11.0628 26.3072 11.1056 26.2753 11.1374C26.2435 11.1692 26.2007 11.1877 26.1557 11.189C26.133 11.1896 26.1105 11.1857 26.0894 11.1773C26.0683 11.1689 26.0492 11.1563 26.0332 11.1403C26.0171 11.1242 26.0046 11.1051 25.9962 11.084C25.9878 11.063 25.9838 11.0404 25.9845 11.0178V8.82284C25.9845 8.08082 25.5642 7.34399 24.7391 7.34399C23.6806 7.34399 23.2239 8.26762 23.2862 9.2172C23.2862 9.23178 23.2895 9.2726 23.2924 9.30832C23.2946 9.33602 23.2966 9.36089 23.2966 9.36768V11.0126C23.2965 11.0564 23.2808 11.0988 23.2522 11.1321C23.2237 11.1654 23.1842 11.1874 23.1409 11.1942C23.1167 11.1974 23.0921 11.1954 23.0687 11.1882C23.0454 11.181 23.0239 11.1689 23.0056 11.1526C22.9874 11.1364 22.9729 11.1164 22.9631 11.094C22.9533 11.0716 22.9485 11.0474 22.9489 11.0229V3.80513C22.9493 3.75984 22.9675 3.71652 22.9995 3.6845C23.0316 3.65247 23.0749 3.6343 23.1202 3.63389C23.1652 3.6352 23.208 3.65366 23.2398 3.68549C23.2716 3.71733 23.2901 3.76013 23.2914 3.80513V7.88364C23.5872 7.35437 24.1164 6.99633 24.7339 6.99633C25.751 6.99633 26.3269 7.88364 26.3269 8.82284Z" fill="#393939"/>
<path d="M20.8165 7.12059C20.7847 7.08875 20.7419 7.0703 20.6969 7.06899H19.7785V5.73543C19.7789 5.71101 19.7741 5.68678 19.7643 5.6644C19.7545 5.64203 19.74 5.62203 19.7217 5.60577C19.7035 5.58951 19.682 5.57738 19.6586 5.5702C19.6353 5.56303 19.6107 5.56098 19.5865 5.5642C19.5431 5.57099 19.5037 5.59301 19.4751 5.6263C19.4466 5.65959 19.4309 5.70196 19.4308 5.74581V7.06899H18.5435C18.4982 7.0694 18.4549 7.08757 18.4229 7.11959C18.3908 7.15162 18.3727 7.19494 18.3723 7.24023C18.3716 7.26289 18.3756 7.28544 18.384 7.30651C18.3923 7.32758 18.4049 7.34671 18.421 7.36274C18.437 7.37877 18.4561 7.39136 18.4772 7.39974C18.4983 7.40812 18.5208 7.41211 18.5435 7.41146H19.4308V11.0385C19.4321 11.0835 19.4506 11.1263 19.4824 11.1582C19.5142 11.19 19.557 11.2085 19.602 11.2098C19.6473 11.2094 19.6906 11.1912 19.7227 11.1592C19.7547 11.1271 19.7729 11.0838 19.7733 11.0385V7.41146H20.6969C20.7196 7.41211 20.7421 7.40812 20.7632 7.39974C20.7843 7.39136 20.8034 7.37877 20.8194 7.36274C20.8354 7.34671 20.848 7.32758 20.8564 7.30651C20.8648 7.28544 20.8688 7.26289 20.8681 7.24023C20.8668 7.19522 20.8484 7.15242 20.8165 7.12059Z" fill="#393939"/>
<path fill-rule="evenodd" clip-rule="evenodd" d="M16.4587 9.24797C16.4937 9.21394 16.5138 9.16744 16.5146 9.11862C16.5094 8.01338 15.6792 6.98597 14.5169 6.98597C13.3545 6.98597 12.5295 8.02376 12.5295 9.129C12.5295 10.2342 13.3597 11.272 14.5169 11.272C15.1914 11.272 15.8815 10.9763 16.2292 10.3743C16.2463 10.3481 16.2553 10.3174 16.2551 10.2861C16.2558 10.2635 16.2518 10.2409 16.2434 10.2199C16.2351 10.1988 16.2225 10.1797 16.2064 10.1636C16.1904 10.1476 16.1713 10.135 16.1502 10.1266C16.1291 10.1182 16.1066 10.1143 16.0839 10.1149C16.0535 10.1162 16.0239 10.1249 15.9977 10.1402C15.9714 10.1556 15.9494 10.1772 15.9334 10.2031C15.591 10.6961 15.1343 10.9296 14.5169 10.9296C13.614 10.9296 12.9757 10.1512 12.8875 9.30024H16.3278C16.3766 9.30079 16.4237 9.282 16.4587 9.24797ZM14.5169 7.32844C15.4197 7.32844 16.0735 8.10678 16.1462 8.95777H12.8875C12.9757 8.10678 13.614 7.32844 14.5169 7.32844Z" fill="#393939"/>
<path fill-rule="evenodd" clip-rule="evenodd" d="M32.451 9.24797C32.486 9.21394 32.5061 9.16744 32.5069 9.11862C32.5017 8.01338 31.6611 6.98597 30.5092 6.98597C29.3469 6.98597 28.5218 8.02376 28.5218 9.129C28.5218 10.2342 29.3521 11.272 30.5092 11.272C31.1838 11.272 31.8739 10.9763 32.2215 10.3743C32.2386 10.3481 32.2476 10.3174 32.2475 10.2861C32.2481 10.2635 32.2441 10.2409 32.2358 10.2199C32.2274 10.1988 32.2148 10.1797 32.1988 10.1636C32.1827 10.1476 32.1636 10.135 32.1425 10.1266C32.1215 10.1182 32.0989 10.1143 32.0763 10.1149C32.0459 10.1162 32.0162 10.1249 31.99 10.1402C31.9638 10.1556 31.9417 10.1772 31.9258 10.2031C31.5833 10.6961 31.1267 10.9296 30.5092 10.9296C29.6063 10.9296 28.9681 10.1512 28.8799 9.30024H32.3201C32.3689 9.30079 32.416 9.282 32.451 9.24797ZM30.504 7.32844C31.4069 7.32844 32.0607 8.10678 32.1333 8.95777H28.8747C28.9629 8.10678 29.6011 7.32844 30.504 7.32844Z" fill="#393939"/>
<path d="M36.7359 7.22983C36.7392 7.2759 36.7242 7.3214 36.694 7.3564C36.6639 7.3914 36.6211 7.41305 36.5751 7.41664C35.5632 7.56712 35.1066 8.39216 35.1066 9.35211V10.997C35.1065 11.0409 35.0908 11.0832 35.0623 11.1165C35.0337 11.1498 34.9943 11.1718 34.9509 11.1786C34.9267 11.1818 34.9021 11.1798 34.8788 11.1726C34.8554 11.1654 34.8339 11.1533 34.8157 11.137C34.7974 11.1208 34.7829 11.1008 34.7731 11.0784C34.7634 11.056 34.7585 11.0318 34.7589 11.0074V7.25578C34.759 7.21193 34.7748 7.16956 34.8033 7.13627C34.8318 7.10298 34.8713 7.08096 34.9146 7.07417C34.9388 7.07095 34.9635 7.073 34.9868 7.08017C35.0101 7.08735 35.0317 7.09948 35.0499 7.11574C35.0681 7.13199 35.0826 7.152 35.0924 7.17437C35.1022 7.19675 35.107 7.22098 35.1066 7.2454V8.00818C35.392 7.5256 35.9576 7.06898 36.5491 7.06898C36.6373 7.06898 36.7359 7.13124 36.7359 7.22983Z" fill="#393939"/>
<path fill-rule="evenodd" clip-rule="evenodd" d="M42.3359 9.24797C42.3709 9.21394 42.3911 9.16744 42.3919 9.11862C42.3867 8.01338 41.5565 6.98597 40.3941 6.98597C39.2318 6.98597 38.4068 8.02376 38.4068 9.129C38.4068 10.2342 39.237 11.272 40.3941 11.272C41.0687 11.272 41.7588 10.9763 42.1065 10.3743C42.1235 10.3481 42.1325 10.3174 42.1324 10.2861C42.1331 10.2635 42.1291 10.2409 42.1207 10.2199C42.1123 10.1988 42.0997 10.1797 42.0837 10.1636C42.0677 10.1476 42.0485 10.135 42.0275 10.1266C42.0064 10.1182 41.9839 10.1143 41.9612 10.1149C41.9308 10.1162 41.9012 10.1249 41.875 10.1402C41.8487 10.1556 41.8267 10.1772 41.8107 10.2031C41.4682 10.6961 41.0116 10.9296 40.3941 10.9296C39.4913 10.9296 38.853 10.1512 38.7648 9.30024H42.2051C42.2539 9.30079 42.3009 9.282 42.3359 9.24797ZM40.3941 7.32844C41.297 7.32844 41.9508 8.10678 42.0235 8.95777H38.7648C38.853 8.10678 39.4913 7.32844 40.3941 7.32844Z" fill="#393939"/>
<path d="M47.9544 7.27134V11.0385C47.9531 11.0835 47.9347 11.1263 47.9028 11.1582C47.871 11.19 47.8282 11.2084 47.7832 11.2098C47.7605 11.2104 47.738 11.2064 47.7169 11.198C47.6959 11.1897 47.6767 11.1771 47.6607 11.161C47.6447 11.145 47.6321 11.1259 47.6237 11.1048C47.6153 11.0837 47.6113 11.0612 47.612 11.0385V10.3224C47.3266 10.888 46.8233 11.298 46.1798 11.298C45.1576 11.298 44.592 10.4107 44.592 9.47145V7.26615C44.5924 7.22086 44.6106 7.17755 44.6426 7.14552C44.6746 7.1135 44.718 7.09532 44.7632 7.09492C44.8082 7.09622 44.851 7.11468 44.8829 7.14652C44.9147 7.17835 44.9332 7.22115 44.9345 7.26615V9.47145C44.9345 10.2135 45.3548 10.9503 46.1798 10.9503C47.337 10.9503 47.612 9.86581 47.612 8.66717V7.26096C47.6124 7.2332 47.6194 7.20594 47.6325 7.18145C47.6455 7.15696 47.6643 7.13597 47.6872 7.12022C47.71 7.10447 47.7363 7.09442 47.7639 7.09092C47.7914 7.08742 47.8194 7.09057 47.8455 7.10011C47.8781 7.11527 47.9057 7.13945 47.925 7.16979C47.9443 7.20014 47.9545 7.23537 47.9544 7.27134Z" fill="#393939"/>
<path d="M56.6667 11.0126V8.80727C56.6667 7.87326 56.0907 6.99633 55.0789 6.99633C54.368 6.99633 53.8128 7.44776 53.5274 8.09119C53.3043 7.44257 52.7594 6.99633 52.0589 6.99633C51.4414 6.99633 50.9121 7.34398 50.6164 7.87326V7.24539C50.6168 7.22097 50.612 7.19675 50.6022 7.17437C50.5924 7.15199 50.5779 7.13199 50.5597 7.11573C50.5414 7.09947 50.5199 7.08734 50.4966 7.08017C50.4732 7.07299 50.4486 7.07094 50.4244 7.07416C50.3811 7.08095 50.3416 7.10297 50.3131 7.13626C50.2845 7.16955 50.2688 7.21193 50.2687 7.25577V11.0178C50.2683 11.0422 50.2731 11.0664 50.2829 11.0888C50.2927 11.1112 50.3072 11.1312 50.3254 11.1474C50.3437 11.1637 50.3652 11.1758 50.3885 11.183C50.4119 11.1902 50.4365 11.1922 50.4607 11.189C50.504 11.1822 50.5435 11.1602 50.572 11.1269C50.6006 11.0936 50.6163 11.0512 50.6164 11.0074V9.35211C50.6234 9.34152 50.6209 9.31652 50.6185 9.29345C50.6174 9.28261 50.6164 9.27219 50.6164 9.26389C50.5801 8.16384 51.0107 7.3388 52.0589 7.3388C52.8839 7.3388 53.3043 8.06525 53.3043 8.80727V11.0126C53.3036 11.0352 53.3076 11.0578 53.316 11.0789C53.3244 11.0999 53.3369 11.1191 53.353 11.1351C53.369 11.1511 53.3881 11.1637 53.4092 11.1721C53.4303 11.1805 53.4528 11.1844 53.4755 11.1838C53.5205 11.1825 53.5633 11.164 53.5951 11.1322C53.627 11.1004 53.6454 11.0576 53.6467 11.0126V9.31059C53.6467 8.44923 54.0411 7.3388 55.0789 7.3388C55.9039 7.3388 56.3242 8.06525 56.3242 8.80727V11.0126C56.3236 11.0352 56.3276 11.0578 56.3359 11.0789C56.3443 11.0999 56.3569 11.1191 56.3729 11.1351C56.389 11.1511 56.4081 11.1637 56.4292 11.1721C56.4502 11.1805 56.4728 11.1844 56.4954 11.1838C56.5404 11.1825 56.5833 11.164 56.6151 11.1322C56.6469 11.1004 56.6654 11.0576 56.6667 11.0126Z" fill="#393939"/>
<path d="M4.99488 10.6724C4.95292 10.6866 4.929 10.6501 4.90046 10.6333C3.50165 9.80775 2.10438 8.98162 0.708651 8.15492C0.695136 8.14809 0.681105 8.14234 0.666687 8.13772V8.11925L0.691447 8.10498C0.726602 8.09575 0.761209 8.08455 0.7951 8.07141L4.09139 6.57161C4.38514 6.43775 4.67889 6.30598 4.97264 6.17337H4.99362C4.99362 6.21534 4.99362 6.25269 4.99362 6.29255C4.99474 7.75263 4.99516 9.21256 4.99488 10.6724Z" fill="#343535"/>
<path d="M4.99696 6.17439H4.97598C4.97598 6.13243 4.98018 6.09046 4.98018 6.0464C4.98018 4.40644 4.98018 2.76634 4.98018 1.1261C4.97536 1.08397 4.9782 1.04132 4.98857 1.00021H4.99738C5.16986 1.25493 5.32009 1.5235 5.47871 1.78662C6.7354 3.87112 7.9914 5.95534 9.24669 8.03928C9.25886 8.05984 9.26851 8.08124 9.27942 8.1039C9.24387 8.09631 9.20894 8.08607 9.17492 8.07327C8.94454 7.9692 8.71332 7.86345 8.48503 7.75728C8.1275 7.59362 7.76982 7.43024 7.41201 7.26714L5.68812 6.48619C5.45857 6.38044 5.22777 6.27762 4.99696 6.17439Z" fill="#2F3030"/>
<path d="M4.98995 0.998038C4.97958 1.03915 4.97674 1.0818 4.98156 1.12393C4.98156 2.76389 4.98156 4.40399 4.98156 6.04423C4.98156 6.08619 4.97904 6.12816 4.97737 6.17222C4.68362 6.30483 4.38987 6.4366 4.09612 6.57046L0.799824 8.07026C0.765933 8.0834 0.731326 8.0946 0.696171 8.10383C0.79143 7.90576 0.915226 7.72616 1.02811 7.53648C2.336 5.36245 3.64486 3.18885 4.9547 1.01566C4.96336 1.00362 4.97275 0.992132 4.98282 0.981253L4.98995 0.998038Z" fill="#828384"/>
<path d="M4.99696 6.17439C5.22777 6.27762 5.45864 6.38047 5.68903 6.48454L7.41292 7.2655C7.77101 7.42832 8.12869 7.5917 8.48594 7.75564C8.71591 7.86097 8.94755 7.96756 9.17584 8.07163C9.20985 8.08443 9.24478 8.09467 9.28033 8.10226C9.32229 8.15472 9.26019 8.15682 9.2413 8.16815C8.88335 8.38216 8.52371 8.59324 8.16492 8.80558C7.13512 9.4149 6.10559 10.0241 5.07635 10.6331C5.05033 10.6482 5.02216 10.6593 4.99488 10.6724C4.99488 9.21284 4.99494 7.7534 4.99494 6.29361C4.99536 6.25374 4.99654 6.21426 4.99696 6.17439Z" fill="#131313"/>
<path d="M4.98014 11.5014L7.67634 9.91225C8.1911 9.60843 8.70558 9.30433 9.21979 8.99994L9.26637 8.97435C9.27098 9.01631 9.24203 9.03855 9.2244 9.06289C8.0494 10.7194 6.8744 12.3753 5.6994 14.0306C5.47699 14.3445 5.255 14.6601 5.03049 14.9714C5.01874 14.9878 5.0007 15.0646 4.96461 14.9832C4.99314 14.9589 4.98056 14.9261 4.98056 14.8993C4.98084 13.7662 4.9807 12.6336 4.98014 11.5014Z" fill="#2F3030"/>
<path d="M4.9799 11.5016C4.9799 12.6338 4.9799 13.7657 4.9799 14.8974C4.9799 14.9263 4.99249 14.9591 4.96396 14.9813C4.90395 14.9452 4.87793 14.8806 4.83806 14.8273C3.47563 12.9081 2.11389 10.9887 0.752846 9.06898C0.73564 9.04464 0.719693 9.01862 0.702068 8.99176C0.737318 8.9712 0.756203 8.99932 0.776766 9.01149C2.15459 9.82503 3.53214 10.6393 4.9094 11.4542C4.935 11.4702 4.95682 11.4865 4.9799 11.5016Z" fill="#828384"/>
<path d="M4.99026 0.998015L4.98019 0.982488C4.99866 0.970738 4.99614 0.987944 4.99908 0.996756L4.99026 0.998015Z" fill="#393939"/>
</svg>
