<svg width="57" height="10" viewBox="0 0 57 10" fill="none" xmlns="http://www.w3.org/2000/svg">
<path d="M7.78528 0.947907C7.5322 1.20099 7.30033 1.4753 7.09422 1.76778L7.02906 1.74657C6.65322 1.62381 6.26374 1.54804 5.87123 1.52228C5.75302 1.51318 5.31201 1.51318 5.16804 1.52228C4.7331 1.55107 4.39969 1.61624 4.02082 1.74808C4.00566 1.75414 3.99202 1.75869 3.97839 1.76324C3.7647 1.47226 3.52677 1.19948 3.26459 0.949423C4.52244 0.305342 5.99398 0.228052 7.31094 0.735739C7.45188 0.788781 7.58979 0.850916 7.72466 0.917597L7.78528 0.947907Z" fill="#F00500"/>
<path d="M10.1314 6.69614C9.9404 7.2402 9.65397 7.74485 9.28268 8.18435C9.08112 8.42076 8.85834 8.63748 8.6189 8.83449C8.05817 9.2861 7.40348 9.6089 6.70484 9.77864C5.93194 9.96504 5.1257 9.96504 4.3528 9.77864C3.65265 9.6089 2.99948 9.2861 2.43875 8.83449C2.1993 8.63748 1.97652 8.42076 1.77496 8.18435C0.706547 6.92195 0.382233 5.18823 0.926293 3.62577C1.02935 3.33631 1.15816 3.05746 1.31274 2.79225C1.38397 2.67101 1.47187 2.53462 1.5143 2.47855C1.65979 3.10444 1.83861 3.65456 1.9053 3.85309C1.90075 3.8637 1.89469 3.87582 1.88863 3.88643C1.53552 4.60174 1.34457 5.29129 1.2991 6.02478C1.2991 6.03387 1.29759 6.04448 1.29759 6.05357C1.28546 6.27332 1.29152 6.37789 1.3279 6.5158C1.44156 6.94771 1.79164 7.42357 2.34024 7.89034C3.23892 8.65415 4.45737 9.20578 5.3803 9.26943C6.34264 9.3346 7.76265 8.77236 8.70831 7.95096C8.85683 7.81911 8.99625 7.67969 9.12658 7.53117C9.22054 7.42206 9.35997 7.23414 9.34936 7.23414C9.34633 7.23414 9.34936 7.23111 9.35542 7.22808C9.35997 7.22504 9.36451 7.2205 9.36148 7.21747C9.35997 7.21595 9.363 7.21141 9.36755 7.20989C9.37209 7.20837 9.37512 7.20534 9.37361 7.20231C9.37209 7.19928 9.37361 7.19625 9.37967 7.19473C9.38422 7.19322 9.38573 7.18867 9.38422 7.18564C9.3827 7.18261 9.38422 7.17958 9.38725 7.17958C9.39028 7.17958 9.39331 7.17503 9.39331 7.172C9.39331 7.16897 9.39634 7.16442 9.39937 7.16442C9.4024 7.16442 9.40543 7.16139 9.40543 7.15836C9.40998 7.14624 9.41756 7.13411 9.42514 7.12351C9.44787 7.08865 9.53879 6.92649 9.55092 6.89921C9.6373 6.70372 9.69186 6.52944 9.71762 6.35516C9.72975 6.2718 9.73732 6.11874 9.73126 6.08237C9.72975 6.07631 9.72975 6.0657 9.72823 6.04903C9.7252 6.01872 9.72369 5.97325 9.72065 5.92779C9.71762 5.85959 9.71156 5.76412 9.70702 5.71714C9.64185 5.02911 9.46605 4.46686 9.13265 3.87128C9.11901 3.84854 9.10688 3.82581 9.09931 3.80763C9.09627 3.80308 9.09476 3.79853 9.09324 3.7955C9.14022 3.65456 9.33269 3.06504 9.48575 2.39065L9.48878 2.39368L9.51152 2.42399C9.55092 2.47703 9.65549 2.63464 9.70247 2.71041C9.91615 3.05898 10.0829 3.4333 10.2011 3.8243C10.4754 4.76541 10.4526 5.76866 10.1314 6.69614Z" fill="#F00500"/>
<path d="M8.16426 4.88515C8.15971 4.9094 8.08849 4.98214 8.01726 5.03518C7.80812 5.18825 7.4338 5.3307 7.05341 5.3989C6.8367 5.4383 6.61998 5.44436 6.55481 5.41254C6.51238 5.39132 6.50632 5.37465 6.52148 5.32009C6.5533 5.20643 6.65635 5.08216 6.81699 4.96547C6.89883 4.90637 7.23072 4.70481 7.3853 4.61994C7.6399 4.48052 7.84601 4.39716 7.98543 4.37746C8.02938 4.3714 8.08242 4.36988 8.09909 4.37746C8.12637 4.38807 8.15668 4.46839 8.16881 4.56538C8.17487 4.61691 8.17184 4.84423 8.16426 4.88515Z" fill="#000008"/>
<path d="M4.5938 5.38676C4.58471 5.40494 4.53924 5.42465 4.48772 5.43222C4.43619 5.4398 4.27858 5.43525 4.18917 5.42465C3.86788 5.38221 3.5269 5.28371 3.27836 5.16247C3.13894 5.09427 3.03891 5.02607 2.96465 4.95181L2.92222 4.90787L2.91767 4.85028C2.9101 4.75026 2.91161 4.59265 2.92374 4.53657C2.93131 4.48959 2.94798 4.44413 2.97072 4.40321C2.98284 4.38805 2.98284 4.38805 3.0374 4.38805C3.10408 4.38805 3.16015 4.39866 3.25108 4.42746C3.43749 4.48505 3.71482 4.62447 4.05277 4.82754C4.33162 4.99425 4.43619 5.07609 4.51651 5.18823C4.57107 5.25794 4.60744 5.35645 4.5938 5.38676Z" fill="#000008"/>
<path d="M6.73957 7.49631C6.73957 7.50086 6.72139 7.5736 6.69866 7.65998C6.67592 7.74637 6.65774 7.81608 6.65774 7.81911C6.64107 7.82062 6.62591 7.82214 6.60924 7.82062H6.56075L6.49407 7.97824C6.4577 8.06462 6.42435 8.14494 6.41981 8.15706L6.41071 8.17828L6.34707 8.07523V7.65544L6.33494 7.65847C6.30918 7.66453 6.1258 7.68878 6.04548 7.69636C5.71359 7.7297 5.38018 7.72212 5.04981 7.67514C4.99677 7.66756 4.9513 7.6615 4.94979 7.66301C4.94827 7.66453 4.94979 7.76152 4.95282 7.88124L4.95736 8.09644L4.9316 8.13585C4.91796 8.15706 4.90432 8.17525 4.90432 8.17676C4.89978 8.18131 4.88462 8.15706 4.84977 8.08735C4.81188 8.01461 4.7846 7.93732 4.7649 7.857L4.75429 7.81305L4.70731 7.81608L4.66033 7.82062L4.6482 7.76455C4.64214 7.73424 4.63457 7.68726 4.63154 7.6615L4.62699 7.613L4.58759 7.57815C4.56485 7.55845 4.54212 7.53874 4.53758 7.53571C4.53 7.52965 4.52697 7.51904 4.52697 7.50995V7.49177L4.90584 7.49479L4.91796 7.5342L4.98313 7.53723C5.0195 7.53875 5.13468 7.54178 5.23773 7.54481L5.42716 7.54935L5.47566 7.47358L5.52567 7.3978H5.58932L5.58629 7.08258L5.50294 7.04621C5.2347 6.928 5.07709 6.79313 5.01798 6.62945C5.00586 6.59611 5.00586 6.58399 5.00283 6.43244C5.00131 6.28241 5.00131 6.26877 5.01192 6.23543C5.03314 6.15965 5.09224 6.10055 5.16802 6.08085C5.19378 6.07327 5.26198 6.07327 5.61963 6.07327L6.04094 6.07479L6.08792 6.09752C6.14399 6.1248 6.16975 6.1445 6.20158 6.18693C6.23795 6.23543 6.24856 6.27331 6.24856 6.36576C6.24856 6.49761 6.23947 6.61127 6.22583 6.65673C6.20613 6.71887 6.17581 6.77797 6.13793 6.83101C6.06215 6.928 5.92424 7.02499 5.79846 7.06894L5.76209 7.08258L5.76512 7.40084L5.8318 7.4069L5.87726 7.47509L5.92121 7.54329H6.12429C6.23643 7.54329 6.33494 7.54481 6.34403 7.54632C6.35919 7.54935 6.36222 7.54784 6.37737 7.52208L6.39556 7.49479H6.56984C6.70017 7.48873 6.73957 7.49177 6.73957 7.49631Z" fill="#000008"/>
<path d="M5.93948 7.93128C5.91068 7.94795 5.89098 7.95553 5.88644 7.9525C5.88189 7.95098 5.86067 7.9328 5.83794 7.91613L5.79702 7.88279L5.75459 7.92825C5.66214 8.02827 5.65911 8.03282 5.63183 8.03434C5.5894 8.03888 5.58031 8.03131 5.52878 7.95402C5.5015 7.91461 5.48028 7.88127 5.48028 7.88127C5.48028 7.88127 5.46058 7.87824 5.43785 7.87673L5.39542 7.87218L5.35602 7.95402L5.32116 7.94341C5.29388 7.93431 5.2666 7.92371 5.24084 7.91158L5.19537 7.88885V7.80247L6.00161 7.8055L6.00313 7.84642C6.00464 7.89491 6.00616 7.8934 5.93948 7.93128Z" fill="#000008"/>
<path d="M9.72833 6.0824C9.72682 6.07634 9.72681 6.06573 9.7253 6.04906C9.36158 6.00966 8.32347 5.98541 7.35963 6.78104C7.35963 6.78104 7.04895 5.35649 5.59409 5.35649C4.13922 5.35649 3.59971 6.78104 3.59971 6.78104C2.78438 5.90358 1.69313 5.96719 1.2991 6.02478C1.2991 6.03387 1.29759 6.04448 1.29759 6.05357C1.28546 6.27332 1.29152 6.37789 1.3279 6.5158C1.44156 6.94771 1.79164 7.42357 2.34024 7.89034C3.23892 8.65415 4.45737 9.20578 5.3803 9.26943C6.34264 9.3346 7.76265 8.77236 8.70831 7.95096C8.85683 7.81911 8.99625 7.67969 9.12658 7.53117C9.22054 7.42206 9.35997 7.23414 9.34936 7.23414C9.34633 7.23414 9.34936 7.23111 9.35542 7.22808C9.35997 7.22504 9.36451 7.2205 9.36148 7.21747C9.35997 7.21595 9.363 7.21141 9.36755 7.20989C9.37209 7.20837 9.37512 7.20534 9.37361 7.20231C9.37209 7.19928 9.37361 7.19625 9.37967 7.19473C9.38422 7.19322 9.38573 7.18867 9.38422 7.18564C9.3827 7.18261 9.38422 7.17958 9.38725 7.17958C9.39028 7.17958 9.39331 7.17503 9.39331 7.172C9.39331 7.16897 9.39634 7.16442 9.39937 7.16442C9.4024 7.16442 9.40543 7.16139 9.40543 7.15836C9.40998 7.14624 9.41756 7.13411 9.42514 7.12351C9.44787 7.08865 9.53879 6.92649 9.55092 6.89921C9.6373 6.70372 9.69186 6.52944 9.71762 6.35516C9.72672 6.2718 9.73439 6.11878 9.72833 6.0824ZM5.93948 7.93128C5.91068 7.94795 5.89098 7.95553 5.88644 7.9525C5.88189 7.95098 5.86067 7.9328 5.83794 7.91613L5.79702 7.88279L5.75459 7.92825C5.66214 8.02827 5.65911 8.03282 5.63183 8.03434C5.5894 8.03888 5.58031 8.03131 5.52878 7.95402C5.5015 7.91461 5.48028 7.88127 5.48028 7.88127C5.48028 7.88127 5.46058 7.87824 5.43785 7.87673L5.39542 7.87218L5.35602 7.95402L5.32116 7.94341C5.29388 7.93431 5.2666 7.92371 5.24084 7.91158L5.19537 7.88885V7.80247L6.00161 7.8055L6.00313 7.84642C6.00464 7.89491 6.00616 7.8934 5.93948 7.93128ZM6.69736 7.65851C6.67463 7.74489 6.65644 7.8146 6.65644 7.81763C6.63977 7.81915 6.62462 7.82066 6.60795 7.81915H6.55945L6.49429 7.97827C6.45791 8.06466 6.42457 8.14498 6.42003 8.1571L6.41093 8.17832L6.34728 8.07527V7.65548L6.33516 7.65851C6.3094 7.66457 6.12602 7.68882 6.0457 7.69639C5.71381 7.72974 5.3804 7.72216 5.05003 7.67518C4.99698 7.6676 4.95152 7.66154 4.95001 7.66305C4.94849 7.66457 4.95001 7.76156 4.95304 7.88128L4.95758 8.09648L4.93182 8.13589C4.91818 8.1571 4.90454 8.17529 4.90454 8.1768C4.89999 8.18135 4.88484 8.1571 4.84998 8.08739C4.8121 8.01465 4.78482 7.93736 4.76512 7.85704L4.75451 7.81309L4.70753 7.81612L4.66055 7.82066L4.64842 7.76459C4.64236 7.73428 4.63478 7.6873 4.63175 7.66154L4.62721 7.61304L4.5878 7.57819C4.56507 7.55849 4.54234 7.53878 4.53779 7.53575C4.53022 7.52969 4.52718 7.51908 4.52718 7.50999V7.4918L4.90606 7.49483L4.91818 7.53424L4.98335 7.53727C5.01972 7.53878 5.13489 7.54182 5.23795 7.54485L5.42738 7.54939L5.47588 7.47362L5.52589 7.39785H5.58954L5.58651 7.08262L5.50316 7.04625C5.23492 6.92804 5.07731 6.79317 5.0182 6.62949C5.00608 6.59615 5.00608 6.58403 5.00305 6.43248C5.00153 6.28245 5.00153 6.26881 5.01214 6.23547C5.03336 6.15969 5.09246 6.10059 5.16824 6.08089C5.194 6.07331 5.2622 6.07331 5.61985 6.07331L6.04115 6.07483L6.08813 6.09756C6.14421 6.12484 6.16997 6.14454 6.2018 6.18697C6.23817 6.23547 6.24878 6.27335 6.24878 6.3658C6.24878 6.49765 6.23968 6.61131 6.22605 6.65677C6.20634 6.71891 6.17603 6.77801 6.13815 6.83105C6.06237 6.92804 5.92446 7.02504 5.79868 7.06898L5.7623 7.08262L5.76534 7.40088L5.83202 7.40694L5.87748 7.47513L5.92143 7.54333H6.12451C6.23665 7.54333 6.33516 7.54485 6.34425 7.54636C6.35941 7.54939 6.36244 7.54788 6.37759 7.52211L6.39578 7.49483H6.57006C6.70494 7.49483 6.74434 7.49635 6.74434 7.5009C6.73979 7.49938 6.72009 7.57364 6.69736 7.65851Z" fill="white"/>
<path d="M9.71591 5.92782C9.71287 5.85963 9.70681 5.76415 9.70227 5.71717C9.6371 5.02914 9.46131 4.4669 9.1279 3.87131C9.11426 3.84858 9.10213 3.82585 9.09456 3.80766C9.09153 3.80311 9.09001 3.79857 9.08849 3.79554C9.13547 3.6546 9.32794 3.06507 9.48101 2.39068C9.68863 1.47533 9.82047 0.405397 9.41736 0.0841139C9.41736 0.0841139 8.72023 0.0325873 7.78669 0.94794C7.53361 1.20103 7.30174 1.47533 7.09563 1.76782L7.03047 1.7466C6.65463 1.62385 6.26515 1.54807 5.87264 1.52231C5.75443 1.51322 5.31342 1.51322 5.16945 1.52231C4.73451 1.5511 4.4011 1.61627 4.02223 1.74812C4.00707 1.75418 3.99343 1.75872 3.9798 1.76327C3.76611 1.4723 3.52818 1.19951 3.266 0.949456C2.29458 0.0295566 1.57169 0.0825983 1.57169 0.0825983C1.14432 0.41449 1.28981 1.53292 1.51107 2.47858C1.65656 3.10448 1.83538 3.6546 1.90207 3.85312C1.89752 3.86373 1.89146 3.87586 1.8854 3.88647C1.53229 4.60177 1.34143 5.29129 1.29597 6.02478C1.69151 5.96719 2.78105 5.90206 3.59789 6.78104C3.59789 6.78104 4.13741 5.35649 5.59227 5.35649C7.04714 5.35649 7.35781 6.78104 7.35781 6.78104C8.32166 5.98541 9.35977 6.01118 9.72348 6.04906C9.72197 6.01875 9.71894 5.97329 9.71591 5.92782ZM2.18849 3.28179C2.18849 3.28179 1.6217 1.86481 1.76719 1.05554C1.79143 0.919146 1.8369 0.799423 1.90813 0.708493C1.90813 0.708493 2.55069 0.772144 3.58728 1.92391C3.58728 1.92391 3.39027 2.01939 3.12658 2.22246C3.12658 2.22246 3.12506 2.22398 3.12355 2.22398C2.83712 2.44372 2.47037 2.79229 2.18849 3.28179ZM4.59357 5.3868C4.58447 5.40498 4.53901 5.42468 4.48748 5.43226C4.43596 5.43984 4.27835 5.43529 4.18893 5.42468C3.86765 5.38225 3.52667 5.28374 3.27813 5.1625C3.1387 5.09431 3.03868 5.02611 2.96442 4.95185L2.92199 4.9079L2.91744 4.85031C2.90986 4.75029 2.91138 4.59268 2.9235 4.53661C2.93108 4.48963 2.94775 4.44416 2.97048 4.40324C2.98261 4.38809 2.98261 4.38809 3.03716 4.38809C3.10385 4.38809 3.15992 4.3987 3.25085 4.42749C3.43725 4.48508 3.71459 4.62451 4.05254 4.82758C4.33139 4.99428 4.43596 5.07612 4.51628 5.18827C4.57083 5.25798 4.60721 5.35649 4.59357 5.3868ZM8.16405 4.88517C8.1595 4.90942 8.08828 4.98216 8.01705 5.0352C7.80791 5.18827 7.43359 5.33072 7.0532 5.39892C6.83648 5.43832 6.61977 5.44438 6.5546 5.41256C6.51217 5.39134 6.50611 5.37467 6.52126 5.32011C6.55309 5.20645 6.65614 5.08218 6.81678 4.96549C6.89862 4.90639 7.23051 4.70483 7.38509 4.61996C7.63969 4.48054 7.8458 4.39718 7.98522 4.37748C8.02917 4.37142 8.08221 4.36991 8.09888 4.37748C8.12616 4.38809 8.15647 4.46841 8.1686 4.5654C8.17466 4.61693 8.17163 4.84425 8.16405 4.88517ZM7.91248 2.22246L7.90945 2.22095C7.65485 2.01787 7.4639 1.9224 7.4639 1.9224C8.46563 0.770628 9.08546 0.706978 9.08546 0.706978C9.15366 0.799423 9.19761 0.917631 9.22186 1.05402C9.3628 1.86329 8.81571 3.28179 8.81571 3.28179C8.58687 2.87412 8.27923 2.51344 7.91248 2.22246Z" fill="#FFA409"/>
<path d="M9.22321 1.05401C9.105 1.03886 8.54595 1.03584 7.91248 2.22246L7.90945 2.22095C7.65485 2.01787 7.4639 1.9224 7.4639 1.9224C8.46563 0.770628 9.08546 0.706978 9.08546 0.706978C9.15518 0.799423 9.19896 0.917617 9.22321 1.05401Z" fill="#FF9300"/>
<path d="M8.81744 3.28176C8.58708 2.87258 8.28095 2.51341 7.91269 2.22243C8.54616 1.03581 9.10386 1.03884 9.22359 1.054C9.36452 1.86478 8.81744 3.28176 8.81744 3.28176Z" fill="#FF8300"/>
<path d="M9.24617 1.05856C9.23859 1.05705 9.23116 1.05551 9.22359 1.054L9.24617 1.05856Z" fill="#FF8300"/>
<path d="M3.58759 1.92238C3.58759 1.92238 3.39058 2.01786 3.12688 2.22093C3.12688 2.22093 3.12537 2.22245 3.12385 2.22245C2.46765 1.03431 1.89025 1.03886 1.76598 1.05401C1.79022 0.917617 1.83569 0.797894 1.90692 0.706965C1.90843 0.706965 2.551 0.770615 3.58759 1.92238Z" fill="#FF9300"/>
<path d="M3.1251 2.22243C2.83716 2.44369 2.47037 2.79077 2.18849 3.28179C2.18849 3.28179 1.62174 1.86478 1.76723 1.05399C1.88998 1.03884 2.4689 1.03581 3.1251 2.22243Z" fill="#FF8300"/>
<path d="M1.76723 1.05399C1.75965 1.05551 1.7506 1.05704 1.74302 1.05855L1.76723 1.05399Z" fill="#FF8300"/>
<path d="M7.28385 4.06833C7.28385 4.06833 6.7989 4.09864 6.85952 3.71977C6.92014 3.3409 7.29901 3.29544 7.40509 3.31059C7.51118 3.32575 7.93551 3.47729 7.85974 3.79555C7.78396 4.1138 7.67788 4.05318 7.61726 4.06833C7.55664 4.08349 7.28385 4.06833 7.28385 4.06833Z" fill="white"/>
<path d="M3.70711 4.06833C3.70711 4.06833 3.22215 4.09864 3.28277 3.71977C3.34339 3.3409 3.72226 3.29544 3.82835 3.31059C3.93443 3.32575 4.35877 3.47729 4.28299 3.79555C4.20722 4.1138 4.10113 4.05318 4.04051 4.06833C3.97989 4.08349 3.70711 4.06833 3.70711 4.06833Z" fill="white"/>
<path fill-rule="evenodd" clip-rule="evenodd" d="M42.1201 5.24394C42.1201 6.10206 41.9072 6.76197 41.4813 7.22368C41.0555 7.68539 40.4454 7.915 39.6512 7.91252C38.8598 7.91252 38.251 7.68291 37.8247 7.22368C37.3985 6.76446 37.1867 6.1033 37.1891 5.24021C37.1891 4.37836 37.4021 3.7172 37.8266 3.26445C38.2557 2.81162 38.8671 2.58466 39.6608 2.5836C40.4593 2.5836 41.0659 2.8117 41.4872 3.27243C41.9079 3.72882 42.1189 4.38599 42.1201 5.24394ZM38.3406 5.24394C38.3406 6.40496 38.7813 6.99158 39.6512 6.99158C40.5286 6.99158 40.9668 6.40904 40.9658 5.24394C40.9647 4.07884 40.5291 3.49628 39.6589 3.49628C38.7904 3.49628 38.3419 4.09064 38.3419 5.24394H38.3406Z" fill="#000008"/>
<path d="M18.0244 6.40492C18.0244 6.87338 17.8551 7.23936 17.5206 7.51111C17.1859 7.7787 16.7176 7.9125 16.1155 7.9125C15.5645 7.9125 15.0774 7.81003 14.6516 7.60162V6.58219C15.0018 6.73551 15.2971 6.8457 15.5374 6.91277C15.7543 6.97231 15.9779 7.00406 16.2028 7.00727C16.6867 7.00727 16.9504 6.81828 16.9504 6.4563C16.9527 6.35861 16.9222 6.26297 16.8639 6.18454C16.7931 6.09507 16.708 6.01798 16.6119 5.95644C16.5054 5.88165 16.2813 5.76747 15.943 5.6059C15.6236 5.45632 15.388 5.31471 15.2305 5.1771C14.9156 4.90534 14.7109 4.54735 14.7109 4.06319C14.7109 3.60272 14.8645 3.24446 15.1754 2.98069C15.4863 2.71692 15.9153 2.5873 16.4626 2.5873C17.0015 2.5873 17.466 2.72039 18.0013 2.95328L17.647 3.80741C17.425 3.7114 17.1961 3.63239 16.9622 3.57105C16.787 3.52786 16.6073 3.50543 16.4269 3.50424C16.0138 3.50424 15.7854 3.71292 15.7854 4.0278C15.7842 4.11753 15.8073 4.20591 15.8522 4.28358C15.9079 4.36726 15.9804 4.43834 16.0652 4.49225C16.1637 4.55906 16.3958 4.67857 16.7617 4.85025C17.2459 5.08262 17.5765 5.3187 17.7537 5.5508C17.931 5.7829 18.0244 6.06663 18.0244 6.40492Z" fill="#000008"/>
<path d="M23.2087 7.84174H22.1147V5.60594H20.0639V7.84174H18.966V2.66213H20.0639V4.69298H22.1147V2.66213H23.2087V7.84174Z" fill="#000008"/>
<path d="M24.5151 2.66213V7.84174H25.6133V2.66213H24.5151Z" fill="#000008"/>
<path fill-rule="evenodd" clip-rule="evenodd" d="M26.916 2.66213H28.5258C29.2618 2.66213 29.793 2.7686 30.1228 2.97701C30.4526 3.18542 30.6224 3.51998 30.6224 3.97273C30.6224 4.5905 30.3075 5.01078 29.8239 5.09436V5.12976C30.4811 5.27536 30.7526 5.677 30.7526 6.33816C30.7526 6.81034 30.5835 7.1803 30.241 7.44407C29.8984 7.70784 29.4382 7.84174 28.8516 7.84174H26.9152L26.916 2.66213ZM28.014 4.71162H28.6528C29.2471 4.71162 29.4989 4.54233 29.4989 4.11726C29.4989 3.7236 29.2194 3.5623 28.5897 3.5623H28.015L28.014 4.71162ZM28.014 5.58517V6.93543H28.7265C29.3365 6.93543 29.612 6.70308 29.612 6.2309C29.612 5.80184 29.3051 5.58517 28.6911 5.58517H28.014Z" fill="#000008"/>
<path d="M34.2644 7.84174H35.3624V3.57508H36.7675V2.66213H32.8593V3.57508H34.2644V7.84174Z" fill="#000008"/>
<path d="M46.1111 7.84172H47.3586L45.5369 4.9562L47.3434 2.66158H46.1273L44.7222 4.42466L44.2932 5.031V2.66211H43.195V7.84172H44.2932V5.99186L44.7536 5.66101L46.1111 7.84172Z" fill="#000008"/>
<path d="M50.9912 7.84174H48.0117V2.66213H50.9912V3.56337H49.1099V4.7007H50.8613V5.59822H49.1099V6.9365H50.9912V7.84174Z" fill="#000008"/>
<path d="M55.2696 7.84174H56.6667V2.66213H55.6789V5.11405C55.6789 5.39352 55.6946 5.8697 55.73 6.54284H55.7064L53.4551 2.66213H52.0734V7.84174H53.0535V5.40525C53.0535 5.11007 53.03 4.6142 52.9867 3.92536H53.0181L55.2696 7.84174Z" fill="#000008"/>
</svg>
