<svg width="545" height="276" viewBox="0 0 545 276" fill="none" xmlns="http://www.w3.org/2000/svg">
<rect x="1.82625" y="131.553" width="521" height="147" rx="73.5" transform="rotate(-14.418 1.82625 131.553)" fill="#131313" stroke="black" stroke-width="3"/>
<path d="M206.116 138.861L206.009 149.44L213.064 148.639L213.374 151.372L205.971 152.212L205.9 161.781L203.217 162.086L203.289 152.517L193.104 153.673L192.983 163.247L190.3 163.552L190.372 153.983L183.317 154.784L183.007 152.051L190.409 151.211L190.517 140.631L183.412 141.438L183.102 138.705L190.554 137.859L190.625 128.29L193.358 127.98L193.237 137.555L203.471 136.393L203.542 126.824L206.225 126.519L206.154 136.089L213.159 135.293L213.469 138.026L206.116 138.861ZM203.434 139.165L193.249 140.321L193.092 150.906L203.326 149.745L203.434 139.165ZM243.077 139.395C245.419 139.633 247.287 140.427 248.682 141.778C250.106 143.093 250.949 144.909 251.212 147.228C251.551 150.209 250.702 152.636 248.668 154.511C246.662 156.349 243.506 157.512 239.201 158.001L223.203 159.817L219.256 125.04L234.26 123.337C238.135 122.897 241.22 123.336 243.517 124.652C245.846 125.964 247.173 128.044 247.496 130.893C247.714 132.814 247.42 134.508 246.614 135.975C245.837 137.405 244.658 138.545 243.077 139.395ZM223.276 127.654L224.709 140.273L235.788 139.015C238.603 138.695 240.712 137.919 242.115 136.686C243.515 135.421 244.098 133.761 243.865 131.707C243.632 129.654 242.693 128.184 241.049 127.297C239.402 126.377 237.17 126.076 234.355 126.396L223.276 127.654ZM238.807 154.976C241.92 154.623 244.212 153.826 245.681 152.586C247.151 151.345 247.758 149.599 247.502 147.347C247.01 143.008 243.617 141.196 237.324 141.91L225.053 143.303L226.536 156.369L238.807 154.976ZM284.889 149.594L285.25 152.774L260.658 155.565L256.711 120.789L280.558 118.082L280.919 121.262L260.748 123.551L262.152 135.922L280.137 133.88L280.492 137.01L262.508 139.052L263.974 151.969L284.889 149.594ZM303.514 151.003C300.931 151.296 298.4 151.164 295.921 150.607C293.476 150.046 291.53 149.159 290.084 147.948L291.203 144.953C292.605 146.068 294.394 146.905 296.571 147.463C298.744 147.988 300.94 148.125 303.159 147.873C306.272 147.519 308.544 146.691 309.972 145.389C311.397 144.053 312.007 142.474 311.8 140.652C311.642 139.261 311.085 138.2 310.13 137.47C309.208 136.736 308.11 136.223 306.836 135.932C305.558 135.607 303.796 135.304 301.549 135.022C298.858 134.657 296.7 134.265 295.075 133.845C293.447 133.393 291.999 132.601 290.73 131.47C289.494 130.336 288.754 128.692 288.509 126.539C288.31 124.784 288.593 123.141 289.359 121.612C290.121 120.049 291.414 118.728 293.237 117.649C295.06 116.57 297.396 115.869 300.244 115.545C302.232 115.32 304.201 115.381 306.153 115.73C308.134 116.042 309.875 116.599 311.375 117.402L310.465 120.474C308.899 119.679 307.262 119.144 305.553 118.868C303.841 118.559 302.189 118.495 300.6 118.675C297.553 119.021 295.318 119.879 293.897 121.248C292.505 122.58 291.914 124.173 292.125 126.028C292.283 127.419 292.825 128.498 293.75 129.265C294.705 129.996 295.839 130.521 297.15 130.842C298.49 131.126 300.267 131.411 302.48 131.696C305.102 132.036 307.227 132.432 308.855 132.885C310.512 133.301 311.959 134.076 313.195 135.21C314.427 136.312 315.163 137.922 315.404 140.042C315.603 141.797 315.305 143.458 314.51 145.024C313.745 146.554 312.434 147.86 310.577 148.943C308.717 149.993 306.363 150.679 303.514 151.003ZM327.142 116.015L314.921 117.402L314.56 114.222L342.679 111.03L343.04 114.21L330.819 115.597L334.405 147.194L330.729 147.612L327.142 116.015Z" fill="white"/>
</svg>
