<svg width="437" height="222" viewBox="0 0 437 222" fill="none" xmlns="http://www.w3.org/2000/svg">
<path d="M14.9782 162.908C6.70597 130.732 26.0839 97.9417 58.2601 89.6695L348.784 14.9782C380.96 6.70599 413.75 26.0839 422.022 58.2601C430.294 90.4362 410.916 123.226 378.74 131.498L88.2165 206.19C56.0403 214.462 23.2504 195.084 14.9782 162.908Z" fill="#131313"/>
<path d="M352.675 110.068C350.603 110.303 348.573 110.198 346.585 109.751C344.623 109.301 343.063 108.59 341.903 107.618L342.801 105.216C343.925 106.111 345.36 106.782 347.106 107.229C348.849 107.65 350.61 107.76 352.39 107.558C354.887 107.274 356.708 106.61 357.854 105.565C358.997 104.494 359.486 103.228 359.32 101.766C359.194 100.651 358.747 99.8 357.981 99.2143C357.242 98.6256 356.361 98.2143 355.339 97.9806C354.314 97.7202 352.9 97.477 351.099 97.251C348.94 96.9579 347.209 96.6432 345.906 96.3067C344.6 95.9437 343.438 95.3088 342.421 94.4018C341.429 93.4919 340.836 92.1735 340.64 90.4468C340.48 89.0389 340.707 87.7216 341.321 86.4948C341.932 85.2416 342.969 84.1821 344.432 83.3165C345.894 82.451 347.767 81.8885 350.052 81.6292C351.646 81.4483 353.226 81.4977 354.791 81.7774C356.38 82.0275 357.776 82.4745 358.979 83.1182L358.25 85.5823C356.994 84.9446 355.68 84.5151 354.31 84.294C352.936 84.0463 351.612 83.9948 350.337 84.1396C347.893 84.417 346.101 85.1047 344.961 86.2028C343.845 87.2713 343.371 88.5493 343.54 90.0369C343.666 91.1527 344.101 92.0182 344.843 92.6335C345.609 93.2192 346.518 93.6407 347.57 93.898C348.645 94.1258 350.07 94.3542 351.845 94.5832C353.948 94.8557 355.652 95.1735 356.958 95.5365C358.288 95.87 359.448 96.4916 360.439 97.4016C361.427 98.285 362.018 99.5768 362.211 101.277C362.371 102.685 362.132 104.017 361.494 105.273C360.88 106.5 359.828 107.548 358.339 108.416C356.848 109.258 354.959 109.809 352.675 110.068Z" fill="white"/>
<path d="M333.042 104.507L317.501 106.272L315 114.103L311.932 114.451L321.517 85.1107L324.426 84.7805L340.343 111.226L337.235 111.579L333.042 104.507ZM331.695 102.239L323.3 88.0161L318.306 103.759L331.695 102.239Z" fill="white"/>
<path d="M309.174 112.181L309.464 114.731L289.739 116.97L286.573 89.0771L305.7 86.9061L305.989 89.4563L289.811 91.2927L290.937 101.215L305.362 99.5773L305.647 102.088L291.222 103.725L292.398 114.085L309.174 112.181Z" fill="white"/>
<path d="M253.652 92.814L265.009 91.5249C267.958 91.1902 270.629 91.4924 273.022 92.4315C275.413 93.344 277.353 94.792 278.843 96.7755C280.33 98.7324 281.227 101.066 281.535 103.775C281.842 106.485 281.492 108.973 280.485 111.24C279.475 113.48 277.908 115.326 275.786 116.778C273.661 118.203 271.124 119.083 268.175 119.418L256.819 120.707L253.652 92.814ZM267.726 116.886C270.17 116.608 272.254 115.887 273.979 114.723C275.7 113.532 276.969 112.029 277.786 110.215C278.599 108.373 278.879 106.337 278.626 104.105C278.372 101.874 277.645 99.9655 276.442 98.3799C275.237 96.7678 273.663 95.5876 271.722 94.8393C269.777 94.0645 267.583 93.8158 265.139 94.0932L256.891 95.0295L259.478 117.822L267.726 116.886Z" fill="white"/>
<path d="M241.628 94.1787L244.577 93.844L247.743 121.737L244.794 122.072L241.628 94.1787Z" fill="white"/>
<path d="M198.279 99.0994L209.635 97.8103C212.584 97.4756 215.255 97.7778 217.649 98.7169C220.04 99.6294 221.98 101.077 223.47 103.061C224.956 105.018 225.853 107.351 226.161 110.061C226.469 112.77 226.119 115.259 225.111 117.525C224.101 119.766 222.535 121.612 220.412 123.064C218.287 124.489 215.75 125.369 212.801 125.703L201.445 126.992L198.279 99.0994ZM212.353 123.171C214.797 122.894 216.881 122.173 218.605 121.008C220.327 119.818 221.595 118.315 222.412 116.5C223.225 114.659 223.506 112.622 223.252 110.391C222.999 108.159 222.271 106.251 221.069 104.665C219.863 103.053 218.29 101.873 216.348 101.125C214.404 100.35 212.209 100.101 209.765 100.379L201.517 101.315L204.104 124.107L212.353 123.171Z" fill="white"/>
<path d="M186.255 100.464L189.203 100.13L192.369 128.023L189.421 128.357L186.255 100.464Z" fill="white"/>
<path d="M162.79 103.128L165.738 102.793L168.615 128.136L184.235 126.363L184.525 128.913L165.956 131.021L162.79 103.128Z" fill="white"/>
<path d="M144.75 133.67C141.987 133.984 139.407 133.658 137.011 132.692C134.638 131.697 132.691 130.196 131.172 128.189C129.679 126.179 128.78 123.832 128.476 121.149C128.171 118.466 128.521 115.978 129.525 113.684C130.556 111.388 132.118 109.502 134.211 108.027C136.327 106.522 138.767 105.613 141.529 105.299C144.292 104.986 146.845 105.315 149.189 106.286C151.559 107.255 153.505 108.756 155.028 110.79C156.547 112.797 157.459 115.142 157.764 117.825C158.068 120.508 157.706 123.011 156.679 125.334C155.648 127.63 154.086 129.516 151.993 130.992C149.927 132.464 147.513 133.357 144.75 133.67ZM144.451 131.04C146.656 130.79 148.593 130.073 150.261 128.888C151.926 127.676 153.164 126.136 153.975 124.269C154.782 122.374 155.062 120.338 154.815 118.159C154.568 115.981 153.84 114.073 152.631 112.434C151.42 110.769 149.868 109.546 147.977 108.765C146.082 107.957 144.033 107.679 141.828 107.929C139.623 108.179 137.675 108.912 135.983 110.126C134.315 111.311 133.064 112.852 132.23 114.75C131.419 116.618 131.137 118.641 131.385 120.819C131.632 122.997 132.361 124.919 133.573 126.584C134.808 128.22 136.373 129.442 138.267 130.249C140.185 131.027 142.246 131.291 144.451 131.04Z" fill="white"/>
<path d="M115.732 136.964C113.66 137.199 111.63 137.093 109.642 136.646C107.68 136.196 106.12 135.485 104.96 134.514L105.858 132.111C106.982 133.006 108.417 133.678 110.163 134.125C111.906 134.546 113.667 134.656 115.447 134.454C117.944 134.17 119.765 133.506 120.911 132.461C122.054 131.39 122.543 130.123 122.377 128.662C122.251 127.547 121.804 126.696 121.038 126.11C120.299 125.521 119.418 125.11 118.396 124.876C117.371 124.616 115.957 124.373 114.156 124.147C111.997 123.854 110.266 123.539 108.963 123.202C107.657 122.839 106.495 122.205 105.478 121.298C104.486 120.388 103.893 119.069 103.697 117.343C103.537 115.935 103.764 114.617 104.378 113.391C104.989 112.137 106.026 111.078 107.489 110.212C108.951 109.347 110.824 108.784 113.109 108.525C114.703 108.344 116.283 108.393 117.848 108.673C119.437 108.923 120.833 109.37 122.036 110.014L121.307 112.478C120.051 111.84 118.737 111.411 117.367 111.19C115.993 110.942 114.669 110.891 113.394 111.035C110.95 111.313 109.158 112 108.018 113.099C106.902 114.167 106.428 115.445 106.597 116.933C106.723 118.048 107.158 118.914 107.9 119.529C108.666 120.115 109.575 120.536 110.627 120.794C111.702 121.022 113.127 121.25 114.902 121.479C117.005 121.751 118.709 122.069 120.015 122.432C121.345 122.766 122.505 123.387 123.496 124.297C124.484 125.181 125.075 126.473 125.268 128.173C125.428 129.581 125.189 130.913 124.551 132.169C123.937 133.396 122.885 134.443 121.396 135.312C119.905 136.154 118.016 136.705 115.732 136.964Z" fill="white"/>
<path d="M94.3093 120.79L94.2231 129.275L99.8814 128.633L100.13 130.825L94.1929 131.499L94.1358 139.174L91.9841 139.418L92.0412 131.743L83.8725 132.67L83.7756 140.35L81.6238 140.594L81.6809 132.919L76.0226 133.561L75.7738 131.369L81.7111 130.696L81.7972 122.21L76.0991 122.857L75.8503 120.665L81.8274 119.987L81.8845 112.312L84.0761 112.063L83.9792 119.743L92.1877 118.811L92.2448 111.136L94.3965 110.892L94.3394 118.567L99.9579 117.929L100.207 120.12L94.3093 120.79ZM92.1575 121.034L83.9888 121.961L83.8628 130.451L92.0713 129.52L92.1575 121.034Z" fill="white"/>
</svg>
