<svg width="385" height="301" viewBox="0 0 385 301" fill="none" xmlns="http://www.w3.org/2000/svg">
<path fill-rule="evenodd" clip-rule="evenodd" d="M218.432 13.9671L378.848 252.477C395.593 275.177 375.163 301 353.346 301H31.218C20.4323 301 9.69083 295.413 3.92192 285.168C-1.95721 274.727 -0.979412 262.432 5.20418 253.238L166.133 13.966C172.859 3.75157 183.724 0 192.282 0C200.84 0 211.706 3.75182 218.432 13.9671ZM217.785 47.8303L218.097 47.366C217.994 47.5223 217.89 47.6771 217.785 47.8303ZM166.468 47.3673L166.779 47.8293C166.674 47.6768 166.57 47.5228 166.468 47.3673ZM192.282 85.7482L295.929 239.852H88.6351L192.282 85.7482ZM327.951 287.464C327.703 287.11 327.464 286.755 327.234 286.398L327.951 287.464Z" fill="#131313"/>
</svg>
