<?xml version="1.0" standalone="no"?>
<!DOCTYPE svg PUBLIC "-//W3C//DTD SVG 1.1//EN" "http://www.w3.org/Graphics/SVG/1.1/DTD/svg11.dtd" >
<svg xmlns="http://www.w3.org/2000/svg">
<metadata>Generated by IcoMoon</metadata>
<defs>
<font id="icomoon" horiz-adv-x="1024">
<font-face units-per-em="1024" ascent="960" descent="-64" />
<missing-glyph horiz-adv-x="1024" />
<glyph unicode="&#x20;" horiz-adv-x="512" d="" />
<glyph unicode="&#xe900;" glyph-name="add" d="M512 960c56.554 0 102.4-45.846 102.4-102.4v-819.2c0-56.554-45.846-102.4-102.4-102.4s-102.4 45.846-102.4 102.4v819.2c0 56.554 45.846 102.4 102.4 102.4zM1024 448c0-56.554-45.846-102.4-102.4-102.4h-819.2c-56.554 0-102.4 45.846-102.4 102.4s45.846 102.4 102.4 102.4h819.2c56.554 0 102.4-45.846 102.4-102.4z" />
<glyph unicode="&#xe901;" glyph-name="arrow-bottom" horiz-adv-x="1609" d="M224.095 784.905c51.417 51.415 134.776 51.415 186.192 0l394.522-394.524 394.525 394.524c51.415 51.415 134.774 51.415 186.191 0 51.415-51.415 51.415-134.776 0-186.191l-484.457-484.457c-53.163-53.162-139.355-53.162-192.518 0.001l-484.456 484.456c-51.415 51.415-51.415 134.776 0 186.191z" />
<glyph unicode="&#xe902;" d="M810.659 447.987h-597.332c-13.781 0-26.88 2.73-39.296 6.826l31.829-318.25c3.080-31.616 17.838-60.944 41.391-82.256s54.206-33.075 85.968-32.989h357.549c31.763-0.086 62.416 11.677 85.968 32.989s38.31 50.64 41.392 82.256l31.827 318.208c-12.458-4.054-25.514-6.784-39.296-6.784z" />
<glyph unicode="&#xe903;" d="M810.678 448h-597.335c-33.948 0-66.505 13.485-90.509 37.491-24.005 24.003-37.491 56.56-37.491 90.509s13.486 66.505 37.491 90.51c24.004 24.004 56.562 37.49 90.509 37.49h597.335c33.946 0 66.502-13.486 90.509-37.49 24.003-24.005 37.491-56.561 37.491-90.51s-13.488-66.506-37.491-90.509c-24.006-24.006-56.563-37.491-90.509-37.491z" />
<glyph unicode="&#xe904;" d="M810.678 448h-597.335c-33.948 0-66.505 13.485-90.509 37.491-24.005 24.003-37.491 56.56-37.491 90.509s13.486 66.505 37.491 90.51c24.004 24.004 56.562 37.49 90.509 37.49h597.335c33.946 0 66.502-13.486 90.509-37.49 24.003-24.005 37.491-56.561 37.491-90.51s-13.488-66.506-37.491-90.509c-24.006-24.006-56.563-37.491-90.509-37.491z" />
<glyph unicode="&#xe905;" d="M656.314 704.011h95.402l-73.514 147.072c-5.059 10.128-13.933 17.831-24.672 21.416-5.315 1.775-10.931 2.485-16.522 2.091-5.594-0.395-11.053-1.887-16.067-4.392-10.128-5.058-17.83-13.932-21.414-24.671s-2.758-22.46 2.301-32.588l54.486-108.928zM367.715 704.011l54.57 109.099c5.037 10.139 5.837 21.863 2.23 32.593-3.61 10.73-11.334 19.587-21.472 24.623s-21.862 5.837-32.592 2.228c-10.733-3.609-19.587-11.332-24.624-21.471l-73.515-147.072h95.403zM426.682 362.678c-11.318 0-22.17-4.496-30.17-12.496-8.003-8.003-12.499-18.854-12.499-30.17v-85.334c0-11.315 4.496-22.17 12.499-30.17 8-8.003 18.851-12.496 30.17-12.496 11.315 0 22.166 4.493 30.17 12.496 8 8 12.496 18.854 12.496 30.17v85.334c0 11.315-4.496 22.166-12.496 30.17-8.003 8-18.854 12.496-30.17 12.496zM597.347 362.678c-11.315 0-22.17-4.496-30.17-12.496-8.003-8.003-12.496-18.854-12.496-30.17v-85.334c0-11.315 4.493-22.17 12.496-30.17 8-8.003 18.854-12.496 30.17-12.496s22.17 4.493 30.17 12.496c8.003 8 12.496 18.854 12.496 30.17v85.334c0 11.315-4.493 22.166-12.496 30.17-8 8-18.854 12.496-30.17 12.496z" />
<glyph unicode="&#xe906;" glyph-name="basket-transparent" d="M810.643 704.017h-59.731l-72.531 145.067c-8.538 21.333-34.138 29.867-55.468 17.067-21.334-8.534-29.867-34.134-17.067-55.467l51.197-106.667h-290.131l55.466 110.934c8.534 21.333 0 46.933-17.066 55.466-21.334 8.534-46.934 0-59.734-21.333l-72.533-145.067h-59.733c-72.534 0-128-55.466-128-128 0-55.466 38.4-102.4 89.6-119.466l29.866-320.001c8.534-64 64-115.2 128-115.2h358.402c64 0 119.462 51.2 128 115.2l29.862 320.001c51.2 17.066 89.6 64 89.6 119.466 0 72.534-55.462 128-128 128zM469.313 234.682c0-25.6-17.067-42.662-42.667-42.662s-42.667 17.062-42.667 42.662v85.336c0 25.6 17.067 42.667 42.667 42.667s42.667-17.067 42.667-42.667v-85.336zM639.979 234.682c0-25.6-17.066-42.662-42.666-42.662s-42.667 17.062-42.667 42.662v85.336c0 25.6 17.067 42.667 42.667 42.667s42.666-17.067 42.666-42.667v-85.336zM810.643 533.351h-597.331c-25.6 0-42.667 17.066-42.667 42.666s17.067 42.667 42.667 42.667h597.331c25.6 0 42.669-17.067 42.669-42.667s-17.069-42.666-42.669-42.666z" />
<glyph unicode="&#xe907;" glyph-name="bin" d="M862.272 743.285h-186.88v99.84c0 17.493-14.080 32-32 32h-262.824c-17.493 0-32-14.507-32-32v-99.84h-186.88c-17.494 0-32-14.080-32-32 0-17.493 14.506-32 32-32h49.067v-538.024c0-66.138 53.76-119.469 119.893-119.469h348.162c65.702 0 119.462 53.331 119.462 119.469v538.024h64c17.498 0 32 14.507 32 32 0 17.92-14.502 32-32 32zM392.088 228.723v315.309c0 17.493 14.507 32 32 32 17.92 0 32-14.507 32-32v-315.309c0-17.491-14.080-32-32-32-17.493 0-32 14.509-32 32zM631.875 228.723c0-17.491-14.507-32-32-32-17.92 0-32 14.509-32 32v315.309c0 17.92 14.080 32 32 32 17.493 0 32-14.080 32-32v-315.309zM412.568 811.125h198.827v-67.84h-198.827v67.84z" />
<glyph unicode="&#xe908;" glyph-name="close" d="M991.044 935.503c-33.655 33.071-87.748 32.598-120.815-1.057l-359.287-365.627-365.627 359.284c-33.655 33.071-87.748 32.598-120.819-1.057s-32.598-87.747 1.057-120.818l365.627-359.284-359.284-365.629c-33.071-33.655-32.598-87.748 1.057-120.815 33.655-33.075 87.747-32.597 120.818 1.058l359.284 365.624 365.629-359.284c33.655-33.067 87.748-32.597 120.815 1.058 33.075 33.655 32.597 87.748-1.058 120.815l-365.624 359.287 359.284 365.627c33.067 33.655 32.597 87.748-1.058 120.819z" />
<glyph unicode="&#xe909;" glyph-name="download" d="M810.678 704h-268.8l-12.8 38.4c-17.069 55.467-68.269 89.6-119.469 89.6h-196.266c-72.533 0-128-55.467-128-128v-554.666c0-72.534 55.467-128 128-128h597.335c72.531 0 128 55.466 128 128v426.666c0 72.533-55.469 128-128 128zM627.21 290.134l-85.331-85.334c-17.069-17.066-42.669-17.066-59.734 0l-85.334 85.334c-17.066 17.066-17.066 42.666 0 59.731 17.069 17.069 42.669 17.069 59.734 0l12.8-12.8v110.934c0 25.6 17.066 42.666 42.666 42.666s42.669-17.066 42.669-42.666v-110.934l12.8 12.8c17.066 17.069 42.666 17.069 59.731 0 17.069-17.066 17.069-42.666 0-59.731z" />
<glyph unicode="&#xe90a;" d="M992.006 319.997c-54.4 32-86.4 76.8-86.4 128s32 96 86.4 128c28.8 16 38.4 51.2 25.6 83.2v3.2c-12.8 28.8-44.8 48-76.8 38.4-60.8-16-115.2-3.2-150.4 28.8-35.2 35.2-44.8 89.6-28.8 150.4 6.4 32-9.6 64-38.4 76.8s-64 0-83.2-25.6c-32-54.4-76.8-86.4-128-86.4s-96 32-128 86.4c-16 28.8-51.2 38.4-83.2 25.6-28.8-16-44.8-48-38.4-80 16-60.8 6.4-115.2-28.8-150.4-35.2-32-89.6-41.6-150.4-28.8-32 6.4-64-9.6-76.8-38.4v-3.2c-12.8-28.8 0-64 25.6-83.2 54.4-32 86.4-76.8 86.4-128 0-48-28.8-92.8-86.4-128-28.8-16-38.4-51.2-25.6-83.2v-3.2c12.8-28.8 44.8-48 76.8-38.4 60.8 16 115.2 6.4 150.4-28.8s44.8-89.6 28.8-150.4c-6.4-32 9.6-64 38.4-76.8s64 0 83.2 25.6c32 54.4 76.8 86.4 128 86.4s96-32 128-86.4c16-28.8 51.2-38.4 83.2-25.6 28.8 12.8 48 44.8 38.4 76.8-16 60.8-6.4 115.2 28.8 150.4s89.6 44.8 150.4 28.8c32-6.4 64 9.6 76.8 38.4 12.8 38.4 3.2 73.6-25.6 89.6zM512.006 159.997c-156.8 0-288 128-288 288s128 288 288 288c156.8 0 288-128 288-288s-131.2-288-288-288z" />
<glyph unicode="&#xe90b;" d="M511.987 275.197c95.434 0 172.8 77.366 172.8 172.8s-77.366 172.8-172.8 172.8c-95.434 0-172.8-77.366-172.8-172.8s77.366-172.8 172.8-172.8z" />
<glyph unicode="&#xe90c;" d="M796.435 49.786c0-62.832-50.941-113.776-113.776-113.776h-568.883c-62.833 0-113.777 53.334-113.777 227.552v682.662c0 62.833 50.943 113.777 113.777 113.777h568.883c62.835 0 113.776-50.943 113.776-113.777v-796.438z" />
<glyph unicode="&#xe90d;" d="M881.744-64.003h-767.994c113.777 0 113.777 227.555 113.777 227.555 0 62.832 50.943 113.776 113.776 113.776h568.883c62.835 0 113.779-56.89 113.779-113.776 0 0 7.11-227.555-142.221-227.555z" />
<glyph unicode="&#xe90e;" d="M682.634 760.868c0-15.701-12.714-28.444-28.445-28.444h-511.995c-15.701 0-28.444 12.743-28.444 28.444s12.743 28.444 28.444 28.444h511.995c15.731 0 28.445-12.743 28.445-28.444zM682.634 647.092c0-15.7-12.714-28.445-28.445-28.445h-511.995c-15.701 0-28.444 12.746-28.444 28.445 0 15.701 12.743 28.444 28.444 28.444h511.995c15.731 0 28.445-12.743 28.445-28.444zM682.634 533.315c0-15.702-12.714-28.445-28.445-28.445h-511.995c-15.701 0-28.444 12.742-28.444 28.445s12.743 28.445 28.444 28.445h511.995c15.731 0 28.445-12.742 28.445-28.445zM682.634 419.539c0-15.731-12.714-28.445-28.445-28.445h-511.995c-15.701 0-28.444 12.714-28.444 28.445 0 15.728 12.743 28.445 28.444 28.445h511.995c15.731 0 28.445-12.717 28.445-28.445z" />
<glyph unicode="&#xe90f;" glyph-name="Info" d="M460.8 243.2c0-28.275 22.923-51.2 51.2-51.2s51.2 22.925 51.2 51.2v204.8c0 28.277-22.923 51.2-51.2 51.2s-51.2-22.923-51.2-51.2v-204.8zM512 960c-282.88 0-512-229.12-512-512s229.12-512 512-512c282.88 0 512 229.12 512 512s-229.12 512-512 512zM512 38.4c-225.792 0-409.6 183.808-409.6 409.6s183.808 409.6 409.6 409.6c225.792 0 409.6-183.808 409.6-409.6s-183.808-409.6-409.6-409.6zM460.8 652.8c0-28.277 22.923-51.2 51.2-51.2s51.2 22.923 51.2 51.2c0 28.277-22.923 51.2-51.2 51.2s-51.2-22.923-51.2-51.2z" />
<glyph unicode="&#xe910;" glyph-name="mail" d="M853.312 789.328h-682.666c-47.147 0-84.907-38.187-84.907-85.333l-0.427-512.001c0-47.146 38.187-85.331 85.333-85.331h682.666c47.149 0 85.334 38.186 85.334 85.331v512.001c0 47.147-38.186 85.333-85.334 85.333zM853.312 636.397c0-11.034-5.683-21.286-15.040-27.136l-292.374-182.733c-20.752-12.97-47.085-12.97-67.837 0l-292.375 182.733c-9.356 5.85-15.040 16.102-15.040 27.136v9.862c0 25.134 27.646 40.457 48.96 27.136l275.415-172.134c10.374-6.483 23.542-6.483 33.917 0l275.414 172.134c21.315 13.321 48.96-2.002 48.96-27.136v-9.862z" />
<glyph unicode="&#xe911;" glyph-name="marker" d="M512 928c-192 0-352-160-352-352s352-627.2 352-608c0 0 352 416 352 608s-160 352-352 352zM512 409.6c-96 0-166.4 76.8-166.4 166.4 0 96 76.8 166.4 166.4 166.4s166.4-76.8 166.4-166.4c0-89.6-70.4-166.4-166.4-166.4z" />
<glyph unicode="&#xe912;" d="M512 960c282.77 0 512-229.23 512-512s-229.23-512-512-512c-282.77 0-512 229.23-512 512s229.23 512 512 512z" />
<glyph unicode="&#xe913;" d="M725.333 448c0-23.564-19.103-42.667-42.667-42.667h-341.333c-23.564 0-42.667 19.103-42.667 42.667s19.103 42.667 42.667 42.667h341.333c23.564 0 42.667-19.103 42.667-42.667z" />
<glyph unicode="&#xe914;" glyph-name="phone" d="M422.887 701.973c-12.224 140.608-158.912 209.6-165.12 212.416-5.804 2.728-12.307 3.6-18.624 2.496-169.344-28.096-194.816-126.656-195.84-130.752-1.393-5.708-1.172-11.691 0.64-17.28 201.984-626.686 621.759-742.849 759.743-781.054 10.624-2.944 19.395-5.315 26.051-7.491 7.593-2.483 15.846-2.002 23.101 1.347 4.224 1.92 103.936 48.896 128.323 202.112 1.080 6.687 0.005 13.548-3.072 19.584-2.176 4.224-54.339 103.485-198.979 138.557-4.905 1.254-10.045 1.3-14.971 0.128-4.931-1.167-9.498-3.517-13.317-6.845-45.629-38.979-108.672-80.512-135.869-84.803-182.338 89.155-284.162 260.225-288.002 292.673-2.24 18.24 39.552 82.304 87.616 134.4 3.021 3.279 5.322 7.154 6.755 11.375s1.966 8.697 1.565 13.137z" />
<glyph unicode="&#xe915;" horiz-adv-x="1040" d="M518.626 960c282.722 0 512-229.278 512-512s-229.278-512-512-512c-282.722 0-512.001 229.278-512.001 512s229.279 512 512.001 512z" />
<glyph unicode="&#xe916;" horiz-adv-x="1040" d="M696.576 499.504c40.066-22.891 40.066-80.117 0-103.008l-231.805-132.44c-40.066-22.89-90.146 5.723-90.146 51.504v264.88c0 45.781 50.080 74.394 90.146 51.504l231.805-132.44z" />
<glyph unicode="&#xe917;" d="M512 960c282.77 0 512-229.23 512-512s-229.23-512-512-512c-282.77 0-512 229.23-512 512s229.23 512 512 512z" />
<glyph unicode="&#xe918;" d="M512 661.333c23.564 0 42.667-19.103 42.667-42.667v-341.333c0-23.564-19.103-42.667-42.667-42.667s-42.667 19.103-42.667 42.667v341.333c0 23.564 19.103 42.667 42.667 42.667z" />
<glyph unicode="&#xe919;" d="M725.333 448c0-23.564-19.103-42.667-42.667-42.667h-341.333c-23.564 0-42.667 19.103-42.667 42.667s19.103 42.667 42.667 42.667h341.333c23.564 0 42.667-19.103 42.667-42.667z" />
<glyph unicode="&#xe91a;" glyph-name="share" d="M797.862 358.397c-8.534 4.269-21.334 4.269-29.869 4.269-51.2 0-98.134-21.334-132.266-64l-217.6 98.131c8.534 29.869 8.534 64 0 98.134l217.6 98.134c59.734-72.534 166.4-81.069 238.934-21.334 72.531 59.734 81.066 166.4 21.331 238.933-59.731 72.533-166.4 81.067-238.934 21.333-38.397-29.867-59.731-76.8-59.731-128 0-8.533 0-21.333 4.266-29.867l-226.131-102.4c-68.268 64-174.935 64-243.202-4.266-64-68.269-64-174.934 4.267-243.2 68.267-64 170.667-64 238.935 0l226.131-102.4c-17.066-93.869 42.669-183.469 136.534-196.269 93.866-17.066 183.466 42.669 196.266 136.534 17.069 93.866-42.666 179.2-136.531 196.266z" />
<glyph unicode="&#xe91b;" glyph-name="tg" d="M401.81 333.581l-16.94-238.259c24.236 0 34.732 10.413 47.319 22.912l113.622 108.595 235.443-172.422c43.181-24.064 73.606-11.392 85.254 39.718l154.579 724.202c13.696 63.831-23.078 88.792-65.152 73.133l-908.397-347.784c-61.996-24.065-61.058-58.626-10.539-74.285l232.24-72.238 539.45 337.546c25.382 16.812 48.474 7.51 29.478-9.301l-436.36-391.816z" />
<glyph unicode="&#xe91c;" glyph-name="user" d="M512 960c-281.6 0-512-230.4-512-512s230.4-512 512-512c281.6 0 512 230.4 512 512s-230.4 512-512 512zM512 704c87.040 0 153.6-66.56 153.6-153.6s-66.56-153.6-153.6-153.6c-87.040 0-153.6 66.56-153.6 153.6s66.56 153.6 153.6 153.6zM512 38.4c-112.64 0-220.16 46.080-296.96 128 112.64 163.84 332.8 204.8 496.64 92.16 35.84-25.6 66.56-56.32 92.16-92.16-71.68-81.92-179.2-128-291.84-128z" />
<glyph unicode="&#xe91d;" glyph-name="vb" d="M512.021 917.313c-226.987 0-469.334-31.147-469.334-405.334 0-197.976 69.974-319.998 213.334-372.056v-96c0.079-13.235 4.182-26.144 11.765-36.992 7.583-10.854 18.287-19.149 30.692-23.776s25.924-5.376 38.764-2.144c12.84 3.232 24.392 10.298 33.125 20.25l93.44 105.382h48.214c226.987 0 469.336 31.149 469.336 405.336s-242.349 405.334-469.336 405.334zM512.021 618.646c22.632 0 44.337-8.99 60.339-24.993s24.994-37.708 24.994-60.34c0-5.658-2.248-11.084-6.248-15.085s-9.427-6.249-15.085-6.249c-5.658 0-11.084 2.248-15.085 6.249s-6.248 9.427-6.248 15.085c0 11.316-4.495 22.168-12.497 30.17s-18.854 12.497-30.17 12.497c-5.658 0-11.084 2.248-15.085 6.249s-6.248 9.427-6.248 15.085c0 5.658 2.248 11.084 6.248 15.085s9.427 6.248 15.085 6.248zM490.687 682.646c0 5.658 2.248 11.084 6.248 15.085s9.427 6.248 15.085 6.248c45.263 0 88.673-17.981 120.679-49.987 32.004-32.006 49.988-75.416 49.988-120.68 0-5.658-2.246-11.084-6.246-15.085-4.006-4.001-9.427-6.249-15.085-6.249s-11.085 2.248-15.085 6.249c-4.006 4.001-6.253 9.427-6.253 15.085 0 33.948-13.484 66.505-37.489 90.509s-56.562 37.491-90.509 37.491c-5.658 0-11.084 2.248-15.085 6.248s-6.248 9.427-6.248 15.085zM725.357 341.313c-5.094-30.132-20.794-57.447-44.269-77.012s-53.178-30.080-83.734-29.658c-66.987 0-195.84 80.218-249.6 134.403-53.76 54.187-134.4 182.613-134.4 249.6-0.427 30.556 10.092 60.256 29.655 83.732s46.88 39.178 77.012 44.268h42.666c3.999 0.008 7.919-1.108 11.313-3.22s6.127-5.136 7.887-8.727c0 0 25.6-52.053 42.667-85.333s-16.64-80.64-37.12-101.12c12.211-31.763 30.632-60.773 54.187-85.333 24.56-23.555 53.57-41.976 85.333-54.187 20.087 23.101 47.789 38.239 78.080 42.667 7.873-0.008 15.629-1.91 22.613-5.547l85.332-42.667c3.59-1.759 6.618-4.492 8.73-7.887s3.226-7.315 3.219-11.313l0.429-42.666zM746.688 511.979c-5.658 0-11.085 2.248-15.085 6.249s-6.246 9.427-6.246 15.085c0 56.579-22.477 110.842-62.49 150.849-40.004 40.008-94.267 62.484-150.846 62.484-5.658 0-11.084 2.248-15.085 6.248s-6.248 9.427-6.248 15.085c0 5.658 2.248 11.084 6.248 15.085s9.427 6.248 15.085 6.248c67.895 0 133.009-26.972 181.022-74.981 48.006-48.009 74.976-113.124 74.976-181.019 0-5.658-2.246-11.084-6.246-15.085s-9.427-6.249-15.085-6.249z" />
<glyph unicode="&#xe91e;" glyph-name="vk" d="M557.729 153.6c-349.862 0-549.414 230.63-557.729 614.4h175.251c5.756-281.677 134.952-400.99 237.288-425.59v425.59h165.023v-242.931c101.055 10.456 207.219 121.158 243.033 242.931h165.024c-27.507-150.063-142.63-260.766-224.499-306.278 81.869-36.9 212.992-133.458 262.88-308.122h-181.651c-39.014 116.851-136.224 207.26-264.787 219.56v-219.56h-19.834z" />
<glyph unicode="&#xe91f;" glyph-name="wa" d="M512.129 960h-0.256c-282.304 0-511.872-229.632-511.872-512-0.175-107.841 33.962-212.941 97.472-300.096l-63.808-190.208 196.8 62.912c83.48-55.386 181.484-84.826 281.664-84.608 282.303 0 511.871 229.696 511.871 512s-229.568 512-511.871 512zM810.048 236.992c-12.352-34.88-61.376-63.808-100.48-72.256-26.752-5.696-61.696-10.24-179.327 38.528-150.464 62.336-247.36 215.232-254.912 225.152-7.232 9.92-60.8 80.96-60.8 154.432s37.312 109.248 52.352 124.608c12.352 12.608 32.768 18.368 52.352 18.368 6.336 0 12.032-0.32 17.152-0.576 15.040-0.64 22.592-1.536 32.512-25.28 12.352-29.76 42.432-103.232 46.016-110.784 3.648-7.552 7.296-17.792 2.176-27.712-4.8-10.24-9.024-14.784-16.576-23.488s-14.72-15.36-22.272-24.704c-6.912-8.128-14.72-16.832-6.016-31.872 8.704-14.72 38.784-63.808 83.072-103.232 57.152-50.88 103.488-67.136 120.064-74.048 12.352-5.12 27.072-3.904 36.096 5.696 11.456 12.352 25.6 32.832 39.999 52.992 10.24 14.464 23.168 16.256 36.736 11.136 13.824-4.8 86.976-40.96 102.016-48.448 15.040-7.552 24.96-11.136 28.608-17.472 3.584-6.336 3.584-36.096-8.768-71.040z" />
</font>
</defs>
</svg>
