<svg width="39" height="39" viewBox="0 0 39 39" fill="none" xmlns="http://www.w3.org/2000/svg">
<path fill-rule="evenodd" clip-rule="evenodd" d="M38.4075 5.0955L32.281 36.1995C31.813 39.2748 28.2071 39.6997 26.5085 38.0012L1.43016 12.9228C0.590461 12.0831 0.190303 10.8108 0.540777 9.56207C0.89795 8.28949 1.93367 7.40601 3.13268 7.16982L34.336 1.02381C35.6568 0.750258 36.7955 1.30331 37.4618 1.96957C38.128 2.63586 38.6811 3.77457 38.4075 5.0955ZM35.7141 7.68807L35.7747 7.67614C35.7545 7.68031 35.7343 7.68429 35.7141 7.68807ZM31.7552 3.6568L31.7433 3.71705C31.7471 3.69701 31.751 3.67693 31.7552 3.6568ZM30.7693 8.66204L26.8109 28.7587L10.6727 12.6204L30.7693 8.66204ZM25.588 34.9676C25.5962 34.9207 25.6053 34.8744 25.6153 34.8286L25.588 34.9676Z" fill="#C4FF02"/>
</svg>
