<svg width="39" height="40" viewBox="0 0 39 40" fill="none" xmlns="http://www.w3.org/2000/svg">
<path fill-rule="evenodd" clip-rule="evenodd" d="M5.37038 1.00857L35.8486 9.73024C38.8737 10.4554 38.9937 14.0843 37.1582 15.6339L10.0588 38.5133C9.15147 39.2794 7.84999 39.5711 6.63518 39.1168C5.39717 38.6538 4.60396 37.5475 4.46948 36.3328L0.97057 4.72309C0.809116 3.38388 1.45601 2.29579 2.17596 1.68795C2.89595 1.08008 4.07715 0.624782 5.37038 1.00857ZM7.72715 3.9105L7.72036 3.84916C7.72281 3.86967 7.72508 3.89011 7.72715 3.9105ZM3.37709 7.51627L3.43612 7.53317C3.41647 7.52773 3.39679 7.5221 3.37709 7.51627ZM8.28163 8.91976L27.974 14.5549L10.5351 29.2782L8.28163 8.91976ZM34.058 16.296C34.012 16.2838 33.9666 16.2708 33.9218 16.257L34.058 16.296Z" fill="#C4FF02"/>
</svg>
