<svg width="18" height="18" viewBox="0 0 18 18" fill="none" xmlns="http://www.w3.org/2000/svg">
<path d="M17.4009 0.613356C16.8809 0.0933556 16.0409 0.0933556 15.5209 0.613356L9.00094 7.12002L2.48094 0.600022C1.96094 0.080022 1.12094 0.080022 0.600937 0.600022C0.0809375 1.12002 0.0809375 1.96002 0.600937 2.48002L7.12094 9.00002L0.600937 15.52C0.0809375 16.04 0.0809375 16.88 0.600937 17.4C1.12094 17.92 1.96094 17.92 2.48094 17.4L9.00094 10.88L15.5209 17.4C16.0409 17.92 16.8809 17.92 17.4009 17.4C17.9209 16.88 17.9209 16.04 17.4009 15.52L10.8809 9.00002L17.4009 2.48002C17.9076 1.97336 17.9076 1.12002 17.4009 0.613356Z" fill="#1F93CC"/>
</svg>
