<svg width="633" height="590" viewBox="0 0 633 590" fill="none" xmlns="http://www.w3.org/2000/svg">
<path fill-rule="evenodd" clip-rule="evenodd" d="M420.062 589.035C516.345 588.994 593.495 479.331 607.692 384.1C620.152 300.527 520.807 250.229 481.742 175.306C457.699 129.193 466.929 68.1753 426.145 35.9093C380.81 0.0422363 320.335 -3.40057 262.788 2.08099C190.379 8.97809 110.724 14.3766 64.3051 70.3754C12.359 133.042 -21.4161 227.734 15.6815 300.186C51.3097 369.769 161.412 338.824 225.024 384.262C304.764 441.221 322.068 589.077 420.062 589.035Z" fill="#EFF9F9"/>
<path fill-rule="evenodd" clip-rule="evenodd" d="M615.032 160.373C590.456 182.455 553.756 182.806 527.465 165.787C503.903 150.534 500.963 119.514 508.633 91.4949C516.23 63.7388 534.936 36.9389 563.553 33.9496C592.169 30.9606 613.014 53.723 623.509 79.4955C634.54 106.588 637.968 139.767 615.032 160.373Z" fill="#EFF9F9"/>
<path fill-rule="evenodd" clip-rule="evenodd" d="M110.273 472.621C96.3455 485.134 75.5484 485.334 60.65 475.689C47.2976 467.045 45.6316 449.467 49.9778 433.589C54.2833 417.86 64.8833 402.673 81.1003 400.979C97.3163 399.285 109.129 412.184 115.076 426.789C121.328 442.142 123.27 460.944 110.273 472.621Z" fill="#EFF9F9"/>
</svg>
