<svg width="544" height="98" viewBox="0 0 544 98" fill="none" xmlns="http://www.w3.org/2000/svg">
<path d="M301.584 63.3077V44.5897H328.154V34.6916H301.584V17.0516H331.977V6.85962H290.015V73.4997H332.86V63.3077H301.584Z" fill="#6737AF"/>
<path d="M355.683 74.4798C365.291 74.4798 371.86 69.3838 371.86 61.2498C371.86 53.9978 366.37 50.3718 358.723 47.5298C354.016 45.8638 350.781 44.1978 350.781 41.3558C350.781 38.6117 353.624 37.6317 356.958 37.6317C359.899 37.6317 363.429 38.5137 366.664 40.1797L370.39 33.0257C365.684 30.2817 361.076 29.1057 356.075 29.1057C347.742 29.1057 340.585 33.3197 340.585 41.3558C340.585 48.5098 345.977 52.1358 352.938 54.7818C357.252 56.4478 361.37 58.0158 361.37 61.2498C361.37 63.9938 358.821 65.7578 354.899 65.7578C350.781 65.7578 346.663 64.4837 342.938 62.1318L338.722 69.6777C343.82 72.9117 349.212 74.4798 355.683 74.4798Z" fill="#6737AF"/>
<path d="M397.011 74.4796C402.012 74.4796 406.227 73.0096 410.246 70.4616L406.816 62.4256C404.365 63.9936 402.012 64.6796 399.463 64.6796C396.619 64.6796 394.658 63.4056 394.658 59.0936V38.9056H408.188V29.7916H394.658V15.7776H384.266L383.972 29.7916H376.227V38.3176L383.972 38.9056V60.1716C383.972 69.9716 389.168 74.4796 397.011 74.4796Z" fill="#6737AF"/>
<path d="M434.762 29.0078C428.88 29.0078 422.899 30.5758 416.428 33.5158L419.467 41.6499C423.977 39.4938 428.782 38.1218 433.095 38.1218C438.684 38.1218 442.017 40.3758 442.017 44.8839V46.8439C440.449 46.7459 438.782 46.6479 436.527 46.6479C423.193 46.6479 414.369 52.1358 414.369 62.1318C414.369 69.8738 420.056 74.3818 428.095 74.3818C435.252 74.3818 440.449 71.5398 443.684 66.9338L445.645 73.4998H452.802V45.2759C452.802 34.6918 445.939 29.0078 434.762 29.0078ZM431.233 66.3458C427.311 66.3458 424.958 64.4838 424.958 61.0538C424.958 56.2519 429.468 53.5079 437.213 53.5079C439.174 53.5079 440.547 53.6059 442.312 53.8018C442.115 61.7398 437.507 66.3458 431.233 66.3458Z" fill="#6737AF"/>
<path d="M480.504 74.4796C485.504 74.4796 489.72 73.0096 493.74 70.4616L490.308 62.4256C487.857 63.9936 485.504 64.6796 482.955 64.6796C480.112 64.6796 478.151 63.4056 478.151 59.0936V38.9056H491.681V29.7916H478.151V15.7776H467.758L467.464 29.7916H459.719V38.3176L467.464 38.9056V60.1716C467.464 69.9716 472.66 74.4796 480.504 74.4796Z" fill="#6737AF"/>
<path d="M519.646 28.616C506.41 28.616 497.1 38.71 497.1 51.548C497.1 65.268 506.704 74.774 520.724 74.774C527.489 74.774 532.787 72.716 537.788 68.698L533.278 61.838C530.238 64.484 526.709 65.954 521.704 65.954C514.645 65.954 509.155 62.23 507.782 55.174H539.156C539.352 53.41 539.548 51.646 539.548 50.078C539.548 36.946 531.999 28.616 519.646 28.616ZM519.453 37.338C525.042 37.338 529.156 40.964 529.45 47.922H507.884C509.061 41.16 513.669 37.338 519.453 37.338Z" fill="#6737AF"/>
<path d="M24.5456 74.7741C37.7815 74.7741 48.272 67.4241 48.272 54.9781C48.272 43.6101 39.2521 38.0239 27.683 34.2999C20.82 31.9479 14.055 29.3999 14.055 23.3239C14.055 18.3259 19.2513 15.7779 25.1339 15.7779C30.6243 15.7779 35.5265 17.3459 41.2129 20.9719L46.2131 12.3479C38.86 7.44794 32.291 5.58594 24.5456 5.58594C12.4863 5.58594 2.28977 12.1519 2.28977 23.9119C2.28977 34.4959 11.0156 40.5719 22.1926 44.1981C29.7419 46.6481 36.605 49.2941 36.605 55.5661C36.605 61.4461 30.8204 64.4841 24.1534 64.4841C17.1924 64.4841 10.5254 61.9361 5.52521 57.6241L0.132812 66.6401C6.70173 71.8341 15.4276 74.7741 24.5456 74.7741Z" fill="#27242D"/>
<path d="M63.6894 20.6777C67.7092 20.6777 70.3564 17.9337 70.3564 14.4057C70.3564 10.7797 67.8072 7.93774 63.6894 7.93774C59.5716 7.93774 57.0225 10.7797 57.0225 14.3077C57.0225 17.8357 59.5716 20.6777 63.6894 20.6777ZM58.297 73.4999H68.9838V29.7917H58.297V73.4999Z" fill="#27242D"/>
<path d="M132.253 28.616C125.684 28.616 120.88 31.654 118.037 36.358C115.782 31.556 111.174 28.616 104.899 28.616C98.722 28.616 93.9179 31.556 90.9766 36.75L88.8197 29.792H81.5645V73.5001H92.2512V50.0781C92.2512 44.1981 95.2905 38.22 101.957 38.22C106.762 38.22 109.115 41.9441 109.115 46.4521V73.5001H119.703V50.0781C119.703 44.1981 122.743 38.22 129.508 38.22C133.822 38.22 136.567 41.2581 136.567 46.5501V73.5001H147.253V45.3741C147.253 35.084 141.861 28.616 132.253 28.616Z" fill="#27242D"/>
<path d="M184.411 28.7139C177.646 28.7139 172.156 31.6539 168.528 36.4559L166.469 29.7919H159.214V95.06H169.901V78.89C169.901 75.068 169.901 71.54 169.704 68.502C173.234 72.226 178.332 74.578 184.411 74.578C196.568 74.578 205.294 65.072 205.294 51.45C205.294 38.3179 196.47 28.7139 184.411 28.7139ZM182.156 65.268C174.705 65.268 169.508 59.78 169.508 51.548C169.508 43.512 174.607 38.1219 182.156 38.1219C189.509 38.1219 194.411 43.61 194.411 51.744C194.411 59.682 189.509 65.268 182.156 65.268Z" fill="#27242D"/>
<path d="M215.321 73.5001H226.106L226.008 2.93994H215.321V73.5001Z" fill="#27242D"/>
<path d="M258.486 28.616C245.251 28.616 235.937 38.71 235.937 51.5481C235.937 65.2681 245.545 74.7741 259.565 74.7741C266.33 74.7741 271.624 72.7161 276.624 68.6981L272.115 61.8381C269.075 64.4841 265.546 65.9541 260.545 65.9541C253.486 65.9541 247.996 62.2301 246.623 55.1741H277.997C278.193 53.4101 278.389 51.6461 278.389 50.0781C278.389 36.946 270.84 28.616 258.486 28.616ZM258.29 37.338C263.879 37.338 267.996 40.9641 268.291 47.9221H246.721C247.898 41.1601 252.506 37.338 258.29 37.338Z" fill="#27242D"/>
</svg>
