<svg width="133" height="133" viewBox="0 0 133 133" fill="none" xmlns="http://www.w3.org/2000/svg">
<circle cx="66.5" cy="66.5" r="66.5" fill="#131313"/>
<path d="M80.375 31.5C76.377 31.5 72.4463 33.0498 69.4141 36.082L42.4609 63.0352C33.9146 71.5815 33.9146 85.4849 42.4609 94.0312C51.0073 102.578 64.9106 102.578 73.457 94.0312L91.4258 76.0625L87.3828 72.0195L69.4141 89.9883C63.0688 96.3335 52.8491 96.3335 46.5039 89.9883C40.1587 83.6431 40.1587 73.4233 46.5039 67.0781L73.457 40.125C77.3203 36.2617 83.5195 36.2617 87.3828 40.125C91.2461 43.9883 91.2461 50.1875 87.3828 54.0508L60.4297 81.0039C59.0483 82.3853 56.8696 82.3853 55.4883 81.0039C54.1069 79.6226 54.1069 77.4438 55.4883 76.0625L80.1953 51.3555L76.1523 47.3125L51.4453 72.0195C47.8628 75.6021 47.8628 81.4644 51.4453 85.0469C55.0278 88.6294 60.8901 88.6294 64.4727 85.0469L91.4258 58.0938C97.4902 52.0293 97.4902 42.1465 91.4258 36.082C88.3936 33.0498 84.373 31.5 80.375 31.5Z" fill="white"/>
</svg>
