<svg width="133" height="133" viewBox="0 0 133 133" fill="none" xmlns="http://www.w3.org/2000/svg">
<circle cx="66.5" cy="66.5" r="66.5" fill="#131313"/>
<path d="M42.0957 30.3916L38.3604 34.127L43.9219 39.6885L47.6572 35.9531L42.0957 30.3916ZM90.9043 30.3916L85.3428 35.9531L89.0781 39.6885L94.6396 34.127L90.9043 30.3916ZM66.5 32.0518C65.6284 32.0621 64.7361 32.114 63.8438 32.2178C63.8126 32.2178 63.7919 32.2178 63.7607 32.2178C52.9905 33.4525 44.4199 42.158 42.9258 52.8867C41.7325 61.5195 45.2915 69.343 51.2266 74.3857C53.7687 76.5647 55.3354 79.47 55.875 82.4375V98.375H61.9346C62.858 99.9625 64.5389 101.031 66.5 101.031C68.4611 101.031 70.142 99.9625 71.0654 98.375H77.125V87.75H77.374V84.5957C77.374 80.7047 79.3973 76.7722 82.6865 73.7217C87.0859 69.3223 90.4062 63.0656 90.4062 55.875C90.4062 42.7494 79.6049 31.9272 66.5 32.0518ZM66.5 37.3643C76.7618 37.219 85.0938 45.6235 85.0938 55.875C85.0938 61.4365 82.5205 66.334 78.9512 69.9033L79.0342 69.9863C75.4648 73.317 73.1821 77.6749 72.5596 82.4375H60.9385C60.3574 77.8824 58.3964 73.483 54.7129 70.3184C50.0229 66.3236 47.2214 60.3263 48.1553 53.5508C49.3174 45.1774 56.1033 38.4537 64.4248 37.5303C65.12 37.4473 65.8152 37.3746 66.5 37.3643ZM29.3125 55.875V61.1875H37.2812V55.875H29.3125ZM95.7188 55.875V61.1875H103.688V55.875H95.7188ZM43.9219 77.374L38.3604 82.9355L42.0957 86.6709L47.6572 81.1094L43.9219 77.374ZM89.0781 77.374L85.3428 81.1094L90.9043 86.6709L94.6396 82.9355L89.0781 77.374ZM61.1875 87.75H71.8125V93.0625H61.1875V87.75Z" fill="white"/>
</svg>
