<svg width="133" height="133" viewBox="0 0 133 133" fill="none" xmlns="http://www.w3.org/2000/svg">
<circle cx="66.5" cy="66.5" r="66.5" fill="#131313"/>
<path d="M66.5312 43C57.8172 43 50.6875 50.1297 50.6875 58.8438C50.6875 63.6464 52.9279 67.9168 56.3318 70.8256C52.9527 72.5956 49.9943 75.2693 47.9148 78.4504C46.7885 76.8165 45.3031 75.3064 43.6568 74.1924C46.0086 71.8901 47.5188 68.709 47.5188 65.1812C47.5188 58.2125 41.8125 52.5063 34.8438 52.5063C27.875 52.5063 22.1688 58.2125 22.1688 65.1812C22.1688 68.709 23.6789 71.8901 26.0307 74.1924C21.8098 77.0517 19 81.9286 19 87.3625H25.3375C25.3375 82.1143 29.5955 77.8563 34.8438 77.8563C40.092 77.8563 44.35 82.1143 44.35 87.3625V90.5312H50.6875C50.6875 81.8048 57.8048 74.6875 66.5312 74.6875C75.2577 74.6875 82.375 81.8048 82.375 90.5312H88.7125V87.3625C88.7125 82.1143 92.9705 77.8563 98.2188 77.8563C103.467 77.8563 107.725 82.1143 107.725 87.3625H114.062C114.062 81.9286 111.253 77.0517 107.032 74.1924C109.384 71.8901 110.894 68.709 110.894 65.1812C110.894 58.2125 105.188 52.5063 98.2188 52.5063C91.25 52.5063 85.5438 58.2125 85.5438 65.1812C85.5438 68.709 87.0539 71.8901 89.4057 74.1924C87.7594 75.3064 86.274 76.8165 85.1477 78.4504C83.0682 75.2693 80.1098 72.5956 76.7307 70.8256C80.1346 67.9168 82.375 63.6464 82.375 58.8438C82.375 50.1297 75.2453 43 66.5312 43ZM66.5312 49.3375C71.8166 49.3375 76.0375 53.5584 76.0375 58.8438C76.0375 64.1291 71.8166 68.35 66.5312 68.35C61.2459 68.35 57.025 64.1291 57.025 58.8438C57.025 53.5584 61.2459 49.3375 66.5312 49.3375ZM34.8438 58.8438C38.3838 58.8438 41.1812 61.6412 41.1812 65.1812C41.1812 68.7213 38.3838 71.5188 34.8438 71.5188C31.3037 71.5188 28.5063 68.7213 28.5063 65.1812C28.5063 61.6412 31.3037 58.8438 34.8438 58.8438ZM98.2188 58.8438C101.759 58.8438 104.556 61.6412 104.556 65.1812C104.556 68.7213 101.759 71.5188 98.2188 71.5188C94.6787 71.5188 91.8812 68.7213 91.8812 65.1812C91.8812 61.6412 94.6787 58.8438 98.2188 58.8438Z" fill="white"/>
</svg>
