<svg width="106" height="16" viewBox="0 0 106 16" fill="none" xmlns="http://www.w3.org/2000/svg">
<path d="M22 5.26697C22 9.6436 25.6175 11.9758 28.2656 14.0634C29.2 14.8 30.1 15.4936 31 15.4936C31.9 15.4936 32.8 14.8 33.7344 14.0634C36.3825 11.9758 40 9.6436 40 5.26697C40 0.890329 35.0499 -2.2135 31 1.99415C26.9501 -2.2135 22 0.890329 22 5.26697Z" fill="#F97066"/>
<path d="M44 5.26697C44 9.6436 47.6175 11.9758 50.2656 14.0634C51.2 14.8 52.1 15.4936 53 15.4936C53.9 15.4936 54.8 14.8 55.7344 14.0634C58.3825 11.9758 62 9.6436 62 5.26697C62 0.890329 57.0499 -2.2135 53 1.99415C48.9501 -2.2135 44 0.890329 44 5.26697Z" fill="#F97066"/>
<path d="M0 5.26697C0 9.6436 3.61748 11.9758 6.26556 14.0634C7.2 14.8 8.1 15.4936 9 15.4936C9.9 15.4936 10.8 14.8 11.7344 14.0634C14.3825 11.9758 18 9.6436 18 5.26697C18 0.890329 13.0499 -2.2135 9 1.99415C4.95014 -2.2135 0 0.890329 0 5.26697Z" fill="#F97066"/>
<path d="M88 5.26697C88 9.6436 91.6175 11.9758 94.2656 14.0634C95.2 14.8 96.1 15.4936 97 15.4936C97.9 15.4936 98.8 14.8 99.7344 14.0634C102.382 11.9758 106 9.6436 106 5.26697C106 0.890329 101.05 -2.2135 97 1.99415C92.9501 -2.2135 88 0.890329 88 5.26697Z" fill="#F97066"/>
<path d="M66 5.26697C66 9.6436 69.6175 11.9758 72.2656 14.0634C73.2 14.8 74.1 15.4936 75 15.4936C75.9 15.4936 76.8 14.8 77.7344 14.0634C80.3825 11.9758 84 9.6436 84 5.26697C84 0.890329 79.0499 -2.2135 75 1.99415C70.9501 -2.2135 66 0.890329 66 5.26697Z" fill="#F97066"/>
</svg>
