<svg width="58" height="58" viewBox="0 0 58 58" fill="none" xmlns="http://www.w3.org/2000/svg">
<rect width="58" height="58" rx="29" fill="#C4FF02"/>
<path d="M15.5 28.9999C15.5 29.8279 16.172 30.4999 17 30.4999L36.6055 30.4999L30.8105 36.2949C30.224 36.8814 30.224 37.831 30.8105 38.416L30.9395 38.5449C31.526 39.1314 32.4755 39.1314 33.0605 38.5449L41.5449 30.0605C42.1314 29.474 42.1314 28.5244 41.5449 27.9394L33.0605 19.455C32.474 18.8685 31.5245 18.8685 30.9395 19.455L30.8105 19.5839C30.224 20.1704 30.224 21.12 30.8105 21.705L36.6055 27.4999L17 27.4999C16.172 27.4999 15.5 28.1719 15.5 28.9999Z" fill="black"/>
</svg>
