<svg width="17" height="22" viewBox="0 0 17 22" fill="none" xmlns="http://www.w3.org/2000/svg">
<path fill-rule="evenodd" clip-rule="evenodd" d="M0.837104 9.54817L14.2231 0.567616C15.4972 -0.369825 16.9464 0.773892 16.9464 1.99531L16.9464 20.0289C16.9464 20.6328 16.6328 21.2341 16.0579 21.5571C15.4719 21.8862 14.7818 21.8314 14.2658 21.4853L0.837045 12.476C0.263774 12.0995 0.0532228 11.4912 0.0532228 11.0121C0.0532228 10.533 0.263789 9.92473 0.837104 9.54817ZM2.73763 9.58441L2.71157 9.56692C2.72035 9.5727 2.72903 9.57852 2.73763 9.58441ZM2.71164 12.4573L2.73757 12.4399C2.72902 12.4457 2.72037 12.4515 2.71164 12.4573ZM4.86572 11.0121L13.5146 5.20968L13.5146 16.8146L4.86572 11.0121ZM16.1867 3.41698C16.1669 3.43088 16.1469 3.44426 16.1269 3.45711L16.1867 3.41698Z" fill="white"/>
</svg>
