<svg width="35" height="35" viewBox="0 0 35 35" fill="none" xmlns="http://www.w3.org/2000/svg">
<path fill-rule="evenodd" clip-rule="evenodd" d="M17.5 34.5834C26.9351 34.5834 34.5833 26.9352 34.5833 17.5001C34.5833 8.06496 26.9351 0.416748 17.5 0.416748C8.06487 0.416748 0.416664 8.06496 0.416664 17.5001C0.416664 26.9352 8.06487 34.5834 17.5 34.5834ZM26.6755 12.0932C26.7554 12.0109 26.8179 11.9133 26.8593 11.8063C26.9006 11.6992 26.92 11.585 26.9163 11.4703C26.9125 11.3556 26.8857 11.2429 26.8374 11.1388C26.7891 11.0347 26.7204 10.9414 26.6352 10.8645C26.5501 10.7876 26.4503 10.7286 26.3419 10.6911C26.2335 10.6535 26.1186 10.6382 26.0041 10.6461C25.8896 10.6539 25.7779 10.6848 25.6756 10.7368C25.5733 10.7887 25.4826 10.8608 25.4087 10.9486L15.1767 22.2552L9.54771 16.8817C9.38392 16.7251 9.16465 16.6401 8.93815 16.6452C8.71164 16.6503 8.49645 16.7452 8.33991 16.909C8.18338 17.0728 8.09831 17.292 8.10344 17.5186C8.10857 17.7451 8.20346 17.9603 8.36725 18.1168L14.6317 24.096L15.2664 24.7024L15.8549 24.0515L26.6755 12.0932Z" fill="#C4FF02"/>
</svg>
