<svg width="58" height="58" viewBox="0 0 58 58" fill="none" xmlns="http://www.w3.org/2000/svg">
<g clip-path="url(#clip0_181_564)">
<path d="M24.5385 0C20.7479 0 17.8462 2.90174 17.8462 6.69231V24.5385H10.4567C7.33714 24.5385 6.88402 25.0003 9.34135 27.6755L24.1202 42.3846C29.0261 47.2906 28.9739 47.2906 33.8798 42.3846L48.6587 27.8846C51.3338 24.9829 50.445 24.5385 47.5433 24.5385H40.1538V6.69231C40.1538 2.90174 37.2521 0 33.4615 0H24.5385ZM0 42.3846V51.3077C0 55.0983 2.90174 58 6.69231 58H51.3077C55.0983 58 58 55.0983 58 51.3077V42.3846H53.5385V51.3077C53.5385 52.6496 52.6496 53.5385 51.3077 53.5385H6.69231C5.35036 53.5385 4.46154 52.6496 4.46154 51.3077V42.3846H0Z" fill="black"/>
</g>
<defs>
<clipPath id="clip0_181_564">
<rect width="58" height="58" fill="white"/>
</clipPath>
</defs>
</svg>
