<svg width="45" height="45" viewBox="0 0 45 45" fill="none" xmlns="http://www.w3.org/2000/svg">
<path d="M22.5 0C10.0958 0 0 10.0958 0 22.5C0 34.9042 10.0958 45 22.5 45C34.9042 45 45 34.9042 45 22.5C45 10.0958 34.9042 0 22.5 0ZM22.5 3.75C32.8775 3.75 41.25 12.1225 41.25 22.5C41.25 31.9263 34.3344 39.6774 25.2905 41.0229V27.9675H30.6299L31.4685 22.5439H25.2905V19.5813C25.2905 17.3294 26.0304 15.3296 28.136 15.3296H31.5198V10.5981C30.9254 10.5175 29.6675 10.3418 27.29 10.3418C22.325 10.3418 19.4165 12.963 19.4165 18.9368V22.5439H14.3115V27.9675H19.4165V40.9753C10.5166 39.5075 3.75 31.8245 3.75 22.5C3.75 12.1225 12.1225 3.75 22.5 3.75Z" fill="black"/>
</svg>
