<svg width="44" height="44" viewBox="0 0 44 44" fill="none" xmlns="http://www.w3.org/2000/svg">
<path d="M22 0C9.86939 0 0 9.86843 0 22C0 34.1316 9.86939 44 22 44C34.1306 44 44 34.1316 44 22C44 9.86843 34.1306 0 22 0ZM15.3043 31.5652H11.4783V17.2174H15.3043V31.5652ZM13.3913 14.3478C12.3343 14.3478 11.4783 13.4917 11.4783 12.4348C11.4783 11.3778 12.3343 10.5217 13.3913 10.5217C14.4483 10.5217 15.3043 11.3778 15.3043 12.4348C15.3043 13.4917 14.4483 14.3478 13.3913 14.3478ZM33.4783 31.5652H29.6522V26.7826V24.3913C29.6522 22.55 28.1457 21.0435 26.3043 21.0435C24.463 21.0435 22.9565 22.55 22.9565 24.3913V31.5652H19.1304V17.2174H22.9565V18.9544C24.0737 17.8812 25.5889 17.2174 27.2609 17.2174C30.6948 17.2174 33.4783 20.0009 33.4783 23.4348V31.5652Z" fill="white"/>
</svg>
