<svg width="69" height="69" viewBox="0 0 69 69" fill="none" xmlns="http://www.w3.org/2000/svg">
<path d="M34.5 13.8C27.1814 13.8 24.15 18.4943 24.15 24.15C24.15 26.0544 25.0619 27.9684 25.0619 27.9684C24.6962 28.18 24.088 28.8525 24.2398 30.0393C24.5227 32.2519 25.4833 32.8099 26.0951 32.8559C26.3274 34.9213 28.5499 37.5659 29.325 37.95V41.0362C27.6 46.2112 13.8 45.425 13.8 57.5H55.2C55.2 45.425 41.4 46.2112 39.675 41.0362V37.95C40.4524 37.5659 42.6726 34.9213 42.9049 32.8559C43.5167 32.8099 44.4773 32.2519 44.7602 30.0393C44.912 28.8502 44.3038 28.18 43.9381 27.9684C43.9381 27.9684 44.85 26.2407 44.85 24.15C44.85 19.9617 43.2055 16.3875 39.675 16.3875C39.675 16.3875 38.4491 13.8 34.5 13.8ZM51.75 18.3956C50.5724 18.3956 49.5704 18.6086 48.6504 18.9122C49.1541 20.4739 49.45 22.2157 49.45 24.15C49.45 25.3736 49.2581 26.4954 49.0143 27.4338C49.3478 28.4205 49.4623 29.5056 49.3197 30.6188C48.9954 33.1511 48.0122 34.8722 46.7771 35.9555C46.4183 36.8249 45.927 37.6486 45.398 38.4352C46.0512 39.7761 47.0074 40.9699 47.4375 41.2114V41.2383C52.1226 43.4348 59.8 47.127 59.8 57.5H69C69 46.0966 57.5 47.734 56.0625 42.8465V41.2069C56.7088 40.8435 58.5601 38.3462 58.7533 36.3958C59.2616 36.3521 60.064 35.8271 60.2986 33.7364C60.4251 32.614 59.9194 31.9824 59.6158 31.7823C59.6158 31.7823 60.375 30.1461 60.375 28.175C60.375 24.219 59.0042 20.8438 56.0625 20.8438C56.0625 20.8438 55.0413 18.3956 51.75 18.3956ZM17.25 18.4C13.9587 18.4 12.9375 20.8438 12.9375 20.8438C9.9958 20.8438 8.625 24.2235 8.625 28.1795C8.625 30.1529 9.38418 31.7823 9.38418 31.7823C9.07828 31.9801 8.57487 32.614 8.70137 33.7364C8.93597 35.8271 9.73838 36.3565 10.2467 36.4002C10.4399 38.3506 12.2912 40.848 12.9375 41.2114V42.8465C11.5 47.7317 0 46.0966 0 57.5H9.2C9.2 47.127 16.8774 43.4371 21.5625 41.2383V41.2069C21.9926 40.9654 22.9488 39.7784 23.602 38.4352C23.073 37.6486 22.5817 36.8204 22.2229 35.951C20.9878 34.87 20.0023 33.1488 19.6803 30.6188C19.5354 29.4918 19.6543 28.3893 19.9947 27.3934C19.7463 26.4481 19.55 25.3253 19.55 24.15C19.55 22.2479 19.8193 20.4994 20.3092 18.9032C19.4007 18.6065 18.4115 18.4 17.25 18.4Z" fill="black"/>
</svg>
