<svg width="54" height="54" viewBox="0 0 54 54" fill="none" xmlns="http://www.w3.org/2000/svg">
<path d="M27 5.3999C15.0714 5.3999 5.40002 15.0713 5.40002 26.9999C5.40002 31.0521 6.53824 34.83 8.47971 38.0706L5.59338 48.5999L16.3477 45.7769C19.4929 47.565 23.1237 48.5999 27 48.5999C38.9286 48.5999 48.6 38.9285 48.6 26.9999C48.6 15.0713 38.9286 5.3999 27 5.3999ZM19.6067 16.9241C19.9577 16.9241 20.3183 16.922 20.6297 16.9382C21.0149 16.9472 21.4342 16.9754 21.8356 17.8628C22.3126 18.9176 23.3512 21.5637 23.4844 21.8319C23.6176 22.1001 23.712 22.4161 23.5266 22.7671C23.3502 23.1271 23.2584 23.345 22.9992 23.6636C22.731 23.9732 22.4372 24.3577 22.1942 24.5917C21.926 24.8599 21.649 25.154 21.9586 25.6886C22.2682 26.2232 23.3434 27.9757 24.9328 29.3905C26.9758 31.2157 28.6996 31.7766 29.236 32.0448C29.7724 32.313 30.083 32.2712 30.3926 31.9112C30.7112 31.5602 31.7306 30.3558 32.0907 29.8194C32.4417 29.283 32.8 29.3758 33.286 29.5522C33.7792 29.7286 36.4093 31.0243 36.9457 31.2925C37.4821 31.5607 37.8338 31.6934 37.9688 31.9112C38.1074 32.1362 38.1075 33.2073 37.6629 34.4565C37.2183 35.7039 35.0351 36.9102 34.0559 36.9948C33.0677 37.0866 32.1454 37.439 27.6328 35.6624C22.1896 33.5186 18.7569 27.9435 18.4887 27.5835C18.2205 27.2325 16.309 24.6849 16.309 22.0569C16.309 19.4199 17.6916 18.1285 18.1758 17.5921C18.669 17.0557 19.2467 16.9241 19.6067 16.9241Z" fill="white"/>
</svg>
