<svg width="18" height="22" viewBox="0 0 18 22" fill="none" xmlns="http://www.w3.org/2000/svg">
<path fill-rule="evenodd" clip-rule="evenodd" d="M16.6627 12.4518L3.27668 21.4324C2.00266 22.3698 0.55339 21.2261 0.55339 20.0047L0.55339 1.97106C0.55339 1.36724 0.866975 0.765908 1.44196 0.442948C2.02793 0.113818 2.71797 0.168558 3.23399 0.514733L16.6628 9.52397C17.236 9.90053 17.4466 10.5088 17.4466 10.9879C17.4466 11.467 17.236 12.0753 16.6627 12.4518ZM14.7622 12.4156L14.7882 12.4331C14.7795 12.4273 14.7708 12.4215 14.7622 12.4156ZM14.7882 9.54273L14.7622 9.56013C14.7708 9.55428 14.7794 9.54848 14.7882 9.54273ZM12.6341 10.9879L3.98522 16.7903L3.98523 5.18544L12.6341 10.9879ZM1.3131 18.583C1.33293 18.5691 1.35288 18.5557 1.37292 18.5429L1.3131 18.583Z" fill="#131313"/>
</svg>
