<svg width="59" height="58" viewBox="0 0 59 58" fill="none" xmlns="http://www.w3.org/2000/svg">
<path d="M29.5 57.8544C45.7924 57.8544 59 44.9032 59 28.9272C59 12.9511 45.7924 0 29.5 0C13.2076 0 0 12.9511 0 28.9272C0 44.9032 13.2076 57.8544 29.5 57.8544Z" fill="#86F9D7"/>
<path fill-rule="evenodd" clip-rule="evenodd" d="M32.6415 11.8523L50.3033 38.1782C52.1469 40.6837 49.8976 43.534 47.4955 43.534H12.0293C10.8418 43.534 9.65918 42.9173 9.02403 41.7865C8.37674 40.634 8.48439 39.277 9.1652 38.2621L26.8834 11.8522C27.6239 10.7248 28.8202 10.3107 29.7624 10.3107C30.7047 10.3107 31.9009 10.7248 32.6415 11.8523ZM32.5702 15.59L32.6046 15.5388C32.5933 15.556 32.5818 15.5731 32.5702 15.59ZM26.9203 15.5389L26.9545 15.5899C26.943 15.5731 26.9316 15.5561 26.9203 15.5389ZM29.7624 19.7752L41.1739 36.7847H18.3509L29.7624 19.7752ZM44.6995 42.0399C44.6722 42.0009 44.6459 41.9616 44.6206 41.9222L44.6995 42.0399Z" fill="#131313"/>
</svg>
