<svg width="59" height="59" viewBox="0 0 59 59" fill="none" xmlns="http://www.w3.org/2000/svg">
<path d="M29.5 58.4271C45.7924 58.4271 59 45.476 59 29.4999C59 13.5239 45.7924 0.572754 29.5 0.572754C13.2076 0.572754 0 13.5239 0 29.4999C0 45.476 13.2076 58.4271 29.5 58.4271Z" fill="#C4FF02"/>
<path fill-rule="evenodd" clip-rule="evenodd" d="M32.6415 12.4252L50.3033 38.751C52.1469 41.2566 49.8976 44.1068 47.4955 44.1068H12.0293C10.8418 44.1068 9.65918 43.4901 9.02403 42.3593C8.37674 41.2069 8.48439 39.8498 9.1652 38.835L26.8834 12.4251C27.6239 11.2976 28.8202 10.8835 29.7624 10.8835C30.7047 10.8835 31.9009 11.2977 32.6415 12.4252ZM32.5702 16.1629L32.6046 16.1116C32.5933 16.1289 32.5818 16.146 32.5702 16.1629ZM26.9203 16.1118L26.9545 16.1628C26.943 16.1459 26.9316 16.1289 26.9203 16.1118ZM29.7624 20.3481L41.1739 37.3576H18.3509L29.7624 20.3481ZM44.6995 42.6128C44.6722 42.5737 44.6459 42.5345 44.6206 42.4951L44.6995 42.6128Z" fill="#131313"/>
</svg>
