<svg width="97" height="100" viewBox="0 0 97 100" fill="none" xmlns="http://www.w3.org/2000/svg">
<path d="M96.9999 49.9999C96.9999 22.8177 75.3922 0.782132 48.7377 0.782133C22.0833 0.782134 0.475583 22.8177 0.475584 49.9999C0.475585 77.1822 22.0833 99.2178 48.7377 99.2178C75.3922 99.2178 96.9999 77.1822 96.9999 49.9999Z" fill="#C4FF02"/>
<path fill-rule="evenodd" clip-rule="evenodd" d="M20.2498 44.7586L64.1719 15.2917C68.3522 12.2158 73.1075 15.9686 73.1075 19.9763L73.1075 79.148C73.1075 81.1292 72.0786 83.1023 70.1919 84.162C68.2693 85.242 66.0051 85.0624 64.312 83.9265L20.2496 54.3655C18.3686 53.1299 17.6777 51.1342 17.6777 49.5621C17.6777 47.99 18.3686 45.9942 20.2498 44.7586ZM26.4858 44.8775L26.4003 44.8202C26.4291 44.8391 26.4576 44.8582 26.4858 44.8775ZM26.4005 54.3039L26.4856 54.2468C26.4575 54.266 26.4292 54.2851 26.4005 54.3039ZM33.4684 49.5621L61.847 30.5232L61.847 68.601L33.4684 49.5621ZM70.6148 24.641C70.5497 24.6867 70.4842 24.7305 70.4185 24.7727L70.6148 24.641Z" fill="#131313"/>
</svg>
