<svg width="175" height="165" viewBox="0 0 175 165" fill="none" xmlns="http://www.w3.org/2000/svg">
<path d="M94.6562 43.5957C103.401 15.9609 113.901 18.647 116.51 24.6932C121.586 36.4697 96.2514 43.3007 96.2514 43.3007L94.6562 43.5957Z" fill="#B872C4"/>
<path d="M100.98 36.2114C98.683 32.8723 103.738 22.4652 110.171 20.7798C105.749 21.3802 99.8884 27.0578 94.6562 43.5954L96.2514 43.3005C96.2514 43.3005 104.014 41.2043 110.088 37.3385C105.973 38.6447 102.445 38.3445 100.98 36.2114Z" fill="#9756A5"/>
<path d="M112.584 24.7036C112.584 24.7036 103.387 32.6143 97.625 39.9351L97.6614 40.7251C100.166 36.9594 112.864 25.0091 112.864 25.0091L112.584 24.7036Z" fill="#9756A5"/>
<path d="M101.929 35.4426L101.633 35.7586C104.724 36.7435 108.382 36.4854 108.382 36.4854L108.522 36.022C108.522 36.022 104.023 36.2221 101.929 35.4426Z" fill="#9756A5"/>
<path d="M104.577 32.8618L104.219 33.1778C108.116 34.168 112.672 33.9152 112.672 33.9152L112.839 33.4517C112.833 33.4517 107.212 33.6413 104.577 32.8618Z" fill="#9756A5"/>
<path d="M107.242 30.0229L106.961 30.3495C109.839 31.2238 113.258 30.834 113.258 30.834L113.399 30.3653C113.399 30.3653 109.185 30.7287 107.242 30.0229Z" fill="#9756A5"/>
<path d="M110.301 27.0368L110.031 27.3844C112.801 27.9901 116.1 27.2896 116.1 27.2896L116.235 26.8103C116.235 26.8156 112.172 27.5529 110.301 27.0368Z" fill="#9756A5"/>
<path d="M102.991 34.389L102.622 34.7261C102.403 31.3027 102.305 29.612 102.305 29.612L102.783 29.4382C102.783 29.4382 102.736 32.0769 102.991 34.389Z" fill="#9756A5"/>
<path d="M105.608 31.6502L105.254 32.0189C104.916 28.132 104.844 25.683 104.844 25.683L105.311 25.5039C105.311 25.5039 105.275 29.0221 105.608 31.6502Z" fill="#9756A5"/>
<path d="M108.48 28.8273L108.122 29.1381C107.846 26.0465 107.773 24.6561 107.773 24.6561L108.246 24.4981C108.241 24.4928 108.189 26.7417 108.48 28.8273Z" fill="#9756A5"/>
<path d="M111.239 26.0098L110.891 26.2942C110.543 23.4554 110.616 22.2493 110.616 22.2493L111.078 22.1018C111.073 22.1018 110.901 24.0979 111.239 26.0098Z" fill="#9756A5"/>
<path d="M95.3911 28.58C90.4603 -0.00804048 100.992 -2.57823 106.074 1.55092C115.966 9.58275 96.6693 27.5688 96.6693 27.5688L95.3911 28.58Z" fill="#9972C1"/>
<path d="M108.505 9.58259C106.188 17.0509 101.439 22.1912 97.9005 21.0589C94.3621 19.9318 93.3749 12.9586 95.6975 5.49031C95.8274 5.0637 95.9728 4.64762 96.1183 4.23682C94.0556 8.37123 93.2087 15.9238 95.3909 28.5798L96.6691 27.5686C96.6691 27.5686 108.069 16.9403 108.853 8.3765C108.744 8.77678 108.63 9.17705 108.505 9.58259Z" fill="#8562B2"/>
<path d="M92.5535 34.4947C70.4714 16.0188 76.8258 7.12852 83.3361 6.91258C96.0035 6.49651 92.8756 32.883 92.8756 32.883L92.5535 34.4947Z" fill="#C172B8"/>
<path d="M90.7616 11.8684C92.7828 18.5256 91.8735 24.6035 88.4028 26.036C86.6933 26.7418 84.6514 26.1993 82.6406 24.7351C84.9943 27.6266 88.2261 30.8762 92.549 34.4945L92.8711 32.8828C92.8763 32.8828 94.4714 19.4104 90.7616 11.8684Z" fill="#AF5FAA"/>
<path d="M93.1061 46.2658C65.7347 37.7442 68.2546 27.0684 74.1934 24.3455C85.7437 19.0524 92.7995 44.6489 92.7995 44.6489L93.1061 46.2658Z" fill="#9972C1"/>
<path d="M81.3491 25.0196C86.55 29.3173 88.5972 35.2635 85.9162 38.2919C84.134 40.309 80.7048 40.5197 77.0781 39.1767C80.6268 41.5625 85.8019 43.9905 93.1019 46.2605L92.7902 44.6436C92.7902 44.6436 88.3062 28.3693 80.632 24.4561C80.8711 24.6457 81.1101 24.8247 81.3491 25.0196Z" fill="#8562B2"/>
<path d="M75.692 27.395C75.692 27.395 84.2131 34.621 89.4557 41.273L89.3881 41.9787C87.1383 38.5658 75.4062 27.6636 75.4062 27.6636L75.692 27.395Z" fill="#8562B2"/>
<path d="M85.495 37.1858L85.7652 37.4702C82.7465 38.3182 79.2445 38.039 79.2445 38.039L79.125 37.6229C79.125 37.6229 83.4479 37.8547 85.495 37.1858Z" fill="#8562B2"/>
<path d="M83.0537 34.8318L83.3862 35.1215C79.5933 35.9641 75.2184 35.6745 75.2184 35.6745L75.0781 35.2584C75.0833 35.2531 80.4817 35.5007 83.0537 34.8318Z" fill="#8562B2"/>
<path d="M80.6107 32.2458L80.8653 32.5408C78.0595 33.2887 74.7862 32.8989 74.7862 32.8989L74.6719 32.4776C74.6719 32.4776 78.709 32.8568 80.6107 32.2458Z" fill="#8562B2"/>
<path d="M77.7987 29.5228L78.0481 29.8388C75.3567 30.3444 72.2081 29.6755 72.2081 29.6755L72.0938 29.2437C72.0938 29.2489 75.975 29.9652 77.7987 29.5228Z" fill="#8562B2"/>
<path d="M84.5234 36.222L84.8612 36.5327C85.2145 33.457 85.3755 31.9401 85.3755 31.9401L84.9235 31.7769C84.9287 31.7769 84.8612 34.1522 84.5234 36.222Z" fill="#8562B2"/>
<path d="M82.125 33.731L82.4523 34.0681C82.9407 30.5815 83.1122 28.38 83.1122 28.38L82.6706 28.2114C82.6654 28.2114 82.5563 31.3768 82.125 33.731Z" fill="#8562B2"/>
<path d="M79.4688 31.1553L79.8013 31.4397C80.1962 28.6641 80.3209 27.4159 80.3209 27.4159L79.874 27.2632C79.874 27.2685 79.8325 29.2856 79.4688 31.1553Z" fill="#8562B2"/>
<path d="M76.9375 28.5904L77.2596 28.8538C77.7117 26.3099 77.6961 25.225 77.6961 25.225L77.2596 25.0828C77.2544 25.0828 77.3428 26.8735 76.9375 28.5904Z" fill="#8562B2"/>
<path d="M102.89 4.02612C102.89 4.02612 98.1464 15.7868 96.2344 25.2407L96.6189 25.9201C97.1852 21.2959 103.275 4.14726 103.275 4.14726L102.89 4.02612Z" fill="#8562B2"/>
<path d="M98.0934 19.0363L97.9688 19.4682C101.195 18.7308 104.375 16.6083 104.375 16.6083L104.297 16.1238C104.297 16.129 100.328 18.636 98.0934 19.0363Z" fill="#8562B2"/>
<path d="M99.3303 15.3812L99.1484 15.8447C103.102 14.6965 107.098 12.1106 107.098 12.1106L107.041 11.6155C107.036 11.6207 102.058 14.7071 99.3303 15.3812Z" fill="#8562B2"/>
<path d="M100.455 11.4945L100.352 11.9264C103.339 11.2048 106.244 9.08757 106.244 9.08757L106.16 8.60303C106.16 8.60303 102.523 11.11 100.455 11.4945Z" fill="#8562B2"/>
<path d="M101.87 7.27032L101.781 7.71799C104.545 6.81737 107.211 4.48419 107.211 4.48419L107.123 3.99438C107.117 3.99438 103.787 6.75944 101.87 7.27032Z" fill="#8562B2"/>
<path d="M98.5819 17.5617L98.4052 18.0515C96.675 15.1443 95.8281 13.6959 95.8281 13.6959L96.1814 13.2957C96.1762 13.2957 97.3193 15.6499 98.5819 17.5617Z" fill="#8562B2"/>
<path d="M99.7054 13.7852L99.5547 14.2961C97.5076 11.036 96.3438 8.91347 96.3438 8.91347L96.6867 8.51319C96.6867 8.50792 98.2298 11.6364 99.7054 13.7852Z" fill="#8562B2"/>
<path d="M101.033 9.79838L100.846 10.2566C99.2093 7.67061 98.5234 6.47505 98.5234 6.47505L98.8767 6.09058C98.8819 6.09584 99.838 8.10775 101.033 9.79838Z" fill="#8562B2"/>
<path d="M102.25 5.88001L102.063 6.31189C100.478 3.98397 100 2.88322 100 2.88322L100.348 2.50928C100.348 2.51454 101.086 4.36845 102.25 5.88001Z" fill="#8562B2"/>
<path d="M83.9157 10.3464C83.9157 10.3464 89.257 21.3382 91.5847 30.2917L91.2106 30.9659C90.452 26.5628 83.5156 10.4886 83.5156 10.4886L83.9157 10.3464Z" fill="#AF5FAA"/>
<path d="M89.432 24.456L89.5775 24.8615C86.2106 24.3559 82.8438 22.5178 82.8438 22.5178L82.9061 22.0491C82.9061 22.0491 87.1043 24.2137 89.432 24.456Z" fill="#AF5FAA"/>
<path d="M88.0168 21.0273L88.2246 21.4644C84.0887 20.6112 79.8594 18.3728 79.8594 18.3728L79.9009 17.8936C79.9009 17.8936 85.1643 20.548 88.0168 21.0273Z" fill="#AF5FAA"/>
<path d="M86.7041 17.3672L86.8288 17.778C83.7113 17.2724 80.625 15.4185 80.625 15.4185L80.6925 14.9497C80.6925 14.9444 84.5478 17.1249 86.7041 17.3672Z" fill="#AF5FAA"/>
<path d="M85.088 13.4012L85.1971 13.8278C82.2978 13.1326 79.4609 11.0628 79.4609 11.0628L79.5389 10.5835C79.5337 10.5835 83.0824 13.0273 85.088 13.4012Z" fill="#AF5FAA"/>
<path d="M88.875 23.0709L89.0776 23.5292C90.7611 20.6272 91.582 19.1893 91.582 19.1893L91.2027 18.8259C91.2027 18.8259 90.1116 21.1591 88.875 23.0709Z" fill="#AF5FAA"/>
<path d="M87.5625 19.5159L87.7392 19.9951C89.7395 16.7403 90.8618 14.6283 90.8618 14.6283L90.4929 14.2649C90.4981 14.2649 89.0121 17.367 87.5625 19.5159Z" fill="#AF5FAA"/>
<path d="M86.0469 15.7761L86.2547 16.208C87.8498 13.622 88.5149 12.437 88.5149 12.437L88.1356 12.0894C88.1408 12.0841 87.2263 14.0802 86.0469 15.7761Z" fill="#AF5FAA"/>
<path d="M84.6406 12.0897L84.8485 12.4952C86.4072 10.1673 86.8592 9.07707 86.8592 9.07707L86.4851 8.73999C86.4799 8.73999 85.7889 10.5676 84.6406 12.0897Z" fill="#AF5FAA"/>
<path d="M163.552 138.514C159.343 138.656 156.958 138.477 157.561 136.633C158.413 134.016 164.477 135.053 164.482 136.923L163.552 138.514Z" fill="#8C892F"/>
<path d="M117.57 132.551C119.805 109.199 142.687 101.204 152.902 114.781C154.954 117.51 152.668 124.73 146.402 126.795C138.603 129.36 128.939 126.79 124.855 127.927C120.662 129.096 117.57 132.551 117.57 132.551Z" fill="#9972C1"/>
<path d="M147.55 124.688C137.59 124.051 129.76 119.616 130.061 114.781C130.232 112.001 133.064 109.694 137.33 108.356C128.102 109.678 118.942 118.21 117.57 132.552C117.57 132.552 120.662 129.091 124.86 127.922C128.939 126.784 138.603 129.355 146.407 126.79C147.794 126.331 148.974 125.615 149.966 124.757C149.171 124.762 148.366 124.741 147.55 124.688Z" fill="#8562B2"/>
<path d="M119.419 128.812C119.403 128.807 119.393 128.802 119.377 128.796C119.268 128.744 119.221 128.623 119.268 128.522C125.768 115.54 144.509 115.129 149.819 117.341C149.928 117.389 149.986 117.51 149.939 117.61C149.892 117.71 149.767 117.757 149.658 117.71C145.502 115.977 126.381 115.292 119.668 128.707C119.621 128.796 119.517 128.838 119.419 128.812Z" fill="#7052A0"/>
<path d="M143.967 116.693C143.852 116.661 143.78 116.556 143.8 116.451C143.826 116.34 144.419 113.67 145.042 112.411C145.089 112.311 145.219 112.269 145.328 112.322C145.437 112.374 145.484 112.495 145.437 112.596C144.834 113.817 144.232 116.525 144.226 116.551C144.2 116.661 144.086 116.725 143.972 116.698C143.967 116.693 143.967 116.693 143.967 116.693Z" fill="#7052A0"/>
<path d="M146.863 123.856C146.842 123.851 146.816 123.84 146.795 123.83C146.749 123.798 142.072 120.875 139.854 116.841C139.797 116.74 139.838 116.619 139.947 116.572C140.051 116.525 140.186 116.567 140.238 116.667C142.4 120.596 146.977 123.461 147.024 123.492C147.128 123.556 147.159 123.682 147.091 123.772C147.045 123.851 146.951 123.882 146.863 123.856Z" fill="#7052A0"/>
<path d="M135.051 117.483C134.942 117.457 134.869 117.357 134.885 117.251C135.093 115.798 137.005 112.575 137.088 112.438C137.145 112.343 137.275 112.311 137.384 112.369C137.488 112.427 137.53 112.554 137.472 112.648C137.452 112.68 135.514 115.945 135.321 117.325C135.306 117.436 135.197 117.51 135.077 117.488C135.067 117.488 135.056 117.488 135.051 117.483Z" fill="#7052A0"/>
<path d="M137.67 123.851C137.644 123.846 137.624 123.835 137.603 123.819C137.442 123.714 133.592 121.212 131.519 118.779C131.441 118.69 131.456 118.563 131.55 118.495C131.643 118.426 131.778 118.447 131.856 118.537C133.888 120.923 137.8 123.466 137.842 123.493C137.941 123.556 137.972 123.682 137.904 123.777C137.847 123.84 137.754 123.872 137.67 123.851Z" fill="#7052A0"/>
<path d="M127.962 120.117C127.873 120.096 127.806 120.027 127.795 119.938C127.343 116.714 130.419 114.323 130.549 114.223C130.637 114.155 130.778 114.171 130.856 114.255C130.934 114.344 130.923 114.471 130.835 114.539C130.804 114.56 127.806 116.894 128.227 119.901C128.242 120.011 128.159 120.112 128.04 120.122C128.014 120.122 127.988 120.122 127.962 120.117Z" fill="#7052A0"/>
<path d="M128.572 125.241C126.826 124.799 124.846 124.025 124.062 122.724C123.999 122.624 124.036 122.503 124.14 122.45C124.244 122.397 124.379 122.439 124.436 122.534C125.823 124.831 131.663 125.378 131.72 125.389C131.84 125.399 131.933 125.499 131.928 125.61C131.923 125.721 131.819 125.805 131.7 125.794C131.58 125.779 130.172 125.647 128.572 125.241Z" fill="#7052A0"/>
<path d="M122.24 124.451C122.162 124.43 122.094 124.372 122.074 124.288C121.767 122.971 122.775 120.111 122.817 119.99C122.853 119.885 122.972 119.832 123.092 119.869C123.206 119.906 123.269 120.027 123.232 120.127C123.222 120.154 122.219 123.008 122.5 124.214C122.526 124.325 122.453 124.43 122.333 124.446C122.302 124.462 122.271 124.462 122.24 124.451Z" fill="#7052A0"/>
<path d="M122.761 127.079C122.174 126.932 121.55 126.721 121.046 126.426C120.942 126.363 120.906 126.242 120.968 126.147C121.03 126.052 121.16 126.026 121.264 126.089C122.475 126.8 124.584 127 124.61 127.006C124.73 127.016 124.823 127.116 124.813 127.227C124.808 127.337 124.704 127.422 124.584 127.411C124.532 127.401 123.696 127.322 122.761 127.079Z" fill="#7052A0"/>
<path d="M170.96 134.901C169.463 132.804 165.681 134.247 165.109 137.792L165.681 139.24C170.321 139.746 172.461 136.997 170.96 134.901Z" fill="#8C892F"/>
<path d="M166.401 116.319C162.337 116.683 160.051 123.477 164.831 132.946L166.26 132.151C170.677 120.006 170.464 115.961 166.401 116.319Z" fill="#8C892F"/>
<path d="M166.4 116.319C163.23 116.598 161.147 120.791 162.643 127.106C162.965 127.632 163.371 127.99 163.864 128.112C165.782 128.596 168.208 125.415 169.289 121.012C169.372 120.67 169.445 120.333 169.507 119.995C169.621 117.172 168.551 116.13 166.4 116.319Z" fill="#A5A537"/>
<path d="M159.509 135.174C158.584 135.369 157.826 135.827 157.561 136.633C157.192 137.76 157.95 138.266 159.561 138.456C160.314 138.071 160.797 137.486 160.797 136.828C160.792 136.154 160.288 135.559 159.509 135.174Z" fill="#A5A537"/>
<path d="M154.036 126.658C151.542 130.129 158.816 134.974 164.376 137.07L164.947 136.491C164.381 131.066 156.535 123.187 154.036 126.658Z" fill="#A5A537"/>
<path d="M154.035 126.658C153.219 127.79 153.453 129.07 154.315 130.35C157.064 133.194 160 134.579 161.34 133.489C162.109 132.862 162.203 131.53 161.735 129.876C159.096 126.663 155.562 124.535 154.035 126.658Z" fill="#BAB635"/>
<path d="M172.916 125.51C171.242 124.609 163.963 129.26 165.512 136.712L166.509 136.27C173.97 131.867 174.594 126.405 172.916 125.51Z" fill="#A5A537"/>
<path d="M172.92 125.51C172.296 125.173 170.888 125.615 169.449 126.684C167.033 130.339 166.337 134.116 167.921 135.259C167.952 135.28 167.984 135.29 168.015 135.311C174.047 131.103 174.478 126.342 172.92 125.51Z" fill="#BAB635"/>
<path d="M164.299 137.107C161.867 133.22 163.686 131.177 165.504 131.572C167.323 131.967 165.837 136.765 165.837 136.765L164.299 137.107Z" fill="#BAB635"/>
<path d="M165.514 136.707C163.202 136.565 157.84 139.672 156.203 144.66L172.107 144.949C171.681 143.722 167.826 136.854 165.514 136.707Z" fill="#662C22"/>
<path d="M114.255 94.641C100.055 67.3065 122.682 36.0113 145.242 40.4881C149.778 41.3887 152.184 51.4219 145.897 59.854C138.067 70.3507 124.189 77.1659 119.944 82.4379C115.585 87.8522 114.255 94.641 114.255 94.641Z" fill="#C172B8"/>
<path d="M117.388 74.3009C112.494 68.913 113.907 59.1273 120.137 50.137C110.359 60.8496 105.838 78.4406 114.255 94.6412C114.255 94.6412 115.586 87.8523 119.95 82.4381C121.067 81.0529 122.849 79.5624 125.011 77.9245C121.94 77.5821 119.295 76.3971 117.388 74.3009Z" fill="#AF5FAA"/>
<path d="M118.677 114.776C114.229 84.0865 141.097 66.4587 158.456 80.5947C161.948 83.4387 161.272 93.4403 153.878 98.1014C144.672 103.905 131.464 103.716 126.58 106.491C121.561 109.346 118.677 114.776 118.677 114.776Z" fill="#B872C4"/>
<path d="M124.544 94.5253C122.991 87.5837 129.953 79.8994 140.61 76.0916C127.345 78.7829 115.618 93.6984 118.678 114.781C118.678 114.781 121.567 109.346 126.581 106.497C128.727 105.275 132.484 104.632 136.806 103.795C130.348 102.541 125.599 99.239 124.544 94.5253Z" fill="#9756A5"/>
<path d="M119.005 110.157C118.984 110.157 118.969 110.152 118.948 110.147C118.792 110.11 118.693 109.957 118.724 109.804C122.876 90.0012 146.584 83.9023 154.03 85.377C154.186 85.4086 154.295 85.5561 154.269 85.7088C154.243 85.8615 154.097 85.9616 153.942 85.93C148.107 84.7713 123.577 89.4851 119.286 109.941C119.26 110.073 119.14 110.162 119.005 110.157Z" fill="#854C93"/>
<path d="M146.392 86.2092C146.236 86.2039 146.111 86.0775 146.106 85.9195C146.101 85.7563 146.012 81.9062 146.402 79.9891C146.433 79.8364 146.584 79.7416 146.74 79.7785C146.896 79.8153 146.994 79.9681 146.963 80.1208C146.584 81.98 146.677 85.8879 146.677 85.9301C146.683 86.0881 146.558 86.2092 146.397 86.2092C146.397 86.2092 146.397 86.2092 146.392 86.2092Z" fill="#854C93"/>
<path d="M152.331 95.2206C152.3 95.2206 152.269 95.2154 152.238 95.1996C152.17 95.1732 145.296 92.524 141.202 87.6312C141.098 87.5101 141.114 87.331 141.233 87.2309C141.353 87.1361 141.534 87.1572 141.638 87.2783C145.634 92.05 152.362 94.6465 152.43 94.6729C152.581 94.7308 152.659 94.8941 152.607 95.0416C152.56 95.1574 152.451 95.2259 152.331 95.2206Z" fill="#854C93"/>
<path d="M135.305 89.9382C135.159 89.9329 135.034 89.8171 135.019 89.6696C134.821 87.6103 136.235 82.6016 136.297 82.3909C136.339 82.2435 136.5 82.1592 136.65 82.2066C136.801 82.254 136.889 82.412 136.848 82.5647C136.832 82.6174 135.403 87.684 135.59 89.638C135.606 89.796 135.492 89.9277 135.331 89.9382C135.32 89.9382 135.31 89.9382 135.305 89.9382Z" fill="#854C93"/>
<path d="M140.636 97.9276C140.605 97.9276 140.569 97.9171 140.538 97.9065C140.299 97.8117 134.609 95.4996 131.206 92.7609C131.081 92.6608 131.055 92.4817 131.154 92.3606C131.253 92.2395 131.429 92.2237 131.554 92.3237C134.89 95.0045 140.678 97.3535 140.735 97.3799C140.886 97.4378 140.959 97.6063 140.907 97.7485C140.86 97.8644 140.751 97.9329 140.636 97.9276Z" fill="#854C93"/>
<path d="M127.11 95.6528C126.996 95.6476 126.887 95.5738 126.84 95.458C125.245 91.155 128.399 86.9521 128.534 86.7783C128.627 86.6572 128.804 86.6361 128.934 86.7362C129.064 86.8362 129.09 87.01 128.996 87.1364C128.965 87.1786 125.889 91.2761 127.375 95.2894C127.432 95.4369 127.354 95.6002 127.209 95.6476C127.178 95.6528 127.147 95.6528 127.11 95.6528Z" fill="#854C93"/>
<path d="M129.523 102.526C127.159 102.431 124.4 101.951 122.992 100.393C122.883 100.271 122.888 100.092 123.008 99.9922C123.122 99.8922 123.304 99.9027 123.413 100.024C125.907 102.778 133.503 101.804 133.581 101.799C133.737 101.772 133.883 101.888 133.914 102.041C133.94 102.194 133.836 102.341 133.68 102.357C133.519 102.383 131.685 102.615 129.523 102.526Z" fill="#854C93"/>
<path d="M121.229 103.316C121.12 103.31 121.016 103.247 120.969 103.142C120.164 101.42 120.538 97.1851 120.553 97.0008C120.569 96.8428 120.704 96.7375 120.865 96.7585C121.021 96.7796 121.14 96.9218 121.125 97.0745C121.12 97.1167 120.751 101.341 121.489 102.921C121.556 103.063 121.494 103.231 121.353 103.289C121.312 103.31 121.27 103.321 121.229 103.316Z" fill="#854C93"/>
<path d="M122.71 106.786C121.915 106.755 121.052 106.65 120.325 106.391C120.174 106.339 120.091 106.175 120.138 106.028C120.185 105.881 120.346 105.807 120.497 105.859C122.263 106.481 125.012 106.133 125.038 106.133C125.194 106.112 125.339 106.223 125.37 106.376C125.396 106.534 125.292 106.671 125.136 106.692C125.064 106.697 123.978 106.839 122.71 106.786Z" fill="#854C93"/>
<path d="M113.95 88.5368C113.929 88.5421 113.908 88.5473 113.888 88.5526C113.711 88.5737 113.555 88.4473 113.54 88.2734C111.451 65.0996 134.484 48.7621 142.833 47.3085C143.01 47.2769 143.171 47.398 143.192 47.5718C143.218 47.7456 143.093 47.9142 142.916 47.9458C136.375 49.0781 112.017 64.2464 114.173 88.1892C114.189 88.3419 114.095 88.4894 113.95 88.5368Z" fill="#9E519C"/>
<path d="M135.038 51.343C134.872 51.4009 134.695 51.3114 134.643 51.1481C134.586 50.9743 133.235 46.8346 133.017 44.5963C133.001 44.4172 133.126 44.2539 133.303 44.2328C133.479 44.2118 133.635 44.3329 133.651 44.512C133.859 46.6819 135.23 50.8848 135.246 50.9269C135.303 51.0954 135.21 51.2798 135.043 51.343C135.038 51.3377 135.038 51.3377 135.038 51.343Z" fill="#9E519C"/>
<path d="M142.966 56.336C142.935 56.3518 142.903 56.3676 142.872 56.3728C142.799 56.3886 135.489 57.8001 130.018 54.9982C129.877 54.9297 129.836 54.7243 129.914 54.54C129.992 54.3609 130.168 54.2661 130.309 54.3399C135.645 57.0733 142.799 55.6881 142.872 55.6776C143.033 55.646 143.158 55.7777 143.163 55.9673C143.158 56.12 143.075 56.2675 142.966 56.336Z" fill="#9E519C"/>
<path d="M124.549 59.9279C124.393 59.9806 124.221 59.9068 124.159 59.7541C123.276 57.6 123.13 51.5906 123.125 51.3378C123.12 51.1587 123.26 51.006 123.437 50.9954C123.614 50.9849 123.759 51.1218 123.764 51.3009C123.764 51.3641 123.91 57.4472 124.751 59.4908C124.819 59.654 124.741 59.8489 124.575 59.9226C124.564 59.9226 124.554 59.9279 124.549 59.9279Z" fill="#9E519C"/>
<path d="M132.794 66.4059C132.758 66.4164 132.721 66.4217 132.685 66.4217C132.399 66.4164 125.64 66.2426 121.145 64.6679C120.979 64.6099 120.896 64.4256 120.958 64.2571C121.021 64.0885 121.202 63.999 121.369 64.0569C125.77 65.6001 132.649 65.7739 132.716 65.7739C132.893 65.7792 133.028 65.9266 133.018 66.1057C133.012 66.2479 132.919 66.3638 132.794 66.4059Z" fill="#9E519C"/>
<path d="M117.773 69.4818C117.649 69.524 117.508 69.4871 117.425 69.3817C114.334 65.3685 116.292 59.5223 116.376 59.2748C116.433 59.1063 116.615 59.0062 116.781 59.0641C116.947 59.1168 117.035 59.3011 116.978 59.4697C116.957 59.5276 115.056 65.2315 117.934 68.9709C118.043 69.1079 118.012 69.3133 117.872 69.4291C117.841 69.4555 117.81 69.4713 117.773 69.4818Z" fill="#9E519C"/>
<path d="M122.551 75.9546C120.025 76.8184 116.955 77.4293 114.954 76.318C114.804 76.2338 114.752 76.0389 114.84 75.8809C114.928 75.7229 115.126 75.665 115.276 75.7492C118.81 77.7137 126.515 73.5477 126.593 73.5056C126.749 73.416 126.941 73.474 127.024 73.632C127.102 73.79 127.04 73.9849 126.884 74.0744C126.723 74.1587 124.863 75.1646 122.551 75.9546Z" fill="#9E519C"/>
<path d="M114.052 80.2102C113.938 80.2471 113.808 80.2208 113.72 80.1312C112.307 78.5933 111.314 73.848 111.273 73.6426C111.236 73.4688 111.345 73.295 111.522 73.2476C111.693 73.2054 111.865 73.3108 111.901 73.4846C111.912 73.532 112.899 78.2615 114.198 79.673C114.317 79.7994 114.307 80.0048 114.172 80.1312C114.141 80.1734 114.099 80.1997 114.052 80.2102Z" fill="#9E519C"/>
<path d="M116.756 83.3652C115.909 83.6549 114.963 83.8919 114.106 83.9129C113.929 83.9182 113.789 83.776 113.789 83.5969C113.789 83.4178 113.94 83.2704 114.111 83.2651C116.179 83.2177 118.969 81.7114 118.995 81.6956C119.151 81.6113 119.343 81.6693 119.426 81.8273C119.504 81.9853 119.442 82.1802 119.286 82.2697C119.213 82.3066 118.112 82.9017 116.756 83.3652Z" fill="#9E519C"/>
<path d="M35.2067 124.009C12.0958 126.226 0 150.985 0 150.985C0 150.985 46.1178 157.879 61.4558 150.543C75.765 143.701 79.2358 142.369 79.9372 142.263L80.1814 139.994C73.5048 134.411 58.7851 121.744 35.2067 124.009Z" fill="#8562B2"/>
<path d="M51.3604 124.788C46.5283 123.814 41.1506 123.435 35.2066 124.004C12.0958 126.221 0 150.98 0 150.98C0 150.98 5.50234 151.802 13.3376 152.576C17.0734 151.823 20.9754 150.669 24.9034 149.1C39.8153 143.143 50.3524 133.11 51.3604 124.788Z" fill="#9972C1"/>
<path d="M6.40192 146.967C6.30839 146.967 6.21487 146.914 6.16291 146.824C6.08498 146.688 6.13174 146.514 6.26163 146.435C15.2815 141.084 27.8345 137.271 39.8316 136.238C53.216 135.085 64.8078 137.376 72.4664 142.685C72.5963 142.774 72.6274 142.948 72.5391 143.08C72.4508 143.206 72.2793 143.243 72.1494 143.154C56.0529 131.993 24.6547 136.186 6.5474 146.925C6.50064 146.956 6.44868 146.967 6.40192 146.967Z" fill="#70529E"/>
<path d="M24.0924 139.546C24.03 139.546 23.9625 139.525 23.9105 139.477C23.869 139.44 19.7331 135.848 16.0389 134.911C15.8882 134.874 15.7999 134.721 15.8363 134.569C15.8727 134.416 16.0233 134.326 16.174 134.363C19.9981 135.332 24.1028 138.898 24.2794 139.051C24.3937 139.151 24.4093 139.33 24.3106 139.451C24.2535 139.514 24.1755 139.546 24.0924 139.546Z" fill="#70529E"/>
<path d="M14.3392 146.387C14.2561 146.387 14.173 146.35 14.121 146.277C14.0275 146.156 14.0483 145.976 14.1678 145.876C15.7057 144.655 16.1993 141.816 16.2045 141.784C16.2305 141.631 16.376 141.526 16.5267 141.552C16.6773 141.579 16.7812 141.726 16.7553 141.879C16.7345 142.005 16.2201 144.965 14.5107 146.319C14.4639 146.371 14.4016 146.387 14.3392 146.387Z" fill="#70529E"/>
<path d="M36.661 136.849C36.5831 136.849 36.5051 136.812 36.448 136.749C36.396 136.691 31.3873 130.729 26.8202 129.539C26.6695 129.502 26.5812 129.344 26.6175 129.191C26.6539 129.038 26.8098 128.949 26.9553 128.986C31.6938 130.224 36.661 136.128 36.8688 136.38C36.9675 136.502 36.952 136.681 36.8376 136.781C36.7909 136.823 36.7233 136.849 36.661 136.849Z" fill="#70529E"/>
<path d="M26.7484 146.677C26.6652 146.677 26.5769 146.635 26.525 146.561C26.4314 146.434 26.4574 146.255 26.5821 146.166C30.0165 143.59 31.17 137.792 31.1804 137.734C31.2116 137.581 31.357 137.476 31.5077 137.513C31.6584 137.544 31.7571 137.692 31.7259 137.844C31.6792 138.092 30.5205 143.912 26.9094 146.619C26.8627 146.661 26.8055 146.677 26.7484 146.677Z" fill="#70529E"/>
<path d="M35.3873 148.631C35.2782 148.631 35.1742 148.568 35.1327 148.462C35.0703 148.32 35.1379 148.152 35.2782 148.089C43.4979 144.486 47.6493 136.302 47.6909 136.217C47.7584 136.08 47.9299 136.022 48.065 136.091C48.2053 136.159 48.2572 136.333 48.1897 136.47C48.1481 136.554 43.9084 144.918 35.4964 148.605C35.46 148.626 35.4236 148.631 35.3873 148.631Z" fill="#70529E"/>
<path d="M55.3573 136.918C55.2274 136.918 55.1079 136.823 55.0819 136.691C54.6818 134.658 49.3094 127.495 41.7391 125.631C41.5884 125.594 41.4949 125.441 41.5313 125.289C41.5677 125.136 41.7183 125.046 41.869 125.078C49.6627 127 55.2118 134.453 55.6275 136.575C55.6586 136.728 55.5599 136.875 55.4092 136.907C55.3936 136.918 55.3729 136.918 55.3573 136.918Z" fill="#70529E"/>
<path d="M50.364 147.693C50.2289 147.693 50.1042 147.588 50.0886 147.451C50.0678 147.298 50.1717 147.151 50.3276 147.13C60.371 145.724 63.13 138.703 63.156 138.634C63.2131 138.487 63.3742 138.413 63.5145 138.471C63.66 138.529 63.7327 138.692 63.6756 138.835C63.6496 138.908 60.7867 146.24 50.4003 147.688C50.3847 147.688 50.3743 147.693 50.364 147.693Z" fill="#70529E"/>
<path d="M67.8358 140.536C67.8307 140.536 67.8255 140.536 67.8203 140.536C67.6644 140.526 67.5501 140.394 67.5605 140.236C67.7008 137.903 65.1185 131.925 61.2216 129.876C61.0865 129.802 61.0294 129.634 61.1021 129.497C61.1749 129.36 61.3411 129.302 61.4762 129.376C65.5601 131.519 68.2619 137.813 68.1164 140.273C68.106 140.42 67.9813 140.536 67.8358 140.536Z" fill="#70529E"/>
<path d="M41.3013 117.167C34.604 118.984 31.1748 122.087 26.7687 121.154C14.8288 118.632 8.64062 105.991 8.64062 105.991C8.64062 105.991 19.0945 101.941 28.6912 104.316C38.293 106.692 41.3013 117.167 41.3013 117.167Z" fill="#9172C1"/>
<path d="M37.5223 110.168C37.2261 111.416 36.5871 112.548 35.5791 113.48C31.1575 117.573 21.3426 116.44 13.6528 110.952C11.8031 109.63 10.2444 108.177 9.00781 106.676C10.4886 109.33 16.4949 118.984 26.7722 121.154C31.173 122.086 34.6023 118.984 41.3048 117.167C41.2996 117.167 40.2761 113.607 37.5223 110.168Z" fill="#8562B2"/>
<path d="M59.0161 75.9283C54.8751 73.395 51.6797 73.1422 50.0118 70.4509C45.4863 63.1458 48.7649 53.8816 48.7649 53.8816C48.7649 53.8816 55.8311 57.2523 59.2915 63.288C62.7571 69.329 59.0161 75.9283 59.0161 75.9283Z" fill="#C172B8"/>
<path d="M59.8462 64.4102C59.3267 66.2694 58.3291 67.6229 56.9106 68.118C53.8087 69.1977 49.808 65.8059 47.6258 60.418C47.5114 63.478 47.9635 67.1594 50.0002 70.4512C51.6681 73.1425 54.8635 73.3953 59.0045 75.9286C59.0097 75.9286 62.3039 70.1194 59.8462 64.4102Z" fill="#AF5FAA"/>
<path d="M98.9358 89.9064C102.251 88.0367 104.542 85.8721 105.353 83.2755C107.556 76.2339 102.692 69.4661 102.692 69.4661C102.692 69.4661 97.4498 73.9112 95.8599 79.6678C94.2752 85.4244 98.9358 89.9064 98.9358 89.9064Z" fill="#9756A5"/>
<path d="M98.9868 87.984C99.0076 87.9577 99.0128 87.9313 99.0024 87.8945C98.275 85.3138 99.8441 81.3531 101.081 78.2458C101.865 76.2654 102.536 74.5748 102.463 73.6531C102.458 73.5847 102.369 73.5162 102.265 73.5004C102.161 73.4899 102.084 73.532 102.089 73.6005C102.156 74.48 101.491 76.1548 100.712 78.1141C99.4648 81.2425 97.8801 85.2295 98.6179 87.8787C98.6387 87.9577 98.7426 88.0262 98.8517 88.0314C98.9141 88.0314 98.9609 88.0156 98.9868 87.984Z" fill="#834A91"/>
<path d="M98.8493 85.7191C98.8961 85.6664 98.8649 85.5821 98.7818 85.5295C98.7662 85.5189 97.2023 84.5393 96.7139 83.5018C96.6775 83.428 96.5684 83.3701 96.4697 83.3806C96.371 83.3859 96.319 83.4544 96.3554 83.5334C96.8853 84.6657 98.5064 85.6875 98.574 85.7296C98.6623 85.7875 98.7818 85.7876 98.839 85.7349C98.8442 85.7243 98.8442 85.7243 98.8493 85.7191Z" fill="#834A91"/>
<path d="M103.363 83.5281C103.399 83.486 103.389 83.4175 103.326 83.3649C103.249 83.3017 103.124 83.2806 103.051 83.3175C101.908 83.9284 99.0815 84.0811 99.0556 84.0811C98.9516 84.0864 98.8997 84.1549 98.9309 84.2286C98.962 84.3076 99.0711 84.3655 99.1751 84.3603C99.2946 84.355 102.126 84.2075 103.332 83.5545C103.342 83.5492 103.352 83.5387 103.363 83.5281Z" fill="#834A91"/>
<path d="M99.2565 82.7909C99.3032 82.7329 99.2669 82.6487 99.1733 82.596C99.1577 82.5855 97.4223 81.6322 96.7937 79.9574C96.7677 79.8836 96.6638 79.8257 96.5599 79.8257C96.4611 79.8257 96.3988 79.8889 96.43 79.9626C97.1002 81.7586 98.9187 82.7593 98.9915 82.8014C99.0902 82.8488 99.2045 82.8435 99.2565 82.7909Z" fill="#834A91"/>
<path d="M105.2 80.2368C105.242 80.1841 105.216 80.1051 105.133 80.0524C105.044 79.9945 104.925 79.9945 104.868 80.0419C102.898 81.7747 99.7809 81.2796 99.7498 81.2743C99.6459 81.2585 99.5575 81.3007 99.5627 81.3744C99.5627 81.4481 99.651 81.5219 99.755 81.5377C99.8901 81.5587 103.117 82.0696 105.195 80.242L105.2 80.2368Z" fill="#834A91"/>
<path d="M100.511 79.4308C100.553 79.3834 100.532 79.3096 100.459 79.2569C100.443 79.2464 98.6665 77.9824 98.547 77.1976C98.5366 77.1239 98.443 77.0607 98.3391 77.0502C98.2352 77.0396 98.1625 77.0923 98.1729 77.166C98.308 78.0561 100.147 79.3675 100.225 79.4255C100.308 79.4834 100.428 79.494 100.49 79.4466C100.501 79.4413 100.506 79.436 100.511 79.4308Z" fill="#834A91"/>
<path d="M104.336 77.4029C104.377 77.3555 104.351 77.2765 104.273 77.2291C104.185 77.1764 104.065 77.1711 104.008 77.2185C102.959 78.0981 101.177 77.7768 101.161 77.7768C101.057 77.7557 100.969 77.7979 100.969 77.8716C100.969 77.9401 101.047 78.0138 101.156 78.0349C101.239 78.0507 103.167 78.393 104.33 77.4187C104.325 77.4134 104.33 77.4081 104.336 77.4029Z" fill="#834A91"/>
<path d="M101.787 76.4549L101.793 76.4496C101.834 76.3917 101.793 76.3127 101.699 76.2653C101.673 76.2548 101.029 75.944 100.852 75.4068C100.826 75.3331 100.727 75.2751 100.629 75.2751C100.53 75.2751 100.468 75.3331 100.488 75.4068C100.712 76.081 101.512 76.4602 101.548 76.476C101.631 76.5181 101.741 76.5076 101.787 76.4549Z" fill="#834A91"/>
<path d="M98.5741 64.0992C103.739 63.3355 107.724 61.687 110.02 58.7481C116.24 50.7795 113.242 39.6719 113.242 39.6719C113.242 39.6719 104.357 42.7951 99.5457 49.4154C94.7396 56.0305 98.5741 64.0992 98.5741 64.0992Z" fill="#B872C4"/>
<path d="M106.517 46.4818C106.897 44.965 107.364 43.5377 107.899 42.2368C105.135 43.8432 101.872 46.2238 99.5497 49.4154C94.7384 56.0358 98.5729 64.1045 98.5729 64.1045C102.506 63.5251 105.753 62.4244 108.092 60.6389C105.561 59.2906 104.839 53.2128 106.517 46.4818Z" fill="#AF5FAA"/>
<path d="M99.3274 62.809C99.3637 62.7774 99.3897 62.7406 99.4001 62.6932C100.216 59.1118 104.352 53.9767 107.604 49.9476C109.677 47.3774 111.444 45.1864 111.932 43.9382C111.969 43.8434 111.917 43.7381 111.813 43.7065C111.709 43.6749 111.595 43.7275 111.558 43.8223C111.085 45.0231 109.334 47.1878 107.282 49.7316C104.004 53.7923 99.8314 58.959 98.9897 62.63C98.9637 62.7406 99.0364 62.8459 99.1455 62.8617C99.2183 62.8617 99.2806 62.8459 99.3274 62.809Z" fill="#A0579E"/>
<path d="M100.576 59.7332C100.659 59.6647 100.68 59.5488 100.623 59.4646C100.612 59.4488 99.5315 57.9109 99.651 56.4467C99.6614 56.3414 99.5782 56.2518 99.4639 56.2466C99.3548 56.2413 99.2561 56.3256 99.2457 56.4362C99.1106 58.0373 100.228 59.6331 100.28 59.7016C100.342 59.7911 100.472 59.8069 100.565 59.7437C100.565 59.7384 100.571 59.7384 100.576 59.7332Z" fill="#A0579E"/>
<path d="M106.796 57.3892C106.863 57.3365 106.889 57.2417 106.858 57.1627C106.816 57.0626 106.697 57.0205 106.593 57.0626C104.982 57.7368 101.849 57.5524 101.818 57.5524C101.704 57.5472 101.605 57.6262 101.595 57.7368C101.584 57.8474 101.662 57.9369 101.777 57.9474C101.906 57.958 105.05 58.137 106.749 57.426C106.759 57.4102 106.78 57.3997 106.796 57.3892Z" fill="#A0579E"/>
<path d="M102.818 55.8305C102.906 55.7621 102.922 55.6357 102.849 55.5567C102.834 55.5409 101.561 54.0188 101.924 51.6698C101.94 51.5644 101.862 51.4749 101.753 51.4644C101.644 51.4538 101.54 51.5276 101.524 51.6329C101.135 54.1504 102.47 55.741 102.527 55.8095C102.6 55.8937 102.73 55.899 102.818 55.8305Z" fill="#A0579E"/>
<path d="M110.811 53.1865C110.889 53.1233 110.91 53.0127 110.848 52.9337C110.785 52.8441 110.661 52.8231 110.567 52.8863C107.377 54.9561 104.327 53.8659 104.296 53.8554C104.192 53.8185 104.072 53.8659 104.031 53.966C103.989 54.066 104.036 54.1766 104.135 54.2135C104.265 54.2609 107.418 55.388 110.796 53.197C110.801 53.197 110.806 53.1918 110.811 53.1865Z" fill="#A0579E"/>
<path d="M106.26 51.4695C106.332 51.4116 106.358 51.3115 106.312 51.2325C106.301 51.2115 105.169 49.268 105.527 48.1989C105.558 48.0988 105.501 47.9987 105.397 47.9724C105.293 47.9461 105.179 48.004 105.148 48.1041C104.742 49.326 105.912 51.3431 105.958 51.4274C106.01 51.517 106.135 51.5485 106.228 51.4959C106.239 51.4801 106.249 51.4748 106.26 51.4695Z" fill="#A0579E"/>
<path d="M111.624 49.2468C111.702 49.1836 111.718 49.0783 111.666 48.9993C111.603 48.915 111.479 48.8939 111.385 48.9519C109.712 49.9947 107.992 49.3258 107.972 49.3153C107.873 49.2732 107.753 49.3206 107.707 49.4154C107.66 49.5102 107.701 49.6208 107.805 49.6629C107.883 49.6945 109.743 50.4213 111.603 49.2626C111.614 49.2574 111.619 49.2521 111.624 49.2468Z" fill="#A0579E"/>
<path d="M109.467 47.6247C109.472 47.6247 109.472 47.6195 109.477 47.6195C109.56 47.5457 109.566 47.4299 109.488 47.3561C109.467 47.3351 108.968 46.8347 109.108 46.0816C109.129 45.9815 109.056 45.8867 108.947 45.8762C108.838 45.8604 108.734 45.9341 108.719 46.0342C108.542 46.9717 109.171 47.5931 109.197 47.6195C109.264 47.6879 109.384 47.6879 109.467 47.6247Z" fill="#A0579E"/>
<path d="M86.6613 71.8783C80.9771 68.3969 76.5867 68.0546 74.3005 64.3573C68.0916 54.3294 72.5911 41.6101 72.5911 41.6101C72.5911 41.6101 82.2917 46.2396 87.0458 54.5295C91.7948 62.8194 86.6613 71.8783 86.6613 71.8783Z" fill="#B872C4"/>
<path d="M87.0419 54.5295C84.6415 50.3477 80.9888 47.0981 77.9493 44.9019C78.8689 46.3186 79.7003 47.9408 80.3913 49.721C83.1503 56.8627 82.5216 63.7938 78.9781 65.2C77.5544 65.7635 75.8762 65.3527 74.2031 64.194C74.2343 64.2467 74.2655 64.3046 74.2967 64.3573C76.588 68.0546 80.9732 68.3969 86.6574 71.8783C86.6626 71.8783 91.7961 62.8194 87.0419 54.5295Z" fill="#AF5FAA"/>
<path d="M84.7713 64.6628C84.5894 64.1045 84.392 63.5462 84.1894 62.9879C84.2257 62.9774 84.2569 62.9616 84.2829 62.93C84.3972 62.772 87.1198 59.001 87.1769 56.0147C87.1769 55.9199 87.1042 55.8409 87.0107 55.8409C86.9172 55.8409 86.8392 55.9147 86.8392 56.0095C86.7925 58.6692 84.444 62.1189 84.0647 62.6509C83.197 60.3124 82.1578 58.0056 80.9836 55.8146C81.0459 55.6935 82.5371 52.7546 82.5631 50.3477C82.5631 50.2529 82.4903 50.1739 82.3968 50.1739C82.3033 50.1739 82.2254 50.2476 82.2254 50.3424C82.2046 52.3175 81.1187 54.7454 80.7809 55.4459C80.0483 54.0976 79.2638 52.802 78.448 51.5696C78.448 51.5643 78.448 51.5643 78.448 51.5643C78.4428 51.5011 78.4065 51.4642 78.3545 51.4326C77.0452 49.4734 75.6423 47.6774 74.1979 46.1448C74.1355 46.0763 74.0264 46.0763 73.9589 46.1395C73.9121 46.1817 73.8965 46.2449 73.9121 46.3028C73.9173 46.3291 73.9329 46.3607 73.9537 46.3818C75.3409 47.8565 76.6814 49.5524 77.9388 51.4116C77.3933 51.401 76.297 51.3115 75.6215 50.769C75.5488 50.7111 75.4449 50.7216 75.3825 50.7954C75.3513 50.8375 75.3409 50.8902 75.3513 50.9428C75.3617 50.9797 75.3773 51.0113 75.4085 51.0376C76.2866 51.7487 77.7258 51.7697 78.1623 51.7539C79.7833 54.1977 81.2589 56.9048 82.5059 59.7436C81.7473 59.7436 78.8897 59.6383 77.1854 58.1846C77.1127 58.1214 77.0088 58.132 76.9464 58.2057C76.9101 58.2479 76.8997 58.3058 76.9101 58.3532C76.9205 58.3848 76.936 58.4217 76.9672 58.4427C78.9156 60.107 82.1474 60.0965 82.6462 60.0807C83.9296 63.0669 84.9583 66.1796 85.6338 69.2607C84.5738 68.9499 80.1211 67.4647 77.2842 63.6042C77.227 63.5304 77.1231 63.5146 77.0504 63.5673C76.9932 63.6094 76.9724 63.6779 76.988 63.7411C76.9932 63.7622 77.0036 63.7832 77.0192 63.8043C80.1055 67.9967 85.0467 69.4503 85.7221 69.6293C85.8572 70.2666 85.9715 70.8986 86.0702 71.5254C86.2053 71.6044 86.3404 71.6834 86.4755 71.7624C86.1326 69.4871 85.5662 67.1066 84.7713 64.6628Z" fill="#A0579E"/>
<path d="M95.3884 127.922C58.675 118.173 64.2397 68.5181 65.9803 60.5811C65.9803 60.5811 87.7714 78.0351 95.3001 90.4331C102.829 102.831 95.3884 127.922 95.3884 127.922Z" fill="#C172B8"/>
<path d="M95.3035 90.4332C93.0797 86.7675 89.6038 82.6594 85.816 78.6883C87.832 86.0459 85.2913 92.6768 81.9088 94.4359C77.2378 96.8692 65.7655 90.8703 64.6328 76.9766C64.7471 94.9047 69.7818 121.123 95.3919 127.922C95.3919 127.922 102.827 102.831 95.3035 90.4332Z" fill="#AF5FAA"/>
<path d="M66.9375 69.3708C66.9375 69.3708 69.4471 71.9884 71.2084 72.4466L71.6189 73.6159C70.1537 72.6626 67.8312 70.835 66.9375 69.3708Z" fill="#AF5FAA"/>
<path d="M67.2656 75.1274C67.2656 75.1274 71.7132 79.7622 74.8307 80.5785L75.5581 82.6484C72.9706 80.963 68.8503 77.7187 67.2656 75.1274Z" fill="#AF5FAA"/>
<path d="M68.7734 85.0132C68.7734 85.0132 74.3225 89.4057 78.0635 90.0904L79.0507 92.1075C75.8813 90.538 70.805 87.5044 68.7734 85.0132Z" fill="#AF5FAA"/>
<path d="M68.6016 90.8647C68.6016 90.8647 75.751 95.9367 80.7077 96.4212L81.9132 98.9124C77.7669 97.2323 71.1683 93.8615 68.6016 90.8647Z" fill="#AF5FAA"/>
<path d="M71.7344 100.045C71.7344 100.045 78.7799 104.427 83.6743 104.516L84.8537 106.844C80.7698 105.527 74.2595 102.757 71.7344 100.045Z" fill="#AF5FAA"/>
<path d="M75.2837 69.8186C75.2837 69.8186 75.5539 76.0071 74.1406 78.9249L75.0499 80.705C75.5591 77.6924 76.0007 72.5731 75.2837 69.8186Z" fill="#AF5FAA"/>
<path d="M80.2961 77.25C80.2961 77.25 79.7194 84.16 77.8281 87.4886L78.54 89.4426C79.4908 86.0455 80.6702 80.2942 80.2961 77.25Z" fill="#AF5FAA"/>
<path d="M85.0832 81.7532C85.0832 81.7532 83.6284 90.2854 80.7031 94.325L81.4981 96.7687C83.1348 92.608 85.3118 85.54 85.0832 81.7532Z" fill="#AF5FAA"/>
<path d="M88.5003 89.6006C88.5003 89.6006 86.4531 97.5745 83.2109 101.224L83.85 103.579C85.7932 99.7444 88.4743 93.1925 88.5003 89.6006Z" fill="#AF5FAA"/>
<path d="M69.1094 67.791C69.1094 67.791 83.3718 101.835 86.5776 114.555L87.2635 113.912C83.2263 94.9202 69.1094 67.791 69.1094 67.791Z" fill="#AF5FAA"/>
<path d="M83.8032 129.707C37.5763 132.925 24.9298 73.2686 23.8906 63.3987C23.8906 63.3987 55.8135 74.9856 69.2914 86.3618C82.7641 97.7328 83.8032 129.707 83.8032 129.707Z" fill="#B872C4"/>
<path d="M33.5781 79.3569C33.5781 79.3569 37.8958 81.3109 40.3067 80.9791L41.3458 82.2221C39.0805 81.7902 35.3499 80.7158 33.5781 79.3569Z" fill="#9756A5"/>
<path d="M36.5703 86.3513C36.5703 86.3513 44.2133 89.8169 48.4895 89.2217L50.3288 91.4232C46.328 90.6595 39.7086 88.7582 36.5703 86.3513Z" fill="#9756A5"/>
<path d="M42.8672 97.8801C42.8672 97.8801 51.7832 100.477 56.7763 99.3917L58.917 101.388C54.246 101.077 46.525 99.9289 42.8672 97.8801Z" fill="#9756A5"/>
<path d="M45.2734 105.254C45.2734 105.254 56.5015 107.866 62.9235 105.901L65.5474 108.377C59.6034 108.43 49.8249 107.655 45.2734 105.254Z" fill="#9756A5"/>
<path d="M53.2969 115.055C53.2969 115.055 64.0833 116.856 70.2507 114.439L72.7707 116.73C67.0657 117.199 57.6717 117.125 53.2969 115.055Z" fill="#9756A5"/>
<path d="M44.2422 75.5967C44.2422 75.5967 47.3493 83.1598 46.8868 87.5259L48.8249 89.2692C48.1079 85.2507 46.3725 78.6461 44.2422 75.5967Z" fill="#9756A5"/>
<path d="M53.8438 82.2485C53.8438 82.2485 56.213 91.1494 55.3297 96.2687L57.0911 98.328C56.769 93.609 55.6727 85.8457 53.8438 82.2485Z" fill="#9756A5"/>
<path d="M61.8438 85.3772C61.8438 85.3772 63.8337 96.7482 61.9736 103.295L64.0624 105.923C64.2546 99.8924 63.8181 89.9698 61.8438 85.3772Z" fill="#9756A5"/>
<path d="M69.6398 93.3772C69.6398 93.3772 70.6374 104.369 68.2109 110.584L70.0658 113.186C70.7777 107.403 71.2089 97.8592 69.6398 93.3772Z" fill="#9756A5"/>
<path d="M35.5938 76.2656C35.5938 76.2656 68.6857 111.258 78.3863 125.426L78.9578 124.267C65.4072 102.726 35.5938 76.2656 35.5938 76.2656Z" fill="#9756A5"/>
<path d="M69.2945 86.3566C67.6318 84.9503 65.6834 83.5441 63.5531 82.1589C76.579 95.21 78.756 115.329 72.8224 119.79C66.5615 124.493 48.0489 117.573 35.9531 99.7605C44.9314 116.172 59.8641 131.372 83.8063 129.702C83.8063 129.707 82.7672 97.7328 69.2945 86.3566Z" fill="#9756A5"/>
<path d="M94.7184 53.1707C87.0858 52.5176 86.587 38.7819 95.0769 38.3868C98.7503 38.213 102.855 39.9195 103.847 43.0743C105.152 47.2087 103.011 53.8817 94.7184 53.1707Z" fill="#8E3925"/>
<path d="M90.4688 40.6516C91.6482 41.9841 93.6642 43.2166 96.1322 43.9697C99.2288 44.9125 102.237 44.8598 104.071 43.996C104.014 43.68 103.941 43.3693 103.848 43.0744C102.85 39.9196 98.7508 38.2184 95.0774 38.3869C93.0199 38.487 91.4975 39.3665 90.4688 40.6516Z" fill="#A83E29"/>
<path d="M113.759 126.152L107.056 122.25L82.3762 122.107L75.2424 129.918C75.2424 129.918 57.2702 132.378 54.8438 132.378L59.9772 137.439L94.6383 145.682L121.028 141.199L135.815 126.642L113.759 126.152Z" fill="#8E213B"/>
<path d="M90.1699 132.862C90.3829 130.919 85.5249 127.806 79.0925 125.694L75.2424 129.908C75.2424 129.908 57.2702 132.367 54.8438 132.367L56.1115 133.615C59.5355 134.969 64.5651 136.059 70.2441 136.528C80.9318 137.418 89.853 135.775 90.1699 132.862Z" fill="#A02A46"/>
<path d="M101.169 134.253C101.6 137.15 110.604 138.435 121.282 137.129C122.882 136.934 124.425 136.686 125.901 136.407L135.83 126.637L113.768 126.153L113.639 126.079C106.463 128.454 100.857 132.157 101.169 134.253Z" fill="#A02A46"/>
<path d="M78.8594 141.289C102.178 139.746 129.705 125.478 135.821 126.637C141.936 127.796 148.888 149.063 122.057 147.456C93.0023 145.724 78.8594 141.289 78.8594 141.289Z" fill="#A02A46"/>
<path d="M135.824 126.637C131.304 125.784 115.083 133.347 97.5156 137.982C102.727 140.015 110.271 141.289 118.657 141.289C127.942 141.289 136.188 139.725 141.389 137.302C141.825 132.278 138.734 127.185 135.824 126.637Z" fill="#B2324B"/>
<path d="M89.6064 140.367C83.8235 137.144 83.3299 132.472 83.3299 132.472C80.8619 135.327 84.1924 143.501 85.1692 143.938C86.1512 144.375 89.6064 140.367 89.6064 140.367Z" fill="#E8DDBF"/>
<path d="M103.844 143.722C110.546 140.109 110.765 135.406 110.765 135.406C113.976 138.082 110.624 146.466 109.481 146.972C108.338 147.483 103.844 143.722 103.844 143.722Z" fill="#E8DDBF"/>
<path d="M74.8683 149.769C54.7035 149.326 48.6192 140.515 49.383 135.501C50.1416 130.487 66.1186 131.835 72.9667 134.537C79.8147 137.234 109.867 144.175 109.867 144.175C109.867 144.175 83.618 149.963 74.8683 149.769Z" fill="#A02A46"/>
<path d="M100.054 141.853C90.6449 139.583 77.2605 136.228 72.974 134.537C66.126 131.841 50.1489 130.487 49.3903 135.501C49.2968 136.107 49.3072 136.765 49.4319 137.46C54.0665 140.299 63.0397 142.827 73.5144 143.917C85.2517 145.144 95.5185 144.217 100.054 141.853Z" fill="#B2324B"/>
<path d="M143.219 153.097C145.074 154.545 145.146 157.942 145.146 157.942C145.146 157.942 149.282 157.437 149.713 154.182C145.858 149.7 143.219 153.097 143.219 153.097Z" fill="#EFAE3C"/>
<path d="M49.8072 150.59C47.9523 152.039 47.8796 155.436 47.8796 155.436C47.8796 155.436 43.7438 154.93 43.3125 151.675C47.173 147.193 49.8072 150.59 49.8072 150.59Z" fill="#EFAE3C"/>
<path d="M48.4297 149.579C58.8888 161.34 71.2548 165 71.2548 165C71.2548 165 122.989 165 129.645 165C136.301 165 144.671 152.081 144.671 152.081C144.671 152.081 115.559 141.126 99.5926 141.863C78.6692 142.827 48.4297 149.579 48.4297 149.579Z" fill="#DD8C2C"/>
<path d="M136.825 161.366C129.473 160.676 120.646 160.276 111.153 160.276C92.3132 160.276 76.1127 161.856 68.8594 164.12C70.3662 164.731 71.2598 165 71.2598 165C71.2598 165 122.994 165 129.65 165C131.978 165 134.513 163.42 136.825 161.366Z" fill="#EA9F32"/>
<path d="M99.589 141.863C81.6479 142.69 56.864 147.767 50.1562 149.2C62.1377 153.471 81.1179 156.225 102.488 156.225C118.548 156.225 133.258 154.667 144.662 152.081C144.668 152.086 115.55 141.131 99.589 141.863Z" fill="#EABE42"/>
<path d="M90.5378 150.301C102.057 150.301 112.194 148.921 118.117 146.835C110.542 144.739 101.709 142.843 95.3439 143.138C85.4667 143.591 73.1475 145.566 64.1484 147.23C70.1859 149.095 79.7566 150.301 90.5378 150.301Z" fill="#F4CF71"/>
<path d="M79.6719 124.562C86.946 128.612 102.497 132.083 112.052 124.562C112.052 124.562 105.916 121.523 104.778 115.74C103.635 109.957 105.49 99.4023 105.49 99.4023L84.3793 97.3799C85.0911 103.452 84.665 111.985 84.0935 116.035C83.522 120.08 79.6719 124.562 79.6719 124.562Z" fill="#DDCEAB"/>
<path d="M84.6348 109.499C90.028 104.511 100.726 106.871 104.436 109.262C104.623 104.306 105.485 99.4023 105.485 99.4023L84.375 97.3799C84.8011 101.035 84.8166 105.575 84.6348 109.499Z" fill="#CEBB97"/>
<path d="M109.252 126.373C105.677 118.405 97.6601 109.957 93.6957 109.957C89.6689 109.957 83.8601 117.925 81.9844 125.704C89.0714 128.822 100.7 130.897 109.252 126.373Z" fill="#E8DDBF"/>
<path d="M67.4688 110.105C70.7473 104.032 78.7384 82.0537 80.5933 81.4743C82.4482 80.895 82.4482 95.0679 82.4482 95.0679C82.4482 95.0679 75.0286 115.024 73.0334 116.756C71.0383 118.489 67.4688 110.105 67.4688 110.105Z" fill="#DDCEAB"/>
<path d="M82.1572 87.2729C81.9078 84.0917 81.4506 81.2055 80.5933 81.4689C78.7384 82.0482 70.7525 104.026 67.4688 110.099C67.4688 110.099 68.3832 112.248 69.5471 114.144C71.8592 110.778 74.3012 106.533 76.577 101.778C79.0969 96.5055 81.0038 91.4599 82.1572 87.2729Z" fill="#E8DDBF"/>
<path d="M104.63 81.6902C107.908 83.5704 116.185 105.549 117.609 107.429C119.037 109.309 115.042 114.95 113.187 114.513C111.332 114.081 104.344 99.908 103.346 97.0165C102.349 94.125 104.63 81.6902 104.63 81.6902Z" fill="#DDCEAB"/>
<path d="M117.609 107.429C116.403 105.839 110.293 89.8644 106.454 83.8445C104.697 86.5674 105.892 94.2569 109.545 102.457C111.431 106.692 113.655 110.336 115.796 112.933C117.287 111.221 118.497 108.598 117.609 107.429Z" fill="#E8DDBF"/>
<path d="M80.673 81.4742C80.673 81.4742 79.9612 101.43 81.0991 102.152C82.2421 102.873 94.2236 105.912 96.65 105.622C99.0765 105.333 107.208 103.742 107.774 102.009C108.346 100.277 104.922 81.7639 104.922 81.7639L95.6473 77.856L80.673 81.4742Z" fill="#E8DDBF"/>
<path d="M105.977 87.7048C106.366 93.3297 107.161 100.008 106.875 100.94C106.34 102.673 98.5414 104.316 96.2708 104.606C94.0055 104.896 82.8813 101.62 81.8161 100.893C81.1563 100.445 80.8497 92.2184 80.5432 86.1721C80.4081 92.1183 80.0808 101.799 80.8653 102.294C82.0084 103.015 93.9899 106.149 96.4163 105.859C98.8427 105.57 107.592 103.979 108.159 102.246C108.512 101.161 106.927 93.2823 105.977 87.7048Z" fill="#DDCEAB"/>
<path d="M93.1747 86.7252C98.3185 86.7252 103.015 85.5507 106.606 83.6231C106.133 82.8436 105.639 82.1852 105.063 81.6902C103.057 79.9732 95.4348 77.4609 95.4348 77.4609L80.71 81.4637C80.6736 81.4637 80.6372 81.4637 80.6009 81.4742C80.5541 81.49 80.497 81.5269 80.445 81.569C80.4242 81.5848 80.4034 81.6006 80.3775 81.6217C80.3359 81.6638 80.2891 81.706 80.2424 81.7639C80.1956 81.8166 80.1436 81.8798 80.0917 81.9482C79.8475 82.2695 79.5565 82.7435 79.2344 83.3439C82.8766 85.4401 87.7814 86.7252 93.1747 86.7252Z" fill="#DDCEAB"/>
<path d="M109.481 89.485C107.751 85.893 106.753 83.1438 105.065 81.6902C103.059 79.9732 95.4369 77.4609 95.4369 77.4609L80.7017 81.4637C80.6705 81.4637 80.6341 81.4584 80.6029 81.469C80.4678 81.5111 80.2912 81.6796 80.0938 81.943C82.2916 84.9187 86.7755 88.8477 96.076 91.5443C100.757 92.9031 106.057 91.0966 109.481 89.485Z" fill="#FFA77B"/>
<path d="M157.509 165H171.392C171.392 165 176.386 153.408 174.629 143.069C174.463 142.1 155.057 142.39 153.903 142.874C152.75 143.359 153.986 157.916 157.509 165Z" fill="#934A37"/>
<path d="M156.48 162.546C156.636 159.839 156.647 156.658 156.485 153.261C156.293 149.279 155.898 145.618 155.379 142.685C154.599 142.743 154.069 142.806 153.903 142.874C152.869 143.312 153.758 155.014 156.48 162.546Z" fill="#B54E3A"/>
<path d="M173.826 142.779C171.223 142.348 162.774 142.358 157.729 142.558C157.703 143.138 157.688 143.727 157.688 144.323C157.688 154.198 161.309 162.203 165.772 162.203C170.235 162.203 173.857 154.198 173.857 144.323C173.862 143.801 173.846 143.29 173.826 142.779Z" fill="#B54E3A"/>
<path d="M40.2242 116.662C40.1619 116.662 40.0943 116.641 40.0424 116.593C36.052 113.286 27.188 111.253 20.2308 109.652C15.7988 108.635 12.0163 107.766 10.4004 106.797C10.2757 106.723 10.2445 106.56 10.3276 106.428C10.4108 106.297 10.5718 106.255 10.6965 106.328C12.2449 107.255 15.9911 108.114 20.3763 109.114C27.3906 110.721 36.317 112.759 40.4113 116.146C40.536 116.246 40.5515 116.43 40.4476 116.551C40.3905 116.625 40.3073 116.662 40.2242 116.662Z" fill="#70529E"/>
<path d="M36.2209 114.318C36.0755 114.318 35.9508 114.207 35.9404 114.055C35.9404 114.028 35.7377 111.305 34.3297 109.757C34.2258 109.641 34.2361 109.467 34.3505 109.362C34.4648 109.257 34.6414 109.262 34.7453 109.378C36.2833 111.068 36.4963 113.886 36.5015 114.007C36.5119 114.165 36.3924 114.302 36.2365 114.313C36.2365 114.318 36.2261 114.318 36.2209 114.318Z" fill="#70529E"/>
<path d="M27.5878 117.325C27.4683 117.325 27.3591 117.246 27.3228 117.12C27.2812 116.967 27.3695 116.809 27.5202 116.762C29.8116 116.061 32.9706 113.001 33.0018 112.97C33.1161 112.859 33.2927 112.859 33.4018 112.975C33.511 113.086 33.5058 113.265 33.3915 113.375C33.2564 113.507 30.0973 116.567 27.6709 117.31C27.6449 117.32 27.6189 117.325 27.5878 117.325Z" fill="#70529E"/>
<path d="M30.4243 111.958C30.2684 111.958 30.1489 111.832 30.1489 111.679C30.1489 111.648 30.1697 108.767 27.7381 106.439C27.629 106.333 27.629 106.165 27.7381 106.049C27.8472 105.938 28.0187 105.933 28.1278 106.033C30.7412 108.524 30.7101 111.542 30.7101 111.669C30.7101 111.827 30.5802 111.953 30.4243 111.958Z" fill="#70529E"/>
<path d="M19.6719 116.24C19.5316 116.24 19.4173 116.135 19.4069 115.987C19.3965 115.829 19.5108 115.692 19.6667 115.677C24.8521 115.113 27.133 111.105 27.1538 111.063C27.2318 110.926 27.398 110.873 27.5331 110.947C27.6682 111.021 27.715 111.189 27.637 111.326C27.5383 111.5 25.1846 115.645 19.7031 116.24C19.6927 116.24 19.6823 116.24 19.6719 116.24Z" fill="#70529E"/>
<path d="M22.9882 110.147C22.8583 110.147 22.7492 110.057 22.7284 109.92C22.7232 109.888 22.2192 106.655 20.9099 105.77C20.7904 105.686 20.7592 105.517 20.8475 105.396C20.9359 105.269 21.1021 105.233 21.2268 105.317C22.7232 106.323 23.248 109.672 23.2688 109.815C23.2896 109.967 23.1908 110.11 23.0402 110.141C23.0194 110.146 23.0038 110.147 22.9882 110.147Z" fill="#70529E"/>
<path d="M15.3646 112.532C15.2295 112.532 15.1152 112.432 15.11 112.29C15.0996 112.137 15.2139 112 15.3594 111.979C18.0405 111.632 19.2771 109.309 19.2874 109.288C19.3602 109.151 19.5213 109.093 19.6563 109.156C19.7914 109.22 19.8382 109.388 19.7655 109.525C19.7083 109.63 18.373 112.148 15.3958 112.532C15.3906 112.532 15.3802 112.532 15.3646 112.532Z" fill="#70529E"/>
<path d="M16.2391 108.725C16.2339 108.725 16.2287 108.725 16.2235 108.725C16.078 108.719 15.9689 108.588 15.9845 108.44C15.9897 108.398 16.078 107.376 15.2727 106.655C15.1636 106.56 15.1584 106.386 15.2623 106.27C15.3662 106.154 15.5325 106.139 15.6416 106.239C16.6496 107.139 16.5249 108.414 16.5197 108.467C16.5041 108.609 16.3794 108.725 16.2391 108.725Z" fill="#70529E"/>
<path d="M37.3022 154.782C24.6088 150.011 23.3203 143.217 34.4497 140.178C45.5738 137.139 45.7193 125.573 34.0236 119.211C22.3279 112.848 36.0084 103.273 41.4432 100.993C51.4295 96.8005 39.0168 93.4719 39.0168 93.4719C47.0027 93.4719 48.8576 98.823 43.1526 101.425C34.8861 105.196 26.8898 111.4 36.45 117.33C46.0051 123.261 54.9055 138.282 36.45 143.069C24.1776 146.25 37.3022 154.782 37.3022 154.782Z" fill="#E8DDBF"/>
<path d="M49.07 137.123C50.3898 137.36 51.8706 135.264 51.8706 135.264L52.8058 136.776C51.6627 138.203 50.3742 138.482 49.9585 138.672C49.5376 138.861 46.1188 138.867 45.9474 138.382C45.7811 137.903 47.7555 136.886 49.07 137.123Z" fill="#EA875C"/>
<path d="M50.7022 130.134L49.3929 134.269L47.7822 134.142L46.0156 133.284C46.4261 132.82 48.4057 131.224 50.7022 130.134Z" fill="#FFA77B"/>
<path d="M58.4765 129.571C55.7072 132.209 56.154 135.232 54.7979 135.548C54.3355 135.654 52.0701 137.049 51.057 136.676C49.093 135.954 48.3292 132.92 49.9191 131.251C52.3351 128.717 56.9022 126.421 56.9022 126.421L58.4765 129.571Z" fill="#EA875C"/>
<path d="M46.2186 137.74C46.3641 137.029 45.6003 133.737 46.016 133.279L47.7825 134.137C47.7825 134.137 48.3021 134.311 47.9488 136.07C47.5903 137.829 46.0679 138.451 46.2186 137.74Z" fill="#FFA77B"/>
<path d="M54.1269 134.332C54.0905 135.074 53.8152 136.059 53.9139 137.097C54.0074 138.108 53.6905 138.83 53.1865 138.766C52.6825 138.703 52.5838 137.766 52.6669 136.749C52.7448 135.738 54.1529 133.842 54.1269 134.332Z" fill="#EA875C"/>
<path d="M55.8769 133.452C55.8405 134.195 55.5652 135.18 55.6639 136.217C55.7574 137.229 55.4405 137.95 54.9365 137.887C54.4325 137.824 54.3338 136.886 54.4169 135.87C54.4948 134.859 55.9029 132.968 55.8769 133.452Z" fill="#EA875C"/>
<path d="M53.3255 138.772C52.8267 138.888 52.1825 138.187 51.8863 137.207C51.5849 136.233 51.746 135.348 52.2448 135.232C52.7436 135.117 52.9462 135.875 53.2476 136.855C53.5438 137.829 53.8243 138.656 53.3255 138.772Z" fill="#FFA77B"/>
<path d="M55.0287 137.982C54.5299 138.098 53.8856 137.397 53.5894 136.417C53.2881 135.443 53.4491 134.558 53.9479 134.442C54.4467 134.327 54.6494 135.085 54.9507 136.065C55.2469 137.044 55.5223 137.871 55.0287 137.982Z" fill="#FFA77B"/>
<path d="M53.1401 131.777C51.9451 133.5 49.6797 134.901 48.7964 133.968C47.9547 133.084 49.3108 130.977 50.9371 129.829C52.0438 129.049 53.0778 128.875 53.5402 129.249C54.013 129.634 53.9299 130.634 53.1401 131.777Z" fill="#FFA77B"/>
<path d="M45.9475 138.382C45.8228 138.024 46.8879 137.365 47.9842 137.155C49.4806 137.171 50.6808 137.634 50.8939 138.292C50.4782 138.487 50.1405 138.587 49.9586 138.666C49.5378 138.861 46.1189 138.866 45.9475 138.382Z" fill="#FFA77B"/>
<path d="M51.8238 133.494C60.0072 131.988 72.8668 118.726 73.1629 116.341C73.4591 113.955 70.0714 107.392 68.0139 109.178C65.9564 110.963 48.5817 134.095 51.8238 133.494Z" fill="#FFA77B"/>
<path d="M68.0031 109.183C67.7901 109.367 67.4056 109.788 66.9016 110.389C67.9044 110.057 68.6682 110.062 69.1098 110.463C71.0219 112.206 66.3353 120.649 58.6403 129.312C57.8817 130.171 57.118 130.992 56.3594 131.788C64.0439 127.748 72.908 118.321 73.1522 116.34C73.4483 113.954 70.0659 107.392 68.0031 109.183Z" fill="#EA875C"/>
<path d="M141.866 134.447C140.614 134.658 139.258 132.53 139.258 132.53L138.344 134.021C139.393 135.469 140.604 135.775 140.999 135.975C141.394 136.17 144.62 136.249 144.792 135.769C144.963 135.295 143.119 134.237 141.866 134.447Z" fill="#EA875C"/>
<path d="M140.461 127.427L141.62 131.588L143.142 131.493L144.831 130.671C144.451 130.197 142.612 128.564 140.461 127.427Z" fill="#FFA77B"/>
<path d="M133.125 126.7C135.692 129.396 135.209 132.409 136.487 132.757C136.923 132.872 139.033 134.316 139.999 133.963C141.864 133.283 142.649 130.265 141.178 128.559C138.944 125.978 134.673 123.587 134.673 123.587L133.125 126.7Z" fill="#EA875C"/>
<path d="M144.557 135.127C144.432 134.416 145.222 131.14 144.838 130.671L143.149 131.493C143.149 131.493 142.655 131.656 142.957 133.42C143.253 135.185 144.682 135.838 144.557 135.127Z" fill="#FFA77B"/>
<path d="M137.156 131.551C137.177 132.293 137.416 133.289 137.307 134.321C137.198 135.332 137.484 136.059 137.962 136.006C138.44 135.954 138.554 135.016 138.492 134C138.435 132.989 137.141 131.061 137.156 131.551Z" fill="#EA875C"/>
<path d="M135.508 130.634C135.529 131.377 135.768 132.372 135.659 133.405C135.549 134.416 135.835 135.143 136.313 135.09C136.791 135.037 136.906 134.1 136.843 133.083C136.791 132.072 135.497 130.15 135.508 130.634Z" fill="#EA875C"/>
<path d="M137.827 136.006C138.295 136.133 138.918 135.443 139.22 134.474C139.521 133.505 139.386 132.615 138.918 132.493C138.451 132.367 138.243 133.12 137.941 134.094C137.64 135.058 137.359 135.88 137.827 136.006Z" fill="#FFA77B"/>
<path d="M136.233 135.185C136.701 135.311 137.324 134.621 137.626 133.652C137.927 132.683 137.792 131.793 137.324 131.672C136.857 131.545 136.649 132.299 136.348 133.273C136.046 134.237 135.766 135.058 136.233 135.185Z" fill="#FFA77B"/>
<path d="M138.128 129.017C139.224 130.766 141.339 132.214 142.191 131.303C143.001 130.434 141.759 128.301 140.247 127.121C139.213 126.315 138.242 126.121 137.8 126.484C137.343 126.858 137.4 127.859 138.128 129.017Z" fill="#FFA77B"/>
<path d="M144.806 135.775C144.931 135.416 143.939 134.742 142.91 134.505C141.492 134.489 140.348 134.927 140.141 135.585C140.53 135.79 140.847 135.896 141.014 135.98C141.403 136.175 144.635 136.254 144.806 135.775Z" fill="#FFA77B"/>
<path d="M139.106 128.928C129.972 128.191 112.737 115.682 112.015 113.359C111.293 111.037 114.92 105.965 117.46 107.54C120.001 109.114 142.722 129.223 139.106 128.928Z" fill="#FFA77B"/>
<path d="M128.361 124.225C120.9 119.016 116.047 113.17 117.518 111.174C118.089 110.4 119.539 110.321 121.529 110.816C119.534 109.109 118.016 107.882 117.46 107.54C114.92 105.965 111.293 111.032 112.015 113.36C112.613 115.287 124.573 124.214 133.848 127.627C132.092 126.679 130.232 125.536 128.361 124.225Z" fill="#EA875C"/>
<path d="M83.0216 85.0451C86.0144 86.1037 89.4748 86.7252 93.1794 86.7252C98.3232 86.7252 103.02 85.5507 106.61 83.6231C106.61 83.6178 106.605 83.6178 106.605 83.6125C106.423 83.3176 106.242 83.0437 106.049 82.7856C105.961 82.6645 105.873 82.5486 105.784 82.438C105.722 82.359 105.654 82.2853 105.592 82.2116C105.426 82.0272 105.254 81.8482 105.073 81.6902C103.067 79.9732 95.4447 77.4609 95.4447 77.4609L80.7199 81.4637L80.7095 81.469C80.6783 81.469 80.6419 81.4637 80.6107 81.4742C80.564 81.49 80.5068 81.5269 80.4549 81.569C80.4341 81.5848 80.4133 81.6006 80.3873 81.6217C80.3458 81.6638 80.299 81.706 80.2522 81.7586C80.2055 81.8113 80.1587 81.8692 80.1068 81.9377C80.1068 81.9377 80.1068 81.9377 80.1016 81.943C80.803 82.9015 81.7538 83.9601 83.0216 85.0451Z" fill="#EA875C"/>
<path d="M88.9062 79.3465C90.5273 75.1699 90.9118 66.1111 90.9118 66.1111L97.2195 65.5686C97.4637 70.7669 97.6871 74.9277 99.1472 78.725C95.349 82.417 91.7172 82.4381 88.9062 79.3465Z" fill="#DD704A"/>
<path d="M106.034 55.188C103.951 46.0606 92.4111 45.6709 92.4111 45.6709C92.4111 45.6709 84.7317 48.931 82.565 51.4696C80.6114 53.7659 77.8057 64.3732 88.4727 72.8475L97.6432 73.6954C97.6432 73.7007 108.118 64.3153 106.034 55.188Z" fill="#8E3925"/>
<path d="M93.6459 61.3234C98.7066 61.3234 103.237 59.8592 106.298 57.5524C106.292 56.7676 106.209 55.9776 106.027 55.1928C103.944 46.0655 92.4041 45.6758 92.4041 45.6758C92.4041 45.6758 84.7247 48.9359 82.5581 51.4745C81.7943 52.3751 80.9006 54.545 80.7344 57.3575C83.8051 59.7749 88.4501 61.3234 93.6459 61.3234Z" fill="#A83E29"/>
<path d="M104.041 60.7969C106.026 61.45 105.574 66.3639 101.516 67.2329C101.516 67.2277 102.056 60.1438 104.041 60.7969Z" fill="#EA875C"/>
<path d="M82.1864 60.6969C80.1808 61.35 80.8303 66.2639 85.0181 67.1329C85.0181 67.1329 84.192 60.0491 82.1864 60.6969Z" fill="#EA875C"/>
<path d="M82.9583 62.8826C82.0594 63.1722 82.3504 65.3843 84.2313 65.774C84.2313 65.774 83.8572 62.5876 82.9583 62.8826Z" fill="#CC4F46"/>
<path d="M93.7221 77.0396C84.6658 73.0632 85.8037 64.8945 85.8037 63.2302C85.8037 61.5659 93.4363 52.0225 93.4363 52.0225C93.4363 52.0225 100.923 58.2478 101.209 63.5198C101.781 74.0007 93.7221 77.0396 93.7221 77.0396Z" fill="#FFA77B"/>
<path d="M41.4207 156.305L41.3064 157.563C42.278 157.706 43.1717 158.311 43.1509 159.028C43.1301 159.786 42.1481 160.386 41.0518 160.413L40.9375 161.672C43.1613 161.703 44.5849 160.539 44.6265 159.075C44.6733 157.679 43.4055 156.51 41.4207 156.305Z" fill="#6D322B"/>
<path d="M40.9294 163.483H32.1018C32.1018 163.483 29.3064 158.264 29.8935 156.32C30.4807 154.382 39.459 155.125 41.2256 155.573C42.9869 156.02 40.9294 163.483 40.9294 163.483Z" fill="#934A37"/>
<path d="M41.2256 155.573C40.7995 155.462 39.9526 155.341 38.903 155.241C38.9082 158.601 37.4898 161.319 35.3543 161.64C33.1253 161.977 30.8859 159.57 30.0027 156.104C29.9559 156.173 29.9143 156.241 29.8935 156.32C29.3064 158.259 32.1018 163.483 32.1018 163.483H40.9294C40.9346 163.483 42.9921 156.02 41.2256 155.573Z" fill="#7F3D30"/>
<path d="M92.7936 108.44L90.3672 110.031C94.7888 110.752 102.92 118.415 102.92 118.415C102.92 118.415 99.8547 111.911 92.7936 108.44Z" fill="#DDCEAB"/>
<path d="M67.4531 109.815L68.3104 108.224C68.3104 108.224 73.4958 107.166 75.491 112.322C75.491 112.322 75.5378 114.445 72.971 117.094C71.6357 109.425 67.4531 109.815 67.4531 109.815Z" fill="#8E213B"/>
<path d="M118.168 107.987L117.181 106.46C117.181 106.46 111.652 105.459 110.094 110.731C110.094 110.731 110.639 112.796 113.424 115.261C114.11 107.534 118.168 107.987 118.168 107.987Z" fill="#8E213B"/>
<path d="M58.384 74.0744C58.3581 74.048 58.3373 74.0059 58.3321 73.9638C58.0255 70.7089 55.0172 65.8213 52.6583 61.9819C51.1515 59.5381 49.8682 57.4472 49.5824 56.2937C49.5616 56.2042 49.6188 56.1199 49.7123 56.0989C49.8058 56.0778 49.8993 56.1305 49.9201 56.22C50.1955 57.326 51.4685 59.3906 52.9596 61.808C55.3445 65.6739 58.3737 70.5983 58.6906 73.9322C58.701 74.0322 58.6283 74.1218 58.5295 74.127C58.4724 74.1323 58.4204 74.1112 58.384 74.0744Z" fill="#A0579E"/>
<path d="M57.6518 71.2409C57.5894 71.1725 57.5842 71.0671 57.6414 70.9987C57.6518 70.9881 58.7585 69.6978 58.8156 68.3811C58.8208 68.2863 58.9039 68.2125 58.9975 68.2178C59.0962 68.2231 59.1689 68.3073 59.1637 68.4021C59.1014 69.84 57.9531 71.1725 57.9064 71.2304C57.844 71.3041 57.7297 71.3094 57.657 71.2462L57.6518 71.2409Z" fill="#A0579E"/>
<path d="M52.5263 68.676C52.4744 68.6233 52.4588 68.5391 52.5003 68.4653C52.5471 68.3811 52.6562 68.3495 52.7446 68.3969C54.0591 69.1184 56.7921 69.1974 56.8232 69.1974C56.922 69.1974 56.9999 69.2817 56.9947 69.3765C56.9947 69.4713 56.9116 69.5503 56.8129 69.5503C56.6985 69.545 53.9604 69.4713 52.5679 68.7023C52.5523 68.6971 52.5419 68.6865 52.5263 68.676Z" fill="#A0579E"/>
<path d="M56.1366 67.5911C56.0691 67.5226 56.0691 67.412 56.1366 67.3435C56.1522 67.333 57.4251 66.0743 57.3732 63.9517C57.3732 63.8569 57.4459 63.7832 57.5447 63.7832C57.6382 63.7832 57.7213 63.8569 57.7213 63.9517C57.7785 66.227 56.4431 67.5384 56.386 67.5963C56.3184 67.6596 56.2041 67.6595 56.1366 67.5911Z" fill="#A0579E"/>
<path d="M49.524 64.6256C49.4616 64.5624 49.4616 64.4623 49.5188 64.3939C49.5812 64.3201 49.6955 64.3096 49.7682 64.3728C52.2985 66.4637 55.0575 65.7211 55.0887 65.7158C55.1822 65.6895 55.2809 65.7422 55.3069 65.837C55.3329 65.9265 55.2809 66.0266 55.1874 66.0476C55.0679 66.0792 52.2154 66.8429 49.5396 64.6361C49.5344 64.6309 49.5292 64.6309 49.524 64.6256Z" fill="#A0579E"/>
<path d="M53.6508 63.4406C53.5937 63.3827 53.5833 63.2931 53.6353 63.2247C53.6457 63.2089 54.8407 61.5604 54.6536 60.5808C54.638 60.4912 54.7004 60.4017 54.7939 60.3859C54.8874 60.3701 54.9758 60.428 54.9966 60.5228C55.2148 61.6394 53.9782 63.3511 53.921 63.4248C53.8639 63.5038 53.7548 63.5196 53.6768 63.4617C53.6664 63.4511 53.6612 63.4459 53.6508 63.4406Z" fill="#A0579E"/>
<path d="M49.2506 61.0496C49.1882 60.9864 49.1882 60.8916 49.2454 60.8284C49.3077 60.7547 49.4168 60.7442 49.4896 60.8074C50.8249 61.866 52.3836 61.3972 52.3992 61.392C52.4927 61.3656 52.5914 61.413 52.6174 61.5026C52.6486 61.5921 52.5966 61.6869 52.5031 61.7133C52.4304 61.7343 50.7417 62.2399 49.2609 61.0654C49.2609 61.0602 49.2558 61.0549 49.2506 61.0496Z" fill="#A0579E"/>
<path d="M51.3118 59.7698L51.3066 59.7645C51.2442 59.6961 51.2546 59.5907 51.3273 59.5328C51.3481 59.517 51.8365 59.1062 51.8002 58.4268C51.795 58.3372 51.8677 58.2582 51.9612 58.253C52.0548 58.2477 52.1379 58.3162 52.1431 58.411C52.1899 59.2589 51.5767 59.7698 51.5508 59.7909C51.478 59.8383 51.3741 59.833 51.3118 59.7698Z" fill="#A0579E"/>
<path d="M103.393 63.3039C104.178 63.5619 104.001 65.5107 102.391 65.853C102.391 65.853 102.609 63.0458 103.393 63.3039Z" fill="#CC4F46"/>
<path d="M93.44 71.4306C92.7853 71.4306 92.0839 71.2936 91.4552 70.9513C91.3305 70.8828 91.2837 70.7248 91.3513 70.5932C91.4188 70.4668 91.5747 70.4194 91.7046 70.4878C93.2062 71.3147 95.0662 70.7248 95.2949 70.3614C95.3728 70.2403 95.5339 70.2034 95.6534 70.2772C95.7729 70.3562 95.8092 70.5194 95.7365 70.6406C95.4715 71.0566 94.5207 71.4306 93.44 71.4306Z" fill="#CC4F46"/>
<path d="M93.6906 72.4789C94.1841 72.4789 94.5842 72.3728 94.5842 72.2419C94.5842 72.111 94.1841 72.0049 93.6906 72.0049C93.197 72.0049 92.7969 72.111 92.7969 72.2419C92.7969 72.3728 93.197 72.4789 93.6906 72.4789Z" fill="#CC4F46"/>
<path d="M94.1671 65.9321C94.432 67.0329 94.6399 68.6814 93.4708 68.6603C92.4888 68.6392 92.6395 67.2752 92.9149 66.1797C92.4628 67.2172 91.9173 68.9711 93.4448 68.9974C95.3049 69.0185 94.5464 66.8117 94.1671 65.9321Z" fill="#DD704A"/>
<path d="M87.3594 64.689L87.4061 65.2473C89.6819 66.2532 92.2486 64.394 92.2486 64.394C92.2486 64.394 89.3701 65.4948 87.3594 64.689Z" fill="#DD704A"/>
<path d="M99.6737 64.6416L99.6322 65.1999C97.4811 66.2058 95.0547 64.3467 95.0547 64.3467C95.0547 64.3467 97.7721 65.4527 99.6737 64.6416Z" fill="#DD704A"/>
<path d="M92.3041 60.207C92.3041 60.207 88.7242 62.1768 86.6875 62.1768L86.9525 62.8931C90.1791 62.9826 92.5224 61.9082 92.5224 61.9082L92.3041 60.207Z" fill="#A83E29"/>
<path d="M94.7026 60.0278C94.7026 60.0278 98.2825 61.9976 100.319 61.9976L100.054 62.7139C96.8277 62.8034 94.4844 61.729 94.4844 61.729L94.7026 60.0278Z" fill="#A83E29"/>
<path d="M98.2346 59.712C97.6163 55.5881 94.0312 50.9692 94.3897 49.8052L92.6647 49.5366C92.618 52.8073 95.0963 54.6928 96.068 55.9042C97.0396 57.1155 98.2346 59.712 98.2346 59.712Z" fill="#A83E29"/>
</svg>
