<svg width="180" height="180" viewBox="0 0 180 180" fill="none" xmlns="http://www.w3.org/2000/svg">
<path d="M173.824 146.472C172.277 146.881 172.586 151.186 170.208 153.216C167.938 155.156 165.766 153.829 165.766 153.829L166.9 156.795C170.104 157.306 175.371 157.204 176.506 152.195C177.647 147.187 175.372 146.064 173.824 146.472Z" fill="#847824"/>
<path d="M173.817 146.472C172.622 146.785 172.531 149.409 171.469 151.529C171.748 153.024 172.421 154.081 173.392 154.291C174.418 154.513 175.54 153.739 176.457 152.37C176.469 152.309 176.493 152.255 176.505 152.195C177.64 147.187 175.365 146.064 173.817 146.472Z" fill="#A59930"/>
<path d="M76.6265 31.579C73.3193 27.6936 74.7697 21.358 79.1084 23.1956C83.4471 25.0332 104.722 32.1915 108.855 18.9018C112.987 5.61208 97.6709 -5.73192 78.6958 3.16192C55.1452 14.2057 76.6265 31.579 76.6265 31.579Z" fill="#FDA29B"/>
<path d="M159.049 141.77C159.565 137.783 161.943 127.664 155.948 127.97C151.907 128.174 153.053 133.795 152.95 138.6C152.847 143.404 152.641 149.331 164.619 150.352L166.167 147.181C166.179 147.187 158.533 145.758 159.049 141.77Z" fill="#847824"/>
<path d="M164.312 118.055C157.395 122.247 165.963 132.979 167.104 138.191C168.238 143.404 167.413 144.731 164.622 146.677C161.83 148.616 163.9 161.804 163.9 161.804L167.413 161.396C166.691 150.97 168.135 149.439 171.133 146.166C174.125 142.893 171.236 113.864 164.312 118.055Z" fill="#847824"/>
<path d="M172.029 143.614C171.719 143.548 171.41 143.506 171.088 143.506C167.01 143.506 163.703 148.862 163.703 155.462C163.703 157.75 164.11 159.882 164.795 161.696L167.423 161.389C166.701 150.964 168.145 149.433 171.143 146.16C171.537 145.728 171.834 144.833 172.029 143.614Z" fill="#93832A"/>
<path d="M138.088 166.608L133.13 166.71C133.13 166.71 131.067 177.544 131.583 178.463C132.099 179.381 132.305 179.994 135.612 179.994C138.919 179.994 139.951 178.156 139.951 178.156L138.088 166.608Z" fill="#4C241C"/>
<path d="M124.041 166.608L119.083 166.71C119.083 166.71 117.02 177.544 117.536 178.463C118.052 179.381 118.258 179.994 121.565 179.994C124.872 179.994 125.904 178.156 125.904 178.156L124.041 166.608Z" fill="#4C241C"/>
<path d="M66.5097 166.608L61.552 166.71C61.552 166.71 59.4889 177.544 60.0047 178.463C60.5205 179.381 60.7268 179.994 64.0339 179.994C67.3411 179.994 68.3726 178.156 68.3726 178.156L66.5097 166.608Z" fill="#4C241C"/>
<path d="M52.4551 166.608L47.4973 166.71C47.4973 166.71 45.4342 177.544 45.95 178.463C46.4658 179.381 46.6721 179.994 49.9792 179.994C53.2864 179.994 54.318 178.156 54.318 178.156L52.4551 166.608Z" fill="#4C241C"/>
<path d="M26.9434 129.351C39.6501 140.545 39.0251 149.439 35.0019 148.67C30.9727 147.902 29.577 151.583 34.5347 150.664C39.4923 149.745 46.7741 150.508 54.9844 151.433C63.1946 152.351 58.2369 138.095 58.2369 138.095C58.2369 138.095 34.8441 124.139 30.3537 125.67C25.8572 127.207 26.9434 129.351 26.9434 129.351Z" fill="#FDA29B"/>
<path d="M6.87879 132.726C9.57328 132.726 11.7576 130.185 11.7576 127.051C11.7576 123.917 9.57328 121.376 6.87879 121.376C4.1843 121.376 2 123.917 2 127.051C2 130.185 4.1843 132.726 6.87879 132.726Z" fill="#FDA29B"/>
<path d="M14.2429 108.957C14.2429 107.858 13.6543 106.963 12.9262 106.963C12.198 106.963 11.6094 107.858 11.6094 108.957C11.6094 110.056 12.198 110.951 12.9262 110.951C13.6543 110.951 14.2429 110.062 14.2429 108.957Z" fill="#FDA29B"/>
<path d="M15.0127 95.8478C15.0127 93.6018 13.6595 91.7822 11.9907 91.7822C10.322 91.7822 8.96875 93.6018 8.96875 95.8478C8.96875 98.0938 10.322 99.9134 11.9907 99.9134C13.6595 99.9134 15.0127 98.0938 15.0127 95.8478Z" fill="#FDA29B"/>
<path d="M32.366 92.2446C32.366 92.2446 27.5661 88.4132 24.9264 89.9446C22.2929 91.4759 22.2929 100.37 21.2067 95.3133C20.1205 90.2509 15.7817 95.7757 19.811 100.526C23.8402 105.276 22.9118 112.482 18.8825 114.17C14.8533 115.857 17.0257 105.582 15.7817 109.726C14.5438 113.864 16.249 127.97 51.7234 148.52L32.366 92.2446Z" fill="#FDA29B"/>
<path d="M141.906 60.7407C141.906 60.7407 149.498 60.8969 149.661 67.4186C149.728 70.163 155.499 76.1924 154.643 71.0218C153.788 65.8512 159.34 69.3583 157.623 75.3756C155.906 81.3929 159.285 86.9839 163.151 87.8246C166.537 88.5633 171.361 84.7559 171.883 88.5633C172.526 93.2654 164.783 88.2029 160.184 106.117C158.782 111.576 154.219 123.058 147.61 132.738L141.906 60.7407Z" fill="#D92D20"/>
<path d="M144.383 38.7373C144.383 37.1579 143.09 35.8728 141.488 35.8728C139.886 35.8728 138.594 37.1519 138.594 38.7373C138.594 40.3167 139.886 41.6019 141.488 41.6019C143.09 41.6019 144.383 40.3167 144.383 38.7373Z" fill="#FDA29B"/>
<path d="M62.2734 30.636C62.2734 29.0566 60.9809 27.7715 59.3789 27.7715C57.7829 27.7715 56.4844 29.0506 56.4844 30.636C56.4844 32.2214 57.7769 33.5005 59.3789 33.5005C60.9809 33.4945 62.2734 32.2154 62.2734 30.636Z" fill="#FDA29B"/>
<path d="M30.8588 19.286C30.8588 18.2351 29.6148 17.6225 28.0857 17.9168C26.5504 18.211 25.3125 19.304 25.3125 20.3549C25.3125 21.4059 26.5565 22.0184 28.0857 21.7241C29.6148 21.4299 30.8588 20.3369 30.8588 19.286Z" fill="#FDA29B"/>
<path d="M33.9681 21.6824C33.9681 21.0758 33.4402 20.7215 32.7848 20.8957C32.1295 21.0638 31.6016 21.7004 31.6016 22.3069C31.6016 22.9135 32.1295 23.2678 32.7848 23.0936C33.4402 22.9195 33.9681 22.2889 33.9681 21.6824Z" fill="#FDA29B"/>
<path d="M20.6225 87.1581C20.3069 86.6356 19.6698 86.6056 19.1965 87.08C18.7232 87.5605 18.6018 88.3712 18.9173 88.8876C19.2329 89.4101 19.87 89.4401 20.3433 88.9657C20.8166 88.4853 20.938 87.6746 20.6225 87.1581Z" fill="#FDA29B"/>
<path d="M114.275 28.6122C114.469 27.0448 112.734 25.7477 110.391 25.7237C108.055 25.6936 105.998 26.9488 105.804 28.5161C105.61 30.0835 107.345 31.3807 109.688 31.4047C112.03 31.4347 114.081 30.1796 114.275 28.6122Z" fill="#FDA29B"/>
<path d="M114.14 23.52C114.389 22.7994 113.758 21.8566 112.739 21.4182C111.719 20.9798 110.688 21.208 110.445 21.9286C110.196 22.6493 110.827 23.5921 111.847 24.0305C112.866 24.4689 113.898 24.2407 114.14 23.52Z" fill="#FDA29B"/>
<path d="M147.069 53.0479L145.419 50.1833C145.419 50.1833 144.8 59.996 135.297 54.0688L153.271 81.6691C149.958 68.7878 142.73 57.75 147.069 53.0479Z" fill="#D92D20"/>
<path d="M151.614 56.3149C156.634 56.3149 160.704 53.1127 160.704 49.1626C160.704 45.2125 156.634 42.0103 151.614 42.0103C146.593 42.0103 142.523 45.2125 142.523 49.1626C142.523 53.1127 146.593 56.3149 151.614 56.3149Z" fill="#D92D20"/>
<path d="M71.7826 32.2035C67.2255 32.3957 63.4207 34.6417 59.173 35.8247C57.5043 36.2871 54.5066 36.4012 52.9774 35.5965C51.782 34.966 51.6181 32.3056 52.6679 31.1766C55.1498 28.5163 53.0806 25.4536 49.7735 22.9974C46.4663 20.5412 48.7419 16.2534 39.4454 15.0224C30.149 13.7973 31.3869 21.5621 40.0644 19.9287C48.7419 18.2953 47.7103 27.6995 40.2707 31.579C33.3226 35.2062 33.3469 46.5682 26.7933 61.2752C24.6027 66.1875 21.0164 70.8236 19.4266 76.7208C19.0079 78.2641 21.2591 78.9848 21.8295 77.4895C26.2714 65.8572 30.1065 55.4981 37.3276 48.7001C46.2903 40.2686 59.349 36.6354 72.0436 34.6897C73.6213 34.4495 73.3725 32.1315 71.7826 32.2035Z" fill="#FDA29B"/>
<path d="M24.1498 95.3674C21.2128 128.024 45.1517 157.768 79.1031 163.227C114.942 168.986 150.283 146.058 156.448 110.309C162.892 72.9136 134.7 39.2239 95.4022 36.7918C58.3257 34.4978 27.2081 61.3594 24.1498 95.3674Z" fill="#F97066"/>
<path d="M132.189 50.1113C133.554 53.8646 136.831 56.7352 139.307 59.966C146.558 69.4484 146.601 83.699 139.398 93.2173C138.663 94.1902 137.826 95.145 136.715 95.6735C134.555 96.7064 131.946 95.8717 129.913 94.6166C126.424 92.4727 123.73 89.0917 122.437 85.2363C121.223 81.6271 121.217 77.7357 120.41 74.0184C119.603 70.3011 117.668 66.4457 114.118 64.9985C110.082 63.353 105.252 65.5029 102.643 68.962C100.033 72.421 100.209 77.0931 98.7591 81.1647C95.1304 91.3317 82.2356 80.33 78.8617 72.6252C74.3712 62.3501 42.3192 47.7873 42.7318 87.4583C42.9199 105.432 67.2593 105.925 70.0324 124.751C70.7728 129.784 69.2557 136.864 62.5322 140.035C59.6984 141.374 55.4689 144.683 44.346 140.371C43.46 140.029 42.392 140.227 41.5546 140.665C40.881 141.02 40.4502 141.602 40.1953 142.287C49.9408 153.03 63.4606 160.711 79.1104 163.227C114.949 168.986 150.788 146.01 156.947 110.26C161.079 86.2272 150.417 63.7734 132.189 50.1113Z" fill="#D92D20"/>
<path d="M54.4909 88.2448C53.4896 83.8669 50.4009 80.8282 47.5914 81.4588C44.7818 82.0893 43.3133 86.1429 44.3146 90.5208C45.3158 94.8987 48.4045 97.9373 51.214 97.3068C54.0236 96.6822 55.4921 92.6226 54.4909 88.2448Z" fill="#FDA29B"/>
<path d="M76.962 72.0366C75.7302 69.2982 73.309 67.7008 71.5492 68.4755C69.7895 69.2502 69.3647 72.0967 70.5904 74.8351C71.8223 77.5735 74.2435 79.1709 76.0033 78.3963C77.763 77.6276 78.1938 74.7751 76.962 72.0366Z" fill="#FDA29B"/>
<path d="M128.358 94.9347C128 94.5324 127.4 94.4183 127.017 94.6885C126.635 94.9587 126.617 95.5052 126.981 95.9076C127.339 96.3099 127.94 96.424 128.322 96.1538C128.698 95.8835 128.716 95.3371 128.358 94.9347Z" fill="#FDA29B"/>
<path d="M137.792 96.2738C137.033 96.7482 136.699 97.6851 137.039 98.3697C137.379 99.0543 138.271 99.2284 139.03 98.754C139.788 98.2796 140.122 97.3427 139.782 96.6581C139.442 95.9735 138.55 95.7994 137.792 96.2738Z" fill="#FDA29B"/>
<path d="M133.221 96.9285C130.739 96.0938 128.239 96.8444 127.638 98.598C127.038 100.352 128.567 102.447 131.049 103.282C133.531 104.117 136.031 103.366 136.631 101.613C137.232 99.8591 135.703 97.7572 133.221 96.9285Z" fill="#FDA29B"/>
<path d="M118.863 73.3036C118.025 70.4211 115.853 68.5114 114.002 69.0338C112.151 69.5563 111.326 72.3187 112.163 75.2013C113.001 78.0838 115.173 79.9935 117.024 79.471C118.875 78.9486 119.694 76.1861 118.863 73.3036Z" fill="#FDA29B"/>
<path d="M153.093 116.974C155.429 109.798 153.657 104.183 149.5 105.138C145.926 105.96 142.297 111.443 141.084 116.974C139.973 122.012 141.084 126.198 143.742 126.775C146.752 127.417 151.017 123.346 153.093 116.974Z" fill="#FDA29B"/>
<path d="M121.059 82.3535C121.077 81.1344 120.458 80.1315 119.675 80.1195C118.893 80.1075 118.237 81.0863 118.219 82.3054C118.201 83.5245 118.82 84.5274 119.603 84.5394C120.385 84.5514 121.041 83.5725 121.059 82.3535Z" fill="#FDA29B"/>
<path d="M116.397 82.0173C116.148 81.3987 115.626 81.0204 115.226 81.1765C114.825 81.3327 114.71 81.9632 114.959 82.5818C115.208 83.2003 115.73 83.5787 116.13 83.4225C116.525 83.2664 116.646 82.6358 116.397 82.0173Z" fill="#FDA29B"/>
<path d="M57.2508 96.484C57.0687 95.8414 56.5833 95.415 56.1706 95.5352C55.758 95.6493 55.576 96.2678 55.758 96.9044C55.9401 97.5409 56.4255 97.9733 56.8381 97.8532C57.2568 97.7391 57.4389 97.1206 57.2508 96.484Z" fill="#FDA29B"/>
<path d="M121.173 87.5062C120.991 86.8636 120.505 86.4373 120.093 86.5574C119.68 86.6775 119.498 87.29 119.68 87.9266C119.862 88.5691 120.347 88.9955 120.76 88.8754C121.173 88.7613 121.355 88.1488 121.173 87.5062Z" fill="#FDA29B"/>
<path d="M149.1 78.7142C149.676 77.9816 149.676 76.9607 149.094 76.4382C148.511 75.9158 147.571 76.0899 146.994 76.8286C146.418 77.5612 146.418 78.5821 147 79.1046C147.583 79.621 148.523 79.4469 149.1 78.7142Z" fill="#FDA29B"/>
<path d="M56.3589 100.724C55.5155 99.5769 54.0227 98.9584 53.0215 99.3487C52.0263 99.739 51.9049 100.982 52.7484 102.135C53.5919 103.288 55.0846 103.901 56.0859 103.51C57.0871 103.114 57.2085 101.871 56.3589 100.724Z" fill="#FDA29B"/>
<path d="M145.113 134.125C146.812 132.378 147.213 130.15 145.999 129.147C144.786 128.15 142.425 128.756 140.726 130.504C139.027 132.251 138.633 134.479 139.84 135.482C141.054 136.479 143.414 135.873 145.113 134.125Z" fill="#FDA29B"/>
<path d="M147.006 74.9912C147.23 74.3606 147.084 73.7361 146.684 73.598C146.283 73.4538 145.774 73.8502 145.543 74.4807C145.319 75.1113 145.464 75.7358 145.865 75.874C146.271 76.0121 146.781 75.6217 147.006 74.9912Z" fill="#FDA29B"/>
<path d="M143.144 58.9691C142.543 58.0443 141.596 57.5879 141.032 57.9482C140.468 58.3085 140.492 59.3474 141.093 60.2723C141.694 61.1971 142.64 61.6535 143.205 61.2932C143.769 60.9328 143.745 59.8939 143.144 58.9691Z" fill="#FDA29B"/>
<path d="M146.942 82.2336C147.227 81.6331 147.148 80.9965 146.766 80.8164C146.384 80.6362 145.832 80.9785 145.546 81.579C145.261 82.1796 145.34 82.8161 145.722 82.9963C146.105 83.1824 146.651 82.8401 146.942 82.2336Z" fill="#FDA29B"/>
<path d="M113.047 66.0194C112.392 65.8573 111.761 66.1335 111.64 66.6259C111.512 67.1244 111.943 67.6528 112.598 67.815C113.254 67.9771 113.885 67.7009 114.006 67.2084C114.127 66.71 113.703 66.1755 113.047 66.0194Z" fill="#FDA29B"/>
<path d="M47.839 78.8705C48.0332 77.5554 47.5052 76.3843 46.6557 76.2642C45.8122 76.1441 44.9688 77.111 44.7746 78.4321C44.5804 79.7473 45.1083 80.9183 45.9579 81.0384C46.8013 81.1585 47.6448 80.1917 47.839 78.8705Z" fill="#FDA29B"/>
<path d="M92.2538 42.4124C90.2391 41.95 86.6771 44.5563 86.5983 46.0156C86.5194 47.4748 87.4478 49.4626 91.5559 50.9999L93.5706 51.1561C93.5706 51.1561 94.2623 42.8748 92.2538 42.4124Z" fill="#5B2D24"/>
<path d="M94.8864 51.0003C94.8864 49.4329 93.4664 48.1658 91.7127 48.1658C89.959 48.1658 88.5391 49.4329 88.5391 51.0003C88.5391 52.5677 89.959 53.8348 91.7127 53.8348C93.4604 53.8408 94.8864 52.5677 94.8864 51.0003Z" fill="#ED9C3B"/>
<path d="M110.523 90.1006C114.613 95.0069 125.93 116.626 126.088 117.851C126.246 119.076 138.509 103.594 138.509 103.594L148.413 119.232C148.413 119.232 126.919 140.389 123.934 141.314C120.948 142.233 107.513 130.276 107.513 130.276L105.656 96.7004L110.523 90.1006Z" fill="#E06027"/>
<path d="M138.509 103.594C138.509 103.594 126.245 119.082 126.087 117.851C125.93 116.626 114.612 95.0069 110.523 90.1006L109.812 91.0614C111.226 106.711 118.878 129.657 122.07 131.549C125.116 133.357 143.139 122.962 147.611 117.971L138.509 103.594Z" fill="#E5802C"/>
<path d="M110.523 90.1006L109.812 91.0614C110.62 100.009 113.466 111.335 116.354 119.755C119.267 118.542 121.093 114.2 121.439 108.447C117.78 101.565 112.913 92.9711 110.523 90.1006Z" fill="#ED9C3B"/>
<path d="M126.092 117.851C126.061 117.617 125.631 116.65 124.921 115.197L123.938 123.88L128.628 115.551C127.172 117.185 126.134 118.205 126.092 117.851Z" fill="#E06027"/>
<path d="M70.1716 89.3318C66.1423 94.2381 54.9891 115.857 54.8313 117.082C54.6735 118.307 42.5918 102.826 42.5918 102.826L32.8281 118.463C32.8281 118.463 52.8167 140.029 55.7597 140.953C58.7028 141.872 71.8707 129.201 71.8707 129.201L74.9715 95.9316L70.1716 89.3318Z" fill="#E5802C"/>
<path d="M50.084 122.043C51.5646 121.719 51.7467 116.188 50.5088 112.651C46.9893 108.447 42.5959 102.826 42.5959 102.826L35.2109 114.686C35.2777 114.794 42.2439 123.766 50.084 122.043Z" fill="#ED9C3B"/>
<path d="M74.9762 95.9256L70.1763 89.3318C67.9432 92.0522 63.5256 99.8951 60 106.567C61.1165 114.32 64.6907 120.001 68.9323 120.001C70.3523 120.001 71.6933 119.364 72.8948 118.229L74.9762 95.9256Z" fill="#ED9C3B"/>
<path d="M56.3787 131.141C50.9052 131.855 32.8281 118.464 32.8281 118.464C32.8281 118.464 52.8166 140.029 55.7597 140.953C58.7028 141.872 71.8707 129.201 71.8707 129.201L74.8259 97.439C70.5175 106.387 58.2173 130.9 56.3787 131.141Z" fill="#E06027"/>
<path d="M136.631 136.864C134.616 135.177 97.5885 138.089 97.5885 138.089L77.7577 135.02C77.7577 135.02 55.2934 132.414 51.4219 133.795L59.1709 150.352L97.5945 158.171L131.837 155.715C131.831 155.727 138.646 138.551 136.631 136.864Z" fill="#E06027"/>
<path d="M56.5312 133.033C58.5459 135.489 75.8948 148.977 75.8948 148.977L91.0773 143.458L100.683 151.583L126.091 136.095L111.836 134.564C111.836 134.564 114.003 133.951 114.161 133.183C114.318 132.414 111.836 114.782 111.836 112.945C111.836 111.107 110.599 90.1007 110.599 90.1007C110.599 90.1007 94.1781 84.7319 91.3868 84.4257C88.5954 84.1194 71.556 88.1069 70.3181 89.332C69.0802 90.5571 69.5414 110.795 69.3897 113.251C69.2319 115.707 66.7561 125.208 66.9078 126.132C67.0656 127.051 68.3035 129.201 68.4552 129.658C68.613 130.12 66.2889 130.733 66.4406 131.495C66.5983 132.264 67.369 132.876 67.369 132.876L56.5312 133.033Z" fill="#ED9C3B"/>
<path d="M95.2141 102.417L89.8438 106.405L107.818 132.57L108.54 131.855C108.437 130.63 95.2141 102.417 95.2141 102.417Z" fill="#E5802C"/>
<path d="M114.167 133.183C114.209 132.972 114.051 131.465 113.796 129.363C106.848 132.738 98.438 134.714 89.3782 134.714C81.3622 134.714 73.8619 133.165 67.4297 130.474C66.8957 130.775 66.3738 131.117 66.4466 131.495C66.6044 132.264 67.3751 132.876 67.3751 132.876L56.5312 133.033C58.5459 135.489 75.8948 148.977 75.8948 148.977L91.0773 143.458L100.683 151.583L126.091 136.095L111.836 134.564C111.843 134.564 114.015 133.951 114.167 133.183Z" fill="#E5802C"/>
<path d="M67.2537 132.882L56.5312 133.032C56.8711 133.441 57.6417 134.167 58.6854 135.08C63.8616 137.951 68.789 138.966 69.7113 137.344C70.2635 136.383 69.2501 134.696 67.2537 132.882Z" fill="#ED9C3B"/>
<path d="M115.806 134.99C107.935 137.639 102.583 141.188 103.882 142.869C104.446 143.602 106.169 143.86 108.591 143.698C112.426 143.44 116.121 142.185 119.392 140.191L126.109 136.095L115.806 134.99Z" fill="#ED9C3B"/>
<path d="M124.551 135.795L101.413 150.922L90.6727 142.749L75.4902 147.758L58.5479 132.828H55.4531L75.2839 149.289L90.7759 144.28L101.517 152.46L126.614 135.897L124.551 135.795Z" fill="#A02A46"/>
<path d="M91.7885 139.855L90.86 139.47C90.86 139.47 87.0614 144.298 87.4497 153.883L91.1695 155.799C89.695 148.286 91.7885 139.855 91.7885 139.855Z" fill="#683D2E"/>
<path d="M92.5312 139.776L93.3444 139.314C93.3444 139.314 98.0593 145.121 99.7766 156.639L96.609 158.945C96.3906 149.913 92.5312 139.776 92.5312 139.776Z" fill="#683D2E"/>
<path d="M136.125 136.864C130.434 137.632 80.7656 154.651 80.7656 154.651L81.9004 162.32H137.988L139.311 161.858C145.586 158.026 141.817 136.095 136.125 136.864Z" fill="#E5802C"/>
<path d="M94.8047 149.949C100.4 152.177 112.93 154.141 121.559 154.141C129.545 154.141 136.869 150.706 142.349 148.76C141.633 142.467 139.151 136.456 136.123 136.864C132.779 137.314 109.508 145.031 94.8047 149.949Z" fill="#ED9C3B"/>
<path d="M108.138 158.026C111.312 158.717 114.491 153.811 114.103 152.814C113.715 151.817 113.636 150.286 114.953 150.514C116.269 150.742 116.81 156.801 115.881 158.945C114.953 161.089 114.564 162.548 114.564 162.548H105.656L108.138 158.026Z" fill="#FFA77B"/>
<path d="M51.8938 133.795C45.8499 133.027 40.1215 158.021 46.7783 161.852H47.2455L107.357 162.927L109.062 157.408C109.062 157.408 57.9316 134.564 51.8938 133.795Z" fill="#ED9C3B"/>
<path d="M71.6975 154.94C61.1814 151.475 52.0367 147.013 45.4831 142.473C43.2318 149.847 42.8192 159.576 46.7696 161.852H47.2368L107.348 162.927L108.216 160.11C99.6354 161.413 86.1276 159.69 71.6975 154.94Z" fill="#E5802C"/>
<path d="M91.5007 97.6133C99.6745 97.6133 107.029 95.5895 112.163 92.3526C111.586 91.4879 111.058 90.7552 110.615 90.2148C110.609 90.1487 110.609 90.1007 110.609 90.1007C110.609 90.1007 94.1889 84.7319 91.3975 84.4257C88.6062 84.1194 71.5667 88.1069 70.3288 89.332C70.3046 89.356 70.2803 89.404 70.256 89.4461L70.1771 89.332C69.8191 89.7704 69.4004 90.3469 68.9453 91.0195C74.0608 95.019 82.2588 97.6133 91.5007 97.6133Z" fill="#E5802C"/>
<path d="M91.5575 107.426L106.855 88.8876C101.831 87.2842 93.3355 84.6358 91.3997 84.4256C89.6764 84.2335 82.516 85.6867 77 87.11C84.1422 96.5924 91.5575 107.426 91.5575 107.426Z" fill="#FFA77B"/>
<path d="M106.855 88.8876C101.831 87.2842 93.3355 84.6358 91.3997 84.4256C89.6764 84.2335 82.516 85.6867 77 87.11C79.4879 90.4189 82.0123 93.884 84.2393 97.0067C86.5573 97.3971 88.9846 97.6133 91.4968 97.6133C94.6098 97.6133 97.6075 97.289 100.405 96.6945L106.855 88.8876Z" fill="#EA875C"/>
<path d="M105.65 88.4131L90.0547 104.357L91.9115 109.059L107.925 89.1277L105.65 88.4131Z" fill="#A02A46"/>
<path d="M108.859 135.333L108.653 131.549L78.9673 86.6177C77.9358 86.8699 76.9345 87.1221 76 87.3743C84.5986 100.862 105.455 132.672 105.455 132.672L105.042 136.558L108.859 135.333Z" fill="#A02A46"/>
<path d="M108.508 131.339C107.434 131.681 106.33 132 105.195 132.294C105.359 132.54 105.444 132.672 105.444 132.672L105.031 136.558L108.854 135.333L108.648 131.549L108.508 131.339Z" fill="#7F1F3A"/>
<path d="M67.0236 132.57C78.0737 138.629 92.2489 140.617 92.2489 140.617C92.2489 140.617 110.089 136.347 113.5 134.612V133.693C113.5 133.693 96.1325 138.888 92.0911 138.473C80.1672 137.248 67.4362 130.48 67.4362 130.48C65.907 130.672 65.7978 131.381 67.0236 132.57Z" fill="#683D2E"/>
<path d="M83.4453 85.4466C83.7548 83.6089 84.7864 74.7151 84.7864 74.7151L97.4385 75.1775L98.5247 86.2693C98.5247 86.2693 91.8133 88.7254 90.0535 88.8275C88.2998 88.9236 83.4453 85.4466 83.4453 85.4466Z" fill="#DD704A"/>
<path d="M82.5473 70.5895C78.7365 68.5236 77.45 63.7434 79.2644 62.7465C81.0849 61.7497 82.074 63.245 82.5473 65.1427C83.0145 67.0403 82.5473 70.5895 82.5473 70.5895Z" fill="#EA875C"/>
<path d="M82.2377 69.1601C79.8772 67.7489 79.1915 64.6862 80.3687 64.1037C81.5459 63.5211 82.1406 64.494 82.3833 65.7071C82.6321 66.9201 82.2377 69.1601 82.2377 69.1601Z" fill="#CC4F46"/>
<path d="M102.077 70.3972C105.846 68.1752 106.944 63.347 105.057 62.4222C103.176 61.5033 102.229 63.0347 101.841 64.9504C101.446 66.8721 102.077 70.3972 102.077 70.3972Z" fill="#EA875C"/>
<path d="M101.829 69.2742C104.39 67.7609 105.142 64.476 103.856 63.8514C102.576 63.2269 101.932 64.2658 101.665 65.5749C101.398 66.8721 101.829 69.2742 101.829 69.2742Z" fill="#CC4F46"/>
<path d="M79.465 79.8256C84.5804 84.1975 91.7044 85.6508 91.7044 85.6508C91.7044 85.6508 101.541 81.1288 103.556 78.8288L102.397 73.6162L103.246 73.1538L102.706 64.4881C102.706 64.4881 108.052 51.2224 93.7191 50.2315C79.3861 49.2347 79.6955 57.4379 81.5585 66.638L80.3995 69.6286L81.5585 71.5443L79.2344 76.2945L80.0839 77.5977L79.465 79.8256Z" fill="#703A2C"/>
<path d="M103.244 73.1597L102.704 64.4941C102.704 64.4941 103.9 61.5155 103.639 58.2786C102.322 63.9716 97.7587 68.1753 92.3216 68.1753C86.5447 68.1753 81.757 63.4312 80.7982 57.1917C80.3795 59.9181 80.8589 63.209 81.5506 66.638L80.3916 69.6286L81.5506 71.5443L79.2266 76.2945L80.0761 77.5976L79.4572 79.8196C80.6708 80.8585 82.0058 81.7353 83.3286 82.4619C83.2316 81.7653 83.1769 81.0507 83.1769 80.318C83.1769 73.8624 87.012 68.6257 91.7391 68.6257C96.4662 68.6257 100.301 73.8624 100.301 80.318C100.301 80.6183 100.283 80.9186 100.271 81.2128C101.733 80.3361 102.977 79.4893 103.56 78.8227L102.401 73.6101L103.244 73.1597Z" fill="#5B2D24"/>
<path d="M85.0779 70.193C86.4978 71.0818 91.1885 69.8928 92.3536 69.9709C93.5187 70.0489 97.0564 71.3941 98.7555 71.316C100.455 71.244 100.358 64.434 100.546 63.2329C100.734 62.0379 103.646 52.8317 93.5672 52.6095C83.488 52.3873 82.8327 57.696 83.9735 61.2872C85.1143 64.8844 84.1252 69.5985 85.0779 70.193Z" fill="#FFA77B"/>
<path d="M109.374 157.18L108.136 162.621L103.797 162.855L106.582 156.033L109.374 157.18Z" fill="#7F1F3A"/>
<path d="M144.542 161.396L41.8203 161.552V167.683L143.298 168.452L144.542 161.396Z" fill="#703A2C"/>
<path d="M159.518 180H172.807C172.807 180 175.113 161.395 174.567 160.579C174.021 159.762 158.644 160.272 157.218 160.477C155.786 160.681 159.518 180 159.518 180Z" fill="#703A2C"/>
<path d="M174.555 160.579C174.47 160.453 174.039 160.363 173.365 160.291C173.93 169.437 171.891 176.757 168.48 177.129C164.894 177.52 161.108 170.073 159.827 160.315C158.486 160.369 157.509 160.429 157.2 160.477C155.774 160.681 159.506 180 159.506 180H172.795C172.801 180 175.107 161.395 174.555 160.579Z" fill="#5B2D24"/>
<path d="M168.375 161.437C168.424 165.329 169.17 168.422 170.086 168.422C171.003 168.422 171.749 165.347 171.797 161.467C170.82 161.437 169.625 161.431 168.375 161.437Z" fill="#914A3C"/>
<path d="M139.941 178.162L139 172.331C138.242 171.424 137.362 170.908 136.427 170.908C134.17 170.908 132.252 173.911 131.5 178.126C131.512 178.282 131.536 178.403 131.573 178.469C132.089 179.387 132.295 180 135.602 180C138.909 180 139.941 178.162 139.941 178.162Z" fill="#703A2C"/>
<path d="M53.9481 178.613C53.0561 174.589 51.2235 171.821 49.0996 171.821C48.0862 171.821 47.1396 172.463 46.3265 173.562C45.9745 175.922 45.7318 178.078 45.9503 178.468C46.466 179.387 46.6724 180 49.9795 180C52.2126 180 53.408 179.159 53.9481 178.613Z" fill="#703A2C"/>
<path d="M41.8186 161.81C53.0507 164.65 71.5162 165.689 92.5302 165.689C114.218 165.689 133.411 164.53 144.51 161.534L144.534 161.402L41.8125 161.558V161.81H41.8186Z" fill="#8E4132"/>
<path d="M56.0773 126.132L56.0105 114.404C55.3006 115.869 54.8697 116.854 54.8394 117.088C54.8091 117.328 54.3175 116.92 53.5469 116.115L56.0773 126.132Z" fill="#E06027"/>
<path d="M96.7734 97.4931C98.5453 97.2949 100.238 97.0307 101.834 96.7124L107.927 89.1277L105.657 88.4131L96.7734 97.4931Z" fill="#7F1F3A"/>
<path d="M78.9673 86.6177C77.9358 86.8699 76.9345 87.1221 76 87.3743C77.6627 89.9806 79.7805 93.2776 82.1228 96.8927C83.391 97.1029 84.7078 97.2591 86.0671 97.3612L78.9673 86.6177Z" fill="#7F1F3A"/>
<path d="M67.7739 130.288C75.1831 131.934 85.9723 132.114 85.9723 132.114C85.9723 132.114 76.0994 130.462 66.9789 125.364C66.9183 125.742 66.894 126.012 66.9122 126.132C67.0699 127.051 68.3079 129.201 68.4596 129.658C68.5263 129.844 68.1865 130.054 67.7739 130.288Z" fill="#E5802C"/>
<path d="M69.4038 113.251C69.2703 115.377 67.3892 122.811 66.9887 125.346L66.9219 126.132C70.1259 119.082 72.6017 110.393 72.6017 110.393L69.4827 98.8503C69.3795 104.922 69.4887 111.876 69.4038 113.251Z" fill="#E5802C"/>
<path d="M71.7939 108.957L71.4844 111.335L87.2859 112.482C87.2919 112.488 76.5998 111.107 71.7939 108.957Z" fill="#E5802C"/>
<path d="M138.512 103.594C138.512 103.594 134.823 108.255 131.461 112.26C130.697 115.347 131.164 118.079 133.003 119.497C136.006 121.809 141.565 119.743 145.673 114.902L138.512 103.594Z" fill="#ED9C3B"/>
<path d="M164.318 118.055C163.117 118.782 162.388 119.713 162 120.776C163.468 129.405 166.788 135.969 169.512 135.543C170.55 135.38 171.351 134.233 171.885 132.396C170.908 124.102 168.268 115.665 164.318 118.055Z" fill="#A59930"/>
<path d="M156.776 142.281C157.826 142.281 158.773 141.074 159.446 139.134C160.15 134.492 160.866 127.718 155.951 127.97C154.167 128.06 153.396 129.207 153.081 130.877C153.069 131.231 153.063 131.591 153.063 131.957C153.056 137.663 154.719 142.281 156.776 142.281Z" fill="#A59930"/>
<path d="M144.332 100.4L146.262 112.062C146.262 112.062 144.69 112.662 142.481 116.284L137.469 107.282C141.856 101.114 144.332 100.4 144.332 100.4Z" fill="#EA875C"/>
<path d="M158.659 105.33C159.223 104.592 161.693 101.313 160.916 99.3369C160.285 97.7395 159.587 96.1961 157.403 95.2713C156.559 94.911 155.619 95.5115 155.558 96.4303L155.552 96.5024C155.497 97.3071 155.88 98.0698 156.541 98.5202C156.966 98.8084 157.385 99.1808 157.494 99.5651C157.737 100.43 155.595 103.036 155.595 103.036C155.595 103.036 158.095 106.069 158.659 105.33Z" fill="#EA875C"/>
<path d="M157.217 99.0306C158.388 99.9494 159.802 100.268 161.052 100.046C161.04 99.7993 160.997 99.5591 160.912 99.3369C160.281 97.7395 159.583 96.1961 157.399 95.2713C156.555 94.911 155.615 95.5115 155.554 96.4303L155.548 96.5024C155.542 96.6105 155.56 96.7126 155.572 96.8207C155.888 97.6434 156.446 98.4181 157.217 99.0306Z" fill="#FFA77B"/>
<path d="M156.691 113.359C158.645 111.834 158.517 99.661 156.988 101.186C150.076 108.116 149.251 101.144 143.602 101.192L145.628 112.254C145.628 112.254 154.731 114.878 156.691 113.359Z" fill="#EA875C"/>
<path d="M143.989 100.448C146.744 98.46 148.679 98.0036 149.911 97.5772C151.143 97.1508 153.686 95.5834 154.432 94.9228C155.178 94.2623 157.339 95.3973 156.265 97.1748C155.191 98.9524 153.146 99.2286 152.308 100.388C151.471 101.547 151.677 104.489 148.643 105.822C144.747 107.528 142.878 101.216 143.989 100.448Z" fill="#FFA77B"/>
<path d="M154.341 102.027C156.204 101.925 160.494 105.126 160.258 106.075C160.021 107.017 159.584 108.459 158.146 108.056C156.708 107.654 153.188 104.681 152.824 104.165C152.46 103.642 153.686 102.063 154.341 102.027Z" fill="#FFA77B"/>
<path d="M152.733 106.807C154.681 106.453 158.917 109.053 158.601 110.02C158.285 110.987 157.715 112.47 156.247 112.266C154.778 112.062 151.331 109.594 150.992 109.125C150.646 108.657 152.047 106.927 152.733 106.807Z" fill="#FFA77B"/>
<path d="M35.6308 99.739L34.1562 111.467C34.1562 111.467 35.7825 112.002 38.1855 115.533L42.9126 106.333C38.1855 100.352 35.6308 99.739 35.6308 99.739Z" fill="#EA875C"/>
<path d="M21.2482 105.252C20.6414 104.537 17.9835 101.361 18.6996 99.3547C19.2761 97.7333 19.9193 96.1659 22.1099 95.151C22.9534 94.7607 23.9364 95.3192 24.0335 96.238L24.0396 96.3101C24.1245 97.1088 23.7726 97.8894 23.1172 98.3639C22.6924 98.6701 22.2859 99.0605 22.1949 99.4448C21.9825 100.322 24.2762 102.832 24.2762 102.832C24.2762 102.832 21.849 105.967 21.2482 105.252Z" fill="#EA875C"/>
<path d="M22.4514 98.8922C21.2984 99.8591 19.8724 100.237 18.5859 100.063C18.5859 99.811 18.6223 99.5708 18.7012 99.3486C19.2777 97.7272 19.9209 96.1598 22.1115 95.1449C22.955 94.7546 23.938 95.3131 24.0351 96.2319L24.0412 96.3039C24.0533 96.412 24.0351 96.5141 24.0351 96.6222C23.7439 97.457 23.2099 98.2557 22.4514 98.8922Z" fill="#FFA77B"/>
<path d="M23.5908 113.191C21.5337 111.75 21.1514 99.577 22.7716 101.042C30.1081 107.684 30.6481 100.682 36.4068 100.508L34.8109 111.642C34.8048 111.636 25.6479 114.632 23.5908 113.191Z" fill="#EA875C"/>
<path d="M35.9808 99.7751C33.0923 97.9014 31.102 97.5231 29.8277 97.1448C28.5594 96.7664 25.8955 95.3071 25.1127 94.6766C24.3299 94.046 22.1697 95.2651 23.3408 97.0006C24.512 98.7362 26.5994 98.9283 27.5036 100.051C28.4077 101.174 28.3228 104.123 31.4661 105.33C35.5014 106.879 37.1398 100.496 35.9808 99.7751Z" fill="#FFA77B"/>
<path d="M25.5018 101.775C23.6024 101.745 19.3668 105.126 19.646 106.057C19.9251 106.993 20.4348 108.411 21.879 107.954C23.3233 107.492 26.7821 104.381 27.1341 103.847C27.486 103.312 26.1693 101.781 25.5018 101.775Z" fill="#FFA77B"/>
<path d="M27.3449 106.483C25.3424 106.207 21.1371 108.975 21.5073 109.93C21.8714 110.885 22.5146 112.344 24.0013 112.074C25.488 111.81 28.8922 109.203 29.226 108.723C29.5597 108.242 28.0488 106.579 27.3449 106.483Z" fill="#FFA77B"/>
<path d="M44.9232 105.048L35.3173 122.836L31.8281 118.77L42.3624 102.135L44.9232 105.048Z" fill="#7F1F3A"/>
<path d="M136.25 105.354L145.625 123.142L149.03 119.076L138.744 102.442L136.25 105.354Z" fill="#7F1F3A"/>
<path d="M177 84.8879C177 83.873 175.962 83.0503 174.676 83.0503C173.389 83.0503 172.352 83.873 172.352 84.8879C172.352 85.9028 173.389 86.7255 174.676 86.7255C175.956 86.7255 177 85.9028 177 84.8879Z" fill="#D92D20"/>
<path d="M170.373 84.4194C170.167 83.933 169.493 83.7468 168.88 84.005C168.261 84.2632 167.933 84.8698 168.14 85.3562C168.346 85.8426 169.02 86.0288 169.633 85.7706C170.251 85.5124 170.579 84.9058 170.373 84.4194Z" fill="#D92D20"/>
<path d="M154.257 63.5873C153.425 63.3831 152.831 63.9536 152.964 64.7883C153.085 65.539 153.753 66.1756 154.439 66.2716C155.088 66.3677 155.604 65.9534 155.616 65.2988C155.628 64.5781 155.039 63.7854 154.257 63.5873Z" fill="#D92D20"/>
<path d="M23.494 158.946C23.494 158.946 19.1553 159.756 16.5156 162.933L29.7382 162.627C28.8886 160.999 23.494 158.946 23.494 158.946Z" fill="#602D23"/>
<path d="M23.3833 160.218C24.2379 160.218 24.9307 159.533 24.9307 158.687C24.9307 157.841 24.2379 157.156 23.3833 157.156C22.5287 157.156 21.8359 157.841 21.8359 158.687C21.8359 159.533 22.5287 160.218 23.3833 160.218Z" fill="#602D23"/>
<path d="M36.9616 159.966C36.9616 159.966 32.2102 162.831 29.1094 162.933L33.5513 172.746C36.1363 168.35 34.686 162.831 37.7868 161.708L36.9616 159.966Z" fill="#4C241C"/>
<path d="M35.8375 162.404C36.5232 162.152 37.1422 161.834 37.6762 161.474L36.9601 159.966C36.9601 159.966 34.0171 161.738 31.25 162.543C32.3483 163.053 34.0778 163.041 35.8375 162.404Z" fill="#602D23"/>
<path d="M19.0911 178.673H28.4907C28.4907 178.673 37.2713 174.889 33.4484 166.302C29.6255 157.714 11.7608 160.987 12.2766 169.166C12.7924 177.346 19.0911 178.673 19.0911 178.673Z" fill="#4C241C"/>
<path d="M7.42462 161.6C4.94274 167.053 9.38463 169.983 13.8265 172.433L16.5147 164.05C12.8981 157.306 9.28148 157.51 7.42462 161.6ZM13.6687 170.86C10.58 169.155 7.48531 167.119 9.21473 163.323C10.5073 160.477 13.0255 160.339 15.5377 165.029L13.6687 170.86Z" fill="#4C241C"/>
<path d="M7.42902 161.6C7.21057 162.074 7.0528 162.53 6.9375 162.963C7.64141 163.185 8.39994 163.335 9.1888 163.401C9.20094 163.371 9.207 163.347 9.21913 163.317C10.2386 161.077 12.0166 160.525 13.9584 162.687C14.4256 162.494 14.8686 162.266 15.2812 162.008C12.0954 157.408 9.07349 157.978 7.42902 161.6Z" fill="#602D23"/>
<path d="M34.152 168.368C33.9942 167.713 33.7697 167.022 33.4481 166.302C30.3473 159.336 17.9925 160.176 13.7266 165.113C13.7872 165.551 13.8661 165.99 13.9875 166.422C15.5409 172.169 21.4756 175.586 27.2403 174.061C30.3958 173.226 32.8352 171.082 34.152 168.368Z" fill="#703A2C"/>
<path d="M13.3125 173.604C15.2422 177.862 19.0894 178.673 19.0894 178.673H27.7426C25.7886 177.189 22.6271 175.712 18.9134 174.685C16.9412 174.139 15.0359 173.778 13.3125 173.604Z" fill="#602D23"/>
<path d="M32.1376 166.38C32.5138 165.047 30.7723 163.395 28.2419 162.693C25.7114 161.99 23.357 162.507 22.9808 163.84C22.6046 165.173 24.3461 166.824 26.8765 167.527C29.407 168.23 31.7614 167.713 32.1376 166.38Z" fill="#965042"/>
<path d="M22.4425 162.512C22.127 162.062 21.2228 161.99 20.4279 162.356C19.6329 162.717 19.2446 163.377 19.5662 163.828C19.8817 164.278 20.7859 164.35 21.5808 163.984C22.3758 163.617 22.7641 162.963 22.4425 162.512Z" fill="#965042"/>
<path d="M91.5567 64.0374C91.5567 64.0374 90.3188 70.0667 90.5736 70.325C90.8346 70.5832 91.8661 71.2438 92.3273 71.1957C92.7946 71.1417 94.1356 70.7874 94.1356 70.4271C94.1356 70.0667 93.104 63.8333 93.104 63.8333L91.5567 64.0374Z" fill="#EA875C"/>
<path d="M85.3125 65.2026C87.5213 66.776 90.6161 64.7822 90.6161 64.7822L85.3125 65.2026Z" fill="#CC4F46"/>
<path d="M99.1766 65.2026C97.4229 66.776 94.9531 64.7822 94.9531 64.7822L99.1766 65.2026Z" fill="#CC4F46"/>
<path d="M85.1578 63.4373C87.0086 64.7164 91.1592 63.3592 91.4687 62.8608C91.7782 62.3623 91.9359 60.831 91.1592 60.5247C90.3825 60.2184 86.0437 61.4435 85.352 61.2934C84.6602 61.1372 84.7755 63.167 85.1578 63.4373Z" fill="#703A2C"/>
<path d="M99.7755 63.2871C97.9975 64.5663 94.0108 63.2091 93.7134 62.7106C93.4161 62.2122 93.2644 60.6808 94.0108 60.3746C94.7571 60.0683 98.9199 61.2934 99.5874 61.1432C100.255 60.9871 100.146 63.0169 99.7755 63.2871Z" fill="#703A2C"/>
<path d="M87.8125 58.981C92.3818 56.681 97.0483 59.2213 97.0483 59.2213C93.553 58.6988 90.4522 58.6027 87.8125 58.981Z" fill="#EA875C"/>
<path d="M88.75 57.1795C92.312 55.3899 95.9468 57.3657 95.9468 57.3657C93.2222 56.9573 90.8071 56.8792 88.75 57.1795Z" fill="#EA875C"/>
<path d="M93.3073 43.986C93.0889 43.1393 92.7551 42.5268 92.2514 42.4127C90.5888 42.0343 87.8703 43.7458 86.9297 45.1751C87.6093 46.0759 88.647 46.6464 89.8121 46.6464C91.4262 46.6464 92.7915 45.5354 93.3073 43.986Z" fill="#703A2C"/>
<path d="M95.7086 71.7786C95.7086 71.7786 91.5519 73.7723 89.0275 71.8807L88.8516 72.223C90.7266 74.3128 94.4282 73.7603 95.9634 72.7514L95.7086 71.7786Z" fill="#4F231D"/>
<path d="M90.7031 74.0546C92.4447 74.6311 94.5018 73.9766 94.5018 73.9766C93.1789 75.3938 91.9228 75.2076 90.7031 74.0546Z" fill="#5B2D24"/>
<path d="M97.6094 82.7203C98.1434 82.4381 98.6774 82.1438 99.1932 81.8496C99.0172 79.0211 97.755 77.0693 97.755 77.0693C97.755 77.0693 97.9371 79.8858 97.6094 82.7203Z" fill="#5B2D24"/>
<path d="M91.7969 85.6148C91.9789 85.5307 92.4522 85.3085 93.1258 84.9842C92.7496 82.7923 91.8211 81.363 91.8211 81.363C91.8211 81.363 91.9425 83.3208 91.7969 85.6148Z" fill="#5B2D24"/>
<path d="M85.9728 76.1985C85.9728 76.1985 84.6074 79.7416 84.4375 83.0445C85.0747 83.3628 85.7058 83.6451 86.3065 83.9033C85.7058 80.2581 85.9728 76.1985 85.9728 76.1985Z" fill="#5B2D24"/>
</svg>
