<svg width="64" height="64" viewBox="0 0 64 64" fill="none" xmlns="http://www.w3.org/2000/svg">
<g id="Birthday Party" clip-path="url(#clip0_142_7917)">
<path id="Vector" d="M6.51626 14.627C5.43148 17.8656 6.14526 20.7359 7.82698 20.9828C9.51 21.2297 11.65 18.7849 12.6077 15.5222C13.5654 12.2595 12.6308 10.0043 11.297 9.16633C9.95161 8.32229 7.80644 10.7741 6.51626 14.627Z" fill="#3A5153"/>
<path id="Vector_2" d="M1.49854 0.673827C1.96613 0.604603 2.45462 0.711705 2.93919 0.919378C2.97255 0.937833 3.00091 0.964121 3.02184 0.995976C3.04278 1.02783 3.05565 1.0643 3.05936 1.10224L3.19128 1.82452L2.87519 2.92558L1.87601 2.95824L1.42148 2.00999L1.31307 0.924603C1.2987 0.795297 1.38621 0.703868 1.49854 0.673827ZM21.2563 1.26028C21.7252 1.18975 22.2136 1.29815 22.6969 1.50452C22.7303 1.52298 22.7586 1.54926 22.7796 1.58112C22.8005 1.61297 22.8134 1.64944 22.8171 1.68738L22.949 2.40966L22.6329 3.51073L21.635 3.54338L21.1805 2.59513L21.0721 1.50975C21.0564 1.38175 21.1452 1.29032 21.2563 1.26028ZM9.06883 49.5685L9.08189 49.6482L9.09495 49.4902L9.06883 49.5685Z" fill="#FAC1AC"/>
<path id="Vector_3" d="M15.9572 61.6228V63.3469H18.1397C18.2552 63.3474 18.3676 63.3093 18.4591 63.2387C18.5505 63.1681 18.6157 63.0689 18.6444 62.957C18.673 62.8451 18.6635 62.7268 18.6172 62.6209C18.571 62.515 18.4908 62.4276 18.3892 62.3725L17.0243 61.6228H15.9572ZM5.11637 60.3271L4.53906 61.952L6.5949 62.6821C6.70379 62.7227 6.82319 62.7255 6.93385 62.69C7.04451 62.6545 7.13997 62.5827 7.20486 62.4863C7.26975 62.3899 7.30027 62.2744 7.2915 62.1585C7.28273 62.0426 7.23519 61.933 7.15653 61.8475L6.12078 60.6837L5.11637 60.3271Z" fill="#478E87"/>
<path id="Vector_4" d="M5.11621 60.327L6.12062 60.6849L10.7196 52.537C11.5076 51.1409 11.9809 49.5894 12.1064 47.9911L12.8916 37.991L14.8599 50.6748L15.957 61.6227H17.0241L18.3407 35.1045H6.82984L8.75242 47.5261C8.95976 48.8657 8.82331 50.236 8.35587 51.5084L5.11621 60.327Z" fill="#C05BD0"/>
<path id="Vector_5" d="M12.2837 15.7987C11.8762 18.1602 12.1792 20.075 12.9616 20.0736C13.7439 20.0723 14.7092 18.1589 15.118 15.7974C15.5255 13.4359 15.2225 11.5212 14.4401 11.5225C13.6577 11.5238 12.6912 13.4372 12.2837 15.7987Z" fill="#3A5153"/>
<path id="Vector_6" d="M12.139 20.4879H8.35254L9.09964 11.1348L12.139 12.0334V20.4879Z" fill="#3A5153"/>
<path id="Vector_7" d="M12.8609 16.3029C14.88 16.3029 16.5168 14.6661 16.5168 12.647C16.5168 10.628 14.88 8.99121 12.8609 8.99121C10.8419 8.99121 9.20508 10.628 9.20508 12.647C9.20508 14.6661 10.8419 16.3029 12.8609 16.3029Z" fill="#FAC1AC"/>
<path id="Vector_8" d="M9.07656 11.3408C9.00603 12.9552 9.80799 16.9833 11.1415 15.8731C10.7262 14.9758 10.2469 12.8507 11.5556 12.3531C13.264 11.7705 14.4643 10.5023 14.4212 10.1536C14.3115 9.26671 12.8931 8.34067 11.6562 8.71944C9.99607 9.22883 9.1471 9.72646 9.07656 11.3408Z" fill="#3A5153"/>
<path id="Vector_9" d="M11.1023 11.6749C10.447 11.7704 10.0144 12.5248 10.1362 13.36C10.2579 14.1951 10.8877 14.7948 11.543 14.6993C12.1983 14.6038 12.6308 13.8493 12.5091 13.0142C12.3874 12.179 11.7576 11.5794 11.1023 11.6749Z" fill="#FAC1AC"/>
<path id="Vector_10" d="M15.5463 13.3589C15.6469 14.0368 15.4915 14.4195 14.9729 14.6885C14.4544 14.9576 13.8 14.7878 13.3037 14.315L15.5463 13.3589Z" fill="white"/>
<path id="Vector_11" d="M12.1982 9.05297C12.5875 9.4422 13.0564 9.7844 13.5867 10.0339C14.8719 10.6386 15.5889 11.1415 16.1898 11.1362C15.8525 10.3932 15.2763 9.78446 14.5529 9.40692C13.8295 9.02937 13.0006 8.90478 12.1982 9.05297Z" fill="#3A5153"/>
<path id="Vector_12" d="M16.1893 11.1345C16.1893 11.1345 16.1893 10.2855 15.6041 9.70693C14.4208 8.53795 12.6431 8.09256 11.0875 8.68162C9.99955 9.09436 9.18583 9.9146 9.20542 10.9713C9.22763 12.1102 11.1855 11.1358 11.1855 11.1358L13.6515 9.59199L16.1893 11.1345Z" fill="#3A5153"/>
<path id="Vector_13" d="M14.0725 15.0859V17.117C14.0725 17.3094 14.0346 17.5 13.961 17.6778C13.8873 17.8556 13.7794 18.0171 13.6433 18.1532C13.5072 18.2893 13.3457 18.3972 13.1679 18.4709C12.9901 18.5445 12.7995 18.5824 12.6071 18.5824C12.4146 18.5824 12.2241 18.5445 12.0463 18.4709C11.8685 18.3972 11.7069 18.2893 11.5708 18.1532C11.4347 18.0171 11.3268 17.8556 11.2532 17.6778C11.1795 17.5 11.1416 17.3094 11.1416 17.117V15.0859H14.0725Z" fill="#FAC1AC"/>
<path id="Vector_14" d="M9.80122 10.1315C9.66811 10.1709 9.53635 10.066 9.54486 9.92747L9.92989 3.66205C9.94135 3.4757 10.1793 3.40528 10.2903 3.55537L14.0242 8.60229C14.1068 8.7139 14.0533 8.87364 13.9201 8.91302L9.80122 10.1315Z" fill="#FF7D61"/>
<path id="Vector_15" d="M2.39543 2.92969C1.99626 2.92969 1.66092 3.22981 1.6168 3.62653L0.672904 12.1143C0.580466 12.948 0.817653 13.7847 1.3338 14.4458L3.65172 17.4141C5.71204 20.0525 6.83057 23.3043 6.82929 26.6518L6.82605 35.1086H18.3408L18.3374 25.3673C18.3362 22.1446 19.3731 19.0071 21.2944 16.4196L22.7542 14.4536C23.1996 13.8539 23.4217 13.1176 23.3825 12.3716L22.9551 4.14169C22.933 3.7164 22.5661 3.39208 22.1413 3.42234C21.7565 3.44976 21.4531 3.76095 21.4355 4.14638L21.1143 11.1688C21.0764 11.9963 20.6981 12.7713 20.069 13.3102L16.4708 16.3922C15.9277 16.8573 15.2364 17.1132 14.5214 17.1137L9.62249 17.1173C8.92906 17.1178 8.25688 16.8781 7.72026 16.4389L4.16303 13.5277C3.45417 12.9476 3.04919 12.0754 3.0634 11.1595L3.17876 3.72527C3.18555 3.28789 2.83286 2.92969 2.39543 2.92969Z" fill="#FFAA07"/>
<path id="Vector_16" d="M40.2155 37.939V60.9751C40.2155 62.0344 39.3587 62.8912 38.2994 62.8912H25.6993C25.4476 62.8914 25.1984 62.8419 24.9658 62.7457C24.7333 62.6495 24.522 62.5083 24.344 62.3304C24.1661 62.1524 24.0249 61.9411 23.9287 61.7086C23.8325 61.476 23.783 61.2268 23.7832 60.9751V37.939C23.7832 36.8798 24.64 36.0229 25.6993 36.0229H38.2994C39.3587 36.0229 40.2155 36.8798 40.2155 37.939Z" fill="#E79A59"/>
<path id="Vector_17" d="M31.9996 58.7452C34.771 58.7452 37.0177 56.4985 37.0177 53.7271C37.0177 50.9557 34.771 48.709 31.9996 48.709C29.2281 48.709 26.9814 50.9557 26.9814 53.7271C26.9814 56.4985 29.2281 58.7452 31.9996 58.7452Z" fill="white"/>
<path id="Vector_18" d="M32 57.0829C33.8531 57.0829 35.3554 55.5806 35.3554 53.7275C35.3554 51.8743 33.8531 50.3721 32 50.3721C30.1468 50.3721 28.6445 51.8743 28.6445 53.7275C28.6445 55.5806 30.1468 57.0829 32 57.0829Z" fill="#804412"/>
<path id="Vector_19" d="M28.3705 45.1893C29.7202 45.1893 30.8143 44.0952 30.8143 42.7455C30.8143 41.3959 29.7202 40.3018 28.3705 40.3018C27.0209 40.3018 25.9268 41.3959 25.9268 42.7455C25.9268 44.0952 27.0209 45.1893 28.3705 45.1893Z" fill="white"/>
<path id="Vector_20" d="M28.3704 44.0972C29.117 44.0972 29.7222 43.492 29.7222 42.7454C29.7222 41.9988 29.117 41.3936 28.3704 41.3936C27.6238 41.3936 27.0186 41.9988 27.0186 42.7454C27.0186 43.492 27.6238 44.0972 28.3704 44.0972Z" fill="#804412"/>
<path id="Vector_21" d="M35.6293 45.1893C36.9789 45.1893 38.0731 44.0952 38.0731 42.7455C38.0731 41.3959 36.9789 40.3018 35.6293 40.3018C34.2797 40.3018 33.1855 41.3959 33.1855 42.7455C33.1855 44.0952 34.2797 45.1893 35.6293 45.1893Z" fill="white"/>
<path id="Vector_22" d="M35.6302 44.0972C36.3768 44.0972 36.982 43.492 36.982 42.7454C36.982 41.9988 36.3768 41.3936 35.6302 41.3936C34.8836 41.3936 34.2783 41.9988 34.2783 42.7454C34.2783 43.492 34.8836 44.0972 35.6302 44.0972Z" fill="#804412"/>
<g id="Group">
<path id="Vector_23" d="M25.4023 62.4341H27.1813V63.3471H25.4023V62.4341ZM36.8179 62.4341H38.5968V63.3471H36.8179V62.4341Z" fill="#804412"/>
</g>
<path id="Vector_24" d="M29.6527 21.8748L31.5359 27.9746C31.616 28.2308 31.6136 28.5057 31.5289 28.7604C31.4443 29.0152 31.2817 29.2368 31.0641 29.3941C30.8465 29.5514 30.585 29.6363 30.3166 29.6368C30.0481 29.6373 29.7863 29.5534 29.5682 29.3969C29.3501 29.2405 29.1867 29.0194 29.1011 28.765C29.0155 28.5106 29.012 28.2357 29.0913 27.9792C29.1705 27.7227 29.3283 27.4976 29.5425 27.3358C29.7566 27.1739 30.0163 27.0835 30.2846 27.0772L29.4865 24.4876L25.8469 26.4851L27.1131 30.5844C27.1627 30.7452 27.1801 30.9142 27.1643 31.0818C27.1486 31.2493 27.0999 31.4121 27.0213 31.5609C26.9426 31.7097 26.8353 31.8415 26.7057 31.9488C26.5761 32.0562 26.4266 32.1369 26.2657 32.1865C26.1049 32.236 25.9359 32.2534 25.7683 32.2377C25.6008 32.2219 25.438 32.1733 25.2892 32.0947C25.1404 32.016 25.0086 31.9088 24.9013 31.7792C24.7939 31.6495 24.7132 31.5 24.6636 31.3392C24.6045 31.1496 24.5902 30.9488 24.622 30.7528C24.6539 30.5567 24.7309 30.3707 24.847 30.2096C24.9632 30.0484 25.1152 29.9165 25.2912 29.8242C25.4671 29.732 25.6621 29.682 25.8607 29.6781L24.3475 24.7718L29.6527 21.8748Z" fill="#FECB00"/>
<path id="Vector_25" d="M41.2798 12.2582L39.7363 18.2644C39.673 18.518 39.5313 18.7452 39.3314 18.9138C39.1316 19.0825 38.8836 19.184 38.6227 19.204C38.3618 19.2239 38.1011 19.1614 37.8777 19.0252C37.6543 18.8889 37.4795 18.6859 37.378 18.445C37.2765 18.204 37.2535 17.9372 37.3122 17.6825C37.3709 17.4278 37.5085 17.1981 37.7052 17.0258C37.902 16.8536 38.1481 16.7476 38.4086 16.7229C38.6691 16.6982 38.9309 16.7561 39.1567 16.8882L39.8128 14.3385L35.7813 14.1392L34.7433 18.1752C34.6779 18.4272 34.535 18.6523 34.3346 18.8187C34.1343 18.9851 33.8867 19.0844 33.6267 19.1027C33.3668 19.1209 33.1076 19.0572 32.8859 18.9204C32.6641 18.7837 32.4908 18.5808 32.3906 18.3405C32.2904 18.1002 32.2682 17.8345 32.3272 17.581C32.3863 17.3275 32.5235 17.0989 32.7196 16.9276C32.9157 16.7562 33.1607 16.6507 33.4201 16.626C33.6795 16.6012 33.9402 16.6584 34.1653 16.7896L35.4071 11.9598L41.2798 12.2582Z" fill="#0BACAE"/>
<path id="Vector_26" d="M40.8724 23.0906L37.4018 22.9167L36.2417 27.4221C36.0332 27.2996 35.7915 27.246 35.5507 27.269C35.3099 27.2919 35.0821 27.3903 34.8996 27.5502C34.7171 27.71 34.589 27.9233 34.5334 28.1599C34.4778 28.3965 34.4976 28.6445 34.5899 28.8688C34.6822 29.0931 34.8424 29.2825 35.0478 29.4102C35.2533 29.5378 35.4936 29.5973 35.7349 29.5803C35.9762 29.5633 36.2063 29.4705 36.3926 29.3152C36.579 29.1599 36.7122 28.9498 36.7735 28.7146L37.7429 24.9496L40.3606 25.0782L40.8724 23.0906Z" fill="#FF7D61"/>
<path id="Vector_27" d="M30.0566 7.25L27.5 9.18485L29.3589 13.0185C29.1386 13.0566 28.9359 13.1625 28.7794 13.3213C28.6229 13.4801 28.5205 13.6838 28.4867 13.9036C28.4529 14.1234 28.4894 14.3482 28.591 14.5462C28.6927 14.7443 28.8543 14.9056 29.0531 15.0073C29.2519 15.1091 29.4779 15.1462 29.699 15.1134C29.9202 15.0805 30.1254 14.9795 30.2856 14.8244C30.4459 14.6694 30.5531 14.4681 30.5922 14.2492C30.6312 14.0303 30.6001 13.8047 30.5032 13.6043L28.9485 10.3995L30.875 8.9376L30.0566 7.25Z" fill="#E79A59"/>
<path id="Vector_28" d="M58.41 17.9094C59.6497 23.0372 58.834 27.5803 56.912 27.9728C54.9886 28.3637 52.5428 24.4928 51.4483 19.3268C50.3538 14.1608 51.4219 10.5902 52.9463 9.26335C54.4839 7.92696 56.9355 11.809 58.41 17.9094Z" fill="#7F4412"/>
<path id="Vector_29" d="M62.43 0.830598C61.9611 0.760067 61.4727 0.868475 60.9894 1.07484C60.956 1.0933 60.9277 1.11959 60.9067 1.15144C60.8858 1.1833 60.8729 1.21976 60.8692 1.2577L60.7373 1.97999L61.0534 3.08105L62.0513 3.1137L62.5058 2.16545L62.6142 1.08007C62.6299 0.952067 62.5424 0.859332 62.43 0.830598Z" fill="#FAC1AC"/>
<path id="Vector_30" d="M51.7162 15.7987C52.1237 18.1602 51.8207 20.075 51.0383 20.0736C50.256 20.0736 49.2908 18.1589 48.8819 15.7974C48.4731 13.4359 48.7774 11.5212 49.5598 11.5225C50.3422 11.5238 51.3087 13.4372 51.7162 15.7987Z" fill="#7F4412"/>
<path id="Vector_31" d="M51.8613 20.4879H55.6465L54.8994 11.1348L51.8613 12.0334V20.4879Z" fill="#7F4412"/>
<path id="Vector_32" d="M51.1383 16.3029C53.1573 16.3029 54.7941 14.6661 54.7941 12.647C54.7941 10.628 53.1573 8.99121 51.1383 8.99121C49.1192 8.99121 47.4824 10.628 47.4824 12.647C47.4824 14.6661 49.1192 16.3029 51.1383 16.3029Z" fill="#FAC1AC"/>
<path id="Vector_33" d="M54.9239 11.3408C55.3419 13.6448 54.1925 16.9833 52.8589 15.8731C53.2743 14.9758 53.7536 12.8507 52.4449 12.3531C50.7365 11.7705 49.5361 10.5023 49.5792 10.1536C49.689 9.26671 51.1074 8.34067 52.3443 8.71944C54.0031 9.22883 54.6352 9.75128 54.9239 11.3408Z" fill="#7F4412"/>
<path id="Vector_34" d="M52.4557 14.6997C53.111 14.7952 53.7409 14.1956 53.8626 13.3604C53.9843 12.5253 53.5517 11.7708 52.8965 11.6753C52.2412 11.5799 51.6113 12.1795 51.4896 13.0146C51.3679 13.8498 51.8004 14.6042 52.4557 14.6997Z" fill="#FAC1AC"/>
<path id="Vector_35" d="M48.4537 13.3589C48.3531 14.0368 48.5085 14.4195 49.0271 14.6885C49.5456 14.9576 50.2 14.7878 50.6963 14.315L48.4537 13.3589Z" fill="white"/>
<path id="Vector_36" d="M51.8021 9.05297C51.4128 9.4422 50.9439 9.7844 50.4136 10.0339C49.1284 10.6386 48.4114 11.1415 47.8105 11.1362C48.1478 10.3932 48.724 9.78446 49.4474 9.40692C50.1707 9.02937 50.9997 8.90478 51.8021 9.05297Z" fill="#7F4412"/>
<path id="Vector_37" d="M47.8105 11.1345C47.8105 11.1345 47.8105 10.2855 48.3957 9.70693C49.579 8.53795 51.3567 8.09256 52.9123 8.68162C53.999 9.09305 54.814 9.9146 54.7931 10.9699C54.7709 12.1089 52.813 11.1345 52.813 11.1345L50.347 9.59068L47.8105 11.1345Z" fill="#7F4412"/>
<path id="Vector_38" d="M49.9277 15.0859V17.117C49.9277 17.5056 50.0821 17.8784 50.357 18.1532C50.6318 18.428 51.0045 18.5824 51.3932 18.5824C51.7819 18.5824 52.1546 18.428 52.4294 18.1532C52.7043 17.8784 52.8587 17.5056 52.8587 17.117V15.0859H49.9277Z" fill="#FAC1AC"/>
<path id="Vector_39" d="M54.6689 10.0226C54.8034 10.0569 54.9311 9.94719 54.9174 9.80905L54.2956 3.53759C54.2772 3.3518 54.0368 3.29033 53.9315 3.44448L50.3751 8.64827C50.2967 8.7629 50.3562 8.92052 50.4907 8.95489L54.6689 10.0226Z" fill="#0BACAE"/>
<path id="Vector_40" d="M43.1925 29.0874L45.6611 27.9759L45.6559 35.1086H57.1759L57.1628 21.4858L62.6616 14.4458C63.1815 13.7809 63.4202 12.9388 63.3264 12.1L62.3877 3.625C62.3436 3.22697 62.0072 2.92578 61.6067 2.92578C61.1678 2.92578 60.814 3.28536 60.8211 3.72422L60.9571 12.121C60.962 12.4262 60.8273 12.717 60.5913 12.9105L56.2843 16.4418C55.7469 16.8825 55.0732 17.1228 54.3782 17.1219L47.4635 17.1129C46.9398 17.1122 46.4288 17.2746 46.0014 17.5774C45.574 17.8803 45.2515 18.3086 45.0786 18.803L41.8981 27.9002C41.8366 28.0766 41.828 28.2672 41.8736 28.4484C41.9192 28.6296 42.0168 28.7935 42.1545 28.9198C42.2922 29.0461 42.4639 29.1293 42.6484 29.1591C42.8329 29.1889 43.0221 29.164 43.1925 29.0874Z" fill="#15D2D4"/>
<path id="Vector_41" d="M50.653 23.5324C52.1133 23.8262 52.5613 21.615 51.0984 21.3198C49.6382 21.0259 49.1915 23.2372 50.653 23.5324Z" fill="#3A5153"/>
<path id="Vector_42" d="M49.7333 22.4L51.9407 22.8441C51.9907 22.8541 52.0427 22.844 52.0852 22.8158C52.1278 22.7877 52.1575 22.7438 52.1679 22.6939C52.194 22.562 52.1196 22.4718 52.0203 22.4522L49.813 22.0082C49.7629 21.9981 49.711 22.0083 49.6684 22.0364C49.6258 22.0646 49.5961 22.1084 49.5857 22.1584L49.5831 22.1727C49.578 22.1975 49.5778 22.2231 49.5825 22.248C49.5873 22.2728 49.597 22.2965 49.6109 22.3176C49.6249 22.3387 49.6429 22.3569 49.6639 22.371C49.6849 22.3852 49.7085 22.395 49.7333 22.4Z" fill="#D5FFFA"/>
<path id="Vector_43" d="M51.3945 23.3913L50.4502 26.1812C50.266 26.5874 49.7997 26.4189 49.8128 26.0532L50.0231 23.1157L51.3945 23.3913Z" fill="#3A5153"/>
<path id="Vector_44" d="M48.0432 61.623V63.3471H45.8607C45.7452 63.3476 45.6328 63.3096 45.5413 63.2389C45.4499 63.1683 45.3847 63.0691 45.356 62.9572C45.3274 62.8453 45.3369 62.727 45.3832 62.6211C45.4294 62.5152 45.5097 62.4278 45.6112 62.3728L46.9761 61.623H48.0432ZM54.7502 61.623V63.3471H52.5676C52.4521 63.3476 52.3397 63.3096 52.2483 63.2389C52.1569 63.1683 52.0916 63.0691 52.063 62.9572C52.0343 62.8453 52.0439 62.727 52.0901 62.6211C52.1363 62.5152 52.2166 62.4278 52.3182 62.3728L53.6831 61.623H54.7502Z" fill="#E79A59"/>
<path id="Vector_45" d="M50.807 24.0157C51.2563 24.2887 51.6273 24.6243 51.8428 25.0462C51.8833 25.1533 51.8598 25.2787 51.7474 25.344L50.8005 25.886L49.7647 26.0663L49.2109 25.2343L49.9241 24.337L50.5889 24.0248C50.6217 24.0054 50.6588 23.9945 50.6968 23.9929C50.7349 23.9913 50.7727 23.9991 50.807 24.0157Z" fill="#FAC1AC"/>
<path id="Vector_46" d="M45.6572 35.1084L46.9764 61.6227H48.0474L49.1446 50.6774L51.0254 38.4782L53.6899 61.6227H54.7478L57.1772 35.1084H45.6572Z" fill="#3A5153"/>
</g>
<defs>
<clipPath id="clip0_142_7917">
<rect width="64" height="64" fill="white"/>
</clipPath>
</defs>
</svg>
