<svg width="64" height="64" viewBox="0 0 64 64" fill="none" xmlns="http://www.w3.org/2000/svg">
<g id="Salad" clip-path="url(#clip0_248_2060)">
<g id="Layer 31">
<path id="Vector" d="M32 64C49.6731 64 64 49.6731 64 32C64 14.3269 49.6731 0 32 0C14.3269 0 0 14.3269 0 32C0 49.6731 14.3269 64 32 64Z" fill="#B5D6D6"/>
<path id="Vector_2" d="M32.0004 63.2036C49.4505 63.2036 63.5966 49.1449 63.5966 31.8025C63.5966 14.4601 49.4505 0.401367 32.0004 0.401367C14.5504 0.401367 0.404297 14.4601 0.404297 31.8025C0.404297 49.1449 14.5504 63.2036 32.0004 63.2036Z" fill="#F1FAFA"/>
<path id="Vector_3" d="M54.953 32.9862C54.4023 32.6131 53.9407 32.1231 53.6012 31.5511C53.2617 30.9791 53.0527 30.3393 52.989 29.6772C52.9563 29.2177 52.8621 28.7646 52.709 28.3302C53.3661 27.6122 53.7962 26.7159 53.945 25.7542C54.1405 24.465 53.8239 23.1506 53.063 22.0918C52.3021 21.0331 51.1572 20.3139 49.873 20.0882C49.9556 19.7313 49.9982 19.3664 50 19.0002C50.0008 18.099 49.758 17.2143 49.2974 16.4398C48.8367 15.6653 48.1753 15.0297 47.383 14.6002C46.1645 14.016 45.1635 13.0591 44.525 11.8682C44.1205 11.0101 43.4803 10.2848 42.6791 9.77697C41.8778 9.26914 40.9486 8.99971 40 9.00015C38.7868 9.03633 37.6368 9.54987 36.8 10.4292C35.9768 11.167 35.3841 12.1267 35.093 13.1932C34.978 13.7119 34.8167 14.2192 34.611 14.7092C34.1519 14.3381 33.7721 13.8784 33.4943 13.3575C33.2165 12.8366 33.0464 12.2652 32.994 11.6772C32.9608 11.2023 32.8626 10.7343 32.702 10.2862C32.4272 9.52436 31.9708 8.84108 31.3722 8.29555C30.7737 7.75001 30.0511 7.35867 29.2672 7.15544C28.4833 6.95222 27.6616 6.94324 26.8734 7.1293C26.0852 7.31535 25.3543 7.69082 24.744 8.22315C24.241 8.648 23.6458 8.94974 23.0058 9.1044C22.3658 9.25907 21.6986 9.26241 21.057 9.11415C20.4113 8.97335 19.7439 8.96281 19.094 9.08315C18.3912 9.2075 17.7237 9.48244 17.1372 9.8891C16.5507 10.2958 16.0591 10.8245 15.6962 11.4391C15.3333 12.0536 15.1077 12.7394 15.0348 13.4494C14.9619 14.1594 15.0435 14.8767 15.274 15.5522C14.2149 15.0085 12.9969 14.8596 11.838 15.1322C11.0319 15.3207 10.2857 15.7081 9.66772 16.259C9.04972 16.8099 8.57952 17.5068 8.30002 18.2862C8.13948 18.7343 8.04123 19.2023 8.00803 19.6772C7.94436 20.3393 7.73532 20.9791 7.39582 21.5511C7.05633 22.1231 6.59474 22.6131 6.04403 22.9862C5.46216 23.4086 4.97904 23.9524 4.62811 24.58C4.27717 25.2076 4.06679 25.904 4.01153 26.6209C3.95627 27.3378 4.05746 28.0582 4.30808 28.7321C4.5587 29.4061 4.95277 30.0175 5.46302 30.5242C6.00617 31.0887 6.42305 31.7622 6.68602 32.5002C6.23829 33.2573 6.00143 34.1205 6.00003 35.0002C6.00003 35.1422 6.03002 35.2762 6.04202 35.4152C5.04908 35.8328 4.21828 36.5611 3.67421 37.4908C3.13015 38.4205 2.90213 39.5015 3.02437 40.5718C3.1466 41.642 3.61249 42.6438 4.35218 43.4269C5.09186 44.21 6.06548 44.7322 7.12702 44.9152C7.04469 45.271 7.00209 45.6349 7.00002 46.0002C6.99923 46.9013 7.24201 47.786 7.70268 48.5605C8.16335 49.335 8.82478 49.9707 9.61702 50.4002C10.8355 50.9843 11.8365 51.9412 12.475 53.1322C12.8795 53.9902 13.5198 54.7155 14.321 55.2233C15.1222 55.7312 16.0514 56.0006 17 56.0002C17.8473 55.9848 18.6713 55.7201 19.369 55.2392C19.453 55.2911 19.531 55.3502 19.618 55.3972C20.8365 55.9813 21.8375 56.9382 22.476 58.1292C22.88 58.9876 23.5199 59.7134 24.321 60.2218C25.1221 60.7302 26.0513 61.0001 27 61.0002C28.2154 60.9655 29.3678 60.4519 30.206 59.5712C31.0296 58.8336 31.6224 57.8738 31.913 56.8072C32.1217 55.7085 32.5977 54.6782 33.299 53.8072C34.2268 54.3615 34.9809 55.1644 35.476 56.1252C35.8794 56.9844 36.5191 57.711 37.3202 58.2201C38.1213 58.7292 39.0508 58.9998 40 59.0002C41.2154 58.9655 42.3678 58.4519 43.206 57.5712C44.0296 56.8336 44.6224 55.8738 44.913 54.8072C45.1284 53.5802 45.6914 52.4408 46.535 51.5242C47.0001 51.0628 47.369 50.5138 47.6205 49.9089C47.872 49.304 48.001 48.6552 48 48.0002C48 47.9612 47.994 47.9242 47.993 47.8862C48.3239 47.9583 48.6614 47.9965 49 48.0002C50.2154 47.9655 51.3678 47.4519 52.206 46.5712C53.0296 45.8336 53.6224 44.8738 53.913 43.8072C54.1284 42.5802 54.6914 41.4408 55.535 40.5242C56.0453 40.0175 56.4394 39.4061 56.69 38.7321C56.9406 38.0582 57.0418 37.3378 56.9865 36.6209C56.9313 35.904 56.7209 35.2076 56.3699 34.58C56.019 33.9524 55.5349 33.4086 54.953 32.9862ZM36.91 35.8942C37.0725 36.0287 37.2436 36.1526 37.422 36.2652C37.1903 36.3413 36.9646 36.4349 36.747 36.5452C36.8164 36.3322 36.8708 36.1147 36.91 35.8942Z" fill="#B5D6D6"/>
<path id="Vector_4" d="M23.8731 24.9122C23.9556 25.269 23.9982 25.6339 24.0001 26.0002C24.0008 26.9013 23.7581 27.786 23.2974 28.5605C22.8367 29.335 22.1753 29.9707 21.3831 30.4002C20.1643 30.9841 19.1633 31.941 18.5251 33.1322C18.1206 33.9902 17.4803 34.7155 16.6791 35.2233C15.8778 35.7312 14.9487 36.0006 14.0001 36.0002C12.7868 35.964 11.6368 35.4504 10.8001 34.5712C9.9765 33.8336 9.38371 32.8738 9.09306 31.8072C8.87764 30.5802 8.3147 29.4408 7.47105 28.5242C6.9608 28.0175 6.56673 27.4061 6.31611 26.7321C6.06549 26.0582 5.9643 25.3378 6.01956 24.6209C6.07482 23.904 6.2852 23.2076 6.63613 22.58C6.98707 21.9524 7.47019 21.4086 8.05205 20.9862C8.60277 20.6131 9.06436 20.1231 9.40385 19.5511C9.74335 18.9791 9.95239 18.3393 10.0161 17.6772C10.0493 17.2023 10.1475 16.7343 10.3081 16.2862C10.5829 15.5244 11.0393 14.8411 11.6379 14.2955C12.2364 13.75 12.9589 13.3587 13.7429 13.1554C14.5268 12.9522 15.3485 12.9432 16.1366 13.1293C16.9248 13.3153 17.6558 13.6908 18.2661 14.2232C18.7691 14.648 19.3642 14.9497 20.0043 15.1044C20.6443 15.2591 21.3115 15.2624 21.9531 15.1142C22.5988 14.9733 23.2662 14.9628 23.9161 15.0832C25.0681 15.2944 26.1093 15.904 26.8574 16.8053C27.6055 17.7066 28.0129 18.8422 28.0083 20.0135C28.0038 21.1848 27.5876 22.3173 26.8326 23.2128C26.0776 24.1082 25.0317 24.7098 23.8781 24.9122H23.8731Z" fill="#6DBC53"/>
<path id="Vector_5" d="M23.8731 24.9122C23.9556 25.269 23.9982 25.6339 24.0001 26.0002C24.0008 26.9013 23.7581 27.786 23.2974 28.5605C22.8367 29.335 22.1753 29.9707 21.3831 30.4002C20.1643 30.9841 19.1633 31.941 18.5251 33.1322C18.1206 33.9902 17.4803 34.7155 16.6791 35.2233C15.8778 35.7312 14.9487 36.0006 14.0001 36.0002C12.7868 35.964 11.6368 35.4504 10.8001 34.5712C9.9765 33.8336 9.38371 32.8738 9.09306 31.8072C8.87764 30.5802 8.3147 29.4408 7.47105 28.5242C6.9608 28.0175 6.56673 27.4061 6.31611 26.7321C6.06549 26.0582 5.9643 25.3378 6.01956 24.6209C6.07482 23.904 6.2852 23.2076 6.63613 22.58C6.98707 21.9524 7.47019 21.4086 8.05205 20.9862C8.60277 20.6131 9.06436 20.1231 9.40385 19.5511C9.74335 18.9791 9.95239 18.3393 10.0161 17.6772C10.0493 17.2023 10.1475 16.7343 10.3081 16.2862C10.5829 15.5244 11.0393 14.8411 11.6379 14.2955C12.2364 13.75 12.9589 13.3587 13.7429 13.1554C14.5268 12.9522 15.3485 12.9432 16.1366 13.1293C16.9248 13.3153 17.6558 13.6908 18.2661 14.2232C18.7691 14.648 19.3642 14.9497 20.0043 15.1044C20.6443 15.2591 21.3115 15.2624 21.9531 15.1142C22.5988 14.9733 23.2662 14.9628 23.9161 15.0832C25.0681 15.2944 26.1093 15.904 26.8574 16.8053C27.6055 17.7066 28.0129 18.8422 28.0083 20.0135C28.0038 21.1848 27.5876 22.3173 26.8326 23.2128C26.0776 24.1082 25.0317 24.7098 23.8781 24.9122H23.8731Z" fill="#6DBC53"/>
<path id="Vector_6" d="M23.9115 15.083C23.2616 14.9627 22.5943 14.9732 21.9485 15.114C21.307 15.2623 20.6397 15.2589 19.9997 15.1042C19.3597 14.9496 18.7645 14.6478 18.2615 14.223C17.3644 13.4371 16.2131 13.0027 15.0205 13C15.0193 14.1703 15.4303 15.3036 16.1813 16.201C16.9323 17.0985 17.9754 17.7029 19.1275 17.908C19.0447 18.2661 19.0021 18.6324 19.0005 19C18.9997 19.9012 19.2425 20.7858 19.7032 21.5603C20.1638 22.3349 20.8253 22.9705 21.6175 23.4C22.5088 23.8547 23.2971 24.4878 23.9335 25.26C23.9155 25.144 23.8995 25.028 23.8735 24.915C25.0272 24.7126 26.073 24.1111 26.8281 23.2156C27.5831 22.3201 27.9993 21.1877 28.0038 20.0164C28.0083 18.8451 27.6009 17.7095 26.8528 16.8082C26.1047 15.9069 25.0636 15.2973 23.9115 15.086V15.083Z" fill="#62A94B"/>
<path id="Vector_7" d="M22.9109 24.0832C22.261 23.9628 21.5936 23.9734 20.9479 24.1142C20.3063 24.2624 19.6391 24.2591 18.9991 24.1044C18.359 23.9498 17.7639 23.648 17.2609 23.2232C16.6506 22.6902 15.9194 22.3142 15.1309 22.1277C14.3423 21.9413 13.5202 21.9501 12.7358 22.1534C11.9515 22.3566 11.2285 22.7482 10.6298 23.2942C10.031 23.8401 9.57451 24.5239 9.29987 25.2862C9.13933 25.7343 9.04108 26.2023 9.00787 26.6772C8.93492 27.5867 8.56854 28.4479 7.96387 29.1312C8.51461 29.9382 8.89596 30.8486 9.08487 31.8072C9.37816 32.8746 9.97373 33.8344 10.7999 34.5712C11.6366 35.4505 12.7866 35.964 13.9999 36.0002C14.9486 36.0002 15.8778 35.7302 16.6789 35.2218C17.48 34.7135 18.1199 33.9877 18.5239 33.1292C19.1631 31.9392 20.1644 30.9834 21.3829 30.4002C22.1751 29.9707 22.8365 29.3351 23.2972 28.5605C23.7579 27.786 24.0007 26.9014 23.9999 26.0002C23.998 25.6339 23.9554 25.269 23.8729 24.9122C24.1055 24.8651 24.3344 24.8013 24.5579 24.7212C24.0525 24.4097 23.4942 24.1934 22.9109 24.0832Z" fill="#62A94B"/>
<path id="Vector_8" d="M25.8731 32.9122C25.9556 33.269 25.9982 33.6339 26.0001 34.0002C26.0008 34.9013 25.7581 35.786 25.2974 36.5605C24.8367 37.335 24.1753 37.9707 23.3831 38.4002C22.1643 38.9841 21.1633 39.941 20.5251 41.1322C20.1206 41.9902 19.4803 42.7155 18.6791 43.2233C17.8778 43.7312 16.9487 44.0006 16.0001 44.0002C14.7868 43.964 13.6368 43.4504 12.8001 42.5712C11.9765 41.8336 11.3837 40.8738 11.0931 39.8072C10.8776 38.5802 10.3147 37.4408 9.47105 36.5242C8.9608 36.0175 8.56673 35.4061 8.31611 34.7321C8.06549 34.0582 7.9643 33.3378 8.01956 32.6209C8.07482 31.904 8.28519 31.2076 8.63613 30.58C8.98707 29.9524 9.47019 29.4086 10.0521 28.9862C10.6028 28.6131 11.0644 28.1231 11.4039 27.5511C11.7434 26.9791 11.9524 26.3393 12.0161 25.6772C12.0493 25.2023 12.1475 24.7343 12.3081 24.2862C12.5829 23.5244 13.0393 22.8411 13.6379 22.2955C14.2364 21.75 14.9589 21.3587 15.7429 21.1554C16.5268 20.9522 17.3485 20.9432 18.1366 21.1293C18.9248 21.3154 19.6558 21.6908 20.2661 22.2232C20.7691 22.648 21.3642 22.9497 22.0043 23.1044C22.6443 23.2591 23.3115 23.2624 23.9531 23.1142C24.5988 22.9733 25.2662 22.9628 25.9161 23.0832C27.0681 23.2944 28.1093 23.904 28.8574 24.8053C29.6055 25.7066 30.0129 26.8422 30.0083 28.0135C30.0038 29.1848 29.5876 30.3173 28.8326 31.2128C28.0776 32.1082 27.0317 32.7098 25.8781 32.9122H25.8731Z" fill="#6DBC53"/>
<path id="Vector_9" d="M29.9452 27.2461C29.7841 26.2209 29.31 25.2706 28.5879 24.5253C27.8657 23.78 26.9308 23.2763 25.9112 23.0831C25.2613 22.9627 24.5939 22.9732 23.9482 23.1141C23.4262 23.2211 22.8891 23.2319 22.3632 23.1461C22.3452 23.1941 22.3202 23.2381 22.3032 23.2861C22.1426 23.7342 22.0444 24.2022 22.0112 24.6771C21.9475 25.3392 21.7385 25.979 21.399 26.551C21.0595 27.123 20.5979 27.613 20.0472 27.9861C19.4653 28.4085 18.9822 28.9523 18.6313 29.5799C18.2803 30.2075 18.0699 30.9039 18.0147 31.6208C17.9594 32.3377 18.0606 33.0581 18.3112 33.732C18.5618 34.406 18.9559 35.0174 19.4662 35.524C20.3098 36.4406 20.8728 37.5801 21.0882 38.8071C21.1738 39.1584 21.3039 39.4975 21.4752 39.8161C22.0367 39.2512 22.6799 38.7739 23.3832 38.4001C24.1754 37.9706 24.8368 37.3349 25.2975 36.5604C25.7582 35.7859 26.001 34.9012 26.0002 34.0001C25.9983 33.6338 25.9557 33.2689 25.8732 32.9121C27.1573 32.6863 28.3022 31.9671 29.0631 30.9084C29.824 29.8496 30.1406 28.5352 29.9452 27.2461Z" fill="#62A94B"/>
<path id="Vector_10" d="M21.1273 16.9122C21.0448 17.269 21.0022 17.6339 21.0003 18.0002C20.9995 18.9013 21.2423 19.786 21.703 20.5605C22.1636 21.335 22.8251 21.9707 23.6173 22.4002C24.836 22.9841 25.8371 23.941 26.4753 25.1322C26.8798 25.9902 27.52 26.7155 28.3213 27.2233C29.1225 27.7312 30.0517 28.0006 31.0003 28.0002C32.2157 27.9655 33.3681 27.4519 34.2063 26.5712C35.0295 25.8333 35.6222 24.8736 35.9133 23.8072C36.1287 22.5802 36.6917 21.4408 37.5353 20.5242C38.0456 20.0175 38.4396 19.4061 38.6903 18.7321C38.9409 18.0582 39.0421 17.3378 38.9868 16.6209C38.9316 15.904 38.7212 15.2076 38.3702 14.58C38.0193 13.9524 37.5362 13.4086 36.9543 12.9862C36.4036 12.6131 35.942 12.1231 35.6025 11.5511C35.263 10.9791 35.054 10.3393 34.9903 9.67715C34.9578 9.2024 34.8602 8.73437 34.7003 8.28615C34.4255 7.52436 33.969 6.84108 33.3705 6.29555C32.772 5.75001 32.0494 5.35867 31.2655 5.15544C30.4816 4.95222 29.6599 4.94324 28.8717 5.1293C28.0835 5.31535 27.3526 5.69082 26.7423 6.22315C26.2393 6.648 25.6441 6.94974 25.0041 7.1044C24.3641 7.25907 23.6968 7.26241 23.0553 7.11415C22.4096 6.97335 21.7422 6.96281 21.0923 7.08315C19.9402 7.29444 18.8991 7.90405 18.151 8.80534C17.4029 9.70664 16.9955 10.8422 17 12.0135C17.0046 13.1848 17.4207 14.3173 18.1758 15.2128C18.9308 16.1082 19.9766 16.7098 21.1303 16.9122H21.1273Z" fill="#6DBC53"/>
<path id="Vector_11" d="M23.4201 38.373C23.2722 38.2348 23.1163 38.1056 22.9531 37.986C22.4023 37.613 21.9408 37.123 21.6013 36.551C21.2618 35.979 21.0527 35.3391 20.9891 34.677C20.9559 34.2021 20.8576 33.7341 20.6971 33.286C20.4222 32.5242 19.9658 31.8409 19.3673 31.2954C18.7687 30.7498 18.0462 30.3585 17.2623 30.1553C16.4783 29.952 15.6567 29.9431 14.8685 30.1291C14.0803 30.3152 13.3494 30.6906 12.7391 31.223C12.236 31.6478 11.6409 31.9496 11.0009 32.1042C10.3609 32.2589 9.6936 32.2622 9.05207 32.114C8.74178 32.0458 8.42566 32.0076 8.10807 32C7.9358 32.8071 7.96993 33.6447 8.2073 34.4351C8.44468 35.2255 8.87763 35.9433 9.46607 36.522C10.3097 37.4386 10.8727 38.578 11.0881 39.805C11.3802 40.8727 11.9747 41.8333 12.8001 42.571C13.6368 43.4503 14.7868 43.9638 16.0001 44C16.9488 44 17.878 43.73 18.6791 43.2216C19.4802 42.7132 20.1201 41.9874 20.5241 41.129C21.1633 39.939 22.1646 38.9832 23.3831 38.4C23.4001 38.39 23.4071 38.38 23.4201 38.373ZM36.9111 21.083C36.2612 20.9626 35.5938 20.9732 34.9481 21.114C34.3065 21.2622 33.6393 21.2589 32.9993 21.1042C32.3593 20.9496 31.7641 20.6478 31.2611 20.223C30.6558 19.6948 29.9317 19.321 29.1506 19.1335C28.3695 18.946 27.5546 18.9504 26.7755 19.1464C25.9965 19.3423 25.2765 19.724 24.677 20.2587C24.0775 20.7934 23.6164 21.4653 23.3331 22.217C23.4271 22.277 23.5181 22.343 23.6171 22.397C24.8356 22.9812 25.8366 23.938 26.4751 25.129C26.8791 25.9876 27.5192 26.7135 28.3205 27.2219C29.1217 27.7303 30.0511 28.0002 31.0001 28C32.2154 27.9654 33.3678 27.4517 34.2061 26.571C35.0296 25.8335 35.6224 24.8736 35.9131 23.807C36.1029 22.8428 36.4882 21.9277 37.0451 21.118C37.0001 21.109 36.9561 21.091 36.9111 21.083Z" fill="#62A94B"/>
<path id="Vector_12" d="M9.12736 42.9122C9.0448 43.269 9.00221 43.6339 9.00036 44.0002C8.99957 44.9013 9.24235 45.786 9.70302 46.5605C10.1637 47.335 10.8251 47.9707 11.6174 48.4002C12.8361 48.9841 13.8371 49.941 14.4754 51.1322C14.8799 51.9902 15.5201 52.7155 16.3213 53.2233C17.1226 53.7312 18.0517 54.0006 19.0004 54.0002C20.2157 53.9655 21.3681 53.4519 22.2064 52.5712C23.0296 51.8333 23.6223 50.8736 23.9134 49.8072C24.1288 48.5802 24.6917 47.4408 25.5354 46.5242C26.0456 46.0175 26.4397 45.4061 26.6903 44.7321C26.9409 44.0582 27.0421 43.3378 26.9869 42.6209C26.9316 41.904 26.7212 41.2076 26.3703 40.58C26.0193 39.9524 25.5362 39.4086 24.9544 38.9862C24.4036 38.6131 23.9421 38.1231 23.6026 37.5511C23.2631 36.9791 23.054 36.3393 22.9904 35.6772C22.9572 35.2023 22.8589 34.7343 22.6984 34.2862C22.4235 33.5244 21.9671 32.8411 21.3686 32.2955C20.77 31.75 20.0475 31.3587 19.2636 31.1554C18.4796 30.9522 17.658 30.9432 16.8698 31.1293C16.0816 31.3154 15.3507 31.6908 14.7404 32.2232C14.2373 32.648 13.6422 32.9497 13.0022 33.1044C12.3622 33.2591 11.6949 33.2624 11.0534 33.1142C10.4076 32.9733 9.74024 32.9628 9.09036 33.0832C7.93827 33.2944 6.89713 33.904 6.14905 34.8053C5.40096 35.7066 4.99356 36.8422 4.99808 38.0135C5.00261 39.1848 5.41879 40.3173 6.17382 41.2128C6.92885 42.1082 7.97467 42.7098 9.12836 42.9122H9.12736Z" fill="#6DBC53"/>
<path id="Vector_13" d="M24.9534 38.9866C24.4319 38.611 23.9855 38.1408 23.6374 37.6006C23.3155 37.7743 23.0137 37.9829 22.7374 38.2226C22.2344 38.6474 21.6392 38.9492 20.9992 39.1038C20.3592 39.2585 19.692 39.2618 19.0504 39.1136C18.4047 38.9728 17.7373 38.9622 17.0874 39.0826C15.9353 39.2939 14.8942 39.9035 14.1461 40.8048C13.398 41.7061 12.9906 42.8417 12.9952 44.013C12.9997 45.1843 13.4159 46.3167 14.1709 47.2122C14.9259 48.1077 15.9717 48.7092 17.1254 48.9116C17.0435 49.2688 17.0015 49.6341 17.0004 50.0006C16.9995 50.777 17.1798 51.5429 17.527 52.2373C17.8742 52.9317 18.3788 53.5355 19.0004 54.0006C20.2136 53.9648 21.3636 53.4516 22.2004 52.5726C23.024 51.8351 23.6168 50.8752 23.9074 49.8086C24.1228 48.5816 24.6858 47.4422 25.5294 46.5256C26.0397 46.019 26.4338 45.4075 26.6844 44.7336C26.935 44.0596 27.0362 43.3392 26.9809 42.6223C26.9257 41.9054 26.7153 41.2091 26.3644 40.5815C26.0134 39.9539 25.5303 39.41 24.9484 38.9876L24.9534 38.9866Z" fill="#62A94B"/>
<path id="Vector_14" d="M25.628 39.589C25.4217 39.3688 25.1958 39.168 24.953 38.989C24.4023 38.6159 23.9407 38.126 23.6012 37.554C23.2617 36.982 23.0527 36.3421 22.989 35.68C22.9558 35.2051 22.8575 34.7371 22.697 34.289C22.4182 33.5106 21.9493 32.8143 21.3327 32.2635C20.7162 31.7126 19.9717 31.3247 19.167 31.135C18.983 31.0949 18.7971 31.0642 18.61 31.043C14.927 31.458 12 37.665 12 43C12 48.523 15.134 51 19 51C19.9773 51.0366 20.9506 50.856 21.8498 50.4713C22.749 50.0865 23.5516 49.5072 24.2 48.775C24.4508 47.9979 24.8624 47.2824 25.408 46.675C25.8188 45.494 26.0191 44.2502 26 43C25.9931 41.8532 25.8684 40.7102 25.628 39.589Z" fill="#62A94B"/>
<path id="Vector_15" d="M19.1274 47.9122C19.0448 48.269 19.0022 48.6339 19.0004 49.0002C18.9996 49.9013 19.2423 50.786 19.703 51.5605C20.1637 52.335 20.8251 52.9707 21.6174 53.4002C22.8361 53.9841 23.8371 54.941 24.4754 56.1322C24.8799 56.9902 25.5201 57.7155 26.3213 58.2233C27.1226 58.7312 28.0517 59.0006 29.0004 59.0002C30.2157 58.9655 31.3681 58.4519 32.2064 57.5712C33.0296 56.8333 33.6223 55.8736 33.9134 54.8072C34.1288 53.5802 34.6917 52.4408 35.5354 51.5242C36.0456 51.0175 36.4397 50.4061 36.6903 49.7321C36.9409 49.0582 37.0421 48.3378 36.9869 47.6209C36.9316 46.904 36.7212 46.2076 36.3703 45.58C36.0193 44.9524 35.5362 44.4086 34.9544 43.9862C34.4036 43.6131 33.9421 43.1231 33.6026 42.5511C33.2631 41.9791 33.054 41.3393 32.9904 40.6772C32.9572 40.2023 32.8589 39.7343 32.6984 39.2862C32.4235 38.5244 31.9671 37.8411 31.3686 37.2955C30.77 36.75 30.0475 36.3587 29.2636 36.1554C28.4796 35.9522 27.658 35.9432 26.8698 36.1293C26.0816 36.3153 25.3507 36.6908 24.7404 37.2232C24.2373 37.648 23.6422 37.9497 23.0022 38.1044C22.3622 38.2591 21.6949 38.2624 21.0534 38.1142C20.4076 37.9733 19.7402 37.9628 19.0904 38.0832C17.9383 38.2944 16.8971 38.904 16.149 39.8053C15.401 40.7066 14.9936 41.8422 14.9981 43.0135C15.0026 44.1848 15.4188 45.3173 16.1738 46.2128C16.9289 47.1082 17.9737 47.7098 19.1274 47.9122Z" fill="#6DBC53"/>
<path id="Vector_16" d="M37.0005 48.0002C37.0013 47.2169 36.8161 46.4446 36.4603 45.7468C36.1044 45.0489 35.588 44.4455 34.9535 43.9862C34.4027 43.6132 33.9412 43.1232 33.6017 42.5512C33.2622 41.9792 33.0531 41.3393 32.9895 40.6772C32.9562 40.2024 32.858 39.7343 32.6975 39.2862C32.369 38.3796 31.7839 37.5881 31.0135 37.0082C29.8135 36.9928 28.6489 37.4142 27.7367 38.1939C26.8245 38.9736 26.2269 40.0585 26.0555 41.2462C25.86 42.5353 26.1766 43.8498 26.9375 44.9085C27.6984 45.9673 28.8433 46.6864 30.1275 46.9122C30.0449 47.2691 30.0023 47.634 30.0005 48.0002C29.9997 48.9014 30.2424 49.786 30.7031 50.5606C31.1638 51.3351 31.8252 51.9707 32.6175 52.4002C33.2199 52.719 33.7814 53.1098 34.2895 53.5642C34.552 52.8031 34.9768 52.108 35.5345 51.5272C36.0001 51.0656 36.3694 50.5161 36.621 49.9107C36.8727 49.3053 37.0017 48.6559 37.0005 48.0002Z" fill="#62A94B"/>
<path id="Vector_17" d="M38.8731 31.9122C38.9556 32.269 38.9982 32.6339 39.0001 33.0002C39.0008 33.9013 38.7581 34.786 38.2974 35.5605C37.8367 36.335 37.1753 36.9707 36.3831 37.4002C35.1643 37.9841 34.1633 38.941 33.5251 40.1322C33.1206 40.9902 32.4803 41.7155 31.6791 42.2233C30.8778 42.7312 29.9487 43.0006 29.0001 43.0002C27.7868 42.964 26.6368 42.4504 25.8001 41.5712C24.9765 40.8336 24.3837 39.8738 24.0931 38.8072C23.8776 37.5802 23.3147 36.4408 22.4711 35.5242C21.9608 35.0175 21.5667 34.4061 21.3161 33.7321C21.0655 33.0582 20.9643 32.3378 21.0196 31.6209C21.0748 30.904 21.2852 30.2076 21.6361 29.58C21.9871 28.9524 22.4702 28.4086 23.0521 27.9862C23.6028 27.6131 24.0644 27.1231 24.4039 26.5511C24.7434 25.9791 24.9524 25.3393 25.0161 24.6772C25.0493 24.2023 25.1475 23.7343 25.3081 23.2862C25.5829 22.5244 26.0393 21.8411 26.6379 21.2955C27.2364 20.75 27.9589 20.3587 28.7429 20.1554C29.5268 19.9522 30.3485 19.9432 31.1367 20.1293C31.9248 20.3154 32.6558 20.6908 33.2661 21.2232C33.7691 21.648 34.3642 21.9497 35.0043 22.1044C35.6443 22.2591 36.3115 22.2624 36.9531 22.1142C37.5988 21.9733 38.2662 21.9628 38.9161 22.0832C40.0681 22.2944 41.1093 22.904 41.8574 23.8053C42.6055 24.7066 43.0129 25.8422 43.0083 27.0135C43.0038 28.1848 42.5876 29.3173 41.8326 30.2128C41.0776 31.1082 40.0317 31.7098 38.8781 31.9122H38.8731Z" fill="#6DBC53"/>
<path id="Vector_18" d="M35.7387 33.223C35.2356 33.6478 34.6405 33.9496 34.0005 34.1042C33.3605 34.2589 32.6932 34.2623 32.0517 34.114C31.4059 33.9732 30.7385 33.9627 30.0887 34.083C29.0691 34.2762 28.1341 34.78 27.412 35.5253C26.6898 36.2705 26.2157 37.2208 26.0547 38.246C25.9282 39.0832 26.0181 39.9389 26.3156 40.7316C26.6132 41.5243 27.1086 42.2277 27.7547 42.775C28.155 42.9158 28.5753 42.9917 28.9997 43C29.9484 43 30.8776 42.73 31.6787 42.2216C32.4798 41.7133 33.1197 40.9875 33.5237 40.129C34.1629 38.939 35.1642 37.9832 36.3827 37.4C37.1749 36.9705 37.8363 36.3349 38.297 35.5603C38.7577 34.7858 39.0005 33.9012 38.9997 33C38.9972 32.6637 38.96 32.3286 38.8887 32C37.7274 32.0239 36.6119 32.4571 35.7387 33.223Z" fill="#62A94B"/>
<path id="Vector_19" d="M51.8731 18.088C51.9556 17.7312 51.9982 17.3663 52.0001 17C52.0008 16.0988 51.7581 15.2142 51.2974 14.4397C50.8367 13.6651 50.1753 13.0295 49.3831 12.6C48.1643 12.0161 47.1633 11.0592 46.5251 9.868C46.1206 9.00994 45.4803 8.28465 44.6791 7.77682C43.8778 7.26898 42.9487 6.99956 42.0001 7C40.7868 7.03618 39.6368 7.54971 38.8001 8.429C37.9765 9.16651 37.3837 10.1264 37.0931 11.193C36.8776 12.42 36.3147 13.5594 35.4711 14.476C34.9608 14.9826 34.5667 15.5941 34.3161 16.268C34.0655 16.942 33.9643 17.6623 34.0196 18.3793C34.0748 19.0962 34.2852 19.7925 34.6361 20.4201C34.9871 21.0477 35.4702 21.5916 36.0521 22.014C36.6028 22.387 37.0644 22.877 37.4039 23.449C37.7434 24.021 37.9524 24.6609 38.0161 25.323C38.0493 25.7978 38.1475 26.2659 38.3081 26.714C38.5829 27.4758 39.0393 28.1591 39.6379 28.7046C40.2364 29.2501 40.9589 29.6415 41.7429 29.8447C42.5268 30.0479 43.3485 30.0569 44.1366 29.8709C44.9248 29.6848 45.6558 29.3093 46.2661 28.777C46.7691 28.3522 47.3642 28.0504 48.0043 27.8958C48.6443 27.7411 49.3115 27.7377 49.9531 27.886C50.5988 28.0268 51.2662 28.0373 51.9161 27.917C53.0681 27.7057 54.1093 27.0961 54.8574 26.1948C55.6055 25.2935 56.0129 24.1579 56.0083 22.9866C56.0038 21.8153 55.5876 20.6829 54.8326 19.7874C54.0776 18.8919 53.0317 18.2904 51.8781 18.088H51.8731Z" fill="#6DBC53"/>
<path id="Vector_20" d="M55.7642 24.5265C55.7402 24.4455 55.7252 24.3675 55.6972 24.2865C55.4184 23.5081 54.9494 22.8118 54.3329 22.261C53.7164 21.7101 52.9719 21.3222 52.1672 21.1325C51.6945 21.0272 51.2096 20.9878 50.7262 21.0155C50.3651 19.1027 49.3906 17.3597 47.9502 16.0505C44.9632 13.0645 40.2922 10.9885 37.0342 11.3945C36.8071 12.5472 36.2642 13.6142 35.4662 14.4765C34.9559 14.9831 34.5618 15.5945 34.3112 16.2685C34.0606 16.9424 33.9594 17.6628 34.0147 18.3797C34.0699 19.0966 34.2803 19.793 34.6313 20.4206C34.9822 21.0482 35.4653 21.592 36.0472 22.0145C36.5979 22.3875 37.0595 22.8775 37.399 23.4495C37.7385 24.0215 37.9475 24.6613 38.0112 25.3235C38.0255 25.5509 38.0552 25.7771 38.1002 26.0005C38.1782 26.0755 38.2572 26.1465 38.3362 26.2205C38.3002 26.3135 38.2722 26.4095 38.2362 26.5045C38.2582 26.5755 38.2702 26.6445 38.2952 26.7155C38.57 27.4772 39.0264 28.1605 39.625 28.7061C40.2235 29.2516 40.946 29.6429 41.73 29.8462C42.5139 30.0494 43.3356 30.0584 44.1238 29.8723C44.912 29.6863 45.6429 29.3108 46.2532 28.7785C46.7562 28.3536 47.3514 28.0519 47.9914 27.8972C48.6314 27.7425 49.2986 27.7392 49.9402 27.8875C50.5859 28.0283 51.2533 28.0388 51.9032 27.9185C52.7916 27.7509 53.6187 27.3477 54.298 26.751C54.9772 26.1542 55.4836 25.3859 55.7642 24.5265Z" fill="#62A94B"/>
<path id="Vector_21" d="M31.5149 15.5147C29.1639 17.8657 30.5869 23.2147 33.5149 27.1537C33.7608 26.9791 33.9916 26.784 34.2049 26.5707C35.0284 25.8332 35.6212 24.8734 35.9119 23.8067C36.1273 22.5798 36.6902 21.4403 37.5339 20.5237C38.2407 19.8256 38.7205 18.9305 38.9107 17.9553C39.1009 16.9802 38.9926 15.9704 38.5999 15.0577C35.7779 14.0547 33.0259 13.9997 31.5149 15.5147Z" fill="#62A94B"/>
<path id="Vector_22" d="M32.1274 45.9122C32.0448 46.269 32.0022 46.6339 32.0004 47.0002C31.9996 47.9013 32.2423 48.786 32.703 49.5605C33.1637 50.335 33.8251 50.9707 34.6174 51.4002C35.8361 51.9841 36.8371 52.941 37.4754 54.1322C37.8799 54.9902 38.5201 55.7155 39.3213 56.2233C40.1226 56.7312 41.0517 57.0006 42.0004 57.0002C43.2157 56.9655 44.3681 56.4519 45.2064 55.5712C46.0296 54.8333 46.6223 53.8736 46.9134 52.8072C47.1288 51.5802 47.6917 50.4408 48.5354 49.5242C49.0456 49.0175 49.4397 48.4061 49.6903 47.7321C49.9409 47.0582 50.0421 46.3378 49.9869 45.6209C49.9316 44.904 49.7212 44.2076 49.3703 43.58C49.0193 42.9524 48.5362 42.4086 47.9544 41.9862C47.4036 41.6131 46.9421 41.1231 46.6026 40.5511C46.2631 39.9791 46.054 39.3393 45.9904 38.6772C45.9572 38.2023 45.8589 37.7343 45.6984 37.2862C45.4235 36.5244 44.9671 35.8411 44.3686 35.2955C43.77 34.75 43.0475 34.3587 42.2636 34.1554C41.4796 33.9522 40.658 33.9432 39.8698 34.1293C39.0816 34.3153 38.3507 34.6908 37.7404 35.2232C37.2373 35.648 36.6422 35.9497 36.0022 36.1044C35.3622 36.2591 34.6949 36.2624 34.0534 36.1142C33.4076 35.9733 32.7402 35.9628 32.0904 36.0832C30.9383 36.2944 29.8971 36.904 29.149 37.8053C28.401 38.7066 27.9936 39.8422 27.9981 41.0135C28.0026 42.1848 28.4188 43.3173 29.1738 44.2128C29.9289 45.1082 30.9737 45.7098 32.1274 45.9122Z" fill="#6DBC53"/>
<path id="Vector_23" d="M42.945 26.2464C42.7839 25.2213 42.3098 24.2709 41.5877 23.5257C40.8655 22.7804 39.9306 22.2767 38.911 22.0834C38.2611 21.9631 37.5938 21.9736 36.948 22.1144C36.3065 22.2627 35.6392 22.2594 34.9992 22.1047C34.3592 21.95 33.764 21.6483 33.261 21.2234C32.4655 20.5299 31.4689 20.1093 30.417 20.0234C31.0103 23.4035 32.6275 26.5197 35.05 28.9504C36.3002 30.3095 37.9324 31.2584 39.732 31.6724C40.8111 31.2772 41.7204 30.5212 42.306 29.5323C42.8915 28.5435 43.1173 27.3827 42.945 26.2464ZM47.953 41.9864C47.4023 41.6134 46.9407 41.1234 46.6012 40.5514C46.2617 39.9794 46.0527 39.3395 45.989 38.6774C45.9558 38.2026 45.8575 37.7346 45.697 37.2864C45.4222 36.5246 44.9657 35.8414 44.3672 35.2958C43.7687 34.7503 43.0461 34.3589 42.2622 34.1557C41.4783 33.9525 40.6566 33.9435 39.8684 34.1296C39.0802 34.3156 38.3493 34.6911 37.739 35.2234C37.4572 35.4634 37.1427 35.6621 36.805 35.8134C37.4695 36.3769 38.2701 36.7562 39.127 36.9134C39.0445 37.2699 39.0019 37.6345 39 38.0004C38.9992 38.9016 39.242 39.7862 39.7026 40.5608C40.1633 41.3353 40.8248 41.9709 41.617 42.4004C42.8355 42.9846 43.8365 43.9415 44.475 45.1324C44.8795 45.9905 45.5197 46.7158 46.321 47.2236C47.1222 47.7315 48.0514 48.0009 49 48.0004C49.2052 47.9933 49.4095 47.9699 49.611 47.9304C50.0464 46.8981 50.1197 45.7488 49.8188 44.6695C49.518 43.5903 48.8597 42.6446 47.953 41.9864Z" fill="#62A94B"/>
<path id="Vector_24" d="M41.1274 34.9122C41.0448 35.269 41.0022 35.6339 41.0004 36.0002C40.9996 36.9013 41.2423 37.786 41.703 38.5605C42.1637 39.335 42.8251 39.9707 43.6174 40.4002C44.8361 40.9841 45.8371 41.941 46.4754 43.1322C46.8799 43.9902 47.5201 44.7155 48.3213 45.2233C49.1226 45.7312 50.0517 46.0006 51.0004 46.0002C52.2157 45.9655 53.3681 45.4519 54.2064 44.5712C55.0296 43.8333 55.6223 42.8736 55.9134 41.8072C56.1288 40.5802 56.6917 39.4408 57.5354 38.5242C58.0456 38.0175 58.4397 37.4061 58.6903 36.7321C58.9409 36.0582 59.0421 35.3378 58.9869 34.6209C58.9316 33.904 58.7212 33.2076 58.3703 32.58C58.0193 31.9524 57.5362 31.4086 56.9544 30.9862C56.4036 30.6131 55.9421 30.1231 55.6026 29.5511C55.2631 28.9791 55.054 28.3393 54.9904 27.6772C54.9572 27.2023 54.8589 26.7343 54.6984 26.2862C54.4235 25.5244 53.9671 24.8411 53.3686 24.2955C52.77 23.75 52.0475 23.3587 51.2636 23.1554C50.4796 22.9522 49.658 22.9432 48.8698 23.1293C48.0816 23.3154 47.3507 23.6908 46.7404 24.2232C46.2373 24.648 45.6422 24.9497 45.0022 25.1044C44.3622 25.2591 43.6949 25.2624 43.0534 25.1142C42.4076 24.9733 41.7402 24.9628 41.0904 25.0832C39.9383 25.2944 38.8971 25.904 38.149 26.8053C37.401 27.7066 36.9936 28.8422 36.9981 30.0135C37.0026 31.1848 37.4188 32.3173 38.1738 33.2128C38.9288 34.1082 39.9737 34.7098 41.1274 34.9122Z" fill="#6DBC53"/>
<path id="Vector_25" d="M26.0004 43.0001C25.9802 40.9814 25.6128 38.9812 24.9144 37.0871C24.8564 37.1331 24.7954 37.1751 24.7394 37.2231C24.2364 37.6479 23.6412 37.9496 23.0012 38.1043C22.3612 38.259 21.6939 38.2623 21.0524 38.114C20.4066 37.9732 19.7393 37.9627 19.0894 38.0831C17.9373 38.2943 16.8962 38.9039 16.1481 39.8052C15.4 40.7065 14.9926 41.8421 14.9971 43.0134C15.0016 44.1847 15.4178 45.3172 16.1728 46.2127C16.9279 47.1081 17.9737 47.7097 19.1274 47.9121C18.8887 48.9395 18.988 50.0165 19.4104 50.9831C23.0844 50.8111 26.0004 48.3251 26.0004 43.0001ZM41.0524 27.1141C40.4066 26.9732 39.7393 26.9627 39.0894 27.0831C38.0698 27.2763 37.1349 27.78 36.4127 28.5253C35.6905 29.2706 35.2165 30.2209 35.0554 31.2461C34.9015 32.2678 35.0701 33.312 35.5378 34.2333C36.0055 35.1547 36.7488 35.9072 37.6644 36.3861C38.2191 35.7977 38.6197 35.0814 38.8306 34.3008C39.0415 33.5203 39.0562 32.6997 38.8734 31.9121C40.0091 31.7103 41.0397 31.1209 41.7895 30.2443C42.5394 29.3678 42.962 28.2583 42.9854 27.1051C42.3497 27.251 41.6894 27.2541 41.0524 27.1141Z" fill="#62A94B"/>
<path id="Vector_26" d="M28 41C28 46.523 24.866 49 21 49C17.134 49 14 46.523 14 41C14 35.477 17.134 29 21 29C24.866 29 28 35.477 28 41Z" fill="#E6E6E6"/>
<path id="Vector_27" d="M24 47.0003C20.134 47.0003 17 44.5233 17 39.0003C16.9945 35.417 18.16 31.9301 20.319 29.0703C16.773 29.7703 14 35.8063 14 41.0003C14 46.5233 17.134 49.0003 21 49.0003C22.003 49.0403 23.0019 48.8506 23.9204 48.4458C24.8389 48.0409 25.6528 47.4316 26.3 46.6643C25.5543 46.8899 24.7791 47.0031 24 47.0003Z" fill="#CECECE"/>
<path id="Vector_28" d="M21 45C23.2091 45 25 43.2091 25 41C25 38.7909 23.2091 37 21 37C18.7909 37 17 38.7909 17 41C17 43.2091 18.7909 45 21 45Z" fill="#F8C460"/>
<path id="Vector_29" d="M47.6468 23.6006C47.3217 23.7755 47.0172 23.9861 46.7388 24.2286C46.2358 24.6534 45.6407 24.9552 45.0006 25.1098C44.3606 25.2645 43.6934 25.2678 43.0518 25.1196C42.4061 24.9788 41.7387 24.9682 41.0888 25.0886C40.0692 25.2818 39.1343 25.7856 38.4122 26.5308C37.69 27.2761 37.2159 28.2264 37.0548 29.2516C36.9973 29.6917 36.9973 30.1375 37.0548 30.5776C38.351 31.5066 39.9434 31.9266 41.5291 31.7579C43.1148 31.5892 44.5832 30.8435 45.6548 29.6626C46.4805 28.909 47.0978 27.9551 47.4467 26.8931C47.7957 25.8311 47.8646 24.697 47.6468 23.6006Z" fill="#62A94B"/>
<path id="Vector_30" d="M46.9495 18.0506C50.8495 21.9506 50.3905 25.9236 47.6565 28.6576C44.9225 31.3916 40.9565 31.8576 37.0495 27.9506C33.1425 24.0436 30.7805 17.2506 33.5145 14.5156C36.2485 11.7806 43.0445 14.1456 46.9495 18.0506Z" fill="#E6E6E6"/>
<path id="Vector_31" d="M48.6571 26.6573C45.9231 29.3913 41.9571 29.8573 38.0501 25.9503C34.9201 22.8193 32.7871 17.8353 33.4691 14.5713C30.8161 17.3373 33.1691 24.0713 37.0501 27.9503C40.9561 31.8553 44.9231 31.3913 47.6571 28.6573C48.521 27.8188 49.1641 26.7796 49.5291 25.6323C49.2663 25.9967 48.9747 26.3394 48.6571 26.6573Z" fill="#CECECE"/>
<path id="Vector_32" d="M42 27C44.2091 27 46 25.2091 46 23C46 20.7909 44.2091 19 42 19C39.7909 19 38 20.7909 38 23C38 25.2091 39.7909 27 42 27Z" fill="#F8C460"/>
<path id="Vector_33" d="M41.1716 23.8283C40.5989 23.2543 40.2147 22.5194 40.0702 21.7215C39.9257 20.9237 40.0277 20.1007 40.3626 19.3623C39.768 19.6249 39.2464 20.0284 38.8428 20.5379C38.4393 21.0474 38.166 21.6476 38.0466 22.2865C37.9272 22.9254 37.9653 23.5838 38.1575 24.2047C38.3498 24.8255 38.6905 25.3902 39.1501 25.8498C39.6097 26.3094 40.1744 26.6501 40.7952 26.8423C41.4161 27.0346 42.0745 27.0727 42.7134 26.9533C43.3523 26.8339 43.9525 26.5606 44.462 26.157C44.9715 25.7535 45.375 25.2319 45.6376 24.6373C44.8991 24.9722 44.0762 25.0742 43.2783 24.9297C42.4805 24.7851 41.7456 24.401 41.1716 23.8283ZM20.1716 41.8283C19.5989 41.2543 19.2147 40.5194 19.0702 39.7215C18.9257 38.9237 19.0277 38.1007 19.3626 37.3623C18.768 37.6249 18.2464 38.0284 17.8428 38.5379C17.4393 39.0474 17.166 39.6476 17.0466 40.2865C16.9272 40.9254 16.9653 41.5838 17.1575 42.2047C17.3498 42.8255 17.6905 43.3902 18.1501 43.8498C18.6097 44.3094 19.1744 44.6501 19.7952 44.8423C20.4161 45.0346 21.0745 45.0727 21.7134 44.9533C22.3523 44.8339 22.9525 44.5606 23.462 44.157C23.9715 43.7535 24.375 43.2319 24.6376 42.6373C23.8991 42.9722 23.0762 43.0742 22.2783 42.9297C21.4805 42.7851 20.7456 42.401 20.1716 41.8283Z" fill="#FAAF42"/>
<path id="Vector_34" d="M28 16C29.1046 16 30 14.6569 30 13C30 11.3431 29.1046 10 28 10C26.8954 10 26 11.3431 26 13C26 14.6569 26.8954 16 28 16Z" fill="#62A94B"/>
<path id="Vector_35" d="M29 15C30.1046 15 31 13.6569 31 12C31 10.3431 30.1046 9 29 9C27.8954 9 27 10.3431 27 12C27 13.6569 27.8954 15 29 15Z" fill="#F96464"/>
<path id="Vector_36" d="M47.4146 39.4141C48.5862 38.2426 48.9027 36.6597 48.1217 35.8786C47.3406 35.0976 45.7577 35.4141 44.5862 36.5857C43.4146 37.7573 43.098 39.3402 43.8791 40.1212C44.6601 40.9023 46.243 40.5857 47.4146 39.4141Z" fill="#F96464"/>
<path id="Vector_37" d="M30.1217 55.1214C30.9027 54.3403 30.5862 52.7574 29.4146 51.5859C28.243 50.4143 26.6601 50.0977 25.8791 50.8788C25.098 51.6598 25.4146 53.2427 26.5862 54.4143C27.7577 55.5859 29.3406 55.9024 30.1217 55.1214Z" fill="#62A94B"/>
<path id="Vector_38" d="M31.1217 54.1214C31.9027 53.3403 31.5862 51.7574 30.4146 50.5859C29.243 49.4143 27.6601 49.0977 26.8791 49.8788C26.098 50.6598 26.4146 52.2427 27.5862 53.4143C28.7577 54.5859 30.3406 54.9024 31.1217 54.1214Z" fill="#F96464"/>
<path id="Vector_39" d="M16.1217 26.1214C16.9027 25.3403 16.5862 23.7574 15.4146 22.5859C14.243 21.4143 12.6601 21.0977 11.8791 21.8788C11.098 22.6598 11.4146 24.2427 12.5862 25.4143C13.7577 26.5859 15.3406 26.9024 16.1217 26.1214Z" fill="#62A94B"/>
<path id="Vector_40" d="M17.1217 25.1214C17.9027 24.3403 17.5862 22.7574 16.4146 21.5859C15.243 20.4143 13.6601 20.0977 12.8791 20.8788C12.098 21.6598 12.4146 23.2427 13.5862 24.4143C14.7577 25.5859 16.3406 25.9024 17.1217 25.1214Z" fill="#F96464"/>
<path id="Vector_41" d="M26.5742 26.5742H30.5742V30.5742H26.5742V26.5742Z" fill="#62A94B"/>
<path id="Vector_42" d="M28 25H32V29H28V25Z" fill="#F98658"/>
<path id="Vector_43" d="M34 45H38V49H34V45Z" fill="#62A94B"/>
<path id="Vector_44" d="M36 43H40V47H36V43Z" fill="#F98658"/>
<path id="Vector_45" d="M54.6449 30.2099L57.4729 33.0379L54.6449 35.8659L51.8159 33.0379L54.6449 30.2099ZM17.9999 14.1719L20.8279 16.9999L17.9999 19.8279L15.1719 16.9999L17.9999 14.1719Z" fill="#62A94B"/>
<path id="Vector_46" d="M55.9999 29.1719L58.8279 31.9999L55.9999 34.8279L53.1719 31.9999L55.9999 29.1719ZM18.9999 13.1719L21.8279 15.9999L18.9999 18.8279L16.1719 15.9999L18.9999 13.1719ZM6.99988 32.1719L9.82788 34.9999L6.99988 37.8279L4.17188 34.9999L6.99988 32.1719Z" fill="#F98658"/>
<path id="Vector_47" d="M33.9999 35.1719L36.8279 37.9999L33.9999 40.8279L31.1719 37.9999L33.9999 35.1719Z" fill="#62A94B"/>
<path id="Vector_48" d="M34.9999 34.1719L37.8279 36.9999L34.9999 39.8279L32.1719 36.9999L34.9999 34.1719Z" fill="#F98658"/>
</g>
<ellipse id="Ellipse 1617" cx="16.0034" cy="59.0918" rx="0.00341797" ry="0.0917969" fill="#D9D9D9"/>
</g>
<defs>
<clipPath id="clip0_248_2060">
<rect width="64" height="64" fill="white"/>
</clipPath>
</defs>
</svg>
