<svg width="64" height="64" viewBox="0 0 64 64" fill="none" xmlns="http://www.w3.org/2000/svg">
<g id="Canapes" clip-path="url(#clip0_248_2239)">
<path id="Vector" d="M11.1276 18.6862C9.31209 19.9972 2.96203 37.2166 7.71984 49.3778V49.3791C11.9882 57.9417 22.5237 63.9998 34.845 63.9998C50.9469 63.9998 63.9998 53.654 63.9998 40.8901V32.1288C50.9201 3.26894 33.4607 -2.09596 11.1276 18.6862Z" fill="#F9B132"/>
<path id="Vector_2" d="M47.2529 43.7808C47.7639 43.7808 48.1794 44.1963 48.1794 44.7072C48.1794 45.2195 47.7639 45.635 47.2529 45.635C46.7407 45.635 46.3252 45.2195 46.3252 44.7072C46.3252 44.1963 46.7407 43.7808 47.2529 43.7808ZM55.9704 31.8711C56.6194 31.8711 57.1446 32.3963 57.1446 33.0453C57.1446 33.693 56.6194 34.2182 55.9704 34.2182C55.3226 34.2182 54.7975 33.693 54.7975 33.0453C54.7975 32.3963 55.3226 31.8711 55.9704 31.8711ZM50.5768 37.8143C51.2387 37.8143 51.7755 38.3511 51.7755 39.013C51.7755 39.6763 51.2387 40.213 50.5768 40.213C49.9149 40.213 49.3781 39.6763 49.3781 39.013C49.3781 38.3511 49.9149 37.8143 50.5768 37.8143ZM53.4891 42.2556C54.0297 42.2556 54.4684 42.6943 54.4684 43.2337C54.4684 43.7743 54.0297 44.213 53.4891 44.213C52.9497 44.213 52.511 43.7743 52.511 43.2337C52.511 42.6943 52.9497 42.2556 53.4891 42.2556Z" fill="#F9B132"/>
<path id="Vector_3" d="M13.8246 33.121C10.5291 32.7843 7.85043 33.3933 5.81172 34.2591C5.73172 33.5572 5.69043 32.8475 5.69043 32.1288C5.69043 27.1146 7.70462 22.4733 11.1266 18.6862H11.1278C11.0117 19.3494 10.9201 20.0346 10.8517 20.743C10.3562 25.9249 11.5911 29.9972 13.8246 33.121ZM23.9704 49.1778L27.2014 47.6798C27.2014 47.6798 26.7769 50.9481 28.0156 54.601C21.9988 53.4552 16.7085 50.8333 12.7898 47.2436C14.0091 46.3623 15.2878 45.1598 16.6285 43.5339L17.0775 47.4294C17.0775 47.4294 21.2517 43.8785 22.2943 39.6191V39.6178C24.1175 40.3907 26.0233 40.943 27.9033 41.3004C23.8298 43.9327 23.9704 49.1778 23.9704 49.1778ZM55.2866 15.6514C60.6646 19.8436 64.0001 25.6772 64.0001 32.1288C64.0001 44.8114 51.1098 55.1081 35.1472 55.2372C36.3717 53.6552 37.4169 51.4849 37.6646 48.5778L40.8362 50.2514C40.8362 50.2514 42.1601 45.6346 40.3124 40.7933C43.1266 39.9275 45.4169 38.5636 47.2517 36.912C47.253 36.912 47.253 36.912 47.253 36.912C49.644 34.7585 51.2595 32.1146 52.2453 29.441C52.2466 29.4398 52.2466 29.4398 52.2466 29.4398C53.5175 25.9933 53.7433 22.4965 53.2401 19.9417C54.2504 18.3378 54.9124 16.9133 55.2866 15.6514ZM57.1446 33.0449C57.1446 32.3959 56.6195 31.8707 55.9704 31.8707C55.3227 31.8707 54.7975 32.3959 54.7975 33.0449C54.7975 33.6927 55.3227 34.2178 55.9704 34.2178C56.6195 34.2178 57.1446 33.6927 57.1446 33.0449ZM54.4685 43.2333C54.4685 42.6939 54.0298 42.2552 53.4891 42.2552C52.9498 42.2552 52.5111 42.6939 52.5111 43.2333C52.5111 43.7739 52.9498 44.2127 53.4891 44.2127C54.0298 44.2127 54.4685 43.7739 54.4685 43.2333ZM51.7756 39.0127C51.7756 38.3507 51.2388 37.8139 50.5769 37.8139C49.9149 37.8139 49.3782 38.3507 49.3782 39.0127C49.3782 39.6759 49.9149 40.2127 50.5769 40.2127C51.2388 40.2127 51.7756 39.6759 51.7756 39.0127ZM48.1795 44.7069C48.1795 44.1959 47.764 43.7804 47.253 43.7804C46.7407 43.7804 46.3253 44.1959 46.3253 44.7069C46.3253 45.2191 46.7407 45.6346 47.253 45.6346C47.764 45.6346 48.1795 45.2191 48.1795 44.7069Z" fill="#FFC05A"/>
<path id="Vector_4" d="M17.9652 37.2171C19.3097 38.1797 20.7729 38.9758 22.2942 39.6184V39.6197C21.2516 43.879 17.0774 47.43 17.0774 47.43L16.6284 43.5345C15.2877 45.1603 14.009 46.3629 12.7897 47.2442C10.9742 48.5552 9.28774 49.1552 7.72 49.3784C4.74839 49.8042 2.2 48.879 0 48.879C0.869677 42.1526 4.55742 39.3216 4.55742 39.3216L1.02839 37.5564C1.02839 37.5564 2.65161 35.6003 5.81161 34.2597C7.85032 33.3939 10.529 32.7848 13.8245 33.1216C14.9742 34.7306 16.3871 36.0881 17.9652 37.2171ZM33.9961 41.8016C34.1303 41.7977 34.2619 41.7926 34.3935 41.7861C36.5832 41.6842 38.5497 41.3371 40.3123 40.7939C42.16 45.6352 40.8361 50.2519 40.8361 50.2519L37.6645 48.5784C37.4168 51.4855 36.3716 53.6558 35.1471 55.2377C33.0374 57.9629 30.3974 58.9435 30.3974 58.9435C29.2568 57.5552 28.5058 56.0481 28.0155 54.6016C26.7768 50.9487 27.2013 47.6803 27.2013 47.6803L23.9703 49.1784C23.9703 49.1784 23.8297 43.9332 27.9032 41.301C30.0155 41.7035 32.0981 41.8584 33.9961 41.8016Z" fill="#349370"/>
<path id="Vector_5" d="M53.2398 19.942C52.8062 17.742 48.254 17.0994 45.9521 18.0478C42.1185 15.1807 38.7392 9.46976 39.7869 7.92138C40.1882 7.32912 41.8875 6.83751 44.0359 6.68654C49.3933 6.30976 57.5417 8.05299 55.2862 15.6517C54.9121 16.9136 54.2501 18.3382 53.2398 19.942Z" fill="#F87D7D"/>
<path id="Vector_6" d="M53.2401 19.9421C53.7434 22.497 53.5175 25.9938 52.2466 29.4402C52.2466 29.4402 52.2466 29.4402 52.2453 29.4415C52.1163 29.475 45.5163 31.217 43.9072 23.1008C44.9408 21.6363 45.684 19.9176 45.9524 18.0479C48.2543 17.0996 52.8066 17.7421 53.2401 19.9421Z" fill="#FFA8A3"/>
<path id="Vector_7" d="M43.9068 23.1006C45.5158 31.2167 52.1158 29.4748 52.2448 29.4412C51.259 32.1148 49.6436 34.7587 47.2526 36.9122C47.2526 36.9122 47.2526 36.9122 47.2513 36.9122C47.1236 36.9199 38.4836 37.3561 41.0332 26.0296C42.1094 25.2438 43.0965 24.2503 43.9068 23.1006ZM22.2939 39.618C20.7726 38.9754 19.3094 38.1793 17.9648 37.2167C17.9661 37.2167 17.9661 37.2167 17.9661 37.2167C17.9468 32.7986 20.4823 24.2825 30.8629 25.2696C31.7623 26.7832 33.0461 27.6167 34.4939 27.8916C28.5403 35.4593 33.9958 41.8012 33.9958 41.8012C32.0977 41.858 30.0152 41.7032 27.9029 41.3006C26.0229 40.9432 24.1171 40.3909 22.2939 39.618Z" fill="#F87D7D"/>
<path id="Vector_8" d="M15.9845 19.7049C14.4309 19.8971 12.7251 20.2326 10.8516 20.7436C10.9199 20.0352 11.0116 19.35 11.1277 18.6868C12.8774 8.63779 19.8929 3.72811 25.7406 1.54102C27.8038 2.8494 33.0283 2.69495 34.4941 4.04979C46.1987 14.8627 36.8322 27.892 36.8322 27.892C36.0296 28.03 35.2399 28.0352 34.4941 27.892C33.0464 27.6171 31.7625 26.7836 30.8632 25.27C30.8632 25.27 28.0658 18.1978 15.9845 19.7049Z" fill="#F87D7D"/>
<path id="Vector_9" d="M41.0338 26.03C38.4841 37.3564 47.1241 36.9203 47.2518 36.9126C45.417 38.5642 43.1267 39.9281 40.3125 40.7939C38.5499 41.3371 36.5834 41.6842 34.3938 41.7861C34.2621 41.7926 34.1305 41.7977 33.9963 41.8016C33.9963 41.8016 28.5409 35.4597 34.4944 27.8919C35.2402 28.0352 36.0299 28.03 36.8325 27.8919C38.2518 27.6506 39.7086 26.9977 41.0338 26.03ZM15.9847 19.7048C28.066 18.1977 30.8634 25.27 30.8634 25.27C20.4828 24.2829 17.9473 32.799 17.9667 37.2171C17.9667 37.2171 17.9667 37.2171 17.9654 37.2171C16.3873 36.0881 14.9744 34.7306 13.8247 33.1216C11.5912 29.9977 10.3563 25.9255 10.8518 20.7435C12.7254 20.2326 14.4312 19.8971 15.9847 19.7048Z" fill="#FFA8A3"/>
<path id="Vector_10" d="M31.0112 5.5471C29.5454 4.19226 27.8035 2.84903 25.7402 1.54065C28.7931 0.39871 31.5273 0 33.028 0C36.3906 0 41.5028 2.59355 44.0331 6.63871L44.0357 6.68645C41.8873 6.83742 40.188 7.32903 39.7867 7.92129C38.7389 9.46968 42.1183 15.1806 45.9518 18.0477C45.6835 19.9174 44.9402 21.6361 43.9067 23.1006C43.0964 24.2503 42.1093 25.2439 41.0331 26.0297C39.708 26.9974 38.2512 27.6503 36.8318 27.8916C36.8318 27.8916 42.7157 16.36 31.0112 5.5471Z" fill="#FFA8A3"/>
<path id="Vector_11" d="M33.646 42.7443C33.375 42.6549 33.0835 42.8025 32.9944 43.0733C32.4719 44.6615 31.5633 47.8193 31.3482 51.1256C31.3297 51.4101 31.5452 51.6557 31.8297 51.6741C31.8411 51.6749 31.8524 51.6753 31.8638 51.6753C32.1336 51.6753 32.3606 51.4657 32.3784 51.1927C32.586 48.0003 33.4678 44.9375 33.975 43.3959C34.0641 43.1251 33.9167 42.8333 33.646 42.7443ZM16.3657 36.9169C14.6184 37.2428 11.3177 38.1304 8.8447 40.4146C8.63528 40.608 8.62225 40.9345 8.81567 41.1439C8.91748 41.2541 9.05593 41.3098 9.1949 41.3098C9.32019 41.3098 9.44574 41.2644 9.54496 41.1728C11.8278 39.0642 14.9167 38.2369 16.5548 37.9317C16.835 37.8794 17.0198 37.6098 16.9675 37.3296C16.9153 37.0493 16.6457 36.8651 16.3657 36.9169Z" fill="#4AAF8F"/>
</g>
<defs>
<clipPath id="clip0_248_2239">
<rect width="64" height="64" fill="white"/>
</clipPath>
</defs>
</svg>
