<svg width="64" height="39" viewBox="0 0 64 39" fill="none" xmlns="http://www.w3.org/2000/svg">
<path d="M8.11802 13.6067C8.11802 13.6067 -2.03649 23.895 0.368477 37.6573C1.4373 43.8033 16.0023 24.5638 33.6395 26.8352C51.2767 29.1066 56.4877 39.1281 61.9661 38.1925C67.4444 37.2569 62.6231 10.3059 37.1137 3.5862C20.5456 -0.556249 8.11802 13.6067 8.11802 13.6067Z" fill="#EE8028"/>
<path d="M3.26468 20.6182C1.53955 23.9553 -0.00284892 28.3646 3.95133e-06 33.4922C3.95133e-06 34.7869 1.90335 35.7201 4.45279 35.2152C6.66694 34.7481 10.7091 32.4414 12.5685 29.9979C14.4279 27.5544 12.7619 26.1711 11.891 25.4377C8.80672 22.9132 3.26468 20.6182 3.26468 20.6182Z" fill="#FD923B"/>
<path d="M53.0279 31.6614C56.2783 37.2915 63.2831 37.4374 63.6384 36.3819C64.4712 33.9102 63.9123 29.0951 61.5169 23.7969C61.5169 23.7978 49.7774 26.0323 53.0279 31.6614Z" fill="#FD923B"/>
<path d="M6.70667 20.2302C6.70667 20.2302 14.0511 23.8671 15.6322 28.2154C17.2133 32.5636 25.6734 30.034 25.9894 27.1085C26.3054 24.183 22.4312 10.9797 18.6364 6.7104C14.8416 2.44106 7.48868 11.8494 4.8796 15.1701C2.27052 18.4907 6.70667 20.2302 6.70667 20.2302Z" fill="#FFA03D"/>
<path d="M6.70667 20.2305C8.57715 20.9417 10.3812 21.8166 12.0978 22.8451C15.6072 24.9707 17.1456 29.2309 21.3249 27.1088C26.6219 23.7884 13.6825 5.9919 10.8912 8.46067C8.43821 10.6297 6.12212 13.5897 4.8796 15.1704C2.27052 18.4913 6.70667 20.2305 6.70667 20.2305Z" fill="#FFBB6D"/>
<path d="M33.8403 28.6708C26.4873 28.908 28.0492 28.2173 26.8621 22.3667C25.6749 16.5161 24.095 10.6655 21.0905 6.2379C18.086 1.8103 28.4563 0.62445 32.7916 0.62445C37.127 0.62445 43.4651 0.466312 42.042 6.2379C40.6189 12.0095 39.2863 21.2602 39.3538 25.3709C39.3139 28.9048 33.8403 28.6708 33.8403 28.6708Z" fill="#FFA03D"/>
<path d="M33.3874 25.6441C29.0693 25.7049 28.2077 20.6917 26.211 16.2174C24.3456 12.0379 22.5628 8.40665 21.0905 6.23741C18.086 1.80887 28.4563 0.623968 32.7917 0.623968C34.3448 0.589304 35.8986 0.647467 37.4448 0.798147C41.5368 1.07355 38.6716 7.78836 38.7391 11.8991C38.6991 15.4329 38.0954 25.6441 33.3874 25.6441Z" fill="#FFBB6D"/>
<path d="M44.1793 6.95142C44.1793 6.95142 40.6998 20.7083 40.5425 27.2704C40.3843 31.9351 47.8164 34.0698 49.4766 31.777C50.3126 30.4519 51.9034 26.4288 56.3009 24.0894C60.6983 21.75 63.1776 22.6394 61.4936 19.2229C59.8096 15.8064 54.2426 9.11793 48.6754 6.45135C44.6519 4.67489 44.1793 6.95142 44.1793 6.95142Z" fill="#FFA03D"/>
<path d="M43.0653 15.3101C42.2136 19.4324 39.9971 25.6131 43.6736 27.7166C48.6617 30.2102 50.4667 24.3999 54.8641 22.0605C59.2615 19.7211 62.4245 21.0018 61.4942 19.2231C59.8102 15.8078 54.2432 9.11813 48.676 6.45155C44.6523 4.67509 43.9929 10.8209 43.0653 15.3101Z" fill="#FFBB6D"/>
</svg>
