<svg width="64" height="64" viewBox="0 0 64 64" fill="none" xmlns="http://www.w3.org/2000/svg">
<g id="Food" clip-path="url(#clip0_248_1935)">
<path id="Vector" d="M61.7144 26.0831V53.5251L2.29199 64.0005V36.5584L24.2427 10.9894C24.2427 10.9894 57.671 8.47403 61.7144 26.0831Z" fill="#FFD8A4"/>
<path id="Vector_2" d="M2.29199 36.5575L61.7144 26.0821C61.7144 26.0821 61.7144 9.51308 24.2427 10.9885L2.29199 36.5575Z" fill="#80513B"/>
<path id="Vector_3" d="M61.7086 26.08L2.28613 36.552L4.32726 34.1863L58.7132 24.6046C58.7132 24.6046 54.9623 11.2367 24.2483 10.9933C61.7086 9.51902 61.7086 26.08 61.7086 26.08Z" fill="#683E2E"/>
<path id="Vector_4" d="M61.7144 44.0802L2.29199 54.703V47.2882L61.7144 36.6631V44.0802Z" fill="#FFF7EE"/>
<path id="Vector_5" d="M46.754 15.4491C47.9308 11.2082 45.4439 6.81549 41.1992 5.63761C36.9546 4.45973 32.5596 6.94275 31.3828 11.1836C30.206 15.4244 32.6929 19.8172 36.9376 20.995C41.1822 22.1729 45.5772 19.6899 46.754 15.4491Z" fill="#F42222"/>
<path id="Vector_6" d="M46.7552 15.4489C46.4091 16.6911 45.7668 17.8307 44.8834 18.77C44 19.7093 42.9018 20.4201 41.6832 20.8416C40.4645 21.2631 39.1618 21.3825 37.8869 21.1897C36.6119 20.9969 35.4028 20.4976 34.3633 19.7346C34.3999 19.7472 34.425 19.7598 34.4616 19.7723C35.47 20.0534 36.5239 20.133 37.563 20.0067C38.6022 19.8803 39.6063 19.5505 40.518 19.0359C41.4296 18.5214 42.231 17.8323 42.8762 17.008C43.5215 16.1837 43.9981 15.2403 44.2786 14.2318C44.7134 12.6722 44.6619 11.017 44.1309 9.48739C43.6 7.9578 42.6149 6.62668 41.3072 5.67188C43.3168 6.26036 45.0144 7.61542 46.0337 9.4446C47.0529 11.2738 47.3121 13.4304 46.7552 15.4489Z" fill="#C91C1C"/>
<path id="Vector_7" d="M40.4912 9.11213C40.4082 9.11181 40.3255 9.10028 40.2455 9.07785C40.1289 9.04746 40.0195 8.99426 39.9235 8.92132C39.8276 8.84838 39.747 8.75715 39.6866 8.65289C39.6261 8.54864 39.5869 8.43344 39.5712 8.31394C39.5555 8.19445 39.5637 8.07303 39.5952 7.95671C39.6798 7.65729 41.7209 0.608192 48.4089 0.00362447C48.6519 -0.0178559 48.8937 0.0567422 49.0823 0.211421C49.2709 0.3661 49.3915 0.588543 49.418 0.831048C49.4282 0.951375 49.4145 1.07253 49.3778 1.18756C49.3411 1.30259 49.282 1.40924 49.2039 1.5014C49.1259 1.59355 49.0304 1.6694 48.923 1.7246C48.8156 1.77979 48.6984 1.81324 48.578 1.82304C43.1575 2.31332 41.4044 8.37957 41.3872 8.44014C41.3316 8.63455 41.214 8.80545 41.0522 8.92677C40.8904 9.0481 40.6934 9.11319 40.4912 9.11213Z" fill="#58595B"/>
<path id="Vector_8" d="M5.68648 40.222C6.18858 40.222 6.59562 39.8217 6.59562 39.3278C6.59562 38.8339 6.18858 38.4336 5.68648 38.4336C5.18438 38.4336 4.77734 38.8339 4.77734 39.3278C4.77734 39.8217 5.18438 40.222 5.68648 40.222Z" fill="#E2BF93"/>
<path id="Vector_9" d="M17.2724 41.8382C17.7745 41.8382 18.1816 41.4379 18.1816 40.944C18.1816 40.4502 17.7745 40.0498 17.2724 40.0498C16.7703 40.0498 16.3633 40.4502 16.3633 40.944C16.3633 41.4379 16.7703 41.8382 17.2724 41.8382Z" fill="#E2BF93"/>
<path id="Vector_10" d="M27.9121 40.9447C28.4142 40.9447 28.8212 40.5443 28.8212 40.0505C28.8212 39.5566 28.4142 39.1562 27.9121 39.1562C27.41 39.1562 27.0029 39.5566 27.0029 40.0505C27.0029 40.5443 27.41 40.9447 27.9121 40.9447Z" fill="#E2BF93"/>
<path id="Vector_11" d="M12.5146 38.3265C13.0167 38.3265 13.4237 37.9262 13.4237 37.4323C13.4237 36.9384 13.0167 36.5381 12.5146 36.5381C12.0125 36.5381 11.6055 36.9384 11.6055 37.4323C11.6055 37.9262 12.0125 38.3265 12.5146 38.3265Z" fill="#E2BF93"/>
<path id="Vector_12" d="M35.7275 40.0502C36.2296 40.0502 36.6366 39.6498 36.6366 39.1559C36.6366 38.6621 36.2296 38.2617 35.7275 38.2617C35.2254 38.2617 34.8184 38.6621 34.8184 39.1559C34.8184 39.6498 35.2254 40.0502 35.7275 40.0502Z" fill="#E2BF93"/>
<path id="Vector_13" d="M48.4941 37.432C48.9962 37.432 49.4032 37.0316 49.4032 36.5378C49.4032 36.0439 48.9962 35.6436 48.4941 35.6436C47.992 35.6436 47.585 36.0439 47.585 36.5378C47.585 37.0316 47.992 37.432 48.4941 37.432Z" fill="#E2BF93"/>
<path id="Vector_14" d="M59.8671 29.9369C60.3692 29.9369 60.7763 29.5365 60.7763 29.0427C60.7763 28.5488 60.3692 28.1484 59.8671 28.1484C59.365 28.1484 58.958 28.5488 58.958 29.0427C58.958 29.5365 59.365 29.9369 59.8671 29.9369Z" fill="#E2BF93"/>
<path id="Vector_15" d="M39.0693 33.9515C39.5714 33.9515 39.9784 33.5512 39.9784 33.0573C39.9784 32.5634 39.5714 32.1631 39.0693 32.1631C38.5672 32.1631 38.1602 32.5634 38.1602 33.0573C38.1602 33.5512 38.5672 33.9515 39.0693 33.9515Z" fill="#E2BF93"/>
<path id="Vector_16" d="M55.205 36.2074C55.7071 36.2074 56.1142 35.807 56.1142 35.3132C56.1142 34.8193 55.7071 34.4189 55.205 34.4189C54.7029 34.4189 54.2959 34.8193 54.2959 35.3132C54.2959 35.807 54.7029 36.2074 55.205 36.2074Z" fill="#E2BF93"/>
<path id="Vector_17" d="M9.34201 44.0646C10.218 44.0646 10.9282 43.3661 10.9282 42.5045C10.9282 41.6428 10.218 40.9443 9.34201 40.9443C8.466 40.9443 7.75586 41.6428 7.75586 42.5045C7.75586 43.3661 8.466 44.0646 9.34201 44.0646Z" fill="#E2BF93"/>
<path id="Vector_18" d="M33.5881 36.5578C34.4641 36.5578 35.1743 35.8593 35.1743 34.9976C35.1743 34.136 34.4641 33.4375 33.5881 33.4375C32.7121 33.4375 32.002 34.136 32.002 34.9976C32.002 35.8593 32.7121 36.5578 33.5881 36.5578Z" fill="#E2BF93"/>
<path id="Vector_19" d="M46.0783 33.0578C46.9543 33.0578 47.6645 32.3593 47.6645 31.4976C47.6645 30.636 46.9543 29.9375 46.0783 29.9375C45.2023 29.9375 44.4922 30.636 44.4922 31.4976C44.4922 32.3593 45.2023 33.0578 46.0783 33.0578Z" fill="#E2BF93"/>
<path id="Vector_20" d="M21.1799 37.7863C22.0559 37.7863 22.7661 37.0878 22.7661 36.2261C22.7661 35.3645 22.0559 34.666 21.1799 34.666C20.3039 34.666 19.5938 35.3645 19.5938 36.2261C19.5938 37.0878 20.3039 37.7863 21.1799 37.7863Z" fill="#E2BF93"/>
<path id="Vector_21" d="M41.2971 38.4328C42.1731 38.4328 42.8832 37.7343 42.8832 36.8726C42.8832 36.011 42.1731 35.3125 41.2971 35.3125C40.4211 35.3125 39.7109 36.011 39.7109 36.8726C39.7109 37.7343 40.4211 38.4328 41.2971 38.4328Z" fill="#E2BF93"/>
<path id="Vector_22" d="M54.2951 32.4972C55.1711 32.4972 55.8813 31.7987 55.8813 30.9371C55.8813 30.0754 55.1711 29.377 54.2951 29.377C53.4191 29.377 52.709 30.0754 52.709 30.9371C52.709 31.7987 53.4191 32.4972 54.2951 32.4972Z" fill="#E2BF93"/>
<path id="Vector_23" d="M6.41334 60.1559C6.32918 59.9314 6.1602 59.7489 5.9428 59.6478C5.7254 59.5467 5.47698 59.535 5.25107 59.6153C5.13951 59.6536 5.03668 59.7137 4.94852 59.7921C4.86037 59.8705 4.78864 59.9656 4.73751 60.0719C4.68638 60.1782 4.65686 60.2936 4.65065 60.4114C4.64444 60.5292 4.66168 60.6471 4.70135 60.7581C4.78551 60.9826 4.9545 61.1651 5.1719 61.2662C5.3893 61.3673 5.63771 61.379 5.86363 61.2987C5.97508 61.2602 6.0778 61.2001 6.16583 61.1216C6.25386 61.0432 6.32546 60.9481 6.37648 60.8418C6.4275 60.7355 6.45693 60.6201 6.46306 60.5024C6.46919 60.3847 6.4519 60.2669 6.4122 60.1559H6.41334Z" fill="#E2BF93"/>
<path id="Vector_24" d="M16.7708 54.7955C16.6868 54.5708 16.5179 54.3881 16.3005 54.2868C16.0831 54.1854 15.8346 54.1736 15.6085 54.2538C15.4969 54.2922 15.3941 54.3523 15.3059 54.4307C15.2178 54.509 15.1461 54.6041 15.0949 54.7104C15.0438 54.8167 15.0143 54.9321 15.0081 55.0499C15.0019 55.1677 15.0191 55.2856 15.0588 55.3967C15.1427 55.6211 15.3114 55.8036 15.5286 55.905C15.7457 56.0063 15.994 56.0183 16.2199 55.9384C16.3316 55.9002 16.4345 55.8401 16.5228 55.7618C16.6111 55.6835 16.6829 55.5884 16.7342 55.4821C16.7854 55.3758 16.815 55.2603 16.8213 55.1425C16.8276 55.0246 16.8104 54.9067 16.7708 54.7955Z" fill="#E2BF93"/>
<path id="Vector_25" d="M27.093 52.1139C27.0089 51.8894 26.8399 51.7069 26.6225 51.6058C26.4051 51.5047 26.1567 51.493 25.9308 51.5733C25.8192 51.6116 25.7164 51.6717 25.6282 51.7501C25.5401 51.8285 25.4683 51.9236 25.4172 52.0299C25.3661 52.1362 25.3365 52.2516 25.3303 52.3694C25.3241 52.4872 25.3414 52.6051 25.381 52.7161C25.4652 52.9407 25.6342 53.1231 25.8516 53.2242C26.069 53.3253 26.3174 53.337 26.5433 53.2567C26.6548 53.2183 26.7575 53.1581 26.8455 53.0796C26.9335 53.0012 27.0051 52.9061 27.0562 52.7998C27.1072 52.6935 27.1366 52.5782 27.1427 52.4604C27.1489 52.3427 27.1316 52.2249 27.0919 52.1139H27.093Z" fill="#E2BF93"/>
<path id="Vector_26" d="M13.4924 59.6793C13.4085 59.4546 13.2396 59.2719 13.0222 59.1705C12.8047 59.0692 12.5562 59.0574 12.3301 59.1376C12.2187 59.1761 12.116 59.2363 12.0279 59.3147C11.9399 59.3931 11.8683 59.4882 11.8173 59.5945C11.7663 59.7008 11.7368 59.8162 11.7307 59.9339C11.7246 60.0517 11.7419 60.1695 11.7816 60.2805C11.8655 60.5049 12.0342 60.6874 12.2514 60.7887C12.4685 60.8901 12.7168 60.9021 12.9427 60.8222C13.0542 60.7838 13.1571 60.7237 13.2452 60.6453C13.3334 60.567 13.4051 60.4719 13.4562 60.3656C13.5074 60.2593 13.5369 60.1439 13.5431 60.0261C13.5493 59.9083 13.5321 59.7904 13.4924 59.6793Z" fill="#E2BF93"/>
<path id="Vector_27" d="M34.759 50.3677C34.5899 49.9026 34.0699 49.6603 33.5967 49.8272C33.1236 49.994 32.8779 50.5049 33.0482 50.97C33.2184 51.4351 33.7362 51.6774 34.2093 51.5106C34.3208 51.4722 34.4237 51.4121 34.5118 51.3337C34.6 51.2554 34.6717 51.1603 34.7228 51.054C34.774 50.9477 34.8035 50.8323 34.8097 50.7145C34.8159 50.5967 34.7987 50.4788 34.759 50.3677Z" fill="#E2BF93"/>
<path id="Vector_28" d="M47.6751 48.6041C47.5909 48.3796 47.4219 48.1971 47.2045 48.096C46.9871 47.9949 46.7387 47.9832 46.5128 48.0635C46.4012 48.1019 46.2984 48.162 46.2102 48.2404C46.1221 48.3187 46.0504 48.4138 45.9992 48.5201C45.9481 48.6264 45.9186 48.7418 45.9124 48.8596C45.9062 48.9774 45.9234 49.0953 45.9631 49.2064C46.0472 49.4309 46.2162 49.6134 46.4336 49.7145C46.651 49.8156 46.8994 49.8272 47.1254 49.7469C47.2369 49.7086 47.3397 49.6485 47.4279 49.5701C47.5161 49.4917 47.5878 49.3966 47.6389 49.2903C47.69 49.184 47.7196 49.0686 47.7258 48.9508C47.732 48.833 47.7147 48.7152 47.6751 48.6041Z" fill="#E2BF93"/>
<path id="Vector_29" d="M60.0413 49.4742C59.9573 49.2495 59.7884 49.0668 59.571 48.9655C59.3536 48.8641 59.1051 48.8523 58.879 48.9325C58.7674 48.9709 58.6646 49.031 58.5764 49.1094C58.4883 49.1877 58.4166 49.2828 58.3654 49.3891C58.3143 49.4955 58.2848 49.6108 58.2786 49.7286C58.2724 49.8464 58.2896 49.9643 58.3293 50.0754C58.4134 50.2999 58.5824 50.4824 58.7998 50.5835C59.0172 50.6846 59.2656 50.6962 59.4916 50.616C59.603 50.5775 59.7057 50.5173 59.7938 50.4389C59.8818 50.3604 59.9534 50.2653 60.0044 50.159C60.0554 50.0528 60.0849 49.9374 60.091 49.8197C60.0971 49.7019 60.0798 49.5841 60.0401 49.4731L60.0413 49.4742Z" fill="#E2BF93"/>
<path id="Vector_30" d="M39.9918 55.0032C39.9077 54.7789 39.7389 54.5967 39.5218 54.4956C39.3046 54.3945 39.0565 54.3826 38.8307 54.4626C38.3576 54.6294 38.1107 55.1403 38.2799 55.6054C38.449 56.0706 38.9701 56.314 39.4421 56.1472C39.5537 56.1088 39.6565 56.0487 39.7447 55.9703C39.8328 55.8919 39.9046 55.7968 39.9557 55.6905C40.0068 55.5842 40.0363 55.4688 40.0426 55.351C40.0488 55.2332 40.0315 55.1154 39.9918 55.0043V55.0032Z" fill="#E2BF93"/>
<path id="Vector_31" d="M54.4143 47.5347C54.2451 47.0696 53.7251 46.8273 53.252 46.9941C52.7789 47.161 52.5331 47.6719 52.7034 48.137C52.7876 48.3612 52.9564 48.5435 53.1735 48.6446C53.3907 48.7457 53.6388 48.7575 53.8646 48.6776C53.9761 48.6392 54.079 48.5791 54.1671 48.5007C54.2553 48.4223 54.327 48.3273 54.3781 48.2209C54.4292 48.1146 54.4588 47.9993 54.465 47.8815C54.4712 47.7637 54.454 47.6458 54.4143 47.5347Z" fill="#E2BF93"/>
<path id="Vector_32" d="M9.40558 55.7288C9.25912 55.3369 8.9644 55.0183 8.58506 54.8419C8.20572 54.6655 7.77221 54.6454 7.37816 54.7859C6.55303 55.0762 6.12332 55.9688 6.41817 56.7802C6.71303 57.5916 7.62159 58.0145 8.44559 57.723C8.64042 57.6563 8.82005 57.5516 8.97405 57.4149C9.12806 57.2782 9.25336 57.1122 9.34268 56.9267C9.43199 56.7411 9.48355 56.5397 9.49435 56.334C9.50515 56.1284 9.47497 55.9226 9.40558 55.7288Z" fill="#E2BF93"/>
<path id="Vector_33" d="M32.5823 54.7795C32.4359 54.3877 32.1412 54.0691 31.7618 53.8927C31.3825 53.7163 30.949 53.6962 30.5549 53.8367C29.7298 54.1258 29.3001 55.0195 29.5949 55.831C29.8898 56.6424 30.7983 57.0652 31.6235 56.7738C31.8183 56.7071 31.998 56.6024 32.152 56.4657C32.306 56.329 32.4313 56.163 32.5206 55.9775C32.6099 55.7919 32.6615 55.5905 32.6723 55.3848C32.6831 55.1792 32.6529 54.9734 32.5835 54.7795H32.5823Z" fill="#E2BF93"/>
<path id="Vector_34" d="M46.9545 53.2192C46.6597 52.4077 45.7511 51.9849 44.926 52.2752C44.1008 52.5654 43.6723 53.458 43.9671 54.2694C44.262 55.0809 45.1694 55.5037 45.9945 55.2134C46.1894 55.1467 46.369 55.042 46.523 54.9053C46.677 54.7686 46.8023 54.6026 46.8916 54.4171C46.981 54.2315 47.0325 54.0301 47.0433 53.8244C47.0541 53.6188 47.0239 53.413 46.9545 53.2192Z" fill="#E2BF93"/>
<path id="Vector_35" d="M23.2176 57.3723C23.0712 56.9804 22.7764 56.6619 22.3971 56.4855C22.0178 56.3091 21.5843 56.289 21.1902 56.4295C20.3651 56.7198 19.9365 57.6123 20.2302 58.4237C20.5239 59.2352 21.4336 59.658 22.2588 59.3677C22.4537 59.301 22.6335 59.1963 22.7876 59.0595C22.9417 58.9227 23.067 58.7566 23.1564 58.5709C23.2457 58.3853 23.2972 58.1837 23.3079 57.9779C23.3187 57.7721 23.2872 57.5663 23.2176 57.3723Z" fill="#E2BF93"/>
<path id="Vector_36" d="M41.423 50.4481C41.1282 49.6367 40.2196 49.2138 39.3956 49.5052C38.5716 49.7967 38.1408 50.6881 38.4356 51.4995C38.5821 51.8914 38.8768 52.2099 39.2561 52.3863C39.6355 52.5628 40.069 52.5829 40.463 52.4424C40.6579 52.3757 40.8375 52.2709 40.9915 52.1342C41.1455 51.9975 41.2708 51.8316 41.3601 51.646C41.4495 51.4605 41.501 51.259 41.5118 51.0534C41.5226 50.8477 41.4924 50.642 41.423 50.4481Z" fill="#E2BF93"/>
<path id="Vector_37" d="M55.6945 51.7327C55.5483 51.3406 55.2537 51.0218 54.8743 50.8452C54.4949 50.6685 54.0613 50.6483 53.6671 50.7887C53.4723 50.8554 53.2927 50.9601 53.1386 51.0969C52.9846 51.2336 52.8593 51.3995 52.77 51.5851C52.6807 51.7706 52.6291 51.9721 52.6183 52.1777C52.6076 52.3834 52.6377 52.5891 52.7071 52.783C53.002 53.5944 53.9105 54.0173 54.7345 53.727C55.5585 53.4367 55.9894 52.5441 55.6945 51.7327Z" fill="#E2BF93"/>
<path id="Vector_38" d="M35.727 12.2602C36.8674 12.2602 37.7919 11.3509 37.7919 10.2292C37.7919 9.10755 36.8674 8.19824 35.727 8.19824C34.5866 8.19824 33.6621 9.10755 33.6621 10.2292C33.6621 11.3509 34.5866 12.2602 35.727 12.2602Z" fill="#FFC5C5"/>
</g>
<defs>
<clipPath id="clip0_248_1935">
<rect width="64" height="64" fill="white"/>
</clipPath>
</defs>
</svg>
