<svg width="64" height="64" viewBox="0 0 64 64" fill="none" xmlns="http://www.w3.org/2000/svg">
<g id="Food">
<path id="Vector" d="M17.9621 5.59798C12.8201 5.79798 8.81406 10.181 9.01506 15.387C9.07807 17.1512 9.63465 18.8623 10.6216 20.326C11.6085 21.7897 12.9862 22.9472 14.5981 23.667L18.6901 24.447C19.9436 24.3995 21.1742 24.0959 22.3061 23.555C23.5029 22.9785 24.5644 22.1555 25.4208 21.1399C26.2771 20.1243 26.9091 18.939 27.2751 17.662C27.5481 16.712 27.6761 15.702 27.6361 14.658C27.4361 9.45298 23.1041 5.39698 17.9621 5.59798Z" fill="#EDFFC0"/>
<path id="Vector_2" d="M18.6899 24.9576C18.6227 24.9589 18.556 24.947 18.4934 24.9225C18.4308 24.898 18.3737 24.8614 18.3253 24.8149C18.2275 24.7208 18.1711 24.5918 18.1684 24.4561C18.1658 24.3205 18.2171 24.1893 18.3112 24.0915C18.4052 23.9937 18.5343 23.9373 18.6699 23.9346C19.855 23.8909 21.0184 23.6039 22.0879 23.0916C23.2201 22.5472 24.2242 21.7692 25.0341 20.8088C25.844 19.8485 26.4414 18.7275 26.7869 17.5196C27.0511 16.5965 27.1662 15.6371 27.1279 14.6776C27.0457 12.3179 26.0308 10.087 24.3059 8.47462C23.4636 7.67709 22.4698 7.05675 21.3833 6.65033C20.2968 6.24392 19.1399 6.05971 17.9809 6.10862C16.8218 6.15194 15.683 6.42667 14.6317 6.91663C13.5803 7.40659 12.6376 8.10189 11.8589 8.96162C10.2631 10.7032 9.42339 13.0067 9.52391 15.3666C9.65391 18.7616 11.7269 21.8356 14.8029 23.1976C14.9266 23.253 15.0234 23.355 15.0721 23.4815C15.1208 23.608 15.1175 23.7486 15.0629 23.8726C15.0087 23.9962 14.9078 24.0931 14.7821 24.1423C14.6565 24.1914 14.5165 24.1886 14.3929 24.1346C10.9629 22.6146 8.65291 19.1886 8.50791 15.4056C8.39672 12.7763 9.33241 10.2102 11.1099 8.26962C11.9787 7.31055 13.0305 6.53489 14.2034 5.98826C15.3764 5.44163 16.6468 5.13508 17.9399 5.08662C19.233 5.03241 20.5238 5.23812 21.7359 5.69158C22.9481 6.14504 24.0569 6.83704 24.9969 7.72662C26.9195 9.52282 28.0512 12.0082 28.1439 14.6376C28.1857 15.7065 28.0567 16.7753 27.7619 17.8036C27.3767 19.1502 26.7107 20.4 25.8077 21.4707C24.9047 22.5414 23.7852 23.4087 22.5229 24.0156C21.3294 24.5873 20.0313 24.9079 18.7089 24.9576H18.6889H18.6899Z" fill="#4DA818"/>
<path id="Vector_3" d="M18.3497 13.6129C18.179 13.6188 18.0122 13.5609 17.8818 13.4506C17.7515 13.3402 17.6669 13.1852 17.6447 13.0159L16.2697 8.01786C16.256 7.92266 16.2625 7.82567 16.2885 7.7331C16.3146 7.64052 16.3597 7.55443 16.421 7.48032C16.4823 7.40622 16.5584 7.34575 16.6445 7.30279C16.7305 7.25983 16.8246 7.23533 16.9207 7.23086L19.1247 7.14486C19.2189 7.14194 19.3127 7.15837 19.4003 7.19314C19.4878 7.22791 19.5674 7.28028 19.6339 7.34702C19.7005 7.41376 19.7526 7.49344 19.7872 7.58113C19.8217 7.66883 19.8378 7.76267 19.8347 7.85686L19.0067 12.9409C19.0028 13.1153 18.9328 13.2818 18.8108 13.4065C18.6888 13.5313 18.524 13.605 18.3497 13.6129Z" fill="#9BC622"/>
<path id="Vector_4" d="M17.3585 14.0084C17.2441 14.1344 17.0865 14.2128 16.917 14.228C16.7475 14.2432 16.5784 14.1941 16.4435 14.0904L11.9805 11.5384C11.9042 11.4795 11.8409 11.4054 11.7946 11.3209C11.7484 11.2363 11.7201 11.1431 11.7117 11.0471C11.7032 10.9511 11.7147 10.8544 11.7455 10.763C11.7763 10.6717 11.8256 10.5877 11.8905 10.5164L13.3885 8.87739C13.4517 8.80785 13.5287 8.7522 13.6146 8.71397C13.7005 8.67574 13.7934 8.65575 13.8874 8.65528C13.9814 8.65481 14.0744 8.67387 14.1607 8.71124C14.247 8.74861 14.3245 8.80349 14.3885 8.87239L17.3535 13.0624C17.6015 13.3274 17.6035 13.7414 17.3585 14.0084Z" fill="#9BC622"/>
<path id="Vector_5" d="M16.9327 14.9974C16.9402 15.1682 16.884 15.3358 16.775 15.4675C16.666 15.5992 16.512 15.6858 16.3427 15.7104L11.4067 17.1004C11.3114 17.1132 11.2145 17.1058 11.1222 17.0788C11.0299 17.0517 10.9443 17.0056 10.871 16.9434C10.7977 16.8812 10.7382 16.8043 10.6965 16.7176C10.6547 16.631 10.6317 16.5365 10.6287 16.4404L10.5427 14.2104C10.5383 14.1161 10.5534 14.022 10.5869 13.9337C10.6204 13.8455 10.6718 13.7651 10.7377 13.6976C10.8037 13.6301 10.8828 13.5768 10.9702 13.5412C11.0576 13.5055 11.1514 13.4883 11.2457 13.4904L16.2687 14.3324C16.6287 14.3424 16.9187 14.6334 16.9327 14.9974Z" fill="#9BC622"/>
<path id="Vector_6" d="M17.3243 16.0009C17.4493 16.1185 17.5266 16.278 17.5415 16.4489C17.5565 16.6199 17.508 16.7904 17.4053 16.9279L14.8873 21.4439C14.8302 21.5207 14.7575 21.5847 14.674 21.6315C14.5904 21.6782 14.4979 21.7068 14.4025 21.7153C14.3071 21.7238 14.211 21.712 14.1205 21.6808C14.03 21.6495 13.9471 21.5994 13.8773 21.5339L12.2573 20.0179C12.1885 19.9529 12.1336 19.8747 12.0959 19.7879C12.0582 19.7011 12.0386 19.6076 12.0381 19.5129C12.0376 19.4183 12.0564 19.3246 12.0932 19.2374C12.13 19.1503 12.1842 19.0715 12.2523 19.0059L16.3893 16.0059C16.5148 15.8852 16.6818 15.8173 16.8558 15.8164C17.0299 15.8155 17.1976 15.8815 17.3243 16.0009Z" fill="#9BC622"/>
<path id="Vector_7" d="M18.3008 16.4321C18.4715 16.4261 18.6383 16.484 18.7687 16.5944C18.899 16.7047 18.9836 16.8597 19.0058 17.0291L20.3808 22.0271C20.3944 22.1223 20.388 22.2193 20.362 22.3118C20.3359 22.4044 20.2908 22.4905 20.2295 22.5646C20.1682 22.6387 20.092 22.6992 20.006 22.7421C19.92 22.7851 19.8259 22.8096 19.7298 22.8141L17.5258 22.9001C17.4316 22.903 17.3378 22.8866 17.2502 22.8518C17.1626 22.817 17.0831 22.7646 17.0165 22.6979C16.95 22.6312 16.8979 22.5515 16.8633 22.4638C16.8288 22.3761 16.8126 22.2822 16.8158 22.1881L17.6438 17.1041C17.6477 16.9296 17.7177 16.7632 17.8397 16.6384C17.9617 16.5136 18.1265 16.4399 18.3008 16.4321Z" fill="#9BC622"/>
<path id="Vector_8" d="M19.2932 16.0368C19.4076 15.9107 19.5652 15.8324 19.7347 15.8172C19.9042 15.802 20.0732 15.8511 20.2082 15.9548L24.6712 18.5058C24.7476 18.5646 24.811 18.6388 24.8574 18.7234C24.9038 18.808 24.9321 18.9014 24.9405 18.9975C24.949 19.0936 24.9374 19.1905 24.9065 19.2819C24.8757 19.3734 24.8262 19.4574 24.7612 19.5287L23.2642 21.1677C23.2009 21.2373 23.1239 21.2929 23.038 21.3312C22.9522 21.3694 22.8593 21.3894 22.7653 21.3899C22.6713 21.3903 22.5782 21.3713 22.4919 21.3339C22.4057 21.2965 22.3281 21.2417 22.2642 21.1728L19.2982 16.9828C19.1789 16.8544 19.1123 16.6859 19.1113 16.5107C19.1104 16.3355 19.1753 16.1664 19.2932 16.0368Z" fill="#9BC622"/>
<path id="Vector_9" d="M19.7184 15.0481C19.711 14.8773 19.7672 14.7098 19.8762 14.578C19.9852 14.4463 20.1392 14.3597 20.3084 14.3351L25.2454 12.9451C25.6454 12.8891 26.0074 13.1951 26.0224 13.6051L26.1094 15.8351C26.1244 16.2351 25.8014 16.5651 25.4054 16.5551L20.3834 15.7131C20.209 15.7071 20.0433 15.6351 19.9198 15.5117C19.7964 15.3883 19.7244 15.2226 19.7184 15.0481Z" fill="#9BC622"/>
<path id="Vector_10" d="M19.3267 14.0443C19.2019 13.9265 19.1248 13.767 19.11 13.596C19.0953 13.4251 19.1439 13.2547 19.2467 13.1173L21.7637 8.6003C21.8208 8.52343 21.8935 8.4595 21.977 8.41271C22.0606 8.36593 22.1531 8.33735 22.2485 8.32885C22.3439 8.32035 22.44 8.33212 22.5305 8.3634C22.621 8.39467 22.7039 8.44473 22.7737 8.5103L24.3937 10.0273C24.6837 10.2993 24.6857 10.7633 24.3987 11.0393L20.2607 14.0393C20.1352 14.16 19.9682 14.2278 19.7942 14.2288C19.6201 14.2297 19.4534 14.1636 19.3267 14.0443Z" fill="#9BC622"/>
<path id="Vector_11" d="M32.9319 43.9888C32.8138 43.988 32.6974 43.9599 32.5919 43.9068C32.4864 43.8536 32.3946 43.7768 32.3236 43.6824C32.2527 43.5879 32.2045 43.4783 32.1829 43.3622C32.1613 43.246 32.1668 43.1264 32.199 43.0128L42.866 5.14476L54.666 4.00476C55.074 3.95176 55.4559 4.27276 55.4959 4.69576C55.5059 4.79563 55.4961 4.89649 55.467 4.99257C55.438 5.08864 55.3903 5.17805 55.3267 5.25569C55.2631 5.33332 55.1848 5.39767 55.0963 5.44503C55.0078 5.4924 54.9108 5.52187 54.811 5.53176L44.0489 6.57076L33.665 43.4298C33.6203 43.5899 33.5245 43.7311 33.3922 43.8319C33.2598 43.9326 33.0982 43.9883 32.9319 43.9888Z" fill="#F42222"/>
<path id="Vector_12" d="M41.92 12.6002C41.7229 12.5992 41.5287 12.5526 41.3526 12.4641C41.1765 12.3756 41.0233 12.2476 40.9049 12.0901C40.7864 11.9325 40.7061 11.7497 40.67 11.556C40.634 11.3622 40.6432 11.1627 40.697 10.9732L42.034 6.22316C42.1591 5.76563 42.4205 5.35702 42.7835 5.05173C43.1465 4.74643 43.5938 4.55893 44.066 4.51416L48.868 4.05116C49.199 4.03117 49.5248 4.14049 49.7767 4.35608C50.0286 4.57167 50.187 4.87667 50.2184 5.20676C50.2498 5.53685 50.1517 5.86623 49.945 6.12543C49.7382 6.38464 49.4388 6.55341 49.11 6.59616L44.443 7.04616L43.14 11.6712C43.0659 11.938 42.9065 12.1733 42.6863 12.3412C42.466 12.5091 42.197 12.5994 41.92 12.6002Z" fill="#FF5050"/>
<path id="Vector_13" opacity="0.5" d="M47.9237 39.1156C44.9057 44.3216 39.3267 47.8196 32.9337 47.8196C26.5427 47.8196 20.9537 44.3216 17.9457 39.1156C15.9537 35.6686 15.3747 31.5776 15.9737 27.6396L16.3297 25.2566L17.8847 15.0186H47.9747L49.8647 27.4246L49.8947 27.6396C50.4947 31.5776 49.9047 35.6696 47.9237 39.1156Z" fill="#96E1EB"/>
<path id="Vector_14" d="M50.395 27.5649L48.412 14.5049H17.453L15.468 27.5649C14.825 31.7959 15.548 35.9889 17.507 39.3699C20.53 44.5969 25.985 47.9459 31.917 48.2919L31.916 56.2639C27.176 56.4659 23.482 58.0609 23.482 59.9999H42.382C42.382 58.0609 38.689 56.4659 33.948 56.2639V48.2919C39.879 47.9459 45.335 44.5969 48.358 39.3699C50.316 35.9879 51.039 31.7959 50.395 27.5649ZM47.481 38.8549C44.465 44.0669 38.891 47.3039 32.931 47.3039C26.971 47.3039 21.401 44.0669 18.384 38.8539C16.544 35.6759 15.864 31.7199 16.473 27.7189L18.327 15.5289H47.538L49.391 27.7199C49.999 31.7199 49.321 35.6749 47.481 38.8549Z" fill="#96E1EB"/>
<path id="Vector_15" d="M47.5316 38.8921C44.6756 43.6121 38.9796 47.3041 32.9316 47.3041C26.8836 47.3041 21.4836 44.1171 18.6376 39.3971C16.7526 36.2721 15.7566 32.5451 16.3236 28.9751L16.6086 26.8221C21.7436 26.8591 22.8206 28.3021 28.0516 28.3021C33.3396 28.3021 33.3396 26.3271 38.6276 26.3271C43.9156 26.3271 43.9156 28.3021 49.2046 28.3021L49.4646 28.2821L49.4946 28.4761C50.0606 32.0461 49.4066 35.7661 47.5316 38.8921Z" fill="#FF9900"/>
<path id="Vector_16" d="M47.5278 38.8904C44.6718 43.6164 38.9818 47.3094 32.9348 47.3094C27.7518 47.3094 23.0368 44.9664 20.0088 41.3154C23.0637 43.8693 26.9199 45.2669 30.9018 45.2634C36.9488 45.2634 42.6398 41.5714 45.4958 36.8454C47.0608 34.2474 47.7718 31.2304 47.6498 28.2334C48.1068 28.2854 48.6258 28.3054 49.2048 28.3054L49.4688 28.2854L49.4888 28.4794C50.0588 32.0494 49.4088 35.7714 47.5288 38.8914L47.5278 38.8904Z" fill="#F97700"/>
<path id="Vector_17" d="M29.741 57.8269C28.8744 57.9023 28.029 58.1361 27.247 58.5169C26.994 58.6419 26.667 58.6069 26.481 58.4259C26.296 58.2459 26.356 57.9609 26.657 57.8079C27.5525 57.3594 28.5218 57.0762 29.518 56.9719C29.898 56.9289 30.261 57.118 30.294 57.359C30.328 57.599 30.066 57.7969 29.741 57.8269Z" fill="white"/>
<path id="Vector_18" d="M19.5732 29.7657C19.8304 29.7657 20.039 29.5558 20.039 29.2969C20.039 29.038 19.8304 28.8281 19.5732 28.8281C19.316 28.8281 19.1074 29.038 19.1074 29.2969C19.1074 29.5558 19.316 29.7657 19.5732 29.7657Z" fill="#FFF3B6"/>
<path id="Vector_19" d="M22.0273 39.3975C22.2845 39.3975 22.4931 39.1876 22.4931 38.9287C22.4931 38.6698 22.2845 38.46 22.0273 38.46C21.7701 38.46 21.5615 38.6698 21.5615 38.9287C21.5615 39.1876 21.7701 39.3975 22.0273 39.3975Z" fill="#FFF3B6"/>
<path id="Vector_20" d="M24.1044 30.7032C24.3617 30.7032 24.5702 30.4933 24.5702 30.2344C24.5702 29.9755 24.3617 29.7656 24.1044 29.7656C23.8472 29.7656 23.6387 29.9755 23.6387 30.2344C23.6387 30.4933 23.8472 30.7032 24.1044 30.7032Z" fill="#FFF3B6"/>
<path id="Vector_21" d="M23.6386 33.6436C23.8959 33.6436 24.1044 33.4337 24.1044 33.1748C24.1044 32.9159 23.8959 32.7061 23.6386 32.7061C23.3814 32.7061 23.1729 32.9159 23.1729 33.1748C23.1729 33.4337 23.3814 33.6436 23.6386 33.6436Z" fill="#FFF3B6"/>
<path id="Vector_22" d="M27.1777 41.5704C27.4349 41.5704 27.6435 41.3605 27.6435 41.1016C27.6435 40.8427 27.4349 40.6328 27.1777 40.6328C26.9204 40.6328 26.7119 40.8427 26.7119 41.1016C26.7119 41.3605 26.9204 41.5704 27.1777 41.5704Z" fill="#FFF3B6"/>
<path id="Vector_23" d="M28.5654 32.4337C28.8226 32.4337 29.0312 32.2238 29.0312 31.9649C29.0312 31.706 28.8226 31.4961 28.5654 31.4961C28.3081 31.4961 28.0996 31.706 28.0996 31.9649C28.0996 32.2238 28.3081 32.4337 28.5654 32.4337Z" fill="#FFF3B6"/>
<path id="Vector_24" d="M21.1242 32.4328C21.531 32.4328 21.8608 32.1009 21.8608 31.6915C21.8608 31.2821 21.531 30.9502 21.1242 30.9502C20.7175 30.9502 20.3877 31.2821 20.3877 31.6915C20.3877 32.1009 20.7175 32.4328 21.1242 32.4328Z" fill="#FFF3B6"/>
<path id="Vector_25" d="M24.6135 37.5568C25.0203 37.5568 25.35 37.2249 25.35 36.8155C25.35 36.4061 25.0203 36.0742 24.6135 36.0742C24.2067 36.0742 23.877 36.4061 23.877 36.8155C23.877 37.2249 24.2067 37.5568 24.6135 37.5568Z" fill="#FFF3B6"/>
<path id="Vector_26" d="M19.5734 35.5871C19.9802 35.5871 20.31 35.2552 20.31 34.8458C20.31 34.4364 19.9802 34.1045 19.5734 34.1045C19.1667 34.1045 18.8369 34.4364 18.8369 34.8458C18.8369 35.2552 19.1667 35.5871 19.5734 35.5871Z" fill="#FFF3B6"/>
<path id="Vector_27" d="M28.0998 35.5871C28.5066 35.5871 28.8363 35.2552 28.8363 34.8458C28.8363 34.4364 28.5066 34.1045 28.0998 34.1045C27.693 34.1045 27.3633 34.4364 27.3633 34.8458C27.3633 35.2552 27.693 35.5871 28.0998 35.5871Z" fill="#FFF3B6"/>
</g>
</svg>
