<svg width="64" height="64" viewBox="0 0 64 64" fill="none" xmlns="http://www.w3.org/2000/svg">
<g id="Coffee With Croissant">
<g id="Delicious bread and coffee">
<path id="Ellipse 1614" d="M32.0716 53.226C49.7022 53.226 63.9947 47.3144 63.9947 40.0222C63.9947 32.7299 49.7022 26.8184 32.0716 26.8184C14.4409 26.8184 0.148438 32.7299 0.148438 40.0222C0.148438 47.3144 14.4409 53.226 32.0716 53.226Z" fill="#BDE6E6"/>
<g id="Group 12720">
<path id="Path 14366" d="M46.6647 33.4746L47.5647 37.9744C47.5647 37.9744 38 40.5 29.4365 37.9744L30.9794 33.4746H46.6647Z" fill="#E33F1B"/>
<path id="Path 14365" d="M53.632 15.6905C53.632 15.6905 60.4864 13.5533 63.038 17.9727C65.5896 22.3921 62.3761 26.7109 61.2831 27.8042C60.19 28.8974 57.6921 30.6455 51.8398 31.3208L52.4483 30.088C52.4483 30.088 61.1092 28.45 60.8166 22.1877C60.5239 15.9254 53.632 18.6765 53.632 18.6765V15.6905Z" fill="#E33F1B"/>
<g id="Group 12719">
<path id="Path 14363" d="M55.5142 13.3376C56.2623 15.2935 56.6442 17.3704 56.6409 19.4645C56.6409 29.0645 48.7463 36.8467 39.0079 36.8467C29.2695 36.8467 21.375 29.0645 21.375 19.4645C21.3737 17.3571 21.7604 15.2676 22.5159 13.3003L55.5142 13.3376Z" fill="#E33F1B"/>
<path id="Path 14364" d="M50.3279 19.1273C50.3279 28.7273 45.6982 34.4944 37.3192 34.4944C28.9401 34.4944 21.375 29.0645 21.375 19.4645C21.3737 17.3571 21.7604 15.2676 22.5159 13.3003C22.5159 13.3003 23.745 16.7767 35.8736 16.8449C43.436 16.8451 50.178 15.1729 50.3279 19.1273Z" fill="#FF4B23"/>
</g>
<path id="Ellipse 1613" d="M39.0913 15.9547C48.1374 15.9547 55.4707 14.7948 55.4707 13.3641C55.4707 11.9333 48.1374 10.7734 39.0913 10.7734C30.0452 10.7734 22.7119 11.9333 22.7119 13.3641C22.7119 14.7948 30.0452 15.9547 39.0913 15.9547Z" fill="#E5E5E5"/>
<g id="Group 12718">
<path id="Ellipse 1609" d="M39.0082 14.7845C47.0851 14.7845 53.6327 14.0736 53.6327 13.1967C53.6327 12.3198 47.0851 11.6089 39.0082 11.6089C30.9314 11.6089 24.3838 12.3198 24.3838 13.1967C24.3838 14.0736 30.9314 14.7845 39.0082 14.7845Z" fill="#8B3B24"/>
<path id="Ellipse 1610" d="M37.0864 13.9487C43.6402 13.9487 48.9531 13.4623 48.9531 12.8623C48.9531 12.2623 43.6402 11.7759 37.0864 11.7759C30.5326 11.7759 25.2197 12.2623 25.2197 12.8623C25.2197 13.4623 30.5326 13.9487 37.0864 13.9487Z" fill="#9C4732"/>
<path id="Ellipse 1611" opacity="0.4" d="M31.4034 13.28C32.0495 13.28 32.5733 13.0929 32.5733 12.8622C32.5733 12.6314 32.0495 12.4443 31.4034 12.4443C30.7572 12.4443 30.2334 12.6314 30.2334 12.8622C30.2334 13.0929 30.7572 13.28 31.4034 13.28Z" fill="white"/>
<path id="Ellipse 1612" opacity="0.4" d="M34.0777 12.9459C34.447 12.9459 34.7463 12.7962 34.7463 12.6116C34.7463 12.427 34.447 12.2773 34.0777 12.2773C33.7085 12.2773 33.4092 12.427 33.4092 12.6116C33.4092 12.7962 33.7085 12.9459 34.0777 12.9459Z" fill="white"/>
</g>
</g>
<g id="Group 12717">
<path id="Path 14354" d="M5.64259 31.4986C5.64259 31.4986 -1.33243 38.5655 0.319509 48.0187C1.05367 52.2403 11.0582 39.0249 23.173 40.5851C35.2878 42.1453 38.8672 49.029 42.6302 48.3863C46.3933 47.7437 43.0815 29.2313 25.5594 24.6156C14.179 21.7702 5.64259 31.4986 5.64259 31.4986Z" fill="#EE8028"/>
<path id="Path 14355" d="M2.30888 36.3149C1.12391 38.6072 0.0644494 41.6359 0.066409 45.158C0.066409 46.0473 1.3738 46.6883 3.12498 46.3415C4.64586 46.0206 7.42238 44.4362 8.69957 42.7578C9.97676 41.0794 8.83243 40.1292 8.23423 39.6254C6.11565 37.8914 2.30888 36.3149 2.30888 36.3149Z" fill="#FD923B"/>
<path id="Path 14356" d="M36.4904 43.9001C38.723 47.7674 43.5346 47.8676 43.7786 47.1426C44.3507 45.4447 43.9668 42.1373 42.3214 38.498C42.3214 38.4987 34.2577 40.0335 36.4904 43.9001Z" fill="#FD923B"/>
<g id="Group 12714">
<path id="Path 14357" d="M4.67312 36.0484C4.67312 36.0484 9.71791 38.5465 10.804 41.5333C11.89 44.5201 17.7011 42.7825 17.9182 40.773C18.1353 38.7636 15.4742 29.6943 12.8676 26.7618C10.2609 23.8292 5.21028 30.2917 3.41813 32.5726C1.62598 34.8535 4.67312 36.0484 4.67312 36.0484Z" fill="#FFA03D"/>
<path id="Path 14358" d="M4.67312 36.0486C5.95793 36.5371 7.19712 37.1381 8.37624 37.8445C10.7868 39.3046 11.8435 42.2309 14.7142 40.7732C18.3527 38.4925 9.46475 26.2683 7.54741 27.964C5.8625 29.4539 4.2716 31.4871 3.41813 32.5729C1.62598 34.8539 4.67312 36.0486 4.67312 36.0486Z" fill="#FFBB6D"/>
</g>
<g id="Group 12715">
<path id="Path 14359" d="M23.3107 41.8456C18.26 42.0085 19.3328 41.5341 18.5174 37.5154C17.702 33.4966 16.6167 29.4779 14.553 26.4367C12.4892 23.3954 19.6124 22.5809 22.5904 22.5809C25.5683 22.5809 29.9219 22.4722 28.9443 26.4367C27.9668 30.4011 27.0515 36.7553 27.0978 39.5789C27.0704 42.0063 23.3107 41.8456 23.3107 41.8456Z" fill="#FFA03D"/>
<path id="Path 14360" d="M22.9996 39.7669C20.0335 39.8087 19.4417 36.3652 18.0702 33.2918C16.7889 30.421 15.5643 27.9267 14.553 26.4367C12.4892 23.3948 19.6124 22.5809 22.5904 22.5809C23.6572 22.5571 24.7245 22.597 25.7865 22.7005C28.5973 22.8897 26.6292 27.502 26.6756 30.3256C26.6482 32.753 26.2334 39.7669 22.9996 39.7669Z" fill="#FFBB6D"/>
</g>
<g id="Group 12716">
<path id="Path 14361" d="M30.4129 26.9273C30.4129 26.9273 28.0228 36.3767 27.9148 40.8842C27.8061 44.0884 32.9111 45.5546 34.0515 43.9797C34.6257 43.0695 35.7185 40.3061 38.739 38.6992C41.7596 37.0923 43.4626 37.7032 42.3059 35.3564C41.1491 33.0097 37.3252 28.4155 33.5011 26.5838C30.7375 25.3636 30.4129 26.9273 30.4129 26.9273Z" fill="#FFA03D"/>
<path id="Path 14362" d="M29.6476 32.6686C29.0626 35.5002 27.5401 39.7456 30.0654 41.1905C33.4917 42.9033 34.7315 38.9123 37.7521 37.3054C40.7726 35.6985 42.9452 36.5782 42.3062 35.3564C41.1495 33.0104 37.3256 28.4154 33.5015 26.5837C30.7377 25.3635 30.2848 29.585 29.6476 32.6686Z" fill="#FFBB6D"/>
</g>
</g>
</g>
</g>
</svg>
