<svg width="64" height="64" viewBox="0 0 64 64" fill="none" xmlns="http://www.w3.org/2000/svg">
<g id="Picnic basket and food">
<g id="Layer_2">
<g id="Group">
<g id="Group_2">
<path id="Vector" d="M53.0083 53.2758H13.6263C12.7292 53.2758 11.9841 52.583 11.9189 51.6882L9.87474 23.6297C9.80247 22.6379 10.5876 21.7935 11.5821 21.7935H55.0523C56.0468 21.7935 56.832 22.6379 56.7597 23.6297L54.7157 51.6882C54.6505 52.583 53.9056 53.2758 53.0083 53.2758Z" fill="#FFA954"/>
<path id="Vector_2" d="M57.5517 21.127H9.08203V25.2552H57.5517V21.127Z" fill="#B87A36"/>
<path id="Vector_3" d="M58.1978 19.1392H8.43652V21.1268H58.1978V19.1392Z" fill="#FFA954"/>
<path id="Vector_4" opacity="0.1" d="M17.5898 53.2761L17.5898 25.2554H14.0873L14.0873 53.2761H17.5898Z" fill="black"/>
<path id="Vector_5" opacity="0.1" d="M24.5088 53.2761L24.5088 25.2554H21.0062L21.0062 53.2761H24.5088Z" fill="black"/>
<path id="Vector_6" opacity="0.1" d="M31.5615 53.2761L31.5615 25.2554H28.0589L28.0589 53.2761H31.5615Z" fill="black"/>
<path id="Vector_7" opacity="0.1" d="M38.5566 53.2761L38.5566 25.2554H35.054L35.054 53.2761H38.5566Z" fill="black"/>
<path id="Vector_8" opacity="0.1" d="M45.5137 53.2761L45.5137 25.2554H42.0111L42.0111 53.2761H45.5137Z" fill="black"/>
<path id="Vector_9" opacity="0.1" d="M52.5469 53.2761L52.5469 25.2554H49.0443L49.0443 53.2761H52.5469Z" fill="black"/>
<g id="Group_3">
<path id="Vector_10" opacity="0.1" d="M56.5076 27.0898H10.127L10.2485 28.7578H56.386L56.5076 27.0898Z" fill="black"/>
<path id="Vector_11" opacity="0.1" d="M56.1312 32.2607H10.5039L10.759 35.7633H55.876L56.1312 32.2607Z" fill="black"/>
<path id="Vector_12" opacity="0.1" d="M55.6204 39.2656H11.0137L11.2688 42.7682H55.3652L55.6204 39.2656Z" fill="black"/>
<path id="Vector_13" opacity="0.1" d="M55.1105 46.271H11.5244L11.7797 49.7736H54.8554L55.1105 46.271Z" fill="black"/>
<path id="Vector_14" opacity="0.1" d="M10.0177 25.2554H9.99316L10.0177 25.592V25.2554Z" fill="black"/>
<path id="Vector_15" opacity="0.1" d="M56.6172 25.5918L56.6417 25.2554H56.6172V25.5918Z" fill="black"/>
<path id="Vector_16" opacity="0.1" d="M56.6167 25.2554H10.0176V25.592L10.1268 27.0901H56.5074L56.6167 25.5918V25.2554Z" fill="black"/>
<path id="Vector_17" opacity="0.1" d="M56.6167 25.2554H10.0176V25.592L10.1268 27.0901H56.5074L56.6167 25.5918V25.2554Z" fill="black"/>
<path id="Vector_18" opacity="0.1" d="M13.6258 53.2759H53.0078C53.9051 53.2759 54.65 52.5831 54.7152 51.6883L54.7527 51.1719H11.8809L11.9184 51.6883C11.9836 52.5831 12.7287 53.2759 13.6258 53.2759Z" fill="black"/>
</g>
<path id="Vector_19" opacity="0.2" d="M57.5517 21.127H9.08203V22.2737H57.5517V21.127Z" fill="black"/>
</g>
<path id="Vector_20" opacity="0.08" d="M43.7159 26.6608C43.8207 26.6608 43.9237 26.641 44.0218 26.6019L46.5451 25.5984C46.9695 25.4293 47.1773 24.9467 47.0086 24.5223L46.7529 23.8795L55.8672 35.8859L55.8762 35.7629L55.9441 34.8303L56.4375 28.0576L56.5081 27.09L56.6171 25.5917L56.6192 25.5629L56.6417 25.2553H57.3557L57.5526 22.9149V22.2737H46.1141L44.8674 19.1392H40.1621L42.9462 26.1384C43.0722 26.4557 43.3743 26.6608 43.7159 26.6608Z" fill="black"/>
<path id="Vector_21" opacity="0.08" d="M33.3174 19.1392V53.276H35.0541H38.5567H42.0112H45.5138H49.0445H52.5471H53.0084C53.9057 53.276 54.6506 52.5832 54.7158 51.6884L55.2534 44.3081L55.3656 42.7682L55.6207 39.2656L55.8759 35.7631L55.9437 34.8305L56.4371 28.0578L56.5077 27.0902L56.6168 25.5919L56.6189 25.5631L56.6413 25.2555H57.552V22.2739V21.1272H58.1978V19.1395H33.3174V19.1392Z" fill="black"/>
<g id="Group_4">
<path id="Vector_22" opacity="0.1" d="M22.4771 19.1392L20.1534 24.981C19.9845 25.4054 20.1925 25.8881 20.6171 26.0571L23.1402 27.0606C23.2383 27.0997 23.3415 27.1195 23.4463 27.1195C23.7879 27.1195 24.0902 26.9144 24.2163 26.5971L27.183 19.1392H22.4771Z" fill="black"/>
<g id="Group_5">
<path id="Vector_23" d="M46.091 24.2929L38.0204 4.00365C37.6874 3.16615 36.8896 2.625 35.9884 2.625C35.7118 2.625 35.4402 2.67733 35.1808 2.78027C34.6383 2.99611 34.2124 3.41036 33.9812 3.94671C33.7502 4.48307 33.742 5.07712 33.9578 5.6198L42.0284 25.909C42.1546 26.2265 42.4567 26.4314 42.7983 26.4314C42.9031 26.4314 43.0061 26.4117 43.1042 26.3726L45.6275 25.369C46.0519 25.2 46.2599 24.7173 46.091 24.2929Z" fill="#FFA954"/>
<path id="Vector_24" d="M30.6044 2.78027C30.3452 2.67714 30.0736 2.625 29.797 2.625C28.8957 2.625 28.0982 3.16615 27.7651 4.00365L19.6944 24.2929C19.5256 24.7173 19.7335 25.2 20.1581 25.369L22.6812 26.3725C22.7793 26.4117 22.8825 26.4314 22.9873 26.4314C23.3289 26.4314 23.6312 26.2263 23.7574 25.909L31.828 5.6198C32.0438 5.07712 32.0354 4.48307 31.8044 3.94671C31.573 3.41017 31.1469 2.99592 30.6044 2.78027Z" fill="#FFA954"/>
</g>
<g id="Group_6">
<path id="Vector_25" opacity="0.15" d="M43.5584 25.1021C42.8629 25.1021 42.2969 24.5363 42.2969 23.8406C42.2969 23.145 42.8629 22.5791 43.5584 22.5791C44.2539 22.5791 44.8197 23.145 44.8197 23.8406C44.8195 24.5363 44.2539 25.1021 43.5584 25.1021Z" fill="black"/>
<path id="Vector_26" d="M44.5137 23.8408C44.5137 24.3686 44.0858 24.7964 43.5581 24.7964C43.0304 24.7964 42.6025 24.3686 42.6025 23.8408C42.6025 23.3131 43.0304 22.8853 43.5581 22.8853C44.0858 22.8853 44.5137 23.3129 44.5137 23.8408Z" fill="#FBB03B"/>
<path id="Vector_27" opacity="0.15" d="M43.9626 22.978C44.0205 23.1013 44.0552 23.2372 44.0552 23.3823C44.0552 23.91 43.6273 24.3379 43.0996 24.3379C42.9545 24.3379 42.8184 24.303 42.6953 24.2453C42.8479 24.5702 43.1757 24.7966 43.5583 24.7966C44.086 24.7966 44.5139 24.3688 44.5139 23.841C44.5139 23.4582 44.2875 23.1306 43.9626 22.978Z" fill="#42210B"/>
<path id="Vector_28" opacity="0.6" d="M43.429 23.4635C43.429 23.6142 43.3069 23.7363 43.1564 23.7363C43.0057 23.7363 42.8838 23.6142 42.8838 23.4635C42.8838 23.3128 43.0059 23.1909 43.1564 23.1909C43.3069 23.1909 43.429 23.3128 43.429 23.4635Z" fill="#F2F2F2"/>
</g>
<g id="Group_7">
<path id="Vector_29" opacity="0.15" d="M22.3777 25.1021C21.6823 25.1021 21.1162 24.5363 21.1162 23.8406C21.1162 23.145 21.6823 22.5791 22.3777 22.5791C23.0732 22.5791 23.6391 23.145 23.6391 23.8406C23.6391 24.5363 23.0732 25.1021 22.3777 25.1021Z" fill="black"/>
<path id="Vector_30" d="M23.333 23.8408C23.333 24.3686 22.9052 24.7964 22.3775 24.7964C21.8497 24.7964 21.4219 24.3686 21.4219 23.8408C21.4219 23.3131 21.8497 22.8853 22.3775 22.8853C22.9052 22.8851 23.333 23.3129 23.333 23.8408Z" fill="#FBB03B"/>
<path id="Vector_31" opacity="0.15" d="M22.7819 22.978C22.8398 23.1013 22.8745 23.2372 22.8745 23.3823C22.8745 23.91 22.4467 24.3379 21.9189 24.3379C21.7738 24.3379 21.6377 24.303 21.5146 24.2453C21.6672 24.5702 21.995 24.7966 22.3776 24.7966C22.9054 24.7966 23.3332 24.3688 23.3332 23.841C23.3332 23.4582 23.1068 23.1306 22.7819 22.978Z" fill="#42210B"/>
<path id="Vector_32" opacity="0.6" d="M22.2485 23.4635C22.2485 23.6142 22.1264 23.7363 21.9757 23.7363C21.825 23.7363 21.7031 23.6142 21.7031 23.4635C21.7031 23.3128 21.8252 23.1909 21.9757 23.1909C22.1262 23.1909 22.2485 23.3128 22.2485 23.4635Z" fill="#F2F2F2"/>
</g>
<g id="Group_8">
<path id="Vector_33" opacity="0.2" d="M42.9459 26.1381L34.8753 5.84907C34.6594 5.30658 34.6677 4.71233 34.8987 4.17598C35.1298 3.63962 35.5558 3.22538 36.0983 3.00953C36.3576 2.90659 36.6293 2.85426 36.9059 2.85426C36.9285 2.85426 36.95 2.85848 36.9724 2.85925C36.6739 2.70934 36.3396 2.625 35.9884 2.625C35.7118 2.625 35.4402 2.67733 35.1808 2.78027C34.6383 2.99611 34.2124 3.41036 33.9812 3.94671C33.7502 4.48307 33.742 5.07712 33.9578 5.6198L42.0284 25.909C42.1546 26.2265 42.4567 26.4314 42.7983 26.4314C42.8989 26.4314 42.9976 26.412 43.0921 26.376C43.0318 26.3064 42.9813 26.2274 42.9459 26.1381Z" fill="#F2F2F2"/>
<path id="Vector_34" opacity="0.2" d="M20.3826 24.7516L28.4532 4.46237C28.7864 3.62486 29.584 3.08372 30.4852 3.08372C30.7618 3.08372 31.0334 3.13605 31.2926 3.23899C31.3073 3.24493 31.3209 3.25241 31.3353 3.25854C31.1291 3.0542 30.8823 2.89088 30.6044 2.78027C30.3452 2.67714 30.0736 2.625 29.797 2.625C28.8957 2.625 28.0982 3.16615 27.7651 4.00365L19.6944 24.2929C19.5256 24.7173 19.7336 25.2 20.1581 25.369L20.4457 25.4833C20.3171 25.2692 20.2833 25.0012 20.3826 24.7516Z" fill="#F2F2F2"/>
</g>
</g>
</g>
<g id="Group_9">
<path id="Vector_35" d="M18.0266 50.5792C18.0266 54.2907 15.0178 57.2995 11.3063 57.2995C7.59473 57.2995 4.58594 54.2907 4.58594 50.5792C4.58594 46.8676 7.59473 44.5967 11.3063 44.5967C15.0178 44.5967 18.0266 46.8676 18.0266 50.5792Z" fill="#FF4E29"/>
<path id="Vector_36" d="M12.541 42.6759C11.7266 43.2539 11.2871 44.1372 11.3063 44.971C12.087 45.2643 13.066 45.1411 13.8803 44.5631C14.6946 43.9852 15.1342 43.1019 15.115 42.268C14.3342 41.9747 13.3553 42.098 12.541 42.6759Z" fill="#2ED352"/>
<path id="Vector_37" opacity="0.08" d="M11.3066 44.9711C12.0874 45.2644 13.0664 45.1411 13.8807 44.5632C14.695 43.9852 15.1345 43.1019 15.1154 42.2681L11.3066 44.9711Z" fill="black"/>
<path id="Vector_38" opacity="0.4" d="M8.44434 51.6094C9.80348 51.6094 10.9053 50.5076 10.9053 49.1484C10.9053 47.7893 9.80348 46.6875 8.44434 46.6875C7.0852 46.6875 5.9834 47.7893 5.9834 49.1484C5.9834 50.5076 7.0852 51.6094 8.44434 51.6094Z" fill="#F2F2F2"/>
<path id="Vector_39" d="M9.20689 42.7956C8.01112 42.4212 6.79751 42.6447 5.9834 43.2844C6.28742 44.2743 7.15694 45.1498 8.35271 45.5241C9.54848 45.8985 10.7621 45.675 11.5762 45.0353C11.2722 44.0454 10.4027 43.17 9.20689 42.7956Z" fill="#2ED352"/>
<path id="Vector_40" opacity="0.08" d="M15.0257 45.4912C15.6794 46.4079 16.0591 47.5417 16.0591 48.8577C16.0591 52.5692 13.0503 55.578 9.33877 55.578C8.11635 55.578 6.97119 55.2501 5.9834 54.6796C7.21233 56.2725 9.13884 57.2998 11.3065 57.2998C15.018 57.2998 18.0268 54.291 18.0268 50.5795C18.0268 48.2435 16.8345 46.4788 15.0257 45.4912Z" fill="black"/>
<path id="Vector_41" opacity="0.08" d="M5.9834 43.2842C6.28742 44.2741 7.15694 45.1495 8.35271 45.5239C9.54848 45.8983 10.7621 45.6748 11.5762 45.0351L5.9834 43.2842Z" fill="black"/>
</g>
<g id="Group_10">
<path id="Vector_42" d="M40.7936 55.0605H14.8438V58.6304H40.7936V55.0605Z" fill="#FFCE88"/>
<path id="Vector_43" opacity="0.15" d="M38.2258 55.0605H30.6748V58.6304H38.2258V55.0605Z" fill="black"/>
<path id="Vector_44" opacity="0.1" d="M40.7917 55.0605H25.4043V58.6304H40.7917V55.0605Z" fill="black"/>
<path id="Vector_45" d="M39.4824 52.9214H16.2266V55.0609H39.4824V52.9214Z" fill="#C98383"/>
<path id="Vector_46" opacity="0.15" d="M39.4824 54.6133H16.2266V55.0607H39.4824V54.6133Z" fill="black"/>
<path id="Vector_47" opacity="0.66" d="M28.2743 58.6303L36.1254 52.5864H19.583L27.4343 58.6303H28.2743Z" fill="#933E01"/>
<path id="Vector_48" d="M27.8544 47.7329L21.1152 52.9211L27.8544 58.1092L34.5935 52.9211L27.8544 47.7329Z" fill="#FFAA07"/>
<path id="Vector_49" d="M27.8537 51.1724H16.9023V52.9214H27.8537V51.1724Z" fill="#B75141"/>
<path id="Vector_50" d="M40.9069 47.6021H14.957V51.1719H40.9069V47.6021Z" fill="#FFCE88"/>
<path id="Vector_51" opacity="0.15" d="M38.2668 47.6021H30.7158V51.1719H38.2668V47.6021Z" fill="black"/>
<path id="Vector_52" opacity="0.2" d="M18.5536 51.1724H16.9023V52.9214H18.5536V51.1724Z" fill="black"/>
<path id="Vector_53" opacity="0.2" d="M21.371 51.1724H19.7197V52.9214H21.371V51.1724Z" fill="#FBDDAD"/>
<path id="Vector_54" opacity="0.2" d="M27.8543 51.1724H27.0557V52.9214H27.8543V51.1724Z" fill="black"/>
<path id="Vector_55" d="M38.8083 51.1724H27.8535V52.9214H38.8083V51.1724Z" fill="#B75141"/>
<path id="Vector_56" opacity="0.2" d="M38.8087 51.1724H36.582V52.9214H38.8087V51.1724Z" fill="black"/>
<path id="Vector_57" opacity="0.2" d="M27.8541 51.1724H25.6309V52.9214H27.8541V51.1724Z" fill="black"/>
<path id="Vector_58" opacity="0.2" d="M29.5048 51.1724H27.8535V52.9214H29.5048V51.1724Z" fill="black"/>
<path id="Vector_59" opacity="0.2" d="M32.326 51.1724H30.6748V52.9214H32.326V51.1724Z" fill="#FBDDAD"/>
<path id="Vector_60" opacity="0.2" d="M38.8084 51.1724H38.0098V52.9214H38.8084V51.1724Z" fill="black"/>
<path id="Vector_61" opacity="0.1" d="M40.9209 47.6021H25.5332V51.1719H40.9209V47.6021Z" fill="black"/>
<path id="Vector_62" d="M26.9795 55.0111C26.9795 55.3849 26.6764 55.6878 26.3026 55.6878C25.9288 55.6878 25.626 55.3848 25.626 55.0111C25.626 54.6375 25.929 54.3345 26.3026 54.3345C26.6764 54.3343 26.9795 54.6373 26.9795 55.0111Z" fill="#D6792C"/>
<path id="Vector_63" d="M30.4534 54.2795C30.4534 54.7803 30.0474 55.1863 29.5465 55.1863C29.0457 55.1863 28.6396 54.7803 28.6396 54.2795C28.6396 53.7786 29.0457 53.3726 29.5465 53.3726C30.0474 53.3726 30.4534 53.7786 30.4534 54.2795Z" fill="#D6792C"/>
<path id="Vector_64" opacity="0.2" d="M38.8085 51.1724H16.9023V51.6198H38.8085V51.1724Z" fill="black"/>
<path id="Vector_65" opacity="0.2" d="M38.8085 52.4736H16.9023V52.921H38.8085V52.4736Z" fill="black"/>
</g>
<g id="Layer_4">
<g id="Group_11">
<g id="Clip path group">
<mask id="mask0_143_8184" style="mask-type:luminance" maskUnits="userSpaceOnUse" x="47" y="22" width="13" height="15">
<g id="SVGID_2_">
<path id="Vector_66" d="M57.9349 36.5907L59.139 22.2734H47.0664L57.9349 36.5907Z" fill="white"/>
</g>
</mask>
<g mask="url(#mask0_143_8184)">
<g id="Group_12">
<path id="Vector_67" d="M54.1013 10.9441L37.0801 27.9653L54.0182 44.9035L71.0395 27.8822L54.1013 10.9441Z" fill="#EDDEBC"/>
<g id="Group_13" opacity="0.5">
<path id="Vector_68" d="M68.0779 24.8962L51.0566 41.9175L52.1979 43.0588L69.2192 26.0375L68.0779 24.8962Z" fill="#FF0000"/>
<path id="Vector_69" d="M65.0271 21.846L48.0059 38.8672L49.1472 40.0085L66.1684 22.9872L65.0271 21.846Z" fill="#FF0000"/>
<path id="Vector_70" d="M61.9773 18.7957L44.9561 35.8169L46.0973 36.9582L63.1186 19.937L61.9773 18.7957Z" fill="#FF0000"/>
<path id="Vector_71" d="M58.9265 15.7454L41.9053 32.7666L43.0466 33.9079L60.0678 16.8867L58.9265 15.7454Z" fill="#FF0000"/>
<path id="Vector_72" d="M55.8767 12.6956L38.8555 29.7168L39.9968 30.8581L57.018 13.8369L55.8767 12.6956Z" fill="#FF0000"/>
</g>
<g id="Group_14" opacity="0.5">
<path id="Vector_73" d="M52.2565 12.7894L51.1152 13.9307L68.0534 30.8688L69.1947 29.7275L52.2565 12.7894Z" fill="#FF0000"/>
<path id="Vector_74" d="M49.2057 15.8392L48.0645 16.9805L65.0026 33.9186L66.1439 32.7773L49.2057 15.8392Z" fill="#FF0000"/>
<path id="Vector_75" d="M46.1559 18.89L45.0146 20.0312L61.9528 36.9694L63.0941 35.8281L46.1559 18.89Z" fill="#FF0000"/>
<path id="Vector_76" d="M43.1052 21.9402L41.9639 23.0815L58.902 40.0197L60.0433 38.8784L43.1052 21.9402Z" fill="#FF0000"/>
<path id="Vector_77" d="M40.0554 24.991L38.9141 26.1323L55.8522 43.0705L56.9935 41.9292L40.0554 24.991Z" fill="#FF0000"/>
</g>
</g>
</g>
</g>
<g id="Clip path group_2">
<mask id="mask1_143_8184" style="mask-type:luminance" maskUnits="userSpaceOnUse" x="47" y="22" width="13" height="15">
<g id="SVGID_2__2">
<path id="Vector_78" d="M57.9349 36.5907L59.139 22.2734H47.0664L57.9349 36.5907Z" fill="white"/>
</g>
</mask>
<g mask="url(#mask1_143_8184)">
<path id="Vector_79" opacity="0.15" d="M59.4271 21.8267H46.5518V22.885H59.4271V21.8267Z" fill="black"/>
</g>
</g>
</g>
</g>
<path id="Vector_80" opacity="0.7" d="M51.6301 58.6976H42.9382L41.4355 37.5347H53.1328L51.6301 58.6976Z" fill="white"/>
<path id="Vector_81" d="M43.2803 45.2373L44.1408 57.3559H50.4283L51.289 45.2373H43.2803Z" fill="#FFAA07"/>
<path id="Vector_82" opacity="0.2" d="M44.0645 56.2832L44.1406 57.3557H50.4281L50.5043 56.2832H44.0645Z" fill="#D6792C"/>
<path id="Vector_83" opacity="0.2" d="M47.2841 58.6976H42.9382L41.4355 37.5347H47.2841V58.6976Z" fill="#F2F2F2"/>
<path id="Vector_84" d="M43.6768 37.5347L44.991 58.6976H45.913L45.1827 37.5347H43.6768Z" fill="#F2F2F2"/>
</g>
</g>
</svg>
