<svg width="64" height="64" viewBox="0 0 64 64" fill="none" xmlns="http://www.w3.org/2000/svg">
<g id="champagne">
<path id="Vector" d="M25 42H23V51H25V42Z" fill="#96E1EB"/>
<path id="Vector_2" d="M10 59V42H8V59L5.13666 60.4317C4.85351 60.5732 4.95425 61 5.27082 61H12.7292C13.0457 61 13.1465 60.5732 12.8633 60.4317L10 59Z" fill="#96E1EB"/>
<path id="Vector_3" d="M57.6777 28.5C55.3807 24.233 54.1777 19.463 54.1777 14.618V9H46.1777V14.618C46.1777 18.796 45.2787 22.915 43.5607 26.707C43.2857 27.313 42.9947 27.913 42.6777 28.501C40.3807 32.768 39.1777 37.538 39.1777 42.383V51H40.1777L44.1777 61H59.1777C60.2827 61 61.1777 60.105 61.1777 59V42.382C61.1777 37.537 59.9747 32.767 57.6777 28.5Z" fill="#96E1EB"/>
<path id="Vector_4" d="M36 61H44L40 51L36 61Z" fill="#78A5AD"/>
<path id="Vector_5" d="M54 5C54 3.895 53.105 3 52 3H48C46.895 3 46 3.895 46 5V9H54V5Z" fill="#756F6D"/>
<path id="Vector_6" d="M29.229 24.883L28.178 17H20.178L19.127 24.883C19.077 25.255 19.041 25.628 19 26H29.356C29.316 25.627 29.279 25.254 29.229 24.883ZM14.229 24.883L13.178 17H5.178L4.127 24.883C4.077 25.254 4.04 25.627 4 26H14.356C14.316 25.627 14.279 25.254 14.229 24.883Z" fill="#96E1EB"/>
<path id="Vector_7" d="M29.1782 26H18.8222C18.3512 30.353 18.5002 34.753 19.2842 39.065C19.6992 41.343 21.6842 43 24.0002 43C26.3162 43 28.3012 41.343 28.7162 39.065C29.5002 34.753 29.6492 30.353 29.1782 26ZM3.82223 26C3.35123 30.353 3.50023 34.753 4.28423 39.065C4.69923 41.343 6.68423 43 9.00023 43C11.3162 43 13.3012 41.343 13.7162 39.065C14.5002 34.753 14.6492 30.353 14.1782 26H3.82223Z" fill="#FFCB65"/>
<path id="Vector_8" d="M39 51H24H19L15 61H36L40 51H39Z" fill="#86C8D4"/>
<path id="Vector_9" d="M28.9999 53.9999L27.9999 54.9999L26.9999 53.9999C26.4479 53.4479 25.5519 53.4479 24.9999 53.9999C24.4479 54.5519 24.4479 55.4479 24.9999 55.9999L27.9999 58.9999L30.9999 55.9999C31.5519 55.4479 31.5519 54.5519 30.9999 53.9999C30.4479 53.4479 29.5519 53.4479 28.9999 53.9999Z" fill="#FF7583"/>
<path id="Vector_10" d="M12.106 5.44717C11.428 5.78617 11 6.47917 11 7.23617V12.0002L18.318 10.3742C19.218 10.1742 19.747 9.24017 19.455 8.36617C19.198 7.59617 18.392 7.15317 17.604 7.35017L15 8.00017V7.23617C15 5.74917 13.435 4.78217 12.106 5.44717Z" fill="#FF7583"/>
<path id="Vector_11" d="M43.4199 26.617L49.9999 32L56.6169 26.706C54.8989 22.915 53.9999 18.795 53.9999 14.618V9H45.9999V14.618C45.9999 18.763 45.1129 22.85 43.4199 26.617Z" fill="#FFCB65"/>
<path id="Vector_12" opacity="0.11" d="M48.725 12.234C48.783 9.068 49.385 5.949 50.481 3H48C46.895 3 46 3.895 46 5V9V14.618C46 18.796 45.101 22.915 43.383 26.707C43.108 27.313 42.817 27.913 42.5 28.501C40.203 32.768 39 37.538 39 42.383V51H40L41.607 55.018C41.607 49.06 41.607 41.577 41.607 39.357C41.607 35.5 45.946 30.196 47.553 24C48.38 20.812 48.654 16.079 48.725 12.234Z" fill="#606060"/>
<path id="Vector_13" d="M57 54H43C42.447 54 42 53.552 42 53V40C42 39.448 42.447 39 43 39H57C57.553 39 58 39.448 58 40V46H56V41H44V52H56V48H58V53C58 53.552 57.553 54 57 54Z" fill="#FFCB65"/>
<path id="Vector_14" d="M54 10H46C45.448 10 45 9.552 45 9C45 8.448 45.448 8 46 8H54C54.552 8 55 8.448 55 9C55 9.552 54.552 10 54 10Z" fill="#756F6D"/>
<path id="Vector_15" d="M50 27C49.448 27 49 26.552 49 26C49 25.448 49.448 25 50 25C50.552 25 51 25.448 51 26C51 26.552 50.552 27 50 27Z" fill="#96E1EB"/>
<path id="Vector_16" d="M26 30C25.448 30 25 29.552 25 29C25 28.448 25.448 28 26 28C26.552 28 27 28.448 27 29C27 29.552 26.552 30 26 30ZM23 33C22.448 33 22 32.552 22 32C22 31.448 22.448 31 23 31C23.552 31 24 31.448 24 32C24 32.552 23.552 33 23 33ZM11 30C10.448 30 10 29.552 10 29C10 28.448 10.448 28 11 28C11.552 28 12 28.448 12 29C12 29.552 11.552 30 11 30ZM8 33C7.448 33 7 32.552 7 32C7 31.448 7.448 31 8 31C8.552 31 9 31.448 9 32C9 32.552 8.552 33 8 33Z" fill="white"/>
<path id="Vector_17" d="M23 10C22.448 10 22 9.552 22 9C22 8.448 22.448 8 23 8C23.552 8 24 8.448 24 9C24 9.552 23.552 10 23 10ZM23 6C22.448 6 22 5.552 22 5C22 4.448 22.448 4 23 4C23.552 4 24 4.448 24 5C24 5.552 23.552 6 23 6Z" fill="#FF7583"/>
</g>
</svg>
