<svg width="64" height="64" viewBox="0 0 64 64" fill="none" xmlns="http://www.w3.org/2000/svg">
<g id="Beer Party">
<g id="Layer 31">
<path id="Vector" d="M63.9392 35.9414L62.5177 27.9129C62.3253 26.8465 61.7179 25.8999 60.8287 25.2807C59.9395 24.6614 58.841 24.42 57.7741 24.6094L51.7256 25.6707L52.4369 29.6844L56.4661 28.9752C56.7305 28.9277 57.0016 28.9328 57.264 28.9901C57.5264 29.0474 57.7749 29.1559 57.9954 29.3092C58.2159 29.4626 58.404 29.6579 58.549 29.884C58.694 30.1101 58.793 30.3626 58.8405 30.6269L59.5518 34.6407C59.598 34.9048 59.5918 35.1754 59.5333 35.4371C59.4748 35.6988 59.3653 35.9464 59.211 36.1657C59.0567 36.385 58.8607 36.5717 58.6341 36.7152C58.4076 36.8586 58.155 36.956 57.8907 37.0016L53.8584 37.7098L54.5697 41.7235L60.6182 40.6623C61.1464 40.5707 61.6513 40.3759 62.1042 40.089C62.557 39.8021 62.9489 39.4288 63.2573 38.9903C63.5658 38.5518 63.7847 38.0569 63.9017 37.5337C64.0188 37.0106 64.0315 36.4695 63.9392 35.9414Z" fill="white"/>
<path id="Vector_2" d="M52.4369 29.6822L56.4558 28.9771L55.7445 24.9634L51.7256 25.6685L52.4369 29.6822ZM57.8773 37.0056L53.8584 37.7107L54.5697 41.7245L58.5886 41.0194L57.8773 37.0056Z" fill="#CADEE4"/>
<path id="Vector_3" d="M10.548 33.2645L6.35357 32.5418C6.08188 32.4991 5.82137 32.4029 5.58713 32.2588C5.35288 32.1147 5.14956 31.9255 4.98892 31.7023C4.82829 31.4791 4.71354 31.2262 4.65132 30.9583C4.5891 30.6904 4.58066 30.4128 4.62646 30.1416L5.36562 26.0567C5.47275 25.508 5.79189 25.0238 6.25379 24.7089C6.71569 24.3941 7.2831 24.2741 7.83291 24.375L12.0273 25.0976L12.7665 21.0126L6.47538 19.9307C5.37645 19.7311 4.24311 19.9722 3.32058 20.6018C2.39805 21.2315 1.76053 22.199 1.54596 23.2951L0.0624853 31.4641C-0.0295774 32.0068 -0.0129899 32.5624 0.111286 33.0987C0.235562 33.6349 0.465054 34.1412 0.786457 34.5881C1.10786 35.035 1.51478 35.4137 1.98363 35.7021C2.45247 35.9906 2.97392 36.1831 3.51773 36.2686L9.80468 37.3484L10.548 33.2645Z" fill="white"/>
<path id="Vector_4" d="M10.5467 33.2645L6.35229 32.5419C6.26301 32.5237 6.17506 32.4996 6.08904 32.4696L5.34473 36.5804L9.80753 37.3464L10.5467 33.2645ZM12.026 25.0956L12.7652 21.0106L8.30341 20.2446L7.5591 24.3606C7.65026 24.3615 7.74128 24.368 7.83163 24.3802L12.026 25.0956Z" fill="#CADEE4"/>
<path id="Vector_5" d="M6.04688 46.1791L27.0168 49.7799L32.0092 22.2092C24.8183 23.7806 17.298 22.489 11.0434 18.6084L6.04688 46.1791Z" fill="#FFAA07"/>
<path id="Vector_6" d="M5.10565 47.5182C12.0241 50.9171 19.7761 52.2484 27.4321 51.3523C27.8624 51.3041 28.2658 51.1189 28.5828 50.8239C28.8997 50.5289 29.1134 50.1397 29.1922 49.714C29.2419 49.4072 29.2202 49.0932 29.1287 48.7962C29.0373 48.4993 28.8786 48.2274 28.6649 48.0018C28.4513 47.7761 28.1885 47.6028 27.897 47.4953C27.6054 47.3878 27.293 47.349 26.984 47.3819C20.111 47.9866 13.1985 46.8001 6.92051 43.938C6.63838 43.8056 6.32987 43.7391 6.01826 43.7434C5.70665 43.7476 5.40008 43.8227 5.1217 43.9627C4.84332 44.1028 4.6004 44.3043 4.41127 44.552C4.22215 44.7997 4.09176 45.0871 4.02995 45.3926C3.9529 45.8157 4.0163 46.2524 4.21051 46.6362C4.40471 47.0199 4.71907 47.3297 5.10565 47.5182Z" fill="white"/>
<path id="Vector_7" d="M8.20238 47.5181C7.81476 47.3305 7.4992 47.0211 7.30385 46.6373C7.1085 46.2535 7.0441 45.8163 7.12049 45.3925C7.20074 44.9626 7.42371 44.5723 7.75332 44.2848C7.47665 44.1661 7.19688 44.0629 6.92022 43.9379C6.63799 43.8058 6.32944 43.7394 6.01784 43.7439C5.70623 43.7483 5.3997 43.8234 5.12136 43.9636C4.84302 44.1038 4.60014 44.3053 4.41103 44.553C4.22192 44.8007 4.09152 45.0881 4.02966 45.3935C3.95295 45.8169 4.01673 46.2537 4.21131 46.6375C4.40588 47.0212 4.72057 47.3308 5.10743 47.5191C11.0915 50.4606 17.717 51.8562 24.3792 51.5783C18.7613 51.3781 13.2489 49.9945 8.20238 47.5181Z" fill="#CADEE4"/>
<path id="Vector_8" d="M58.1865 50.4024L38.0249 53.9413L33.2266 26.8465C36.6546 27.6111 40.1999 27.6921 43.6593 27.0848C47.1187 26.4776 50.4244 25.194 53.3871 23.3076L58.1865 50.4024Z" fill="#FFAA07"/>
<path id="Vector_9" d="M59.0921 51.7177C52.4619 55.0535 44.9966 56.364 37.6267 55.4858C37.2092 55.435 36.8192 55.251 36.5146 54.9611C36.21 54.6712 36.007 54.2908 35.9357 53.8763C35.8835 53.5786 35.9009 53.2729 35.9864 52.983C36.0719 52.6931 36.2232 52.4269 36.4286 52.2051C36.634 51.9833 36.8878 51.812 37.1703 51.7046C37.4528 51.5971 37.7563 51.5564 38.0571 51.5856C44.673 52.178 51.3279 51.0098 57.3464 48.1995C57.6201 48.0696 57.92 48.0044 58.2229 48.009C58.5258 48.0137 58.8235 48.088 59.0931 48.2263C59.3626 48.3645 59.5967 48.563 59.7772 48.8063C59.9576 49.0496 60.0796 49.3312 60.1337 49.6293C60.2084 50.0432 60.1473 50.4701 59.9596 50.8464C59.7719 51.2227 59.4676 51.5284 59.0921 51.7177Z" fill="white"/>
<path id="Vector_10" d="M40.7236 55.4858C40.2901 55.4285 39.8882 55.228 39.5817 54.9162C39.2752 54.6044 39.0817 54.1991 39.0319 53.7647C38.982 53.3303 39.0788 52.8917 39.3067 52.5186C39.5347 52.1455 39.8808 51.8593 40.29 51.7053C39.5447 51.6858 38.8002 51.6459 38.0571 51.5856C37.5399 51.5285 37.0212 51.6792 36.6151 52.0045C36.209 52.3299 35.9488 52.8032 35.8917 53.3204C35.8346 53.8376 35.9854 54.3563 36.3107 54.7624C36.636 55.1685 37.1094 55.4287 37.6266 55.4858C39.5945 55.7078 41.5763 55.7816 43.5553 55.7067C42.6179 55.6668 41.674 55.5931 40.7236 55.4858Z" fill="#CADEE4"/>
<path id="Vector_11" d="M32.6953 13.0049C32.1016 12.7305 31.455 12.5896 30.8009 12.592C30.3667 12.6037 29.9383 12.4904 29.5668 12.2654C29.1952 12.0405 28.8962 11.7134 28.7053 11.3233C28.3476 10.542 27.8036 9.86052 27.121 9.33854C26.4385 8.81657 25.6383 8.47007 24.7906 8.32947C23.7849 8.15244 22.7495 8.26721 21.807 8.66018C20.8644 9.05316 20.0541 9.7079 19.472 10.5469C19.2247 10.8904 18.8746 11.1463 18.4723 11.2776C18.0699 11.409 17.6363 11.4091 17.2339 11.2778C16.9702 11.1966 16.6991 11.1417 16.4246 11.1137C15.3288 11.0295 14.241 11.3567 13.3736 12.0315C12.5062 12.7063 11.9215 13.6802 11.7336 14.763L11.043 18.6085C15.2654 21.2243 20.1026 22.6814 25.0673 22.8328C25.3703 22.8328 25.6696 22.8986 25.9447 23.0257C26.2197 23.1528 26.4638 23.3381 26.6602 23.5688C26.8565 23.7995 27.0004 24.0701 27.0819 24.3619C27.1633 24.6537 27.1804 24.9598 27.132 25.2588L27.0948 25.4653C27.0352 25.7414 27.0312 26.0267 27.083 26.3044C27.1348 26.5821 27.2414 26.8467 27.3966 27.0827C27.5517 27.3188 27.7523 27.5216 27.9867 27.6793C28.2211 27.837 28.4845 27.9465 28.7616 28.0013C29.0387 28.0562 29.324 28.0553 29.6007 27.9987C29.8775 27.9421 30.1402 27.831 30.3736 27.6718C30.607 27.5126 30.8063 27.3085 30.9599 27.0715C31.1136 26.8345 31.2185 26.5692 31.2686 26.2912L32.0088 22.2062L32.112 21.6405C32.174 21.3431 32.298 21.0622 32.4759 20.816C32.6537 20.5698 32.8815 20.3639 33.1443 20.2117C33.7791 19.8253 34.2964 19.273 34.6405 18.6143C34.9845 17.9556 35.1422 17.2155 35.0967 16.4737C35.0511 15.732 34.8039 15.0168 34.3819 14.4051C33.9598 13.7935 33.3788 13.3087 32.7015 13.0029L32.6953 13.0049Z" fill="white"/>
<path id="Vector_12" d="M31.2242 23.3998L31.2614 23.1933C31.3098 22.8942 31.2927 22.5882 31.2112 22.2964C31.1298 22.0046 30.9859 21.734 30.7895 21.5033C30.5932 21.2725 30.349 21.0872 30.074 20.9602C29.799 20.8331 29.4996 20.7673 29.1967 20.7673C25.3441 20.6618 21.5559 19.7536 18.0742 18.1007C17.2362 17.7169 16.5488 17.0665 16.1193 16.251C15.6898 15.4355 15.5423 14.5007 15.6999 13.5925L15.8609 12.7037C15.9645 12.1452 16.1729 11.6113 16.4751 11.1304C16.4576 11.1304 16.4411 11.1211 16.4225 11.119C15.3267 11.0346 14.2388 11.3617 13.3713 12.0365C12.5038 12.7114 11.9192 13.6854 11.7315 14.7684L11.043 18.6087C15.2654 21.2245 20.1026 22.6815 25.0673 22.833C25.3703 22.833 25.6696 22.8988 25.9447 23.0259C26.2197 23.1529 26.4638 23.3382 26.6602 23.569C26.8565 23.7997 27.0004 24.0703 27.0819 24.3621C27.1633 24.6539 27.1804 24.9599 27.132 25.259L27.0948 25.4655C27.0352 25.7416 27.0312 26.0268 27.083 26.3045C27.1348 26.5822 27.2414 26.8468 27.3966 27.0829C27.5517 27.319 27.7523 27.5218 27.9867 27.6795C28.2211 27.8372 28.4845 27.9467 28.7616 28.0015C29.0387 28.0564 29.324 28.0555 29.6007 27.9989C29.8775 27.9423 30.1402 27.8312 30.3736 27.672C30.607 27.5128 30.8063 27.3087 30.9599 27.0717C31.1136 26.8346 31.2185 26.5694 31.2686 26.2913L31.5132 24.9431C31.2331 24.4806 31.1304 23.9322 31.2242 23.3998Z" fill="#CADEE4"/>
<path id="Vector_13" d="M37.1626 39.2263C37.1626 38.086 36.2382 37.1616 35.0979 37.1616C33.9576 37.1616 33.0332 38.086 33.0332 39.2263V41.291C33.0332 42.4313 33.9576 43.3557 35.0979 43.3557C36.2382 43.3557 37.1626 42.4313 37.1626 41.291V39.2263Z" fill="white"/>
<path id="Vector_14" d="M20.645 28.9031C20.645 27.7628 19.7206 26.8384 18.5803 26.8384C17.44 26.8384 16.5156 27.7628 16.5156 28.9031V30.9677C16.5156 32.108 17.44 33.0324 18.5803 33.0324C19.7206 33.0324 20.645 32.108 20.645 30.9677V28.9031Z" fill="white"/>
<path id="Vector_15" d="M53.2419 22.4861C53.185 22.1711 53.0057 21.8915 52.7431 21.7085C52.4806 21.5254 52.1562 21.4539 51.841 21.5095L51.7543 21.525C51.091 21.6241 50.4137 21.5672 49.7763 21.3588C49.1389 21.1504 48.5588 20.7962 48.0822 20.3244C47.7942 20.0569 47.4578 19.8467 47.0912 19.705C46.6322 19.5271 46.2226 19.2418 45.8968 18.8729C45.5513 18.4777 45.1098 18.1783 44.6148 18.0036C44.1199 17.8289 43.5882 17.7849 43.0712 17.8757C42.8952 17.9095 42.7225 17.9585 42.5551 18.0223C42.0986 17.4585 41.4997 17.0271 40.8203 16.7728C40.141 16.5184 39.406 16.4505 38.6915 16.5759C37.9771 16.7013 37.3092 17.0156 36.7571 17.4861C36.205 17.9566 35.7888 18.5662 35.5517 19.2518C35.3709 19.2494 35.1902 19.2628 35.0118 19.292C34.3003 19.416 33.6559 19.7882 33.1929 20.3423C32.7298 20.8964 32.4781 21.5967 32.4825 22.3189C32.0437 22.6712 31.6833 23.1113 31.4244 23.611C31.1656 24.1108 31.014 24.6591 30.9794 25.2208C30.9413 25.8391 31.044 26.4579 31.2798 27.0308C31.5155 27.6036 31.8782 28.1155 32.3404 28.5279C32.8027 28.9402 33.3525 29.2423 33.9484 29.4114C34.5444 29.5805 35.1709 29.6121 35.7808 29.504C36.5551 29.3687 37.2728 29.0099 37.8455 28.4716C38.4728 27.8579 39.3005 27.4913 40.1766 27.4393H40.223C40.4947 27.4281 40.7659 27.472 41.0203 27.5683C41.2746 27.6646 41.5068 27.8114 41.7031 27.9997C41.8993 28.188 42.0554 28.414 42.1621 28.6642C42.2688 28.9143 42.3238 29.1835 42.3238 29.4554V29.9355C42.3238 30.4831 42.5413 31.0082 42.9286 31.3954C43.3158 31.7826 43.8409 32.0001 44.3885 32.0001C44.9361 32.0001 45.4613 31.7826 45.8485 31.3954C46.2357 31.0082 46.4532 30.4831 46.4532 29.9355V27.9265C46.4494 27.5053 46.5765 27.0932 46.8169 26.7472C47.0572 26.4013 47.3991 26.1384 47.7952 25.995C49.4868 25.3999 51.1181 24.6453 52.6668 23.7414C52.8795 23.616 53.0486 23.4285 53.1514 23.204C53.2542 22.9796 53.2858 22.729 53.2419 22.4861Z" fill="white"/>
<path id="Vector_16" d="M34.0717 25.2207C34.1063 24.659 34.2578 24.1107 34.5167 23.6109C34.7755 23.1112 35.1359 22.6711 35.5748 22.3188C35.5704 21.5967 35.8221 20.8963 36.2851 20.3422C36.7482 19.7881 37.3926 19.416 38.104 19.292C38.2824 19.2628 38.4631 19.2493 38.6439 19.2517C38.8345 18.7094 39.1373 18.2134 39.5325 17.7961C39.9278 17.3788 40.4066 17.0495 40.9378 16.8298C40.4266 16.6164 39.8771 16.5101 39.3232 16.5174C38.7694 16.5248 38.2229 16.6458 37.7176 16.8728C37.2123 17.0998 36.759 17.428 36.3856 17.8372C36.0123 18.2464 35.7268 18.7278 35.5469 19.2517C35.3661 19.2493 35.1854 19.2628 35.007 19.292C34.2956 19.416 33.6511 19.7881 33.1881 20.3422C32.725 20.8963 32.4734 21.5967 32.4777 22.3188C32.0389 22.6711 31.6785 23.1112 31.4196 23.6109C31.1608 24.1107 31.0092 24.659 30.9747 25.2207C30.924 25.9134 31.052 26.6074 31.3464 27.2365C31.6408 27.8655 32.0917 28.4085 32.6559 28.8134C33.2202 29.2184 33.8789 29.4717 34.5691 29.5492C35.2593 29.6267 35.9578 29.5258 36.5978 29.2561C35.8078 28.9319 35.1392 28.3683 34.6861 27.6444C34.233 26.9206 34.0181 26.073 34.0717 25.2207Z" fill="#CADEE4"/>
<path id="Vector_17" d="M23.7414 39.2265C24.8817 39.2265 25.8061 38.3021 25.8061 37.1618C25.8061 36.0216 24.8817 35.0972 23.7414 35.0972C22.6011 35.0972 21.6768 36.0216 21.6768 37.1618C21.6768 38.3021 22.6011 39.2265 23.7414 39.2265Z" fill="white"/>
<path id="Vector_18" d="M47.4856 40.2588C48.6259 40.2588 49.5503 39.3344 49.5503 38.1941C49.5503 37.0538 48.6259 36.1294 47.4856 36.1294C46.3453 36.1294 45.4209 37.0538 45.4209 38.1941C45.4209 39.3344 46.3453 40.2588 47.4856 40.2588Z" fill="white"/>
<path id="Vector_19" d="M52.4618 30.9679C52.2193 30.9677 51.9846 30.8822 51.7988 30.7262C51.6131 30.5703 51.4881 30.354 51.446 30.1152L50.84 26.6971C50.7923 26.4274 50.8538 26.1498 51.0108 25.9255C51.1678 25.7011 51.4075 25.5483 51.6772 25.5006C51.9469 25.453 52.2244 25.5144 52.4488 25.6714C52.6732 25.8284 52.826 26.0682 52.8737 26.3378L53.4797 29.7559C53.5274 30.0252 53.4664 30.3024 53.3101 30.5267C53.1537 30.751 52.9147 30.9041 52.6455 30.9524C52.5848 30.9628 52.5234 30.9679 52.4618 30.9679Z" fill="white"/>
</g>
</g>
</svg>
