<svg width="64" height="64" viewBox="0 0 64 64" fill="none" xmlns="http://www.w3.org/2000/svg">
<g id="Family Care">
<path id="Vector" d="M61.9508 25.3127L61.2205 23.5406C60.0877 24.0075 58.8139 24.0067 57.6789 23.5342L56.9461 23.2291L57.6764 25.0012L58.4092 25.3063C59.5442 25.7788 60.8179 25.7796 61.9508 25.3127Z" fill="#FF4B23"/>
<path id="Vector_2" d="M7.63765 34.3474L5.73142 32.9118C4.81361 34.1304 3.44833 34.9373 1.93254 35.1507L0.953843 35.2885L2.86007 36.7242L3.83877 36.5864C5.35456 36.373 6.71984 35.566 7.63765 34.3474Z" fill="#FF4B23"/>
<path id="Vector_3" d="M50.6751 37.2422H43.8662V43.5267H50.6751V37.2422Z" fill="#FAC1AC"/>
<path id="Vector_4" d="M43.8662 43.5269V37.7422H50.675L43.8662 43.5269Z" fill="#FB9D6E"/>
<path id="Vector_5" d="M56.3877 24.4243C58.0173 24.4243 59.3383 25.7454 59.3383 27.3751C59.3383 29.0047 58.0173 30.3257 56.3877 30.3257" fill="#E68351"/>
<path id="Vector_6" d="M58.3787 17.2148V26.0544C58.3787 27.1114 57.5982 27.9862 56.5826 28.1348L49.8531 28.1205L47.4186 28.1154L37.5556 28.0947C36.5052 27.8465 35.7207 26.9033 35.7207 25.7765V19.8753C35.7207 13.315 41.0871 7.80529 47.6472 7.82329H47.6641C48.5518 7.82466 49.3323 8.27941 49.7883 8.96679C49.8103 8.96679 49.8311 8.96679 49.8531 8.96804C54.3821 9.00316 58.3787 12.682 58.3787 17.2148Z" fill="#566B74"/>
<path id="Vector_7" d="M58.3781 24.3113V26.0545C58.3781 27.1115 57.5976 27.9862 56.582 28.1348L49.8525 28.1206L49.5114 28.1155L49.4829 16.7483C49.4829 16.7483 48.8499 15.2778 50.1857 15.2778H52.7094C54.569 15.2778 56.0766 16.7855 56.0766 18.6451V19.7863C56.0767 21.5758 56.932 23.2575 58.3781 24.3113Z" fill="#3A5153"/>
<path id="Vector_8" d="M37.7104 30.3262C36.0808 30.3262 34.7598 29.0051 34.7598 27.3756C34.7598 25.7459 36.0808 24.4248 37.7104 24.4248" fill="#FB9D6E"/>
<path id="Vector_9" d="M49.5118 25.7327L49.5196 28.0947H37.5556C36.5052 27.8465 35.7207 26.9033 35.7207 25.7765V19.8753C35.7207 19.2357 35.7711 18.6064 35.8706 17.9913C35.8718 17.9874 35.8718 17.9835 35.8718 17.9809C35.8718 17.9795 35.8718 17.9783 35.8718 17.9783C36.7855 12.2864 41.7305 7.80641 47.6472 7.82329H47.6641C48.5518 7.82466 49.3323 8.27942 49.7883 8.96679C49.791 8.96679 49.8272 9.03916 49.8866 9.16579C51.0405 11.5989 50.888 14.4507 49.4833 16.7482L49.5118 25.7327Z" fill="#3A5153"/>
<path id="Vector_10" d="M49.512 25.7328L45.6717 28.0948H37.5556C36.5052 27.8467 35.7207 26.9034 35.7207 25.7767V19.8754C35.7207 19.2358 35.7711 18.6065 35.8706 17.9914C35.8565 18.2834 35.6316 23.2375 36.8022 22.6342C38.009 22.0127 38.5931 19.3418 42.436 19.2565C46.2787 19.1699 47.6071 19.1505 49.4833 16.7485L49.512 25.7328Z" fill="#24444B"/>
<path id="Vector_11" d="M43.341 20.5142H44.04C46.4617 20.5142 48.6299 19.014 49.4837 16.748L51.9378 16.7655C53.6089 16.7655 54.9639 18.1203 54.9639 19.7915V21.1305C54.9639 22.0797 55.2494 23.0068 55.7835 23.7914C56.3177 24.5759 56.6034 25.5032 56.6034 26.4523V28.919C56.6034 34.1733 52.344 38.4327 47.0898 38.4327C41.8357 38.4327 37.5762 34.1733 37.5762 28.919V26.9642V26.2792C37.5758 23.0953 40.157 20.5142 43.341 20.5142Z" fill="#FAC1AC"/>
<path id="Vector_12" d="M50.1393 28.2204H50.1923C50.3856 28.2204 50.5536 28.1054 50.6461 27.9355C50.7475 27.749 50.9453 27.6222 51.172 27.6222C51.3989 27.6222 51.5965 27.749 51.6981 27.9355C51.7904 28.1054 51.9584 28.2204 52.152 28.2204H52.205C52.5865 28.2204 52.8485 27.8204 52.6795 27.4783C52.405 26.9229 51.8325 26.54 51.172 26.54C50.5119 26.54 49.9393 26.9229 49.6646 27.4783C49.4956 27.8203 49.7576 28.2204 50.1393 28.2204Z" fill="#203031"/>
<path id="Vector_13" d="M47.2948 33.2621C46.339 33.2621 45.4464 32.7746 44.9232 31.9924C44.7938 31.799 44.5465 31.7235 44.3365 31.8238C44.0834 31.9445 43.9962 32.2616 44.1517 32.4953C44.8434 33.5346 46.027 34.1831 47.2949 34.1831C48.5618 34.1831 49.7454 33.5348 50.4378 32.4953C50.5933 32.262 50.5064 31.9448 50.2534 31.8238H50.2533C50.0433 31.7234 49.7962 31.7986 49.6667 31.992C49.1425 32.7743 48.2499 33.2621 47.2948 33.2621Z" fill="#E68351"/>
<path id="Vector_14" d="M43.4162 26.54C42.756 26.54 42.1833 26.9229 41.9088 27.4783C41.7397 27.8203 42.0018 28.2204 42.3833 28.2204H42.4363C42.6298 28.2204 42.7978 28.1054 42.8902 27.9355C42.9917 27.749 43.1895 27.6222 43.4162 27.6222C43.643 27.6222 43.8407 27.749 43.9422 27.9355C44.0346 28.1054 44.2026 28.2204 44.3962 28.2204H44.4491C44.8306 28.2204 45.0927 27.8204 44.9236 27.4783C44.6491 26.9229 44.0765 26.54 43.4162 26.54Z" fill="#203031"/>
<g id="Group">
<path id="Vector_15" d="M63.2996 50.9102V56.1279L31.2568 61.628V50.9102C31.2568 47.8387 32.8138 45.0684 35.2522 43.4414C35.4202 43.3278 35.5921 43.2218 35.7691 43.1198C36.5276 42.6856 37.3611 42.3562 38.2488 42.1546L41.1108 41.5059L41.6277 41.3896L42.2932 41.2384L43.885 40.8779L44.9317 41.4334L46.9695 42.5137L47.184 42.6274L47.4863 42.4763L48.9813 41.7256L50.6702 40.8779L52.3255 41.2526L52.8281 41.3662L53.0812 41.4244L53.3448 41.4839L56.3063 42.1546C57.1566 42.3471 57.9563 42.6572 58.6878 43.0654C58.8648 43.1623 59.0367 43.2658 59.2047 43.3756C61.7012 44.9947 63.2996 47.7974 63.2996 50.9102Z" fill="#15D2D5"/>
<path id="Vector_16" d="M47.2166 42.5945L43.9291 41.8003L43.8848 47.0699L47.2166 43.5465L50.7029 47.0369V41.7969L47.2166 42.5945Z" fill="#118183"/>
<path id="Vector_17" d="M47.4866 45.6887V58.8374L46.9697 58.9258V45.6887C46.9697 45.5083 47.0876 45.3628 47.2318 45.3653C47.373 45.3678 47.4866 45.5119 47.4866 45.6887Z" fill="#118183"/>
<path id="Vector_18" d="M56.9466 50.3351V57.1946L56.4297 57.2872V50.3351C56.4297 50.1909 56.5476 50.0746 56.6918 50.0767C56.8332 50.0787 56.9466 50.1937 56.9466 50.3351Z" fill="#118183"/>
<path id="Vector_19" d="M43.8848 40.8779V46.1179L47.2166 42.5946L43.8848 40.8779Z" fill="#01A4AE"/>
<path id="Vector_20" d="M50.703 40.8452V46.0852L47.2168 42.5947L50.703 40.8452Z" fill="#01A4AE"/>
</g>
<g id="Group_2">
<path id="Vector_21" d="M30.5399 48.7084L30.8464 48.7052C32.2532 47.3784 33.1314 45.4963 33.1314 43.41C33.1314 41.1028 32.0577 39.0454 30.3823 37.7107C29.6162 37.1012 29.1654 36.1797 29.1654 35.2003V21.9563C29.1654 15.1878 23.6271 9.54966 16.8587 9.60291C16.8087 9.60291 16.7587 9.60404 16.7088 9.60616C13.4344 9.67066 10.4766 11.0229 8.32132 13.178C6.1107 15.3877 4.74507 18.4399 4.74507 21.8119V35.139C4.74507 36.1284 4.2842 37.0598 3.5037 37.6705C1.79607 39.002 0.700195 41.0783 0.700195 43.4099C0.700195 45.4595 1.54845 47.3094 2.91095 48.6308L30.5399 48.7084Z" fill="#566B74"/>
<path id="Vector_22" d="M2.91082 48.6309C1.54845 47.3097 0.700195 45.4598 0.700195 43.4101C0.700195 41.0784 1.7962 39.0021 3.50382 37.6708C4.28432 37.0601 4.7452 36.1287 4.7452 35.1393V21.8122C4.7452 18.4401 6.11095 15.3878 8.32145 13.1783C10.4766 11.0232 13.4344 9.67082 16.7089 9.60645V48.6309" fill="#3A5153"/>
<path id="Vector_23" d="M19.6763 47.6985H14.1552C10.5189 47.6985 7.57129 44.7508 7.57129 41.1147V28.4771H26.2602V41.1147C26.2602 44.7508 23.3125 47.6985 19.6763 47.6985Z" fill="#24444B"/>
<path id="Vector_24" d="M29.6642 46.2238V46.2881C29.6642 46.2881 28.9846 46.7443 27.7793 47.2478C26.3072 47.8589 24.0517 48.5398 21.2901 48.5398H2.83594C3.29594 47.2964 4.04244 46.2054 4.99544 45.3379C5.94694 44.4705 7.10506 43.8276 8.38381 43.4846L8.68481 43.4044L13.8163 42.2411V39.4111L19.9941 39.4125V42.2411L25.1268 43.4044C26.9657 43.8209 28.5402 44.8396 29.6642 46.2238Z" fill="#FAC1AC"/>
<path id="Vector_25" d="M29.6642 46.2236V46.288C29.6642 46.288 28.9845 46.7441 27.7793 47.2476C25.3543 44.9671 19.729 44.6078 19.729 44.6078L19.0997 44.5888C18.2994 44.5646 17.6632 43.9089 17.6632 43.108C17.6632 42.3685 17.1178 41.7423 16.385 41.6408L14.9433 41.0621C14.2678 40.7909 13.8228 40.139 13.8164 39.4111L19.9942 39.4125V42.2411L25.1269 43.4044C26.9657 43.8208 28.5402 44.8395 29.6642 46.2236Z" fill="#E68351"/>
<path id="Vector_26" d="M16.7444 16.9185L16.5853 17.6593C16.0954 19.9387 14.3899 21.7628 12.1488 22.4047C9.43891 23.1807 7.57129 25.6583 7.57129 28.4771V29.0441V30.8846C7.57129 31.207 7.58754 31.5255 7.61941 31.8395C7.84266 34.0386 8.82841 36.0122 10.3083 37.4921C11.9904 39.1742 14.3109 40.218 16.8758 40.2291H16.9157C21.7542 40.2291 25.7337 36.5517 26.2119 31.8395C26.2438 31.5255 26.2602 31.207 26.2602 30.8846V28.804V28.4641C26.2602 25.634 24.3777 23.1493 21.6533 22.3833L21.3979 22.3116C19.268 21.7128 17.6067 20.0433 17.0184 17.9106L16.7444 16.9185Z" fill="#FAC1AC"/>
<path id="Vector_27" d="M26.2602 26.4733V28.4642C26.2602 25.634 24.3782 23.1491 21.6534 22.3841L21.398 22.312C19.2684 21.7135 17.6063 20.0436 17.0178 17.9106L16.7447 16.9191L16.5848 17.6596C16.0952 19.9391 14.3895 21.7633 12.149 22.4051C10.7933 22.7926 9.64979 23.6065 8.84366 24.6757C8.03766 25.7438 7.57129 27.0673 7.57129 28.4775V26.4867C7.57129 25.0777 8.03754 23.7531 8.84366 22.6838C9.64979 21.6157 10.7934 20.803 12.149 20.4143C14.3897 19.7726 15.807 18.3213 16.4949 16.0336L16.5178 15.9325C16.577 15.6707 16.9468 15.6622 17.0179 15.9208C17.6064 18.0527 19.2685 19.7226 21.3982 20.3211L21.6535 20.3933C24.3783 21.1593 26.2602 23.6442 26.2602 26.4733Z" fill="#24444B"/>
<path id="Vector_28" d="M31.5043 51.3759V56.1277H2.32715V51.3759C2.32715 50.3849 2.50602 49.4281 2.8359 48.5396H21.29C26.3136 48.5396 29.6641 46.2879 29.6641 46.2879V46.2104C29.9625 46.5758 30.2293 46.9662 30.4606 47.3789C31.1284 48.5684 31.5043 49.9367 31.5043 51.3759Z" fill="#FFBE42"/>
<path id="Vector_29" d="M31.5046 51.3759V61.7729L5.33496 56.1277V51.3759C5.33496 50.3849 5.51371 49.4281 5.84359 48.5396H21.2903C26.314 48.5396 29.6645 46.2879 29.6645 46.2879V46.2104C29.9628 46.5758 30.2296 46.9662 30.461 47.3789C31.1287 48.5684 31.5046 49.9367 31.5046 51.3759Z" fill="#FFAA07"/>
<path id="Vector_30" d="M19.7602 29.9987H19.8132C20.0067 29.9987 20.1747 29.8837 20.2672 29.7137C20.3687 29.5272 20.5665 29.4004 20.7932 29.4004C21.02 29.4004 21.2177 29.5272 21.3192 29.7137C21.4116 29.8836 21.5796 29.9987 21.773 29.9987H21.826C22.2076 29.9987 22.4696 29.5987 22.3006 29.2566C22.0261 28.7012 21.4536 28.3184 20.7932 28.3184C20.1329 28.3184 19.5604 28.7012 19.2857 29.2566C19.1167 29.5987 19.3787 29.9987 19.7602 29.9987Z" fill="#203031"/>
<path id="Vector_31" d="M16.9158 35.0406C15.9601 35.0406 15.0674 34.5531 14.5441 33.7707C14.4147 33.5773 14.1676 33.502 13.9577 33.6021C13.7047 33.723 13.6173 34.0402 13.7727 34.2737C14.4644 35.3131 15.6481 35.9615 16.9159 35.9615C18.1828 35.9615 19.3664 35.3131 20.0588 34.2737C20.2143 34.0403 20.1274 33.7231 19.8744 33.6021H19.8743C19.6643 33.5017 19.4172 33.577 19.2877 33.7703C18.7636 34.5528 17.8709 35.0406 16.9158 35.0406Z" fill="#E68351"/>
<path id="Vector_32" d="M13.0373 28.3184C12.3771 28.3184 11.8046 28.7012 11.5299 29.2566C11.3608 29.5986 11.6229 29.9987 12.0044 29.9987H12.0574C12.2509 29.9987 12.4189 29.8837 12.5113 29.7137C12.6128 29.5272 12.8106 29.4004 13.0373 29.4004C13.2641 29.4004 13.4618 29.5272 13.5633 29.7137C13.6557 29.8836 13.8238 29.9987 14.0172 29.9987H14.0702C14.4518 29.9987 14.7137 29.5987 14.5447 29.2566C14.2702 28.7012 13.6976 28.3184 13.0373 28.3184Z" fill="#203031"/>
</g>
<g id="Group_3">
<path id="Vector_33" d="M26.8743 44.4338H26.7007C24.4082 44.4338 22.5498 42.5754 22.5498 40.2829V33.4466C22.5498 28.1851 26.7582 23.8239 32.0196 23.7849C37.3229 23.7456 41.6342 28.0327 41.6342 33.3267V40.2829C41.6342 42.5754 39.7758 44.4338 37.4833 44.4338" fill="#203031"/>
<g id="Group_4">
<path id="Vector_34" d="M39.2415 26.1813C38.8047 28.9002 27.7598 27.1259 28.1966 24.407L35.2096 14.8788C35.306 14.7479 35.5102 14.7806 35.5608 14.9352L39.2415 26.1813Z" fill="#FF4B23"/>
<path id="Vector_35" d="M35.7457 23.3322C36.3318 23.4263 36.8833 23.0275 36.9775 22.4413C37.0717 21.8552 36.6728 21.3037 36.0867 21.2096C35.5006 21.1154 34.9491 21.5142 34.8549 22.1004C34.7607 22.6865 35.1596 23.238 35.7457 23.3322Z" fill="#FFBE42"/>
<path id="Vector_36" d="M31.487 25.6256C32.4729 25.784 33.4005 25.1131 33.5589 24.1272C33.7173 23.1413 33.0464 22.2137 32.0605 22.0553C31.0746 21.8969 30.147 22.5678 29.9886 23.5537C29.8302 24.5396 30.5011 25.4672 31.487 25.6256Z" fill="#FFBE42"/>
<path id="Vector_37" d="M34.3217 26.8454C34.7852 26.9198 35.2214 26.6044 35.2959 26.1408C35.3704 25.6772 35.0549 25.2411 34.5913 25.1666C34.1278 25.0921 33.6916 25.4075 33.6171 25.8711C33.5426 26.3347 33.8581 26.7709 34.3217 26.8454Z" fill="#FFBE42"/>
<path id="Vector_38" d="M37.2363 25.9204C37.7202 25.9981 38.1754 25.6689 38.2532 25.185C38.3309 24.7011 38.0016 24.2458 37.5178 24.1681C37.0339 24.0904 36.5786 24.4196 36.5009 24.9035C36.4231 25.3874 36.7524 25.8427 37.2363 25.9204Z" fill="#FFBE42"/>
<path id="Vector_39" d="M35.063 18.7829C35.4711 18.8485 35.855 18.5708 35.9205 18.1628C35.9861 17.7547 35.7084 17.3708 35.3004 17.3052C34.8923 17.2397 34.5084 17.5173 34.4428 17.9254C34.3773 18.3334 34.6549 18.7174 35.063 18.7829Z" fill="#FFBE42"/>
<path id="Vector_40" d="M33.3862 21.5329C33.7943 21.5985 34.1782 21.3208 34.2438 20.9128C34.3093 20.5047 34.0317 20.1208 33.6236 20.0552C33.2156 19.9897 32.8316 20.2673 32.7661 20.6754C32.7005 21.0834 32.9782 21.4674 33.3862 21.5329Z" fill="#FFBE42"/>
</g>
<g id="Group_5">
<path id="Vector_41" d="M19.49 11.9695C20.6883 14.9716 8.49315 19.8398 7.29476 16.8377L8.62426 2.94644C8.63975 2.78453 8.83176 2.70784 8.95453 2.81453L19.49 11.9695Z" fill="#15D2D4"/>
<path id="Vector_42" d="M14.2529 11.2055C14.9001 10.9471 15.2153 10.213 14.9569 9.56586C14.6986 8.91868 13.9645 8.60347 13.3173 8.86181C12.6702 9.12016 12.3549 9.85424 12.6133 10.5014C12.8716 11.1486 13.6057 11.4638 14.2529 11.2055Z" fill="#01A4AE"/>
<path id="Vector_43" d="M11.3435 16.0825C12.4321 15.648 12.9623 14.4133 12.5278 13.3247C12.0932 12.2361 10.8585 11.7059 9.76988 12.1404C8.6813 12.575 8.1511 13.8097 8.58564 14.8983C9.02019 15.9869 10.2549 16.5171 11.3435 16.0825Z" fill="#01A4AE"/>
<path id="Vector_44" d="M14.9333 15.6038C15.4452 15.3994 15.6945 14.8188 15.4902 14.307C15.2859 13.7951 14.7053 13.5458 14.1934 13.7502C13.6815 13.9545 13.4322 14.5351 13.6366 15.0469C13.8409 15.5588 14.4215 15.8081 14.9333 15.6038Z" fill="#01A4AE"/>
<path id="Vector_45" d="M17.313 12.9149C17.8473 12.7016 18.1075 12.0956 17.8942 11.5613C17.681 11.027 17.0749 10.7668 16.5406 10.98C16.0064 11.1933 15.7461 11.7993 15.9594 12.3336C16.1727 12.8679 16.7787 13.1281 17.313 12.9149Z" fill="#01A4AE"/>
<path id="Vector_46" d="M10.8226 7.03447C11.2731 6.85461 11.4926 6.34356 11.3127 5.89301C11.1329 5.44245 10.6218 5.223 10.1713 5.40286C9.72072 5.58271 9.50127 6.09376 9.68113 6.54432C9.86098 6.99488 10.372 7.21432 10.8226 7.03447Z" fill="#01A4AE"/>
<path id="Vector_47" d="M10.7904 10.8162C11.2409 10.6363 11.4604 10.1253 11.2805 9.67474C11.1007 9.22419 10.5896 9.00474 10.139 9.1846C9.68849 9.36445 9.46904 9.8755 9.6489 10.3261C9.82875 10.7766 10.3398 10.9961 10.7904 10.8162Z" fill="#01A4AE"/>
</g>
<g id="Group_6">
<path id="Vector_48" d="M46.4436 12.0535C45.2453 15.0556 57.4404 19.9238 58.6388 16.9217L57.3093 3.03043C57.2938 2.86851 57.1018 2.79183 56.9791 2.89851L46.4436 12.0535Z" fill="#FFBE42"/>
<path id="Vector_49" d="M51.6807 11.2895C51.0335 11.0311 50.7183 10.297 50.9767 9.64985C51.235 9.00267 51.9691 8.68745 52.6163 8.9458C53.2634 9.20414 53.5787 9.93822 53.3203 10.5854C53.062 11.2326 52.3279 11.5478 51.6807 11.2895Z" fill="#FFAA07"/>
<path id="Vector_50" d="M54.5901 16.1665C53.5015 15.732 52.9713 14.4972 53.4058 13.4087C53.8404 12.3201 55.0751 11.7899 56.1637 12.2244C57.2523 12.659 57.7825 13.8937 57.3479 14.9823C56.9134 16.0709 55.6787 16.6011 54.5901 16.1665Z" fill="#FFAA07"/>
<path id="Vector_51" d="M51.0003 15.6877C50.4884 15.4834 50.2391 14.9028 50.4434 14.391C50.6477 13.8791 51.2283 13.6298 51.7402 13.8341C52.252 14.0385 52.5014 14.619 52.297 15.1309C52.0927 15.6428 51.5121 15.8921 51.0003 15.6877Z" fill="#FFAA07"/>
<path id="Vector_52" d="M48.6206 12.9988C48.0863 12.7856 47.8261 12.1795 48.0394 11.6453C48.2526 11.111 48.8587 10.8507 49.3929 11.064C49.9272 11.2773 50.1875 11.8833 49.9742 12.4176C49.7609 12.9519 49.1549 13.2121 48.6206 12.9988Z" fill="#FFAA07"/>
<path id="Vector_53" d="M55.111 7.11845C54.6604 6.93859 54.441 6.42755 54.6209 5.97699C54.8007 5.52643 55.3118 5.30699 55.7623 5.48684C56.2129 5.6667 56.4323 6.17775 56.2525 6.6283C56.0726 7.07886 55.5616 7.29831 55.111 7.11845Z" fill="#FFAA07"/>
<path id="Vector_54" d="M55.1432 10.9002C54.6927 10.7203 54.4732 10.2093 54.6531 9.75873C54.8329 9.30817 55.344 9.08873 55.7945 9.26858C56.2451 9.44844 56.4645 9.95949 56.2847 10.41C56.1048 10.8606 55.5938 11.08 55.1432 10.9002Z" fill="#FFAA07"/>
</g>
<path id="Vector_55" d="M25.8241 31.8241L26.8427 32.8427C27.0275 33.0275 27.327 33.0275 27.5117 32.8427C27.6965 32.658 27.6965 32.3584 27.5117 32.1737L26.4931 31.1551C26.3084 30.9703 26.0089 30.9703 25.8241 31.1551C25.6394 31.3398 25.6394 31.6393 25.8241 31.8241ZM28.5289 31.1567L27.5102 30.1381C27.3255 29.9533 27.026 29.9533 26.8412 30.1381C26.6565 30.3228 26.6565 30.6223 26.8412 30.8071L27.8599 31.8257C28.0446 32.0105 28.3441 32.0105 28.5289 31.8257C28.7136 31.6408 28.7136 31.3413 28.5289 31.1567Z" fill="#FF4B23"/>
<path id="Vector_56" d="M34.4171 42.9478H29.6553V47.632H34.4171V42.9478Z" fill="#FAC1AC"/>
<path id="Vector_57" d="M29.6553 47.6319V43.5737L34.4176 43.5745L29.6553 47.6319Z" fill="#E68351"/>
<path id="Vector_58" d="M37.0048 31.8051C37.2146 33.5499 38.4001 34.7222 39.1699 35.3114C39.6136 35.6507 39.8458 36.1997 39.7819 36.7546C39.3139 40.8167 36.0251 43.9641 32.0376 43.9641C28.3214 43.9641 25.2122 41.2306 24.4273 37.5707C24.2291 36.6462 24.8784 35.7521 25.8188 35.6522C28.2598 35.3929 32.9178 34.4872 35.3736 31.3257C35.6084 31.0235 36.0132 30.9101 36.3723 31.0424L36.4312 31.064C36.7484 31.1809 36.9646 31.4694 37.0048 31.8051Z" fill="#FAC1AC"/>
<path id="Vector_59" d="M32.0361 41.4404C31.2489 41.4404 30.5137 41.0388 30.0829 40.3947C29.9762 40.2354 29.7729 40.1733 29.5999 40.2559H29.5997C29.3912 40.3553 29.3196 40.6167 29.4475 40.8089C30.0171 41.6652 30.992 42.199 32.0361 42.199C33.0795 42.199 34.0544 41.6652 34.6245 40.8089C34.7525 40.6168 34.681 40.3555 34.4726 40.2559C34.2997 40.1732 34.0961 40.2352 33.9895 40.3943C33.5579 41.0389 32.8227 41.4404 32.0361 41.4404Z" fill="#E68351"/>
<path id="Vector_60" d="M29.5027 36.9463C29.2629 36.9463 29.0684 37.1408 29.0684 37.3807V37.902C29.0684 38.1419 29.2629 38.3364 29.5027 38.3364C29.7426 38.3364 29.9371 38.1419 29.9371 37.902V37.3807C29.9371 37.1408 29.7426 36.9463 29.5027 36.9463ZM34.5696 38.3364C34.8094 38.3364 35.004 38.1419 35.004 37.902V37.3807C35.004 37.1408 34.8094 36.9463 34.5696 36.9463C34.3296 36.9463 34.1352 37.1408 34.1352 37.3807V37.902C34.1354 38.1419 34.3297 38.3364 34.5696 38.3364Z" fill="#6D7579"/>
<g id="Group_7">
<path id="Vector_61" d="M43.2803 52.5146V56.177H20.7939V52.5146C20.7939 50.1521 22.1077 48.042 24.1114 46.9646C24.6028 46.7009 25.1364 46.4984 25.7014 46.3709L26.8189 46.1184V46.117L29.1102 45.5984L29.6564 45.4746C29.6564 45.4746 30.3289 46.7121 32.0913 46.7121C33.8539 46.7121 34.4176 45.4746 34.4176 45.4746L35.0602 45.6209L37.4288 46.1571L38.3727 46.3709C38.9801 46.5084 39.5502 46.7309 40.0714 47.0259C42.0139 48.1196 43.2803 50.1946 43.2803 52.5146Z" fill="#FF4B23"/>
<path id="Vector_62" d="M24.1105 46.9646L24.1117 46.9634V60.0341L20.793 56.177V52.5146C20.793 50.1521 22.1066 48.042 24.1105 46.9646ZM43.2792 52.5146V56.177L40.0717 60.0341V47.0271C42.0128 48.1209 43.2792 50.1946 43.2792 52.5146Z" fill="#FF4B23"/>
<path id="Vector_63" d="M40.0716 47.0257L40.0715 62.9601H24.1113L24.1115 46.9644C24.6029 46.7007 25.1365 46.4982 25.7015 46.3707L26.819 46.1182V50.833H37.429V46.1569L38.3729 46.3707C38.9804 46.508 39.5504 46.7307 40.0716 47.0257Z" fill="#FFBE42"/>
<path id="Vector_64" d="M37.4168 50.833H26.8193V51.3194H37.4168V50.833Z" fill="#EA9807"/>
<path id="Vector_65" d="M26.8188 48.5859H24.1113V49.0859H26.8188V48.5859Z" fill="#FFAA07"/>
<path id="Vector_66" d="M40.0723 48.5859H37.4297V49.0859H40.0723V48.5859Z" fill="#FFAA07"/>
<path id="Vector_67" d="M40.0715 55.7461H24.1113V56.1772H40.0715V55.7461Z" fill="#FFAA07"/>
<path id="Vector_68" d="M40.0715 52.2983H24.1113V52.7983H40.0715V52.2983Z" fill="#FFAA07"/>
<path id="Vector_69" d="M35.0605 45.6209C34.4567 46.6285 33.353 47.3034 32.0916 47.3034C30.8204 47.3034 29.7104 46.6185 29.1104 45.5984L29.6566 45.4746C29.6566 45.4746 30.3291 46.7121 32.0915 46.7121C33.8541 46.7121 34.4177 45.4746 34.4177 45.4746L35.0605 45.6209Z" fill="#D22B06"/>
</g>
</g>
<path id="Vector_70" d="M29.6422 8.55504L28.4549 5.67401C26.6131 6.43302 24.5422 6.43181 22.6969 5.66358L21.5055 5.16755L22.6928 8.04859L23.8842 8.54461C25.7295 9.31285 27.8004 9.31406 29.6422 8.55504Z" fill="#FF4B23"/>
<path id="Vector_71" d="M37.5065 9.46889L34.66 8.16242C33.8248 9.98217 32.3005 11.3995 30.4168 12.098L29.2005 12.549L32.0471 13.8555L33.2633 13.4045C35.147 12.7059 36.6713 11.2886 37.5065 9.46889Z" fill="#FFBE42"/>
<path id="Vector_72" d="M58.7637 49.4723L56.791 47.7789C55.7085 49.04 54.168 49.8223 52.5052 49.949L51.4315 50.0308L53.4042 51.7242L54.4779 51.6424C56.1407 51.5157 57.6811 50.7334 58.7637 49.4723Z" fill="#FFBE42"/>
<path id="Vector_73" d="M53.2549 34.7002L55.8559 32.9842C56.9529 34.6471 58.6666 35.8097 60.6247 36.2112L61.8889 36.4704L59.2879 38.1863L58.0236 37.9271C56.0655 37.5257 54.3519 36.363 53.2549 34.7002Z" fill="#15D2D4"/>
<path id="Vector_74" d="M7.32129 47.6987L9.92235 45.9828C11.0193 47.6456 12.733 48.8083 14.6911 49.2097L15.9553 49.4689L13.3543 51.1849L12.09 50.9257C10.1319 50.5242 8.41828 49.3615 7.32129 47.6987Z" fill="#15D2D4"/>
<path id="Vector_75" d="M7.79883 22.8506L4.77626 22.0929C4.29187 24.0252 3.05998 25.6897 1.34535 26.717L0.238267 27.3803L3.26083 28.138L4.36792 27.4747C6.08254 26.4475 7.31443 24.7829 7.79883 22.8506Z" fill="#15D2D4"/>
</g>
</svg>
