<svg width="64" height="64" viewBox="0 0 64 64" fill="none" xmlns="http://www.w3.org/2000/svg">
<g id="Party">
<g id="Group 801">
<path id="Vector" d="M36.8623 21.6501H54.446C57.8403 16.3972 57.9071 9.65312 54.6129 4.3335L54.446 4.06641H54.279C47.2233 4.06641 40.98 8.64039 38.8432 15.3734L36.8623 21.6501Z" fill="#F8C460"/>
<path id="Vector_2" d="M41.3473 10.5103C40.2677 11.9459 39.4108 13.5818 38.8432 15.3625L36.8623 21.6503H54.446C54.9468 20.8713 55.3808 20.0477 55.7369 19.2131C51.8752 14.9062 46.8561 11.9125 41.3473 10.5103Z" fill="#F1B44F"/>
<path id="Vector_3" d="M36.8623 21.6501H54.446C57.8403 16.3972 57.9071 9.65312 54.6129 4.3335L54.446 4.06641L36.8623 21.6501Z" fill="#E0F3F5"/>
<path id="Vector_4" d="M27.2909 21.6501H9.7072C6.30175 16.3972 6.23498 9.65312 9.54026 4.3335L9.7072 4.06641H9.87413C16.9299 4.06641 23.1732 8.64039 25.3099 15.3734L27.2909 21.6501Z" fill="#F8C460"/>
<path id="Vector_5" d="M25.2989 15.3732C24.7314 13.5926 23.8744 11.9566 22.7949 10.521C17.2861 11.9121 12.267 14.9058 8.40527 19.2127C8.7614 20.0473 9.19543 20.8709 9.69623 21.6499H27.2799L25.2989 15.3732Z" fill="#F1B44F"/>
<path id="Vector_6" d="M27.2909 21.6501H9.7072C6.30175 16.3972 6.23498 9.65312 9.54026 4.3335L9.7072 4.06641L27.2909 21.6501Z" fill="#E0F3F5"/>
<path id="Vector_7" d="M45.02 57.752C41.1694 59.1877 37.0962 59.9333 32.9897 59.9333H31.1757C27.0691 59.9333 22.9848 59.1988 19.1453 57.752C10.1086 54.38 4.14355 45.7662 4.14355 36.1397C4.14355 30.5307 6.18014 25.1221 9.88607 20.9042C14.9275 15.1506 22.2169 11.8564 29.8625 11.8564H34.2695C41.9262 11.8564 49.2045 15.1506 54.257 20.9042C57.9629 25.1221 59.9995 30.5307 59.9995 36.1397C60.0106 45.7662 54.0344 54.38 45.02 57.752Z" fill="#FFBE42"/>
<path id="Vector_8" d="M32.0765 30.2192C30.6965 30.2192 29.4167 30.9426 28.7156 32.1334L27.7808 33.7026C27.0574 34.9268 25.733 35.6724 24.3197 35.6724C22.0939 35.6724 20.291 37.4753 20.291 39.7011V58.1528C23.7966 59.3213 27.4803 59.9223 31.1751 59.9223H32.9891C36.695 59.9223 40.3676 59.3213 43.8732 58.1528V39.7011C43.8732 37.4753 42.0703 35.6724 39.8445 35.6724C38.42 35.6724 37.1068 34.9268 36.3834 33.7026L35.4486 32.1334C34.7252 30.9426 33.4565 30.2192 32.0765 30.2192Z" fill="#FFDD9B"/>
<path id="Vector_9" d="M29.2948 11.8676C29.2948 16.1633 30.5413 19.6467 32.0771 19.6467C33.6128 19.6467 34.8593 16.1633 34.8593 11.8676C34.6701 11.8676 34.4698 11.8564 34.2806 11.8564H29.8735C29.6732 11.8564 29.484 11.8564 29.2948 11.8676ZM26.6795 17.8327C27.5365 17.5211 27.4363 15.0171 26.4903 12.0679C25.2773 12.2237 24.0865 12.4574 22.918 12.7801C24.1199 15.9185 25.767 18.1665 26.6795 17.8327ZM37.6526 12.079C36.7067 15.0282 36.6065 17.5322 37.4634 17.8438C38.376 18.1777 40.0342 15.9296 41.225 12.7913C40.0565 12.4685 38.8657 12.2237 37.6526 12.079Z" fill="#FF7E07"/>
<path id="Vector_10" d="M32.6666 32.4453H31.5537V39.1227H32.6666V32.4453Z" fill="#C06A3E"/>
<path id="Vector_11" d="M14.055 40.5345L17.4235 39.6922C17.7217 39.6176 17.9029 39.3155 17.8284 39.0174C17.7538 38.7192 17.4517 38.538 17.1535 38.6125L13.785 39.4549C13.4869 39.5294 13.3057 39.8316 13.3802 40.1297C13.4548 40.4278 13.7569 40.6091 14.055 40.5345Z" fill="#C06A3E"/>
<path id="Vector_12" d="M17.4162 36.1084L14.0476 35.2663C13.7495 35.1918 13.4474 35.373 13.3729 35.6712C13.2983 35.9693 13.4796 36.2714 13.7778 36.346L17.1463 37.188C17.4445 37.2626 17.7466 37.0813 17.8211 36.7831C17.8956 36.485 17.7144 36.1829 17.4162 36.1084Z" fill="#C06A3E"/>
<path id="Vector_13" d="M32.7228 30.2192H31.4207C30.5527 30.2192 29.8516 30.9204 29.8516 31.7884C29.8516 32.2113 30.0185 32.6008 30.3078 32.9013L32.0773 34.6708L33.8468 32.9013C34.1473 32.6008 34.3031 32.2113 34.3031 31.7884C34.3031 30.9204 33.5909 30.2192 32.7228 30.2192Z" fill="#F86545"/>
<path id="Vector_14" d="M27.7373 31.8886C27.7373 32.1959 27.4882 32.445 27.1809 32.445C26.8735 32.445 26.6244 32.1959 26.6244 31.8886V30.2192C26.6244 29.2955 25.8788 28.5499 24.9551 28.5499C24.0314 28.5499 23.2857 29.2955 23.2857 30.2192V31.8886C23.2857 32.1959 23.0366 32.445 22.7293 32.445C22.422 32.445 22.1729 32.1959 22.1729 31.8886V30.2192C22.1729 28.6834 23.4193 27.437 24.9551 27.437C26.4909 27.437 27.7373 28.6834 27.7373 30.2192V31.8886ZM41.9823 31.8886C41.9823 32.1959 41.7332 32.445 41.4259 32.445C41.1185 32.445 40.8694 32.1959 40.8694 31.8886V30.2192C40.8694 29.2955 40.1238 28.5499 39.2001 28.5499C38.2764 28.5499 37.5307 29.2955 37.5307 30.2192V31.8886C37.5307 32.1959 37.2816 32.445 36.9743 32.445C36.667 32.445 36.4179 32.1959 36.4179 31.8886V30.2192C36.4179 28.6834 37.6643 27.437 39.2001 27.437C40.7359 27.437 41.9823 28.6834 41.9823 30.2192V31.8886Z" fill="#C06A3E"/>
<path id="Vector_15" d="M4.59986 40.736C4.83357 41.9156 5.16743 43.0619 5.5792 44.1748C8.45046 43.0063 10.4314 41.4816 10.1198 40.6247C9.81931 39.7789 7.44886 39.8568 4.59986 40.736ZM10.1198 34.7375C10.4648 33.8027 8.06095 32.0666 4.75566 30.8646C4.47744 32.0554 4.28825 33.2685 4.19922 34.5038C7.21515 35.4831 9.79706 35.6056 10.1198 34.7375ZM59.3874 30.8535C56.0822 32.0554 53.6783 33.7915 54.0233 34.7264C54.3461 35.5944 56.928 35.472 59.9439 34.4815C59.8549 33.2574 59.6768 32.0443 59.3874 30.8535ZM54.0233 40.6136C53.7117 41.4705 55.6927 42.9951 58.5639 44.1637C58.9757 43.0508 59.3095 41.9045 59.5433 40.7249C56.6943 39.8568 54.3349 39.7789 54.0233 40.6136Z" fill="#FF7E07"/>
<path id="Vector_16" d="M8.99552 20.4482L11.2436 18.0109C13.6697 15.3734 14.0814 11.456 12.2563 8.38442L9.70777 4.06641L9.54084 4.3335C6.49152 9.25247 6.31346 15.3956 8.99552 20.4482ZM55.1471 20.4482L52.899 18.0109C50.4729 15.3734 50.0612 11.456 51.8863 8.38442L54.446 4.07754L54.6129 4.34463C57.6511 9.25247 57.8291 15.3956 55.1471 20.4482Z" fill="#FAFFFF"/>
<path id="Vector_17" d="M34.8578 11.8566L23.7289 4.06641L20.9467 17.0538C20.6573 18.3893 21.6812 19.6469 23.0389 19.6469C28.1805 19.6469 32.8323 16.5864 34.8578 11.8566Z" fill="#118183"/>
<path id="Vector_18" d="M34.8591 11.8566L23.7302 4.06641L22.5394 9.58634C21.8494 12.8249 24.1309 15.9409 27.4361 16.2637C30.5967 16.5642 33.6016 14.7835 34.8591 11.8566Z" fill="#01A4AE"/>
<path id="Vector_19" d="M28.1813 7.18262L23.0398 7.27165L22.7949 8.38454L29.7282 8.27325L28.1813 7.18262Z" fill="#F86545"/>
<path id="Vector_20" d="M31.1754 9.28564L21.5378 14.2714L21.2373 15.6736L32.2104 10.009L31.1754 9.28564Z" fill="#F86545"/>
<path id="Vector_21" d="M53.2221 39.1226H29.4062V42.0161H53.2221V39.1226Z" fill="#0076A8"/>
<path id="Vector_22" d="M53.2216 42.0161H40.646C39.8447 42.0161 39.1992 41.3706 39.1992 40.5693C39.1992 39.768 39.8447 39.1226 40.646 39.1226H53.2216V42.0161Z" fill="#FF4B23"/>
<path id="Vector_23" d="M53.2219 42.0161H44.0962C43.2949 42.0161 42.6494 41.3706 42.6494 40.5693C42.6494 39.768 43.2949 39.1226 44.0962 39.1226H53.2219V42.0161Z" fill="#9F342D"/>
<path id="Vector_24" d="M59.7287 27.9937H48.5998C47.3756 27.9937 46.374 31.132 46.374 35.0049C46.374 38.8777 47.3756 42.0161 48.5998 42.0161H59.7287C60.9529 42.0161 61.9545 38.8777 61.9545 35.0049C61.9545 31.132 60.9529 27.9937 59.7287 27.9937Z" fill="#FF4B23"/>
<path id="Vector_25" d="M48.5998 42.0161C49.8291 42.0161 50.8256 38.877 50.8256 35.0049C50.8256 31.1327 49.8291 27.9937 48.5998 27.9937C47.3705 27.9937 46.374 31.1327 46.374 35.0049C46.374 38.877 47.3705 42.0161 48.5998 42.0161Z" fill="#CD3F21"/>
<path id="Vector_26" d="M49.2447 37.0082V33.0018C49.2447 32.6944 48.9956 32.4453 48.6883 32.4453C48.381 32.4453 48.1318 32.6944 48.1318 33.0018V37.0082C48.1318 37.3155 48.381 37.5646 48.6883 37.5646C48.9956 37.5646 49.2447 37.3155 49.2447 37.0082Z" fill="#9F342D"/>
<path id="Vector_27" d="M50.6072 49.0273H47.4911C47.4911 51.0194 46.7009 52.9336 45.2876 54.347L44.375 55.2595H47.4911L48.4037 54.347C49.8059 52.9336 50.6072 51.0194 50.6072 49.0273Z" fill="#FF4B23"/>
<path id="Vector_28" d="M26.7354 45.9113C29.6845 45.9113 32.0772 43.5186 32.0772 40.5694C32.0772 37.6203 29.6845 35.2275 26.7354 35.2275" fill="#FFDD9B"/>
<path id="Vector_29" d="M27.3244 46.4412C27.0185 46.4703 26.7686 46.2184 26.7686 45.9111C26.7686 45.6038 27.0188 45.3581 27.3238 45.3209C29.6417 45.038 31.554 43.0139 31.554 40.5692C31.554 38.1245 29.6417 36.1004 27.3238 35.8176C27.0188 35.7804 26.7686 35.5347 26.7686 35.2273C26.7686 34.92 27.0185 34.6681 27.3244 34.6973C30.2969 34.9803 32.6669 37.5082 32.6669 40.5692C32.6669 43.6303 30.2969 46.1581 27.3244 46.4412Z" fill="#C06A3E"/>
</g>
<path id="Vector_30" d="M9.47047 7.18896H6.35437C6.35437 9.18104 5.56422 11.0952 4.15085 12.5086L3.23828 13.4212H6.35437L7.26694 12.5086C8.68032 11.0952 9.47047 9.18104 9.47047 7.18896Z" fill="#FF4B23"/>
<path id="Vector_31" d="M0.547852 25.8926L3.68544 24.1044C4.82857 26.1103 6.7226 27.5842 8.95677 28.1963L10.3993 28.5915L7.26172 30.3796L5.81918 29.9844C3.59622 29.366 1.69098 27.8984 0.547852 25.8926Z" fill="#15D2D4"/>
<path id="Vector_32" d="M25.0137 55.2598L21.7002 53.3714C20.493 55.4896 18.4927 57.0462 16.1333 57.6926L14.6099 58.11L17.9234 59.9984L19.4468 59.581C21.7944 58.9279 23.8065 57.378 25.0137 55.2598Z" fill="#15D2D4"/>
<path id="Vector_33" d="M48.3032 10.9932L44.7842 10.1816C44.2653 12.4313 44.6591 14.7987 45.8871 16.763L46.68 18.0312L50.199 18.8428L49.4061 17.5745C48.1781 15.6103 47.7843 13.2429 48.3032 10.9932Z" fill="#15D2D4"/>
</g>
</svg>
