<svg width="64" height="64" viewBox="0 0 64 64" fill="none" xmlns="http://www.w3.org/2000/svg">
<g id="Food">
<path id="Vector" d="M43.587 57.7323C35.978 59.4226 28.0224 59.4226 20.4134 57.7323C19.4089 57.5084 18.8049 56.684 19.0574 55.9308L20.3372 52C27.9557 53.9758 36.0447 53.9758 43.6633 52L44.943 55.9308C45.1945 56.684 44.5904 57.5084 43.587 57.7323Z" fill="#7AC8C9"/>
<path id="Vector_2" d="M34.2836 54H29.7164C13.305 54 0 40.7284 0 24.3555V21H64V24.3555C64 40.7284 50.6962 54 34.2836 54Z" fill="#7AC8C9"/>
<path id="Vector_3" d="M64 21V23.2812C64 40.8004 51.3069 55 33.1852 55H30.8136C12.3403 55 0 41.3282 0 23.2812V21C0.0834345 38.4452 13.8433 52.5602 30.8136 52.5602H33.1852C50.1567 52.5602 63.9177 38.4452 64 21Z" fill="#579798"/>
<path id="Vector_4" d="M64 21.4994C64 30.6132 49.673 38 31.9994 38C26.4035 38 20.9093 37.4419 16.3329 36.1393C6.45658 33.3305 6.83868e-08 27.7266 6.83868e-08 21.5006C-0.00114289 12.3857 14.3247 5 31.9983 5C49.6719 5 64 12.388 64 21.4994Z" fill="#579798"/>
<path id="Vector_5" d="M1.94238 27.3781C4.84879 19.7985 17.3313 13.0869 33.0141 13.0869C48.697 13.0869 59.6768 18.8883 62.5833 26.4691C62.5833 26.4691 57.3943 37.57 33.0118 38.0707C6.98502 38.0707 1.94238 27.3781 1.94238 27.3781Z" fill="#E0DABD"/>
<path id="Vector_6" d="M19.8585 30.7442C19.8585 30.7442 20.553 29.6977 20.3836 29.1282C20.2143 28.5587 21.036 28.0377 21.1187 29.0643C21.1673 29.6592 21.5861 27.3943 22.3356 28.0366C22.3356 28.0366 23.504 26.5241 23.9162 27.1531C24.3284 27.7821 23.0865 28.508 23.0865 28.508C23.0865 28.508 23.5302 28.5477 23.4029 28.9057C23.2769 29.2648 22.0403 29.8123 22.0403 29.8123C22.0403 29.8123 22.9736 29.7969 22.61 30.1846C22.2648 30.5503 20.4703 31.1782 20.4703 31.1782L19 32L19.8585 30.7442Z" fill="#8DC63F"/>
<path id="Vector_7" d="M56.0195 26.4739C56.0195 26.4739 55.7062 25.2155 55.2721 24.9039C54.8381 24.5936 54.9096 23.6407 55.5854 24.3538C55.9767 24.7676 54.7767 22.7839 55.5352 22.7535C55.5352 22.7535 55.1597 20.8233 55.748 21.0131C56.3364 21.203 56.1868 22.5953 56.1868 22.5953C56.1868 22.5953 56.4247 22.3226 56.5855 22.678C56.7463 23.0334 56.4907 24.2869 56.4907 24.2869C56.4907 24.2869 56.9304 23.6382 56.9945 24.1774C57.0559 24.6873 56.5818 26.3802 56.5818 26.3802L56.3838 28L56.0185 26.4739H56.0195Z" fill="#8DC63F"/>
<path id="Vector_8" d="M29.5091 18.1245C29.5091 18.1245 30.7509 17.7497 31.0281 17.3004C31.3041 16.8502 32.2724 16.8753 31.6096 17.586C31.2265 17.998 33.1249 16.6995 33.2197 17.4557C33.2197 17.4557 35.1342 16.9851 34.9925 17.5832C34.8508 18.1813 33.4353 18.1003 33.4353 18.1003C33.4353 18.1003 33.731 18.3245 33.3861 18.5031C33.0411 18.6817 31.755 18.4882 31.755 18.4882C31.755 18.4882 32.4473 18.8966 31.909 18.9877C31.4002 19.0733 29.6508 18.6836 29.6508 18.6836L28 18.5664L29.5091 18.1245Z" fill="#8DC63F"/>
<path id="Vector_9" d="M7.26369 24.6965C7.26369 24.6965 8.3147 25.2622 8.89873 25.1427C9.48275 25.0233 9.99813 25.6768 8.94936 25.7177C8.34171 25.7412 10.6418 26.119 9.96999 26.6889C9.96999 26.6889 11.4891 27.6325 10.8376 27.9409C10.186 28.2473 9.476 27.2628 9.476 27.2628C9.476 27.2628 9.42423 27.608 9.06189 27.5008C8.69843 27.3935 8.16729 26.4183 8.16729 26.4183C8.16729 26.4183 8.16279 27.1464 7.77569 26.8533C7.40885 26.5765 6.80795 25.1652 6.80795 25.1652L6 24L7.26369 24.6965Z" fill="#8DC63F"/>
<path id="Vector_10" d="M44.7402 32.3077C44.7402 32.3077 43.6922 31.7466 43.1136 31.8737C42.5372 32.0008 42.0176 31.3457 43.0567 31.293C43.6587 31.262 41.3743 30.9034 42.0332 30.3206C42.0332 30.3206 40.517 29.3813 41.158 29.0631C41.7991 28.7448 42.5171 29.7347 42.5171 29.7347C42.5171 29.7347 42.5617 29.3855 42.9229 29.4898C43.2841 29.5942 43.8226 30.5758 43.8226 30.5758C43.8226 30.5758 43.8182 29.8391 44.2061 30.1315C44.5718 30.4084 45.1861 31.8303 45.1861 31.8303L46 33L44.7402 32.3077Z" fill="#8DC63F"/>
<path id="Vector_11" d="M17.1954 17.0978C12.5199 18.0222 12.4682 22.5513 13.6341 22.3814C13.9766 22.3704 14.3697 22.131 14.824 21.8189C14.9868 21.7072 15.1791 21.6371 15.3811 21.616C15.5831 21.5949 15.7876 21.6233 15.9737 21.6985C16.1597 21.7737 16.3207 21.8929 16.4401 22.0438C16.5596 22.1948 16.6331 22.3722 16.6534 22.5579C16.6822 22.7973 16.7243 23.0421 16.7772 23.2914C17.2255 25.3729 18.1738 26.1472 19.1065 25.9773C20.038 25.8075 20.6017 24.7585 20.1534 22.677C20.1017 22.4343 20.0392 22.1936 19.9659 21.9556C19.9081 21.7772 19.9028 21.5879 19.9506 21.407C19.9984 21.2261 20.0976 21.0601 20.2381 20.9258C20.3785 20.7915 20.5552 20.6938 20.7502 20.6426C20.9452 20.5913 21.1515 20.5884 21.3482 20.6342C21.8962 20.761 22.3566 20.8438 22.6763 20.7335C23.8242 20.4842 21.9011 16.3146 17.1954 17.0978Z" fill="#F1F2F2"/>
<path id="Vector_12" d="M15.9092 21.5646C15.9294 21.685 15.9596 21.8068 16 21.9357C15.9459 21.8464 15.8609 21.7664 15.7514 21.7019C15.6419 21.6373 15.511 21.59 15.3688 21.5636C15.2266 21.5372 15.0769 21.5324 14.9313 21.5496C14.7858 21.5668 14.6483 21.6055 14.5296 21.6628C14.1512 21.85 13.8201 21.9901 13.5265 21.9973C13.1965 22.0313 12.9785 21.7452 13.0017 21.3296C13.0895 21.4258 13.2136 21.4736 13.368 21.4599C13.6617 21.4526 13.9816 21.3119 14.3712 21.1247C14.9686 20.8347 15.8214 21.0795 15.9092 21.5646Z" fill="#A7A9AC"/>
<path id="Vector_13" d="M22.5943 20.2095C22.2054 20.313 21.645 20.2281 20.9774 20.1164C20.7788 20.0803 20.5714 20.0753 20.3698 20.1019C20.1683 20.1284 19.9774 20.1859 19.8107 20.2702C19.6441 20.3544 19.5057 20.4635 19.4053 20.5896C19.305 20.7157 19.2451 20.8558 19.2299 21C19.1823 20.8315 19.1251 20.6644 19.0582 20.4992C18.9875 20.3322 18.9811 20.1549 19.0396 19.9855C19.0981 19.8161 19.2194 19.6607 19.3911 19.5353C19.5629 19.4099 19.7788 19.3189 20.0168 19.2718C20.2548 19.2246 20.5063 19.223 20.7455 19.2669C21.4146 19.3787 21.9751 19.4635 22.3639 19.3601C22.5899 19.3156 22.7131 19.1873 22.7483 19C23.1298 19.6104 23.077 20.1226 22.5943 20.2095Z" fill="#A7A9AC"/>
<g id="Group">
<path id="Vector_14" d="M50.1505 18.656C46.5562 15.8652 42.9402 18.8492 43.7893 19.5852C44.0065 19.8274 44.4373 19.9532 44.9619 20.0777C45.15 20.1221 45.323 20.2155 45.4633 20.3485C45.6036 20.4814 45.7061 20.6492 45.7604 20.8347C45.8148 21.0201 45.819 21.2167 45.7727 21.4043C45.7264 21.592 45.6312 21.764 45.4968 21.9029C45.3253 22.0835 45.1573 22.2777 44.9928 22.4823C43.619 24.1977 43.5871 25.4046 44.2922 25.9715C44.9973 26.5372 46.1722 26.248 47.5459 24.5326C47.7105 24.3269 47.8625 24.1212 48.0008 23.9155C48.1067 23.7541 48.2536 23.6238 48.4264 23.5379C48.5992 23.4519 48.7917 23.4133 48.9843 23.4261C49.1769 23.4389 49.3626 23.5026 49.5225 23.6106C49.6824 23.7187 49.8108 23.8673 49.8945 24.0412C50.1288 24.5246 50.3448 24.9155 50.627 25.0755C51.5288 25.744 53.6522 21.5623 50.1505 18.656Z" fill="#F1F2F2"/>
<path id="Vector_15" d="M46.1029 21.1613C45.9514 21.3196 45.8076 21.4851 45.6721 21.6573C45.7519 21.51 45.7967 21.3463 45.8031 21.1788C45.8095 21.0114 45.7774 20.8448 45.7091 20.6918C45.6408 20.5388 45.5383 20.4035 45.4094 20.2965C45.2805 20.1894 45.1287 20.1134 44.9658 20.0744C44.4401 19.9567 44.0115 19.8276 43.7875 19.5807C43.5018 19.3327 43.7235 18.8219 44.2961 18.375C44.2309 18.5579 44.2583 18.7213 44.3886 18.839C44.6138 19.0859 45.0343 19.2047 45.5669 19.3327C46.3898 19.5247 46.6846 20.5407 46.1029 21.1613Z" fill="#A7A9AC"/>
<path id="Vector_16" d="M50.6238 25.0748C50.3415 24.9148 50.1324 24.5205 49.8924 24.0416C49.8237 23.8973 49.7241 23.7699 49.6006 23.6684C49.4772 23.5669 49.3329 23.4938 49.1781 23.4542C49.0233 23.4146 48.8616 23.4095 48.7046 23.4394C48.5476 23.4692 48.3991 23.5332 48.2695 23.6268C48.3895 23.4782 48.5027 23.3205 48.6067 23.1696C48.7127 23.0092 48.8594 22.8799 49.0318 22.7948C49.2042 22.7097 49.3961 22.6719 49.5879 22.6852C49.7797 22.6986 49.9645 22.7627 50.1234 22.8709C50.2823 22.9791 50.4096 23.1275 50.4924 23.301C50.7335 23.7788 50.9438 24.173 51.2261 24.3319C51.3758 24.4348 51.5461 24.4188 51.7221 24.3056C51.3975 24.9673 50.9392 25.2999 50.625 25.0736L50.6238 25.0748Z" fill="#A7A9AC"/>
</g>
<g id="Group_2">
<path id="Vector_17" d="M35.0505 33.0293C37.5247 29.2098 34.2539 25.8498 33.5933 26.7584C33.3705 26.9961 33.2802 27.4361 33.2013 27.9698C33.1734 28.161 33.0953 28.3414 32.9748 28.4925C32.8544 28.6436 32.696 28.76 32.5159 28.8298C32.3358 28.8997 32.1403 28.9204 31.9495 28.89C31.7587 28.8596 31.5794 28.7791 31.4299 28.6567C31.2356 28.5013 31.0299 28.3481 30.8105 28.2018C28.9887 26.9744 27.7853 27.0441 27.2813 27.795C26.7773 28.547 27.1625 29.6955 28.9842 30.923C29.2013 31.0693 29.4207 31.203 29.6379 31.3253C29.807 31.418 29.9486 31.5539 30.0482 31.7191C30.1479 31.8842 30.2021 32.0728 30.2053 32.2657C30.2086 32.4585 30.1607 32.6488 30.0667 32.8173C29.9727 32.9857 29.8358 33.1262 29.6699 33.2247C29.2093 33.499 28.839 33.7481 28.703 34.043C28.1122 34.9984 32.4516 36.7675 35.0505 33.0293Z" fill="#F1F2F2"/>
<path id="Vector_18" d="M32.2175 29.1991C32.0478 29.0612 31.8716 28.9315 31.6895 28.8106C31.8429 28.8777 32.0097 28.9086 32.177 28.9009C32.3442 28.8931 32.5075 28.847 32.654 28.7659C32.8006 28.6849 32.9265 28.5712 33.022 28.4337C33.1176 28.2962 33.1801 28.1385 33.2049 27.9729C33.278 27.438 33.3706 27.0014 33.598 26.7557C33.8209 26.4494 34.3477 26.6289 34.8403 27.1626C34.6517 27.1134 34.4917 27.1534 34.3866 27.294C34.1592 27.5386 34.0757 27.9683 33.9923 28.5111C33.8712 29.3477 32.8849 29.7283 32.2186 29.1991H32.2175Z" fill="#A7A9AC"/>
<path id="Vector_19" d="M28.7035 34.0382C28.8384 33.7434 29.2132 33.5011 29.6692 33.2211C29.807 33.1401 29.9253 33.0298 30.0159 32.8981C30.1065 32.7664 30.1671 32.6164 30.1935 32.4588C30.2198 32.3011 30.2113 32.1396 30.1685 31.9856C30.1257 31.8316 30.0497 31.6888 29.9458 31.5674C30.1035 31.6748 30.2704 31.7742 30.4292 31.8645C30.5986 31.9567 30.7403 32.0923 30.84 32.2573C30.9398 32.4223 30.9938 32.6108 30.9967 32.8036C30.9997 32.9964 30.9513 33.1865 30.8566 33.3544C30.7619 33.5223 30.6243 33.6621 30.4578 33.7594C30.0007 34.0394 29.627 34.2817 29.4921 34.5765C29.4018 34.7354 29.4338 34.9034 29.5607 35.0702C28.875 34.8005 28.5058 34.3731 28.7035 34.0382Z" fill="#A7A9AC"/>
</g>
</g>
</svg>
