<svg width="64" height="64" viewBox="0 0 64 64" fill="none" xmlns="http://www.w3.org/2000/svg">
<g id="food" clip-path="url(#clip0_248_1992)">
<path id="Vector" d="M32 64C49.6731 64 64 49.6731 64 32C64 14.3269 49.6731 0 32 0C14.3269 0 0 14.3269 0 32C0 49.6731 14.3269 64 32 64Z" fill="#B5D6D6"/>
<path id="Vector_2" d="M32.0004 63.2036C49.4505 63.2036 63.5966 49.1449 63.5966 31.8025C63.5966 14.4601 49.4505 0.401367 32.0004 0.401367C14.5504 0.401367 0.404297 14.4601 0.404297 31.8025C0.404297 49.1449 14.5504 63.2036 32.0004 63.2036Z" fill="#F1FAFA"/>
<path id="Vector_3" d="M46.1713 52.3535C57.4121 44.5278 60.1807 29.0713 52.355 17.8304C44.5293 6.58955 29.0728 3.82102 17.8319 11.6467C6.59103 19.4724 3.8225 34.9289 11.6482 46.1698C19.4739 57.4106 34.9304 60.1792 46.1713 52.3535Z" fill="white"/>
<path id="Vector_4" d="M32 55.5C44.9787 55.5 55.5 44.9787 55.5 32C55.5 19.0213 44.9787 8.5 32 8.5C19.0213 8.5 8.5 19.0213 8.5 32C8.5 44.9787 19.0213 55.5 32 55.5Z" fill="#D0EEEE"/>
<path id="Vector_5" d="M51.8996 18.7004C51.2996 20.4004 48.6996 20.9004 47.4996 19.5004C48.4996 22.6004 51.9996 24.1004 53.6996 26.9004C54.4996 28.1004 54.5996 30.2004 53.1996 30.7004C52.5996 30.9004 51.9996 30.8004 51.4996 31.0004C50.4996 31.4004 50.3996 32.8004 50.7996 33.7004C51.1996 34.6004 52.0996 35.3004 52.7996 36.1004C54.3996 37.9004 55.2996 40.4004 55.1996 42.8004C53.6996 41.9004 52.3996 40.6004 51.3996 39.2004C50.8996 41.3004 50.8996 43.4004 51.2996 45.5004C51.3996 46.1004 51.5996 46.7004 51.3996 47.2004C50.9996 48.4004 49.3996 48.6004 48.0996 48.5004C46.7996 48.4004 45.2996 48.3004 44.5996 49.4004C43.7996 50.6004 44.7996 52.4004 44.1996 53.7004C43.5996 54.9004 41.9996 55.2004 40.7996 54.7004C39.5996 54.2004 38.7996 53.1004 37.9996 52.1004C36.7996 53.2004 35.4996 54.2004 34.2996 55.3004C34.0996 55.5004 33.8996 55.7004 33.5996 55.7004C33.2996 55.7004 32.9996 55.5004 32.7996 55.3004C31.0996 53.9004 29.2996 52.4004 28.8996 50.2004C27.8996 51.3004 26.7996 52.4004 25.7996 53.5004C24.0996 52.3004 22.8996 50.6004 22.2996 48.7004C21.1996 48.6004 20.3996 49.7004 19.3996 50.1004C17.3996 51.0004 15.2996 49.2004 13.8996 47.5004C14.6996 46.5004 15.4996 45.5004 16.3996 44.5004C15.3996 43.0004 12.9996 43.2004 11.6996 42.0004C10.4996 41.0004 10.2996 39.2004 10.2996 37.6004C12.3996 36.3004 14.9996 35.8004 17.3996 36.2004C14.4996 34.4004 11.7996 32.5004 9.09961 30.4004C9.99961 30.5004 10.9996 30.5004 11.8996 30.6004C12.2996 28.8004 11.8996 26.9004 10.9996 25.4004C10.5996 24.8004 10.0996 24.2004 9.89961 23.6004C9.69961 22.9004 9.79961 22.1004 10.3996 21.7004C10.8996 21.4004 11.4996 21.5004 11.9996 21.6004C13.9996 22.0004 16.0996 22.3004 18.0996 22.7004C17.3996 20.5004 16.9996 18.1004 16.9996 15.8004C16.9996 14.4004 17.0996 12.9004 17.8996 11.7004C18.6996 10.5004 20.2996 9.80043 21.5996 10.5004C23.6996 11.6004 22.7996 15.0004 24.1996 17.0004C25.5996 13.0004 28.2996 9.40043 31.7996 7.00043C32.0996 6.80043 32.4996 6.60043 32.8996 6.70043C33.1996 6.80043 33.3996 7.20043 33.4996 7.50043C34.0996 9.20043 34.2996 11.0004 34.0996 12.8004C34.0996 13.1004 33.9996 13.4004 34.0996 13.7004C34.4996 14.5004 35.6996 14.1004 36.2996 13.5004C38.0996 11.8004 39.8996 8.60043 42.6996 8.60043C41.2996 11.6004 39.9996 12.0004 43.4996 13.9004C46.0996 15.4004 49.0996 16.9004 51.8996 18.7004Z" fill="#80C350"/>
<g id="Group">
<path id="Vector_6" d="M6.29961 43.4998C3.19961 40.3998 3.19961 35.4998 6.29961 32.4998C9.39961 29.3998 14.2996 29.3998 17.2996 32.4998C20.3996 35.5998 20.3996 40.4998 17.2996 43.4998C14.2996 46.4998 9.39961 46.4998 6.29961 43.4998Z" fill="white"/>
<path id="Vector_7" d="M11.8995 38.9L10.3995 44.3C10.3995 44.5 10.4995 44.7 10.6995 44.7C12.6995 45 14.7995 44.5 16.3995 43.2C16.4995 43.1 16.5995 42.9 16.3995 42.7L12.3995 38.7C12.1995 38.6 11.8995 38.7 11.8995 38.9ZM18.1995 36C18.3995 36 18.4995 35.8 18.3995 35.6C18.0995 34.7 17.4995 33.8 16.7995 33C16.0995 32.3 15.1995 31.7 14.1995 31.4C13.9995 31.3 13.7995 31.4 13.7995 31.6L12.3995 37C12.2995 37.2 12.5995 37.5 12.7995 37.4L18.1995 36ZM5.49954 39.9C5.29954 39.9 5.19954 40.1 5.29954 40.3C5.59954 41.2 6.19954 42.1 6.89954 42.9C7.59954 43.6 8.49954 44.2 9.49954 44.5C9.69954 44.6 9.89954 44.5 9.89954 44.3L11.3995 38.9C11.4995 38.7 11.1995 38.4 10.9995 38.5L5.49954 39.9ZM12.6995 38.5L16.6995 42.5C16.7995 42.6 17.0995 42.6 17.1995 42.5C18.5995 40.9 19.0995 38.8 18.6995 36.8C18.6995 36.6 18.4995 36.5 18.2995 36.5L12.8995 38C12.5995 38 12.5995 38.3 12.6995 38.5ZM10.9995 37.4L6.99954 33.4C6.89954 33.3 6.59954 33.3 6.49954 33.4C5.09954 35 4.59954 37.1 4.99954 39.1C4.99954 39.3 5.19954 39.4 5.39954 39.4L10.7995 37.9C11.0995 37.9 11.1995 37.6 10.9995 37.4ZM11.8995 36.9L13.3995 31.5C13.3995 31.3 13.2995 31.1 13.0995 31.1C11.0995 30.8 8.99954 31.3 7.39954 32.6C7.29954 32.7 7.19954 32.9 7.39954 33.1L11.3995 37.1C11.4995 37.2 11.7995 37.2 11.8995 36.9Z" fill="#F5E346"/>
<g id="Group_2">
<path id="Vector_8" d="M31.5998 57.3C28.4998 60.4 23.4998 60.5 20.3998 57.5C17.3998 54.5 17.4998 49.5 20.5998 46.3C23.6998 43.2 28.6998 43.1 31.7998 46.1C34.8998 49.2 34.7998 54.2 31.5998 57.3Z" fill="#E14A4A"/>
<path id="Vector_9" d="M26.9 52.7002L29.8 52.9002L27.2 51.6002L28.9 49.2002L26.5 50.8002L25.2 48.2002L25.4 51.1002L22.5 50.8002L25.1 52.1002L23.4 54.5002L25.8 52.9002L27.1 55.5002L26.9 52.7002Z" fill="#7DBC4F"/>
<path id="Vector_10" d="M26.7996 51.8998C26.7996 52.2998 26.4996 52.4998 26.1996 52.4998C25.8996 52.4998 25.5996 52.1998 25.5996 51.8998C25.5996 51.5998 25.8996 51.2998 26.1996 51.2998C26.4996 51.2998 26.7996 51.4998 26.7996 51.8998Z" fill="#6CA341"/>
</g>
<g id="Group_3">
<path id="Vector_11" d="M49.8998 14.0003C41.9998 6.10034 28.6998 6.50034 20.2998 14.9003C15.2998 19.9003 13.0998 26.5003 13.7998 32.8003C18.8998 28.7003 26.1998 28.8003 30.5998 33.2003C35.0998 37.7003 35.0998 44.9003 30.9998 50.0003C37.1998 50.7003 43.8998 48.5003 48.8998 43.5003C57.3998 35.1003 57.7998 21.9003 49.8998 14.0003Z" fill="#F3BF8D"/>
<path id="Vector_12" d="M30.3997 50.2999L30.7997 49.7999C34.8997 44.7999 34.6997 37.6999 30.3997 33.4999C26.0997 29.1999 19.0997 28.9999 13.9997 33.0999L13.4997 33.4999L13.3997 32.7999C12.6997 26.1999 15.0997 19.4999 19.9997 14.5999C28.5997 5.99992 42.0997 5.59991 50.0997 13.6999C58.0997 21.6999 57.6997 35.1999 49.1997 43.7999C44.2997 48.6999 37.6997 51.0999 30.9997 50.3999L30.3997 50.2999ZM30.8997 32.9999C35.2997 37.3999 35.5997 44.4999 31.7997 49.7999C37.9997 50.2999 44.0997 47.8999 48.6997 43.3999C56.9997 35.0999 57.3997 22.0999 49.5997 14.2999C41.7997 6.49992 28.7997 6.99992 20.4997 15.1999C15.8997 19.7999 13.5997 25.8999 14.0997 32.0999C19.3997 28.1999 26.4997 28.5999 30.8997 32.9999Z" fill="#9DA6B1"/>
<path id="Vector_13" d="M47.0992 18.1L45.2992 19.9C49.3992 24.4 50.5992 30.1 47.7992 32.8C47.6992 32.9 47.4992 33.1 47.3992 33.2C49.6992 30.3 48.3992 25 44.4992 20.7L41.0992 24C45.7992 29.2 46.7992 36.1 43.0992 39.8C42.8992 40 42.6992 40.1 42.4992 40.3C45.4992 36.5 44.4992 30 39.9992 25.1L37.2992 27.8C41.8992 33 42.0992 40.7 37.5992 45.3C37.3992 45.5 37.0992 45.7 36.8992 45.9C40.7992 41.3 40.3992 34.1 35.9992 29.1L33.9992 31.1C33.0992 32 32.8992 33.5 33.4992 34.6C36.0992 38.8 36.0992 44.2 33.5992 48.7C38.7992 48.6 43.8992 46.4 47.7992 42.5C54.4992 35.8 55.7992 25.9 51.4992 18.6C50.6992 17 48.3992 16.7 47.0992 18.1Z" fill="#F47C38"/>
<g id="Group_4">
<path id="Vector_14" d="M17.9996 26.9001C18.1996 26.7001 18.3996 26.4001 18.5996 26.2001C23.1996 21.6001 30.7996 21.8001 36.0996 26.5001L38.7996 23.8001C33.8996 19.3001 27.3996 18.2001 23.5996 21.3001C23.7996 21.1001 23.8996 20.9001 24.0996 20.7001C27.6996 17.1001 34.6996 18.0001 39.8996 22.7001L43.2996 19.3001C38.9996 15.4001 33.6996 14.2001 30.7996 16.4001C30.8996 16.3001 30.9996 16.1001 31.1996 16.0001C33.8996 13.3001 39.5996 14.4001 44.0996 18.5001L45.8996 16.7001C47.1996 15.4001 46.9996 13.1001 45.3996 12.2001C37.8996 8.00011 27.9996 9.30011 21.2996 16.0001C17.3996 19.9001 15.1996 25.0001 15.0996 30.2001C19.5996 27.7001 24.9996 27.8001 29.1996 30.3001C30.2996 31.0001 31.7996 30.8001 32.6996 29.8001L34.6996 27.8001C29.7996 23.4001 22.5996 23.0001 17.9996 26.9001Z" fill="#F47C38"/>
</g>
</g>
</g>
</g>
<defs>
<clipPath id="clip0_248_1992">
<rect width="64" height="64" fill="white"/>
</clipPath>
</defs>
</svg>
