<svg width="623" height="575" viewBox="0 0 623 575" fill="none" xmlns="http://www.w3.org/2000/svg">
<path d="M68.6684 231.274C22.8612 170.925 -21.0214 113.111 10.9144 52.0985C55.98 -33.998 206.105 3.58378 291.346 50.2478C328.506 70.5905 336.465 112.883 344.633 156.284C351.53 192.933 358.576 230.372 383.478 256.054C411.776 285.237 456.887 296.88 500.315 308.089C557.906 322.953 612.535 337.052 621.059 390.282C635.038 477.57 514.09 528.064 432.508 562.122L432.495 562.127C372.081 587.349 305.578 570.211 244.122 547.644C199.425 531.23 164.304 497.675 142.17 455.515C132.566 437.223 135.31 417.143 138.09 396.802C140.498 379.187 142.932 361.377 137.397 344.363C124.561 304.91 96.2652 267.632 68.6684 231.274Z" fill="#EFF9F9"/>
<path d="M484.255 98.1442C469.871 73.6177 441.147 58.9773 414.079 66.9298C388.819 74.3512 379.595 102.714 378.478 129.222C377.416 154.439 385.498 181.418 408.868 190.627C432.24 199.837 456.424 185.661 472.295 166.19C488.317 146.535 497.147 120.126 484.255 98.1442Z" fill="#EFF9F9"/>
</svg>
