<svg width="760" height="397" viewBox="0 0 760 397" fill="none" xmlns="http://www.w3.org/2000/svg">
<path d="M145.842 123.218H125.051L121.737 109.093C119.628 107.29 116.916 106.088 113.602 104.885C110.287 103.683 106.973 103.082 103.056 103.082C97.6321 103.082 93.4138 104.284 90.0993 106.689C86.7849 109.093 85.2784 112.098 85.2784 115.705C85.2784 119.01 86.7849 122.016 89.798 124.42C92.8111 126.824 98.8373 128.627 107.877 130.43C122.038 133.135 132.584 137.343 139.514 142.752C146.444 148.162 149.759 155.675 149.759 165.292C149.759 175.51 145.239 183.925 136.501 190.536C127.763 197.148 116.012 200.454 101.549 200.454C92.8111 200.454 84.6758 199.252 77.143 196.547C69.9116 193.842 63.2827 190.236 57.5579 185.427L57.2566 159.882H78.9509L83.1692 174.909C84.9771 176.412 87.3875 177.614 90.702 178.215C94.0164 178.816 97.3308 179.417 100.645 179.417C106.973 179.417 111.794 178.215 115.108 176.111C118.422 174.007 119.929 170.701 119.929 166.795C119.929 163.489 118.121 160.483 114.807 158.079C111.492 155.675 105.466 153.571 96.4269 151.468C82.8679 148.763 72.6234 144.555 65.9945 139.146C59.3657 133.736 55.75 126.524 55.75 117.207C55.75 107.59 59.667 99.4759 67.5011 92.5637C75.3352 85.6515 86.7849 82.0452 101.248 82.0452C110.287 82.0452 118.422 83.2473 126.558 85.6515C134.693 88.0558 140.719 91.0611 145.239 94.968L145.842 123.218Z" fill="#231300"/>
<path d="M209.721 55.8987V84.1485H229.909V105.787H209.721V164.089C209.721 168.597 210.625 171.603 212.433 173.706C214.24 175.51 216.651 176.411 219.965 176.411C222.075 176.411 223.882 176.411 225.389 176.111C226.895 175.81 228.703 175.51 230.813 175.209L233.524 197.448C230.21 198.65 226.594 199.251 223.28 199.853C219.965 200.454 216.35 200.754 212.131 200.754C201.585 200.754 193.149 197.749 187.424 192.039C181.699 186.329 178.686 177.012 178.686 164.39V105.787H161.812V84.1485H178.686V56.1992H209.721V55.8987Z" fill="#231300"/>
<path d="M501.995 172.805L516.759 169.499V98.8744L500.488 95.5686V76.9357H545.685L547.191 93.1644C551.108 87.4543 555.628 82.6458 561.353 79.6405C567.078 76.3347 573.104 74.832 580.034 74.832C591.484 74.832 600.523 78.4384 607.152 85.6511C613.781 92.8638 616.794 104.284 616.794 119.912V169.799L631.558 173.105V191.738H572.501V173.105L585.759 169.799V120.212C585.759 112.398 584.252 106.989 581.239 103.983C578.226 100.678 573.405 99.175 567.078 99.175C562.859 99.175 559.244 100.077 555.929 101.579C552.615 103.382 549.903 105.486 547.794 108.491V169.799L560.148 173.105V191.738H501.995V172.805Z" fill="#231300"/>
<path d="M695.435 193.541C678.863 193.541 665.605 188.132 655.963 177.613C646.02 167.095 641.199 153.571 641.199 137.342V133.135C641.199 116.305 646.02 102.18 655.361 91.0608C664.701 79.9412 677.356 74.5316 693.025 74.8322C708.391 74.8322 720.444 79.3401 729.182 88.6566C737.618 97.973 742.138 110.595 742.138 126.523V143.353H672.837V144.255C673.439 151.768 675.85 158.079 680.37 162.887C684.889 167.696 690.915 170.1 698.749 170.1C705.68 170.1 711.404 169.499 715.924 167.996C720.444 166.494 725.265 164.39 730.688 161.385L739.125 180.318C734.304 183.925 728.278 187.23 720.745 189.635C712.911 192.339 704.474 193.541 695.435 193.541ZM692.422 98.8746C686.697 98.8746 682.177 100.978 678.863 105.486C675.549 109.994 673.439 115.704 672.837 122.616L673.138 123.217H711.103V120.212C711.103 113.601 709.597 108.492 706.583 104.585C703.57 100.678 698.749 98.8746 692.422 98.8746Z" fill="#231300"/>
<path d="M369.11 217.885C421.03 217.885 463.119 175.905 463.119 124.12C463.119 72.3347 421.03 30.3545 369.11 30.3545C317.191 30.3545 275.102 72.3347 275.102 124.12C275.102 175.905 317.191 217.885 369.11 217.885Z" stroke="#BE0318" stroke-width="35.2963" stroke-miterlimit="10"/>
<path d="M234.723 366.045L245.269 363.941V292.114L234.723 290.01V277.989H314.57V305.337H299.203L298.299 293.316H265.456V320.965H300.71V336.292H265.456V363.64L276.303 365.744V377.765H234.723V366.045Z" fill="black"/>
<path d="M402.256 366.946C398.942 370.252 394.121 372.956 388.095 375.661C381.767 378.366 373.933 379.568 364.291 379.568C350.732 379.568 339.584 375.06 331.147 366.044C322.711 357.028 318.492 345.308 318.492 330.882V327.576C318.492 312.55 322.711 300.529 331.147 290.912C339.584 281.595 350.431 276.787 363.99 276.787C371.824 276.787 379.055 277.989 385.383 280.393C392.012 282.797 397.435 286.404 401.654 290.611V310.747H386.588L383.876 297.223C382.069 295.72 379.658 294.518 376.645 293.617C373.632 292.715 370.318 292.114 366.4 292.114C357.662 292.114 350.732 295.42 345.911 301.731C341.09 308.042 338.68 316.757 338.68 326.975V330.582C338.68 340.8 341.09 348.914 345.911 354.925C350.732 360.935 357.662 363.941 366.702 363.941C370.619 363.941 373.933 363.64 376.645 363.039C379.357 362.438 381.165 361.536 382.671 360.635V343.805L368.208 342.603V328.478H402.859V366.946H402.256Z" fill="black"/>
<path d="M500.492 277.989V304.736H485.126L484.222 293.617H465.842V364.241L476.689 366.345V378.366H435.108V366.345L445.955 364.241V293.617H427.575L426.672 304.736H411.305V277.989H500.492Z" fill="black"/>
</svg>
