<svg viewBox="0 0 1302 332" fill="none" xmlns="http://www.w3.org/2000/svg" class="header-logo">
  <path
    d="M274.678 310.834h-75.863l20.676-118.922h26.533c18.872 0 32.157-13.14 38.202-24.806l13.658-27.344H107.3l-9.184 52.15h60.669l-24.6 139.713h-38.4c-18.732 0-31.934-14.403-33.925-33.557L47.332 173.483H20.658c-20.136 0-25.01-22.372-13.81-31.673L169.293 7.49c10.567-8.764 25.983-8.764 36.549 0L368.29 141.81c11.198 9.301 3.21 31.673-13.823 31.673h-27.003l-20.079 108.509c-2.834 15.726-11.667 28.842-32.707 28.842zM1069.83 310.518l102.52-206.267h71.71l57.83 206.267h-69.17l-31.01-144.851-64.73 144.851h-67.15zM931.116 225.479l99.044-121.228h59.69l-36.41 206.267h-60.016l21.256-120.386-98.5 120.386h-60.225l36.385-206.267h60.16l-21.384 121.228z"
    fill="#EF3131"></path>
  <path fill-rule="evenodd" clip-rule="evenodd"
    d="M680.143 104.251h114.37c19.903 0 34.323 4.926 43.25 14.778 8.914 9.852 12.112 22.032 9.535 36.576-2.154 12.203-7.802 22.663-16.962 31.38-6.08 5.816-14.315 10.402-24.683 13.794 14.21 3.558 24.05 9.677 29.509 18.358 5.471 8.671 7.041 19.588 4.722 32.703-1.887 10.694-6.069 20.312-12.559 28.853-6.478 8.542-14.467 15.281-24.003 20.265-5.892 3.089-14.373 5.336-25.421 6.752-14.689 1.872-24.39 2.808-29.087 2.808h-105.08l36.409-206.267zm94.443 75.772c4.511-3.428 7.333-8.378 8.47-14.847 1.066-6.003-.059-10.695-3.363-14.065-3.303-3.381-9.78-5.066-19.457-5.066h-28.174l-7.169 40.73 27.623-1.077c9.77-.561 17.572-2.247 22.07-5.675zm-6.911 80.335c5.189-3.897 8.364-9.115 9.523-15.678 1.078-6.108-.281-11.011-4.1-14.708-3.807-3.709-11.152-4.68-22.854-5.008l-32.275 1.077-7.122 40.156h32.543c10.977 0 19.095-1.943 24.285-5.839z"
    fill="#EF3131"></path>
  <path d="M457.308 155.183l8.997-50.932h199.453l-23.242 50.932h-56.3l-27.424 155.335h-63.81l27.401-155.335h-65.075z"
    fill="#EF3131"></path>
  <path
    d="M98.127 191.91l9.184-52.148h83.655l22.281-126.154-7.404-6.108c-10.566-8.787-25.982-8.787-36.549 0L6.847 141.81c-11.199 9.302-6.325 31.672 13.811 31.672h26.675l14.526 124.575c1.992 19.177 15.194 33.58 33.926 33.58h38.4l24.612-139.726h-60.67z"
    fill="#A01E1E"></path>
</svg>