<svg width="113" height="113" viewBox="0 0 113 113" fill="none" xmlns="http://www.w3.org/2000/svg">
<path d="M33.8995 15.8199C17.6999 15.8199 4.51953 29.0003 4.51953 45.1999C4.51953 78.5614 42.2509 95.0259 55.087 105.726L56.4995 106.926L57.912 105.726C70.7481 95.0259 108.48 78.5614 108.48 45.1999C108.48 29.0003 95.2991 15.8199 79.0995 15.8199C69.9359 15.8199 61.8847 20.1722 56.4995 26.7668C51.1144 20.1722 43.0631 15.8199 33.8995 15.8199ZM33.8995 20.3399C42.5688 20.3399 50.1433 24.7893 54.5927 31.4987L56.4995 34.3237L58.4064 31.4987C62.8558 24.7893 70.4303 20.3399 79.0995 20.3399C92.8538 20.3399 103.96 31.4457 103.96 45.1999C103.96 74.3504 71.4014 89.4377 56.4995 101.206C41.5977 89.4377 9.03953 74.3504 9.03953 45.1999C9.03953 31.4457 20.1453 20.3399 33.8995 20.3399Z" fill="#C4FF02"/>
</svg>
