<svg width="113" height="113" viewBox="0 0 113 113" fill="none" xmlns="http://www.w3.org/2000/svg">
<path d="M56.4995 4.52002C27.8185 4.52002 4.51953 27.819 4.51953 56.5C4.51953 85.181 27.8185 108.48 56.4995 108.48C85.1805 108.48 108.48 85.181 108.48 56.5C108.48 27.819 85.1805 4.52002 56.4995 4.52002ZM56.4995 9.04002C82.7377 9.04002 103.96 30.2618 103.96 56.5C103.96 82.7382 82.7377 103.96 56.4995 103.96C30.2613 103.96 9.03953 82.7382 9.03953 56.5C9.03953 30.2618 30.2613 9.04002 56.4995 9.04002ZM37.2895 29.38C32.5938 29.38 29.3323 31.4498 27.4727 33.516C25.613 35.5822 24.9566 37.7712 24.9566 37.7712C24.8565 38.0593 24.8157 38.3647 24.8367 38.669C24.8577 38.9733 24.94 39.2702 25.0788 39.5418C25.2176 39.8134 25.4099 40.0541 25.6442 40.2494C25.8785 40.4448 26.1499 40.5906 26.4421 40.6783C26.7342 40.7659 27.0411 40.7935 27.3442 40.7594C27.6473 40.7253 27.9404 40.6302 28.2058 40.4799C28.4712 40.3295 28.7034 40.127 28.8884 39.8845C29.0734 39.642 29.2075 39.3646 29.2824 39.0689C29.2824 39.0689 29.6404 37.8678 30.8318 36.544C32.0231 35.2203 33.8493 33.9 37.2895 33.9C40.7298 33.9 42.5559 35.2203 43.7473 36.544C44.9387 37.8678 45.2966 39.0689 45.2966 39.0689C45.3716 39.3646 45.5056 39.642 45.6907 39.8845C45.8757 40.127 46.1079 40.3295 46.3733 40.4799C46.6387 40.6302 46.9318 40.7253 47.2349 40.7594C47.538 40.7935 47.8448 40.7659 48.137 40.6783C48.4292 40.5906 48.7006 40.4448 48.9348 40.2494C49.1691 40.0541 49.3615 39.8134 49.5003 39.5418C49.639 39.2702 49.7214 38.9733 49.7424 38.669C49.7634 38.3647 49.7226 38.0593 49.6224 37.7712C49.6224 37.7712 48.966 35.5822 47.1064 33.516C45.2468 31.4498 41.9853 29.38 37.2895 29.38ZM75.7095 29.38C71.0138 29.38 67.7523 31.4498 65.8927 33.516C64.033 35.5822 63.3766 37.7712 63.3766 37.7712C63.2765 38.0593 63.2357 38.3647 63.2567 38.669C63.2777 38.9733 63.36 39.2702 63.4988 39.5418C63.6376 39.8134 63.8299 40.0541 64.0642 40.2494C64.2985 40.4448 64.5699 40.5906 64.8621 40.6783C65.1542 40.7659 65.4611 40.7935 65.7642 40.7594C66.0673 40.7253 66.3604 40.6302 66.6258 40.4799C66.8911 40.3295 67.1234 40.127 67.3084 39.8845C67.4934 39.642 67.6275 39.3646 67.7024 39.0689C67.7024 39.0689 68.0604 37.8678 69.2518 36.544C70.4431 35.2203 72.2693 33.9 75.7095 33.9C79.1497 33.9 80.9759 35.2203 82.1673 36.544C83.3587 37.8678 83.7166 39.0689 83.7166 39.0689C83.7916 39.3646 83.9257 39.642 84.1107 39.8845C84.2957 40.127 84.5279 40.3295 84.7933 40.4799C85.0587 40.6302 85.3518 40.7253 85.6549 40.7594C85.958 40.7935 86.2649 40.7659 86.557 40.6783C86.8492 40.5906 87.1206 40.4448 87.3549 40.2494C87.5891 40.0541 87.7815 39.8134 87.9202 39.5418C88.059 39.2702 88.1414 38.9733 88.1624 38.669C88.1834 38.3647 88.1426 38.0593 88.0424 37.7712C88.0424 37.7712 87.386 35.5822 85.5264 33.516C83.6668 31.4498 80.4053 29.38 75.7095 29.38ZM31.6395 51.98C31.0402 51.9801 30.4654 52.2182 30.0415 52.642C29.6177 53.0658 29.3796 53.6406 29.3795 54.24C29.3795 63.6567 31.6917 73.5776 36.1816 81.36C40.6715 89.1424 47.621 94.92 56.4995 94.92C65.3781 94.92 72.3276 89.1424 76.8175 81.36C81.3073 73.5776 83.6195 63.6567 83.6195 54.24C83.6195 53.6406 83.3813 53.0658 82.9575 52.642C82.5337 52.2182 81.9589 51.9801 81.3595 51.98H31.6395ZM34.1776 56.5H78.8214C78.4757 64.4936 76.5476 72.7889 72.9066 79.1C68.9215 86.0076 63.441 90.4 56.4995 90.4C49.5581 90.4 44.0776 86.0076 40.0925 79.1C36.4514 72.7889 34.5233 64.4936 34.1776 56.5Z" fill="#C4FF02"/>
</svg>
