<svg width="113" height="113" viewBox="0 0 113 113" fill="none" xmlns="http://www.w3.org/2000/svg">
<g clip-path="url(#clip0_500_2180)">
<path d="M56.4998 2.26001C56.0442 2.2604 55.5994 2.39843 55.2237 2.656C54.848 2.91358 54.5589 3.27866 54.3942 3.70341L40.459 39.6295L2.14499 41.5849C1.68891 41.608 1.25052 41.7687 0.887568 42.0458C0.524615 42.323 0.254123 42.7035 0.111723 43.1374C-0.030678 43.5713 -0.038308 44.0382 0.0898376 44.4765C0.217983 44.9148 0.475893 45.304 0.829596 45.5929L30.6642 69.985L20.865 106.997C20.748 107.437 20.767 107.903 20.9195 108.333C21.0719 108.762 21.3508 109.136 21.7193 109.404C22.0879 109.673 22.529 109.823 22.9846 109.836C23.4403 109.849 23.8893 109.724 24.2727 109.478L56.4998 88.7933L88.7268 109.478C89.1102 109.724 89.5592 109.849 90.0149 109.836C90.4706 109.823 90.9116 109.673 91.2802 109.404C91.6487 109.136 91.9276 108.762 92.08 108.333C92.2325 107.903 92.2515 107.437 92.1345 106.997L82.3353 69.985L112.17 45.5929C112.524 45.304 112.782 44.9148 112.91 44.4765C113.038 44.0382 113.03 43.5713 112.888 43.1374C112.745 42.7035 112.475 42.323 112.112 42.0458C111.749 41.7687 111.311 41.608 110.855 41.5849L72.5405 39.6295L58.6053 3.70341C58.4406 3.27866 58.1515 2.91358 57.7758 2.656C57.4001 2.39843 56.9553 2.2604 56.4998 2.26001ZM56.4998 10.7659L68.8547 42.6266C69.0128 43.0335 69.2853 43.3859 69.6394 43.6413C69.9934 43.8967 70.4139 44.044 70.8499 44.0656L104.772 45.8003L78.3494 67.4072C78.0137 67.6816 77.764 68.0469 77.6302 68.4594C77.4963 68.8718 77.484 69.3141 77.5946 69.7334L86.277 102.534L57.7224 84.2027C57.3578 83.9681 56.9333 83.8434 56.4998 83.8434C56.0662 83.8434 55.6417 83.9681 55.2771 84.2027L26.7225 102.534L35.4049 69.7334C35.5155 69.3141 35.5032 68.8718 35.3693 68.4594C35.2355 68.0469 34.9858 67.6816 34.6501 67.4072L8.22756 45.8003L42.1496 44.0656C42.5856 44.044 43.0061 43.8967 43.3601 43.6413C43.7142 43.3859 43.9867 43.0335 44.1448 42.6266L56.4998 10.7659Z" fill="#C4FF02"/>
</g>
<defs>
<clipPath id="clip0_500_2180">
<rect width="113" height="113" fill="white"/>
</clipPath>
</defs>
</svg>
