<svg width="112" height="112" viewBox="0 0 112 112" fill="none" xmlns="http://www.w3.org/2000/svg">
<g id="Pir-i-Mir_logo (2) 1" clip-path="url(#clip0_244_243)">
<g id="Layer_x0020_1">
<g id="_1730090827408">
<path id="Vector" fill-rule="evenodd" clip-rule="evenodd" d="M55.9558 0.0839844C86.8746 0.0839844 111.949 25.1581 111.949 56.0769C111.949 86.9957 86.8746 112.07 55.9558 112.07C25.0371 112.07 -0.0371094 86.9957 -0.0371094 56.0769C-0.0371094 25.1581 25.0371 0.0839844 55.9558 0.0839844Z" fill="#7AC8C9"/>
<g id="Group">
<g id="Group_2">
<g id="Group_3">
<path id="Vector_2" fill-rule="evenodd" clip-rule="evenodd" d="M55.956 7.31738C56.7649 7.31738 57.421 7.97351 57.421 8.78216C57.421 9.59114 56.7649 10.2472 55.956 10.2472C55.1472 10.2472 54.4912 9.59114 54.4912 8.78216C54.4912 7.97351 55.1472 7.31738 55.956 7.31738Z" fill="#FEFEFE"/>
<path id="Vector_3" fill-rule="evenodd" clip-rule="evenodd" d="M55.956 101.906C56.7649 101.906 57.421 102.562 57.421 103.371C57.421 104.18 56.7649 104.836 55.956 104.836C55.1472 104.836 54.4912 104.18 54.4912 103.371C54.4912 102.562 55.1472 101.906 55.956 101.906Z" fill="#FEFEFE"/>
</g>
<g id="Group_4">
<path id="Vector_4" fill-rule="evenodd" clip-rule="evenodd" d="M68.5756 8.97899C69.3571 9.18841 69.8209 9.99168 69.6115 10.773C69.4021 11.5543 68.5987 12.0183 67.8175 11.8089C67.0362 11.5995 66.5723 10.7962 66.7817 10.0146C66.991 9.23342 67.7943 8.76958 68.5756 8.97899Z" fill="#FEFEFE"/>
<path id="Vector_5" fill-rule="evenodd" clip-rule="evenodd" d="M44.0943 100.345C44.8756 100.555 45.3395 101.358 45.1302 102.139C44.9208 102.921 44.1175 103.384 43.336 103.175C42.5547 102.966 42.0909 102.162 42.3003 101.381C42.5097 100.6 43.3131 100.136 44.0943 100.345Z" fill="#FEFEFE"/>
</g>
<g id="Group_5">
<path id="Vector_6" fill-rule="evenodd" clip-rule="evenodd" d="M80.3359 13.8497C81.0366 14.2541 81.2766 15.1502 80.8723 15.8506C80.4679 16.5512 79.5718 16.7913 78.8711 16.3868C78.1707 15.9823 77.9307 15.0863 78.3352 14.3859C78.7396 13.6854 79.6357 13.4454 80.3359 13.8497Z" fill="#FEFEFE"/>
<path id="Vector_7" fill-rule="evenodd" clip-rule="evenodd" d="M33.041 95.7666C33.7417 96.1711 33.9817 97.0672 33.5775 97.7677C33.173 98.4683 32.277 98.7084 31.5763 98.3039C30.8758 97.8994 30.6358 97.0034 31.0402 96.3029C31.4447 95.6025 32.3408 95.3624 33.041 95.7666Z" fill="#FEFEFE"/>
</g>
<g id="Group_6">
<path id="Vector_8" fill-rule="evenodd" clip-rule="evenodd" d="M90.4341 21.5988C91.0061 22.1709 91.0061 23.0985 90.4342 23.6704C89.8622 24.2424 88.9346 24.2424 88.3624 23.6704C87.7906 23.0985 87.7906 22.1709 88.3624 21.5988C88.9346 21.027 89.8622 21.027 90.4341 21.5988Z" fill="#FEFEFE"/>
<path id="Vector_9" fill-rule="evenodd" clip-rule="evenodd" d="M23.5493 88.4836C24.1213 89.0556 24.1213 89.9832 23.5494 90.5551C22.9774 91.1271 22.0498 91.1271 21.4777 90.5551C20.9059 89.9832 20.9059 89.0556 21.4777 88.4836C22.0498 87.9117 22.9774 87.9117 23.5493 88.4836Z" fill="#FEFEFE"/>
</g>
<g id="Group_7">
<path id="Vector_10" fill-rule="evenodd" clip-rule="evenodd" d="M98.1829 31.6975C98.5873 32.398 98.3471 33.2941 97.6469 33.6985C96.9462 34.103 96.0502 33.863 95.6457 33.1623C95.2412 32.4618 95.4814 31.5657 96.1819 31.1613C96.8823 30.7568 97.7784 30.997 98.1829 31.6975Z" fill="#FEFEFE"/>
<path id="Vector_11" fill-rule="evenodd" clip-rule="evenodd" d="M16.2658 78.9924C16.6703 79.6929 16.4302 80.589 15.7297 80.9934C15.0292 81.3979 14.133 81.1579 13.7285 80.4572C13.3243 79.7567 13.5644 78.8606 14.265 78.4562C14.9653 78.0517 15.8613 78.2919 16.2658 78.9924Z" fill="#FEFEFE"/>
</g>
<g id="Group_8">
<path id="Vector_12" fill-rule="evenodd" clip-rule="evenodd" d="M103.054 43.457C103.263 44.2384 102.8 45.0419 102.018 45.251C101.237 45.4605 100.433 44.9967 100.224 44.2152C100.015 43.4341 100.479 42.6307 101.26 42.4214C102.041 42.212 102.845 42.6758 103.054 43.457Z" fill="#FEFEFE"/>
<path id="Vector_13" fill-rule="evenodd" clip-rule="evenodd" d="M11.6878 67.9385C11.8972 68.7199 11.4331 69.5233 10.652 69.7327C9.87058 69.9421 9.0673 69.4783 8.85789 68.6968C8.64848 67.9155 9.11243 67.1122 9.89376 66.9028C10.675 66.6934 11.4784 67.1574 11.6878 67.9385Z" fill="#FEFEFE"/>
</g>
<g id="Group_9">
<path id="Vector_14" fill-rule="evenodd" clip-rule="evenodd" d="M104.715 56.0771C104.715 56.886 104.059 57.5421 103.25 57.5421C102.441 57.5421 101.785 56.886 101.785 56.0771C101.785 55.2683 102.441 54.6123 103.25 54.6123C104.059 54.6123 104.715 55.2683 104.715 56.0771Z" fill="#FEFEFE"/>
<path id="Vector_15" fill-rule="evenodd" clip-rule="evenodd" d="M10.1261 56.0771C10.1261 56.886 9.46994 57.5421 8.66129 57.5421C7.8523 57.5421 7.19629 56.886 7.19629 56.0771C7.19629 55.2683 7.8523 54.6123 8.66129 54.6123C9.46994 54.6123 10.1261 55.2683 10.1261 56.0771Z" fill="#FEFEFE"/>
</g>
<g id="Group_10">
<path id="Vector_16" fill-rule="evenodd" clip-rule="evenodd" d="M103.054 68.6967C102.845 69.4782 102.041 69.942 101.26 69.7326C100.479 69.5233 100.015 68.7198 100.224 67.9386C100.434 67.1572 101.237 66.6934 102.018 66.9028C102.8 67.1121 103.263 67.9156 103.054 68.6967Z" fill="#FEFEFE"/>
<path id="Vector_17" fill-rule="evenodd" clip-rule="evenodd" d="M11.6878 44.2154C11.4784 44.9967 10.675 45.4605 9.89378 45.2513C9.11223 45.0419 8.64849 44.2386 8.85791 43.457C9.0671 42.6758 9.87059 42.212 10.6519 42.4214C11.4331 42.6308 11.897 43.4341 11.6878 44.2154Z" fill="#FEFEFE"/>
</g>
<g id="Group_11">
<path id="Vector_18" fill-rule="evenodd" clip-rule="evenodd" d="M98.183 80.457C97.7782 81.1577 96.8824 81.3977 96.1819 80.9935C95.4813 80.589 95.2412 79.693 95.6457 78.9923C96.0502 78.2918 96.9461 78.0518 97.6467 78.4562C98.3471 78.8607 98.5872 79.7568 98.183 80.457Z" fill="#FEFEFE"/>
<path id="Vector_19" fill-rule="evenodd" clip-rule="evenodd" d="M16.2659 33.1624C15.8614 33.8628 14.9654 34.1028 14.265 33.6985C13.5643 33.2941 13.3243 32.3981 13.7287 31.6974C14.1331 30.9969 15.0293 30.7569 15.7297 31.1613C16.4302 31.5658 16.6704 32.4619 16.2659 33.1624Z" fill="#FEFEFE"/>
</g>
<g id="Group_12">
<path id="Vector_20" fill-rule="evenodd" clip-rule="evenodd" d="M90.4342 90.5552C89.8621 91.1272 88.9345 91.1272 88.3626 90.5553C87.7906 89.9833 87.7906 89.0557 88.3626 88.4835C88.9345 87.9117 89.8621 87.9117 90.4342 88.4835C91.006 89.0557 91.006 89.9833 90.4342 90.5552Z" fill="#FEFEFE"/>
<path id="Vector_21" fill-rule="evenodd" clip-rule="evenodd" d="M23.5495 23.6704C22.9773 24.2425 22.0498 24.2425 21.4778 23.6706C20.9058 23.0986 20.9058 22.1709 21.4778 21.5989C22.0498 21.0269 22.9773 21.0269 23.5495 21.5989C24.1213 22.1709 24.1213 23.0986 23.5495 23.6704Z" fill="#FEFEFE"/>
</g>
<g id="Group_13">
<path id="Vector_22" fill-rule="evenodd" clip-rule="evenodd" d="M80.3361 98.304C79.6356 98.7084 78.7396 98.4682 78.3351 97.768C77.9307 97.0673 78.1708 96.1713 78.8713 95.7668C79.5718 95.3623 80.4679 95.6025 80.8724 96.303C81.2768 97.0034 81.0366 97.8995 80.3361 98.304Z" fill="#FEFEFE"/>
<path id="Vector_23" fill-rule="evenodd" clip-rule="evenodd" d="M33.0412 16.3869C32.3407 16.7913 31.4446 16.5513 31.0403 15.8508C30.6358 15.1501 30.8757 14.2541 31.5764 13.8496C32.2769 13.4454 33.173 13.6855 33.5774 14.3861C33.9819 15.0863 33.7417 15.9824 33.0412 16.3869Z" fill="#FEFEFE"/>
</g>
<g id="Group_14">
<path id="Vector_24" fill-rule="evenodd" clip-rule="evenodd" d="M68.5758 103.175C67.7944 103.384 66.9909 102.921 66.7817 102.139C66.5723 101.358 67.0361 100.555 67.8176 100.345C68.5987 100.136 69.4022 100.6 69.6114 101.381C69.8208 102.162 69.357 102.966 68.5758 103.175Z" fill="#FEFEFE"/>
<path id="Vector_25" fill-rule="evenodd" clip-rule="evenodd" d="M44.0944 11.8089C43.313 12.0183 42.5097 11.5542 42.3003 10.7731C42.0909 9.99167 42.5546 9.1884 43.3362 8.97898C44.1174 8.76957 44.9208 9.23353 45.1302 10.0149C45.3396 10.7961 44.8755 11.5995 44.0944 11.8089Z" fill="#FEFEFE"/>
</g>
</g>
<g id="Group_15">
<g id="Group_16">
<path id="Vector_26" fill-rule="evenodd" clip-rule="evenodd" d="M49.5912 7.73433C50.3932 7.62895 51.1291 8.19347 51.2347 8.99552C51.3405 9.79756 50.7756 10.5334 49.9737 10.6391C49.1716 10.7445 48.4357 10.18 48.3301 9.37773C48.2246 8.57591 48.7892 7.84005 49.5912 7.73433Z" fill="#FEFEFE"/>
<path id="Vector_27" fill-rule="evenodd" clip-rule="evenodd" d="M61.9377 101.515C62.7399 101.409 63.4759 101.974 63.5812 102.776C63.687 103.578 63.1223 104.314 62.3202 104.419C61.5184 104.525 60.7824 103.96 60.6768 103.158C60.5711 102.356 61.1359 101.62 61.9377 101.515Z" fill="#FEFEFE"/>
</g>
<g id="Group_17">
<path id="Vector_28" fill-rule="evenodd" clip-rule="evenodd" d="M62.3202 7.73433C63.1223 7.84005 63.6869 8.57591 63.5814 9.37773C63.4758 10.18 62.7398 10.7445 61.9378 10.6389C61.1359 10.5334 60.5712 9.79756 60.6767 8.99552C60.7823 8.19347 61.5183 7.62895 62.3202 7.73433Z" fill="#FEFEFE"/>
<path id="Vector_29" fill-rule="evenodd" clip-rule="evenodd" d="M49.9735 101.515C50.7754 101.62 51.3403 102.356 51.2346 103.158C51.129 103.96 50.393 104.525 49.5911 104.419C48.7893 104.314 48.2244 103.578 48.3301 102.776C48.4355 101.974 49.1717 101.409 49.9735 101.515Z" fill="#FEFEFE"/>
</g>
<g id="Group_18">
<path id="Vector_30" fill-rule="evenodd" clip-rule="evenodd" d="M74.6145 11.0288C75.362 11.3385 75.717 12.1955 75.4074 12.9427C75.0979 13.6902 74.2409 14.0452 73.4934 13.7355C72.7462 13.426 72.3912 12.569 72.7006 11.8217C73.0103 11.0743 73.8674 10.7193 74.6145 11.0288Z" fill="#FEFEFE"/>
<path id="Vector_31" fill-rule="evenodd" clip-rule="evenodd" d="M38.4172 98.4174C39.1647 98.7271 39.5197 99.5841 39.2101 100.331C38.9006 101.079 38.0435 101.434 37.296 101.124C36.5489 100.815 36.1939 99.9576 36.5035 99.2101C36.813 98.463 37.6701 98.108 38.4172 98.4174Z" fill="#FEFEFE"/>
</g>
<g id="Group_19">
<path id="Vector_32" fill-rule="evenodd" clip-rule="evenodd" d="M85.6378 17.3936C86.2795 17.8859 86.4006 18.8057 85.9083 19.4474C85.4159 20.0891 84.4961 20.2101 83.8542 19.7178C83.2126 19.2254 83.0916 18.3057 83.584 17.6638C84.0763 17.0221 84.9961 16.9012 85.6378 17.3936Z" fill="#FEFEFE"/>
<path id="Vector_33" fill-rule="evenodd" clip-rule="evenodd" d="M28.0558 92.4365C28.6975 92.9289 28.8186 93.8486 28.3263 94.4903C27.8338 95.1322 26.9142 95.2531 26.2722 94.7607C25.6306 94.2684 25.5095 93.3486 26.002 92.7068C26.4944 92.0651 27.4142 91.9442 28.0558 92.4365Z" fill="#FEFEFE"/>
</g>
<g id="Group_20">
<path id="Vector_34" fill-rule="evenodd" clip-rule="evenodd" d="M94.6397 26.3933C95.1321 27.0352 95.0109 27.9549 94.3693 28.4473C93.7276 28.9397 92.8078 28.8186 92.3154 28.1769C91.823 27.5352 91.944 26.6155 92.5859 26.1231C93.2276 25.6307 94.1473 25.7516 94.6397 26.3933Z" fill="#FEFEFE"/>
<path id="Vector_35" fill-rule="evenodd" clip-rule="evenodd" d="M19.5967 83.9755C20.0892 84.6171 19.9681 85.5369 19.3264 86.0293C18.6848 86.5218 17.7649 86.4008 17.2724 85.7588C16.78 85.1172 16.9012 84.1975 17.5431 83.705C18.1847 83.2126 19.1043 83.3338 19.5967 83.9755Z" fill="#FEFEFE"/>
</g>
<g id="Group_21">
<path id="Vector_36" fill-rule="evenodd" clip-rule="evenodd" d="M101.003 37.4172C101.313 38.1645 100.958 39.0217 100.21 39.3311C99.4631 39.6407 98.6061 39.2857 98.2964 38.5384C97.9869 37.791 98.3419 36.934 99.0893 36.6246C99.8366 36.315 100.694 36.67 101.003 37.4172Z" fill="#FEFEFE"/>
<path id="Vector_37" fill-rule="evenodd" clip-rule="evenodd" d="M13.6144 73.6145C13.924 74.3619 13.569 75.2189 12.8217 75.5283C12.0745 75.838 11.2173 75.483 10.9077 74.7357C10.5983 73.9884 10.9533 73.1313 11.7005 72.8219C12.4479 72.5122 13.305 72.8672 13.6144 73.6145Z" fill="#FEFEFE"/>
</g>
<g id="Group_22">
<path id="Vector_38" fill-rule="evenodd" clip-rule="evenodd" d="M104.298 49.7122C104.404 50.5143 103.839 51.2502 103.037 51.3558C102.235 51.4613 101.499 50.8967 101.394 50.0947C101.288 49.2927 101.853 48.5568 102.655 48.4512C103.457 48.3457 104.193 48.9103 104.298 49.7122Z" fill="#FEFEFE"/>
<path id="Vector_39" fill-rule="evenodd" clip-rule="evenodd" d="M10.518 62.0588C10.6234 62.861 10.0588 63.597 9.25688 63.7023C8.45483 63.8081 7.71886 63.2434 7.61326 62.4413C7.50777 61.6395 8.0724 60.9035 8.87456 60.7979C9.67638 60.6922 10.4123 61.257 10.518 62.0588Z" fill="#FEFEFE"/>
</g>
<g id="Group_23">
<path id="Vector_40" fill-rule="evenodd" clip-rule="evenodd" d="M104.298 62.4413C104.193 63.2432 103.457 63.8081 102.655 63.7026C101.853 63.597 101.288 62.861 101.394 62.0588C101.499 61.257 102.235 60.6922 103.037 60.7979C103.839 60.9035 104.404 61.6395 104.298 62.4413Z" fill="#FEFEFE"/>
<path id="Vector_41" fill-rule="evenodd" clip-rule="evenodd" d="M10.518 50.0946C10.4123 50.8966 9.67638 51.4614 8.87456 51.3558C8.0724 51.2502 7.50777 50.5142 7.61326 49.7121C7.71886 48.9103 8.45483 48.3456 9.25688 48.4512C10.0588 48.5567 10.6234 49.2926 10.518 50.0946Z" fill="#FEFEFE"/>
</g>
<g id="Group_24">
<path id="Vector_42" fill-rule="evenodd" clip-rule="evenodd" d="M101.003 74.7356C100.694 75.4829 99.8364 75.8379 99.0893 75.5284C98.3418 75.2188 97.9868 74.3619 98.2965 73.6144C98.6059 72.8673 99.4629 72.5123 100.21 72.8217C100.958 73.1314 101.313 73.9884 101.003 74.7356Z" fill="#FEFEFE"/>
<path id="Vector_43" fill-rule="evenodd" clip-rule="evenodd" d="M13.6144 38.5384C13.3047 39.2859 12.4479 39.6409 11.7005 39.3312C10.9533 39.0217 10.5983 38.1647 10.9077 37.4172C11.2173 36.67 12.0745 36.315 12.8217 36.6245C13.5689 36.9342 13.9239 37.7912 13.6144 38.5384Z" fill="#FEFEFE"/>
</g>
<g id="Group_25">
<path id="Vector_44" fill-rule="evenodd" clip-rule="evenodd" d="M94.6398 85.7599C94.1473 86.4016 93.2274 86.5226 92.5857 86.0304C91.944 85.538 91.823 84.6182 92.3155 83.9763C92.8079 83.3346 93.7274 83.2137 94.3693 83.7061C95.011 84.1984 95.1322 85.1182 94.6398 85.7599Z" fill="#FEFEFE"/>
<path id="Vector_45" fill-rule="evenodd" clip-rule="evenodd" d="M19.5967 28.1777C19.1043 28.8196 18.1845 28.9407 17.5428 28.4484C16.9012 27.9558 16.78 27.0363 17.2724 26.3944C17.7649 25.7527 18.6845 25.6315 19.3265 26.1241C19.9681 26.6164 20.0891 27.5361 19.5967 28.1777Z" fill="#FEFEFE"/>
</g>
<g id="Group_26">
<path id="Vector_46" fill-rule="evenodd" clip-rule="evenodd" d="M85.6379 94.7607C84.996 95.2533 84.0764 95.1321 83.5841 94.4904C83.0915 93.8488 83.2126 92.929 83.8543 92.4364C84.496 91.9441 85.4157 92.0652 85.9084 92.7071C86.4007 93.3488 86.2796 94.2684 85.6379 94.7607Z" fill="#FEFEFE"/>
<path id="Vector_47" fill-rule="evenodd" clip-rule="evenodd" d="M28.0559 19.7178C27.414 20.2103 26.4943 20.0891 26.0019 19.4474C25.5096 18.8057 25.6305 17.886 26.2723 17.3935C26.914 16.9011 27.8339 17.0222 28.3261 17.664C28.8186 18.3057 28.6974 19.2254 28.0559 19.7178Z" fill="#FEFEFE"/>
</g>
<g id="Group_27">
<path id="Vector_48" fill-rule="evenodd" clip-rule="evenodd" d="M74.6146 101.124C73.8673 101.434 73.0103 101.079 72.7008 100.331C72.3911 99.584 72.7461 98.7271 73.4935 98.4175C74.2408 98.108 75.0978 98.463 75.4074 99.2104C75.717 99.9577 75.362 100.815 74.6146 101.124Z" fill="#FEFEFE"/>
<path id="Vector_49" fill-rule="evenodd" clip-rule="evenodd" d="M38.4173 13.7355C37.6699 14.0451 36.8129 13.6901 36.5035 12.9428C36.1939 12.1956 36.5489 11.3384 37.2961 11.0288C38.0434 10.7194 38.9006 11.0743 39.21 11.8216C39.5196 12.569 39.1646 13.4261 38.4173 13.7355Z" fill="#FEFEFE"/>
</g>
</g>
</g>
<path id="Vector_50" d="M45.2559 44.1919V23.7146H40.3176V44.1919H37.7168V21.2783H47.8566V44.1919H45.2559ZM59.4781 28.0932L53.6838 44.1919H51.2475V21.2783H53.7497V37.476L53.8814 37.5088L59.6097 21.2783H62.0788V44.1919H59.5768V28.0932H59.4781ZM70.1448 21.2783C71.3079 21.2783 72.2628 21.432 73.009 21.7394C73.7552 22.0465 74.3478 22.4909 74.7867 23.0726C75.2257 23.6543 75.5274 24.3675 75.692 25.2126C75.8567 26.0576 75.939 27.0178 75.939 28.0932C75.939 29.0589 75.8623 29.9587 75.7086 30.7929C75.5549 31.6267 75.2586 32.3565 74.8197 32.9822C74.3807 33.6076 73.7716 34.0959 72.9926 34.4471C72.2133 34.7982 71.1981 34.9739 69.9473 34.9739H68.0706V44.1919H65.47V21.2783H70.1448ZM68.0706 32.5376H69.8484C70.6387 32.5376 71.2695 32.417 71.7415 32.1755C72.2133 31.934 72.5755 31.6158 72.828 31.2208C73.0803 30.8257 73.2393 30.3649 73.3052 29.838C73.3711 29.3113 73.4039 28.7517 73.4039 28.1591C73.4039 27.5445 73.3656 26.963 73.2888 26.4142C73.2119 25.8655 73.0529 25.388 72.8113 24.982C72.57 24.5761 72.2188 24.2577 71.758 24.0273C71.2969 23.7969 70.6825 23.6818 69.9142 23.6818H68.0706V32.5376Z" fill="#FEFEFE"/>
<path id="Vector_51" d="M57.1297 51.5368H57.1964V54.3014H56.5469V56.5831H60.8603V54.3014H60.1276V50.5376H60.9104V48.2559H57.363L54.9813 52.5361L54.7982 53.2189H54.7316V50.5376H55.4477V48.2559H51.001V50.5376H51.8003V54.3014H51.1009V56.5831H54.5652L56.9466 52.2362L57.1297 51.5368Z" fill="#FEFEFE"/>
<path id="Vector_52" d="M45.3436 68.6593L43.0166 74.7516L39.9705 81.9017H38.405L35.3589 74.7516L33.0319 68.6593H32.8627V89.0516H29.5205V59.6055H32.9051L36.4166 68.7863L39.1244 75.9785H39.2513L42.0435 68.5747L45.4704 59.6055H48.8974V89.0516H45.555V68.6593H45.3436ZM64.4919 68.3631L57.0459 89.0516H53.9151V59.6055H57.1304V80.4209L57.2996 80.4632L64.6613 59.6055H67.8344V89.0516H64.6189V68.3631H64.4919ZM78.8596 59.6055C80.3544 59.6055 81.5815 59.8029 82.5404 60.1977C83.4993 60.5926 84.2608 61.1638 84.8249 61.9113C85.3891 62.6585 85.7769 63.5754 85.9884 64.6613C86.1999 65.7471 86.3057 66.9811 86.3057 68.3631C86.3057 69.6041 86.2069 70.7606 86.0095 71.8323C85.8122 72.9041 85.4314 73.842 84.8672 74.6458C84.3032 75.4496 83.5204 76.0773 82.5192 76.5286C81.518 76.9796 80.2135 77.2053 78.6058 77.2053H76.1941V89.0516H72.8519V59.6055H78.8596ZM76.1941 74.0746H78.4789C79.4941 74.0746 80.3051 73.9195 80.9116 73.6093C81.518 73.2991 81.9833 72.8899 82.3076 72.3823C82.632 71.8747 82.8366 71.2825 82.9211 70.6055C83.0057 69.9286 83.048 69.2092 83.048 68.4477C83.048 67.658 82.9987 66.9105 82.9 66.2054C82.8013 65.5002 82.5967 64.887 82.2865 64.3651C81.9763 63.8432 81.525 63.4343 80.9326 63.1381C80.3404 62.8421 79.5506 62.6938 78.5634 62.6938H76.1941V74.0746Z" fill="#FEFEFE"/>
<g id="Group_28">
<g id="Group_29">
<path id="Vector_53" d="M20.0959 53.0726C19.7324 53.0726 19.4375 52.7777 19.4375 52.4142C19.4375 52.0507 19.7324 51.7559 20.0959 51.7559V53.0726ZM45.0747 53.0726H20.0959V51.7559H45.0747V53.0726ZM45.0747 51.7559C45.4382 51.7559 45.733 52.0507 45.733 52.4142C45.733 52.7777 45.4382 53.0726 45.0747 53.0726V51.7559Z" fill="#FEFEFE"/>
</g>
<g id="Group_30">
<path id="Vector_54" d="M66.8361 53.0726C66.4726 53.0726 66.1777 52.7777 66.1777 52.4142C66.1777 52.0507 66.4726 51.7559 66.8361 51.7559V53.0726ZM91.8149 53.0726H66.8361V51.7559H91.8149V53.0726ZM91.8149 51.7559C92.1784 51.7559 92.4733 52.0507 92.4733 52.4142C92.4733 52.7777 92.1784 53.0726 91.8149 53.0726V51.7559Z" fill="#FEFEFE"/>
</g>
</g>
</g>
</g>
</g>
<defs>
<clipPath id="clip0_244_243">
<rect width="112" height="112" fill="white"/>
</clipPath>
</defs>
</svg>
